<svg xmlns="http://www.w3.org/2000/svg" width="168.934" height="289" viewBox="0 0 168.934 289"><g fill="none" fill-rule="evenodd" stroke="#979797" transform="translate(.648 .5)"><path d="M161.908105,0 L152.910488,0 L146.185179,7.08905824 L146.185179,8.68271203 L145.34536,8.68271203 L145.34536,10.3916131 L144.711725,10.3916131 C144.711725,11.1807869 144.711725,11.5753737 144.711725,11.5753737 C144.711725,11.5753737 144.503665,11.5753737 144.087544,11.5753737 L144.087544,15.9448663 L149.175081,21.0324034 L150.955336,19.8623734 C151.32959,21.0155965 151.516717,21.5922081 151.516717,21.5922081 C151.516717,21.5922081 152.322022,21.7593016 153.932633,22.0934887 L156.913756,22.0934887 L159.003513,21.0324034 L163.290622,19.4405504 L165.792523,17.2155126 L167.749026,11.0467444 L165.792523,7.08905824 L162.994625,0.710616526 L161.908105,0 Z"/><path d="M58.4691293,165.756952 L57.598883,169.289408 L54.6654784,173.062782 L53.7554396,174.754399 L52.7973902,174.754399 L51.8544792,174.754399 L50.1922743,178.52215 L49.4206444,184.124685 L32.5710853,209.681896 L27.2150916,219.486008 L24.915773,227.895649 L15.7755922,237.130986 L10.2526427,247.787177 L7.76820212,249.645317 L7.76820212,250.743938 L2.5666209,250.743938 L0,251.929065 L2.5666209,258.04674 C4.41293857,259.19986 5.33609741,259.776419 5.33609741,259.776419 C5.33609741,259.776419 6.97494584,259.776419 10.2526427,259.776419 L15.0104502,258.762574 L13.5415853,254.578298 L13.5415853,253.438155 C16.1125315,250.909596 17.3980046,249.645317 17.3980046,249.645317 C17.3980046,249.645317 18.9389575,246.669957 22.0208634,240.719238 L26.1458825,227.895649 L35.73719,218.328563 L41.4353133,207.622631 L54.6654784,187.093124 L59.5318505,184.124685 L61.1802145,179.428296 L61.9034013,177.100863 L63.6750358,174.754399 L64.6235696,174.754399 L67.1737544,174.754399 L69.3740242,171.613381 L71.521958,166.872874 L70.6733381,164.906602 L69.3740242,163.542842 L86.6941737,138.613228 L87.4242809,136.91123 L89.3235111,135.569961 L90.6150396,132.236901 L91.3948875,132.236901 L91.3948875,136.91123 L96.4481117,138.613228 L99.9684567,146.124508 L102.466738,149.672103 L106.086565,150.52202 L110.293764,151.187248 L114.841363,149.672103 L118.916641,146.124508 L119.571489,138.004661 L119.571489,133.895645 L117.613002,132.236901 L117.613002,131.081186 L118.916641,131.081186 L119.571489,125.106245 C117.166633,118.507887 115.964206,115.208707 115.964206,115.208707 C115.964206,115.208707 113.66431,115.015079 109.06452,114.627822 L106.086565,117.026622 L104.236643,122.176733 L98.804524,126.437998 L96.4481117,122.176733 L95.3040752,121.092385 L101.836545,112.811205 L102.466738,114.627822 L104.236643,114.627822 L105.438205,117.026622 L108.179135,114.627822 L107.523855,113.495897 L108.179135,112.811205 L111.579237,112.811205 L114.841363,113.495897 L111.579237,110.570278 L109.06452,108.67321 L107.523855,102.932699 L112.326646,97.0278273 L114.841363,93.3954575 L119.571489,93.3954575 L124.553346,85.9719802 L130.120413,84.5982714 L132.157187,86.6562394 L136.543453,81.1207466 L140.358782,78.3664086 L144.014941,82.4512026 L144.014941,73.7145704 L150.955717,65.6483565 L160.879639,67.5337459 L153.236005,60.4173634 C155.996398,54.9940395 157.376595,52.2823776 157.376595,52.2823776 C157.376595,52.2823776 167.572144,46.0838194 167.572144,46.0838194 C167.572144,46.0838194 166.944546,44.89307 166.944546,44.89307 C166.944546,44.89307 165.887592,44.89307 163.773683,44.89307 L163.773683,46.0838194 L158.901689,46.0838194 L166.192812,25.6879636 L166.192812,24.6684952 L154.373553,46.819117 L150.125264,46.819117 L148.705707,43.3454849 L148.705707,41.690633 L150.125264,40.1132035 L150.125264,37.3497824 L150.955717,34.3311698 L150.955717,31.6391158 L152.313423,31.6391158 L152.313423,28.2865916 L147.769284,32.2169731 L146.327668,32.2169731 L143.197463,35.4289257 L140.358782,37.9176916 L134.347509,37.9176916 L126.591418,25.6879636 L125.942626,30.4072761 L126.591418,30.4072761 L126.591418,35.4289257 L127.374726,35.4289257 L127.374726,40.1132035 L124.553346,43.3454849 L119.571489,43.3454849 C119.571489,42.7719529 119.571489,42.4851868 119.571489,42.4851868 C119.571489,42.4851868 118.369061,42.4851868 115.964206,42.4851868 L113.990581,42.4851868 L117.613002,33.0867868 L121.174437,28.2865916 C129.956485,15.7692325 134.347509,9.51055292 134.347509,9.51055292 C134.347509,9.51055292 126.329594,16.4761273 110.293764,30.4072761 L101.836545,50.6175775 L98.1332406,68.1916209 L106.771689,75.8668295 L110.293764,83.4654807 L107.523855,85.9719802 L106.086565,89.4953529 L98.804524,99.4396032 L90.6150396,100.15587 C90.6150396,102.007089 90.6150396,102.932699 90.6150396,102.932699 C90.6150396,102.932699 90.8749889,104.582937 91.3948875,107.883414 L96.4481117,109.800378 L89.3235111,122.176733 C86.0247646,122.176733 84.3753913,122.176733 84.3753913,122.176733 C84.3753913,122.176733 84.3753913,123.366041 84.3753913,125.744656 L80.9389567,128.793546 L80.9389567,134.507672 L65.7217581,156.657429"/><polyline points="113.991 42.485 108.004 41.558 112.638 45.209 118.995 49.898 118.126 52.985 117.553 56.184 113.991 57.221 103.275 61.803 110.705 62.742 113.991 63.158 118.995 63.158 118.995 65.962 114.987 73.313 110.705 63.158"/><path d="M109.280351 59.0618208 107.962006 56.61328C111.002256 49.6046834 112.583368 45.8893114 112.705341 45.4671641M127.769164 72.1741569C127.769164 72.1741569 127.536749 73.8404617 127.071918 77.1730713L135.532662 74.6736141C133.723583 73.766661 132.819043 73.3131845 132.819043 73.3131845 132.819043 73.3131845 127.769164 72.1741569 127.769164 72.1741569Z"/><path d="M138.752679 41.5582794C138.752679 41.5582794 140.142471 41.5582794 142.922055 41.5582794L148.905571 48.6201616 152.506742 50.5237612C149.38739 59.2120406 147.827714 63.5561804 147.827714 63.5561804 147.827714 63.5561804 139.868489 71.3917889 139.868489 71.3917889 139.868489 71.3917889 138.423213 72.0322541 135.532662 73.3131845L132.819043 73.3131845 127.769164 72.1741569 123.946241 68.1864113 121.307444 65.1718815 121.307444 60.8490676 119.965544 60.0742901 121.307444 56.5511941 121.307444 49.4800616 125.851468 46.4986049 130.172655 41.5582794C135.892671 41.5582794 138.752679 41.5582794 138.752679 41.5582794ZM111.920585 97.7062202C111.920585 97.7062202 122.087001 105.954025 122.087001 105.954025 122.087001 105.954025 121.747806 106.261348 121.069414 106.875993 120.65989 107.966541 120.455128 108.511815 120.455128 108.511815 120.455128 108.511815 119.304683 108.511815 117.003793 108.511815L115.018224 108.867366 113.990584 108.511815 112.638389 108.511815C112.478983 108.748849 112.39928 108.867366 112.39928 108.867366 112.39928 108.867366 111.395456 108.867366 109.387806 108.867366M103.568903 92.6740528 97.617999 87.3012935 96.7750161 86.1663063 96.7750161 81.1005106 96.1011324 81.1005106 96.1011324 78.6422892 95.6169319 78.6422892C95.7253564 76.7804826 95.7253564 75.8495793 95.6169319 75.8495793 95.454295 75.8495793 94.8803391 75.8495793 94.8803391 75.8495793 94.8803391 75.8495793 94.8803391 75.1848307 94.8803391 73.8553336 95.0955925 73.8553336 95.1494059 73.8553336 95.0417791 73.8553336 94.9341524 73.8553336 94.6618145 73.8553336 94.2247655 73.8553336L94.2247655 70.6745212 93.7773048 70.6745212C93.7773048 69.163758 93.7773048 68.4083764 93.7773048 68.4083764 93.7773048 68.4083764 93.5723433 68.4083764 93.1624204 68.4083764L93.1624204 65.1856782 91.3957346 63.4189924 90.1705731 61.4136769 90.1705731 60.1762489 89.2738566 60.1762489 89.2738566 59.5979846 88.8611014 59.5979846C88.8611014 58.7202963 88.8611014 58.2814521 88.8611014 58.2814521 88.8611014 58.2814521 88.5876466 58.2814521 88.0407369 58.2814521L88.0407369 56.8742069 87.3641007 56.8742069C87.3641007 55.9500053 87.3641007 55.4898991 87.3641007 55.4938882 87.3641007 55.4978774 87.1186894 55.4978774 86.6278669 55.4938882L86.6278669 54.7374296C86.511145 54.7374296 86.4477577 54.7374296 86.4377051 54.7374296 86.4276525 54.7374296 86.2149521 54.7374296 85.7996039 54.7374296 85.7996039 54.3806418 85.7996039 54.2022479 85.7996039 54.2022479 85.7996039 54.2022479 85.6475782 54.2022479 85.3435267 54.2022479L85.3435267 53.1007694 84.6346983 53.1007694 84.6346983 52.4314334 84.0298664 52.4314334 84.0298664 51.121483 83.786072 51.121483 83.786072 39.2724514C83.2288031 39.2724514 82.9501686 39.2724514 82.9501686 39.2724514 82.9501686 39.2724514 82.8896934 39.732797 82.768743 40.6534881L82.1140071 41.5582794 82.1140071 42.4446472C81.6580496 42.4446472 81.4300708 42.4446472 81.4300708 42.4446472 81.4300708 42.4446472 81.4300708 43.0549841 81.4300708 44.2756577L80.8603035 44.2756577 80.8603035 45.4671641 80.0081057 45.4671641 80.0081057 47.2280126 79.4688551 47.2280126 79.4688551 49.1742691 78.8954975 49.1742691 78.8954975 50.7844813 78.3209432 50.7844813 78.3209432 62.6366244 79.2028201 62.6366244C79.2028201 63.7805472 79.2028201 64.3525086 79.2028201 64.3525086 79.2028201 64.3525086 79.395495 64.3525086 79.780845 64.3525086L79.780845 66.0698289 80.4376153 66.0698289 80.4376153 67.9154397 80.8603035 67.9154397 80.8603035 68.9521746 81.6937124 68.9521746C81.6937124 69.2863839 81.6937124 69.4534885 81.6937124 69.4534885 81.6937124 69.4534885 81.4159094 69.4534885 80.8603035 69.4534885L80.8603035 72.5086433 80.0081057 72.5086433 80.0081057 76.105083 79.4688551 76.105083C79.4688551 77.0234605 79.4688551 77.4826492 79.4688551 77.4826492 79.4688551 77.4826492 79.2777359 77.4826492 78.8954975 77.4826492L78.8954975 79.1341489 78.3209432 79.1341489 78.3209432 80.4141808 77.5243938 80.4141808 77.5243938 81.3903607 78.0940415 81.3903607 78.0940415 82.3327926 77.1359323 82.3327926 77.1359323 83.5468842 76.4194447 83.5468842 76.4194447 85.2756932 75.9585806 85.2756932C75.9585806 86.4642145 75.9585806 87.0584752 75.9585806 87.0584752 75.9585806 87.0584752 74.5311902 88.6480636 71.6764094 91.8272404L66.466646 94.8054448 62.1891421 97.4892515 57.8741803 100.75228 52.3780372 104.757885 51.1856066 105.759794 51.1856066 106.784442C51.4617341 107.194525 51.5997979 107.399566 51.5997979 107.399566 51.5997979 107.399566 51.777394 108.149921 51.777394 108.149921 51.777394 108.149921 51.9776084 108.404508 52.3780372 108.91368L52.9057991 109.108749 70.2431949 108.91368 68.3352341 111.310628C68.3352341 111.650183 68.3352341 111.81996 68.3352341 111.81996 68.3352341 111.81996 69.5143809 111.81996 69.5143809 111.81996 69.5143809 111.81996 69.5143809 112.501982 69.5143809 112.501982 69.5143809 112.501982 69.2586777 112.579451 68.7472713 112.734389L68.7472713 113.749463 66.9135083 113.749463 66.9135083 114.301518 59.901456 114.301518 50.7067913 123.452502 50.7067913 125.72463 51.5997979 126.396599 53.578127 127.873016C55.4178338 128.796899 56.3376872 129.25884 56.3376872 129.25884 56.3376872 129.25884 56.9105262 129.483468 58.0562043 129.932723L58.5404049 129.61475 58.7085467 131.122282C59.970069 132.416595 60.6008302 133.063751 60.6008302 133.063751 60.6008302 133.063751 61.745152 134.643486 61.745152 134.643486 61.745152 134.643486 63.6440176 136.871775 63.6440176 136.871775 63.6440176 136.871775 64.2081204 137.536404 65.3363261 138.865661L67.803523 141.977661C68.5970407 143.82048 68.9937995 144.741889 68.9937995 144.741889 68.9937995 144.741889 69.69453 146.086943 71.0959911 148.777053"/><path d="M82.6770792,85.7266035 C82.5139143,91.8015376 82.5139143,94.8390046 82.6770792,94.8390046 C82.8402441,94.8390046 85.7214249,94.8390046 91.3206215,94.8390046 L91.3206215,85.7266035 L82.6770792,85.7266035 Z"/><path d="M84.7913444 88.7401977C84.7913444 90.9846509 84.7913444 92.1068775 84.7913444 92.1068775 84.7913444 92.1068775 86.1709629 92.1068775 88.9301999 92.1068775L88.9301999 88.7401977 84.7913444 88.7401977ZM75.9425057 86.461756 77.3383092 87.6549942 79.150168 88.4638896 79.8188609 88.7401977 82.5547055 88.7401977C82.5547055 92.5267768 82.5547055 94.4200663 82.5547055 94.4200663 82.5547055 94.4200663 80.8159067 94.4200663 77.3383092 94.4200663L77.3383092 93.5607952 75.9425057 93.5607952C75.9425057 93.1605202 75.9425057 92.9603827 75.9425057 92.9603827 75.9425057 92.9603827 75.6035819 92.9603827 74.9257344 92.9603827L74.9257344 92.1068775 73.6936522 92.1068775 73.6936522 91.7886907 71.6764094 91.8272404M91.540181 88.9404869C91.540181 88.9404869 92.5815838 88.9404869 94.6643894 88.9404869L94.6643894 88.3875672 95.9852362 88.3875672 97.617999 87.3012935 102.986559 92.1068775 101.23251 92.8939231C99.8259338 93.4829555 99.1226455 93.7774717 99.1226455 93.7774717 99.1226455 93.7774717 98.267016 93.9916699 96.555757 94.4200663L96.3512192 94.8390046 91.3206215 94.8390046"/><polyline points="51.096 105.959 75.56 105.446 75.56 104.793 90.896 105.02"/><path d="M70.2431949 108.91368C85.6420184 108.778168 93.4248839 108.710413 93.5917916 108.710413M121.069414 106.875993C121.069414 106.875993 113.543314 106.875993 113.543314 106.875993 113.543314 106.875993 113.192213 106.875993 112.490012 106.875993L108.540331 106.875993M79.1220343 109.014085 79.9105769 111.2771C81.2485212 112.423848 81.9174933 112.997222 81.9174933 112.997222 81.9174933 112.997222 79.9105769 115.000136 79.9105769 115.000136 79.9105769 115.000136 79.6477294 115.747284 79.1220343 117.241581L85.7504648 117.241581C87.2666197 117.701154 88.0246972 117.930941 88.0246972 117.930941 88.0246972 117.930941 89.34317 117.930941 91.9801156 117.930941"/><polyline points="94.949 109.014 93.592 109.868 93.592 111.067 94.949 112.438"/><polyline points="109.065 114.628 107.525 121.869 106.289 125.463 105.163 127.598 105.163 129.954 105.163 132.08 109.388 129.954 111.889 129.954 117.613 132.237"/><polyline points="119.571 133.896 114.805 147.556 109.388 149.802 106.087 150.522"/><path d="M51.095565 126.351626C51.095565 126.351626 49.5030447 130.209364 46.3180043 137.924842L40.3875406 141.108931 42.0416768 151.060388C44.5082612 154.709106 45.7415534 156.533464 45.7415534 156.533464 45.7415534 156.533464 47.778418 156.533464 51.8521474 156.533464L52.7615945 155.301469C55.4414373 158.62395 56.7813587 160.28519 56.7813587 160.28519 56.7813587 160.28519 56.7813587 161.23931 56.7813587 163.14755 57.9638994 163.14755 58.5551698 163.14755 58.5551698 163.14755 58.5551698 163.14755 58.7314033 163.637999 59.0838704 164.618896M65.8250084 157.328155C66.6253 159.814277 67.0254457 161.057339 67.0254457 161.057339 67.0254457 161.057339 67.4388432 161.695741 68.2656381 162.972546L69.3740242 163.542842"/><polyline points="68.661 163.543 63.821 163.543 61.888 163.543 61.888 164.619 59.729 164.619 59.729 166.646 60.485 166.646 60.485 168.406 59.729 169.024 63.821 172.152 65.825 174.663"/><path d="M114.804873,149.884542 L115.737404,159.794195 L116.73847,166.386149 L117.613002,171.84734 L115.737404,171.84734 L115.737404,176.325721 C116.987803,183.948573 117.613002,187.759999 117.613002,187.759999 C117.613002,187.759999 118.265831,190.299402 119.571489,195.378207 C120.612385,198.970639 121.132832,200.766855 121.132832,200.766855 C121.132832,200.766855 122.531225,204.83703 122.531225,204.83703 C122.531225,204.83703 125.861629,209.767061 125.861629,209.767061 C125.861629,209.767061 125.861629,209.998487 125.861629,210.461339 L117.613002,209.767061 L117.613002,210.461339 C112.906935,210.461339 110.553902,210.461339 110.553902,210.461339 C110.553902,210.461339 110.553902,208.586569 110.553902,204.83703 L109.502648,209.174834 L109.502648,211.337588 L108.211635,214.520038 C110.329281,218.265206 111.388103,220.13779 111.388103,220.13779 C111.388103,220.13779 109.620924,220.13779 106.086565,220.13779 L106.086565,222.791949 L108.211635,222.791949 L106.778815,227.758866 C106.778815,231.055117 106.778815,232.703242 106.778815,232.703242 C106.778815,232.703242 108.211635,235.277891 108.211635,235.277891 C108.211635,235.277891 108.641973,236.069849 109.502648,237.653765 C107.68676,241.344833 106.778815,243.190367 106.778815,243.190367 C106.778815,243.190367 106.283722,244.273999 105.293535,246.441261 L105.293535,251.360226 C105.822222,254.629427 106.086565,256.264027 106.086565,256.264027 C106.086565,256.264027 106.583851,257.962154 107.578424,261.358406 L107.578424,265.078573 L106.086565,266.274502 L102.869709,267.141326 C100.678402,267.141326 99.5827488,267.141326 99.5827488,267.141326 C99.5827488,267.141326 98.4791716,267.141326 96.2720172,267.141326 C95.3252742,265.766157 94.8519027,265.078573 94.8519027,265.078573 C94.8519027,265.078573 94.4495711,264.375552 93.6449079,262.969509 L92.6407865,259.776419 L92.6407865,257.360774 L92.6407865,254.808666 L92.6407865,253.583638 L90.6423801,253.583638 L90.6423801,248.166301 L91.4206766,248.166301 L91.4206766,246.441261 L90.6423801,245.062131 L90.6423801,243.864563 L88.921439,243.190367 L88.921439,241.00876 L88.2755226,239.705041 L88.921439,238.226319 L88.2755226,236.151681 L85.9098946,234.641401 L86.5304007,230.379008 L79.6618007,227.122786 C78.4060343,229.293601 77.778151,230.379008 77.778151,230.379008 C77.778151,230.379008 77.3662563,230.881069 76.542467,231.88519 L75.2830119,238.226319 L73.1079621,245.737147 L71.8214572,250.385204 L71.8214572,251.938928 L73.1079621,252.727881 C73.7571573,253.298386 74.0817549,253.583638 74.0817549,253.583638 C74.0817549,253.583638 75.3138869,250.743136 77.778151,245.062131 L79.6618007,243.864563 L80.3663251,243.864563 L78.8646513,245.737147 L77.237155,250.385204 L77.237155,251.360226 L76.542467,253.583638 L75.2830119,256.264027 L74.6498007,260.599782 L74.0817549,263.566654 L73.1079621,264.519544 L72.378847,263.566654 L71.8214572,267.141326 L72.378847,273.294335 L71.8214572,276.65015 L70.3611779,276.65015 L66.8373267,281.400259 L64.2061189,285.504451 L62.4429637,288 L60.0420891,288 L57.1731709,288 L55.3440307,286.900794 L52.887417,285.504451 L50.4865424,284.510986 L49.4070094,282.424462 L51.8615739,276.65015 L53.4263638,273.999679 L54.2042505,271.971764 L55.3440307,270.993873 L56.5596323,270.438532 L56.5596323,268.255286 L57.1731709,265.078573 L57.8449076,262.969509 L57.8449076,261.358406 L57.1731709,256.264027 L56.5596323,254.808666 L55.9030599,252.727881 L55.9030599,251.360226 L57.1731709,250.385204 L59.3170725,247.440874 L62.4429637,245.737147 L62.4429637,237.653765 L51.8615739,242.643224 L54.2042505,232.703242 L57.1731709,216.782795 L58.5453335,209.174834 L49.4070094,209.174834 L53.4263638,200.766855 L55.3440307,196.489707 L57.1731709,189.90636 L59.0838704,184.487383"/><polyline points="64.624 174.754 60.911 193.857 59.084 205.307 57.476 215.257"/><path d="M88.319376 192.389204C88.319376 195.061123 88.319376 196.397082 88.319376 196.397082 88.319376 196.397082 89.4673532 197.019638 89.4673532 197.019638 89.4673532 197.019638 89.4673532 200.575457 89.4673532 200.575457 89.4673532 200.575457 89.6750082 201.313315 90.0903182 202.789032 90.8067281 205.208486 91.164933 206.418214 91.164933 206.418214 91.164933 206.418214 92.0596256 209.472792 92.0596256 209.472792 92.0596256 209.472792 91.164933 213.996666 91.164933 213.996666 91.164933 213.996666 90.216414 213.996666 88.319376 213.996666 90.216414 218.939402 91.164933 221.41077 91.164933 221.41077 91.164933 221.41077 92.0596256 225.473158 92.0596256 225.473158 92.0596256 225.473158 92.4385961 226.273586 93.1965369 227.874443L86.5304007 230.379008M93.1965369 227.874443C93.1965369 227.874443 93.1965369 229.732135 93.1965369 233.447521L93.9244225 237.101293C95.0626999 239.882778 95.6318386 241.27352 95.6318386 241.27352 95.6318386 241.27352 95.6318386 242.803473 95.6318386 242.803473 95.6318386 242.803473 97.0519531 243.523981 97.0519531 243.523981 97.0519531 243.523981 99.6679966 242.803473 99.6679966 242.803473 99.6679966 242.803473 100.61351 242.505925 102.504537 241.91083L102.504537 237.101293C102.504537 235.812466 102.504537 235.168052 102.504537 235.168052 102.504537 235.168052 102.817932 235.168052 103.444722 235.168052L103.444722 232.829474 104.345563 232.829474 104.345563 227.874443 104.995578 225.52193 106.086565 222.791949M90.6116896 228.865509 90.6116896 235.149351 91.4207151 234.541259 92.2283108 234.319362 92.8904099 233.988971C93.0944946 233.80224 93.1965369 233.708875 93.1965369 233.708875"/><polyline points="90.612 235.149 90.612 237.81 90.612 240.269 90.612 242.569 90.612 243.524"/><path d="M103.478945,235.494586 L104.718473,237.408075 C105.219418,238.098655 105.46989,238.443945 105.46989,238.443945 C105.46989,238.443945 106.086565,240.089674 106.086565,240.089674 C106.086565,240.089674 106.086565,240.834192 106.086565,242.323228 L106.086565,243.523981 L104.782755,244.402981 L103.023999,245.759362 L101.061543,246.763849 L99.0817267,247.825761 L96.9271877,247.825761 L94.7866709,247.200098 L92.8449149,246.763849 L91.9041133,245.167309 L90.4096514,243.523981"/><line x1="90.612" x2="90.612" y1="243.222" y2="243.862"/><path d="M99.6415508 252.325456C99.6415508 252.325456 93.4645298 259.776419 93.4645298 259.776419 93.4645298 259.776419 94.8824718 259.501854 97.7183557 258.952722L100.300802 258.092186 103.767287 258.092186 104.361402 258.430793C105.317068 258.430793 105.7949 258.430793 105.7949 258.430793 105.7949 258.430793 105.507384 258.098286 104.93235 257.433271 101.405151 254.028061 99.6415508 252.325456 99.6415508 252.325456ZM91.4470166 248.261219 92.5836354 250.178898C92.9922364 250.573097 93.1965369 250.770196 93.1965369 250.770196 93.1965369 250.770196 94.5137139 251.624541 94.5137139 251.624541 94.5137139 251.624541 94.9357081 251.772389 95.7796965 252.068084 96.5511427 252.239666 96.9368659 252.325456 96.9368659 252.325456 96.9368659 252.325456 97.2930751 252.239666 98.0054937 252.068084 98.4853313 251.772389 98.7252501 251.624541 98.7252501 251.624541 98.7252501 251.624541 98.7833721 251.39744 98.8996162 250.943239L99.1550698 250.420907C99.5908805 250.420907 99.8087858 250.420907 99.8087858 250.420907 99.8087858 250.420907 99.896143 250.451303 100.070857 250.512095 100.450659 251.176957 100.64056 251.509388 100.64056 251.509388 100.64056 251.509388 101.084103 252.068084 101.084103 252.068084 101.084103 252.068084 101.371834 252.113272 101.947295 252.203648 102.278008 252.176944 102.443365 252.131756 102.443365 252.068084 102.443365 251.972577 102.906413 251.598696 102.906413 251.509388 102.906413 251.44985 103.206869 251.159333 103.807781 250.637837L104.636838 249.51731C105.063732 248.923968 105.277179 248.627298 105.277179 248.627298M66.6852964 274.944816C66.4887641 275.492454 66.390498 275.766274 66.390498 275.766274 66.390498 275.766274 63.3670934 275.766274 57.3202843 275.766274L56.5038453 274.944816 54.5502995 272.87891 54.8055211 271.768445 61.9409155 271.768445 63.8133773 273.45036 66.6852964 274.944816ZM61.6925061 268.47844C61.6819155 268.454965 59.494945 269.551634 55.1315947 271.768445"/><line x1="61.693" x2="65.504" y1="268.478" y2="274.299"/><polyline points="62.443 237.654 62.443 253.924 65.504 254.394 68.211 254.827 71.821 251.939"/><path d="M62.0008941,250.293338 C62.0008941,250.293338 61.0723582,250.699852 59.2152862,251.51288 L57.6020387,253.427237 C57.2413464,255.176371 57.0610003,256.050938 57.0610003,256.050938 C57.0610003,256.050938 57.4283651,256.796291 58.1630947,258.286997 L60.0828085,260.17175 C61.6562453,261.114174 62.4429637,261.585386 62.4429637,261.585386 C62.4429637,261.585386 66.2115703,262.194935 66.2115703,262.194935 C66.2115703,262.194935 67.1663053,261.991752 69.0757754,261.585386 L72.3028343,260.17175 L72.7953795,257.336867 L74.1120285,253.427237"/><path d="M62.0008941 252.325456C62.0008941 252.325456 61.539862 252.550244 60.6177979 252.999819L61.309346 254.049473 62.4429637 254.049473M58.5662444 260.430005 62.4429637 262.827322 64.8833618 262.827322 67.1322105 262.194935 70.5057634 262.194935 72.2721031 260.430005C72.2721031 262.787005 72.2721031 263.965504 72.2721031 263.965504"/><path d="M72.2721031 265.16825C72.2721031 265.16825 71.2744196 265.700737 69.2790525 266.765709L65.5042281 266.765709 62.4429637 266.765709 60.6177979 265.586928 59.2584227 263.965504 58.5662444 262.687199 58.5662444 260.430005M64.1950531 137.994567C64.1950531 137.994567 63.978324 139.648767 63.5448658 142.957166L62.6702854 143.820859C62.6702854 144.594777 62.6702854 144.981736 62.6702854 144.981736 62.6702854 144.981736 64.1950531 145.065853 64.1950531 145.485261 64.1950531 145.764866 63.6867972 146.694851 62.6702854 148.275216L62.0028339 149.884542 62.0028339 151.764716 65.7217581 156.657429M105.163204 151.379535 105.163204 163.542842 106.086565 165.07487 106.086565 169.103115 107.348374 170.904208 107.348374 174.082688 111.929384 185.1435 110.248831 192.875876 111.388103 196.642419 111.929384 199.168803C111.56853 201.229202 111.388103 202.259401 111.388103 202.259401 111.388103 202.259401 111.176162 202.831565 110.752278 203.975892"/><polyline points="67.023 140.982 69.374 141.738 72.044 143.2 74.178 144.227"/><path d="M105.163204,159.541913 C103.1116,160.759483 102.085798,161.368269 102.085798,161.368269 C102.085798,161.368269 101.424375,161.618594 100.101528,162.119244 L96.8983412,162.119244 C93.7659554,162.369653 92.1997624,162.494858 92.1997624,162.494858 C92.1997624,162.494858 88.3109355,162.494858 88.3109355,162.494858 C88.3109355,162.494858 84.5315891,162.494858 84.5315891,162.494858 C84.5315891,162.494858 83.3282289,162.494858 80.9215085,162.494858 L80.9215085,159.541913 L72.6269756,159.541913 C72.8435822,161.260134 72.8435822,162.119244 72.6269756,162.119244 C72.4103691,162.119244 71.7348191,162.119244 70.6003257,162.119244"/><line x1="68.345" x2="69.302" y1="163.543" y2="163.543"/><line x1="70.37" x2="70.916" y1="162.114" y2="162.114"/><path d="M74.4474323,162.381821 C74.4474323,163.162714 74.4474323,163.70211 74.4474323,164.000011 C74.4474323,165.078803 74.4474323,165.6182 74.4474323,165.6182 C74.4474323,165.6182 75.6708942,165.6182 78.1178182,165.6182 L78.1178182,162.407364 L74.4474323,162.381821 Z"/><path d="M104.929329,163.332956 C104.721957,163.332956 102.719435,164.919722 102.719435,164.919722 C102.719435,164.919722 100.749213,166.006923 100.749213,166.006923 C100.749213,166.006923 98.7624954,166.426031 98.7624954,166.426031 C98.7624954,166.426031 93.9694689,166.29188 93.9694689,166.29188 C93.9694689,166.29188 92.8229533,166.233133 90.5299221,166.115638 C87.5877599,165.691705 86.1166788,165.479739 86.1166788,165.479739 C86.1166788,165.479739 82.7885074,165.34165 82.7885074,165.34165 C82.7885074,165.34165 82.150835,165.34165 80.87549,165.34165 L80.87549,168.076015 L72.4088847,168.076015 L72.4088847,165.6182 L70.9155605,165.6182"/><line x1="72.401" x2="72.401" y1="162.114" y2="165.704"/><line x1="80.922" x2="80.922" y1="162.495" y2="165.422"/><path d="M88.319376,192.389204 C86.2360816,194.133514 85.1944344,195.00567 85.1944344,195.00567 C85.1944344,195.00567 84.9401533,195.793868 84.4315913,197.370264 L84.4315913,201.193942 L83.786072,202.547054 L83.786072,206.564484 L83.786072,207.396267 L83.786072,212.734817 L81.8920852,214.044672 L80.9215085,216.65492 L79.271023,218.942271 L78.1178182,220.455168 L78.1178182,226.365061 C78.1178182,226.826462 78.1178182,227.057162 78.1178182,227.057162 C78.1178182,227.057162 78.6324791,227.079037 79.6618007,227.122786"/><line x1="59.084" x2="58.412" y1="164.438" y2="166.011"/><line x1="65.722" x2="65.922" y1="156.545" y2="157.617"/><path d="M62.0028339 149.691388 60.2056573 147.325998 58.7479814 146.802202 56.4910482 146.299936C55.1010197 146.983978 54.4060054 147.325998 54.4060054 147.325998 54.4060054 147.325998 53.4115689 148.178846 51.4226959 149.884542L48.554108 152.062485C48.1867985 152.871038 48.0031438 153.275315 48.0031438 153.275315 48.0031438 153.275315 49.1742326 154.061179 49.1742326 154.061179 49.1742326 154.061179 49.9237204 154.061179 51.4226959 154.061179L52.5382654 154.061179 52.5382654 155.564838M94.9486262 172.190195 98.248108 178.84557C99.1691794 185.003966 99.6297151 188.083164 99.6297151 188.083164 99.6297151 188.083164 99.9527719 190.390666 100.598885 195.00567L100.598885 212.548527 107.429028 207.001364 110.248831 192.875876"/><polyline points="94.949 172.19 94.949 184.854 88.319 192.369"/><polyline points="69.374 171.613 67.6 176.841 67.6 185.485 67.6 195.006 67.023 195.628 65.922 202.179 64.195 211.384 63.045 218.942 60.409 230.379 69.302 225.426 72.401 223.41 83.786 212.549"/></g></svg>