<svg xmlns="http://www.w3.org/2000/svg" width="85.153" height="240" viewBox="0 0 85.153 240"><g fill="none" fill-rule="evenodd" stroke="#979797" transform="translate(.5 .5)"><path d="M46.6989786,0 L37.3625197,0 L37.3625197,1.12518011 L35.0939181,1.12518011 L35.0939181,2.53688294 L33.7816529,2.53688294 L33.7816529,3.44583627 L32.6462398,3.44583627 C32.6462398,3.72776158 32.6462398,3.86872424 32.6462398,3.86872424 C32.6462398,3.86872424 32.6462398,4.17267266 32.6462398,4.78056949 L31.4563252,4.78056949 L31.4563252,5.84457432 L29.1545777,5.84457432 L29.1545777,6.90746687 L28.0140482,6.90746687 L28.0140482,8.06935214 L26.7380432,8.06935214 L26.7380432,9.37227422 L25.4989659,9.37227422 L25.4989659,10.5788731 L24.3568792,10.5788731 L24.3568792,17.5090304 C25.1182703,17.5090304 25.4989659,17.5090304 25.4989659,17.5090304 C25.4989659,17.5090304 25.4989659,20.9873452 25.4989659,27.9439747 L26.7380432,27.9439747 L26.7380432,31.5250639 L28.0140482,31.5250639 L28.0140482,33.898887 L29.1545777,33.898887 L29.1545777,40.6848931 L28.0140482,40.6848931 L28.0140482,41.9695739 L22.3042819,41.9695739 L22.3042819,43.2458013 C19.9547066,43.2458013 18.7799189,43.2458013 18.7799189,43.2458013 C18.7799189,43.2458013 18.7799189,43.5836371 18.7799189,44.2593087 L15.2813606,44.2593087 L15.2813606,45.5433221 L14.0082476,45.5433221 L14.0082476,46.5670624 C13.1946536,46.5670624 12.7878565,46.5670624 12.7878565,46.5670624 C12.7878565,46.5670624 12.7878565,46.9943254 12.7878565,47.8488512 L11.6711297,47.8488512 L11.6711297,48.8648057 L10.4907807,48.8648057 L10.4907807,50.2504812 L9.34557956,50.2504812 L9.34557956,58.1514345 L8.17368379,58.1514345 C8.17368379,64.4682819 8.17368379,67.6267056 8.17368379,67.6267056 C8.17368379,67.6267056 9.71174137,67.6267056 12.7878565,67.6267056 L12.7878565,72.1465572 L14.0082476,72.1465572 L14.0082476,74.5900089 L15.2813606,74.5900089 L15.2813606,75.744998 L14.0082476,75.744998 L14.0082476,78.0752198 L12.7878565,78.0752198 L12.7878565,80.3440438 L11.6711297,80.3440438 L11.6711297,94.3649714 L10.4907807,94.3649714 L10.4907807,99.0418766 L9.34557956,99.0418766 L9.34557956,103.709439 L8.17368379,103.709439 L8.17368379,108.361651 L7.02848269,108.361651 L7.02848269,109.544892 L5.80720179,109.544892 L5.80720179,111.852646 L4.65199019,111.852646 L4.65199019,113.110632 L3.51991396,113.110632 L3.51991396,115.360325 L2.38227634,115.360325 L2.38227634,117.789539 L3.51991396,117.789539 L3.51991396,118.929402 L5.80720179,118.929402 L5.80720179,120.129772 L8.17368379,120.129772 L8.17368379,121.284093 L11.6711297,121.284093 L11.6711297,120.129772 L12.7878565,120.129772 L12.7878565,118.929402 L14.0082476,118.929402 L14.0082476,116.578491 L15.2813606,116.578491 L15.2813606,115.360325 L16.5066457,115.360325 L16.5066457,114.129923 L15.2813606,114.129923 L15.2813606,111.852646 L14.0082476,111.852646 L14.0082476,109.544892 L12.7878565,109.544892 C12.7878565,108.756065 12.7878565,108.361651 12.7878565,108.361651 C12.7878565,108.361651 13.6190246,108.361651 15.2813606,108.361651 L15.2813606,106.114628 L16.5066457,106.114628 L16.5066457,103.709439 L17.5199307,103.709439 L17.5199307,101.366314 L18.7799189,101.366314 C18.7799189,99.1525853 18.7799189,98.0457207 18.7799189,98.0457207 C18.7799189,98.0457207 19.2050314,98.0457207 20.0552565,98.0457207 L20.0552565,96.8553611 L21.0852256,96.8553611 L21.0852256,93.3514639 L23.4081063,93.3514639 C23.4081063,98.6946976 23.4081063,101.366314 23.4081063,101.366314 C23.4081063,101.366314 23.7243639,101.366314 24.3568792,101.366314 L24.3568792,106.114628 L25.4989659,106.114628 L25.4989659,109.511524 L24.5406275,109.511524 L24.5406275,113.110632 L23.4081063,113.110632 L23.4081063,116.578491 L22.3042819,116.578491 L22.3042819,120.129772 L21.0852256,120.129772 L21.0852256,129.333425 L20.0552565,129.333425 L20.0552565,139.766367 L18.7799189,139.766367 L18.7799189,150.144362 L17.5199307,150.144362 L17.5199307,160.832239 L16.5066457,160.832239 L16.5066457,165.474886 L15.2813606,165.474886 L15.2813606,170.13355 L14.0082476,170.13355 L14.0082476,186.593702 L15.2813606,186.593702 L15.2813606,196.964802 L16.5066457,196.964802 L16.5066457,206.368665 L17.5199307,206.368665 C17.5199307,213.312837 17.5199307,216.784923 17.5199307,216.784923 C17.5199307,216.784923 17.1821691,216.784923 16.5066457,216.784923 L16.5066457,217.982401 L15.2813606,217.982401 L15.2813606,220.286818 L14.0082476,220.286818 L14.0082476,222.706022 L11.6711297,222.706022 L11.6711297,223.809846 L9.34557956,223.809846 L9.34557956,225.028458 L7.02848269,225.028458 L7.02848269,226.125386 L5.80720179,226.125386 L5.80720179,227.333764 L3.51991396,227.333764 L3.51991396,228.499431 C1.96331842,228.499431 1.18502064,228.499431 1.18502064,228.499431 C1.18502064,228.499431 1.18502064,229.446202 1.18502064,229.446202 C1.18502064,229.446202 0,229.446202 0,229.446202 C0,229.446202 0,230.352857 0,232.166166 L1.18502064,232.166166 L1.18502064,233.20926 L2.38227634,233.20926 L2.38227634,234.419863 L3.51991396,234.419863 L3.51991396,235.453614 L5.80720179,235.453614 L5.80720179,236.692691 L7.02848269,236.692691 L7.02848269,237.92198 C8.57321393,237.92198 9.34557956,237.92198 9.34557956,237.92198 C9.34557956,237.92198 9.34557956,238.28132 9.34557956,239 L14.0082476,239 C14.0082476,238.28132 14.0082476,237.92198 14.0082476,237.92198 C14.0082476,237.92198 14.841047,237.92198 16.5066457,237.92198 L16.5066457,236.692691 L20.0552565,236.692691 L20.0552565,235.453614 L22.3042819,235.453614 L22.3042819,234.419863 L24.5406275,234.419863 L24.5406275,233.20926 L28.0140482,233.20926 C28.0140482,227.755392 28.0140482,225.028458 28.0140482,225.028458 C28.0140482,225.028458 28.3942247,225.028458 29.1545777,225.028458 L29.1545777,223.809846 L26.7380432,223.809846 L26.7380432,222.706022 L25.4989659,222.706022 L25.4989659,216.784923 L26.7380432,216.784923 L26.7380432,211.079383 L28.0140482,211.079383 L28.0140482,206.368665 L29.1545777,206.368665 L29.1545777,204.046006 L30.3803078,204.046006 L30.3803078,202.870996 L31.4563252,202.870996 L31.4563252,200.517194 L32.6462398,200.517194 L32.6462398,198.276845 L33.7816529,198.276845 L33.7816529,195.79869 C33.7816529,194.33864 33.7816529,193.608615 33.7816529,193.608615 C33.7816529,193.608615 34.2190746,193.608615 35.0939181,193.608615 L35.0939181,190.017738 L36.2188758,190.017738 L36.2188758,187.726446 L37.3625197,187.726446 L37.3625197,186.593702 L37.3625197,185.054755 L38.6071584,185.054755 C38.6071584,183.822796 38.6071584,183.206817 38.6071584,183.206817 C38.6071584,183.206817 38.9874832,183.206817 39.7481329,183.206817 L39.7481329,180.580507 L40.8150296,180.580507 L40.8150296,179.417509 L39.7481329,179.417509 L39.7481329,163.259674 L39.7481329,159.709283 L40.8150296,159.709283 L40.8150296,156.339972 L40.8150296,151.530483 L42.1301868,151.530483 L42.1301868,146.911639 L40.8150296,146.911639 L40.8150296,143.361026 L42.1301868,143.361026 L42.1301868,145.788906 L43.3703764,145.788906 L43.3703764,152.821392 L44.5184694,152.821392 C44.5184694,157.41332 44.5184694,159.709283 44.5184694,159.709283 C44.5184694,159.709283 44.9157008,159.709283 45.7101637,159.709283 L45.7101637,165.474886 L46.6989786,165.474886 L46.6989786,178.343271 L47.9387233,178.343271 L47.9387233,180.580507 L49.1019433,180.580507 L49.1019433,183.206817 L50.2180027,183.206817 L50.2180027,185.394889 L51.3407358,185.394889 L51.3407358,187.726446 L52.5942727,187.726446 L52.5942727,190.017738 L53.8228947,190.017738 L53.8228947,192.292123 L54.9358397,192.292123 L54.9358397,194.737132 L56.0381069,194.737132 L56.0381069,196.964802 L57.1708505,196.964802 L57.1708505,199.318381 L58.4871199,199.318381 L58.4871199,201.731579 L59.6185288,201.731579 L59.6185288,206.368665 L60.7461559,206.368665 L60.7461559,208.707562 L61.9552017,208.707562 L61.9552017,213.318843 L62.9833912,213.318843 L62.9833912,214.441799 L61.9552017,214.441799 L61.9552017,215.656851 L60.7461559,215.656851 L60.7461559,217.982401 L59.6185288,217.982401 L59.6185288,220.286818 L58.4871199,220.286818 L58.4871199,222.706022 C57.609607,222.706022 57.1708505,222.706022 57.1708505,222.706022 C57.1708505,222.706022 57.1708505,223.352107 57.1708505,224.644277 L57.1708505,225.028458 L56.0381069,225.028458 L56.0381069,227.333764 L68.9694473,227.333764 C68.9694473,226.528179 68.9694473,226.125386 68.9694473,226.125386 C68.9694473,226.125386 69.3290096,226.125386 70.0481342,226.125386 L70.0481342,223.809846 L71.2456123,223.809846 L71.2456123,222.706022 L72.4315228,222.706022 C72.4315228,221.093219 72.4315228,220.286818 72.4315228,220.286818 C72.4315228,220.286818 72.7971655,220.286818 73.528451,220.286818 L73.528451,217.982401 L74.7766491,217.982401 L74.7766491,216.784923 L75.9961503,216.784923 L75.9961503,209.85432 L74.7766491,209.85432 C74.7766491,209.089815 74.7766491,208.707562 74.7766491,208.707562 C74.7766491,208.707562 74.3605831,208.707562 73.528451,208.707562 L73.528451,206.368665 L72.4315228,206.368665 L72.4315228,202.870996 L71.2456123,202.870996 L71.2456123,199.318381 L70.0481342,199.318381 L70.0481342,186.593702 L70.0481342,170.13355 C70.8464529,170.13355 71.2456123,170.13355 71.2456123,170.13355 C71.2456123,170.13355 71.2456123,169.712293 71.2456123,168.86978 L70.0481342,168.86978 L70.0481342,166.626538 L68.9694473,166.626538 C68.9694473,164.381962 68.9694473,163.259674 68.9694473,163.259674 C68.9694473,163.259674 68.5656163,163.259674 67.7579544,163.259674 L67.7579544,159.709283 L66.6398929,159.709283 L66.6398929,149.324836 L65.4869058,149.324836 L65.4869058,137.466399 L64.1906574,137.466399 L64.1906574,124.808012 L65.4869058,124.808012 L65.4869058,123.676158 L66.6398929,123.676158 L66.6398929,122.306054 L65.4869058,122.306054 L65.4869058,120.129772 L64.1906574,120.129772 L64.1906574,116.578491 L62.9833912,116.578491 L62.9833912,113.110632 C62.2979316,113.110632 61.9552017,113.110632 61.9552017,113.110632 C61.9552017,113.110632 61.9552017,109.597095 61.9552017,102.570021 L62.9833912,102.570021 L62.9833912,93.3514639 L64.1906574,93.3514639 L64.1906574,86.2578018 L64.1906574,78.0752198 L65.4869058,78.0752198 L65.4869058,81.4879101 L66.6398929,81.4879101 L66.6398929,85.1441893 L67.7579544,85.1441893 L67.7579544,87.5613912 L68.9694473,87.5613912 L68.9694473,88.7094842 L67.7579544,88.7094842 L67.7579544,115.360325 L68.9694473,115.360325 L68.9694473,121.284093 L70.0481342,121.284093 L70.0481342,122.306054 L68.9694473,122.306054 L68.9694473,124.808012 L67.7579544,124.808012 L67.7579544,127.06549 L66.3246734,127.06549 L66.3246734,129.333425 L65.4869058,129.333425 L65.4869058,131.771315 L66.6398929,131.771315 L66.6398929,132.941208 L67.7579544,132.941208 L67.7579544,134.18429 L74.7766491,134.18429 L74.7766491,132.941208 L75.9961503,132.941208 L75.9961503,131.771315 L78.2658642,131.771315 L78.2658642,130.435469 L77.0252296,130.435469 L77.0252296,128.07922 L75.9961503,128.07922 L75.9961503,116.578491 L77.0252296,116.578491 L77.0252296,109.511524 L78.2658642,109.511524 L78.2658642,104.921821 L79.374805,104.921821 L79.374805,100.357924 L80.6452486,100.357924 C80.6452486,98.0228819 80.6452486,96.8553611 80.6452486,96.8553611 C80.6452486,96.8553611 81.0982422,96.8553611 82.0042294,96.8553611 L82.0042294,95.3835953 L80.6452486,95.3835953 L80.6452486,70.1148708 L81.6565314,70.1148708 L81.6565314,68.7387609 L82.96457,68.7387609 L82.96457,67.6267056 L84.1533724,67.6267056 L84.1533724,66.4730512 C83.3608375,66.4730512 82.96457,66.4730512 82.96457,66.4730512 C82.96457,66.4730512 82.96457,65.9850579 82.96457,65.0090713 L81.6565314,65.0090713 L81.6565314,62.8058717 L80.6452486,62.8058717 L80.6452486,60.552842 L79.374805,60.552842 L79.374805,58.1514345 L78.2658642,58.1514345 L78.2658642,55.8345601 L77.0252296,55.8345601 L77.0252296,53.5230246 L75.9961503,53.5230246 L75.9961503,51.0533232 L73.528451,51.0533232 L73.528451,49.8213645 L71.2456123,49.8213645 L71.2456123,48.8648057 L70.0481342,48.8648057 L70.0481342,47.4350839 L67.7579544,47.4350839 L67.7579544,46.1257106 L66.3246734,46.1257106 L66.3246734,45.0577016 L64.1906574,45.0577016 L64.1906574,44.2593087 L61.9552017,44.2593087 L61.9552017,45.3849337 L60.7461559,45.3849337 L60.7461559,44.2593087 L58.4871199,44.2593087 L58.4871199,42.9563866 L56.0381069,42.9563866 L56.0381069,41.6599157 L53.8228947,41.6599157 L53.8228947,40.6848931 L52.5942727,40.6848931 L52.5942727,38.358898 L51.3407358,38.358898 C51.3407358,36.7980017 51.3407358,36.0175535 51.3407358,36.0175535 C51.3407358,36.0175535 50.9664914,36.0175535 50.2180027,36.0175535 L50.2180027,33.898887 L49.1019433,33.898887 L49.1019433,32.4854045 C49.8459829,32.4854045 50.2180027,32.4854045 50.2180027,32.4854045 C50.2180027,32.4854045 50.2180027,30.9715946 50.2180027,27.9439747 L51.3407358,27.9439747 L51.3407358,23.5931893 L52.5942727,23.5931893 L52.5942727,18.8228528 L53.9254467,18.8228528 L53.9254467,14.0760965 L54.9358397,14.0760965 C54.9358397,13.0685213 54.9358397,12.5647336 54.9358397,12.5647336 C54.9358397,12.5647336 54.564858,12.5647336 53.8228947,12.5647336 L53.8228947,11.3114191 L52.5942727,11.3114191 L52.5942727,9.37227422 L51.3407358,9.37227422 L51.3407358,8.06935214 L50.2180027,8.06935214 C50.2180027,6.58616693 50.2180027,5.84457432 50.2180027,5.84457432 C50.2180027,5.84457432 49.8459829,5.84457432 49.1019433,5.84457432 L49.1019433,4.78056949 L47.9387233,4.78056949 L47.9387233,2.14669593 L46.6989786,2.14669593 L46.6989786,0 Z"/><polygon fill="#979797" points="32.833 19.782 36.232 19.782 36.232 20.911 38.525 20.911 38.525 22.131 35.03 22.131 35.03 20.957 32.833 20.957"/><path fill="#979797" d="M26.8709038 18.5997523C26.8709038 20.1711304 26.8709038 20.9568195 26.8709038 20.9568195 26.8709038 20.9568195 28.0584796 20.9568195 30.4336313 20.9568195 30.4336313 20.1737139 30.4336313 19.7821611 30.4336313 19.7821611 30.4336313 19.7821611 30.0307296 19.7821611 29.2249262 19.7821611L29.2249262 18.5997523 26.8709038 18.5997523ZM29.2256643 27.9535612C29.2256643 31.3661693 29.2256643 33.1799343 29.2256643 33.3948562 29.2256643 33.6097781 29.2256643 36.0650488 29.2256643 40.7606682L33.9780898 40.7606682 33.9780898 39.5744763 37.4339714 39.5744763 37.4339714 38.4571161 40.9102441 38.4571161 40.9102441 34.898633 39.7038457 34.898633 39.7038457 33.6807011 38.5252199 33.6807011 38.5252199 32.5080727 37.4339714 32.5080727 37.4339714 31.2718718 36.2490713 31.2718718C36.2490713 30.5308403 36.2490713 30.1603245 36.2490713 30.1603245 36.2490713 30.1603245 35.8553656 30.1603245 35.0679542 30.1603245L35.0679542 27.9535612 29.2256643 27.9535612Z"/><path d="M80.4412156 71.0622619 79.3483257 71.0622619 79.3483257 72.309582C78.547797 72.309582 78.1475326 72.309582 78.1475326 72.309582 78.1475326 72.309582 78.1475326 72.6807349 78.1475326 73.4230406L76.9614786 73.4230406 76.9614786 74.6321931 64.187156 74.6321931 64.187156 77.6942869M12.7878565 67.6267056C15.2176635 67.6267056 16.432567 67.6267056 16.432567 67.6267056 16.432567 67.6267056 16.432567 68.0087338 16.432567 68.77279L19.9611455 68.77279C19.9611455 74.1824487 19.9611455 76.8872781 19.9611455 76.8872781 19.9611455 76.8872781 20.3425829 76.8872781 21.1054578 76.8872781L21.1054578 85.1744109 22.3461649 85.1744109 22.3461649 93.2386306"/><path fill="#979797" d="M61.2813993,104.885509 C61.2813993,104.885509 60.3121165,104.885509 58.3735508,104.885509 L58.3735508,106.057685 L55.9772352,106.057685 L55.9772352,107.279942 L52.5964495,107.279942 L52.5964495,108.472451 L37.3709587,108.472451 L37.3709587,107.279942 L25.5665436,107.279942 L25.5665436,109.539572 L31.5748419,109.539572 L31.5748419,110.695558 L38.6408478,110.695558 L38.6408478,111.899552 L45.6396409,111.899552 L45.6396409,112.998302 L55.1219192,112.998302 L55.1219192,111.899552 L57.4090375,111.899552 L57.4090375,110.695558 L59.6268721,110.695558 L59.6268721,109.539572 L61.962941,109.539572 L61.962941,104.885509 C61.5085799,104.885509 61.2813993,104.885509 61.2813993,104.885509 Z"/><path d="M17.2957903 207.488741 18.9533299 207.488741 18.9533299 208.700078C21.9336627 208.700078 23.4238292 208.700078 23.4238292 208.700078 23.4238292 208.700078 23.4238292 207.488741 23.4238292 207.488741 23.4238292 207.488741 24.2386669 207.488741 25.8683423 207.488741L25.8683423 206.398274 28.2495962 206.398274M59.9870349 202.889464 66.599872 202.889464 66.599872 201.653464 67.7735546 201.653464C67.7735546 200.05479 67.7735546 199.255453 67.7735546 199.255453 67.7735546 199.255453 68.1135096 199.255453 68.7934196 199.255453L68.7934196 197.024252 70.1307099 197.024252M32.8330493 40.7606682 32.8330493 44.3938106 48.9406084 44.3938106C48.9406084 43.5566675 48.9406084 43.1380959 48.9406084 43.1380959 48.9406084 43.1380959 49.802769 43.1380959 51.5270902 43.1380959 51.5270902 42.3313503 51.5270902 41.9279775 51.5270902 41.9279775 51.5270902 41.9279775 52.2298654 41.9279775 53.6354158 41.9279775"/></g></svg>