<?xml version="1.0" encoding="UTF-8"?>
<svg width="937px" height="1304px" viewBox="0 0 937 1304" version="1.1" xmlns="http://www.w3.org/2000/svg" xmlns:xlink="http://www.w3.org/1999/xlink">
    <title>gnome-child</title>
    <g id="Page-1" stroke="none" stroke-width="1" fill="none" fill-rule="evenodd">
        <g id="gnome-child" transform="translate(4.101966, 9.635968)" stroke="#FFFFFF" stroke-width="7">
            <polygon id="Path" points="328.358682 10.9047492 169.783299 643.861952 96.0055777 603.013558 153.899196 688.250918 169.783299 714.101518 185.575799 774.990581 228.70288 856.820278 280.797975 929.773565 280.797975 971.022768 4.28077513e-15 1163.38164 0 1235.40973 210.739369 1276.63145 543.398034 1290.38714 827.828542 1250.96406 927 1181.63828 883.670234 1124.15688 603.628178 929.773565 641.350634 917.462011 704.447349 791.405986 716.960431 714.101518 680.007448 603.013558"></polygon>
            <polygon id="left_eye" points="489.091989 631.09895 463.5 637.724945 450.970947 641.861952 428.586367 663.270977 455.782813 666.239954 475.238239 666.239954 477.271538 667.932367 493.639346 667.932367 497.457366 664.48548 522.573304 656.616417 522.573304 654.34642 509.102558 640.13799 506.219242 636.725139 500.434283 635.421265"></polygon>
            <polygon id="right_eye" points="633.185279 619.412154 619.635332 622.797513 608.865281 625.986506 594.837508 631.09895 578.697486 650.645946 594.837508 652.475046 625.807133 656.124846 642.373925 656.124846 650.843215 650.645946 670.439289 644.255142 670.439289 641.861952 658.951845 631.09895 648.780057 620.369113"></polygon>
            <polygon id="left_pupil" points="469.102034 637.7685 466.54076 643.159417 466.54076 656.124846 475.579835 666.225288 477.271538 667.932367 493.639346 667.932367 497.457366 664.48548 504.531799 654.972829 504.531799 639.661474 500.434283 635.421265 489.091989 631.09895 469.102034 636.340915"></polygon>
            <polygon id="right_pupil" points="633.185279 619.412154 619.635332 622.797513 615.599999 632.373656 615.599999 644.60402 625.971426 655.235306 642.068248 655.235306 653.953007 648.321239 653.953007 629.8582 644.793161 620.352749"></polygon>
            <polygon id="left_retina" points="485.536279 634.458414 476.667384 634.458414 472.17648 643.762916 472.17648 656.124846 476.667384 662.002097 493.844876 662.002097 499.936821 656.124846 499.936821 640.532032 493.844876 634.458414"></polygon>
            <polygon id="right_retina" points="634.776503 623.222974 625.851643 623.222974 621.612743 631.09895 621.612743 644.520891 625.851643 650.645946 634.776503 650.645946 634.776503 649.515659 642.038138 649.515659 648.240704 643.028506 648.240704 629.679507 642.038138 623.222974"></polygon>
            <polyline id="nose" points="565.506559 649.515659 601.521153 733.208657 629.27275 741.299508 634.776503 746.767792 634.776503 755.863889 621.612743 762.707215 612.215443 767.155376 524.551806 767.155376 509.123507 767.155376 499.936821 759.388627 518.960256 748.737905 537.356475 744.892253 565.506559 741.299508"></polyline>
            <polygon id="mouth" points="426.737945 818.912807 522.573304 807.954985 562.997693 807.954985 586.51153 805.518379 608.114761 799.469899 632.31718 799.469899 632.31718 797.862143 653.953007 797.862143 613.306762 824.606369 599.673242 827.7645 574.254114 831.568709 548.391869 833.210469 516.183609 833.210469 479.44324 827.7645 424.017616 820.366482"></polygon>
            <polygon id="hat" points="169.783299 643.861952 209.509999 673.090139 499.936821 562.912099 538.985312 589.356087 563.38044 558.916154 670.439289 589.356087 329.267827 -2.79804038e-14"></polygon>
            <polygon id="ear" points="92.5244407 601.218149 209.509999 673.090139 254.37988 727.985258 241.068797 767.155376 197.964993 750.414958 169.783299 714.101518"></polygon>
        </g>
    </g>
</svg>