<?xml version="1.0" encoding="UTF-8"?>
<svg width="104px" height="102px" viewBox="0 0 104 102" version="1.1" xmlns="http://www.w3.org/2000/svg" xmlns:xlink="http://www.w3.org/1999/xlink">
    <title>logo</title>
    <g id="Page-1" stroke="none" stroke-width="1" fill="none" fill-rule="evenodd">
        <g id="logo" transform="translate(1.190448, 1.449255)" stroke="#FFFFFF">
            <path d="M48.87153,8.02096439 C44.1046168,2.2718003 39.7360392,-0.386754654 35.7657972,0.0452995188 C33.361752,0.306915256 24.575534,0.4543 19.5570848,3.29855228 C17.377459,4.53387529 15.2448599,7.40345204 13.1592875,11.9072826 C10.9352639,16.871786 9.46184151,20.9019827 8.73902025,23.9978725 C8.01619899,27.0937624 7.49317399,31.6144782 7.16994527,37.5600199 C7.52771405,44.2108994 8.05073904,49.0209708 8.73902025,51.9902341 C9.42730146,54.9594974 10.9007239,58.7621529 13.1592875,63.3982005 C22.2599809,63.8507231 29.0054846,63.8507231 33.3957986,63.3982005 C37.7861126,62.945678 43.5906971,61.5862927 50.809552,59.3200444 L50.809552,54.6423945 L50.809552,51.9902341 C49.2913347,49.2676884 48.3029498,46.8228196 47.8443973,44.6556279 C47.3858448,42.4884361 47.0306781,38.5834671 46.7788971,32.9407207 C46.5437021,27.3432582 46.5437021,23.1441375 46.7788971,20.3433586 C47.0140921,17.5425797 47.7116364,13.435115 48.87153,8.02096439 Z" id="Path-92"></path>
            <path d="M74.0974277,5.68434189e-14 C66.5023076,0.878881198 61.2206344,2.2653563 58.2524082,4.15942531 C55.2841819,6.05349431 51.9152935,10.1870703 48.1457429,16.5601534 C47.4220873,22.8206444 47.0602595,27.4751139 47.0602595,30.5235619 C47.0602595,33.5720098 47.4220873,38.0239836 48.1457429,43.8794833 C49.1989512,47.6341168 50.0868876,50.3377004 50.809552,51.9902341 C51.5322163,53.6427679 52.7936649,55.8542337 54.5938977,58.6246316 C63.5113209,58.222341 70.0124976,58.222341 74.0974277,58.6246316 C78.1823578,59.0269223 83.6665266,60.2072589 90.5499342,62.1656414 C91.5703729,60.9626385 92.3699644,59.7823019 92.9487086,58.6246316 C93.5274528,57.4669614 94.2468453,55.2554955 95.1068861,51.9902341 C95.3923944,44.1888995 95.3923944,38.1484005 95.1068861,33.868737 C94.8213778,29.5890735 94.1019853,24.8461454 92.9487086,19.6399526 C92.3372264,15.5992082 91.5376349,12.6696821 90.5499342,10.8513742 C89.5622336,9.03306638 88.2886424,6.80241674 86.7291607,4.15942531 C84.6337194,2.6451472 82.8680105,1.65158623 81.4320339,1.17874237 C79.9960574,0.705898518 77.5511886,0.312984394 74.0974277,5.68434189e-14 Z" id="Path-93"></path>
            <path d="M0,68.3676041 L0,90.735915 C2.58964821,91.7793184 5.66545082,92.441426 9.22740783,92.7222376 C12.7893648,93.0030492 18.11207,93.0030492 25.1955234,92.7222376 C35.5229261,91.2054048 43.3102168,90.0229367 48.5573952,89.1748332 C53.8045737,88.3267298 61.3489881,87.1970171 71.1906384,85.7856952 C78.195506,86.7767414 83.4719982,87.906454 87.020115,89.1748332 C90.5682318,90.4432124 94.0658116,92.4500511 97.5128543,95.1953491 C96.4549054,94.9994162 95.7242931,94.9994162 95.3210173,95.1953491 C94.9177415,95.3912821 94.4994574,95.9494774 94.0661649,96.869935 C94.4338139,98.0447913 94.852098,98.7828347 95.3210173,99.0840653 C95.7899365,99.3852959 96.5205489,99.3852959 97.5128543,99.0840653 L100.758114,96.869935 L102.016251,72.5169002 C100.413559,69.9958744 98.9124266,68.2283004 97.5128543,67.2141781 C96.113282,66.2000559 93.5756916,65.041194 89.900083,63.7375924 C83.2844727,61.8570375 77.6561589,60.7026528 73.0151417,60.2744384 C68.3741244,59.8462241 61.4911368,59.8462241 52.3661789,60.2744384 C47.4131288,62.0009851 43.5691749,63.1553698 40.8343171,63.7375924 C38.0994592,64.3198151 34.1512698,64.8242962 28.9897486,65.2510359 L7.16994527,65.2510359 C5.17463385,64.7956728 3.8749314,64.7956728 3.27083791,65.2510359 C2.84866149,65.5692707 2.10087052,64.36284 1.20378345,65.2510359 C0.946078465,65.5061867 0.544817314,66.5450428 0,68.3676041 Z" id="Path-94"></path>
            <path d="M74.2253197,19.4688971 C77.7628083,19.7247755 80.2164696,20.1497499 81.5863037,20.7438205 C82.9561377,21.337891 83.7412798,22.5644998 83.9417299,24.4236468 C80.294751,26.3624415 77.6358536,27.9483598 75.9650374,29.1814017 C74.2942213,30.4144437 72.702755,32.1482107 71.1906384,34.382703 C72.7537704,36.3953402 74.0846873,37.7660305 75.183389,38.4947737 C76.2820907,39.2235169 78.2165394,39.7482514 80.9867351,40.0689773 L80.9867351,48.5507452 C79.1572113,50.2274348 77.4833121,51.3650554 75.9650374,51.963607 C74.4467628,52.5621587 72.0430637,52.891057 68.7539401,52.9503019 C66.8674261,52.4392055 65.4190492,51.775592 64.4088094,50.9594614 C63.3985695,50.1433308 62.1736064,48.5896479 60.73392,46.2984128 C61.59272,46.3404027 62.1585064,46.3404027 62.4312793,46.2984128 C64.2635494,46.0163581 65.2702652,45.5209652 66.2660523,45.1815643 C67.484206,44.7663728 69.1257347,44.023007 71.1906384,42.951467 C71.1906384,41.343758 70.3784056,40.5399035 68.7539401,40.5399035 C67.1294745,40.5399035 65.0219209,39.2063629 62.4312793,36.5392818 C62.4312793,35.5113104 62.4312793,33.9544818 62.4312793,31.8687962 C62.4312793,29.7831106 63.090456,27.9068382 64.4088094,26.2399792 C66.0920352,24.6571389 67.5404121,23.3848799 68.7539401,22.4232023 C69.967468,21.4615246 71.7912612,20.4767562 74.2253197,19.4688971 Z" id="Path-95" fill="#FFFFFF"></path>
            <polygon id="Path-96" fill="#FFFFFF" points="15.6312274 26.072501 15.6312274 29.4642494 17.4211418 29.4642494 17.4211418 44.9779722 18.9534152 52.9503019 24.9584145 52.9503019 24.9584145 48.5507452 23.8888285 43.67474 24.9584145 43.67474 35.7274704 51.085737 40.6657921 48.0975373 40.6657921 44.9779722 30.9113039 40.5517816 26.0059446 40.5517816 26.0059446 38.2659749 33.9094408 38.2659749 38.6490179 35.0768491 38.6490179 27.8549019 35.7274704 25.6052085 15.6312274 25.6052085"></polygon>
            <path d="M24.0071357,30.5244284 L24.0071357,35.4276848 L27.5919282,35.4276848 C28.7722224,34.5103741 29.7126734,33.8787975 30.4132811,33.5329552 C31.1138887,33.1871128 32.2598395,32.7887748 33.8511333,32.3379411 L33.8511333,30.5244284 L24.0071357,30.5244284 Z" id="Path-97" fill="#000000"></path>
            <g id="text" transform="translate(11.743534, 69.326388)" fill="#FFFFFF" fill-rule="nonzero">
                <path d="M3.75154172,8.06139989 C3.76167226,8.06139989 3.77940069,8.06393252 3.80472703,8.06899779 C4.03772934,8.08419359 4.20741581,8.09179149 4.31378643,8.09179149 C5.11916399,8.09179149 5.72572979,7.88411552 6.13348384,7.46876357 C6.54123789,7.05341162 6.74511491,6.43291633 6.74511491,5.6072777 C6.74511491,4.86268336 6.55770001,4.29284075 6.1828702,3.89774987 C5.80804039,3.50265899 5.26858939,3.30511355 4.56451718,3.30511355 L3.75154172,3.30511355 L3.75154172,8.06139989 Z M0.499639882,12.8404799 L0.499639882,12.0806898 L1.41898596,11.9971129 L1.70010832,11.75398 L1.70010832,3.45707158 L1.46457337,3.23673244 L0.43885667,3.16075342 L0.43885667,2.40096327 L4.6404962,2.40096327 C6.12461962,2.40096327 7.20352163,2.65169402 7.87720223,3.15315552 C8.55088283,3.65461702 8.88772313,4.44986404 8.88772313,5.53889659 C8.88772313,6.63299441 8.53062176,7.48269306 7.81641902,8.08799254 C7.10221628,8.69329203 6.10182592,8.99594177 4.81524793,8.99594177 C4.69368151,8.99594177 4.54425611,8.99214282 4.36697174,8.98454492 C4.18968737,8.97694702 3.98454403,8.96555016 3.75154172,8.95035436 L3.75154172,11.75398 L3.98707667,11.9971129 L5.09637029,12.0806898 L5.09637029,12.8404799 L0.499639882,12.8404799 Z" id="Shape" transform="translate(4.663290, 7.620722) rotate(5.000000) translate(-4.663290, -7.620722) "></path>
                <polygon id="Path" transform="translate(15.089890, 9.176772) rotate(10.000000) translate(-15.089890, -9.176772) " points="11.1579761 14.3965302 11.1579761 13.63674 12.1077138 13.5531631 12.3736403 13.3100302 12.3736403 5.01312181 12.1533012 4.79278266 11.1579761 4.71680365 11.1579761 3.9570135 15.640738 3.9570135 15.640738 4.71680365 14.6910003 4.79278266 14.4402695 5.01312181 14.4402695 13.4923799 17.4338427 13.4923799 17.6313882 13.2416491 17.8669231 11.3497717 19.0218041 11.3497717 19.0218041 14.3965302"></polygon>
                <path d="M26.4833766,4.42200507 L25.1309501,8.26654323 L27.8737926,8.26654323 L26.4833766,4.42200507 Z M26.141471,2.28699475 L27.7750198,2.28699475 L31.3536314,11.9211338 L32.2729775,12.0806898 L32.2729775,12.8404799 L28.071338,12.8404799 L28.071338,12.0806898 L29.0514673,11.9819171 L29.1654358,11.7843716 L28.2308939,9.1403019 L24.834632,9.1403019 L23.9000901,11.7691758 L24.059646,11.9667213 L25.0397753,12.0806898 L25.0397753,12.8404799 L21.6891007,12.8404799 L21.6891007,12.0806898 L22.6236426,11.9363296 L26.141471,2.28699475 Z" id="Shape" transform="translate(26.981039, 7.563737) rotate(-10.000000) translate(-26.981039, -7.563737) "></path>
                <polygon id="Path" transform="translate(40.241481, 6.064671) rotate(-10.000000) translate(-40.241481, -6.064671) " points="34.9191506 11.2844297 34.9191506 10.5398354 35.8384967 10.410671 36.119619 10.1295487 36.119619 1.90102135 35.8992799 1.68068221 34.9191506 1.6047032 34.9191506 0.844913047 38.4825664 0.844913047 38.4825664 1.26279763 43.2464506 8.65555578 43.2464506 1.99219617 42.9653283 1.69587801 42.0155906 1.6047032 42.0155906 0.844913047 45.5638106 0.844913047 45.5638106 1.6047032 44.6444645 1.69587801 44.3785379 1.99219617 44.3785379 11.2844297 42.6386185 11.2844297 37.2517063 2.92673806 37.2517063 10.1295487 37.5024371 10.410671 38.4673706 10.5398354 38.4673706 11.2844297"></polygon>
                <polygon id="Path" transform="translate(53.371067, 6.064671) rotate(-8.000000) translate(-53.371067, -6.064671) " points="48.0487367 11.2844297 48.0487367 10.5398354 48.9680828 10.410671 49.2492052 10.1295487 49.2492052 1.90102135 49.028866 1.68068221 48.0487367 1.6047032 48.0487367 0.844913047 51.6121525 0.844913047 51.6121525 1.26279763 56.3760368 8.65555578 56.3760368 1.99219617 56.0949144 1.69587801 55.1451767 1.6047032 55.1451767 0.844913047 58.6933967 0.844913047 58.6933967 1.6047032 57.7740506 1.69587801 57.5081241 1.99219617 57.5081241 11.2844297 55.7682046 11.2844297 50.3812925 2.92673806 50.3812925 10.1295487 50.6320232 10.410671 51.5969567 10.5398354 51.5969567 11.2844297"></polygon>
                <polygon id="Path" transform="translate(65.217407, 6.064671) rotate(8.000000) translate(-65.217407, -6.064671) " points="61.0385612 11.2844297 61.0385612 10.5246396 61.9882989 10.4410626 62.2390297 10.1979298 62.2390297 1.90102135 61.9882989 1.68068221 61.0385612 1.6047032 61.0385612 0.844913047 68.8871935 0.844913047 68.8871935 3.28383943 67.8082915 3.28383943 67.5423649 1.91621716 67.3752111 1.71107382 64.2600715 1.71107382 64.2600715 5.41884975 66.2887112 5.41884975 66.5014524 5.1985106 66.6610083 4.08161908 67.5803544 4.08161908 67.5803544 7.69062229 66.6610083 7.69062229 66.5014524 6.56613287 66.2887112 6.35339163 64.2600715 6.35339163 64.2600715 10.3954752 67.8918684 10.3954752 68.074218 10.1447445 68.3249488 8.49599985 69.3962529 8.49599985 69.3962529 11.2844297"></polygon>
                <path d="M75.4473508,3.28991775 L75.4549487,7.34719715 C75.5207972,7.35226241 75.5929772,7.35606136 75.6714889,7.358594 C75.7500005,7.36112663 75.8627027,7.36239295 76.0095955,7.36239295 C76.8504299,7.36239295 77.4709252,7.19270648 77.8710814,6.85333355 C78.2712375,6.51396062 78.4713156,5.98970541 78.4713156,5.28056794 C78.4713156,4.63221368 78.2737702,4.13835008 77.8786793,3.79897715 C77.4835884,3.45960421 76.9137458,3.28991775 76.1691514,3.28991775 L75.4473508,3.28991775 Z M72.2562322,2.40096327 L76.9897248,2.40096327 C78.185128,2.40096327 79.0930772,2.62636768 79.7135725,3.07717651 C80.3340678,3.52798533 80.6443154,4.18900276 80.6443154,5.0602288 C80.6443154,5.77443154 80.418911,6.355671 79.9681022,6.80394719 C79.5172934,7.25222338 78.8512107,7.55740575 77.9698541,7.71949432 C78.3548144,7.81066914 78.6802579,7.93350188 78.9461844,8.08799254 C79.212111,8.24248321 79.4311838,8.44129496 79.6034029,8.68442781 C79.8212094,8.9984744 80.0390159,9.51513171 80.2568224,10.2343997 C80.3631931,10.5737726 80.44677,10.8245034 80.5075532,10.986592 C80.6645765,11.3968786 80.8735188,11.6817999 81.1343801,11.8413559 C81.3952413,12.0009118 81.7991964,12.0806898 82.3462454,12.0806898 L82.5437908,12.0806898 L82.5437908,12.8252841 C82.2550705,12.8658063 81.9802798,12.8961979 81.7194185,12.9164589 C81.4585572,12.93672 81.214158,12.9468505 80.986221,12.9468505 C80.6671091,12.9468505 80.366992,12.9050621 80.0858697,12.8214852 C79.8047473,12.7379083 79.5654134,12.6201408 79.367868,12.4681828 C78.8967981,12.1034835 78.5270335,11.5032493 78.2585743,10.6674801 C78.2231175,10.5509789 78.1952585,10.4598041 78.1749974,10.3939556 C77.8812119,9.5075338 77.5646327,8.92882697 77.2252597,8.65783515 C76.8858868,8.38684333 76.3818927,8.25134742 75.7132773,8.25134742 L75.4473508,8.25134742 L75.4473508,11.75398 L75.6980815,11.9971129 L76.6478192,12.0806898 L76.6478192,12.8404799 L72.2562322,12.8404799 L72.2562322,12.0806898 L73.1755782,11.9971129 L73.426309,11.75398 L73.426309,3.45707158 L73.1755782,3.23673244 L72.2562322,3.16075342 L72.2562322,2.40096327 Z" id="Shape" transform="translate(77.400011, 7.673907) rotate(15.000000) translate(-77.400011, -7.673907) "></path>
            </g>
        </g>
    </g>
</svg>