<?xml version="1.0" encoding="UTF-8"?>
<!DOCTYPE svg PUBLIC "-//W3C//DTD SVG 1.1//EN" "http://www.w3.org/Graphics/SVG/1.1/DTD/svg11.dtd">
<svg xmlns="http://www.w3.org/2000/svg" version="1.1" width="10px" height="13px" style="shape-rendering:geometricPrecision; text-rendering:geometricPrecision; image-rendering:optimizeQuality; fill-rule:evenodd; clip-rule:evenodd" xmlns:xlink="http://www.w3.org/1999/xlink">
  <g><path style="opacity:1" fill="#6e1f1e" d="M 3.5,-0.5 C 4.16667,-0.5 4.83333,-0.5 5.5,-0.5C 4.83333,0.5 4.16667,1.5 3.5,2.5C 1.93819,2.73286 0.60486,3.39952 -0.5,4.5C -0.5,3.83333 -0.5,3.16667 -0.5,2.5C 0.871651,1.48837 2.20498,0.488369 3.5,-0.5 Z"/></g>
  <g><path style="opacity:1" fill="#5d2120" d="M 5.5,-0.5 C 6.5,-0.5 7.5,-0.5 8.5,-0.5C 8.47291,1.19928 7.80624,2.53261 6.5,3.5C 5.41543,5.58689 3.74876,6.92022 1.5,7.5C 1.21958,4.61183 2.55291,3.11183 5.5,3C 4.90558,2.53566 4.23891,2.36899 3.5,2.5C 4.16667,1.5 4.83333,0.5 5.5,-0.5 Z"/></g>
  <g><path style="opacity:1" fill="#4f1c1c" d="M 6.5,3.5 C 7.72813,4.30646 8.72813,5.30646 9.5,6.5C 9.5,6.83333 9.5,7.16667 9.5,7.5C 6.07396,8.47805 3.40729,8.47805 1.5,7.5C 3.74876,6.92022 5.41543,5.58689 6.5,3.5 Z"/></g>
  <g><path style="opacity:1" fill="#3c1918" d="M 9.5,8.5 C 9.5,9.5 9.5,10.5 9.5,11.5C 8.5,11.5 7.5,11.5 6.5,11.5C 6.5,10.5 6.5,9.5 6.5,8.5C 7.5,8.5 8.5,8.5 9.5,8.5 Z"/></g>
  <g><path style="opacity:1" fill="#4d1c1c" d="M 0.5,10.5 C 1.94639,9.38705 3.61305,9.22039 5.5,10C 3.86586,10.4935 2.19919,10.6602 0.5,10.5 Z"/></g>
  <g><path style="opacity:1" fill="#471b1a" d="M -0.5,12.5 C -0.5,12.1667 -0.5,11.8333 -0.5,11.5C 1.73535,11.2053 3.73535,11.5386 5.5,12.5C 3.5,12.5 1.5,12.5 -0.5,12.5 Z"/></g>
</svg>
