<?xml version="1.0" encoding="UTF-8"?>
<!DOCTYPE svg PUBLIC "-//W3C//DTD SVG 1.1//EN" "http://www.w3.org/Graphics/SVG/1.1/DTD/svg11.dtd">
<svg xmlns="http://www.w3.org/2000/svg" version="1.1" width="10px" height="13px" style="shape-rendering:geometricPrecision; text-rendering:geometricPrecision; image-rendering:optimizeQuality; fill-rule:evenodd; clip-rule:evenodd" xmlns:xlink="http://www.w3.org/1999/xlink">
  <g><path style="opacity:1" fill="#961e19" d="M 3.5,-0.5 C 5.16667,-0.5 6.83333,-0.5 8.5,-0.5C 8.5,0.166667 8.5,0.833333 8.5,1.5C 6.26465,1.20528 4.26465,1.53862 2.5,2.5C 1.5,3.16667 0.5,3.83333 -0.5,4.5C -0.5,3.83333 -0.5,3.16667 -0.5,2.5C 0.871651,1.48837 2.20498,0.488369 3.5,-0.5 Z"/></g>
  <g><path style="opacity:1" fill="#524643" d="M 2.5,2.5 C 4.26465,1.53862 6.26465,1.20528 8.5,1.5C 8.08247,2.22158 7.4158,2.72158 6.5,3C 7.63638,4.14508 8.63638,5.31174 9.5,6.5C 9.5,7.16667 9.5,7.83333 9.5,8.5C 8.41683,8.46056 7.41683,8.12723 6.5,7.5C 5.53705,7.96983 5.53705,8.6365 6.5,9.5C 6.00692,11.4904 4.84025,11.4904 3,9.5C 2.18405,10.8228 1.01739,11.4894 -0.5,11.5C -0.5,11.1667 -0.5,10.8333 -0.5,10.5C 0.600473,8.72259 1.43381,6.72259 2,4.5C 3.06743,3.80945 4.23409,3.30945 5.5,3C 4.55198,2.51722 3.55198,2.35055 2.5,2.5 Z"/></g>
  <g><path style="opacity:1" fill="#6a1615" d="M 6.5,9.5 C 7.40397,10.209 7.73731,11.209 7.5,12.5C 4.83333,12.5 2.16667,12.5 -0.5,12.5C -0.5,12.1667 -0.5,11.8333 -0.5,11.5C 1.01739,11.4894 2.18405,10.8228 3,9.5C 4.84025,11.4904 6.00692,11.4904 6.5,9.5 Z"/></g>
</svg>
