<?xml version="1.0" encoding="UTF-8"?>
<!DOCTYPE svg PUBLIC "-//W3C//DTD SVG 1.1//EN" "http://www.w3.org/Graphics/SVG/1.1/DTD/svg11.dtd">
<svg xmlns="http://www.w3.org/2000/svg" version="1.1" width="13px" height="13px" style="shape-rendering:geometricPrecision; text-rendering:geometricPrecision; image-rendering:optimizeQuality; fill-rule:evenodd; clip-rule:evenodd" xmlns:xlink="http://www.w3.org/1999/xlink">
  <g><path style="opacity:1" fill="#ecebeb" d="M 3.5,-0.5 C 4.5,-0.5 5.5,-0.5 6.5,-0.5C 5.83333,0.5 5.16667,1.5 4.5,2.5C 3.83333,2.5 3.5,2.83333 3.5,3.5C 2.83333,3.5 2.16667,3.5 1.5,3.5C 2.16667,2.5 2.83333,1.5 3.5,0.5C 3.5,0.166667 3.5,-0.166667 3.5,-0.5 Z"/></g>
  <g><path style="opacity:1" fill="#dddddd" d="M 6.5,-0.5 C 7.16667,-0.5 7.83333,-0.5 8.5,-0.5C 7.83333,0.5 7.16667,1.5 6.5,2.5C 5.83333,2.5 5.16667,2.5 4.5,2.5C 5.16667,1.5 5.83333,0.5 6.5,-0.5 Z"/></g>
  <g><path style="opacity:1" fill="#d1d2d2" d="M 8.5,-0.5 C 9.16667,-0.5 9.83333,-0.5 10.5,-0.5C 10.5,-0.166667 10.5,0.166667 10.5,0.5C 9.5,0.833333 8.83333,1.5 8.5,2.5C 7.83333,2.5 7.5,2.83333 7.5,3.5C 7.16667,3.5 6.83333,3.5 6.5,3.5C 6.5,3.16667 6.5,2.83333 6.5,2.5C 7.16667,1.5 7.83333,0.5 8.5,-0.5 Z"/></g>
  <g><path style="opacity:1" fill="#c6c6c6" d="M 10.5,0.5 C 10.5,1.83333 9.83333,2.5 8.5,2.5C 8.83333,1.5 9.5,0.833333 10.5,0.5 Z"/></g>
  <g><path style="opacity:1" fill="#f1f1f1" d="M 3.5,0.5 C 2.83333,1.5 2.16667,2.5 1.5,3.5C 1.57298,5.02694 0.906316,6.02694 -0.5,6.5C -0.5,5.5 -0.5,4.5 -0.5,3.5C 0.236209,1.77055 1.56954,0.770553 3.5,0.5 Z"/></g>
  <g><path style="opacity:1" fill="#d7d7d7" d="M 3.5,3.5 C 4.5,3.5 5.5,3.5 6.5,3.5C 5.5,5.16667 4.16667,6.5 2.5,7.5C 2.43255,6.04125 2.76589,4.70792 3.5,3.5 Z"/></g>
  <g><path style="opacity:1" fill="#afafae" d="M 9.5,4.5 C 10.404,5.20895 10.7373,6.20895 10.5,7.5C 9.16667,7.5 7.83333,7.5 6.5,7.5C 6.5,7.16667 6.5,6.83333 6.5,6.5C 7.5,5.83333 8.5,5.16667 9.5,4.5 Z"/></g>
  <g><path style="opacity:1" fill="#c4c4c4" d="M 6.5,3.5 C 6.83333,3.5 7.16667,3.5 7.5,3.5C 8.49162,3.32842 9.15829,3.66175 9.5,4.5C 8.5,5.16667 7.5,5.83333 6.5,6.5C 5.5,6.83333 4.83333,7.5 4.5,8.5C 2.59922,8.75351 1.93256,8.42018 2.5,7.5C 4.16667,6.5 5.5,5.16667 6.5,3.5 Z"/></g>
  <g><path style="opacity:1" fill="#b9b9b9" d="M 6.5,6.5 C 6.5,6.83333 6.5,7.16667 6.5,7.5C 6.15829,8.33825 5.49162,8.67158 4.5,8.5C 4.83333,7.5 5.5,6.83333 6.5,6.5 Z"/></g>
  <g><path style="opacity:1" fill="#989797" d="M 10.5,10.5 C 9.83333,10.5 9.5,10.8333 9.5,11.5C 7.95186,11.1788 7.28519,10.1788 7.5,8.5C 9.17876,8.28519 10.1788,8.95186 10.5,10.5 Z"/></g>
  <g><path style="opacity:1" fill="#b6b6b6" d="M 0.5,10.5 C 2.28841,9.37753 4.28841,9.21086 6.5,10C 4.5273,10.4955 2.5273,10.6621 0.5,10.5 Z"/></g>
  <g><path style="opacity:1" fill="#858585" d="M 12.5,8.5 C 12.5,9.5 12.5,10.5 12.5,11.5C 11.5,11.5 10.5,11.5 9.5,11.5C 9.5,10.8333 9.83333,10.5 10.5,10.5C 11.1667,9.83333 11.8333,9.16667 12.5,8.5 Z"/></g>
  <g><path style="opacity:1" fill="#acacac" d="M -0.5,12.5 C -0.5,12.1667 -0.5,11.8333 -0.5,11.5C 2.0593,11.1984 4.39263,11.5318 6.5,12.5C 4.16667,12.5 1.83333,12.5 -0.5,12.5 Z"/></g>
</svg>
