<?xml version="1.0" encoding="UTF-8"?>
<!DOCTYPE svg PUBLIC "-//W3C//DTD SVG 1.1//EN" "http://www.w3.org/Graphics/SVG/1.1/DTD/svg11.dtd">
<svg xmlns="http://www.w3.org/2000/svg" version="1.1" width="10px" height="13px" style="shape-rendering:geometricPrecision; text-rendering:geometricPrecision; image-rendering:optimizeQuality; fill-rule:evenodd; clip-rule:evenodd" xmlns:xlink="http://www.w3.org/1999/xlink">
  <g><path style="opacity:1" fill="#595a59" d="M 3.5,-0.5 C 4.16667,-0.5 4.83333,-0.5 5.5,-0.5C 4.83333,0.5 4.16667,1.5 3.5,2.5C 1.93819,2.73286 0.60486,3.39952 -0.5,4.5C -0.5,3.83333 -0.5,3.16667 -0.5,2.5C 0.871651,1.48837 2.20498,0.488369 3.5,-0.5 Z"/></g>
  <g><path style="opacity:1" fill="#525252" d="M 5.5,-0.5 C 6.5,-0.5 7.5,-0.5 8.5,-0.5C 8.47291,1.19928 7.80624,2.53261 6.5,3.5C 6.16667,3.5 5.83333,3.5 5.5,3.5C 5.15829,2.66175 4.49162,2.32842 3.5,2.5C 4.16667,1.5 4.83333,0.5 5.5,-0.5 Z"/></g>
  <g><path style="opacity:1" fill="#525352" d="M 5.5,3.5 C 4.73769,5.26242 3.40435,6.26242 1.5,6.5C 1.69408,4.08824 3.02741,3.08824 5.5,3.5 Z"/></g>
  <g><path style="opacity:1" fill="#4b4b4b" d="M 5.5,3.5 C 5.83333,3.5 6.16667,3.5 6.5,3.5C 7.16667,3.5 7.5,3.83333 7.5,4.5C 6.83333,5.5 6.16667,6.5 5.5,7.5C 4.05361,8.61295 2.38695,8.77961 0.5,8C 1.05596,7.61742 1.38929,7.11742 1.5,6.5C 3.40435,6.26242 4.73769,5.26242 5.5,3.5 Z"/></g>
  <g><path style="opacity:1" fill="#424443" d="M 7.5,4.5 C 8.16667,5.16667 8.83333,5.83333 9.5,6.5C 9.5,6.83333 9.5,7.16667 9.5,7.5C 8.16667,7.5 6.83333,7.5 5.5,7.5C 6.16667,6.5 6.83333,5.5 7.5,4.5 Z"/></g>
  <g><path style="opacity:1" fill="#3b3b3a" d="M 9.5,8.5 C 9.5,9.5 9.5,10.5 9.5,11.5C 8.5,11.5 7.5,11.5 6.5,11.5C 6.5,10.5 6.5,9.5 6.5,8.5C 7.5,8.5 8.5,8.5 9.5,8.5 Z"/></g>
  <g><path style="opacity:1" fill="#454545" d="M 0.5,10.5 C 1.94639,9.38705 3.61305,9.22039 5.5,10C 3.86586,10.4935 2.19919,10.6602 0.5,10.5 Z"/></g>
  <g><path style="opacity:1" fill="#3e3e3e" d="M -0.5,12.5 C -0.5,12.1667 -0.5,11.8333 -0.5,11.5C 1.73535,11.2053 3.73535,11.5386 5.5,12.5C 3.5,12.5 1.5,12.5 -0.5,12.5 Z"/></g>
</svg>
