<svg xmlns="http://www.w3.org/2000/svg" width="718.332" height="1028.362" viewBox="0 0 718.332 1028.362"><g fill="#ABABAB" fill-rule="evenodd"><path fill-opacity=".467" d="M278.605205,2.74 L275.877205,5.48 L269.605205,4.125 C266.155205,3.379 262.185205,2.574 260.782205,2.336 L258.233205,1.903 L255.879205,42.121 C253.708205,79.212 253.573205,86.937 254.140205,141.455 C254.734205,198.473 254.880205,201.937 258.267205,239.071 L261.779205,277.571 L270.655205,312.7 L279.532205,347.829 L291.819205,371.2 C298.577205,384.054 304.941205,395.968 305.961205,397.676 L307.816205,400.782 L302.910205,403.832 C299.127205,406.184 296.355205,409.339 290.799205,417.62 L283.594205,428.359 L294.624205,420.715 C300.691205,416.511 305.893205,413.071 306.185205,413.071 C306.476205,413.071 308.684205,415.658 311.091205,418.821 L315.467205,424.571 L312.795205,430.889 C311.142205,434.797 308.269205,439.089 305.265205,442.139 C300.380205,447.098 300.411205,447.942 305.406205,446.043 C306.893205,445.478 308.295205,445.201 308.522205,445.427 C308.748205,445.654 306.805205,450.125 304.203205,455.364 L299.472205,464.888 L291.402205,462.047 C286.963205,460.485 279.507205,458.428 274.832205,457.475 L266.332205,455.743 L250.832205,463.657 L235.332205,471.571 L223.832205,490.071 L212.332205,508.571 L195.832205,522.603 L179.332205,536.634 L171.359205,557.603 L163.386205,578.571 L146.859205,585.099 L130.332205,591.628 L110.832205,618.232 C84.3652052,654.341 58.5002052,682.617 39.2932052,696.441 C34.3652052,699.988 28.2502052,705.068 25.7042052,707.731 C22.0852052,711.516 11.9222052,727.65 0.0182052354,748.507 C-0.274794765,749.021 3.00420524,747.511 7.30620524,745.15 C13.3582052,741.828 14.9602052,741.277 14.3842052,742.714 C12.3882052,747.697 12.3982052,747.617 13.8952052,746.458 C14.6852052,745.846 23.6572052,739.368 33.8322052,732.064 C44.0072052,724.759 59.7442052,713.335 68.8022052,706.677 C86.0642052,693.989 93.2292052,689.998 169.874205,650.366 L196.417205,636.642 L200.367205,623.606 L204.317205,610.571 L205.870205,624.071 C207.413205,637.472 207.100205,641.071 204.395205,641.071 C203.294205,641.071 202.946205,645.301 202.607205,662.821 C202.376205,674.783 201.769205,685.559 201.257205,686.767 C200.746205,687.975 194.029205,694.517 186.330205,701.304 L172.332205,713.644 L171.832205,730.87 L171.332205,748.095 L148.332205,768.854 L125.332205,789.613 L103.832205,817.137 C76.2012052,852.51 74.1692052,854.276 48.3872052,865.339 C38.1822052,869.717 29.8462052,873.586 29.8642052,873.935 C29.8812052,874.285 34.0732052,880.204 39.1782052,887.089 L48.4612052,899.607 L65.3942052,907.089 C88.7112052,917.392 99.2042052,924.945 115.380205,943.071 L127.428205,956.571 L166.880205,965.289 C188.579205,970.085 207.397205,974.022 208.699205,974.039 C211.652205,974.079 247.747205,962.699 252.212205,960.32 C254.018205,959.358 264.053205,951.821 274.511205,943.571 L293.526205,928.571 L295.853205,918.849 C297.133205,913.502 298.482205,908.637 298.852205,908.038 C299.327205,907.27 302.192205,907.461 308.595205,908.688 L317.665205,910.427 L325.999205,903.412 C338.888205,892.561 335.415205,892.868 359.586205,900.447 C371.205205,904.09 381.301205,907.06 382.022205,907.047 C382.742205,907.034 390.982205,902.543 400.332205,897.068 L417.332205,887.112 L417.906205,890.477 C418.222205,892.327 420.036205,896.008 421.939205,898.657 L425.397205,903.472 L419.117205,927.021 C415.662205,939.974 412.839205,951.696 412.844205,953.071 C412.848205,954.446 415.220205,963.431 418.113205,973.038 L423.375205,990.505 L444.689205,1009.434 L466.004205,1028.362 L480.679205,1027.084 L495.355205,1025.807 L503.343205,1011.79 C520.634205,981.454 520.579205,981.566 521.341205,974.889 C521.792205,970.944 524.110205,963.441 527.514205,954.912 L532.966205,941.252 L545.149205,936.579 C564.483205,929.163 574.438205,924.009 587.832205,914.479 L600.332205,905.585 L624.739205,875.705 L649.146205,845.825 L655.405205,821.198 C666.274205,778.434 665.842205,779.535 678.442205,762.436 L689.396205,747.571 L691.757205,730.297 C693.055205,720.796 693.886205,712.792 693.604205,712.51 C693.321205,712.227 685.522205,713.89 676.271205,716.205 L659.452205,720.414 L648.392205,718.859 C638.332205,717.444 633.578205,715.876 595.832205,701.524 C573.007205,692.846 554.186205,685.635 554.007205,685.5 C553.829205,685.365 553.420205,680.845 553.098205,675.454 C552.524205,665.839 552.376205,665.366 545.280205,650.496 L538.047205,635.338 L537.309205,615.123 L536.571205,594.909 L524.363205,575.601 L512.155205,556.292 L508.311205,532.432 L504.467205,508.571 L500.441205,504.321 L496.416205,500.071 L501.374205,500.038 C504.101205,500.02 519.607205,497.817 535.832205,495.143 L565.332205,490.281 L594.473205,476.347 L623.614205,462.413 L649.473205,437.992 L675.332205,413.571 L690.494205,381.071 L705.656205,348.571 L710.418205,318.571 C714.981205,289.819 715.245205,287.011 716.756205,251.071 L718.332205,213.571 L714.581205,174.071 C712.517205,152.346 708.664205,119.721 706.018205,101.571 L701.207205,68.571 L698.999205,72.821 C696.520205,77.594 696.079205,77.715 689.456205,75.459 C686.853205,74.572 684.437205,74.133 684.087205,74.483 C683.737205,74.833 685.351205,92.321 687.674205,113.345 L691.897205,151.571 L691.898205,191.426 C691.898205,213.346 691.599205,243.271 691.233205,257.926 L690.567205,284.571 L683.791205,312.571 C678.572205,334.138 674.675205,347.267 666.829205,369.715 L656.643205,398.858 L633.295205,422.13 L609.946205,445.401 L585.139205,453.262 C540.662205,467.355 507.162205,477.072 503.208205,477.025 C501.076205,477 491.203205,475.976 481.267205,474.75 L463.202205,472.52 L448.472205,461.691 C438.148205,454.101 433.162205,451.013 431.804205,451.368 C430.213205,451.784 428.183205,449.252 420.465205,437.223 L411.065205,422.571 L410.324205,403.768 L409.584205,384.965 L402.208205,372.801 C398.151205,366.11 394.837205,360.171 394.843205,359.604 C394.849205,359.036 397.250205,354.246 400.178205,348.96 L405.503205,339.348 L396.418205,337.564 L387.332205,335.779 L381.832205,338.525 C378.807205,340.035 374.082205,343.398 371.332205,345.998 C367.881205,349.261 363.258205,352.088 356.412205,355.121 C346.574205,359.481 346.430205,359.595 338.912205,369.062 C334.743205,374.312 330.594205,379.724 329.691205,381.089 C328.789205,382.454 327.853205,383.346 327.612205,383.071 C327.371205,382.796 322.626205,372.896 317.068205,361.071 C307.146205,339.961 306.797205,338.967 297.838205,306.26 C292.820205,287.94 285.815205,259.938 282.273205,244.034 L275.832205,215.119 L275.834205,180.345 C275.835205,161.078 276.706205,126.619 277.787205,103.071 C281.115205,30.609 282.049205,6.693 281.684205,3.285 L281.332205,0 L278.605205,2.74 M410.452205,441.189 C409.423205,454.394 409.193205,461.071 409.768205,461.078017 C410.939205,461.092 428.832205,452.684 428.832205,452.12 C428.832205,451.795 424.826205,447.542 419.930205,442.668 L411.027205,433.807 L410.452205,441.189 M366.342205,543.087 C366.688205,543.646 367.389205,543.845 367.901205,543.528 C369.288205,542.671 369.030205,542.071 367.273205,542.071 C366.416205,542.071 365.997205,542.528 366.342205,543.087 M287.342205,546.061 C285.767205,547.705 284.670205,549.219 284.905205,549.425 C285.140205,549.631 287.807205,550.097 290.832205,550.459 C294.214205,550.864 295.807205,550.77 294.969205,550.216 C293.818205,549.454 293.818205,549.229 294.969205,548.771 C296.036205,548.347 296.047205,548.212 295.023205,548.15 C294.303205,548.107 293.992205,547.621 294.332205,547.071 C294.672205,546.521 294.193205,546.071 293.269205,546.071 C291.887205,546.071 291.809205,545.803 292.832205,544.571 C295.304205,541.592 290.330205,542.942 287.342205,546.061 M355.332205,553.535 L352.332205,554.909 L356.582205,554.99 C359.729205,555.05 360.832205,554.682 360.832205,553.571 C360.832205,551.739 359.277205,551.729 355.332205,553.535 M229.563205,586.943 C217.765205,597.174 217.603205,597.628 227.506205,592.696 C232.761205,590.079 236.892205,587.368 237.176205,586.349 C237.450205,585.371 237.964205,583.558 238.320205,582.321 C238.676205,581.084 238.599205,580.101 238.149205,580.138 C237.700205,580.175 233.836205,583.237 229.563205,586.943 M208.028205,605.369 C204.762205,608.738 203.586205,611.35 206.379205,609.032 C208.028205,607.663 212.220205,602.071 211.596205,602.071 C211.392205,602.071 209.786205,603.555 208.028205,605.369 M517.832205,802.741 L517.832205,811.529 L509.834205,819.569 L501.836205,827.609 L512.630205,838.369 L523.423205,849.129 L526.378205,838.858 L529.332205,828.586 L546.095205,819.578 L562.857205,810.571 L551.253205,810.288 L539.650205,810.006 L529.991205,802.724 C524.678205,798.718 519.770205,795.106 519.082205,794.697 C518.120205,794.125 517.832205,795.98 517.832205,802.741 M219.885205,843.626 C219.914205,844.696 220.510205,848.771 221.211205,852.682 L222.485205,859.792 L212.908205,864.549 L203.332205,869.306 L216.832205,876.136 C231.290205,883.451 233.644205,883.94 246.209205,882.233 L251.086205,881.571 L242.351205,871.786 C237.547205,866.404 230.514205,857.429 226.724205,851.841 C222.909205,846.218 219.855205,842.55 219.885205,843.626"/><path fill-opacity=".227" d="M278.605205,2.74 L275.877205,5.48 L269.605205,4.125 C266.155205,3.379 262.185205,2.574 260.782205,2.336 L258.233205,1.903 L255.879205,42.121 C253.708205,79.212 253.573205,86.937 254.140205,141.455 C254.734205,198.473 254.880205,201.937 258.267205,239.071 L261.779205,277.571 L270.655205,312.7 L279.532205,347.829 L291.819205,371.2 C298.577205,384.054 304.952205,395.986 305.986205,397.716 L307.866205,400.861 L303.169205,403.613 L298.473205,406.366 L301.147205,408.665 C302.617205,409.93 304.408205,411.327 305.125205,411.768 C305.842205,412.21 308.472205,415.271 310.969205,418.571 L315.509205,424.571 L313.232205,429.571 C310.493205,435.584 310.366205,437.269 312.358205,441.121 C313.805205,443.92 313.780205,444.071 311.852205,444.071 C310.271205,444.071 308.671205,446.382 304.644205,454.479 L299.468205,464.886 L291.400205,462.047 C286.963205,460.485 279.507205,458.428 274.832205,457.475 L266.332205,455.743 L250.832205,463.657 L235.332205,471.571 L223.832205,490.071 L212.332205,508.571 L195.832205,522.603 L179.332205,536.634 L171.359205,557.603 L163.386205,578.571 L146.859205,585.099 L130.332205,591.628 L110.832205,618.232 C91.6812052,644.36 73.5682052,665.507 54.5942052,683.889 C48.8002052,689.503 46.7962052,692.173 45.9882052,695.356 C45.4082052,697.639 45.0302052,699.603 45.1482052,699.721 C45.2662052,699.838 49.1382052,698.16 53.7522052,695.991 C58.3662052,693.822 62.2642052,692.17 62.4142052,692.32 C62.5642052,692.47 60.5762052,695.409 57.9962052,698.853 C53.5672052,704.763 49.3412052,708.071 46.2182052,708.071 C45.4562052,708.071 44.8322052,708.521 44.8322052,709.071 C44.8322052,709.621 43.9592052,710.071 42.8912052,710.071 C41.8232052,710.071 40.6722052,710.521 40.3322052,711.071 C39.9922052,711.621 38.8142052,712.071 37.7142052,712.071 C36.6142052,712.071 35.9922052,711.621 36.3322052,711.071 C36.6722052,710.521 36.0232052,710.071 34.8912052,710.071 C33.7592052,710.071 32.8322052,710.437 32.8322052,710.884 C32.8322052,711.33 29.6762052,715.121 25.8182052,719.308 C21.2242052,724.294 19.3032052,727.032 20.2492052,727.245 C21.2142052,727.463 19.4132052,730.224 14.8162052,735.571 C11.0342052,739.971 7.91520524,743.884 7.88595935,744.267 C7.85620524,744.649 10.5752052,743.412 13.9282052,741.517 C17.2812052,739.622 20.3002052,738.071 20.6362052,738.071 C20.9732052,738.071 19.2422052,740.186 16.7902052,742.771 C14.3382052,745.356 13.0072052,746.992 13.8322052,746.408 C24.8762052,738.583 55.9582052,716.117 68.8022052,706.677 C86.0642052,693.989 93.2292052,689.998 169.874205,650.366 L196.417205,636.642 L200.367205,623.606 L204.317205,610.571 L205.870205,624.071 C207.413205,637.472 207.100205,641.071 204.395205,641.071 C203.294205,641.071 202.946205,645.301 202.607205,662.821 C202.376205,674.783 201.769205,685.559 201.257205,686.767 C200.746205,687.975 194.029205,694.517 186.330205,701.304 L172.332205,713.644 L171.832205,730.87 L171.332205,748.095 L148.332205,768.854 L125.332205,789.613 L103.832205,817.137 C76.2012052,852.51 74.1692052,854.276 48.3872052,865.339 C38.1822052,869.717 29.8462052,873.586 29.8642052,873.935 C29.8812052,874.285 34.0732052,880.204 39.1782052,887.089 L48.4612052,899.607 L65.3942052,907.089 C88.7112052,917.392 99.2042052,924.945 115.380205,943.071 L127.428205,956.571 L166.880205,965.289 C188.579205,970.085 207.397205,974.022 208.699205,974.039 C211.459205,974.076 247.528205,962.797 251.930205,960.52 C253.573205,959.671 263.562205,952.133 274.129205,943.77 L293.341205,928.564 L291.666205,922.567 C289.502205,914.818 289.464205,913.071 291.457205,913.071 C292.729205,913.071 292.952205,912.42 292.482205,910.071 C291.979205,907.558 292.199205,907.071 293.832205,907.071 C295.465205,907.071 295.685205,906.584 295.182205,904.071 C294.700205,901.659 294.922205,901.071 296.318205,901.071 C297.761205,901.071 297.944205,900.479 297.398205,897.571 C296.828205,894.531 297.001205,894.071 298.717205,894.071 C300.436205,894.071 300.581205,893.682 299.832205,891.071 C299.088205,888.477 299.233205,888.071 300.902205,888.071 C301.963205,888.071 302.832205,887.621 302.832205,887.071 C302.832205,886.521 303.271205,886.071 303.807205,886.071 C304.441205,886.071 304.441205,886.969 303.807205,888.636 C302.141205,893.02 302.822205,893.758 304.900205,889.821 C306.685205,886.44 307.274205,886.071 310.891205,886.071 C314.547205,886.071 314.811205,886.242 313.867205,888.005 C312.485205,890.589 312.558205,891.071 314.332205,891.071 C316.235205,891.071 316.228205,892.404 314.306205,896.121 C312.852205,898.932 312.879205,899.071 314.865205,899.071 C316.012205,899.071 316.712205,899.457 316.420205,899.929 C316.128205,900.4 316.295205,902.2 316.791205,903.929 C317.541205,906.543 317.416205,907.071 316.048205,907.071 C314.527205,907.071 314.528205,907.195 316.060205,908.727 C317.602205,910.269 318.291205,909.9 326.024205,903.39 C338.883205,892.565 335.418205,892.869 359.586205,900.447 C371.205205,904.09 381.301205,907.06 382.022205,907.047 C382.742205,907.034 390.982205,902.543 400.332205,897.068 L417.332205,887.112 L417.906205,890.477 C418.222205,892.327 420.043205,896.018 421.954205,898.678 L425.428205,903.514 L422.146205,915.542 C418.387205,929.324 418.294205,930.071 420.332205,930.071 C422.067205,930.071 422.240205,931.867 420.857205,935.506 C420.140205,937.392 420.206205,938.079 421.107205,938.101 C421.781205,938.118 421.432205,938.657 420.332205,939.299 C418.375205,940.442 418.382205,940.479 420.628205,941.019 C422.820205,941.546 422.696205,941.827 417.878205,947.231 C415.103205,950.344 412.837205,953.494 412.842205,954.231 C412.848205,954.968 415.220205,963.431 418.113205,973.038 L423.375205,990.505 L444.689205,1009.434 L466.004205,1028.362 L480.679205,1027.084 L495.355205,1025.807 L503.343205,1011.79 C520.634205,981.454 520.579205,981.566 521.341205,974.889 C521.792205,970.944 524.110205,963.441 527.514205,954.912 L532.966205,941.252 L545.149205,936.579 C564.483205,929.163 574.438205,924.009 587.832205,914.479 L600.332205,905.585 L624.739205,875.705 L649.146205,845.825 L655.405205,821.198 C666.274205,778.434 665.842205,779.535 678.442205,762.436 L689.396205,747.571 L691.757205,730.297 C693.055205,720.796 693.886205,712.792 693.604205,712.51 C693.321205,712.227 685.522205,713.89 676.271205,716.205 L659.452205,720.414 L648.392205,718.859 C638.332205,717.444 633.578205,715.876 595.832205,701.524 C573.007205,692.846 554.186205,685.635 554.007205,685.5 C553.829205,685.365 553.420205,680.845 553.098205,675.454 C552.524205,665.839 552.376205,665.366 545.280205,650.496 L538.047205,635.338 L537.309205,615.123 L536.571205,594.909 L524.363205,575.601 L512.155205,556.292 L508.311205,532.432 L504.467205,508.571 L500.441205,504.321 L496.416205,500.071 L501.374205,500.038 C504.101205,500.02 519.607205,497.817 535.832205,495.143 L565.332205,490.281 L594.473205,476.347 L623.614205,462.413 L649.473205,437.992 L675.332205,413.571 L690.494205,381.071 L705.656205,348.571 L710.418205,318.571 C714.981205,289.819 715.245205,287.011 716.756205,251.071 L718.332205,213.571 L714.581205,174.071 C712.517205,152.346 708.664205,119.721 706.018205,101.571 L701.207205,68.571 L698.999205,72.821 C696.520205,77.594 696.079205,77.715 689.456205,75.459 C686.853205,74.572 684.437205,74.133 684.087205,74.483 C683.737205,74.833 685.351205,92.321 687.674205,113.345 L691.897205,151.571 L691.898205,191.426 C691.898205,213.346 691.599205,243.271 691.233205,257.926 L690.567205,284.571 L683.791205,312.571 C678.572205,334.138 674.675205,347.267 666.829205,369.715 L656.643205,398.858 L633.295205,422.13 L609.946205,445.401 L585.139205,453.262 C540.662205,467.355 507.162205,477.072 503.208205,477.025 C501.076205,477 491.203205,475.976 481.267205,474.75 L463.202205,472.52 L448.614205,461.796 C440.591205,455.897 433.645205,451.063 433.179205,451.054 C432.713205,451.044 427.265205,453.365 421.073205,456.211 C414.880205,459.057 409.674205,461.203 409.503205,460.979 C409.332205,460.754 409.555205,454.525 409.998205,447.134 C410.691205,435.592 410.584205,433.455 409.243205,431.972 C407.820205,430.4 407.843205,430.208 409.507205,429.811 C411.090205,429.433 411.015205,429.246 408.946205,428.401 L406.560205,427.426 L409.712205,426.121 C411.838205,425.24 412.568205,424.45 411.954205,423.693 C411.453205,423.076 410.715205,414.11 410.314205,403.768 L409.584205,384.965 L402.208205,372.801 C398.151205,366.11 394.837205,360.171 394.843205,359.604 C394.849205,359.036 397.250205,354.246 400.178205,348.96 L405.503205,339.348 L396.418205,337.564 L387.332205,335.779 L381.832205,338.525 C378.807205,340.035 374.082205,343.398 371.332205,345.998 C367.881205,349.261 363.258205,352.088 356.412205,355.121 C346.574205,359.481 346.430205,359.595 338.912205,369.062 C334.743205,374.312 330.594205,379.724 329.691205,381.089 C328.789205,382.454 327.853205,383.346 327.612205,383.071 C327.371205,382.796 322.626205,372.896 317.068205,361.071 C307.146205,339.961 306.797205,338.967 297.838205,306.26 C292.820205,287.94 285.815205,259.938 282.273205,244.034 L275.832205,215.119 L275.834205,180.345 C275.835205,161.078 276.706205,126.619 277.787205,103.071 C281.115205,30.609 282.049205,6.693 281.684205,3.285 L281.332205,0 L278.605205,2.74 M371.832205,449.071 C371.832205,450.404 372.499205,451.071 373.832205,451.071 C374.932205,451.071 375.832205,451.663 375.832205,452.386 C375.832205,453.109 377.431205,454.463 379.385205,455.395 C381.340205,456.327 382.692205,457.488 382.391205,457.975 C382.090205,458.463 382.518205,459.12 383.343205,459.437 C385.214205,460.155 381.717205,452.783 378.545205,449.321 C375.899205,446.433 371.832205,446.281 371.832205,449.071 M422.832205,487.571 L416.332205,489.915 L427.332205,489.866 C439.840205,489.81 462.408205,488.518 456.332205,488.206 C454.132205,488.093 449.407205,487.357 445.832205,486.571 C436.742205,484.572 430.383205,484.848 422.832205,487.571 M335.565205,514.845 C333.885205,515.065 333.062205,515.635 333.471205,516.295 C333.929205,517.037 333.139205,517.182 330.986205,516.752 C327.847205,516.124 327.763205,516.219 316.816205,532.596 L305.803205,549.071 L310.067205,549.187 C312.413205,549.251 313.539205,549.51 312.570205,549.763 C311.601205,550.016 311.065205,550.638 311.379205,551.147 C311.693205,551.655 311.193205,552.071 310.269205,552.071 C308.887205,552.071 308.809205,552.339 309.832205,553.571 C310.586205,554.48 310.667205,555.071 310.036205,555.071 C309.464205,555.071 308.087205,553.601 306.976205,551.804 C305.865205,550.007 303.818205,547.467 302.425205,546.159 C301.033205,544.851 300.107205,543.436 300.367205,543.014 C300.627205,542.593 298.996205,541.937 296.741205,541.556 C293.009205,540.925 292.329205,541.163 289.148205,544.217 C287.226205,546.062 284.535205,549.761 283.167205,552.437 L280.681205,557.303 L283.506205,560.293 C286.584205,563.55 286.690205,563.555 306.332205,561.482 L312.332205,560.849 L315.832205,566.949 C317.757205,570.304 319.817205,573.054 320.410205,573.06 C321.002205,573.066 325.641205,574.873 330.717205,577.074 L339.947205,581.078 L352.640205,578.667 C359.620205,577.341 364.518205,576.215 363.523205,576.164 C362.528205,576.113 361.992205,575.621 362.332205,575.071 C362.672205,574.521 362.222205,574.071 361.332205,574.071 C360.442205,574.071 359.984205,573.634 360.314205,573.1 C360.644205,572.566 359.774205,571.843 358.380205,571.494 C356.986205,571.144 356.073205,570.49 356.351205,570.04 C356.629205,569.59 356.063205,569.016 355.094205,568.763 C354.125205,568.51 355.695205,568.251 358.582205,568.187 C364.264205,568.061 364.479205,567.826 362.332205,564.071 C361.546205,562.696 360.887205,559.184 360.867205,556.266 L360.832205,550.961 L372.284205,538.302 C384.584205,524.705 386.865205,520.632 376.334205,531.069 L369.891205,537.455 L364.111205,535.673 C359.151205,534.144 356.916205,532.517 348.332205,524.187 C339.835205,515.941 337.916205,514.537 335.565205,514.845 M229.563205,586.943 C217.765205,597.174 217.603205,597.628 227.506205,592.696 C232.761205,590.079 236.892205,587.368 237.176205,586.349 C237.450205,585.371 237.964205,583.558 238.320205,582.321 C238.676205,581.084 238.599205,580.101 238.149205,580.138 C237.700205,580.175 233.836205,583.237 229.563205,586.943 M262.623205,587.571 C263.207205,588.671 264.379205,590.471 265.227205,591.571 C266.459205,593.169 266.775205,593.254 266.800205,591.995 C266.818205,591.129 265.646205,589.329 264.196205,587.995 C261.984205,585.961 261.731205,585.892 262.623205,587.571 M208.028205,605.369 C204.762205,608.738 203.586205,611.35 206.379205,609.032 C208.028205,607.663 212.220205,602.071 211.596205,602.071 C211.392205,602.071 209.786205,603.555 208.028205,605.369 M299.363205,638.571 C300.945205,643.635 300.998205,643.699 301.816205,641.571 C302.239205,640.471 302.135205,639.009 301.586205,638.321 C300.205205,636.593 298.795205,636.752 299.363205,638.571 M515.832205,715.071 C515.832205,716.202 516.499205,717.071 517.367205,717.071 C518.592205,717.071 518.686205,716.667 517.832205,715.071 C517.243205,713.971 516.552205,713.071 516.297205,713.071 C516.041205,713.071 515.832205,713.971 515.832205,715.071 M519.832205,721.071 C519.832205,721.621 520.309205,722.071 520.891205,722.071 C521.473205,722.071 521.672205,721.621 521.332205,721.071 C520.992205,720.521 520.516205,720.071 520.273205,720.071 C520.030205,720.071 519.832205,720.521 519.832205,721.071 M401.016205,750.108 C401.330205,750.927 404.438205,758.287 407.922205,766.464 C413.925205,780.552 414.496205,781.482 418.795205,784.183 C421.290205,785.75 424.543205,787.042 426.023205,787.052 C427.503205,787.062 428.992205,787.521 429.332205,788.071 C429.672205,788.621 431.698205,789.071 433.834205,789.071 C438.237205,789.071 441.676205,792.349 439.732205,794.692 C438.262205,796.462 448.137205,811.071 450.803205,811.071 C453.353205,811.071 454.319205,812.799 452.094205,813.379 C450.753205,813.729 450.870205,813.867 452.582205,813.955 C454.404205,814.049 454.854205,814.689 454.947205,817.321 C455.035205,819.812 455.483205,818.936 456.865205,813.571 C459.330205,804.005 459.318205,795.378 456.832205,789.071 C455.170205,784.854 454.832205,781.639 454.832205,770.034 C454.832205,762.354 454.564205,756.071 454.236205,756.071 C453.908205,756.071 450.748205,758.61 447.213205,761.713 L440.787205,767.355 L431.670205,766.666 C426.656205,766.288 421.241205,765.3 419.637205,764.47 C418.034205,763.641 413.059205,759.735 408.583205,755.791 C404.107205,751.847 400.702205,749.289 401.016205,750.108 M501.832205,752.071 C501.832205,754.023 502.338205,755.071 503.280205,755.071 C504.455205,755.071 504.531205,754.505 503.682205,752.071 C503.107205,750.421 502.455205,749.071 502.234205,749.071 C502.013205,749.071 501.832205,750.421 501.832205,752.071 M504.832205,759.071 C504.832205,760.171 505.240205,761.071 505.738205,761.071 C506.237205,761.071 506.409205,760.171 506.122205,759.071 C505.834205,757.971 505.426205,757.071 505.215205,757.071 C505.005205,757.071 504.832205,757.971 504.832205,759.071 M517.832205,802.741 L517.832205,811.529 L509.834205,819.569 L501.836205,827.609 L512.630205,838.369 L523.423205,849.129 L526.378205,838.858 L529.332205,828.586 L546.095205,819.578 L562.857205,810.571 L551.253205,810.288 L539.650205,810.006 L529.991205,802.724 C524.678205,798.718 519.770205,795.106 519.082205,794.697 C518.120205,794.125 517.832205,795.98 517.832205,802.741 M292.582205,828.399 C287.364205,830.268 286.832205,830.729 286.832205,833.38 C286.832205,836.172 286.931205,836.237 289.082205,834.851 C290.320205,834.054 293.469205,832.16 296.082205,830.641 C298.695205,829.123 300.832205,827.747 300.832205,827.583 C300.832205,826.328 297.423205,826.665 292.582205,828.399 M219.885205,843.626 C219.914205,844.696 220.510205,848.771 221.211205,852.682 L222.485205,859.792 L212.908205,864.549 L203.332205,869.306 L216.832205,876.136 C231.290205,883.451 233.644205,883.94 246.209205,882.233 L251.086205,881.571 L242.351205,871.786 C237.547205,866.404 230.514205,857.429 226.724205,851.841 C222.909205,846.218 219.855205,842.55 219.885205,843.626"/><path fill-opacity=".619" d="M278.605205,2.74 L275.877205,5.48 L269.605205,4.125 C266.155205,3.379 262.185205,2.574 260.782205,2.336 L258.233205,1.903 L255.879205,42.121 C253.708205,79.212 253.573205,86.937 254.140205,141.455 C254.734205,198.473 254.880205,201.937 258.267205,239.071 L261.779205,277.571 L270.655205,312.7 L279.532205,347.829 L291.819205,371.2 C298.577205,384.054 304.952205,395.986 305.986205,397.716 L307.866205,400.861 L303.290205,403.543 C299.572205,405.722 298.934205,406.489 299.886205,407.636 C302.249205,410.483 307.470205,412.879 312.832205,413.578 C320.219205,414.54 321.231205,415.143 319.478205,417.541 C318.150205,419.357 317.940205,419.328 313.218205,416.666 L308.332205,413.911 L312.605205,418.049 L316.879205,422.187 L313.855205,428.522 C310.401205,435.761 310.248205,437.042 312.358205,441.121 C313.805205,443.92 313.780205,444.071 311.852205,444.071 C310.271205,444.071 308.671205,446.382 304.644205,454.479 L299.468205,464.886 L291.400205,462.047 C286.963205,460.485 279.507205,458.428 274.832205,457.475 L266.332205,455.743 L250.832205,463.657 L235.332205,471.571 L223.832205,490.071 L212.332205,508.571 L195.832205,522.603 L179.332205,536.634 L171.359205,557.603 L163.386205,578.571 L146.859205,585.099 L130.332205,591.628 L110.832205,618.232 C91.6812052,644.36 73.5682052,665.507 54.5942052,683.889 C48.8002052,689.503 46.7962052,692.173 45.9882052,695.356 C45.4082052,697.639 45.0302052,699.603 45.1482052,699.721 C45.2662052,699.838 49.1382052,698.16 53.7522052,695.991 C58.3662052,693.822 62.2562052,692.165 62.3952052,692.309 C62.5352052,692.453 57.5042052,699.546 51.2162052,708.071 C40.7472052,722.265 39.4452052,723.655 35.7552052,724.571 C33.5382052,725.121 31.7872052,725.971 31.8642052,726.459 C31.9402052,726.948 31.4022052,727.728 30.6672052,728.194 C29.5642052,728.893 29.5702052,729.043 30.7042052,729.056 C31.8682052,729.069 31.8682052,729.328 30.7042052,730.758 C29.4992052,732.241 29.5512052,732.363 31.1322052,731.771 C35.5282052,730.122 49.7592052,720.706 66.8102052,708.163 C86.4012052,693.753 91.5442052,690.869 169.874205,650.366 L196.417205,636.642 L200.367205,623.606 L204.317205,610.571 L205.870205,624.071 C207.413205,637.472 207.100205,641.071 204.395205,641.071 C203.294205,641.071 202.946205,645.301 202.607205,662.821 C202.376205,674.783 201.769205,685.559 201.257205,686.767 C200.746205,687.975 194.029205,694.517 186.330205,701.304 L172.332205,713.644 L171.832205,730.87 L171.332205,748.095 L148.332205,768.854 L125.332205,789.613 L103.832205,817.137 C76.2012052,852.51 74.1692052,854.276 48.3872052,865.339 C38.1822052,869.717 29.8467527,873.586 29.8642052,873.935 C29.8812052,874.285 34.0732052,880.204 39.1782052,887.089 L48.4612052,899.607 L65.3942052,907.089 C88.7112052,917.392 99.2042052,924.945 115.380205,943.071 L127.428205,956.571 L166.880205,965.289 C188.579205,970.085 207.397205,974.022 208.699205,974.039 C211.465205,974.076 247.532205,962.795 251.946205,960.512 C253.597205,959.658 263.296205,952.347 273.500205,944.265 L292.052205,929.571 L272.557205,929.3 L253.062205,929.029 L242.697205,906.3 L232.332205,883.571 L217.832205,876.455 L203.332205,869.339 L212.908205,864.566 L222.485205,859.792 L221.211205,852.682 C219.156205,841.212 219.482205,841.165 226.753205,851.884 C230.560205,857.496 238.654205,867.659 244.740205,874.468 C257.579205,888.833 255.907205,888.172 276.332205,886.953 C283.482205,886.526 294.879205,886.153 301.659205,886.124 L313.985205,886.071 L347.309205,896.571 C365.636205,902.346 381.239205,907.06 381.982205,907.047 C382.724205,907.034 390.982205,902.542 400.332205,897.064 L417.332205,887.105 L417.645205,890.077 C417.846205,891.992 423.464205,900.785 433.447205,914.81 L448.938205,936.571 L437.962205,936.853 L426.986205,937.135 L419.909205,944.986 C416.017205,949.303 412.837205,953.451 412.842205,954.203 C412.848205,954.956 415.220205,963.431 418.113205,973.038 L423.375205,990.505 L444.689205,1009.434 L466.004205,1028.362 L480.679205,1027.084 L495.355205,1025.807 L503.343205,1011.79 C520.634205,981.454 520.579205,981.566 521.341205,974.889 C521.792205,970.944 524.110205,963.441 527.514205,954.912 L532.966205,941.252 L545.149205,936.579 C564.483205,929.163 574.438205,924.009 587.832205,914.479 L600.332205,905.585 L624.739205,875.705 L649.146205,845.825 L655.405205,821.198 C666.274205,778.434 665.842205,779.535 678.442205,762.436 L689.396205,747.571 L691.757205,730.297 C693.055205,720.796 693.886205,712.792 693.604205,712.51 C693.321205,712.227 685.522205,713.89 676.271205,716.205 L659.452205,720.414 L648.392205,718.859 C638.332205,717.444 633.578205,715.876 595.832205,701.524 C573.007205,692.846 554.186205,685.635 554.007205,685.5 C553.829205,685.365 553.420205,680.845 553.098205,675.454 C552.524205,665.839 552.376205,665.366 545.280205,650.496 L538.047205,635.338 L537.309205,615.123 L536.571205,594.909 L524.363205,575.601 L512.155205,556.292 L508.311205,532.432 L504.467205,508.571 L500.441205,504.321 L496.416205,500.071 L501.374205,500.038 C504.101205,500.02 519.607205,497.817 535.832205,495.143 L565.332205,490.281 L594.473205,476.347 L623.614205,462.413 L649.473205,437.992 L675.332205,413.571 L690.494205,381.071 L705.656205,348.571 L710.418205,318.571 C714.981205,289.819 715.245205,287.011 716.756205,251.071 L718.332205,213.571 L714.581205,174.071 C712.517205,152.346 708.664205,119.721 706.018205,101.571 L701.207205,68.571 L698.999205,72.821 C696.520205,77.594 696.079205,77.715 689.456205,75.459 C686.853205,74.572 684.437205,74.133 684.087205,74.483 C683.737205,74.833 685.351205,92.321 687.674205,113.345 L691.897205,151.571 L691.898205,191.426 C691.898205,213.346 691.599205,243.271 691.233205,257.926 L690.567205,284.571 L683.791205,312.571 C678.572205,334.138 674.675205,347.267 666.829205,369.715 L656.643205,398.858 L633.295205,422.13 L609.946205,445.401 L585.139205,453.262 C540.662205,467.355 507.162205,477.072 503.208205,477.025 C501.076205,477 491.203205,475.976 481.267205,474.75 L463.202205,472.52 L448.614205,461.796 C440.591205,455.897 433.645205,451.063 433.179205,451.054 C432.713205,451.044 427.265205,453.365 421.073205,456.211 C414.880205,459.057 409.674205,461.203 409.503205,460.979 C409.332205,460.754 409.556205,454.515 410.000205,447.113 L410.807205,433.654 L408.180205,430.913 L405.554205,428.171 L409.171205,426.447 C411.514205,425.329 412.480205,424.343 411.916205,423.646 C411.436205,423.055 410.715205,414.11 410.314205,403.768 L409.584205,384.965 L402.208205,372.801 C398.151205,366.11 394.837205,360.171 394.843205,359.604 C394.849205,359.036 397.250205,354.246 400.178205,348.96 L405.503205,339.348 L396.418205,337.564 L387.332205,335.779 L381.832205,338.525 C378.807205,340.035 374.082205,343.398 371.332205,345.998 C367.881205,349.261 363.258205,352.088 356.412205,355.121 C346.574205,359.481 346.430205,359.595 338.912205,369.062 C334.743205,374.312 330.594205,379.724 329.691205,381.089 C328.789205,382.454 327.853205,383.346 327.612205,383.071 C327.371205,382.796 322.626205,372.896 317.068205,361.071 C307.146205,339.961 306.797205,338.967 297.838205,306.26 C292.820205,287.94 285.815205,259.938 282.273205,244.034 L275.832205,215.119 L275.834205,180.345 C275.835205,161.078 276.706205,126.619 277.787205,103.071 C281.115205,30.609 282.049205,6.693 281.684205,3.285 L281.332205,0 L278.605205,2.74 M390.332205,429.81 C386.378205,430.109 384.652205,430.844 382.082205,433.326 C379.218205,436.09 378.832205,437.094 378.832205,441.767 L378.832205,447.071 L375.332205,447.071 C372.029205,447.071 371.832205,447.259 371.832205,450.419 L371.832205,453.767 L363.082205,454.669 L354.332205,455.571 L352.889205,464.321 L351.446205,473.071 L343.638205,473.071 L335.830205,473.071 L331.095205,479.169 C328.490205,482.522 326.351205,485.785 326.341205,486.419 C326.331205,487.052 325.746205,488.583 325.042205,489.821 C323.954205,491.733 323.992205,492.071 325.297205,492.071 C327.286205,492.071 327.237205,492.966 325.122205,495.303 C323.787205,496.778 323.691205,497.366 324.685205,497.98 C325.552205,498.516 322.452205,501.384 314.989205,506.954 C308.956205,511.456 303.545205,515.712 302.965205,516.411 C302.385205,517.11 301.599205,523.197 301.218205,529.938 L300.525205,542.195 L296.583205,541.529 C293.039205,540.93 292.290205,541.201 289.148205,544.217 C287.226205,546.062 284.533205,549.763 283.164205,552.442 L280.675205,557.314 L283.952205,560.695 C285.754205,562.554 295.191205,568.597 304.924205,574.123 L322.619205,584.171 L343.680205,580.386 L364.740205,576.601 L365.059205,573.586 C365.238205,571.896 364.379205,568.498 363.105205,565.854 C361.652205,562.839 360.832205,559.292 360.832205,556.022 L360.832205,550.907 L374.213205,536.202 L387.593205,521.498 L381.522205,489.308 C378.183205,471.604 375.718205,456.852 376.044205,456.525 C376.371205,456.199 378.508205,456.885 380.793205,458.051 L384.948205,460.171 L383.492205,457.391 C382.054205,454.647 382.134205,454.502 389.704205,446.091 C393.922205,441.405 397.946205,436.827 398.646205,435.917 C400.339205,433.716 399.158205,429.011 396.974205,429.251 C396.071205,429.35 393.082205,429.602 390.332205,429.81 M400.832205,431.226 C400.832205,433.318 400.891205,433.328 402.832205,431.571 C403.932205,430.576 404.832205,429.606 404.832205,429.416 C404.832205,429.226 403.932205,429.071 402.832205,429.071 C401.451205,429.071 400.832205,429.738 400.832205,431.226 M425.832205,486.571 L416.332205,489.914 L427.332205,489.865 C433.382205,489.838 443.282205,489.536 449.332205,489.194 L460.332205,488.571 L449.694205,485.821 C443.843205,484.309 438.218205,483.106 437.194205,483.15 C436.170205,483.193 431.057205,484.732 425.832205,486.571 M342.832205,500.071 C336.545205,506.958 335.082205,509.071 336.601205,509.071 C337.694205,509.071 339.147205,508.396 339.832205,507.571 C340.517205,506.746 342.092205,506.071 343.332205,506.071 C344.572205,506.071 346.147205,505.396 346.832205,504.571 C347.517205,503.746 348.895205,503.071 349.895205,503.071 C350.896205,503.071 351.992205,502.621 352.332205,502.071 C352.672205,501.521 353.979205,501.071 355.236205,501.071 C356.493205,501.071 358.337205,500.171 359.332205,499.071 C361.491205,496.685 364.320205,496.541 369.178205,498.571 C372.784205,500.078 378.832205,500.62 378.832205,499.437 C378.832205,499.088 378.311205,497.063 377.674205,494.937 L376.515205,491.071 L363.782205,491.071 L351.048204,491.071 L342.832205,500.071 M229.563205,586.943 C217.765205,597.174 217.603205,597.628 227.506205,592.696 C232.761205,590.079 236.892205,587.368 237.176205,586.349 C237.450205,585.371 237.964205,583.558 238.320205,582.321 C238.676205,581.084 238.599205,580.101 238.149205,580.138 C237.700205,580.175 233.836205,583.237 229.563205,586.943 M262.623205,587.571 C263.207205,588.671 264.379205,590.471 265.227205,591.571 C266.459205,593.169 266.775205,593.254 266.800205,591.995 C266.818205,591.129 265.646205,589.329 264.196205,587.995 C261.984205,585.961 261.731205,585.892 262.623205,587.571 M208.028205,605.369 C204.762205,608.738 203.586205,611.35 206.379205,609.032 C208.028205,607.663 212.220205,602.071 211.596205,602.071 C211.392205,602.071 209.786205,603.555 208.028205,605.369 M299.386205,638.598 C300.328205,642.576 301.447205,643.651 302.090205,641.194 C302.415205,639.949 301.867205,638.508 300.649205,637.405 C298.727205,635.666 298.698205,635.694 299.386205,638.598 M258.862205,682.521 C258.840205,684.672 259.131205,685.172 259.936205,684.367 C260.727205,683.576 260.735205,682.741 259.966205,681.417 C259.025205,679.799 258.889205,679.935 258.862205,682.521 M515.330205,734.12 C514.926205,745.696 514.761205,755.32 514.964205,755.506 C516.076205,756.528 544.108205,770.128 544.433205,769.804 C545.572205,768.665 518.059205,713.071 516.357205,713.071 C516.196205,713.071 515.734205,722.543 515.330205,734.12 M400.896934,749.766 C400.933205,750.209 403.985205,757.546 407.680205,766.071 L414.397205,781.571 L426.446205,788.571 L438.494205,795.571 L446.865205,808.071 L455.236205,820.571 L457.829205,809.571 L460.421205,798.571 L457.627205,791.257 C455.051205,784.516 454.832205,782.853 454.832205,770.007 C454.832205,762.342 454.564205,756.071 454.236205,756.071 C453.908205,756.071 450.748205,758.61 447.213205,761.713 L440.787205,767.355 L431.670205,766.666 C426.656205,766.288 421.241205,765.3 419.637205,764.47 C418.034205,763.641 413.146205,759.812 408.777205,755.962 C404.407205,752.111 400.861205,749.323 400.896934,749.766 M500.343205,763.616 C499.253205,772.309 498.883205,778.521 499.425205,779.06 C501.095205,780.721 516.310205,791.926 516.558205,791.678 C516.837205,791.4 503.084205,749.989 502.528205,749.434 C502.330205,749.236 501.347205,755.618 500.343205,763.616 M474.868205,788.017 L467.479205,799.192 L481.357205,813.096 C488.990205,820.744 495.354205,826.882 495.499205,826.737 C495.711205,826.526 483.883205,781.723 482.599205,777.872 C482.410205,777.306 478.931205,781.871 474.868205,788.017 M517.832205,802.741 L517.832205,811.529 L509.834205,819.569 L501.836205,827.609 L512.630205,838.369 L523.423205,849.129 L526.378205,838.858 L529.332205,828.586 L546.095205,819.578 L562.857205,810.571 L551.253205,810.288 L539.650205,810.006 L529.991205,802.724 C524.678205,798.718 519.770205,795.106 519.082205,794.697 C518.120205,794.125 517.832205,795.98 517.832205,802.741 M294.235205,827.768 C285.749205,830.988 285.170205,831.386 285.613205,833.703 C285.874205,835.069 286.592205,835.99 287.210205,835.75 C290.575205,834.441 304.862205,825.212 304.161205,824.801 C303.705205,824.534 299.238205,825.869 294.235205,827.768 M308.832205,862.571 C308.832205,863.396 309.227205,864.071 309.710205,864.071 C310.192205,864.071 311.147205,863.396 311.832205,862.571 C312.872205,861.318 312.728205,861.071 310.954205,861.071 C309.734205,861.071 308.832205,861.709 308.832205,862.571 M527.894205,887.691 C527.928205,889.825 528.490205,898.996 529.144205,908.071 C530.272205,923.743 530.473205,924.755 533.143205,928.246 L535.955205,931.921 L543.287205,924.246 C547.320205,920.025 550.619205,916.121 550.618205,915.571 C550.617205,915.021 545.490205,907.65 539.224205,899.191 C528.043205,884.095 527.833205,883.882 527.894205,887.691"/><path fill-opacity=".45" d="M255.874205,42.205 C253.709205,79.198 253.573205,86.967 254.140205,141.455 C254.734205,198.473 254.880205,201.937 258.267205,239.071 L261.779205,277.571 L270.655205,312.7 L279.532205,347.829 L291.819205,371.2 C298.577205,384.054 304.952205,395.986 305.986205,397.716 L307.866205,400.861 L303.290205,403.543 C299.572205,405.722 298.934205,406.489 299.886205,407.636 C302.249205,410.483 307.470205,412.879 312.832205,413.578 C320.219205,414.54 321.231205,415.143 319.478205,417.541 C318.150205,419.357 317.940205,419.328 313.218205,416.666 L308.332205,413.911 L312.605205,418.049 L316.879205,422.187 L313.855205,428.522 C312.193205,432.006 310.834205,435.693 310.836205,436.714 C310.841205,439.277 314.012205,444.239 317.479205,447.111 L320.371205,449.506 L317.462205,457.825 L314.553205,466.145 L316.680205,468.409 L318.807205,470.673 L306.434205,488.365 L294.062205,506.056 L293.330205,523.114 C292.928205,532.495 292.764205,540.333 292.965205,540.532 C293.167205,540.73 294.950205,541.195 296.927205,541.564 L300.523205,542.236 L301.195205,529.903 L301.867205,517.571 L308.599205,507.584 C312.302205,502.091 316.907205,496.001 318.832205,494.051 C320.757205,492.1 325.373205,486.582 329.090205,481.788 L335.847205,473.071 L343.647205,473.071 L351.446205,473.071 L352.889205,464.321 L354.332205,455.571 L363.082205,454.669 L371.832205,453.767 L371.832205,450.419 C371.832205,447.259 372.029205,447.071 375.332205,447.071 L378.832205,447.071 L378.832205,441.767 C378.832205,437.08 379.210205,436.107 382.082205,433.393 C384.832205,430.796 386.356205,430.234 391.985205,429.744 C398.486205,429.178 398.653205,429.223 399.278205,431.713 C400.013205,434.64 400.142205,434.447 389.399205,446.571 L381.425205,455.571 L391.388205,446.071 C400.979205,436.927 406.508205,430.413 406.044205,428.807 C405.922205,428.387 407.381205,427.3 409.285205,426.392 C411.327205,425.418 412.456205,424.296 412.039205,423.656 C411.650205,423.059 410.880205,414.021 410.328205,403.571 L409.324205,384.571 L407.078205,388.781 C404.420205,393.763 404.377205,394.071 406.332205,394.071 C408.207205,394.071 408.202205,394.455 406.280205,398.171 C405.427205,399.821 405.007205,402.048 405.348205,403.121 C405.793205,404.524 405.497205,405.071 404.292205,405.071 C403.068205,405.071 402.827205,405.542 403.395205,406.821 C403.823205,407.783 404.373205,410.596 404.618205,413.071 L405.063205,417.571 L402.948205,415.666 C401.321205,414.201 400.831205,412.584 400.829205,408.666 C400.826205,403.829 397.929205,387.434 396.130205,382.071 C395.669205,380.696 392.646205,374.396 389.413205,368.071 L383.535205,356.571 L384.755205,349.571 C385.426205,345.721 386.233205,341.068 386.549205,339.23 L387.123205,335.89 L381.728205,338.601 C378.760205,340.092 376.173205,341.454 375.978205,341.628 C374.878205,342.614 382.718205,362.173 387.369205,370.044 C393.022205,379.611 394.037205,383.071 391.188205,383.071 C389.766205,383.071 389.627205,383.978 390.156205,389.821 C390.669205,395.482 390.467205,396.964 388.904205,399.009 L387.040205,401.446 L382.348205,392.104 L377.656205,382.761 L369.078205,391.339 L360.500205,399.917 L366.013205,413.453 L371.527205,426.989 L368.718205,429.68 L365.910205,432.37 L360.414205,428.221 C357.391205,425.938 354.561205,424.086 354.125205,424.104 C353.689205,424.123 350.430205,426.76 346.883205,429.966 L340.433205,435.794 L345.133205,451.812 C347.717205,460.621 349.832205,468.108 349.832205,468.45 C349.832205,470.114 346.879205,468.714 343.895205,465.636 C341.713205,463.385 339.236205,461.977 336.705205,461.549 C334.580205,461.191 332.589205,460.486 332.278205,459.984 C331.968205,459.482 330.789205,459.071 329.658205,459.071 C327.728205,459.071 327.697205,459.215 329.146205,461.428 C330.635205,463.7 330.512205,463.961 325.761205,468.641 C320.622205,473.702 320.217205,473.448 321.886205,466.21 C322.938205,461.648 321.743205,458.39 319.522205,459.763 C318.926205,460.131 319.427205,459.044 320.635205,457.347 C321.843205,455.65 322.832205,453.804 322.832205,453.243 C322.832205,452.683 324.069205,450.755 325.582205,448.958 C327.094205,447.162 329.908205,443.437 331.835205,440.68 L335.339205,435.668 L331.030205,427.369 C328.661205,422.805 326.504205,419.071 326.237205,419.071 C325.971205,419.071 323.862205,420.036 321.551205,421.215 C317.691205,423.184 317.470205,423.204 318.840205,421.465 C319.661205,420.423 320.561205,419.346 320.840205,419.071 C321.120205,418.796 325.650205,413.396 330.909205,407.071 L340.469205,395.571 L338.322205,387.071 C337.142205,382.396 335.957205,377.923 335.691205,377.131 C335.377205,376.2 332.935205,378.548 328.769205,383.787 C325.229205,388.239 321.295205,392.376 320.027205,392.98 C317.842205,394.021 317.547205,393.698 314.391205,386.825 C312.559205,382.835 307.363205,371.696 302.846205,362.071 C298.328205,352.446 288.780205,329.721 281.628205,311.571 L268.623205,278.571 L264.228205,248.154 C259.166205,213.132 259.162205,213.071 261.678205,213.071 C263.162205,213.071 263.847205,211.597 265.178205,205.543 C267.198205,196.348 267.203205,196.071 265.332205,196.071 C264.260205,196.071 263.832205,194.978 263.832205,192.238 C263.832205,190.129 264.169205,188.067 264.581205,187.655 C264.993205,187.243 265.829205,184.693 266.438205,181.988 C267.343205,177.971 267.297205,177.071 266.189205,177.071 C265.227205,177.071 264.832205,175.614 264.832205,172.071 C264.832205,167.738 265.099205,167.071 266.832205,167.071 C268.729205,167.071 268.832205,166.404 268.832205,154.131 L268.832205,141.192 L265.082205,140.881 L261.332205,140.571 L257.921205,104.815 C256.045205,85.149 254.735205,68.835 255.009205,68.561 C255.283205,68.286 256.936205,68.56 258.682205,69.169 C262.219205,70.401 266.292205,69.592 263.923205,68.127 C262.797205,67.431 262.844205,66.485 264.201205,62.503 C266.206205,56.618 266.217205,56.071 264.332205,56.071 C262.400205,56.071 262.435205,55.537 264.832205,48.571 C267.249205,41.546 267.273205,41.071 265.217205,41.071 C263.860205,41.071 263.696205,40.23 264.190205,35.821 C264.513205,32.933 265.072205,24.451 265.432205,16.971 L266.086205,3.371 L263.709205,2.734 C257.938205,1.19 258.415205,-1.216 255.874205,42.205 M698.808205,73.309 L696.445205,78.047 L699.389205,113.388 L702.332205,148.73 L700.195205,186.15 C699.019205,206.732 697.726205,238.196 697.320205,256.071 L696.583205,288.571 L689.790205,317.071 L682.997205,345.571 L669.462205,375.015 L655.927205,404.459 L633.630205,426.814 C613.098205,447.399 610.696205,449.482 603.297205,453.12 C598.878205,455.293 594.715205,457.071 594.047205,457.071 C593.379205,457.071 592.832205,457.521 592.832205,458.071 C592.832205,458.621 591.932205,459.071 590.832205,459.071 C589.732205,459.071 588.832205,459.481 588.832205,459.983 C588.832205,460.485 587.032205,461.199 584.832205,461.571 C582.632205,461.943 580.832205,462.657 580.832205,463.159 C580.832205,463.661 579.905205,464.071 578.773205,464.071 C577.641205,464.071 576.964205,464.476 577.271205,464.972 C577.577205,465.467 575.579205,466.412 572.832205,467.071 C570.085205,467.73 568.060205,468.63 568.332205,469.071 C568.604205,469.512 566.564205,470.416 563.797205,471.079 C560.206205,471.941 559.038205,472.615 559.718205,473.434 C560.403205,474.259 554.340205,477.101 538.140205,483.548 L515.609205,492.514 L513.704205,490.162 C512.242205,488.355 510.353205,487.637 505.566205,487.065 C502.137205,486.656 493.758205,485.14 486.944205,483.696 C472.824205,480.704 472.462205,480.664 473.414205,482.204 C473.799205,482.827 467.668205,478.478 459.789205,472.539 C445.694205,461.914 445.441205,461.775 444.026205,463.906 C443.235205,465.097 441.941205,466.071 441.151205,466.071 C440.361205,466.071 439.984205,466.508 440.314205,467.042 C440.644205,467.576 439.774205,468.299 438.380205,468.648 C436.986205,468.998 436.094205,469.686 436.398205,470.178 C436.702205,470.669 436.447205,471.071 435.832205,471.071 C435.217205,471.071 434.962205,471.473 435.266205,471.964 C435.570205,472.456 434.678205,473.144 433.284205,473.494 C431.890205,473.843 431.020205,474.566 431.350205,475.1 C431.680205,475.634 430.911205,476.078 429.641205,476.086 L427.332205,476.1 L429.832205,477.359 C431.385205,478.141 432.450205,479.636 432.645205,481.307 C432.920205,483.67 433.296205,483.928 435.746205,483.438 C437.360205,483.115 443.336205,484.137 449.933205,485.864 C458.325205,488.061 464.717205,489.015 474.164205,489.48 L486.995205,490.111 L489.664205,493.315 C495.026205,499.752 495.571205,500.073 501.082205,500.040132 C503.970205,500.02 519.607205,497.817 535.832205,495.143 L565.332205,490.281 L594.473205,476.347 L623.614205,462.413 L649.473205,437.992 L675.332205,413.571 L690.494205,381.071 L705.656205,348.571 L710.418205,318.571 C714.981205,289.819 715.245205,287.011 716.756205,251.071 L718.332205,213.571 L714.581205,174.071 C712.517205,152.346 708.656205,119.721 706.000205,101.571 L701.171205,68.571 L698.808205,73.309 M323.470205,400.571 C323.123205,401.476 323.465205,402.071 324.332205,402.071 C325.199205,402.071 325.541205,401.476 325.194205,400.571 C324.877205,399.746 324.489205,399.071 324.332205,399.071 C324.175205,399.071 323.787205,399.746 323.470205,400.571 M324.048205,405.096 C322.998205,406.779 323.075205,407.081 324.574205,407.141 C326.096205,407.202 326.063205,407.334 324.332205,408.124 C322.532205,408.945 322.582205,409.013 324.832205,408.804 C326.721205,408.628 327.251205,408.082 326.998205,406.571 C326.482205,403.472 325.400205,402.931 324.048205,405.096 M400.832205,431.226 C400.832205,433.318 400.891205,433.328 402.832205,431.571 C403.932205,430.576 404.832205,429.606 404.832205,429.416 C404.832205,429.226 403.932205,429.071 402.832205,429.071 C401.451205,429.071 400.832205,429.738 400.832205,431.226 M409.077205,437.925 C408.896205,441.924 409.111205,443.133 409.812205,442.071 C410.972205,440.312 411.173205,433.395 410.082205,432.734 C409.669205,432.484 409.217205,434.82 409.077205,437.925 M375.832205,457.669 C375.832205,460.427 387.094205,519.533 387.767205,520.309 C388.120205,520.715 386.954205,507.89 385.178205,491.809 C383.401205,475.728 381.922205,461.631 381.890205,460.482 C381.856205,459.248 380.789205,457.917 379.285205,457.232 C376.008205,455.738 375.832205,455.761 375.832205,457.669 M408.743205,465.571 C408.577205,468.321 408.368205,472.232 408.278205,474.263 C408.188205,476.293 407.525205,489.559 406.804205,503.744 L405.493205,529.534 L393.412205,541.67 C386.768205,548.344 380.098205,554.589 378.591205,555.548 C377.083205,556.506 376.116205,557.721 376.441205,558.248 C376.767205,558.775 376.088205,559.453 374.933205,559.755 C373.777205,560.057 372.832205,560.927 372.832205,561.688 C372.832205,562.448 372.130205,563.071 371.273205,563.071 C370.416205,563.071 369.942205,563.441 370.222205,563.893 C370.757205,564.758 367.397205,568.071 365.985205,568.071 C365.531205,568.071 365.086205,569.946 364.997205,572.237 C364.907205,574.528 364.721205,576.476 364.583205,576.564 C364.445205,576.653 354.947205,578.405 343.476205,580.459 L322.620205,584.191 L305.476205,574.494 C296.047205,569.16 286.419205,562.964 284.082205,560.725 C279.899205,556.719 279.830205,556.543 279.733205,549.613 C279.679205,545.74 279.332205,540.096 278.962205,537.071 C278.342205,532.002 278.226205,531.806 277.485205,534.571 C276.572205,537.979 271.717205,546.067 270.582205,546.069 C269.569205,546.072 269.351205,546.908 273.832205,533.571 C276.941205,524.316 277.832205,520.148 277.832205,514.856 C277.832205,508.343 278.183205,507.343 285.926205,491.809 C290.378205,482.878 293.335205,476.246 292.496205,477.071 C291.658205,477.896 286.450205,484.419 280.924205,491.566 C272.553205,502.394 271.165205,504.675 272.605205,505.246 C274.042205,505.816 273.965205,505.942 272.141205,506.001 C270.936205,506.039 269.737205,506.415 269.477205,506.836 C269.217205,507.257 268.729205,517.494 268.391205,529.586 C268.054205,541.678 267.406205,551.699 266.949205,551.856 C266.493205,552.013 256.343205,548.301 244.393205,543.606 C232.443205,538.912 222.312205,535.071 221.881205,535.071 C220.262205,535.071 198.175205,569.773 196.904205,574.315 C195.665205,578.74 195.452205,578.945 192.662205,578.387 C189.848205,577.824 189.755205,577.92 190.428205,580.685 C190.814205,582.272 191.444205,584.452 191.829205,585.528 C192.432205,587.212 190.353205,588.82 176.964205,597.028 L161.398205,606.571 L141.365205,629.232 C130.347205,641.696 119.907205,653.455 118.166205,655.363 C115.516205,658.267 113.724205,659.113 107.166205,660.55 C102.857205,661.495 98.9052052,662.674 98.3822052,663.169 C97.8602052,663.665 96.2282052,664.071 94.7572052,664.071 C87.3132052,664.071 85.8802052,664.997 84.1112052,670.951 C82.5432052,676.229 81.8602052,677.027 72.8872052,684.071 L63.3322052,691.571 L67.0822052,691.881 C69.1452052,692.052 70.8322052,692.578 70.8322052,693.05 C70.8322052,695.284 69.4372052,697.071 67.6942052,697.071 C66.6352052,697.071 65.5102052,697.746 65.1942052,698.571 C64.8772052,699.396 63.7972052,700.071 62.7932052,700.071 C61.7892052,700.071 60.0072052,701.421 58.8322052,703.071 C57.6142052,704.782 55.7582052,706.093 54.5142052,706.122 C52.9802052,706.157 50.7972052,708.31 47.1622052,713.372 C44.3182052,717.331 40.4992052,722.576 38.6742052,725.027 C36.8492052,727.478 36.0252052,729.081 36.8442052,728.588 C43.3072052,724.7 60.6532052,712.758 71.8012052,704.522 C85.6402052,694.297 96.3392052,688.389 169.855205,650.376 L196.379205,636.661 L200.778205,622.3 C204.943205,608.699 205.413205,607.73 209.645205,604.004 C212.103205,601.841 214.454205,600.071 214.869205,600.071 C215.284205,600.071 220.397205,602.3 226.231205,605.024 L236.837205,609.977 L234.639205,606.157 L232.441205,602.337 L234.505205,595.26 L236.569205,588.183 L227.701205,592.637 C222.823205,595.087 218.832205,596.893 218.832205,596.65 C218.832205,596.408 223.445205,592.301 229.082205,587.525 C234.719205,582.748 239.717205,577.737 240.188205,576.389 C240.715205,574.877 241.577205,574.143 242.438205,574.473 C243.339205,574.819 243.832205,574.312 243.832205,573.04 C243.832205,571.606 244.512205,571.071 246.332205,571.071 C248.165205,571.071 248.832205,570.538 248.832205,569.071 C248.832205,567.738 249.499205,567.071 250.832205,567.071 C251.943205,567.071 252.832205,566.404 252.832205,565.571 C252.832205,564.746 253.680205,564.071 254.715205,564.071 C255.758205,564.071 256.832205,563.178 257.122205,562.071 C257.435205,560.874 258.486205,560.071 259.738205,560.071 C260.933205,560.071 261.832205,559.427 261.832205,558.571 C261.832205,557.746 262.345205,557.071 262.972205,557.071 C263.599205,557.071 264.709205,556.283 265.440205,555.321 C266.552205,553.856 266.774205,559.874 266.800205,592.258 L266.832205,630.946 L282.332205,641.555 C290.857205,647.39 297.832205,652.818 297.832205,653.618 C297.832205,654.417 298.309205,655.071 298.892205,655.071 C299.475205,655.071 313.398205,652.821 329.832205,650.071 C346.266205,647.321 360.077205,645.086 360.522205,645.105 C362.252205,645.176 340.148205,656.082 337.082205,656.67 C335.294205,657.013 333.832205,657.595 333.832205,657.964 C333.832205,658.333 331.707205,659.262 329.110205,660.029 C326.513205,660.795 324.825205,661.569 325.360205,661.747 C355.994205,671.967 363.950205,674.943 360.832205,675.015 C358.907205,675.059 345.407205,674.609 330.832205,674.015 C310.038205,673.167 303.578205,672.58 300.832205,671.291 C297.361205,669.661 297.354205,669.645 299.976205,669.303 C303.153205,668.889 304.850205,664.071 301.818205,664.071 C296.686205,664.071 294.058205,665.373 292.471205,668.702 C290.463205,672.913 290.459205,673.071 292.352205,673.071 C293.629205,673.071 293.548205,673.707 291.852205,677.031 C289.304205,682.026 289.324205,682.401 292.110205,681.869 C294.167205,681.476 294.350205,681.756 294.001205,684.752 C293.704205,687.296 293.989205,688.071 295.223205,688.071 C296.108205,688.071 296.832205,688.46 296.832205,688.934 C296.832205,689.409 299.532205,690.371 302.832205,691.071 C306.132205,691.771 308.832205,692.684 308.832205,693.1 C308.832205,693.516 312.094205,694.648 316.082205,695.616 C320.070205,696.584 323.557205,697.667 323.832205,698.022 C324.107205,698.378 326.136205,699.194 328.340205,699.837 C330.556205,700.484 335.252205,703.496 338.840205,706.572 L345.332205,712.137 L351.584205,711.854 L357.836205,711.571 L357.834205,717.147 C357.832205,721.68 357.399205,723.129 355.518205,724.897 C354.245205,726.093 352.230205,727.071 351.041205,727.071 C349.837205,727.071 348.151205,728.18 347.240205,729.571 C346.307205,730.995 344.646205,732.071 343.382205,732.071 C342.161205,732.071 339.960205,733.421 338.490205,735.071 C335.988205,737.879 335.353205,738.072 328.574205,738.085 C324.591205,738.092 320.235205,738.392 318.894205,738.75 C316.919205,739.279 317.773205,739.735 323.394205,741.155 C338.281205,744.915 367.280205,752.932 366.332205,753.027 C365.782205,753.081 348.007205,751.927 326.832205,750.462 C298.742205,748.518 287.936205,747.429 286.868205,746.434 C285.585205,745.24 285.596205,745.071 286.957205,745.071 C287.812205,745.071 289.048205,743.893 289.703205,742.454 L290.896205,739.836 L287.116205,740.545 C283.611205,741.203 282.388205,742.076 281.527205,744.535 C281.341205,745.065 265.471205,741.361 246.261205,736.303 L211.332205,727.107 L228.832205,727.667 C238.457205,727.975 247.232205,728.438 248.332205,728.695 C249.432205,728.951 247.182205,727.454 243.332205,725.366 C236.584205,721.708 236.123205,721.211 230.535205,711.571 C227.346205,706.071 224.379205,700.965 223.940205,700.223 C223.405205,699.318 219.000205,706.402 210.510205,721.826 C203.562205,734.448 197.506205,745.777 197.053205,747.002 C196.305205,749.025 195.801205,748.583 191.523205,742.149 C188.934205,738.256 186.482205,735.1 186.074205,735.134 C185.666205,735.169 171.832205,747.443 155.332205,762.409 L125.332205,789.62 L103.832205,817.14 C76.2852052,852.402 74.1352052,854.277 48.7662052,865.18 C38.7572052,869.482 30.3862052,873.184 30.1617177,873.406 C29.9412052,873.629 44.7402052,878.908 63.0492052,885.139 L96.3402052,896.467 L99.7582052,907.269 C101.639205,913.21 103.371205,918.071 103.608205,918.071 C103.845205,918.071 107.757205,914.696 112.300205,910.571 C116.844205,906.446 121.324205,903.071 122.256205,903.071 C123.188205,903.071 123.672205,903.521 123.332205,904.071 C122.992205,904.621 123.442205,905.071 124.332205,905.071 C125.222205,905.071 125.672205,905.521 125.332205,906.071 C124.992205,906.621 125.442205,907.071 126.332205,907.071 C127.222205,907.071 127.702205,907.473 127.398205,907.964 C127.094205,908.456 127.986205,909.144 129.380205,909.494 C130.774205,909.843 131.644205,910.566 131.314205,911.1 C130.984205,911.634 131.442205,912.071 132.332205,912.071 C133.222205,912.071 133.672205,912.521 133.332205,913.071 C132.992205,913.621 133.442205,914.071 134.332205,914.071 C135.222205,914.071 135.672205,914.521 135.332205,915.071 C134.992205,915.621 135.442205,916.071 136.332205,916.071 C137.222205,916.071 137.704205,916.47 137.402205,916.957 C137.101205,917.445 137.862205,918.12 139.093205,918.457 C140.655205,918.885 140.960205,919.312 140.102205,919.867 C139.238205,920.427 139.724205,921.167 141.739205,922.357 C144.821205,924.178 145.294205,925.687 146.448205,937.379 L147.120205,944.188 L153.149205,947.231 C159.593205,950.484 162.116205,952.454 161.118205,953.452 C160.777205,953.792 161.110205,954.071 161.856205,954.071 C162.735205,954.071 162.530205,954.589 161.273205,955.539 C159.861205,956.607 159.727205,957.016 160.782205,957.039 C163.879205,957.107 160.177205,958.95 156.332205,959.254 C154.051205,959.435 159.335205,960.376 168.626205,961.444 C177.588205,962.474 185.136205,963.1 185.401205,962.835 C185.666205,962.571 184.971205,960.228 183.857205,957.63 C182.743205,955.031 181.832205,952.768 181.832205,952.599 C181.832205,952.431 183.407205,951.998 185.332205,951.637 C187.257205,951.276 188.832205,950.599 188.832205,950.133 C188.832205,949.668 191.982205,948.514 195.832205,947.571 C199.682205,946.628 202.832205,945.564 202.832205,945.207 C202.832205,944.851 204.140205,943.98 205.739205,943.273 C208.746205,941.941 214.240205,942.602 213.266205,944.178 C212.962205,944.669 213.442205,945.071 214.332205,945.071 C215.222205,945.071 215.665205,945.532 215.318205,946.094 C214.893205,946.781 220.542205,947.028 232.504205,946.844 L250.323205,946.571 L251.838205,938.071 L253.353205,929.571 L242.842205,906.571 L232.332205,883.571 L217.832205,876.455 L203.332205,869.339 L212.908205,864.566 L222.485205,859.792 L221.211205,852.682 C219.156205,841.212 219.482205,841.165 226.753205,851.884 C230.560205,857.496 238.744205,867.76 244.941205,874.693 L256.208205,887.299 L284.770205,886.577 L313.332205,885.855 L346.982205,896.463 C365.489205,902.297 381.239205,907.06 381.982205,907.047 C382.724205,907.034 390.982205,902.542 400.332205,897.064 L417.332205,887.105 L417.645205,890.077 C417.846205,891.992 423.464205,900.785 433.447205,914.81 L448.938205,936.571 L437.962205,936.853 L426.986205,937.135 L419.909205,944.986 C416.017205,949.303 412.830205,953.226 412.827205,953.703 C412.824205,954.181 414.224205,958.058 415.939205,962.321 C418.061205,967.596 419.580205,970.065 420.694205,970.051 C421.595205,970.04 426.607205,968.924 431.832205,967.571 C437.057205,966.218 442.062205,965.102 442.954205,965.091 C445.567205,965.059 445.972205,971.534 444.330205,987.091 C442.495205,1004.475 442.463205,1003.071 444.703205,1003.071 C446.702205,1003.071 446.987205,1001.787 448.419205,986.321 C448.991205,980.144 449.367205,979.071 450.961205,979.071 C451.990205,979.071 452.832205,978.621 452.832205,978.071 C452.832205,977.521 452.157205,977.071 451.332205,977.071 C450.507205,977.071 449.832205,976.621 449.832205,976.071 C449.832205,975.521 450.507205,975.071 451.332205,975.071 C452.415205,975.071 452.832205,973.96 452.832205,971.071 C452.832205,968.182 453.249205,967.071 454.332205,967.071 C455.157205,967.071 455.832205,966.396 455.832205,965.571 C455.832205,964.746 456.705205,964.071 457.771205,964.071 C459.434205,964.071 459.806205,963.106 460.375205,957.321 L461.040205,950.571 L489.692205,950.85 L518.343205,951.129 L523.804205,945.6 C526.807205,942.559 530.136205,940.071 531.203205,940.071 C533.045205,940.071 533.056205,940.166 531.422205,941.972 C530.391205,943.111 530.100205,944.118 530.695205,944.486 C531.241205,944.824 531.979205,944.183 532.335205,943.061 C532.733205,941.808 535.554205,939.818 539.657205,937.896 C544.155205,935.79 545.744205,934.629 544.530205,934.337 C542.968205,933.962 543.210205,933.316 546.347205,929.488 C549.238205,925.959 549.610205,925.071 548.196205,925.071 C546.859205,925.071 547.381205,924.093 550.332205,921.071 C553.712205,917.61 553.958205,917.071 552.162205,917.071 C550.880205,917.071 547.385205,919.915 543.026205,924.503 L535.966205,931.936 L533.149205,928.253 C530.472205,924.754 530.273205,923.752 529.144205,908.071 C527.154205,880.442 525.987205,881.369 539.643205,899.735 L551.454205,915.618 L562.981205,918.845 C569.321205,920.619 575.022205,922.071 575.651205,922.071 C576.280205,922.071 583.739205,913.408 592.227205,902.821 L607.659205,883.571 L597.745205,883.286 C592.293205,883.129 587.832205,882.779 587.832205,882.508 C587.832205,881.689 593.830205,870.071 594.253205,870.071 C594.469205,870.071 597.613205,871.402 601.239205,873.029 C607.326205,875.76 607.832205,876.227 607.832205,879.113 C607.832205,880.831 608.210205,882.088 608.671205,881.904 C609.133205,881.721 618.471205,873.471 629.421205,863.571 L649.332205,845.571 L653.832205,827.071 C658.072205,809.641 658.281205,808.131 657.444205,800.97 L656.556205,793.368 L660.876205,786.97 C664.283205,781.922 682.430205,756.78 688.216205,749.088 C689.158205,747.836 688.943205,747.847 686.832205,749.155 C685.457205,750.007 681.476205,752.421 677.985205,754.519 C674.294205,756.737 672.105205,758.622 672.754205,759.023 C673.452205,759.454 672.918205,760.222 671.332205,761.071 C669.661205,761.965 669.192205,762.675 669.959205,763.149 C670.700205,763.607 669.927205,764.488 667.832205,765.571 C665.293205,766.884 664.860205,767.479 665.936205,768.172 C667.027205,768.874 666.821205,769.211 664.997205,769.71 C663.333205,770.165 663.031205,770.576 663.945205,771.141 C664.841205,771.694 664.446205,772.13 662.638205,772.584 C660.102205,773.22 653.785205,770.85 653.873205,769.295 C653.896205,768.897 662.856205,755.971 673.783205,740.571 C684.711205,725.171 693.355205,712.468 692.992205,712.342 C692.629205,712.215 684.907205,714.015 675.833205,716.342 L659.334205,720.571 L653.129205,743.932 C649.717205,756.781 646.768205,767.764 646.576205,768.338 C646.385205,768.913 644.901205,760.65 643.280205,749.977 L640.332205,730.571 L620.833205,726.571 L601.335205,722.571 L590.833205,709.033 L580.332205,695.495 L567.187205,690.556 L554.041205,685.616 L553.437205,681.204 C553.104205,678.777 552.832205,674.443 552.832205,671.572 C552.832205,667.165 551.753205,664.111 545.901205,651.961 C542.089205,644.047 538.950205,638.471 538.925205,639.571 C538.900205,640.671 539.691205,645.259 540.683205,649.767 L542.487205,657.964 L535.151205,665.251 C529.796205,670.57 528.227205,672.683 529.341205,673.074 C530.485205,673.476 529.604205,674.855 525.832205,678.571 C521.827205,682.515 521.132205,683.65 522.439205,684.109 C523.749205,684.568 522.917205,685.945 518.350205,690.878 C514.125205,695.442 513.096205,697.071 514.440205,697.071 C515.768205,697.071 514.786205,698.567 510.832205,702.571 C506.629205,706.827 505.841205,708.071 507.347205,708.071 C509.023205,708.071 508.857205,708.508 506.156205,711.209 C503.683205,713.682 501.931205,714.451 497.889205,714.84 C495.068205,715.111 492.970205,715.542 493.227205,715.799 C493.484205,716.056 491.786205,719.26 489.453205,722.919 C482.981205,733.072 483.249205,732.452 485.961205,731.015 C487.265205,730.324 491.081205,728.029 494.440205,725.915 C500.821205,721.899 507.180205,720.198 501.332205,724.071 C498.810205,725.742 498.650205,726.065 500.332205,726.1 C502.112205,726.137 502.057205,726.299 499.832205,727.571 C497.597205,728.849 497.544205,729.008 499.332205,729.071 C501.120205,729.134 501.067205,729.293 498.832205,730.571 C496.597205,731.849 496.544205,732.008 498.332205,732.071 C500.120205,732.134 500.067205,732.293 497.832205,733.571 C495.595205,734.85 495.543205,735.008 497.332205,735.076 C498.963205,735.137 498.778205,735.451 496.332205,736.776 C494.682205,737.67 493.803205,738.559 494.379205,738.752 C495.855205,739.246 494.891205,746.071 493.345205,746.071 C492.648205,746.071 491.517205,746.746 490.832205,747.571 C490.147205,748.396 488.544205,749.071 487.269205,749.071 C485.993205,749.071 484.630205,749.59 484.238205,750.223 C483.724205,751.054 484.613205,751.203 487.429205,750.756 C489.576205,750.416 493.862205,749.842 496.955205,749.481 L502.578205,748.826 L509.688205,770.131 C513.599205,781.85 516.691205,791.545 516.559205,791.677 C516.427205,791.809 512.385205,788.978 507.576205,785.387 C501.249205,780.661 498.832205,778.253 498.832205,776.674 C498.832205,775.473 499.537205,769.423 500.398205,763.228 C501.259205,757.034 501.809205,751.501 501.619205,750.933 C501.430205,750.366 499.077205,753.089 496.391205,756.986 C493.704205,760.883 491.201205,764.071 490.829205,764.071 C490.457205,764.071 489.640205,765.196 489.014205,766.571 C488.387205,767.946 487.164205,769.071 486.294205,769.071 C485.425205,769.071 484.984205,769.508 485.314205,770.042 C485.644205,770.576 484.774205,771.299 483.380205,771.648 C481.986205,771.998 481.094205,772.686 481.398205,773.178 C482.687205,775.264 478.312205,773.828 474.726205,770.987 L470.832205,767.903 L470.832205,770.487 C470.832205,772.404 470.316205,773.071 468.832205,773.071 C467.276205,773.071 466.832205,773.738 466.832205,776.071 C466.832205,778.404 466.388205,779.071 464.832205,779.071 C463.732205,779.071 462.832205,779.481 462.832205,779.983 C462.832205,780.485 461.032205,781.199 458.832205,781.571 C456.632205,781.943 454.832205,782.629 454.832205,783.095 C454.832205,783.562 456.090205,787.235 457.627205,791.257 L460.421205,798.571 L457.829205,809.571 L455.236205,820.571 L446.865205,808.071 L438.494205,795.571 L426.446205,788.571 L414.397205,781.571 L407.680205,766.071 C403.985205,757.546 400.933205,750.209 400.897205,749.766 C400.861205,749.323 404.407205,752.111 408.777205,755.962 C413.146205,759.812 418.034205,763.641 419.637205,764.47 C421.241205,765.3 426.640205,766.287 431.634205,766.664 L440.716205,767.349 L448.024205,761.089 C463.863205,747.522 470.591205,740.174 478.088205,728.254 L485.436205,716.571 L488.750205,689.571 C490.572205,674.721 493.298205,656.391 494.808205,648.837 L497.553205,635.103 L517.127205,614.772 L536.701205,594.44 L528.016205,591.62 C523.240205,590.069 518.717205,588.568 517.965205,588.284 C516.852205,587.863 516.727205,589.046 517.290205,594.669 L517.982205,601.571 L499.657205,608.352 C489.578205,612.081 481.060205,615.119 480.728205,615.102 C480.396205,615.085 478.840205,605.846 477.271205,594.571 C473.997205,571.039 475.695205,573.129 461.832205,575.571 C451.917205,577.317 446.445205,577.506 447.332205,576.071 C447.672205,575.521 447.200205,575.071 446.284205,575.071 C445.214205,575.071 444.824205,574.534 445.194205,573.571 C446.327205,570.617 442.045205,572.045 439.947205,575.321 C438.802205,577.109 437.875205,578.121 437.886205,577.571 C437.898205,577.021 439.803205,567.346 442.120205,556.071 L446.332205,535.571 L443.392205,512.848 L440.452205,490.125 L427.012205,489.848 C414.337205,489.587 413.487205,489.443 412.080205,487.321 C411.123205,485.878 410.990205,485.071 411.710205,485.071 C412.327205,485.071 412.832205,485.821 412.832205,486.738 C412.832205,487.654 413.039205,488.198 413.292205,487.945 C413.544205,487.692 412.692205,481.429 411.398205,474.028 C409.362205,462.385 409.004205,461.245 408.743205,465.571 M295.830205,464.447 C297.205205,465.25 298.517205,465.719 298.747205,465.489 C299.368205,464.868 298.617205,464.395 295.832205,463.654 L293.332205,462.988 L295.830205,464.447 M494.832205,501.523 C494.832205,501.772 496.969205,503.415 499.582205,505.174 L504.332205,508.374 L500.886205,504.723 C497.950205,501.612 494.832205,499.964 494.832205,501.523 M505.832205,556.678 C505.832205,558.769 506.179205,559.142 507.582205,558.565 C508.544205,558.168 510.130205,557.615 511.105205,557.335 C512.803205,556.847 512.803205,556.768 511.105205,555.48 C508.127205,553.22 505.832205,553.742 505.832205,556.678 M239.932205,619.321 C239.987205,621.658 240.324205,624.61 240.682205,625.879 C241.326205,628.167 241.348205,628.16 243.093205,625.206 C244.798205,622.32 244.786205,622.108 242.745205,618.647 C241.584205,616.68 240.454205,615.071 240.233205,615.071 C240.013205,615.071 239.877205,616.984 239.932205,619.321 M299.386205,638.598 C300.328205,642.576 301.447205,643.651 302.090205,641.194 C302.415205,639.949 301.867205,638.508 300.649205,637.405 C298.727205,635.666 298.698205,635.694 299.386205,638.598 M206.598205,639.321 C206.211205,640.283 205.206205,641.071 204.363205,641.071 C203.044205,641.071 202.826205,643.669 202.788205,659.821 C202.764205,670.134 202.354205,680.596 201.875205,683.071 C201.397205,685.546 201.111205,687.678 201.241205,687.81 C201.370205,687.941 203.882205,685.893 206.823205,683.259 L212.171205,678.47 L209.736205,658.02 C208.391205,646.729 206.986205,638.355 206.598205,639.321 M468.835205,675.894 C458.111205,681.752 450.015205,686.675 450.844205,686.835 C451.673205,686.994 457.747205,684.194 464.342205,680.611 C470.936205,677.029 477.308205,674.091 478.501205,674.084 C481.669205,674.065 486.415205,671.047 488.302205,667.852 C489.206205,666.323 489.582205,665.11 489.139205,665.158 C488.695205,665.205 479.558205,670.037 468.835205,675.894 M399.332205,708.071 C396.582205,709.086 395.232205,709.916 396.332205,709.916 C397.432205,709.916 400.582205,709.086 403.332205,708.071 C406.082205,707.056 407.432205,706.226 406.332205,706.226 C405.232205,706.226 402.082205,707.056 399.332205,708.071 M515.330205,734.12 C514.926205,745.696 514.761205,755.32 514.964205,755.506 C516.076205,756.528 544.108205,770.128 544.433205,769.804 C545.572205,768.665 518.059205,713.071 516.357205,713.071 C516.196205,713.071 515.734205,722.543 515.330205,734.12 M370.332205,718.071 C364.282205,720.185 360.022205,721.949 360.865205,721.992 C361.708205,722.036 367.558205,720.305 373.865205,718.147 C380.172205,715.989 384.432205,714.225 383.332205,714.226 C382.232205,714.227 376.382205,715.957 370.332205,718.071 M254.491205,764.321 C253.229205,791.907 252.311205,788.093 264.332205,805.211 C270.107205,813.435 274.832205,820.502 274.832205,820.916 C274.832205,821.33 264.045205,824.097 250.860205,827.065 C237.676205,830.032 227.041205,832.613 227.228205,832.8 C227.415205,832.987 238.394205,831.325 251.626205,829.106 C264.858205,826.887 275.942205,825.071 276.258205,825.071 C276.800205,825.071 277.114205,829.983 276.582205,830.149 C276.445205,830.193 264.857205,831.261 250.832205,832.523 L225.332205,834.818 L250.678205,834.944 C274.541205,835.064 276.188205,834.954 278.835205,833.069 C280.994205,831.532 282.191205,831.285 283.989205,832.006 C285.278205,832.522 285.752205,832.973 285.043205,833.008 C284.168205,833.051 284.358205,833.719 285.632205,835.087 C287.446205,837.033 312.651205,846.15 315.790205,845.995 C316.638205,845.953 315.843205,845.379 314.023205,844.72 C312.204205,844.061 310.979205,843.257 311.302205,842.934 C311.625205,842.611 309.839205,841.773 307.332205,841.071 C304.825205,840.369 303.029205,839.54 303.340205,839.229 C303.651205,838.918 301.977205,837.881 299.619205,836.923 C297.261205,835.966 296.007205,835.137 296.832205,835.082 C297.657205,835.026 297.068205,834.439 295.523205,833.776 L292.713205,832.571 L298.872205,828.942 C302.260205,826.945 304.649205,825.083 304.182205,824.804 C303.714205,824.524 299.957205,825.599 295.832205,827.192 C284.373205,831.619 284.832205,831.558 284.832205,828.638 C284.832205,826.71 284.318205,826.071 282.765205,826.071 C281.152205,826.071 280.837205,825.631 281.332205,824.071 C281.827205,822.511 281.512205,822.071 279.899205,822.071 C278.705205,822.071 277.832205,821.421 277.832205,820.532 C277.832205,819.685 276.257205,816.653 274.332205,813.795 C271.480205,809.56 271.117205,808.497 272.372205,808.057 C273.606205,807.624 273.083205,806.329 269.742205,801.544 C267.449205,798.259 265.068205,795.24 264.452205,794.836 C263.711205,794.35 263.840205,794.091 264.832205,794.071 C266.061205,794.046 266.086205,793.884 264.969205,793.177 C263.818205,792.448 263.818205,792.229 264.969205,791.771 C266.072205,791.332 266.057205,791.214 264.891205,791.15 C263.836205,791.092 263.970205,790.677 265.391205,789.603 C267.299205,788.159 267.299205,788.134 265.408205,788.103 C263.618205,788.073 263.648205,787.896 265.832205,785.571 C267.930205,783.338 267.985205,783.071 266.351205,783.071 C264.585205,783.071 264.585205,783.002 266.332205,781.071 C267.358205,779.937 267.642205,779.071 266.987205,779.071 C266.352205,779.071 265.832205,777.721 265.832205,776.071 C265.832205,773.721 265.391205,773.071 263.798205,773.071 C261.934205,773.071 261.819205,772.65 262.426205,768.071 C263.042205,763.429 262.937205,763.071 260.961205,763.071 C259.007205,763.071 258.832205,762.535 258.832205,756.571 C258.832205,750.92 258.591205,750.071 256.988205,750.071 C255.312205,750.071 255.084205,751.374 254.491205,764.321 M474.868205,788.017 L467.479205,799.192 L481.357205,813.096 C488.990205,820.744 495.354205,826.882 495.499205,826.737 C495.711205,826.526 483.883205,781.723 482.599205,777.872 C482.410205,777.306 478.931205,781.871 474.868205,788.017 M517.832205,802.741 L517.832205,811.529 L509.834205,819.569 L501.836205,827.609 L512.630205,838.369 L523.423205,849.129 L526.378205,838.858 L529.332205,828.586 L546.095205,819.578 L562.857205,810.571 L551.253205,810.288 L539.650205,810.006 L529.991205,802.724 C524.678205,798.718 519.770205,795.106 519.082205,794.697 C518.120205,794.125 517.832205,795.98 517.832205,802.741 M421.582205,797.733 C422.270205,798.011 423.395205,798.011 424.082205,797.733 C424.770205,797.456 424.207205,797.229 422.832205,797.229 C421.457205,797.229 420.895205,797.456 421.582205,797.733 M222.645205,833.754 C223.366205,834.043 224.229205,834.007 224.561205,833.675 C224.893205,833.343 224.303205,833.107 223.249205,833.15 C222.084205,833.198 221.847205,833.435 222.645205,833.754 M219.868205,838.454 C220.673205,839.214 229.709205,846.332 239.947205,854.27 L258.562205,868.704 L281.251205,870 C293.729205,870.713 304.161205,871.075 304.433205,870.804 C304.704205,870.532 302.652205,868.641 299.873205,866.601 C297.094205,864.561 294.260205,862.094 293.576205,861.119 C292.892205,860.144 290.532205,859.042 288.332205,858.67 C276.369205,856.649 277.315205,856.49 268.706205,861.97 C264.284205,864.784 260.206205,866.802 259.642205,866.454 C258.975205,866.042 259.039205,865.561 259.827205,865.074 C260.648205,864.567 259.863205,863.434 257.381205,861.541 C255.020205,859.74 254.136205,858.501 254.881205,858.041 C255.627205,857.58 254.742205,856.341 252.381205,854.541 C250.020205,852.74 249.136205,851.501 249.881205,851.041 C250.627205,850.58 249.742205,849.341 247.381205,847.541 C245.008205,845.73 244.133205,844.503 244.886205,844.037 C246.762205,842.878 244.828205,842.218 231.769205,839.558 C217.441205,836.64 218.002205,836.692 219.868205,838.454 M82.3322052,848.071 C81.0452052,849.494 80.9062052,850.071 81.8512052,850.071 C82.6842052,850.071 82.2982052,851.01 80.8212052,852.582 L78.4622052,855.094 L81.8432052,858.582 C83.9692052,860.776 84.6872052,862.084 83.7782052,862.106 C82.9762052,862.126 83.4462052,862.779 84.8322052,863.571 C86.3782052,864.455 86.7602052,865.03 85.8322052,865.077 C85.0072052,865.12 85.9072052,866.017 87.8322052,867.071 C89.7572052,868.125 90.6572052,869.022 89.8322052,869.065 C88.9042052,869.112 89.2862052,869.687 90.8322052,870.571 C92.3702052,871.45 92.7552052,872.027 91.8322052,872.071 C90.8952052,872.115 91.2332052,872.641 92.7332052,873.473 C94.0542052,874.205 94.6092052,874.979 93.9652052,875.193 C93.3222052,875.408 99.7832052,879.068 108.322205,883.327 L123.849205,891.071 L108.590205,870.675 C96.0042052,853.851 92.5832052,849.911 89.0552052,848.175 C83.8962052,845.637 84.5262052,845.646 82.3322052,848.071 M308.832205,862.571 C308.832205,863.396 309.227205,864.071 309.710205,864.071 C310.192205,864.071 311.147205,863.396 311.832205,862.571 C312.872205,861.318 312.728205,861.071 310.954205,861.071 C309.734205,861.071 308.832205,861.709 308.832205,862.571 M310.370205,869.968 L306.409205,871.716 L333.370205,878.433 C348.199205,882.127 361.232205,885.389 362.332205,885.681 C363.615205,886.021 362.539205,884.47 359.332205,881.355 C354.577205,876.737 353.817205,876.386 343.832205,874.2 C331.070205,871.406 326.052205,870.144 323.035205,868.967 C319.603205,867.628 314.814205,868.007 310.370205,869.968 M457.889205,879.17 C447.746205,884.094 439.228205,888.341 438.962205,888.608 C438.148205,889.422 455.123205,945.071 456.186205,945.071 C457.225205,945.071 510.223205,930.426 512.832205,929.418 C513.929205,928.994 513.995205,928.712 513.076205,928.369 C512.385205,928.111 512.066205,927.502 512.367205,927.015 C513.281205,925.536 508.569205,924.905 499.150205,925.247 L490.198205,925.571 L491.931205,918.071 C494.492205,906.988 494.843205,903.789 493.656205,902.359 C492.873205,901.415 492.954205,901.061 493.960205,901.035 C494.714205,901.015 493.982205,899.892 492.332205,898.54 C490.434205,896.984 489.883205,896.067 490.832205,896.043 C491.889205,896.016 491.635205,895.424 489.971205,894.038 C488.035205,892.425 487.920205,892.071 489.332205,892.071 C490.744205,892.071 490.629205,891.717 488.693205,890.104 C487.010205,888.702 486.763205,888.118 487.832205,888.069 C488.753205,888.027 488.367205,887.449 486.832205,886.571 C485.319205,885.706 484.924205,885.122 485.832205,885.091 C487.165205,885.046 487.165205,884.933 485.832205,884.071 C484.499205,883.209 484.499205,883.096 485.832205,883.051 C486.740205,883.02 486.345205,882.436 484.832205,881.571 C483.457205,880.785 482.980205,880.126 483.773205,880.106 C484.813205,880.081 484.674205,879.663 483.273205,878.603 C481.781205,877.475 481.679205,877.119 482.832205,877.067 C483.752205,877.026 483.366205,876.448 481.832205,875.571 C480.294205,874.692 479.909205,874.115 480.832205,874.071 C481.769205,874.027 481.431205,873.501 479.931205,872.669 C478.174205,871.696 477.905205,871.19 478.931205,870.784 C479.830205,870.427 479.616205,870.227 478.332205,870.221998 C477.232205,870.219 468.033205,874.245 457.889205,879.17 M145.101205,958.764 C146.074205,959.018 147.424205,959.001 148.101205,958.727 C148.778205,958.453 147.982205,958.246 146.332205,958.266 C144.682205,958.286 144.128205,958.51 145.101205,958.764 M523.456205,962.61 C522.491205,965.124 522.775205,965.773 523.954205,963.746 C524.538205,962.742 524.805205,961.71 524.547205,961.453 C524.290205,961.195 523.798205,961.716 523.456205,962.61 M519.826205,971.833 C518.525205,974.989 516.925205,978.021 516.269205,978.571 C515.614205,979.121 513.854205,981.709 512.360205,984.321 C510.017205,988.416 509.878205,989.071 511.356205,989.071 C512.792205,989.071 512.637205,989.638 510.400205,992.571 C508.137205,995.538 507.995205,996.071 509.468205,996.071 C510.893205,996.071 510.722205,996.576 508.519205,998.876 C505.564205,1001.96 505.182205,1003.074 507.082205,1003.06505 C508.385205,1003.058 509.408205,1001.491 516.219205,989.071 C519.230205,983.58 520.632205,979.562 521.453205,974.071 C522.070205,969.946 522.488205,966.464 522.382205,966.333 C522.276205,966.203 521.126205,968.678 519.826205,971.833 M505.832205,1005.071 C504.931205,1005.653 504.807205,1006.046 505.523205,1006.056 C506.178205,1006.064 506.992205,1005.621 507.332205,1005.071 C508.099205,1003.829 507.753205,1003.829 505.832205,1005.071 M450.144205,1010.08 C452.373205,1011.507 469.038205,1017.198 469.535205,1016.702 C469.830205,1016.407 458.368205,1012.145 450.332205,1009.563 C448.479205,1008.967 448.465205,1009.005 450.144205,1010.08"/></g></svg>