<svg xmlns="http://www.w3.org/2000/svg" width="377.139" height="991.302" viewBox="0 0 377.139 991.302"><g fill="#ABABAB" fill-rule="evenodd"><path fill-opacity=".306" d="M235.957272,9.19468404 L216.154272,18.289684 L184.019272,51.180684 L151.884272,84.071684 L136.582272,139.252684 C128.165272,169.601684 121.275272,195.209684 121.270272,196.160684 C121.262272,197.760684 135.821272,238.825684 136.713272,239.717684 C136.933272,239.937684 143.002272,231.300684 150.199272,220.524684 C157.397272,209.749684 163.434272,200.932684 163.615272,200.932684 C163.797272,200.932684 162.965272,206.670684 161.768272,213.682684 L159.592272,226.432684 L142.707272,260.134684 L125.823272,293.836684 L119.965272,278.141684 C116.743272,269.508684 113.993272,262.331684 113.853272,262.191684 C113.714272,262.051684 110.068272,273.298684 105.752272,287.184684 C101.436272,301.071684 97.5832725,312.811684 97.1902725,313.275684 C96.7972725,313.739684 92.5552725,312.923684 87.7652725,311.462684 C82.9742725,310.000684 78.8602725,309.000684 78.6212725,309.238684 C78.3832725,309.477684 80.1982725,315.207684 82.6552725,321.972684 L87.1222725,334.273684 L81.9632725,353.263684 L76.8042725,372.254684 L69.2832725,375.600684 C65.1462725,377.441684 60.0142725,379.755684 57.8792725,380.743684 L53.9982725,382.540684 L62.3792725,389.412684 C66.9892725,393.191684 71.3582725,396.817684 72.0872725,397.470684 C73.1682725,398.437684 72.0782725,401.310684 66.1802725,413.044684 C62.2022725,420.957684 58.6812725,428.622684 58.3542725,430.076684 L57.7612725,432.721684 L50.7612725,429.879684 C46.9112725,428.316684 43.2622725,427.013684 42.6532725,426.984684 C42.0432725,426.956684 38.9202725,433.738684 35.7132725,442.057684 C29.3032725,458.681684 29.2702725,457.304684 36.1742725,461.128684 C38.5422725,462.440684 39.0692725,463.253684 38.4992725,464.714684 C38.0932725,465.754684 35.0842725,472.640684 31.8112725,480.018684 L25.8612725,493.433684 L13.4812725,503.432684 C6.67127248,508.932684 0.658272475,513.962684 0.117272475,514.611684 C-1.42072752,516.456684 12.4872725,526.312684 23.1662725,530.944684 C28.2232725,533.137684 32.7302725,534.932684 33.1822725,534.932684 C33.6332725,534.932684 34.8282725,528.783684 35.8382725,521.267684 L37.6742725,507.602684 L49.7822725,490.461684 C56.4422725,481.034684 61.7292725,472.837684 61.5322725,472.246684 C61.3352725,471.655684 63.2092725,469.883684 65.6962725,468.310684 C68.1842725,466.736684 70.7422725,464.184684 71.3832725,462.638684 C72.1302725,460.834684 73.0622725,460.025684 73.9862725,460.380684 C74.7772725,460.684684 76.4412725,460.932684 77.6822725,460.932684 C79.0882725,460.932684 80.3482725,461.828684 81.0222725,463.307684 C81.9622725,465.371684 84.1442725,466.186684 97.6582725,469.519684 L113.212272,473.355684 L125.048272,469.501684 L136.883272,465.648684 L138.632272,447.564684 C140.282272,430.504684 140.690272,428.009684 141.665272,429.015684 C142.427272,429.802684 161.264272,525.432684 161.263272,528.508684 C161.262272,530.465684 160.383272,532.408684 158.845272,533.853684 C157.278272,535.325684 155.823272,538.599684 154.702272,543.173684 C153.752272,547.051684 149.391272,558.146684 145.012272,567.828684 L137.050272,585.432684 L134.813272,634.932684 L132.575272,684.432684 L128.202272,696.594684 L123.828272,708.755684 L117.044272,712.037684 C113.314272,713.842684 110.261272,715.637684 110.261272,716.026684 C110.261272,716.416684 112.815272,722.448684 115.937272,729.432684 C121.223272,741.256684 121.893272,742.265684 125.687272,744.107684 L129.761272,746.086684 L127.635272,811.259684 L125.509272,876.432684 L121.825272,888.432684 C119.799272,895.032684 115.366272,906.744684 111.975272,914.458684 L105.809272,928.485684 L86.5352725,942.248684 C73.9132725,951.261684 67.2892725,956.602684 67.3412725,957.722684 C67.3852725,958.662684 68.1732725,962.113684 69.0912725,965.389684 L70.7612725,971.346684 L86.1132725,981.323684 L101.466272,991.301684 L129.187272,977.469684 L156.908272,963.637684 L160.927272,951.495684 L164.946272,939.353684 L159.150272,932.392684 C155.963272,928.564684 153.333272,924.794684 153.308272,924.014684 C153.282272,923.233684 156.827272,909.733684 161.185272,894.014684 L169.108272,865.432684 L190.435272,817.432684 L211.761272,769.432684 L205.855272,752.013684 L199.949272,734.595684 L202.056272,725.513684 C203.215272,720.519684 204.443272,713.057684 204.784272,708.932684 C205.755272,697.189684 205.020272,697.932684 215.662272,697.932684 C220.758272,697.932684 225.133272,698.137684 225.384272,698.388684 C225.635272,698.639684 224.954272,704.946684 223.871272,712.404684 C221.961272,725.561684 221.955272,726.192684 223.689272,733.697684 C225.188272,740.191684 226.132272,742.114684 229.576272,745.682684 C231.832272,748.019684 234.596272,749.939684 235.719272,749.948684 C237.548272,749.962684 239.167272,754.773684 251.261272,796.162684 C263.021272,836.404684 265.280272,845.329684 268.784272,865.396684 L272.807272,888.432684 L264.999272,905.932684 C257.849272,921.958684 254.261272,931.483684 254.261272,934.439684 C254.261272,935.209684 261.615272,936.183684 276.764272,937.421684 C289.140272,938.432684 299.462272,939.064684 299.701272,938.826684 C299.940272,938.587684 304.335272,929.625684 309.469272,918.912684 L318.802272,899.432684 L317.217272,887.432684 C316.223272,879.901684 314.859272,873.942684 313.557272,871.432684 C312.415272,869.232684 307.956272,856.482684 303.647272,843.099684 L295.814272,818.766684 L305.832272,768.599684 L315.849272,718.432684 L313.548272,716.432684 C311.393272,714.560684 310.990272,712.188684 307.264272,679.432684 C305.074272,660.182684 302.603272,640.607684 301.773272,635.932684 C300.943272,631.257684 300.266272,627.207684 300.269272,626.932684 C300.272272,626.657684 301.165272,627.782684 302.255272,629.432684 C303.344272,631.082684 305.008272,632.433684 305.953272,632.435684 C307.315272,632.437684 308.044272,634.301684 309.473272,641.435684 C310.465272,646.383684 311.418272,650.868684 311.592272,651.401684 C311.765272,651.935684 314.545272,647.951684 317.769272,642.549684 C322.638272,634.388684 324.333272,632.385684 327.789272,630.706684 C331.925272,628.697684 331.943272,628.664684 331.164272,624.559684 C330.372272,620.382684 331.719272,617.932684 334.807272,617.932684 C335.507272,617.932684 333.834272,611.929684 330.616272,602.887684 C327.671272,594.613684 325.282272,586.625684 325.307272,585.137684 C325.333272,583.649684 326.801272,574.565684 328.570272,564.949684 L331.785272,547.465684 L343.817272,545.449684 L355.849272,543.432684 L348.055272,536.546684 C343.768272,532.759684 340.271272,529.159684 340.283272,528.546684 C340.295272,527.933684 341.133272,525.610684 342.144272,523.383684 L343.983272,519.334684 L359.872272,517.506684 C368.611272,516.500684 376.211272,515.258684 376.761272,514.746684 C377.402272,514.148684 377.222272,514.003684 376.261272,514.341684 C375.382272,514.650684 368.359272,510.432684 359.292272,504.150684 L343.822272,493.432684 L337.927272,477.932684 C332.678272,464.130684 331.887272,461.063684 330.700272,449.932684 C328.727272,431.420684 328.631272,432.211684 333.011272,430.832684 C336.224272,429.821684 338.416272,427.417684 348.316272,414.045684 L359.871272,398.438684 L344.316272,378.864684 L328.761272,359.289684 L319.346272,357.474684 C310.167272,355.704684 298.288272,355.703684 279.761272,357.471684 C274.841272,357.940684 274.813272,357.927684 278.042272,356.674684 L281.323272,355.401684 L273.623272,351.591684 L265.923272,347.781684 L262.198272,349.461684 C258.536272,351.112684 258.394272,351.094684 253.867272,348.441684 C251.334272,346.957684 249.261272,345.434684 249.261272,345.058684 C249.261272,344.682684 252.074272,341.586684 255.513272,338.178684 L261.764272,331.982684 L257.806272,292.207684 L253.847272,252.432684 L240.375272,244.432684 C222.934272,234.075684 221.268272,233.182684 218.151272,232.519684 C215.961272,232.054684 215.099272,230.753684 212.801272,224.452684 L210.061272,216.940684 L213.003272,213.272684 L215.945272,209.605684 L214.060272,204.645684 C213.023272,201.917684 212.359272,199.501684 212.584272,199.276684 C212.808272,199.052684 215.034272,199.414684 217.529272,200.081684 C221.457272,201.132684 224.751272,200.908684 242.029272,198.416684 L261.992272,195.537684 L258.126272,184.031684 L254.261272,172.526684 L254.229272,145.479684 L254.198272,118.432684 L249.939272,115.851684 C245.949272,113.433684 245.561272,112.790684 243.791272,105.686684 L241.903272,98.102684 L245.684272,71.267684 C247.764272,56.508684 251.215272,34.982684 253.353272,23.432684 C257.518272,0.934684039 257.659272,-0.111315961 256.511272,0.00737210289 C256.098272,0.0616840393 246.849272,4.19168404 235.957272,9.19468404 M195.972272,209.682684 C189.501272,222.853684 189.369272,223.263684 192.844272,219.432684 C201.461272,209.931684 203.261272,207.245684 203.296272,203.829684 C203.329272,200.690684 203.424272,200.589684 204.546272,202.502684 C205.735272,204.527684 205.821272,204.502684 208.521272,201.353684 L211.281272,198.135684 L208.122272,197.033684 C206.384272,196.428684 204.459272,195.932684 203.845272,195.932684 C203.230272,195.932684 199.687272,202.120684 195.972272,209.682684 M159.894272,291.911684 C158.446272,294.099684 157.283272,296.461684 157.310272,297.161684 C157.336272,297.860684 158.889272,301.357684 160.761272,304.932684 L164.164272,311.432684 L164.212272,299.682684 C164.239272,293.220684 163.871272,287.932684 163.394272,287.932684 C162.917272,287.932684 161.342272,289.722684 159.894272,291.911684 M168.261272,299.695684 C168.261272,300.740684 175.174272,310.932684 175.883272,310.932684 C176.196272,310.932684 177.788272,310.144684 179.420272,309.182684 C182.077272,307.615684 182.319272,307.067684 181.733272,303.940684 C181.374272,302.019684 180.869272,300.106684 180.611272,299.690684 C179.998272,298.697684 168.261272,298.702684 168.261272,299.695684 M150.511272,306.697684 C146.923272,312.509684 146.563272,313.932684 148.679272,313.932684 C149.459272,313.932684 150.782272,314.195684 151.618272,314.516684 C153.395272,315.198684 154.617272,310.422684 154.088272,304.865684 L153.761272,301.432684 L150.511272,306.697684 M202.002272,309.153684 L208.224272,315.375684 L212.272272,311.422684 L216.320272,307.469684 L209.596272,305.200684 C205.897272,303.953684 201.276272,302.932684 199.326272,302.932684 L195.781272,302.932684 L202.002272,309.153684 M164.296272,315.075684 C164.277272,316.529684 164.936272,317.977684 165.761272,318.294684 C167.611272,319.003684 167.611272,318.167684 165.761272,314.932684 L164.332272,312.432684 L164.296272,315.075684 M282.340272,514.515684 C282.388272,515.680684 282.625272,515.917684 282.944272,515.120684 C283.233272,514.398684 283.197272,513.535684 282.865272,513.203684 C282.533272,512.871684 282.297272,513.461684 282.340272,514.515684 M283.419272,519.932684 C283.419272,521.307684 283.646272,521.870684 283.923272,521.182684 C284.201272,520.495684 284.201272,519.370684 283.923272,518.682684 C283.646272,517.995684 283.419272,518.557684 283.419272,519.932684 M284.484272,527.932684 C284.769272,528.757684 285.823272,535.004684 286.827272,541.813684 C288.125272,550.614684 289.199272,554.807684 290.541272,556.313684 C291.821272,557.751684 292.271272,557.921684 291.938272,556.842684 C291.668272,555.968684 290.240272,549.218684 288.764272,541.842684 C287.288272,534.467684 285.605272,527.982684 285.024272,527.432684 C284.300272,526.748684 284.130272,526.905684 284.484272,527.932684 M297.434272,590.432684 C297.416272,593.732684 297.753272,597.332684 298.183272,598.432684 L298.965272,600.432684 L299.561272,598.432684 C299.889272,597.332684 299.552272,593.732684 298.812272,590.432684 L297.466272,584.432684 L297.434272,590.432684"/><path fill-opacity=".079" d="M207.772272,113.295684 L187.784272,122.502684 L177.938272,149.467684 C168.103272,176.399684 168.086272,176.462684 163.845272,201.432684 L159.598272,226.432684 L139.917272,265.701684 L120.237272,304.971684 L117.156272,303.378684 C115.461272,302.501684 113.943272,301.930684 113.781272,302.108684 C113.619272,302.286684 112.555272,305.751684 111.416272,309.807684 C110.276272,313.863684 109.190272,317.336684 109.001272,317.525684 C108.812272,317.714684 105.958272,317.051684 102.659272,316.053684 L96.6612725,314.237684 L93.3592725,319.227684 L90.0572725,324.217684 L95.4092725,323.526684 C98.3532725,323.147684 102.429272,322.578684 104.468272,322.263684 L108.175272,321.690684 L106.155272,329.061684 C105.044272,333.115684 102.242272,340.426684 99.9292725,345.307684 L95.7222725,354.182684 L92.7992725,339.307684 L89.8762725,324.432684 L88.4752725,329.307684 C87.1032725,334.082684 87.1552725,334.404684 90.9962725,344.931684 L94.9192725,355.679684 L92.0422725,361.369684 C89.4252725,366.545684 88.5902725,367.317684 82.8032725,369.913684 C76.4692725,372.755684 76.4362725,372.791684 75.2102725,378.270684 C74.0782725,383.328684 74.1432725,383.999684 76.0162725,386.570684 L78.0532725,389.367684 L68.1572725,409.140684 C60.1682725,425.103684 58.2612725,429.753684 58.2612725,433.271684 C58.2612725,437.387684 58.4822725,437.728684 62.2612725,439.432684 C66.8202725,441.488684 67.0432725,441.963684 64.2612725,443.700684 C62.6042725,444.735684 62.2612725,446.032684 62.2612725,451.269684 L62.2612725,457.589684 L67.4112725,458.777684 C70.2432725,459.431684 72.6642725,459.846684 72.7902725,459.699684 C72.9172725,459.552684 74.1542725,457.175684 75.5392725,454.416684 C78.0162725,449.483684 78.0272725,449.361684 76.1892725,447.091684 C74.3312725,444.797684 74.3532725,444.715684 79.7062725,434.107684 C82.6692725,428.236684 86.4062725,421.059684 88.0112725,418.159684 L90.9292725,412.887684 L94.5082725,415.731684 C96.4762725,417.295684 100.494272,419.113684 103.436272,419.772684 L108.786272,420.969684 L110.918272,428.579684 L113.050272,436.189684 L103.484272,446.811684 L93.9172725,457.432684 L103.558272,447.982684 L113.200272,438.532684 L122.067272,440.232684 C126.943272,441.167684 131.461272,441.932684 132.107272,441.932684 C132.752272,441.932684 134.722272,439.007684 136.485272,435.432684 C138.248272,431.857684 140.202272,428.932684 140.828272,428.932684 C141.528272,428.932684 145.669272,447.453684 151.613272,477.182684 L161.262272,525.432684 L161.261272,563.550684 L161.261272,601.667684 L168.761272,604.531684 C172.886272,606.106684 176.261272,607.632684 176.261272,607.923684 C176.261272,608.213684 175.351272,609.019684 174.238272,609.714684 C172.554272,610.766684 172.118272,610.723684 171.631272,609.455684 C170.988272,607.779684 167.261272,607.333684 167.261272,608.932684 C167.261272,609.482684 166.586272,609.932684 165.761272,609.932684 C164.936272,609.932684 164.261272,610.607684 164.261272,611.432684 C164.261272,612.257684 164.936272,612.932684 165.761272,612.932684 C167.636272,612.932684 167.636272,615.652684 165.761272,618.932684 C163.899272,622.190684 163.919272,622.932684 165.868272,622.932684 C166.900272,622.932684 167.258272,623.469684 166.868272,624.432684 C166.534272,625.257684 165.988272,626.607684 165.654272,627.432684 C165.264272,628.395684 165.622272,628.932684 166.654272,628.932684 C168.649272,628.932684 168.650272,629.280684 166.667272,633.114684 C165.676272,635.031684 165.447272,636.431684 166.061272,636.815684 C166.620272,637.164684 166.987272,641.671684 166.906272,647.183684 C166.775272,656.018684 166.933272,656.933684 168.592272,656.933684 C170.321272,656.932684 170.404272,658.164684 170.092272,679.182684 C169.845272,695.767684 169.443272,701.562684 168.513272,701.944684 C167.735272,702.264684 171.135272,706.952684 177.538272,714.389684 L187.810272,726.320684 L170.425272,742.297684 L153.040272,758.274684 L143.535272,753.552684 C138.307272,750.955684 133.915272,748.966684 133.774272,749.131684 C133.634272,749.297684 133.202272,761.019684 132.813272,775.182684 C132.108272,800.866684 132.112272,800.932684 134.198272,800.932684 C136.248272,800.932684 136.279272,801.218684 135.746272,815.182684 C135.447272,823.019684 134.986272,831.795684 134.723272,834.682684 C134.337272,838.907684 134.538272,839.932684 135.752272,839.932684 C136.582272,839.932684 137.250272,840.495684 137.237272,841.182684 C137.211272,842.507684 135.548272,850.239684 134.656272,853.182684 C134.270272,854.459684 134.690272,854.932684 136.213272,854.932684 C138.435272,854.932684 138.434272,855.101684 136.170272,863.932684 C134.904272,868.867684 135.032272,869.932684 136.889272,869.932684 C138.228272,869.932684 138.403272,870.642684 137.877272,873.932684 C137.290272,877.605684 137.422272,877.934684 139.499272,877.952713 C140.743272,877.962684 147.836272,875.396684 155.261272,872.250684 L168.761272,866.528684 L190.261272,817.980684 L211.761272,769.432684 L205.864272,752.041684 L199.967272,734.649684 L202.123272,725.041684 C203.308272,719.756684 205.649272,701.932684 207.324272,685.432684 C208.999272,668.932684 210.617272,654.307684 210.920272,652.932684 C211.309272,651.164684 213.460272,657.168684 218.265272,673.432684 C222.002272,686.082684 226.870272,701.607684 229.084272,707.932684 C233.095272,719.394684 233.109272,719.415684 233.184272,714.432684 C233.225272,711.682684 232.390272,690.757684 231.327272,667.932684 C230.265272,645.107684 229.098272,615.970684 228.735272,603.182684 C228.075272,579.938684 228.076272,579.932684 230.199272,579.932684 C231.368272,579.932684 232.525272,580.495684 232.771272,581.182684 C234.484272,585.964684 242.091272,711.188684 242.240272,737.056684 L242.261272,740.681684 L252.331272,745.056684 L262.401272,749.432684 L252.331272,749.717684 C246.793272,749.874684 242.261272,750.221684 242.261272,750.489684 C242.261272,750.757684 244.066272,754.566684 246.272272,758.954684 C249.410272,765.195684 249.940272,766.932684 248.705272,766.932684 C246.669272,766.932684 247.356272,769.139684 251.883272,777.148684 C253.782272,780.508684 257.187272,789.484684 259.450272,797.095684 C263.015272,809.090684 263.842272,810.941684 265.662272,811.002684 C267.720272,811.071684 267.722272,811.089684 265.761272,811.932684 C263.853272,812.752684 263.864272,812.795684 266.011272,812.862684 C268.672272,812.945684 269.017272,814.588684 266.511272,815.243684 C265.112272,815.608684 265.185272,815.723684 266.874272,815.816684 C268.699272,815.916684 269.495272,817.674684 272.701272,828.682684 C274.743272,835.695684 277.140272,841.995684 278.028272,842.682684 C279.348272,843.703684 279.380272,843.953684 278.202272,844.047684 C276.385272,844.192684 284.018272,845.797684 286.894272,845.874684 C288.818272,845.926684 289.382272,844.493684 292.668272,831.182684 C294.672272,823.070684 300.706272,794.382684 306.079272,767.432684 L315.847272,718.432684 L303.554272,708.016684 C296.793272,702.287684 291.261272,697.324684 291.261272,696.987684 C291.261272,696.650684 294.081272,693.579684 297.528272,690.163684 L303.794272,683.952684 L302.157272,660.192684 C301.257272,647.124684 300.244272,632.157684 299.906272,626.932684 C297.806272,594.427684 297.040272,585.963684 295.035272,573.070684 L292.801272,558.708684 L285.031272,551.146684 C277.363272,543.685684 277.261272,543.518684 277.242272,538.509684 C277.218272,532.257684 281.427272,506.932684 282.489272,506.932684 C282.914272,506.932684 283.261272,508.533684 283.261272,510.489684 C283.261272,512.446684 283.787272,517.231684 284.430272,521.123684 L285.598272,528.199684 L293.246272,533.815684 L300.894272,539.432684 L302.740272,560.818684 C304.403272,580.087684 304.773272,582.253684 306.475272,582.698684 C308.307272,583.177684 308.304272,583.258684 306.362272,585.325684 C305.260272,586.497684 303.419272,589.581684 302.270272,592.178684 L300.182272,596.899684 L303.808272,614.165684 C305.803272,623.662684 307.508272,631.507684 307.598272,631.599684 C307.688272,631.690684 310.686272,629.985684 314.261272,627.809684 C317.836272,625.634684 322.935272,622.900684 325.593272,621.734684 C330.142272,619.739684 330.391272,619.435684 329.861272,616.524684 C329.551272,614.823684 325.678272,590.932684 321.255272,563.432684 C314.591272,522.006684 312.250272,509.831684 307.598272,492.432684 C304.511272,480.882684 301.633272,471.041684 301.204272,470.563684 C300.775272,470.086684 297.353272,472.189684 293.599272,475.237684 C289.846272,478.285684 286.706272,480.701684 286.623272,480.606684 C286.539272,480.510684 287.445272,474.897684 288.636272,468.132684 L290.802272,455.832684 L295.648272,462.432684 C298.313272,466.062684 300.633272,468.894684 300.802272,468.724684 C300.971272,468.555684 299.810272,463.695684 298.221272,457.924684 C294.622272,444.852684 294.585272,443.932684 297.667272,443.932684 C299.581272,443.932684 299.967272,444.341684 299.551272,445.932684 C299.176272,447.364684 299.520272,447.932684 300.761272,447.932684 C302.002272,447.932684 302.346272,448.500684 301.971272,449.932684 C301.602272,451.342684 301.941272,451.932684 303.117272,451.932684 C304.036272,451.932684 305.231272,452.944684 305.774272,454.182684 C306.394272,455.596684 307.812272,456.552684 309.590272,456.756684 C311.556272,456.981684 312.251272,457.515684 311.871272,458.506684 C311.536272,459.380684 311.952272,459.932684 312.947272,459.932684 C314.383272,459.932684 314.362272,460.163684 312.761272,461.932684 C311.014272,463.862684 311.014272,463.932684 312.761272,463.932684 C314.508272,463.932684 314.508272,464.002684 312.761272,465.932684 C311.011272,467.865684 311.014272,467.933684 312.856272,467.964684 C314.668272,467.994684 314.674272,468.062684 312.982272,469.346684 C310.781272,471.015684 311.738272,471.473684 319.432272,472.434684 L324.916272,473.119684 L328.342272,467.276684 L331.769272,461.432684 L330.616272,449.932684 C328.764272,431.454684 328.670272,432.198684 333.011272,430.832684 C336.224272,429.821684 338.417272,427.415684 348.326272,414.032684 L359.891272,398.412684 L347.428272,382.922684 C338.482272,371.804684 335.168272,368.279684 335.684272,370.432684 C336.080272,372.082684 337.581272,374.670684 339.019272,376.182684 C341.294272,378.573684 341.395272,378.932684 339.793272,378.932684 C338.072272,378.932684 338.060272,379.052684 339.606272,380.761684 C341.877272,383.270684 341.775272,386.932684 339.434272,386.932684 C338.037272,386.932684 337.676272,387.579684 337.900272,389.682684 C338.060272,391.194684 338.357272,395.019684 338.559272,398.182684 C338.888272,403.337684 338.724272,403.932684 336.980272,403.932684 C335.201272,403.932684 335.069272,404.529684 335.431272,410.932684 C335.648272,414.782684 335.418272,417.932684 334.919272,417.932684 C334.419272,417.932684 334.281272,419.282684 334.611272,420.932684 C335.016272,422.956684 334.812272,423.937684 333.986272,423.947684 C333.118272,423.958684 333.157272,424.213684 334.118272,424.822684 C335.585272,425.752684 335.009272,426.317684 331.057272,427.819684 L328.565272,428.767684 L326.752272,407.833684 C325.083272,388.557684 324.814272,387.040684 323.350272,388.666684 C322.476272,389.637684 321.145272,391.628684 320.392272,393.089684 C319.639272,394.550684 315.014272,400.738684 310.116272,406.839684 C302.624272,416.170684 300.767272,417.932684 298.427272,417.932684 C295.930272,417.932684 295.382272,417.262684 293.080272,411.405684 L290.515272,404.877684 L292.796272,403.083684 C294.050272,402.097684 298.950272,399.792684 303.686272,397.961684 C308.421272,396.131684 312.134272,394.471684 311.936272,394.274684 C311.739272,394.077684 306.714272,395.742684 300.770272,397.974684 C290.482272,401.839684 287.955272,402.063684 287.700272,399.132684 C287.667272,398.747684 286.957272,396.857684 286.123272,394.932684 C285.289272,393.007684 282.846272,386.932684 280.693272,381.432684 C278.540272,375.932684 275.067272,368.966684 272.975272,365.952684 C269.461272,360.890684 269.303272,360.374684 270.907272,359.202684 C272.471272,358.058684 272.382272,357.932684 270.002272,357.932684 C268.549272,357.932684 267.001272,357.347684 266.561272,356.632684 C266.121272,355.917684 262.049272,353.175684 257.511272,350.537684 C252.974272,347.900684 249.261272,345.434684 249.261272,345.058684 C249.261272,344.682684 252.074272,341.586684 255.513272,338.178684 L261.764272,331.982684 L257.806272,292.207684 L253.847272,252.432684 L240.375272,244.432684 C222.934272,234.075684 221.268272,233.182684 218.151272,232.519684 C215.962272,232.054684 215.099272,230.754684 212.805272,224.463684 L210.069272,216.962684 L212.973272,213.197684 L215.877272,209.432684 L213.752272,203.592684 L211.627272,197.751684 L208.556272,201.249684 C205.547272,204.676684 205.463272,204.703684 204.440272,202.590684 C203.492272,200.629684 203.390272,200.742684 203.329272,203.829684 C203.261272,207.237684 201.388272,210.023684 192.838272,219.432684 C189.430272,223.182684 189.667272,222.494684 196.613272,208.432684 L204.022272,193.432684 L198.478272,190.986684 C195.429272,189.641684 193.432272,188.375684 194.040272,188.172684 C195.482272,187.692684 211.461272,194.660684 212.761272,196.336684 C214.160272,198.140684 219.804272,200.939684 221.961272,200.899684 C223.512272,200.870684 223.434272,200.593684 221.400272,198.899684 C219.976272,197.713684 219.580272,196.923684 220.400272,196.910684 C221.174272,196.897684 220.682272,196.044684 219.261272,194.932684 C217.689272,193.702684 217.296272,192.968684 218.202272,192.954684 C219.238272,192.938684 219.097272,192.519684 217.702272,191.464684 C216.303272,190.405684 216.163272,189.987684 217.202272,189.964684 C218.241272,189.941684 218.102272,189.522684 216.702272,188.464684 C215.290272,187.396684 215.156272,186.987684 216.211272,186.964684 C217.339272,186.939684 217.394272,186.665684 216.461272,185.732684 C215.801272,185.072684 215.261272,183.722684 215.261272,182.732684 C215.261272,181.742684 214.825272,180.932684 214.292272,180.932684 C213.760272,180.932684 213.583272,180.257684 213.899272,179.432684 C214.297272,178.395684 213.833272,177.932684 212.393272,177.932684 C210.585272,177.932684 210.436272,177.603684 211.261272,175.432684 C212.078272,173.283684 211.931272,172.932684 210.217272,172.932684 C208.589272,172.932684 208.338272,172.473684 208.850272,170.432684 C209.337272,168.492684 209.093272,167.932684 207.761272,167.932684 C206.402272,167.932684 206.183272,167.378684 206.711272,165.277684 C207.081272,163.801684 206.926272,162.343684 206.362272,161.994684 C205.710272,161.591684 206.501272,156.366684 208.572272,147.399684 L211.798272,133.432684 L230.813272,129.932684 L249.828272,126.432684 L247.932272,120.097684 C246.076272,113.894684 245.878272,113.661684 238.399272,108.865684 C234.198272,106.171684 230.086272,103.995684 229.261272,104.028314 C228.436272,104.061684 218.766272,108.232684 207.772272,113.295684 M200.340272,236.747684 L200.261272,244.062684 L204.240272,241.247684 C208.598272,238.163684 209.419272,235.932684 206.194272,235.932684 C204.581272,235.932684 204.266272,235.492684 204.761272,233.932684 C205.250272,232.391684 204.941272,231.932684 203.412272,231.932684 C202.320272,231.932684 201.201272,231.370684 200.923272,230.682684 C200.646272,229.995684 200.383272,232.724684 200.340272,236.747684 M159.894272,291.911684 C158.446272,294.099684 157.283272,296.461684 157.310272,297.161684 C157.336272,297.860684 158.889272,301.357684 160.761272,304.932684 L164.164272,311.432684 L164.212272,299.682684 C164.239272,293.220684 163.871272,287.932684 163.394272,287.932684 C162.917272,287.932684 161.342272,289.722684 159.894272,291.911684 M168.261272,299.695684 C168.261272,300.740684 175.174272,310.932684 175.883272,310.932684 C176.196272,310.932684 177.788272,310.144684 179.420272,309.182684 C182.077272,307.615684 182.319272,307.067684 181.733272,303.940684 C181.374272,302.019684 180.869272,300.106684 180.611272,299.690684 C179.998272,298.697684 168.261272,298.702684 168.261272,299.695684 M139.139272,324.674684 C120.713272,353.819684 98.2612725,396.591684 98.2612725,402.550684 C98.2612725,406.532684 98.3862725,406.691684 101.987272,407.275684 C104.037272,407.608684 106.016272,407.554684 106.385272,407.156684 C106.754272,406.758684 108.289272,402.045684 109.795272,396.682684 C111.302272,391.319684 112.858272,386.932684 113.254272,386.932684 C113.650272,386.932684 120.568272,389.407684 128.627272,392.432684 C136.686272,395.457684 143.698272,397.932684 144.209272,397.932684 C144.720272,397.932684 148.492272,393.095684 152.590272,387.182684 C164.299272,370.293684 165.295272,370.338684 157.783272,387.419684 C154.194272,395.582684 151.426272,402.430684 151.633272,402.638684 C151.841272,402.845684 155.246272,397.499684 159.201272,390.757684 L166.391272,378.500684 L165.254272,371.970684 C164.628272,368.378684 164.251272,361.153684 164.415272,355.913684 L164.713272,346.385684 L158.833272,339.108684 L152.953272,331.830684 L153.600272,316.881684 C153.956272,308.659684 154.083272,301.932684 153.882272,301.932684 C153.682272,301.932684 147.047272,312.166684 139.139272,324.674684 M202.002272,309.153684 L208.224272,315.375684 L212.272272,311.422684 L216.320272,307.469684 L209.596272,305.200684 C205.897272,303.953684 201.276272,302.932684 199.326272,302.932684 L195.781272,302.932684 L202.002272,309.153684 M164.860272,321.432684 C165.213272,326.382684 165.607272,330.554684 165.735272,330.702684 C165.863272,330.851684 166.247272,327.988684 166.587272,324.339684 C167.050272,319.381684 166.830272,317.041684 165.712272,315.069684 C164.331272,312.632684 164.266272,313.114684 164.860272,321.432684 M42.8722725,430.432684 C43.2552725,432.082684 44.1302725,435.232684 44.8162725,437.432684 L46.0632725,441.432684 L46.1622725,437.706684 C46.2202725,435.539684 45.4072725,432.611684 44.2192725,430.706684 L42.1772725,427.432684 L42.8722725,430.432684 M102.804272,455.432684 C102.011272,461.781684 102.576272,461.601684 90.2612725,459.432684 C79.4772725,457.532684 78.1702725,457.532684 78.8992725,459.432684 C79.3282725,460.549684 81.1082725,460.932684 85.8682725,460.932684 C90.7252725,460.932684 92.2612725,461.273684 92.2612725,462.353684 C92.2612725,463.134684 93.6152725,464.070684 95.2702725,464.434684 C96.9252725,464.797684 98.0232725,465.508684 97.7112725,466.013684 C97.3982725,466.519684 98.0702725,466.932684 99.2022725,466.932684 C100.366272,466.932684 101.261272,467.584684 101.261272,468.432684 C101.261272,469.257684 102.123272,469.932684 103.178272,469.932684 C104.232272,469.932684 105.247272,470.390684 105.434272,470.950684 C105.620272,471.510684 108.065272,472.240684 110.865272,472.572684 C115.356272,473.103684 116.219272,472.895684 118.178272,470.803684 C120.275272,468.565684 120.293272,468.415684 118.510272,468.136684 C117.029272,467.904684 116.715272,467.201684 117.054272,464.886684 C117.465272,462.089684 117.300272,461.932684 113.954272,461.932684 C110.840272,461.932684 110.342272,461.575684 109.761272,458.932684 C109.399272,457.282684 108.688272,455.932684 108.182272,455.932684 C107.675272,455.932684 107.261272,454.582684 107.261272,452.932684 C107.261272,450.660684 106.804272,449.932684 105.376272,449.932684 C103.842272,449.932684 103.364272,450.954684 102.804272,455.432684 M33.7022725,475.689684 L25.8442725,493.447684 L13.4722725,503.439684 C6.66727248,508.935684 0.658272475,513.962684 0.117272475,514.611684 C-1.42072752,516.456684 12.4872725,526.312684 23.1662725,530.944684 C28.2232725,533.137684 32.7302725,534.932684 33.1822725,534.932684 C33.6332725,534.932684 34.8282725,528.783684 35.8382725,521.267684 L37.6742725,507.602684 L49.8522725,490.362684 L62.0312725,473.122684 L57.8962725,469.155684 C54.0012725,465.418684 43.5142725,457.932684 42.1742725,457.932684 C41.8362725,457.932684 38.0242725,465.923684 33.7022725,475.689684 M325.419272,479.432684 C325.407272,481.082684 326.206272,490.757684 327.195272,500.932684 L328.993272,519.432684 L329.104272,504.932684 C329.191272,493.595684 328.804272,488.905684 327.328272,483.432684 C326.091272,478.840684 325.434272,477.464684 325.419272,479.432684 M341.261272,521.599684 C341.261272,524.530684 341.439272,524.491684 343.161272,521.182684 C344.131272,519.317684 344.068272,518.932684 342.796272,518.932684 C341.800272,518.932684 341.261272,519.868684 341.261272,521.599684 M329.356272,523.479684 C329.408272,525.653684 329.972272,531.932684 330.608272,537.432684 L331.766272,547.432684 L336.116272,537.432684 C338.508272,531.932684 340.693272,526.870684 340.970272,526.182684 C341.279272,525.418684 340.656272,524.932684 339.368272,524.932684 C338.209272,524.932684 337.261272,525.473684 337.261272,526.135684 C337.261272,526.797684 335.461272,525.580684 333.261272,523.432684 L329.261272,519.526684 L329.356272,523.479684 M196.261272,577.561684 C196.261272,593.536684 196.316272,593.973684 198.205272,592.962684 C199.275272,592.389684 200.420272,591.484684 200.750272,590.949684 C201.081272,590.414684 201.041272,583.702684 200.661272,576.033684 C200.047272,563.622684 199.767272,562.036684 198.116272,561.604684 C196.365272,561.146684 196.261272,562.040684 196.261272,577.561684 M227.631272,564.182684 C227.962272,565.419684 228.240272,569.245684 228.247272,572.682684 C228.260272,578.531684 228.408272,578.932684 230.558272,578.932684 C232.769272,578.932684 232.840272,578.678684 232.438272,572.182684 C232.208272,568.470684 231.650272,565.290684 231.197272,565.117684 C230.744272,564.944684 230.621272,564.157684 230.924272,563.367684 C231.301272,562.385684 230.773272,561.932684 229.251272,561.932684 C227.433272,561.932684 227.138272,562.342684 227.631272,564.182684 M123.720272,708.999684 C123.357272,709.585684 123.275272,710.280684 123.537272,710.542684 C123.799272,710.804684 124.280272,710.324684 124.606272,709.475684 C125.282272,707.713684 124.706272,707.403684 123.720272,708.999684 M279.419272,715.932684 C279.419272,717.307684 279.646272,717.870684 279.923272,717.182684 C280.201272,716.495684 280.201272,715.370684 279.923272,714.682684 C279.646272,713.995684 279.419272,714.557684 279.419272,715.932684 M315.074272,903.615684 C315.795272,903.904684 316.658272,903.868684 316.990272,903.536684 C317.322272,903.204684 316.732272,902.968684 315.678272,903.011684 C314.513272,903.059684 314.276272,903.296684 315.074272,903.615684 M313.261272,907.350684 C313.261272,908.130684 313.005272,909.593684 312.692272,910.600684 C312.379272,911.608684 312.813272,911.307684 313.656272,909.932684 C315.468272,906.980684 315.626272,905.932684 314.261272,905.932684 C313.711272,905.932684 313.261272,906.570684 313.261272,907.350684"/><path fill-opacity=".166" d="M207.772272,113.295684 L187.784272,122.502684 L177.945272,149.467684 C170.423272,170.083684 167.643272,179.109684 166.138272,187.803684 C165.055272,194.056684 164.339272,199.344684 164.548272,199.552684 C164.756272,199.761684 170.616272,197.593684 177.570272,194.736684 L190.213272,189.541684 L196.123272,192.366684 C199.374272,193.920684 202.562272,194.864684 203.207272,194.465684 C203.920272,194.025684 202.096272,192.661684 198.571272,190.998684 L192.761272,188.257684 L196.266272,186.982684 L199.771272,185.708684 L205.774272,159.570684 L211.778272,133.432684 L230.803272,129.932684 L249.828272,126.432684 L247.932272,120.097684 C246.076272,113.894684 245.878272,113.661684 238.399272,108.865684 C234.198272,106.171684 230.086272,103.995684 229.261272,104.028314 C228.436272,104.061684 218.766272,108.232684 207.772272,113.295684 M203.506272,207.182684 C202.955272,207.870684 201.941272,212.932684 201.251272,218.432684 L199.997272,228.432684 L185.898272,236.447684 L171.798272,244.462684 L163.634272,258.947684 L155.471272,273.432684 L154.945272,286.932684 C154.563272,296.740684 154.702272,299.748684 155.453272,297.932684 C156.022272,296.557684 157.130272,293.857684 157.915272,291.932684 C159.533272,287.967684 164.230272,284.911684 164.303272,287.776684 C164.326272,288.687684 165.207272,291.007684 166.261272,292.932684 L168.177272,296.432684 L168.219272,292.575684 C168.254272,289.319684 168.534272,288.823684 170.011272,289.393684 C170.974272,289.764684 173.673272,290.580684 176.011272,291.207684 C179.487272,292.139684 180.261272,292.776684 180.261272,294.705684 C180.261272,298.248684 181.837272,300.514684 185.297272,301.947684 L188.409272,303.236684 L185.257272,305.232684 C182.866272,306.745684 182.241272,307.735684 182.669272,309.330684 C182.980272,310.486684 183.240272,312.220684 183.247272,313.182684 C183.258272,314.580684 184.141272,314.932684 187.632272,314.932684 L192.004272,314.932684 L193.910272,305.190684 C195.448272,297.331684 196.178272,295.379684 197.691272,295.088684 C198.723272,294.889684 199.936272,295.388684 200.389272,296.195684 C200.881272,297.076684 202.146272,297.486684 203.547272,297.218684 C204.921272,296.955684 206.423272,297.422684 207.194272,298.352684 C207.916272,299.221684 209.299272,299.932684 210.269272,299.932684 C211.239272,299.932684 213.321272,300.604684 214.897272,301.426684 C216.472272,302.247684 218.473272,302.922684 219.344272,302.926684 C220.777272,302.931684 220.938272,303.756684 220.344272,308.032684 C220.298272,308.362684 216.436272,311.177684 211.761272,314.288684 C207.086272,317.400684 203.261272,320.617684 203.261272,321.439684 C203.261272,322.265684 202.368272,322.932684 201.261272,322.932684 C199.928272,322.932684 199.261272,323.599684 199.261272,324.932684 C199.261272,326.032684 198.923272,326.926684 198.511272,326.919684 C197.183272,326.896684 172.026272,320.031684 171.560272,319.564684 C171.312272,319.317684 170.285272,316.486684 169.277272,313.273684 L167.443272,307.432684 L167.253272,313.932684 C167.149272,317.507684 166.721272,322.907684 166.303272,325.932684 L165.543272,331.432684 L165.388272,326.932684 C165.129272,319.383684 164.427272,318.054684 160.084272,316.884684 C157.912272,316.300684 155.489272,315.573684 154.698272,315.270684 C153.516272,314.816684 153.261272,316.270684 153.261272,323.464684 L153.261272,332.211684 L158.987272,339.298684 L164.713272,346.385684 L164.415272,355.913684 C164.251272,361.153684 164.627272,368.371684 165.251272,371.953684 L166.385272,378.467684 L158.905272,391.284684 C148.032272,409.915684 147.996272,409.678684 158.169272,386.518684 C165.263272,370.369684 164.155272,370.501684 152.590272,387.182684 C148.492272,393.095684 144.720272,397.932684 144.209272,397.932684 C143.698272,397.932684 136.686272,395.457684 128.627272,392.432684 C120.568272,389.407684 113.650272,386.932684 113.254272,386.932684 C112.858272,386.932684 111.302272,391.319684 109.795272,396.682684 C108.289272,402.045684 106.754272,406.758684 106.385272,407.156684 C106.016272,407.554684 104.037272,407.608684 101.987272,407.275684 C98.3832725,406.690684 98.2612725,406.534684 98.2612725,402.533684 C98.2612725,399.160684 100.815272,393.503684 112.084272,371.914684 C119.686272,357.349684 130.490272,338.232684 136.092272,329.432684 L146.277272,313.432684 L140.019272,311.605684 C136.577272,310.599684 133.258272,309.624684 132.642272,309.436684 C132.027272,309.249684 130.260272,305.632684 128.716272,301.398684 L125.908272,293.700684 L123.062272,299.330684 L120.215272,304.960684 L117.145272,303.372684 C115.457272,302.499684 113.940272,301.930684 113.776272,302.108684 C113.611272,302.286684 111.179272,310.647684 108.371272,320.687684 C103.864272,336.804684 102.146272,341.179684 93.7142725,358.026684 C86.3812725,372.676684 83.8072725,376.972684 82.6302725,376.520684 C81.7872725,376.197684 80.9092725,375.932684 80.6792725,375.932684 C80.4492725,375.932684 80.2612725,374.999684 80.2612725,373.859684 C80.2612725,372.425684 79.7212725,371.887684 78.5112725,372.116684 C77.3152725,372.342684 76.3102725,374.225684 75.3372725,378.065684 C73.9882725,383.383684 74.0232725,383.834684 75.9892725,386.533684 L78.0662725,389.384684 L75.7272725,394.000684 L73.3882725,398.616684 L85.4442725,408.416684 C95.4392725,416.540684 98.4672725,418.459684 103.156272,419.640684 L108.813272,421.065684 L110.932272,428.627684 L113.050272,436.189684 L103.484272,446.811684 L93.9172725,457.432684 L103.558272,447.982684 L113.200272,438.532684 L122.067272,440.232684 C126.943272,441.167684 131.409272,441.932684 131.991272,441.932684 C132.572272,441.932684 134.264272,438.894684 135.750272,435.182684 C138.836272,427.473684 139.829272,426.516684 142.671272,428.507684 C147.341272,431.777684 148.559272,430.760684 159.824272,414.182684 C165.710272,405.519684 170.852272,398.069684 171.250272,397.625684 C171.649272,397.181684 172.947272,399.431684 174.135272,402.625684 L176.296272,408.432684 L168.779272,445.894684 L161.261272,483.356684 L161.261272,542.512684 L161.261272,601.667684 L168.761272,604.531684 C172.886272,606.106684 176.261272,607.740684 176.261272,608.163684 C176.261272,608.586684 175.923272,608.934684 175.511272,608.937684 C175.099272,608.940684 173.460272,609.983684 171.869272,611.256684 L168.978272,613.570684 L181.517272,621.263684 C188.413272,625.494684 194.324272,629.654684 194.651272,630.507684 C194.979272,631.360684 195.666272,631.800684 196.177272,631.484684 C196.689272,631.168684 198.717272,631.859684 200.684272,633.019684 L204.261272,635.130684 L204.261272,666.531684 C204.261272,686.798684 204.616272,697.932684 205.261272,697.932684 C205.811272,697.932684 206.256272,697.370684 206.251272,696.682684 C206.231272,694.247684 210.377272,655.393684 210.920272,652.932684 C211.308272,651.171684 213.458272,657.250684 218.199272,673.508684 C221.900272,686.200684 225.254272,697.112684 225.653272,697.758684 C226.052272,698.404684 227.702272,698.932684 229.320272,698.932684 C232.212272,698.932684 232.261272,698.841684 232.261272,693.530684 C232.261272,690.559684 231.615272,674.247684 230.826272,657.280684 C230.036272,640.314684 229.094272,615.970684 228.733272,603.182684 C228.075272,579.939684 228.076272,579.932684 230.199272,579.932684 C231.368272,579.932684 232.525272,580.495684 232.771272,581.182684 C234.323272,585.519684 240.126272,672.993684 240.234272,693.682684 L240.261272,698.932684 L253.188272,698.932684 C264.658272,698.932684 266.166272,699.129684 266.572272,700.682684 C267.007272,702.349684 267.035272,702.349684 267.145272,700.682684 C267.209272,699.720684 267.697272,698.932684 268.230272,698.932684 C268.762272,698.932684 268.911272,699.681684 268.560272,700.596684 C268.161272,701.636684 268.319272,702.014684 268.982272,701.605684 C271.033272,700.337684 273.422272,706.024684 273.990272,713.525684 C274.461272,719.765684 274.308272,720.932684 273.012272,720.932684 C272.167272,720.932684 271.282272,721.495684 271.045272,722.182684 C270.465272,723.871684 270.914272,730.020684 271.777272,732.182684 C272.191272,733.220684 272.021272,733.932684 271.360272,733.932684 C270.563272,733.932684 270.583272,734.474684 271.428272,735.828684 C272.385272,737.361684 272.291272,738.045684 270.937272,739.399684 C269.369272,740.967684 269.261272,740.844684 269.261272,737.503684 C269.261272,734.995684 268.814272,733.932684 267.761272,733.932684 C266.936272,733.932684 266.374272,734.495684 266.511272,735.182684 C266.650272,735.875684 265.583272,736.568684 264.115272,736.738684 C262.660272,736.907684 260.677272,737.919684 259.710272,738.988684 C258.743272,740.057684 257.191272,740.932684 256.261272,740.932684 C255.331272,740.932684 253.822272,741.759684 252.908272,742.770684 C251.320272,744.524684 251.622272,744.776684 259.503272,748.278684 C269.000272,752.499684 268.845272,752.480684 275.923272,750.249684 C280.955272,748.663684 281.261272,748.377684 281.261272,745.268684 C281.261272,743.454684 282.723272,739.006684 284.509272,735.383684 C287.202272,729.922684 287.847272,729.179684 288.285272,731.034684 C288.744272,732.978684 289.772272,732.069684 296.126272,724.102684 C300.148272,719.058684 303.871272,714.932684 304.399272,714.932684 C304.928272,714.932684 306.688272,715.619684 308.311272,716.458684 C311.043272,717.871684 311.259272,717.852684 311.240272,716.208684 C311.228272,715.202684 306.889272,710.783684 301.240272,706.021684 C295.752272,701.395684 291.261272,697.332684 291.261272,696.992684 C291.261272,696.652684 294.081272,693.579684 297.528272,690.163684 L303.794272,683.952684 L302.157272,660.192684 C301.256272,647.124684 300.235272,631.932684 299.888272,626.432684 C298.795272,609.109684 297.993272,601.747684 297.319272,602.839684 C296.960272,603.420684 294.960272,592.991684 292.875272,579.663684 L289.084272,555.432684 L283.172272,549.405684 C277.569272,543.692684 277.260272,543.119684 277.242272,538.405684 C277.218272,532.232684 281.436272,506.932684 282.489272,506.932684 C282.914272,506.932684 283.261272,508.533684 283.261272,510.489684 C283.261272,512.446684 283.787272,517.231684 284.430272,521.123684 L285.598272,528.199684 L293.236272,533.815684 L300.875272,539.432684 L302.818272,560.851684 L304.761272,582.270684 L309.761272,584.024684 C312.511272,584.988684 317.039272,585.812684 319.823272,585.854684 L324.884272,585.932684 L318.605272,547.682684 C315.151272,526.644684 311.949272,508.082684 311.488272,506.432684 C310.889272,504.291684 309.773272,503.169684 307.589272,502.513684 C305.822272,501.982684 304.155272,500.604684 303.645272,499.253684 C302.815272,497.056684 302.594272,497.000684 300.053272,498.341684 C298.564272,499.127684 294.851272,500.328684 291.803272,501.010684 C288.755272,501.692684 286.261272,502.629684 286.261272,503.091684 C286.261272,503.554684 285.372272,503.932684 284.286272,503.932684 C282.671272,503.932684 282.407272,503.431684 282.835272,501.182684 C283.123272,499.670684 285.037272,488.852684 287.088272,477.143684 L290.818272,455.854684 L295.656272,462.443684 C298.317272,466.067684 300.633272,468.894684 300.802272,468.724684 C300.971272,468.555684 299.810272,463.695684 298.221272,457.924684 C296.632272,452.154684 295.319272,446.757684 295.303272,445.932684 C295.282272,444.889684 300.311272,442.634684 311.799272,438.534684 C320.889272,435.291684 328.475272,432.366684 328.658272,432.034684 C328.840272,431.703684 328.066272,421.426684 326.936272,409.197684 C325.060272,388.893684 324.746272,387.113684 323.321272,388.697684 C322.463272,389.651684 321.145272,391.628684 320.392272,393.089684 C319.639272,394.550684 315.014272,400.738684 310.116272,406.839684 C302.637272,416.153684 300.764272,417.932684 298.437272,417.932684 C296.005272,417.932684 295.331272,417.180684 292.938272,411.788684 C290.398272,406.066684 290.323272,405.521684 291.849272,403.835684 C292.750272,402.840684 297.710272,400.354684 302.872272,398.310684 C308.034272,396.267684 312.105272,394.442684 311.918272,394.255684 C311.731272,394.068684 306.709272,395.744684 300.760272,397.978684 C291.979272,401.276684 289.723272,401.796684 288.781272,400.737684 C288.142272,400.019684 285.182272,393.132684 282.202272,385.432684 C279.223272,377.732684 275.072272,368.966684 272.978272,365.952684 C269.462272,360.890684 269.303272,360.374684 270.907272,359.202684 C272.471272,358.058684 272.382272,357.932684 270.002272,357.932684 C268.549272,357.932684 267.001272,357.349684 266.561272,356.636684 C266.121272,355.923684 264.134272,354.399684 262.146272,353.249684 L258.531272,351.159684 L252.146272,354.603684 C245.865272,357.990684 245.667272,358.027684 240.011272,356.853684 C235.453272,355.906684 234.261272,355.266684 234.261272,353.763684 C234.261272,352.721684 235.273272,351.461684 236.511272,350.963684 C237.749272,350.466684 238.311272,349.999684 237.761272,349.925684 C236.031272,349.694684 240.642272,348.076684 243.240272,348.002684 C244.950272,347.954684 248.207272,345.457684 253.741272,339.952684 L261.763272,331.972684 L257.805272,292.187684 L253.846272,252.403684 L243.199272,246.168684 C237.343272,242.738684 232.149272,239.939684 231.657272,239.947684 C231.164272,239.956684 231.436272,240.399684 232.261272,240.932684 C233.506272,241.737684 233.422272,241.910684 231.761272,241.950684 C229.877272,241.996684 229.898272,242.113684 232.122272,243.965684 C233.787272,245.353684 234.036272,245.932684 232.965272,245.932684 C230.784272,245.932684 231.972272,249.623684 234.353272,250.246684 C235.881272,250.645684 236.261272,251.660684 236.261272,255.338684 C236.261272,259.041684 236.601272,259.935684 238.011272,259.947684 C239.507272,259.960684 239.543272,260.104684 238.261272,260.932684 C236.996272,261.750684 236.987272,261.904684 238.202272,261.917684 C239.235272,261.928684 239.094272,262.347684 237.702272,263.400684 C236.218272,264.523684 236.114272,264.879684 237.261272,264.916684 C238.594272,264.957684 238.594272,265.070684 237.261272,265.932684 C235.928272,266.794684 235.928272,266.907684 237.261272,266.948684 C238.408272,266.985684 238.304272,267.341684 236.820272,268.464684 C235.752272,269.271684 235.340272,269.932684 235.903272,269.932684 C236.467272,269.932684 236.928272,270.607684 236.928272,271.432684 C236.928272,272.257684 236.273272,272.932684 235.472272,272.932684 C234.291272,272.932684 234.251272,273.215684 235.261272,274.432684 C236.287272,275.668684 236.199272,275.932684 234.761272,275.932684 C233.323272,275.932684 233.235272,276.196684 234.261272,277.432684 C235.254272,278.629684 235.254272,278.932684 234.261272,278.932684 C233.268272,278.932684 233.268272,279.235684 234.261272,280.432684 C235.290272,281.672684 235.190272,281.932684 233.683272,281.932684 C232.266272,281.932684 232.128272,282.199684 233.061272,283.132684 C234.794272,284.865684 234.554272,285.610684 232.011272,286.383684 C230.648272,286.797684 230.254272,287.270684 231.011272,287.583684 C232.495272,288.195684 232.700272,290.932684 231.261272,290.932684 C230.711272,290.932684 230.374272,291.468684 230.511272,292.123684 C231.138272,295.109684 227.160272,293.535684 221.718272,288.643684 L215.761272,283.288684 L195.761272,280.030684 C184.761272,278.238684 174.522272,276.471684 173.007272,276.102684 L170.252272,275.432684 L181.033272,258.432684 C186.963272,249.082684 195.934272,235.978684 200.970272,229.312684 L210.126272,217.192684 L208.052272,211.562684 C205.906272,205.736684 205.204272,205.059684 203.506272,207.182684 M200.397272,329.600684 C200.322272,330.793684 200.002272,332.593684 199.685272,333.600684 C199.141272,335.334684 199.171272,335.337684 200.251272,333.653684 C200.879272,332.675684 201.199272,330.875684 200.963272,329.653684 C200.534272,327.434684 200.533272,327.434684 200.397272,329.600684 M88.0742725,332.615684 C88.7952725,332.904684 89.6582725,332.868684 89.9902725,332.536684 C90.3222725,332.204684 89.7322725,331.968684 88.6782725,332.011684 C87.5132725,332.059684 87.2762725,332.296684 88.0742725,332.615684 M197.885272,340.471684 C197.542272,341.364684 197.290272,342.621684 197.324272,343.264684 C197.359272,343.906684 197.819272,343.354684 198.346272,342.037684 C198.873272,340.719684 199.125272,339.463684 198.906272,339.244684 C198.687272,339.025684 198.227272,339.577684 197.885272,340.471684 M85.0892725,416.197684 C81.9782725,418.938684 81.1562725,420.585684 79.7022725,426.987684 C78.1822725,433.685684 77.5922725,434.801684 74.4922725,436.832684 C72.5702725,438.092684 70.7192725,438.721684 70.3792725,438.229684 C70.0392725,437.737684 67.1732725,436.359684 64.0112725,435.167684 L58.2612725,433.000684 L58.2612725,435.314684 C58.2612725,437.047684 59.2662725,438.082684 62.2612725,439.432684 C66.8202725,441.488684 67.0432725,441.963684 64.2612725,443.700684 C62.6042725,444.735684 62.2612725,446.032684 62.2612725,451.269684 L62.2612725,457.589684 L67.4112725,458.777684 C70.2432725,459.431684 72.6642725,459.846684 72.7902725,459.699684 C72.9172725,459.552684 74.1542725,457.175684 75.5392725,454.416684 C78.0352725,449.444684 78.0412725,449.378684 76.1442725,447.036684 L74.2312725,444.673684 L82.2462725,429.217684 C86.6542725,420.716684 90.2612725,413.574684 90.2612725,413.346684 C90.2612725,412.245684 88.4272725,413.256684 85.0892725,416.197684 M42.8722725,430.432684 C43.2552725,432.082684 44.1302725,435.232684 44.8162725,437.432684 L46.0632725,441.432684 L46.1622725,437.706684 C46.2202725,435.539684 45.4072725,432.611684 44.2192725,430.706684 L42.1772725,427.432684 L42.8722725,430.432684 M314.332272,449.432684 C314.332272,449.982684 314.975272,451.557684 315.761272,452.932684 C316.547272,454.307684 317.190272,454.982684 317.190272,454.432684 C317.190272,453.882684 316.547272,452.307684 315.761272,450.932684 C314.975272,449.557684 314.332272,448.882684 314.332272,449.432684 M40.4832725,460.343684 C39.3862725,462.751684 39.6442725,463.001684 48.3382725,467.976684 C53.7972725,471.100684 57.9622725,472.877684 58.9442725,472.500684 C60.3412725,471.964684 60.2352725,471.529684 58.1612725,469.295684 C55.7722725,466.722684 45.5172725,459.351684 42.9592725,458.370684 C42.1852725,458.072684 41.1382725,458.907684 40.4832725,460.343684 M78.8992725,459.432684 C79.3542725,460.618684 81.2852725,460.909684 88.1182725,460.820684 L96.7612725,460.708684 L89.7612725,459.381684 C80.1932725,457.568684 78.1882725,457.578684 78.8992725,459.432684 M325.419272,479.432684 C325.407272,481.082684 326.206272,490.757684 327.195272,500.932684 L328.993272,519.432684 L329.104272,504.932684 C329.191272,493.595684 328.804272,488.905684 327.328272,483.432684 C326.091272,478.840684 325.434272,477.464684 325.419272,479.432684 M193.367272,480.524684 C192.130272,482.097684 191.574272,483.536684 192.133272,483.723684 C192.692272,483.909684 192.933272,484.623684 192.670272,485.310684 C192.406272,485.996684 193.126272,487.405684 194.269272,488.439684 C196.157272,490.148684 196.285272,490.159684 195.671272,488.558684 C195.299272,487.590684 195.528272,485.802684 196.178272,484.587684 C196.939272,483.164684 197.050272,481.537684 196.489272,480.020684 L195.617272,477.663684 L193.367272,480.524684 M301.581272,488.932684 C301.581272,492.507684 301.763272,493.970684 301.984272,492.182684 C302.206272,490.394684 302.206272,487.470684 301.984272,485.682684 C301.763272,483.894684 301.581272,485.357684 301.581272,488.932684 M196.261272,485.873684 C196.261272,486.391684 196.711272,487.092684 197.261272,487.432684 C197.811272,487.772684 198.261272,487.348684 198.261272,486.491684 C198.261272,485.634684 197.811272,484.932684 197.261272,484.932684 C196.711272,484.932684 196.261272,485.355684 196.261272,485.873684 M179.917272,497.982684 C177.816272,500.797684 176.246272,503.219684 176.429272,503.365684 C176.818272,503.674684 193.175272,505.935684 195.011272,505.933685 C195.699272,505.933685 196.261272,504.807684 196.261272,503.432684 C196.261272,501.876684 195.694272,500.932684 194.761272,500.932684 C193.936272,500.932684 193.261272,500.482684 193.261272,499.932684 C193.261272,499.382684 192.586272,498.932684 191.761272,498.932684 C190.936272,498.932684 190.261272,498.482684 190.261272,497.932684 C190.261272,497.382684 189.586272,496.932684 188.761272,496.932684 C187.936272,496.932684 187.261272,496.482684 187.261272,495.932684 C187.261272,495.382684 186.624272,494.932684 185.844272,494.932684 C185.065272,494.932684 184.273272,494.467684 184.083272,493.898684 C183.894272,493.330684 182.019272,495.167684 179.917272,497.982684 M26.2612725,496.396684 C26.2612725,498.169684 27.6972725,499.936684 31.4882725,502.827684 C34.3622725,505.019684 36.8572725,506.670684 37.0302725,506.496684 C38.0282725,505.498684 33.4992725,499.025684 30.1702725,496.692684 L26.2612725,493.951684 L26.2612725,496.396684 M226.547272,509.432684 C226.555272,512.182684 226.749272,513.188684 226.979272,511.668684 C227.208272,510.148684 227.202272,507.898684 226.965272,506.668684 C226.728272,505.438684 226.540272,506.682684 226.547272,509.432684 M329.356272,523.555684 C329.408272,525.687684 329.972272,531.932684 330.610272,537.432684 L331.769272,547.432684 L335.576272,538.616684 C337.670272,533.767684 339.244272,529.475684 339.072272,529.078684 C338.901272,528.681684 336.624272,526.403684 334.011272,524.016684 L329.261272,519.677684 L329.356272,523.555684 M262.348272,560.182684 C262.397272,561.970684 262.965272,567.257684 263.612272,571.932684 C264.682272,579.664684 264.999272,580.462684 267.118272,580.764684 C268.971272,581.028684 269.340272,580.720684 268.922272,579.264684 C268.633272,578.256684 267.613272,572.820684 266.655272,567.182684 C265.470272,560.211684 264.489272,556.932684 263.587272,556.932684 C262.740272,556.932684 262.293272,558.105684 262.348272,560.182684 M292.340272,559.515684 C292.388272,560.680684 292.625272,560.917684 292.944272,560.120684 C293.233272,559.398684 293.197272,558.535684 292.865272,558.203684 C292.533272,557.871684 292.297272,558.461684 292.340272,559.515684 M196.261272,577.561684 C196.261272,593.536684 196.316272,593.973684 198.205272,592.962684 C199.275272,592.389684 200.420272,591.484684 200.750272,590.949684 C201.081272,590.414684 201.041272,583.702684 200.661272,576.033684 C200.047272,563.622684 199.767272,562.036684 198.116272,561.604684 C196.365272,561.146684 196.261272,562.040684 196.261272,577.561684 M227.631272,564.182684 C227.962272,565.419684 228.240272,569.245684 228.247272,572.682684 C228.260272,578.574684 228.396272,578.932684 230.614272,578.932684 C232.837272,578.932684 232.945272,578.641684 232.569272,573.682684 C231.799272,563.519684 231.330272,561.932684 229.099272,561.932684 C227.439272,561.932684 227.147272,562.379684 227.631272,564.182684 M265.261272,582.852684 C265.261272,583.358684 267.027272,597.195684 269.186272,613.602684 C271.344272,630.008684 274.607272,660.307684 276.436272,680.932684 C278.725272,706.751684 279.917272,716.719684 280.261272,712.932684 L280.761272,707.432684 L284.189272,715.671684 C286.074272,720.202684 287.685272,723.802684 287.769272,723.671684 C287.853272,723.540684 287.490272,718.587684 286.963272,712.666684 C286.118272,703.170684 285.824272,702.049684 284.472272,703.166684 C283.113272,704.289684 283.095272,704.183684 284.309272,702.233684 C286.771272,698.279684 282.147272,652.492684 275.644272,616.432684 C268.890272,578.981684 269.609272,581.932684 267.242272,581.932684 C266.152272,581.932684 265.261272,582.346684 265.261272,582.852684 M324.340272,587.682684 C324.297272,588.370684 323.586272,588.932684 322.761272,588.932684 C321.713272,588.932684 321.261272,589.988684 321.261272,592.432684 C321.261272,596.368684 318.626272,597.469684 318.081272,593.760684 C317.905272,592.566684 317.198272,591.403684 316.510272,591.177684 C315.717272,590.916684 315.482272,591.344684 315.867272,592.348684 C316.266272,593.388684 315.923272,593.932684 314.868272,593.932684 C313.984272,593.932684 313.261272,594.330684 313.261272,594.815684 C313.261272,595.301684 312.361272,595.934684 311.261272,596.222684 C309.910272,596.575684 309.261272,596.252684 309.261272,595.227684 C309.261272,594.017684 308.500272,593.849684 305.511272,594.399684 C303.449272,594.778684 301.394272,595.442684 300.947272,595.874684 C300.337272,596.463684 306.710272,630.693684 307.598272,631.599684 C307.688272,631.690684 310.686272,629.985684 314.261272,627.809684 C317.836272,625.634684 322.898272,622.916684 325.511272,621.770684 C328.124272,620.623684 330.261272,619.465684 330.261272,619.195684 C330.261272,618.044684 325.162272,588.341684 324.808272,587.432684 C324.594272,586.882684 324.383272,586.995684 324.340272,587.682684 M267.885272,709.471684 C267.542272,710.364684 267.290272,711.621684 267.324272,712.264684 C267.359272,712.906684 267.819272,712.354684 268.346272,711.037684 C268.873272,709.719684 269.125272,708.463684 268.906272,708.244684 C268.687272,708.025684 268.227272,708.577684 267.885272,709.471684 M267.958272,718.325684 C267.549272,719.366684 267.450272,720.454684 267.737272,720.742684 C268.650272,721.654684 269.452272,720.159684 269.070272,718.260684 C268.720272,716.520684 268.666272,716.523684 267.958272,718.325684 M267.761272,725.932684 C268.101272,726.482684 268.577272,726.932684 268.820272,726.932684 C269.063272,726.932684 269.261272,726.482684 269.261272,725.932684 C269.261272,725.382684 268.784272,724.932684 268.202272,724.932684 C267.620272,724.932684 267.421272,725.382684 267.761272,725.932684 M266.261272,729.310684 C266.261272,729.517684 266.936272,730.247684 267.761272,730.932684 C268.990272,731.952684 269.261272,731.883684 269.261272,730.554684 C269.261272,729.662684 268.586272,728.932684 267.761272,728.932684 C266.936272,728.932684 266.261272,729.102684 266.261272,729.310684"/><path fill-opacity=".147" d="M173.344272,180.285684 C173.574272,180.479684 178.599272,183.214684 184.511272,186.362684 C192.408272,190.568684 195.261272,191.677684 195.261272,190.541684 C195.261272,189.577684 194.696272,189.212684 193.761272,189.570684 C192.936272,189.887684 192.261272,189.713684 192.261272,189.184684 C192.261272,188.655684 188.246272,186.357684 183.340272,184.077684 C175.569272,180.467684 171.927272,179.085684 173.344272,180.285684 M167.103272,277.682684 C167.015272,278.644684 167.015272,280.246684 167.101272,281.240684 C167.199272,282.373684 166.827272,282.782684 166.105272,282.336684 C165.420272,281.912684 165.223272,282.061684 165.619272,282.703684 C165.986272,283.296684 165.787272,284.877684 165.177272,286.216684 C164.276272,288.194684 164.453272,289.378684 166.121272,292.541684 L168.173272,296.432684 L168.217272,292.142684 C168.241272,289.783684 169.201272,286.010684 170.349272,283.759684 L172.438272,279.665684 L169.849272,280.160684 C167.284272,280.650684 166.337272,279.621684 168.261272,278.432684 C168.811272,278.092684 169.261272,277.391684 169.261272,276.873684 C169.261272,275.153684 167.264272,275.902523 167.103272,277.682684 M203.266272,286.453684 C200.230272,290.342684 199.276272,290.932684 196.016272,290.932684 C193.951272,290.932684 192.261272,291.382684 192.261272,291.932684 C192.261272,293.397684 186.903272,293.153684 180.045272,291.376684 C176.742272,290.520684 173.830272,290.030684 173.573272,290.287684 C173.316272,290.544684 175.659272,291.325684 178.779272,292.023684 C182.711272,292.903684 184.918272,294.004684 185.971272,295.612684 C186.807272,296.888684 188.114272,297.932684 188.876272,297.932684 C192.190272,297.932684 189.744272,302.393684 184.490272,305.932684 C182.615272,307.195684 182.363272,308.023684 182.893272,311.182684 C183.505272,314.827684 183.642272,314.932684 187.763272,314.932684 L192.004272,314.932684 L193.910272,305.182684 L195.816272,295.432684 L207.358272,295.152684 L218.899272,294.872684 L220.374272,301.152684 L221.849272,307.432684 L212.771272,313.553684 L203.692272,319.674684 L200.894272,331.887684 C199.355272,338.605684 197.883272,343.888684 197.623272,343.627684 C197.362272,343.366684 197.849272,340.451684 198.705272,337.148684 C201.209272,327.486684 201.166272,327.383684 194.011272,325.975684 C190.574272,325.298684 187.135272,324.551684 186.370272,324.315684 C185.233272,323.965684 185.210272,324.165684 186.242272,325.409684 C186.937272,326.247684 188.688272,326.968684 190.133272,327.011684 C191.579272,327.054684 192.196272,327.318684 191.505272,327.596684 C190.814272,327.875684 190.502272,328.512684 190.811272,329.013684 C191.121272,329.514684 190.211272,330.453684 188.789272,331.101684 C186.919272,331.953684 186.558272,332.503684 187.483272,333.090684 C188.491272,333.730684 188.469272,333.905684 187.376272,333.917684 C186.568272,333.926684 187.037272,334.755684 188.505272,335.909684 C191.885272,338.568684 192.500272,342.358684 190.056272,345.465684 C188.989272,346.822684 187.447272,347.932684 186.629272,347.932684 C185.812272,347.932684 185.379272,348.313684 185.666272,348.779684 C185.954272,349.245684 184.856272,350.904684 183.225272,352.466684 L180.261272,355.306684 L180.261272,345.119684 L180.261272,334.932684 L172.761272,334.932684 L165.261272,334.932684 L165.261272,341.382684 C165.261272,345.616684 165.710272,348.107684 166.567272,348.632684 C167.286272,349.072684 168.823272,353.707684 169.984272,358.932684 L172.093272,368.432684 L169.142272,373.616684 C165.902272,379.304684 165.917272,379.985684 169.506272,390.634684 L171.597272,396.836684 L176.070272,390.358684 C178.529272,386.795684 180.667272,384.004684 180.819272,384.156684 C180.971272,384.308684 180.010272,389.773684 178.684272,396.301684 L176.273272,408.169684 L181.827272,422.277684 C184.882272,430.037684 187.515272,436.519684 187.678272,436.682684 C187.841272,436.845684 194.226272,426.509684 201.867272,413.712684 C211.477272,397.621684 217.969272,387.957684 222.921272,382.373684 L230.082272,374.300684 L244.671272,368.897684 C258.037272,363.946684 261.806272,361.932684 257.702272,361.932684 C256.845272,361.932684 256.421272,361.482684 256.761272,360.932684 C257.122272,360.348684 256.001272,359.890684 254.070272,359.832684 C252.250272,359.777684 249.636272,359.401684 248.261272,358.995684 C246.409272,358.449684 244.013272,359.126684 239.011272,361.608684 C235.298272,363.450684 232.261272,364.557684 232.261272,364.067684 C232.261272,363.578684 232.975272,360.014684 233.848272,356.148684 C235.551272,348.607684 236.248272,347.975684 242.889272,347.946684 C246.779272,347.929684 248.951272,345.749684 246.830272,343.990684 C246.030272,343.325684 244.188272,339.218684 242.738272,334.862684 C239.636272,325.549684 239.721272,324.861684 245.877272,309.475684 C250.765272,297.260684 251.585272,290.932684 248.281272,290.932684 C245.563272,290.932684 242.261272,297.681684 242.261272,303.237684 C242.261272,306.395684 241.684272,308.144684 240.200272,309.487684 C237.731272,311.722684 236.989272,310.911684 235.118272,303.932684 C234.102272,300.142684 232.480272,298.154684 224.836272,291.332684 C217.124272,284.448684 215.085272,283.137684 211.261272,282.603684 C206.851272,281.988684 206.691272,282.065684 203.266272,286.453684 M128.795272,305.876684 C128.377272,306.553684 128.536272,307.607684 129.148272,308.219684 C131.698272,310.769684 129.942272,310.753684 125.341272,308.185684 C122.636272,306.674684 120.211272,305.662684 119.954272,305.935684 C119.006272,306.943684 103.503272,338.517684 102.771272,340.932684 L102.013272,343.432684 L104.517272,341.120684 L107.021272,338.808684 L109.306272,342.505684 L111.590272,346.201684 L105.186272,358.816684 C99.0192725,370.964684 98.7692725,371.293684 98.4612725,367.682684 C98.0962725,363.412684 97.7052725,363.276684 92.6842725,365.670684 C89.5702725,367.155684 88.2382725,369.005684 83.5382725,378.376684 C78.9812725,387.463684 78.2342725,389.659684 79.1832725,391.179684 C80.6212725,393.481684 79.7862725,394.911684 76.9522725,395.002684 C74.8402725,395.070684 74.8332725,395.103684 76.7612725,395.932684 C78.6892725,396.761684 78.6822725,396.794684 76.5702725,396.862684 C72.5142725,396.992684 73.3252725,398.556684 80.4732725,404.396684 C86.3992725,409.237684 87.8842725,410.024684 89.3532725,409.106684 C90.6702725,408.284684 91.2242725,408.313684 91.5352725,409.218684 C91.7652725,409.886684 93.3722725,407.632684 95.1072725,404.211684 C97.7862725,398.925684 98.2612725,396.894684 98.2632725,390.711684 L98.2642725,383.432684 L109.060272,365.432684 C117.421272,351.492684 120.371272,347.358684 122.135272,347.102684 C123.643272,346.884684 124.219272,346.292684 123.837272,345.352684 C123.520272,344.571684 122.988272,343.257684 122.654272,342.432684 C122.264272,341.469684 122.622272,340.932684 123.654272,340.932684 C124.538272,340.932684 125.261272,340.450684 125.261272,339.861684 C125.261272,339.272684 127.300272,335.933684 129.792272,332.441684 C133.679272,326.993684 134.070272,326.025684 132.542272,325.627684 C131.145272,325.264684 131.239272,325.139684 132.979272,325.048684 C134.435272,324.972684 136.584272,323.055684 139.229272,319.475684 C141.447272,316.473684 143.261272,313.580684 143.261272,313.046684 C143.261272,312.512684 140.760272,311.516684 137.703272,310.832684 C133.522272,309.896684 131.824272,308.975684 130.850272,307.117684 C129.944272,305.387684 129.328272,305.015684 128.795272,305.876684 M167.310272,313.015684 C167.347272,317.227684 168.132272,319.878684 170.837272,324.932684 C172.750272,328.507684 174.101272,330.532684 173.839272,329.432684 C172.746272,324.837684 167.987272,308.399684 167.639272,308.015684 C167.431272,307.786684 167.283272,310.036684 167.310272,313.015684 M117.890272,327.802684 L109.062272,336.672684 L112.882272,337.389684 C115.348272,337.851684 116.832272,337.720684 117.065272,337.019684 C117.265272,336.421684 118.242272,335.932684 119.237272,335.932684 C121.643272,335.932684 122.649272,333.189684 120.456272,332.611684 C119.331272,332.314684 119.601272,332.101684 121.261272,331.978684 C123.322272,331.824684 123.447272,331.667684 121.971272,331.085684 C120.374272,330.454684 120.612272,329.762684 124.190272,324.655684 C126.395272,321.507684 127.866272,318.932684 127.459272,318.932684 C127.052272,318.932684 122.746272,322.923684 117.890272,327.802684 M95.4192725,355.932684 C95.4192725,357.307684 95.6462725,357.870684 95.9232725,357.182684 C96.2012725,356.495684 96.2012725,355.370684 95.9232725,354.682684 C95.6462725,353.995684 95.4192725,354.557684 95.4192725,355.932684 M263.011272,358.737684 C260.398272,358.904684 258.261272,359.467684 258.261272,359.987684 C258.261272,361.294684 266.988272,361.183684 267.802272,359.865684 C268.688272,358.433684 268.486272,358.385684 263.011272,358.737684 M143.340272,403.515684 C143.388272,404.680684 143.625272,404.917684 143.944272,404.120684 C144.233272,403.398684 144.197272,402.535684 143.865272,402.203684 C143.533272,401.871684 143.297272,402.461684 143.340272,403.515684 M87.7612725,405.932684 C87.4212725,406.482684 87.6202725,406.932684 88.2022725,406.932684 C88.7842725,406.932684 89.2612725,406.482684 89.2612725,405.932684 C89.2612725,405.382684 89.0632725,404.932684 88.8202725,404.932684 C88.5772725,404.932684 88.1012725,405.382684 87.7612725,405.932684 M141.826272,409.438684 C141.454272,411.417684 140.555272,413.266684 139.826272,413.545684 C139.098272,413.825684 133.426272,413.095684 127.221272,411.925684 C110.547272,408.778684 105.345272,410.725684 118.991272,415.004684 L126.721272,417.429684 L120.808272,418.167684 C117.556272,418.573684 114.640272,419.310684 114.328272,419.803684 C114.016272,420.297684 112.922272,420.865684 111.898272,421.066684 C110.873272,421.267684 115.935272,422.758684 123.148272,424.379684 C130.360272,426.000684 136.261272,427.673684 136.261272,428.098684 C136.261272,429.897684 139.134272,427.576684 139.700272,425.319684 C140.041272,423.961684 140.756272,423.120684 141.290272,423.450684 C141.824272,423.780684 142.261272,423.853684 142.261272,423.613684 C142.261272,423.373684 142.950272,421.434684 143.793272,419.304684 C145.169272,415.826684 145.169272,415.630684 143.793272,417.373684 C142.950272,418.441684 142.261272,419.753684 142.261272,420.290684 C142.261272,420.826684 142.014272,421.018684 141.711272,420.716684 C141.409272,420.413684 141.685272,417.164684 142.324272,413.495684 C142.962272,409.825684 143.264272,406.602684 142.993272,406.331684 C142.723272,406.060684 142.197272,407.458684 141.826272,409.438684 M279.925272,412.014684 C277.910272,414.258684 276.261272,416.508684 276.261272,417.014684 C276.261272,417.519684 273.786272,417.932684 270.761272,417.932684 C267.736272,417.932684 265.261272,418.382684 265.261272,418.932684 C265.261272,419.482684 262.777272,419.932684 259.742272,419.932684 C254.225272,419.932684 254.223272,419.933684 254.896272,422.682684 C257.387272,432.866684 257.687272,433.380684 262.023272,434.892684 C267.051272,436.646684 267.910272,438.319684 265.250272,441.174684 C263.560272,442.989684 263.261272,443.056684 263.261272,441.621684 C263.261272,439.028684 261.378272,439.618684 260.672272,442.432684 C260.256272,444.089684 259.322272,444.956684 257.903272,445.002684 C255.819272,445.071684 255.815272,445.096684 257.761272,445.932684 C259.706272,446.768684 259.702272,446.793684 257.618272,446.862684 C255.396272,446.935684 253.387272,449.920684 255.542272,449.947684 C256.393272,449.958684 256.349272,450.224684 255.398272,450.826684 C254.247272,451.555684 254.247272,451.774684 255.398272,452.232684 C256.366272,452.617684 256.399272,452.797684 255.511272,452.853684 C254.768272,452.900684 254.261272,454.329684 254.261272,456.373684 C254.261272,458.266684 253.886272,460.046684 253.428272,460.329684 C252.321272,461.013684 253.223272,466.932684 254.434272,466.932684 C254.954272,466.932684 255.101272,467.382684 254.761272,467.932684 C254.421272,468.482684 255.021272,468.932684 256.095272,468.932684 C257.169272,468.932684 258.306272,469.607684 258.623272,470.432684 C258.939272,471.257684 259.887272,471.932684 260.730272,471.932684 C262.690272,471.932684 262.676272,472.088684 260.084272,479.198684 C257.952272,485.045684 257.942272,485.304684 259.617272,491.592684 C260.559272,495.124684 261.097272,498.388684 260.814272,498.847684 C260.531272,499.305684 254.431272,503.169684 247.259272,507.433684 C235.733272,514.287684 233.804272,515.120684 230.643272,514.607684 C227.245272,514.055684 227.098272,514.148684 227.683272,516.479684 C228.035272,517.881684 227.862272,518.932684 227.280272,518.932684 C226.720272,518.932684 226.261272,517.816684 226.261272,516.451684 C226.261272,513.695684 226.960272,513.966684 212.091272,510.963684 C206.772272,509.889684 201.259272,508.719684 199.841272,508.363684 C197.467272,507.767684 197.250272,507.983684 197.129272,511.074684 L196.998272,514.432684 L196.379272,510.972684 C195.763272,507.524684 195.730272,507.505684 187.261272,505.767684 C182.586272,504.808684 178.011272,504.003684 177.094272,503.978684 C175.849272,503.944684 174.503272,506.704684 171.786272,514.857684 C168.717272,524.067684 167.605272,526.195684 164.703272,528.408684 C161.640272,530.745684 161.261272,531.551684 161.265241,535.733684 C161.271272,543.143684 163.640272,545.961684 173.663272,550.475684 C179.832272,553.253684 182.151272,554.776684 181.761272,555.792684 C181.357272,556.845684 181.546272,556.943684 182.488272,556.168684 C183.407272,555.412684 185.498272,555.912684 190.011272,557.965684 C194.457272,559.988684 196.261272,560.424684 196.261272,559.477684 C196.261272,557.079684 199.111272,556.865684 199.449272,559.237684 C199.751272,561.360684 200.215272,561.441684 213.511272,561.710684 C225.301272,561.949684 227.261272,561.771684 227.261272,560.460684 C227.261272,559.599684 228.133272,558.932684 229.261272,558.932684 C231.724272,558.932684 231.907272,560.617684 229.511272,561.243684 C228.548272,561.494684 233.037272,561.752684 239.485272,561.816684 C250.361272,561.924684 251.771272,561.710684 258.985272,558.861684 C263.262272,557.173684 269.124272,554.604684 272.011272,553.153684 L277.261272,550.514684 L277.231272,541.973684 C277.210272,535.691684 279.242272,521.793684 284.912272,489.432684 C289.153272,465.232684 293.055272,445.141684 293.585272,444.784684 C294.115272,444.428684 294.316272,443.252684 294.033272,442.170684 C293.751272,441.088684 294.288272,436.112684 295.227272,431.113684 C296.947272,421.959684 296.717272,419.582684 294.155272,420.013684 C292.818272,420.238684 291.520272,419.873684 286.464272,417.851684 C285.201272,417.345684 283.288272,416.932684 282.214272,416.932684 C279.594272,416.932684 279.755272,415.756684 282.761272,412.932684 C285.199272,410.642684 286.101272,407.932684 284.425272,407.932684 C283.965272,407.932684 281.940272,409.769684 279.925272,412.014684 M116.345272,432.345684 C114.525272,434.223684 113.229272,436.337684 113.465272,437.043684 C113.708272,437.773684 115.289272,436.298684 117.125272,433.630684 C118.903272,431.046684 120.199272,428.932684 120.005272,428.932684 C119.812272,428.932684 118.165272,430.468684 116.345272,432.345684 M135.437272,432.858684 C133.777272,437.618684 134.046272,439.107684 135.825272,435.007684 C136.643272,433.124684 137.154272,431.111684 136.962272,430.534684 C136.770272,429.958684 136.083272,431.003684 135.437272,432.858684 M68.9082725,440.448684 C67.1962725,441.700684 67.2832725,441.892684 70.2632725,443.433684 C74.1932725,445.465684 74.6662725,445.098684 72.4572725,441.730684 C70.9452725,439.426684 70.5172725,439.272684 68.9082725,440.448684 M266.340272,459.515684 C266.388272,460.680684 266.625272,460.917684 266.944272,460.120684 C267.233272,459.398684 267.197272,458.535684 266.865272,458.203684 C266.533272,457.871684 266.297272,458.461684 266.340272,459.515684 M48.6302725,463.787684 C49.5542725,464.808684 50.0602725,466.292684 49.7552725,467.086684 C48.9522725,469.179684 57.1482725,473.732684 58.3162725,471.843684 C59.3302725,470.203684 58.0362725,468.525684 52.8612725,464.765684 C48.4332725,461.549684 46.1202725,461.014684 48.6302725,463.787684 M26.2612725,496.396684 C26.2612725,498.169684 27.6972725,499.936684 31.4882725,502.827684 C34.3622725,505.019684 36.8572725,506.670684 37.0302725,506.496684 C38.0282725,505.498684 33.4992725,499.025684 30.1702725,496.692684 L26.2612725,493.951684 L26.2612725,496.396684 M173.153272,529.682684 C173.682272,530.644684 174.808272,532.332684 175.656272,533.432684 C177.033272,535.218684 177.201272,535.245684 177.229272,533.682684 C177.248272,532.638684 178.031272,531.932684 179.167272,531.932684 C180.581272,531.932684 180.939272,531.415684 180.551272,529.932684 C180.140272,528.361684 179.187272,527.932684 176.109272,527.932684 C172.677272,527.932684 172.310272,528.149684 173.153272,529.682684 M196.419272,532.932684 C196.419272,534.307684 196.646272,534.870684 196.923272,534.182684 C197.201272,533.495684 197.201272,532.370684 196.923272,531.682684 C196.646272,530.995684 196.419272,531.557684 196.419272,532.932684 M179.261272,538.447684 C179.261272,539.387684 186.532272,549.932684 187.180272,549.932684 C188.524272,549.932684 192.270272,546.756684 191.809272,546.009684 C191.541272,545.577684 192.434272,544.179684 193.792272,542.903684 L196.261272,540.583684 L196.261272,542.758684 C196.261272,544.088684 196.885272,544.932684 197.868272,544.932684 C198.923272,544.932684 199.266272,544.388684 198.868272,543.350684 C198.534272,542.480684 198.261272,541.423684 198.261272,541.002684 C198.261272,540.580684 194.548272,539.716684 190.011272,539.082684 C180.787272,537.793684 179.261272,537.703684 179.261272,538.447684 M227.261272,555.932684 C227.261272,556.482684 228.161272,556.932684 229.261272,556.932684 C230.361272,556.932684 231.261272,556.482684 231.261272,555.932684 C231.261272,555.382684 230.361272,554.932684 229.261272,554.932684 C228.161272,554.932684 227.261272,555.382684 227.261272,555.932684 M210.761272,584.085684 C206.911272,586.827684 203.213272,589.387684 202.542272,589.774684 C201.596272,590.319684 201.547272,594.610684 202.322272,608.954684 C203.663272,633.789684 203.940272,635.695684 206.315272,636.449684 C208.354272,637.096684 209.071272,640.932684 207.153272,640.932684 C206.099272,640.932684 206.162272,641.530684 207.870272,647.682684 C208.343272,649.387684 208.077272,649.932684 206.769272,649.932684 C205.015272,649.932684 205.016272,650.001684 206.870272,656.682684 C207.331272,658.345684 207.072272,658.932684 205.878272,658.932684 C203.885272,658.932684 203.872272,659.578684 205.761272,664.932684 C207.649272,670.283684 207.637272,670.932684 205.653272,670.932684 C204.030272,670.932684 204.035272,671.070684 205.870272,677.682684 C206.213272,678.919684 206.053272,679.932684 205.515272,679.932684 C204.954272,679.932684 204.499272,683.781684 204.450272,688.932684 C204.402272,693.995684 204.780272,697.932684 205.313272,697.932684 C205.834272,697.932684 206.261272,697.307684 206.261272,696.542684 C206.261272,695.778684 208.981272,669.816684 212.305272,638.849684 C215.630272,607.883684 218.217272,581.771684 218.055272,580.822684 C217.816272,579.420684 216.455272,580.029684 210.761272,584.085684 M232.761272,580.477684 C237.451272,581.242684 248.415272,581.751684 259.261272,581.707684 L277.761272,581.632684 L256.261272,580.375684 C244.436272,579.684684 232.511272,579.130684 229.761272,579.145684 C225.237272,579.169684 225.523272,579.296684 232.761272,580.477684 M313.761272,584.502684 C316.511272,585.267684 319.436272,585.862684 320.261272,585.823684 C321.086272,585.785684 319.511272,585.127684 316.761272,584.362684 C314.011272,583.597684 311.086272,583.002684 310.261272,583.041684 C309.436272,583.079684 311.011272,583.737684 313.761272,584.502684 M190.261272,598.282684 C187.786272,600.092684 183.741272,603.017684 181.272272,604.783684 C177.392272,607.558684 177.053272,608.071684 178.772272,608.557684 C179.878272,608.870684 183.423272,613.322684 186.761272,618.591684 C196.151272,633.412684 196.261272,633.341684 196.261272,612.467684 C196.261272,602.823684 195.923272,594.946684 195.511272,594.96266 C195.099272,594.979684 192.736272,596.473684 190.261272,598.282684 M294.792272,608.864684 L292.859272,613.151684 L295.810272,618.634684 C298.246272,623.160684 298.806272,623.708684 299.020272,621.775684 C299.163272,620.486684 298.704272,616.090684 298.002272,612.005684 L296.724272,604.578684 L294.792272,608.864684 M290.233272,630.432684 C290.118272,631.532684 290.070272,632.746684 290.125272,633.129684 C290.354272,634.714684 287.201272,656.440684 286.205272,660.138684 C285.613272,662.340684 285.368272,664.769684 285.663272,665.537684 C285.957272,666.304684 285.808272,666.932684 285.331272,666.932684 C284.854272,666.932684 284.615272,674.682684 284.800272,684.154684 C285.039272,696.386684 284.792272,701.820684 283.949272,702.904684 C282.923272,704.224684 282.988272,704.254684 284.427272,703.129684 C285.839272,702.025684 286.173272,702.102684 286.613272,703.629684 C286.988272,704.934684 287.080272,704.821684 286.946272,703.218684 C286.819272,701.693684 288.781272,698.963684 293.245272,694.454684 L299.730272,687.905684 L295.901272,661.169684 C292.035272,634.174684 290.634272,626.581684 290.233272,630.432684 M280.261272,711.371684 C280.261272,714.800684 282.404272,718.667684 287.501272,724.432684 C287.987272,724.982684 286.756272,721.618684 284.765272,716.957684 C282.773272,712.296684 280.945272,708.283684 280.703272,708.040684 C280.460272,707.797684 280.261272,709.296684 280.261272,711.371684 M279.005272,725.932684 C278.212272,735.441684 278.331272,735.274684 266.011272,744.102684 C262.848272,746.368684 260.261272,748.388684 260.261272,748.591684 C260.261272,749.493684 273.020272,742.478684 275.346272,740.298684 L277.930272,737.875684 L277.557272,743.653684 L277.184272,749.432684 L279.181272,745.932684 C280.279272,744.007684 281.196272,740.649684 281.219272,738.470684 C281.254272,735.204684 282.008272,733.724684 285.511272,730.048684 L289.761272,725.588684 L285.817272,728.732684 C283.647272,730.462684 281.658272,731.663684 281.396272,731.401684 C281.135272,731.139684 280.649272,727.889684 280.317272,724.178684 L279.713272,717.432684 L279.005272,725.932684"/></g></svg>