<svg xmlns="http://www.w3.org/2000/svg" width="1247.867" height="980" viewBox="0 0 1247.867 980"><g fill="#ABABAB" fill-rule="evenodd"><path fill-opacity=".49" d="M852.867,2.548 L819.867,4.843 L747.339,27.196 L674.812,49.549 L615.998,90.413 C583.651,112.889 552.282,135.146 546.29,139.874 C537.087,147.135 529.675,151.508 498.554,168.034 C463.931,186.42 460.363,188.074 439.29,195.516 L416.867,203.434 L375.294,234.582 L333.721,265.73 L307.246,296.115 C292.685,312.827 280.041,327.562 279.148,328.86 C278.076,330.419 269.92,334.688 255.107,341.445 C232.976,351.539 232.456,351.848 214.399,365.585 L196.108,379.5 L233.174,380 L270.24,380.5 L306.255,405 C326.064,418.475 342.292,429.729 342.319,430.009 C342.345,430.29 341.486,431.069 340.41,431.741 C338.715,432.8 332.192,430.279 291.66,412.9 L244.867,392.836 L221.077,386.918 C207.992,383.663 196.292,380.995 195.077,380.99 C193.861,380.984 185.084,382.642 175.571,384.673 L158.274,388.366 L149.571,379.811 C141.479,371.857 128.796,362.238 127.762,363.272 C127.514,363.519 129.831,365.247 132.91,367.111 C135.989,368.975 139.395,371.933 140.479,373.685 C142.452,376.874 148.641,394.059 148.034,394.666 C147.857,394.843 143.247,388.776 137.79,381.184 C128.203,367.848 127.581,367.213 119.437,362.44 C114.8,359.723 110.234,357.114 109.289,356.643 C107.958,355.979 104.844,357.974 95.469,365.5 C88.753,370.891 83.376,375.945 83.387,376.857 C83.398,377.761 84.469,382.636 85.767,387.691 C87.575,394.732 90.292,400.893 97.379,414.023 L106.631,431.163 L102.197,435.831 C81.071,458.071 60.27,480.216 52.601,488.631 L43.367,498.761 L43.367,508.286 C43.367,516.378 47.591,543.698 50.987,557.573 C51.408,559.292 50.795,559.855 47.394,560.874 C43.809,561.948 41.829,563.952 31.656,576.801 C25.255,584.886 15.52,597.089 10.021,603.92 L0.025,616.339 L4.446,624.916 C8.238,632.272 9.695,634.068 14.683,637.532 C19.576,640.93 20.878,642.504 22.892,647.459 C25.734,654.452 33.273,662.609 37.788,663.576 C39.482,663.938 41.317,664.507 41.867,664.839 C42.417,665.171 43.693,665.571 44.702,665.728 C46.848,666.062 64.719,671.115 65.18,671.518 C65.352,671.669 63.439,674.104 60.93,676.929 C58.42,679.755 56.367,682.446 56.367,682.909 C56.367,683.373 59.235,684.573 62.741,685.577 L69.114,687.403 L64.491,689.544 L59.867,691.684 L66.327,694.963 C70.461,697.06 72.924,697.829 73.168,697.098 C73.655,695.637 82.085,696.554 88.617,698.778 C93.258,700.358 93.367,700.49 93.367,704.534 L93.367,708.673 L85.274,710.521 L77.18,712.37 L64.804,706.205 C53.775,700.711 52.205,699.603 50.377,696.02 C49.249,693.809 48.147,692 47.928,692 C47.709,692 46.547,693.591 45.345,695.535 C43.35,698.763 43.221,699.872 43.855,708.285 L44.549,717.5 L52.185,725.25 L59.82,733 L67.844,732.983 C78.612,732.96 82.979,731.679 131.367,714.354 C162.884,703.069 174.911,698.292 181.363,694.497 C189.727,689.577 190.039,689.485 201.589,688.5 L213.32,687.5 L213.806,691.5 C215.013,701.429 215.409,714.445 214.461,713.029 C213.919,712.22 213.297,711.77 213.08,712.029 C212.862,712.288 206.65,727.583 199.275,746.017 C187.382,775.746 183.779,783.491 167.389,814.539 L148.912,849.545 L126.114,862.382 L103.317,875.219 L88.442,891.418 L73.568,907.617 L62.963,928.808 L52.358,950 L55.612,949.949 C57.402,949.921 65.842,949.083 74.367,948.087 C82.892,947.091 89.968,946.352 90.091,946.445 C90.214,946.538 88.292,951.942 85.822,958.455 C83.351,964.967 81.52,970.486 81.753,970.719 C81.986,970.953 92.984,967.961 106.193,964.072 C119.402,960.182 130.667,957 131.225,957 C131.783,957 130.921,960.902 129.309,965.672 C127.697,970.442 126.558,974.524 126.778,974.745 C126.999,974.965 140.642,971.513 157.098,967.073 C173.553,962.633 187.32,959 187.692,959 C188.063,959 188.367,962.652 188.367,967.117 C188.367,974.363 188.555,975.182 190.117,974.754 C191.08,974.491 206.042,969.833 223.367,964.403 L254.867,954.531 L269.678,943.795 C279.467,936.698 290.161,930.103 301.222,924.341 L317.956,915.625 L321.856,884.705 L325.755,853.785 L329.811,851.782 C333.627,849.897 335.11,847.569 354.856,812.453 L375.845,775.127 L378.856,777.368 C395.291,789.601 399.564,792.229 400.825,790.879 C401.533,790.121 414.377,773.075 429.367,753 C444.357,732.925 457.202,715.878 457.911,715.118 C458.992,713.961 461.065,715.383 470.669,723.868 C476.977,729.441 482.568,734 483.095,734 C484.309,734 579.803,691.929 587.867,687.841 L593.867,684.8 L583.886,694.9 L573.905,705 L583.136,705 C588.213,705 592.367,705.247 592.367,705.548 C592.367,705.85 588.928,710.637 584.725,716.187 L577.083,726.278 L594.975,725.544 L612.867,724.81 L610.803,727.155 C609.668,728.445 606.125,732.538 602.931,736.25 L597.123,743 L601.495,743.008 C603.9,743.013 615.882,742.49 628.122,741.846 C640.362,741.203 650.644,740.943 650.971,741.27 C651.297,741.597 649.456,744.82 646.878,748.432 L642.191,755 L674.623,755 L707.055,755 L707.711,770.159 C708.072,778.496 708.367,792.02 708.367,800.212 L708.367,815.105 L698.163,834.308 L687.958,853.511 L651.413,864.357 L614.867,875.203 L589.867,887.852 L564.867,900.5 L548.763,918.5 L532.659,936.5 L541.456,937 L550.253,937.5 L543.167,947.878 L536.081,958.255 L553.974,957.56 C563.815,957.178 572.698,956.626 573.714,956.335 C575.049,955.951 574.142,957.906 570.433,963.402 C565.539,970.654 565.415,971 567.699,971 C569.015,971 583.092,969.651 598.98,968.003 C614.868,966.354 628.893,965.004 630.147,965.003 C632.274,965 632.086,965.507 627.367,972.5 L622.306,980 L625.087,979.967 C626.616,979.949 645.642,977.946 667.367,975.515 L706.867,971.096 L739.367,962.181 C757.242,957.278 783.582,950.631 797.9,947.409 L823.932,941.552 L834.829,916.026 C840.822,901.987 852.138,876.55 859.975,859.5 L874.226,828.5 L887.542,771.155 L900.858,713.809 L912.363,701.738 L923.867,689.667 L928.036,671.248 C930.329,661.118 932.426,652.608 932.696,652.337 C933.327,651.707 954.099,647 956.251,647 C957.144,647 978.32,667.448 1003.308,692.441 L1048.74,737.881 L1053.82,751.691 L1058.9,765.5 L1029.884,783.328 C1002.442,800.189 1000.284,801.734 990.133,811.796 C980.315,821.526 978.804,823.547 972.439,835.467 C965.944,847.631 957.739,867.706 958.821,868.787 C959.084,869.05 970.399,866.49 983.964,863.097 C997.529,859.704 1008.844,857.144 1009.108,857.407 C1009.372,857.671 1007.501,863.826 1004.95,871.083 C1002.4,878.341 1000.506,884.472 1000.741,884.708 C1001.093,885.059 1034.721,876.021 1053.594,870.503 L1058.322,869.121 L1052.284,881.167 C1048.963,887.791 1046.453,893.419 1046.706,893.672 C1046.959,893.925 1062.112,889.578 1080.378,884.011 C1098.645,878.445 1113.775,874.075 1114.001,874.301 C1114.227,874.527 1112.817,878.891 1110.867,884 C1108.917,889.109 1107.538,893.504 1107.802,893.768 C1108.065,894.032 1119.865,891.379 1134.023,887.874 L1159.765,881.5 L1184.816,866.404 C1198.594,858.101 1218.417,845.726 1228.867,838.904 L1247.867,826.5 L1245.253,795.5 L1242.64,764.5 L1231.135,734 L1219.63,703.5 L1216.886,671.5 L1214.142,639.5 L1193.111,594.5 L1172.081,549.5 L1193.348,486.5 C1205.045,451.85 1214.578,422.825 1214.532,422 C1214.486,421.175 1207.267,388.325 1198.488,349 L1182.528,277.5 L1165.685,241.499 L1148.843,205.498 L1120.871,161.999 L1092.899,118.5 L1049.468,84.572 L1006.036,50.644 L954.021,25.322 L902.005,0 L893.936,0.127 C889.498,0.196 871.017,1.286 852.867,2.548 M335.367,450.417 C335.367,451.035 366.425,461.275 366.89,460.81 C367.109,460.592 367.046,459.487 366.75,458.356 C366.293,456.608 364.081,455.824 352.039,453.145 C338.074,450.037 335.367,449.594 335.367,450.417 M44.18,680.683 C44.901,680.972 45.764,680.936 46.096,680.604 C46.428,680.272 45.838,680.036 44.784,680.079 C43.619,680.127 43.382,680.364 44.18,680.683"/><path fill-opacity=".239" d="M853.367,2.459 L820.867,4.659 L748.005,27.043 L675.143,49.427 L670.005,59.848 L664.867,70.269 L624.473,97.237 C602.256,112.069 582.456,124.764 580.473,125.447 C577.01,126.64 576.47,127.54 566.867,148.106 L556.867,169.522 L509.867,178.387 L462.867,187.252 L439.867,195.342 L416.867,203.431 L378.867,231.835 C357.967,247.457 340.192,260.903 339.367,261.714 C338.542,262.525 344.657,259.805 352.955,255.67 C366.796,248.771 371.479,247.111 409.639,235.575 C432.517,228.659 451.723,223 452.318,223 C453.122,223 493.808,249.499 496.272,251.627 C496.495,251.82 493.908,258.237 490.522,265.888 C487.137,273.538 484.367,280.054 484.367,280.367 C484.367,281.671 463.103,310.48 462.303,310.261 C461.823,310.129 450.218,301.691 436.514,291.511 C420.448,279.575 410.758,273.007 409.233,273.021 C407.932,273.033 388.379,275.856 365.782,279.295 L324.697,285.549 L302.508,306.39 C290.303,317.853 279.689,328.129 278.921,329.226 C278.153,330.322 267.437,335.821 255.107,341.445 C232.975,351.54 232.456,351.848 214.399,365.585 L196.109,379.5 L232.852,379.762 L269.596,380.025 L313.732,410.157 C338.006,426.73 358.317,440.698 358.867,441.197 C360.077,442.295 364.596,444.193 298.867,415.999 L244.867,392.836 L221.077,386.918 C207.992,383.663 196.292,380.995 195.077,380.99 C193.861,380.984 185.084,382.642 175.572,384.673 L158.276,388.366 L149.822,379.955 C145.172,375.329 141.367,372.008 141.367,372.576 C141.367,373.143 142.939,378.274 144.859,383.978 C146.78,389.682 148.208,394.492 148.032,394.668 C147.856,394.844 143.247,388.776 137.79,381.184 C128.203,367.848 127.581,367.213 119.437,362.44 C114.8,359.723 110.234,357.114 109.289,356.643 C107.958,355.979 104.844,357.974 95.469,365.5 C88.753,370.891 83.376,375.945 83.387,376.857 C83.398,377.761 84.469,382.636 85.767,387.691 C87.573,394.725 90.289,400.888 97.337,413.945 C102.403,423.329 106.93,430.77 107.398,430.481 C107.866,430.192 104.709,422.653 100.382,413.728 C96.055,404.802 92.197,396.375 91.808,395 L91.101,392.5 L93.372,394.5 C94.62,395.6 100.098,402.013 105.544,408.75 C110.991,415.488 115.916,421 116.49,421 C117.064,421 117.379,420.662 117.19,420.25 C117.001,419.837 114.489,414.896 111.607,409.268 C108.725,403.641 106.367,398.847 106.367,398.616 C106.367,398.385 113.004,400.168 121.117,402.579 L135.867,406.961 L159.076,406.98 C185.24,407.002 195.609,408.14 202.867,411.784 C205.617,413.165 212.142,415.759 217.367,417.549 C222.592,419.339 243.047,428.297 262.822,437.457 L298.777,454.112 L313.822,452.554 C322.097,451.697 329.317,451.034 329.867,451.08 C330.417,451.126 324.091,452.656 315.81,454.479 C307.528,456.303 298.753,458.473 296.31,459.303 C293.866,460.132 291.417,460.448 290.867,460.004 C288.563,458.146 226.367,430.261 226.367,431.087 C226.367,431.583 219.404,443.129 210.895,456.745 L195.422,481.5 L169.199,503 L142.976,524.5 L134.171,526.621 C129.329,527.788 125.367,528.524 125.367,528.257 C125.367,527.99 127.492,524.363 130.088,520.197 C133.662,514.464 163.367,452.96 163.367,451.295 C163.367,451.124 149.08,460.487 131.617,472.102 C106.703,488.672 98.037,495.01 91.367,501.539 L82.867,509.86 L63.867,504.939 C53.417,502.232 44.527,500.014 44.111,500.009 C43.695,500.004 46.735,506.75 50.867,515 C58.26,529.762 60.179,534.8 54.675,525.001 C52.085,520.391 51.575,520.002 48.117,520.001 C45.212,520 44.367,520.394 44.368,521.75 C44.368,522.712 45.94,531.6 47.86,541.5 C49.781,551.4 51.355,559.541 51.359,559.592 C51.364,559.642 49.55,560.228 47.33,560.893 C43.826,561.943 41.759,564.04 31.656,576.801 C25.255,584.886 15.52,597.089 10.021,603.92 L0.025,616.339 L4.446,624.916 C8.238,632.272 9.695,634.068 14.683,637.532 C19.576,640.93 20.878,642.504 22.892,647.459 C24.32,650.974 27.134,655.225 29.871,658.004 C34.27,662.47 35.079,662.835 49.662,666.938 C58.025,669.291 65.008,671.346 65.18,671.504 C65.352,671.663 63.439,674.104 60.93,676.929 C58.42,679.755 56.367,682.446 56.367,682.909 C56.367,683.373 59.235,684.573 62.741,685.577 L69.114,687.403 L64.491,689.544 L59.867,691.684 L66.088,694.842 C69.51,696.579 72.537,698 72.813,698 C73.09,698 73.035,696.59 72.69,694.866 C72.322,693.026 72.457,691.891 73.018,692.116 C73.542,692.327 78.329,694.3 83.655,696.5 L93.339,700.5 L93.353,704.586 L93.367,708.673 L85.274,710.521 L77.18,712.37 L64.804,706.205 C53.775,700.711 52.205,699.603 50.377,696.02 C49.249,693.809 48.147,692 47.928,692 C47.709,692 46.547,693.591 45.345,695.535 C43.35,698.763 43.221,699.872 43.855,708.285 L44.549,717.5 L52.185,725.25 L59.82,733 L67.844,732.983 C78.612,732.96 82.966,731.683 131.471,714.321 L173.074,699.43 L193.92,686.965 L214.766,674.5 L250.316,670.5 L285.867,666.5 L319.367,643.5 L352.867,620.5 L387.863,562.069 L422.858,503.638 L431.095,553.069 L439.331,602.5 L441.829,647 C443.203,671.475 444.336,692.654 444.347,694.064 C444.366,696.442 443.697,696.821 435.066,699.314 C429.951,700.791 424.213,702.052 422.316,702.115 C420.253,702.184 422.924,703.016 428.966,704.186 L439.065,706.142 L451.723,698.411 C458.685,694.159 464.224,690.523 464.032,690.332 C463.84,690.14 460.414,691.331 456.418,692.979 C449.41,695.869 449.205,695.896 450.621,693.737 C497.11,622.842 523.872,582.998 524.258,584.102 C524.528,584.871 531.082,605.3 538.822,629.5 L552.896,673.5 L569.382,675.412 L585.867,677.324 L577.859,679.912 C570.906,682.159 566.722,684.718 546.109,699.331 C533.051,708.588 522.367,716.357 522.367,716.595 C522.367,717.123 522.562,717.04 555.367,702.572 C569.942,696.144 584.567,689.516 587.867,687.842 L593.867,684.8 L583.886,694.9 L573.905,705 L583.136,705 C588.213,705 592.367,705.247 592.367,705.548 C592.367,705.85 588.928,710.637 584.725,716.187 L577.083,726.278 L594.975,725.544 L612.867,724.81 L610.803,727.155 C609.668,728.445 606.125,732.538 602.931,736.25 L597.123,743 L601.495,743.008 C603.9,743.013 615.882,742.49 628.122,741.846 C640.362,741.203 650.644,740.943 650.971,741.27 C651.297,741.597 649.456,744.82 646.878,748.432 L642.191,755 L674.623,755 L707.055,755 L707.711,770.159 C708.072,778.496 708.367,792.02 708.367,800.212 L708.367,815.105 L698.163,834.308 L687.958,853.511 L651.413,864.357 L614.867,875.203 L589.867,887.852 L564.867,900.5 L548.763,918.5 L532.659,936.5 L541.456,937 L550.253,937.5 L543.167,947.878 L536.081,958.255 L553.974,957.56 C563.815,957.178 572.698,956.626 573.714,956.335 C575.049,955.951 574.142,957.906 570.433,963.402 C565.539,970.654 565.415,971 567.699,971 C569.015,971 583.092,969.651 598.98,968.003 C614.868,966.354 628.893,965.004 630.147,965.003 C632.274,965 632.086,965.507 627.367,972.5 L622.306,980 L625.087,979.967 C626.616,979.949 645.642,977.946 667.367,975.515 L706.867,971.096 L739.367,962.181 C757.242,957.278 783.582,950.631 797.9,947.409 L823.932,941.552 L834.829,916.026 C840.822,901.987 852.138,876.55 859.975,859.5 L874.226,828.5 L887.542,771.155 L900.858,713.809 L912.363,701.738 L923.867,689.667 L928.066,671.116 C930.375,660.912 932.164,652.463 932.041,652.34 C931.918,652.217 928.014,652.964 923.367,654 C918.72,655.036 914.831,655.797 914.725,655.691 C914.353,655.32 920.961,627.5 921.412,627.538 C921.662,627.559 929.967,631.938 939.867,637.269 L957.867,646.961 L1003.304,692.421 L1048.74,737.881 L1053.82,751.691 L1058.9,765.5 L1029.884,783.328 C1002.442,800.189 1000.284,801.734 990.133,811.796 C980.315,821.526 978.804,823.547 972.439,835.467 C965.944,847.631 957.739,867.706 958.821,868.787 C959.084,869.05 970.399,866.49 983.964,863.097 C997.529,859.704 1008.844,857.144 1009.108,857.407 C1009.372,857.671 1007.501,863.826 1004.95,871.083 C1002.4,878.341 1000.506,884.472 1000.741,884.708 C1001.093,885.059 1034.721,876.021 1053.594,870.503 L1058.322,869.121 L1052.284,881.167 C1048.963,887.791 1046.453,893.419 1046.706,893.672 C1046.959,893.925 1062.112,889.578 1080.378,884.011 C1098.645,878.445 1113.775,874.075 1114.001,874.301 C1114.227,874.527 1112.817,878.891 1110.867,884 C1108.917,889.109 1107.538,893.504 1107.802,893.768 C1108.065,894.032 1119.865,891.379 1134.023,887.874 L1159.765,881.5 L1184.816,866.404 C1198.594,858.101 1218.417,845.726 1228.867,838.904 L1247.867,826.5 L1245.253,795.5 L1242.64,764.5 L1231.135,734 L1219.63,703.5 L1216.886,671.5 L1214.142,639.5 L1193.111,594.5 L1172.081,549.5 L1193.348,486.5 C1205.045,451.85 1214.578,422.825 1214.532,422 C1214.486,421.175 1207.267,388.325 1198.488,349 L1182.528,277.5 L1165.685,241.499 L1148.843,205.498 L1120.871,161.999 L1092.899,118.5 L1049.468,84.572 L1006.036,50.644 L954.021,25.322 L902.005,0 L893.936,0.129 C889.498,0.2 871.242,1.249 853.367,2.459 M604.239,98.75 C602.996,100.336 603.031,100.371 604.617,99.128 C606.283,97.821 606.812,97 605.989,97 C605.782,97 604.994,97.787 604.239,98.75 M580.147,115.242 C568.201,123.576 558.583,130.549 558.773,130.739 C558.963,130.929 562.077,130.342 565.692,129.434 C571.928,127.867 573.039,127.09 587.316,114.317 C600.392,102.618 603.278,99.835 602.117,100.045 C601.979,100.07 592.093,106.909 580.147,115.242 M335.367,450.426 C335.367,450.661 343.813,453.655 354.135,457.08 L372.904,463.307 L381.385,474.733 C386.05,481.017 390.221,486.385 390.653,486.661 C391.086,486.937 388.222,480.711 384.29,472.825 L377.142,458.487 L357.004,454.21 C336.625,449.882 335.367,449.662 335.367,450.426 M308.966,487.88 L298.064,491.602 L320.8,512.449 L343.535,533.297 L353.792,523.075 L364.048,512.854 L357.957,502.122 L351.867,491.39 L337.867,487.662 C330.167,485.612 322.967,483.984 321.867,484.046 C320.767,484.107 314.961,485.832 308.966,487.88 M130.617,548.267 L109.367,554.383 L109.367,562.192 C109.367,566.486 109.553,570 109.781,570 C110.009,570 114.397,568.394 119.531,566.431 C128.213,563.113 144.889,559 149.663,559 C150.805,559 156.111,561.475 161.453,564.5 L171.167,570 L181.719,570 L192.27,570 L190.924,566.75 C189.845,564.145 186.231,561.37 172.722,552.771 C163.452,546.87 154.967,542.067 153.867,542.09686 C152.767,542.127 142.305,544.904 130.617,548.267 M77.443,675.75 C77.485,676.163 78.126,678.075 78.867,680 L80.215,683.5 L80.291,679.25 C80.347,676.105 79.977,675 78.867,675 C78.042,675 77.401,675.337 77.443,675.75 M199.61,745.287 C187.775,774.98 184.342,782.359 167.618,814.055 L148.884,849.56 L126.101,862.39 L103.317,875.219 L88.442,891.418 L73.568,907.617 L62.963,928.808 L52.358,950 L55.612,949.949 C57.402,949.921 65.842,949.083 74.367,948.087 C82.892,947.091 89.968,946.352 90.091,946.445 C90.214,946.538 88.292,951.942 85.822,958.455 C83.351,964.967 81.52,970.486 81.753,970.719 C81.986,970.953 92.984,967.961 106.193,964.072 C119.402,960.182 130.667,957 131.225,957 C131.783,957 130.921,960.902 129.309,965.672 C127.697,970.442 126.558,974.524 126.778,974.745 C126.999,974.965 140.642,971.513 157.098,967.073 C173.553,962.633 187.32,959 187.692,959 C188.063,959 188.367,962.652 188.367,967.117 C188.367,974.363 188.555,975.182 190.117,974.754 C191.08,974.491 206.042,969.833 223.367,964.403 L254.867,954.531 L269.678,943.795 C279.467,936.698 290.161,930.103 301.222,924.341 L317.956,915.625 L321.856,884.705 L325.755,853.785 L329.811,851.805 C333.344,850.081 334.737,848.256 340.614,837.663 C344.325,830.973 350.487,819.987 354.308,813.25 C358.129,806.513 361.107,801 360.927,801 C360.748,801 355.952,806.451 350.271,813.112 C344.59,819.774 339.828,824.837 339.689,824.362 C339.55,823.888 342.504,809.395 346.253,792.155 L353.07,760.81 L326.379,787.488 L299.688,814.165 L287.368,779.583 C280.591,760.562 274.651,745 274.167,745 C273.683,745 264.652,747.475 254.098,750.5 C243.543,753.525 234.4,756 233.78,756 C233.159,756 228.473,746.1 223.367,734 C218.261,721.9 213.809,712.006 213.475,712.011997 C213.14,712.019 206.901,726.993 199.61,745.287"/><path fill-opacity=".212" d="M970.602,46.794 C966.725,58.425 966.689,58.486 962.899,59.549 L959.09,60.618 L989.479,73.763 C1006.192,80.992 1036.06,93.913 1055.852,102.475 C1075.644,111.037 1091.169,117.413 1090.352,116.643 C1089.535,115.874 1070.312,100.77 1047.634,83.079 C1006.935,51.33 1006.196,50.811 990.45,43.011 L974.498,35.108 L970.602,46.794 M1068.971,152.044 C1055.989,170.218 1045.384,185.406 1045.404,185.794 C1045.425,186.182 1057.705,199.773 1072.694,215.997 L1099.947,245.493 L1060.407,279.336 C1014.917,318.272 1015.44,317.796 1017.055,318.801 C1017.708,319.208 971.133,328.95 913.555,340.451 L808.867,361.36 L772.031,348.18 C751.771,340.931 734.527,335 733.712,335 C732.18,335 656.188,358.878 655.456,359.589 C655.23,359.809 657.887,366.062 661.36,373.484 L667.674,386.98 L645.939,433.564 C633.984,459.185 623.523,481.802 622.692,483.824 C621.162,487.543 610.117,507.101 609.766,506.711 C609.662,506.595 605.887,497.725 601.379,487 C596.871,476.275 592.862,467.16 592.47,466.745 C591.913,466.155 586.423,488.109 585.127,496.108 C584.93,497.328 577.774,493.767 555.472,481.353 L526.077,464.991 L513.472,463.364 C504.764,462.239 500.479,461.252 499.612,460.17 C498.922,459.309 489.484,455.996 478.638,452.808 L458.918,447.012 L432.222,431.005 C417.539,422.201 404.87,414.747 404.069,414.439 C402.925,414 402.464,415.269 401.919,420.356 L401.226,426.832 L392.546,427.438 C387.773,427.771 382.517,428.452 380.867,428.951 C379.217,429.45 373.817,430.151 368.867,430.508 C363.917,430.865 359.177,431.346 358.333,431.577 C356.676,432.031 352.729,437.986 354.06,438.022 C354.504,438.034 355.992,438.939 357.367,440.033 C360.295,442.362 360.853,442.588 312.119,421.678 C293.558,413.714 278.676,407.716 279.048,408.349 C282.483,414.192 291.665,427.067 292.883,427.749 C294.234,428.505 294.108,429.451 291.856,435.433 C290.444,439.185 289.419,442.344 289.578,442.453 C289.737,442.563 296.068,444.797 303.647,447.419 L317.427,452.186 L327.647,451.168 C337.684,450.167 338.218,450.224 357.507,454.323 L377.147,458.498 L384.293,472.83 C388.224,480.713 391.086,486.941 390.653,486.67 C390.221,486.399 387.392,482.775 384.367,478.616 C381.342,474.458 378.613,471.043 378.304,471.028 C377.994,471.013 376.703,474.589 375.435,478.976 C373.63,485.224 373.281,488.157 373.825,492.513 C374.311,496.402 374.007,500.242 372.814,505.287 C371.268,511.827 370.678,512.847 366.488,516.224 C363.946,518.272 357.592,524.058 352.367,529.082 C343.317,537.783 342.44,538.358 333.867,541.222 C325.281,544.089 322.619,544.398 276.037,547.934 C238.833,550.758 227.005,551.968 226.359,553.014 C225.674,554.121 225.003,554.155 222.881,553.189 C221.304,552.47 219.575,552.329 218.56,552.836 C217.629,553.301 210.019,555.419 201.648,557.544 L186.429,561.408 L193.148,565.678 L199.867,569.948 L186.54,569.974 C173.447,570 173.062,570.064 164.54,573.683 C159.77,575.709 154.595,578.409 153.04,579.683 C149.404,582.663 148.659,582.6 147.917,579.25 C147.5,577.363 144.66,574.383 138.864,569.75 C134.219,566.038 129.995,563 129.478,563 C128.962,563 124.411,564.575 119.367,566.5 C114.323,568.425 109.809,570 109.338,570 C108.866,570 107.702,568.682 106.75,567.071 L105.02,564.142 L100.231,566.569 C97.277,568.066 90.925,569.728 83.654,570.906 L71.867,572.816 L59.135,586.158 C52.132,593.496 44.989,601.975 43.261,605 C41.534,608.025 39.988,610.65 39.827,610.834 C39.665,611.017 37.133,609.635 34.2,607.763 C29.52,604.776 18.23,601 13.976,601 C13.162,601 9.684,604.441 6.248,608.646 L0,616.291 L4.434,624.892 C8.238,632.274 9.692,634.066 14.683,637.532 C19.576,640.93 20.878,642.504 22.892,647.459 C24.32,650.974 27.134,655.225 29.871,658.004 C34.27,662.47 35.079,662.835 49.662,666.938 C58.025,669.291 65.008,671.346 65.18,671.504 C65.352,671.663 63.439,674.104 60.93,676.929 C58.42,679.755 56.367,682.446 56.367,682.909 C56.367,683.373 59.235,684.573 62.741,685.577 L69.114,687.403 L64.491,689.544 L59.867,691.684 L66.088,694.842 C69.51,696.579 72.537,698 72.813,698 C73.09,698 73.035,696.59 72.69,694.866 C72.322,693.026 72.457,691.891 73.018,692.116 C73.542,692.327 78.329,694.3 83.655,696.5 L93.339,700.5 L93.353,704.586 L93.367,708.673 L85.274,710.521 L77.18,712.37 L64.804,706.205 C53.775,700.711 52.205,699.603 50.377,696.02 C49.249,693.809 48.147,692 47.928,692 C46.394,692 43.367,699.398 43.367,703.147 C43.367,707.248 43.824,708.012 49.885,714.029 C55.5,719.603 57.128,720.642 61.635,721.523 L66.867,722.546 L61.93,723.677 L56.994,724.808 L50.68,718.745 C44.988,713.28 44.367,712.922 44.367,715.115 C44.367,716.82 46.692,719.858 52.139,725.273 L59.911,733 L67.889,732.983 C78.606,732.96 83.01,731.667 131.471,714.321 L173.074,699.43 L193.92,686.965 L214.766,674.5 L250.316,670.5 L285.867,666.5 L319.367,643.5 L352.867,620.5 L387.863,562.069 L422.858,503.638 L431.094,553.069 L439.33,602.5 L441.81,647.5 C443.174,672.25 444.42,694.742 444.578,697.481 L444.867,702.462 L484.319,642.588 C506.189,609.397 523.989,583.334 524.26,584.106 C524.529,584.873 531.082,605.3 538.823,629.5 L552.897,673.5 L578.781,676.509 L604.666,679.518 L599.632,681.876 C596.307,683.433 591.086,687.758 584.251,694.617 L573.903,705 L583.135,705 C588.213,705 592.367,705.247 592.367,705.548 C592.367,705.85 588.928,710.637 584.725,716.187 L577.083,726.278 L594.975,725.544 L612.867,724.81 L610.803,727.155 C609.668,728.445 606.125,732.538 602.931,736.25 L597.123,743 L601.495,743.008 C603.9,743.013 615.882,742.49 628.122,741.846 C640.362,741.203 650.644,740.943 650.971,741.27 C651.297,741.597 649.456,744.82 646.878,748.432 L642.191,755 L674.623,755 L707.055,755 L707.711,770.159 C708.072,778.496 708.377,792.559 708.389,801.409 L708.411,817.5 L710.367,815 L712.323,812.5 L712.345,815.25 C712.359,817.038 711.842,818 710.867,818 C710.042,818 709.373,818.337 709.38,818.75 C709.398,819.769 723.977,872.098 724.791,874.065 C725.27,875.221 722.099,878.206 712.671,885.474 C696.424,897.999 689.099,901.097 669.812,903.598 C662.422,904.557 656.181,905.148 655.945,904.911 C655.708,904.674 656.141,901.56 656.906,897.99 C657.671,894.421 658.313,890.934 658.332,890.242 C658.352,889.507 653.397,891.476 646.409,894.979 C635.416,900.49 634.078,900.922 629.821,900.339 C627.274,899.99 624.981,899.159 624.726,898.493 C624.47,897.826 625.41,892.749 626.814,887.209 C628.218,881.67 629.367,876.878 629.367,876.56 C629.367,876.242 624.867,878.24 619.367,881 C613.867,883.76 609.367,885.771 609.367,885.469 C609.367,885.167 610.298,883.095 611.437,880.863 C612.575,878.632 613.363,876.669 613.187,876.502 C613.011,876.334 602.067,881.665 588.867,888.348 L564.867,900.5 L548.763,918.5 L532.659,936.5 L541.456,937 L550.253,937.5 L543.167,947.878 L536.081,958.255 L553.974,957.56 C563.815,957.178 572.698,956.626 573.714,956.335 C575.049,955.951 574.142,957.906 570.433,963.402 C565.539,970.654 565.415,971 567.699,971 C569.015,971 583.092,969.651 598.98,968.003 C614.868,966.354 628.893,965.004 630.147,965.003 C632.274,965 632.086,965.507 627.367,972.5 L622.306,980 L625.087,979.967 C626.616,979.949 645.642,977.946 667.367,975.515 L706.867,971.096 L739.367,962.181 C757.242,957.278 783.582,950.631 797.9,947.409 L823.932,941.552 L834.829,916.026 C840.822,901.987 852.138,876.55 859.975,859.5 L874.226,828.5 L887.542,771.155 L900.858,713.809 L912.363,701.738 L923.867,689.667 L928.066,671.116 C930.375,660.912 932.164,652.463 932.041,652.34 C931.918,652.217 928.014,652.964 923.367,654 C918.72,655.036 914.828,655.795 914.72,655.686 C914.516,655.482 920.127,630.401 920.841,628.329 C921.088,627.609 928.305,630.982 939.541,637.067 L957.839,646.978 L1018.952,708.085 L1080.066,769.192 L1085.966,770.588 C1090.229,771.596 1095.09,771.807 1103.477,771.349 L1115.086,770.716 L1120.646,774.608 L1126.207,778.5 L1126.537,789.855 L1126.867,801.209 L1119.867,807.455 C1113.062,813.526 1112.647,813.733 1104.967,814.867 C1100.621,815.508 1096.913,815.879 1096.725,815.691 C1096.537,815.503 1095.776,813.594 1095.033,811.449 L1093.682,807.547 L1091.275,811.261 L1088.867,814.975 L1066.727,814.988 L1044.586,815 L1042.187,807.25 L1039.787,799.5 L1034.679,807.054 L1029.571,814.607 L1016.219,817.635 L1002.867,820.662 L1000.945,811.771 L999.023,802.881 L989.213,812.654 C980.457,821.376 978.654,823.829 972.441,835.464 C965.944,847.63 957.739,867.705 958.821,868.787 C959.084,869.05 970.399,866.49 983.964,863.097 C997.529,859.704 1008.844,857.144 1009.108,857.407 C1009.372,857.671 1007.501,863.826 1004.95,871.083 C1002.4,878.341 1000.506,884.472 1000.741,884.708 C1001.093,885.059 1034.721,876.021 1053.594,870.503 L1058.322,869.121 L1052.284,881.167 C1048.963,887.791 1046.453,893.419 1046.706,893.672 C1046.959,893.925 1062.112,889.578 1080.378,884.011 C1098.645,878.445 1113.775,874.075 1114.001,874.301 C1114.227,874.527 1112.817,878.891 1110.867,884 C1108.917,889.109 1107.538,893.504 1107.802,893.768 C1108.065,894.032 1119.865,891.379 1134.023,887.874 L1159.765,881.5 L1184.816,866.404 C1198.594,858.101 1218.417,845.726 1228.867,838.904 L1247.867,826.5 L1245.253,795.5 L1242.64,764.5 L1231.135,734 L1219.63,703.5 L1216.886,671.5 L1214.142,639.5 L1193.111,594.5 L1172.081,549.5 L1193.348,486.5 C1205.045,451.85 1214.578,422.825 1214.532,422 C1214.486,421.175 1207.267,388.325 1198.488,349 L1182.528,277.5 L1165.67,241.467 L1148.813,205.434 L1121.006,162.217 C1105.713,138.448 1093.06,119 1092.888,119 C1092.716,119 1081.953,133.87 1068.971,152.044 M571.36,253.749 L571.354,284.5 L564.269,288.359 C560.372,290.481 557.563,292.592 558.026,293.05 C559.638,294.647 653.869,358.819 654.169,358.526007 C654.336,358.362 647.136,335.1 638.169,306.832 L621.867,255.435 L605.867,245.176 C597.067,239.534 585.704,232.236 580.617,228.958 L571.367,222.997 L571.36,253.749 M513.367,360.835 L504.867,365.658 L481.367,367.878 C468.442,369.1 456.967,370.526 455.867,371.048 C454.767,371.569 452.177,372.567 450.112,373.264 L446.356,374.532 L455.612,381.495 C464.392,388.1 467.816,389.729 522.286,413.227 C553.866,426.85 579.816,437.884 579.953,437.747 C580.369,437.331 523.644,356.592 522.724,356.292 C522.253,356.138 518.042,358.182 513.367,360.835 M164.867,386.923 L157.867,388.623 L164.04,391.787 L170.213,394.951 L178.624,392.777 L187.034,390.603 L181.111,387.801 C174.383,384.62 174.358,384.618 164.867,386.923 M145.45,559.362 C145.68,559.562 147.869,559.981 150.315,560.294 C153.193,560.662 154.252,560.539 153.315,559.947 C151.979,559.101 144.512,558.547 145.45,559.362 M984.446,608.583 C984.494,609.748 984.731,609.985 985.05,609.188 C985.339,608.466 985.303,607.603 984.971,607.271 C984.639,606.939 984.403,607.529 984.446,608.583 M978.617,632.148 C974.168,650.242 973.483,654.258 974.125,658.47 C974.872,663.364 974.949,663.453 979.215,664.297 C981.598,664.768 983.739,664.961 983.974,664.727 C984.208,664.492 984.28,652.262 984.134,637.548 L983.867,610.796 L978.617,632.148 M77.443,675.75 C77.485,676.163 78.126,678.075 78.867,680 L80.215,683.5 L80.291,679.25 C80.347,676.105 79.977,675 78.867,675 C78.042,675 77.401,675.337 77.443,675.75 M222.025,744.625 C219.047,750.696 218.992,752.177 221.861,749.006 C224.486,746.106 225.423,746.54 224.188,750.083 C223.385,752.387 222.639,753.043 221.24,752.677 C219.634,752.257 219.363,752.779 219.341,756.344 C219.255,770.211 223.838,862.606 224.639,863.131 C225.232,863.52 225.325,867.988 224.882,874.772 L224.163,885.78 L215.515,886.444 C205.795,887.189 191.024,888.84 187.617,889.562 C185.519,890.006 185.367,889.698 185.367,885.019 C185.367,882.259 185.111,880 184.797,880 C184.484,880 181.335,882.587 177.8,885.749 C171.387,891.486 171.338,891.508 156.619,895.222 C148.506,897.27 141.305,898.958 140.617,898.973 C139.688,898.993 139.367,896.048 139.367,887.5 C139.367,881.175 139.117,876 138.811,876 C138.505,876 132.345,881.4 125.121,888 L111.986,900 L106.604,900 L101.223,900 L101.931,888.5 C102.32,882.175 102.407,877 102.124,877 C101.84,877 95.29,883.908 87.566,892.352 L73.525,907.703 L62.941,928.852 L52.358,950 L55.612,949.949 C57.402,949.921 65.842,949.083 74.367,948.087 C82.892,947.091 89.968,946.352 90.091,946.445 C90.214,946.538 88.292,951.942 85.822,958.455 C83.351,964.967 81.52,970.486 81.753,970.719 C81.986,970.953 92.984,967.961 106.193,964.072 C119.402,960.182 130.667,957 131.225,957 C131.783,957 130.921,960.902 129.309,965.672 C127.697,970.442 126.558,974.524 126.778,974.745 C126.999,974.965 140.642,971.513 157.098,967.073 C173.553,962.633 187.32,959 187.692,959 C188.063,959 188.367,962.652 188.367,967.117 C188.367,974.363 188.555,975.182 190.117,974.754 C191.08,974.491 206.042,969.833 223.367,964.403 L254.867,954.531 L269.678,943.795 C279.467,936.698 290.161,930.103 301.222,924.341 L317.956,915.625 L321.856,884.705 L325.755,853.785 L329.85,851.796 L333.945,849.806 L336.697,836.653 C338.211,829.419 342.514,809.395 346.26,792.155 L353.07,760.81 L326.379,787.488 L299.688,814.165 L287.368,779.583 C280.591,760.562 274.651,745 274.167,745 C273.683,745 264.652,747.475 254.098,750.5 C243.543,753.525 234.399,756 233.776,756 C233.154,756 231.191,752.513 229.415,748.25 C227.639,743.987 225.869,740.165 225.482,739.756 C225.095,739.346 223.539,741.537 222.025,744.625"/><path fill-opacity=".333" d="M1175.861,340.053 L1168.93,401.329 L1142.398,452.421 C1116.065,503.132 1115.71,503.744 1094.759,534.588 L1073.652,565.665 L1064.363,607.582 C1059.255,630.637 1054.704,649.744 1054.25,650.041 C1053.158,650.757 1157.672,754.576 1163.616,758.681 C1166.149,760.431 1176.097,765.315 1185.723,769.536 C1196.121,774.095 1203.049,777.674 1202.794,778.355 C1202.282,779.716 1205.94,786 1207.245,786 C1208.126,786 1211.974,799.836 1211.236,800.354 C1211.033,800.497 1208.704,801.263 1206.061,802.057 L1201.256,803.5 L1192.344,823 C1183.923,841.427 1182.761,843.371 1171.232,858.326 C1163.152,868.807 1158.795,873.704 1158.333,872.826 C1157.949,872.097 1155.461,861.001 1152.803,848.169 L1147.97,824.838 L1135.825,837.169 L1123.68,849.5 L1119.32,861.389 L1114.96,873.278 L1111.224,861.889 C1109.169,855.625 1104.408,840.841 1100.643,829.035 L1093.798,807.57 L1084.832,820.512 C1079.901,827.63 1072.246,840.566 1067.819,849.259 L1059.772,865.064 L1050.438,834.282 C1045.304,817.352 1040.787,802.635 1040.4,801.578 C1039.833,800.032 1037.734,802.522 1029.653,814.329 C1020.738,827.354 1019.124,830.406 1015.284,841.511 C1012.895,848.42 1010.657,853.456 1010.285,852.76 C1009.915,852.067 1007.216,840.575 1004.286,827.222 L998.96,802.943 L989.181,812.685 C980.461,821.373 978.649,823.838 972.441,835.464 C965.944,847.63 957.739,867.705 958.821,868.787 C959.084,869.05 970.399,866.49 983.964,863.097 C997.529,859.704 1008.844,857.144 1009.108,857.407 C1009.372,857.671 1007.501,863.826 1004.95,871.083 C1002.4,878.341 1000.506,884.472 1000.741,884.708 C1001.093,885.059 1034.721,876.021 1053.594,870.503 L1058.322,869.121 L1052.284,881.167 C1048.963,887.791 1046.453,893.419 1046.706,893.672 C1046.959,893.925 1062.112,889.578 1080.378,884.011 C1098.645,878.445 1113.775,874.075 1114.001,874.301 C1114.227,874.527 1112.817,878.891 1110.867,884 C1108.917,889.109 1107.538,893.504 1107.802,893.768 C1108.065,894.032 1119.865,891.379 1134.023,887.874 L1159.765,881.5 L1184.816,866.404 C1198.594,858.101 1218.417,845.726 1228.867,838.904 L1247.867,826.5 L1245.253,795.5 L1242.64,764.5 L1231.135,734 L1219.63,703.5 L1216.886,671.5 L1214.142,639.5 L1193.111,594.5 L1172.081,549.5 L1193.334,486.5 C1205.023,451.85 1214.601,423.05 1214.618,422.5 C1214.644,421.67 1183.85,282.311 1183.05,279.631895 C1182.909,279.164 1179.673,306.351 1175.861,340.053 M755.367,361.204 C755.367,361.882 762.093,400.7 770.313,447.468 C778.533,494.236 788.228,550.05 791.857,571.5 L798.455,610.5 L809.042,636 C814.865,650.025 819.953,661.725 820.351,662 C820.748,662.275 814.164,694.675 805.72,734 C794.718,785.243 789.899,809.75 788.712,820.5 L787.057,835.5 L794.37,862.448 L801.682,889.397 L799.006,900.448 C797.534,906.527 796.339,912.202 796.349,913.06 C796.363,914.256 793.619,915.169 784.617,916.966 C778.155,918.255 771.517,919.985 769.867,920.81 C768.217,921.634 760.372,926.581 752.433,931.803 C744.494,937.025 730.769,944.818 721.933,949.121 L705.867,956.946 L705.597,935.473 C705.449,923.663 704.967,914 704.525,914 C704.084,914 692.055,919.401 677.795,926.002 C662.058,933.286 650.983,939.007 649.617,940.557 C648.38,941.962 647.367,942.918 647.367,942.681 C647.367,942.444 649.842,930.723 652.867,916.635 C655.892,902.546 658.367,890.563 658.367,890.004 C658.367,889.446 650.267,893.044 640.367,898 C630.467,902.956 622.367,906.535 622.367,905.954 C622.367,905.374 623.942,898.644 625.867,891 C627.792,883.356 629.367,876.85 629.367,876.542 C629.367,876.234 624.867,878.24 619.367,881 C613.867,883.76 609.367,885.771 609.367,885.469 C609.367,885.167 610.298,883.095 611.437,880.863 C612.575,878.632 613.363,876.669 613.187,876.502 C613.011,876.334 602.067,881.665 588.867,888.348 L564.867,900.5 L548.763,918.5 L532.659,936.5 L541.456,937 L550.253,937.5 L543.167,947.878 L536.081,958.255 L553.974,957.56 C563.815,957.178 572.698,956.626 573.714,956.335 C575.049,955.951 574.142,957.906 570.433,963.402 C565.539,970.654 565.415,971 567.699,971 C569.015,971 583.092,969.651 598.98,968.003 C614.868,966.354 628.893,965.004 630.147,965.003 C632.274,965 632.086,965.507 627.367,972.5 L622.306,980 L625.087,979.967 C626.616,979.949 645.642,977.946 667.367,975.515 L706.867,971.096 L739.367,962.181 C757.242,957.278 783.582,950.631 797.9,947.409 L823.932,941.552 L834.829,916.026 C840.822,901.987 852.138,876.55 859.975,859.5 L874.226,828.5 L887.542,771.155 L900.858,713.809 L912.363,701.738 L923.867,689.667 L928.066,671.116 C930.375,660.912 932.164,652.463 932.041,652.34 C931.918,652.217 928.014,652.964 923.367,654 C918.72,655.036 914.828,655.795 914.72,655.686 C914.516,655.482 920.127,630.401 920.841,628.329 C921.207,627.263 954.787,644.614 958.793,647.939 C960.091,649.016 960.482,648.846 961.273,646.859 C961.789,645.561 963.95,640.225 966.075,635 L969.937,625.5 L968.756,616.789 C967.578,608.092 967.583,608.048 971.854,591.052 C974.207,581.688 975.847,574.196 975.5,574.402 C975.152,574.608 966.324,555.929 955.883,532.893 L936.898,491.008 L919.185,478.254 L901.471,465.5 L901.419,460.821 L901.367,456.142 L896.117,455.091 C893.229,454.513 879.656,452.009 865.953,449.527 C850.431,446.715 840.398,444.433 839.339,443.475 C838.404,442.628 836.587,438.463 835.301,434.218 L832.964,426.5 L794.165,393.236 C772.826,374.941 755.367,360.526 755.367,361.204 M394.005,482.222 C393.669,483.475 393.388,485.738 393.381,487.25 C393.373,488.762 392.881,490 392.288,490 C391.633,490 391.441,491.083 391.8,492.75 C392.125,494.262 391.261,504.005 389.879,514.401 C388.497,524.796 387.367,533.909 387.367,534.651 C387.367,535.393 386.546,536 385.543,536 C384.149,536 383.165,534.232 381.367,528.5 C380.073,524.375 378.731,521 378.384,521 C376.406,521 359.404,543.92 352.244,556.239 L343.909,570.58 L322.488,574.488 L301.067,578.397 L282.467,591.87 C272.237,599.28 263.675,605.496 263.44,605.682 C263.205,605.868 263.847,606.63 264.866,607.376 C266.59,608.636 265.968,609.562 255.979,620.615 C243.824,634.066 244.936,633.53 223.867,636.08 L213.867,637.29 L189.367,625.033 C175.892,618.292 164.703,612.625 164.502,612.44 C164.301,612.255 172.524,602.63 182.774,591.052 C198.338,573.471 201.02,570 199.039,570 C195.583,570 190.825,573.811 172.124,591.56 L155.38,607.45 L117.124,617.685 C96.082,623.314 77.389,628.613 75.583,629.46 C73.777,630.307 69.684,631 66.488,631 C61.942,631 60.282,631.437 58.863,633.005 C57.077,634.978 56.933,634.838 49.695,624.005 C45.65,617.952 42.095,613 41.793,613 C41.492,613 36.8,616.6 31.367,621 C25.934,625.4 21.182,629 20.808,629 C20.435,629 17.467,627.383 14.213,625.406 C10.758,623.307 7.635,622.067 6.705,622.424 C5.83,622.76 4.417,622.464 3.565,621.767 C2.713,621.07 3.558,623.425 5.442,627 C8.548,632.894 9.799,634.133 18.867,640.288 C33.248,650.05 33.409,650.185 27.975,647.956 C25.285,646.853 22.891,646.142 22.656,646.378 C21.703,647.331 26.471,654.758 30.534,658.649 C34.653,662.594 35.932,663.101 56.392,668.899 L77.916,675 L100.423,675 L122.929,675 L140.867,669 C150.733,665.7 159.104,663 159.469,663 C159.835,663 160.361,663.868 160.638,664.929 C161.072,666.586 159.219,667.664 147.505,672.571 C130.328,679.765 127.868,680.973 108.904,691.527 C100.264,696.335 93.367,700.801 93.367,701.587 C93.367,702.364 93.637,703 93.968,703 C94.453,703 109.326,698.767 117.095,696.418 C118.07,696.124 117.067,696.869 114.867,698.075 C112.667,699.281 106.278,702.907 100.67,706.134 C95.061,709.36 89.744,712 88.853,712 C87.962,712 85.791,713.1 84.028,714.445 C82.266,715.789 78.583,717.375 75.845,717.968 C69.465,719.351 65.268,721.03 65.848,721.969 C66.098,722.375 69.671,723.282 73.787,723.986 L81.271,725.267 L89.069,720.449 C93.358,717.799 97.992,714.931 99.367,714.076 C100.742,713.22 98.717,716.07 94.867,720.41 C91.017,724.749 86.517,728.929 84.867,729.699 L81.867,731.099 L84.867,730.468 C86.517,730.121 106.992,723.017 130.367,714.681 L172.867,699.526 L193.926,686.958 L214.986,674.391 L250.351,670.502 L285.716,666.613 L319.291,643.556 L352.867,620.5 L387.863,562.069 L422.858,503.638 L431.094,553.069 L439.33,602.5 L441.81,647.5 C443.174,672.25 444.42,694.742 444.578,697.481 L444.867,702.462 L484.319,642.588 C506.189,609.397 523.989,583.334 524.26,584.106 C524.529,584.873 531.082,605.3 538.823,629.5 L552.897,673.5 L583.882,677.144 C612.63,680.525 614.985,680.67 616.509,679.144 C617.411,678.24 631.177,662.607 647.099,644.404 L676.048,611.308 L671.853,608.654 L667.657,606 L620.095,606 L572.534,606 L571.694,608.519 C570.915,610.856 569.841,609.684 556.877,592.351 C549.189,582.073 542.892,573.075 542.883,572.355 C542.874,571.635 538.142,566.932 532.367,561.905 C526.592,556.878 521.111,552.101 520.187,551.29 C518.667,549.957 518.56,550.023 519.071,551.978 C519.619,554.073 519.533,554.096 516.252,552.713 C514.39,551.928 504.689,547.789 494.694,543.515 L476.522,535.744 L478.091,532.453 L479.66,529.162 L464.764,511.749 L449.867,494.337 L435.367,490.516 C427.392,488.414 419.742,486.155 418.367,485.496 C416.992,484.837 411.817,483.53 406.867,482.591 C401.917,481.653 397.135,480.673 396.241,480.414 C395.171,480.105 394.406,480.723 394.005,482.222 M42.014,646.117 C37.695,648.323 34.339,650.305 34.556,650.523 C34.773,650.74 44.774,654.311 56.78,658.459 C78.508,665.965 78.657,666 88.738,665.936 L98.867,665.872 L95.367,664.253 C93.442,663.362 82.642,658.109 71.367,652.578 C60.092,647.048 50.642,642.429 50.367,642.314 C50.092,642.2 46.333,643.911 42.014,646.117 M689.407,706.324 L673.947,710.5 L658.228,732.5 L642.509,754.5 L674.59,754.764 C692.235,754.909 706.856,754.845 707.08,754.621 C707.727,753.974 706.129,701.992 705.465,702.073903 C705.136,702.115 697.91,704.028 689.407,706.324 M73.867,732 L70.867,732.763 L73.867,732.782 C75.517,732.792 77.992,732.44 79.367,732 L81.867,731.199 L79.367,731.218 C77.992,731.228 75.517,731.58 73.867,732 M326.36,787.521 L299.867,814.042 L298.662,811.271 C297.688,809.032 297.448,814.64 297.407,840.5 C297.379,858.1 297.07,876.829 296.72,882.119 L296.083,891.738 L288.475,895.472 L280.867,899.206 L273.367,911.3 C266.413,922.513 252.555,941.574 251.9,940.826 C251.743,940.647 249.673,931.612 247.299,920.75 C244.926,909.888 242.732,901.015 242.425,901.033 C242.118,901.051 234.387,906.625 225.245,913.42 L208.623,925.774 L198.895,941.954 C193.545,950.852 189.05,957.991 188.907,957.817 C188.765,957.642 187.83,940.052 186.83,918.726 C185.83,897.4 184.702,880.075 184.324,880.226 C183.946,880.377 175.297,888.012 165.104,897.193 L146.572,913.886 L143.048,924.193 L139.525,934.5 L139.446,905.25 C139.403,889.163 139.105,876 138.785,876 C138.465,876 130.865,882.738 121.896,890.973 C105.674,905.869 105.575,905.986 102.835,913.497 C101.321,917.65 99.978,920.925 99.852,920.774 C99.725,920.623 100.252,912.175 101.023,902 C103.216,873.046 104.402,873.919 87.696,892.198 L73.525,907.703 L62.941,928.852 L52.358,950 L55.612,949.949 C57.402,949.921 65.842,949.083 74.367,948.087 C82.892,947.091 89.968,946.352 90.091,946.445 C90.214,946.538 88.292,951.942 85.822,958.455 C83.351,964.967 81.52,970.486 81.753,970.719 C81.986,970.953 92.984,967.961 106.193,964.072 C119.402,960.182 130.667,957 131.225,957 C131.783,957 130.921,960.902 129.309,965.672 C127.697,970.442 126.558,974.524 126.778,974.745 C126.999,974.965 140.642,971.513 157.098,967.073 C173.553,962.633 187.32,959 187.692,959 C188.063,959 188.367,962.652 188.367,967.117 C188.367,974.363 188.555,975.182 190.117,974.754 C191.08,974.491 206.042,969.833 223.367,964.403 L254.867,954.531 L269.678,943.795 C279.467,936.698 290.161,930.103 301.222,924.341 L317.956,915.625 L321.856,884.705 L325.755,853.785 L329.85,851.796 L333.945,849.806 L336.697,836.653 C338.211,829.419 342.504,809.438 346.239,792.25 C349.974,775.063 352.99,761 352.941589,761 C352.893,761 340.931,772.934 326.36,787.521"/></g></svg>