<svg xmlns="http://www.w3.org/2000/svg" width="1753.181" height="765.936" viewBox="0 0 1753.181 765.936"><g fill="#ABABAB" fill-rule="evenodd"><path fill-opacity=".502" d="M181.105129,16.2501746 L117.115129,32.4111746 L73.1681285,79.8121746 L29.2211285,127.213175 L14.4751285,173.795175 C6.36412851,199.415175 -0.146871492,220.501175 0.00252031451,220.653175 C0.157128508,220.806175 10.6121285,208.213175 23.2381285,192.671175 C40.4941285,171.428175 46.9531285,164.162175 49.2511285,163.407175 C51.8051285,162.568175 52.1321285,162.123175 51.2361285,160.702175 C49.9671285,158.690175 52.6201285,155.413175 59.2131285,150.848175 L63.3291285,147.998175 L65.6371285,150.455175 C66.9061285,151.806175 68.2771285,152.911175 68.6841285,152.911175 C69.0911285,152.911175 71.0781285,149.953175 73.1001285,146.337175 C76.4231285,140.395175 77.7061285,139.163175 86.4361285,133.528175 C91.7491285,130.099175 97.6081285,126.420175 99.4551285,125.352175 L102.814129,123.411175 L104.455129,125.857175 C109.283129,133.052175 108.379129,133.439175 117.984129,120.067175 C122.782129,113.387175 127.470129,107.517175 128.402129,107.023175 C130.683129,105.812175 241.002129,72.9081746 242.732129,72.9221746 C243.482129,72.9281746 275.146129,89.7611746 313.096129,110.329175 L382.096129,147.725175 L397.321129,175.568175 C405.695129,190.882175 412.557129,203.733175 412.571129,204.127175 C412.585129,204.521175 405.270129,216.013175 396.317129,229.664175 L380.038129,254.485175 L372.626129,279.608175 L365.214129,304.730175 L343.905129,314.980175 L322.596129,325.230175 L322.596129,421.487175 L322.596129,517.745175 L392.846129,560.649175 C431.483129,584.246175 470.504129,607.554175 479.559129,612.445175 C488.613129,617.335175 496.837129,622.152175 497.833129,623.148175 C498.829129,624.144175 501.957129,625.871175 504.783129,626.985175 C507.610129,628.099175 516.633129,632.653175 524.834129,637.106175 C538.735129,644.653175 539.970129,645.132175 543.065129,644.182175 C546.092129,643.253175 549.384129,644.319175 580.433129,656.287175 L614.482129,669.411175 L614.789129,676.911175 L615.096129,684.411175 L715.096129,725.089175 C770.096129,747.461175 815.791129,765.799175 816.640129,765.839244 C817.489129,765.878175 851.914129,749.423175 893.140129,729.272175 C934.366129,709.121175 968.549129,692.621175 969.102129,692.605175 C969.655129,692.590175 997.330129,702.841175 1030.60213,715.386175 C1063.87413,727.930175 1092.54413,738.651175 1094.31413,739.210175 C1097.28113,740.148175 1102.35013,738.237175 1159.03713,714.819175 C1192.86413,700.845175 1220.55513,688.961175 1220.57213,688.411175 C1220.59013,687.861175 1265.36613,671.211175 1320.07513,651.411175 L1419.54613,615.411175 L1419.57113,563.661175 C1419.58513,535.199175 1419.87413,511.911175 1420.21313,511.911175 C1420.55213,511.911175 1429.89013,516.140175 1440.96313,521.308175 L1461.09613,530.706175 L1484.59613,534.348175 C1497.52113,536.351175 1527.74313,541.797175 1551.75613,546.451175 C1575.76913,551.104175 1596.46913,554.927175 1597.75613,554.947175 C1599.04313,554.967175 1626.64613,550.366175 1659.09613,544.723175 L1718.09613,534.462175 L1735.09613,523.565175 C1744.44613,517.571175 1752.54613,512.245175 1753.09613,511.727175 C1754.10213,510.781175 1746.18213,514.075175 1728.59613,521.914175 L1719.09613,526.149175 L1667.59613,532.505175 C1639.27113,536.001175 1614.54713,538.872175 1612.65313,538.886175 C1610.76013,538.900175 1580.83513,531.249175 1546.15313,521.885175 L1483.09613,504.859175 L1451.33513,489.156175 L1419.57413,473.454175 L1419.83513,433.001175 L1420.09613,392.547175 L1358.37213,351.479175 L1296.64813,310.411175 L1296.63613,302.411175 L1296.62413,294.411175 L1329.36013,284.404175 L1362.09613,274.397175 L1403.12013,282.904175 L1444.14513,291.411175 L1481.62013,325.911175 C1512.47313,354.314175 1521.21713,362.970175 1531.09613,374.892175 C1539.87713,385.488175 1543.16413,388.841175 1543.34913,387.392175 C1543.48813,386.302175 1543.03813,379.781175 1542.34913,372.901175 L1541.09613,360.391175 L1503.09613,315.401175 L1465.09613,270.411175 L1406.59613,251.089175 C1374.42113,240.462175 1346.74613,231.804175 1345.09613,231.848175 C1343.44613,231.893175 1326.12113,233.946175 1306.59613,236.411175 C1287.07113,238.876175 1269.79613,240.897175 1268.20613,240.902175 C1266.39913,240.907175 1258.46913,237.112175 1247.04113,230.773175 L1228.76513,220.636175 L1213.44413,202.023175 L1198.12313,183.411175 L1139.60913,155.654175 C1107.42713,140.387175 1080.42113,127.895175 1079.59613,127.894175 C1078.77113,127.893175 1057.67413,132.264175 1032.71413,137.607175 L987.332129,147.322175 L976.339129,156.116175 C970.294129,160.953175 964.889129,164.911175 964.330129,164.911175 C963.771129,164.911175 941.968129,153.143175 915.881129,138.761175 L868.449129,112.611175 L865.272129,114.145175 C863.525129,114.989175 844.597129,125.377175 823.210129,137.231175 L784.324129,158.782175 L757.312129,145.269175 C742.411129,137.814175 729.522129,131.959175 728.567129,132.208175 C727.614129,132.458175 714.395129,139.696175 699.191129,148.294175 C683.988129,156.892175 671.213129,164.036175 670.803129,164.169175 C670.393129,164.302175 656.303129,156.424175 639.492129,146.661175 C612.234129,130.831175 608.449129,128.915175 604.512129,128.950175 C602.083129,128.971175 589.071129,130.034175 575.596129,131.312175 L551.096129,133.635175 L509.664129,145.913175 L468.231129,158.191175 L466.164129,155.590175 C465.026129,154.159175 453.746129,139.133175 441.096129,122.199175 L418.096129,91.4111746 L333.540129,45.6611746 C287.034129,20.4981746 248.109129,-0.0488253937 247.040129,8.71473367e-05 C245.971129,0.0501746063 216.300129,7.36217461 181.105129,16.2501746 M525.618129,196.063175 C512.706129,199.346175 501.954129,202.219175 501.727129,202.447175 C501.499129,202.675175 505.884129,208.949175 511.471129,216.390175 L521.629129,229.920175 L528.362129,226.508175 C532.066129,224.631175 543.807129,218.155175 554.454129,212.116175 L573.812129,201.136175 L563.349129,195.523175 C557.594129,192.437175 552.033129,189.952175 550.991129,190.002175 C549.949129,190.052175 538.531129,192.779175 525.618129,196.063175 M1039.84613,200.196175 C1036.40913,201.351175 1033.59613,202.674175 1033.59613,203.135175 C1033.59613,205.329175 1036.84713,204.699175 1042.20713,201.467175 C1048.91313,197.424175 1048.59813,197.254175 1039.84613,200.196175 M445.083129,260.533175 C445.915129,262.525175 446.596129,264.325175 446.596129,264.533175 C446.596129,264.741175 447.277129,264.911175 448.110129,264.911175 C449.274129,264.911175 449.011129,263.984175 446.977129,260.911175 C443.694129,255.950175 443.120129,255.835175 445.083129,260.533175 M418.006129,266.462175 C417.506129,267.167175 414.434129,270.729175 411.181129,274.377175 C405.924129,280.271175 405.433129,281.176175 406.765129,282.508175 C408.097129,283.840175 409.619129,283.362175 420.434129,278.209175 L432.604129,272.411175 L425.760129,268.796175 C420.450129,265.990175 418.712129,265.467175 418.006129,266.462175"/><path fill-opacity=".063" d="M181.105129,16.2501746 L117.115129,32.4111746 L73.1681285,79.8121746 L29.2211285,127.213175 L14.4751285,173.795175 C6.36412851,199.415175 -0.146871492,220.501175 0.00252031451,220.653175 C0.157128508,220.806175 10.6121285,208.213175 23.2381285,192.671175 C40.4941285,171.428175 46.9531285,164.162175 49.2511285,163.407175 C51.8051285,162.568175 52.1321285,162.123175 51.2361285,160.702175 C49.9671285,158.690175 52.6201285,155.413175 59.2131285,150.848175 L63.3291285,147.998175 L65.6371285,150.455175 C66.9061285,151.806175 68.2771285,152.911175 68.6841285,152.911175 C69.0911285,152.911175 71.0781285,149.953175 73.1001285,146.337175 C76.4231285,140.395175 77.7061285,139.163175 86.4361285,133.528175 C91.7491285,130.099175 97.6081285,126.420175 99.4551285,125.352175 L102.814129,123.411175 L104.455129,125.857175 C109.283129,133.052175 108.379129,133.439175 117.984129,120.067175 C122.782129,113.387175 127.470129,107.517175 128.402129,107.023175 C130.606129,105.853175 240.961129,72.9111746 242.675129,72.9111746 C243.393129,72.9111746 278.228129,91.4741746 320.087129,114.161175 L396.194129,155.411175 L405.145129,171.362175 C410.068129,180.136175 415.142129,189.172175 416.421129,191.443175 L418.747129,195.573175 L399.473129,224.864175 L380.199129,254.156175 L366.946129,298.748175 C359.657129,323.274175 353.829129,343.477175 353.995129,343.644175 C354.227129,343.875175 388.012129,302.925175 393.096129,296.250175 C393.903129,295.191175 396.383129,295.625175 405.938129,298.499175 C412.451129,300.457175 417.931129,301.909175 418.115129,301.725175 C418.299129,301.541175 415.520129,296.734175 411.939129,291.043175 L405.429129,280.695175 L407.799129,278.053175 C409.103129,276.600175 412.206129,273.158175 414.695129,270.404175 L419.221129,265.397175 L436.630129,274.599175 C446.205129,279.660175 454.165129,283.675175 454.319129,283.521175 C454.473129,283.367175 450.998129,274.628175 446.598129,264.100175 C442.197129,253.572175 438.596129,244.576175 438.596129,244.109175 C438.596129,243.642175 439.658129,242.262175 440.957129,241.042175 L443.318129,238.824175 L450.015129,250.839175 C458.651129,266.333175 488.704129,312.297175 493.357129,317.128175 C496.922129,320.829175 496.932129,320.863175 495.573129,324.980175 C494.277129,328.909175 493.647129,329.394175 482.949129,334.719175 L471.690129,340.324175 L465.668129,337.445175 C460.544129,334.997175 459.269129,334.739175 457.121129,335.718175 C454.828129,336.762175 454.596129,337.421175 454.596129,342.886175 L454.596129,348.904175 L428.778129,361.820175 L402.961129,374.736175 L398.156129,371.746175 C395.514129,370.101175 393.013129,369.128175 392.599129,369.583175 C392.185129,370.038175 388.865129,379.411175 385.221129,390.412175 L378.596129,410.412175 L378.596129,452.055175 C378.596129,484.455175 378.319129,493.800175 377.346129,494.159175 C376.659129,494.413175 368.896129,495.892175 360.096129,497.444175 C344.405129,500.212175 343.986129,500.352175 338.406129,504.689175 C333.126129,508.793175 332.351129,509.087175 327.655129,508.762175 L322.595129,508.411175 L322.595129,513.078175 L322.596129,517.745175 L392.846129,560.649175 C431.483129,584.246175 470.504129,607.554175 479.559129,612.445175 C488.613129,617.335175 496.837129,622.152175 497.833129,623.148175 C498.829129,624.144175 501.957129,625.871175 504.783129,626.985175 C507.610129,628.099175 516.633129,632.653175 524.834129,637.106175 C538.735129,644.653175 539.970129,645.132175 543.065129,644.182175 C546.092129,643.253175 549.384129,644.319175 580.433129,656.287175 L614.482129,669.411175 L614.789129,676.911175 L615.096129,684.411175 L715.096129,725.089175 C770.096129,747.461175 815.791129,765.799175 816.640129,765.839244 C817.489129,765.878175 851.914129,749.423175 893.140129,729.272175 C934.366129,709.121175 968.549129,692.621175 969.102129,692.605175 C969.655129,692.590175 997.330129,702.841175 1030.60213,715.386175 C1063.87413,727.930175 1092.54413,738.651175 1094.31413,739.210175 C1097.28113,740.148175 1102.35013,738.237175 1159.03713,714.819175 C1192.86413,700.845175 1220.55513,688.961175 1220.57213,688.411175 C1220.59013,687.861175 1265.36613,671.211175 1320.07513,651.411175 L1419.54613,615.411175 L1419.57113,563.661175 C1419.58513,535.199175 1419.85713,511.911175 1420.17713,511.911175 C1420.49613,511.911175 1429.83413,516.125175 1440.92713,521.276175 L1461.09613,530.640175 L1482.09613,533.848175 C1493.64613,535.612175 1523.88313,541.073175 1549.28913,545.983175 C1574.69613,550.894175 1596.52113,554.927175 1597.78913,554.947175 C1599.05813,554.967175 1626.64613,550.366175 1659.09613,544.723175 L1718.09613,534.462175 L1735.09613,523.565175 C1744.44613,517.571175 1752.54613,512.245175 1753.09613,511.727175 C1754.10213,510.781175 1746.18213,514.075175 1728.59613,521.914175 L1719.09613,526.149175 L1667.59613,532.505175 C1639.27113,536.001175 1614.54713,538.872175 1612.65313,538.886175 C1610.76013,538.900175 1580.83513,531.249175 1546.15313,521.885175 L1483.09613,504.859175 L1451.33513,489.156175 L1419.57413,473.454175 L1419.83513,433.002175 L1420.09613,392.550175 L1366.34013,356.731175 C1336.77413,337.030175 1312.40013,320.911175 1312.17613,320.911175 C1311.95213,320.911175 1308.72313,324.623175 1305.00013,329.161175 C1301.27713,333.699175 1297.86313,337.839175 1297.41413,338.361175 C1296.96413,338.884175 1296.60213,329.209175 1296.61013,316.861175 L1296.62413,294.411175 L1329.59713,284.312175 L1362.57013,274.212175 L1397.83313,281.564175 C1417.22813,285.607175 1436.69613,289.463175 1441.09613,290.133175 L1449.09613,291.350175 L1466.09613,309.297175 C1475.44613,319.169175 1491.20113,334.707175 1501.10813,343.828175 C1511.01413,352.949175 1521.00813,362.724175 1523.31613,365.552175 C1526.77513,369.788175 1535.50513,375.989175 1541.93013,378.772175 C1542.38813,378.971175 1542.43813,374.973175 1542.04013,369.887175 L1541.31713,360.641175 L1503.20613,315.526175 L1465.09613,270.411175 L1406.59613,251.089175 C1374.42113,240.462175 1346.74613,231.804175 1345.09613,231.848175 C1343.44613,231.893175 1326.12113,233.946175 1306.59613,236.411175 C1287.07113,238.876175 1269.79613,240.897175 1268.20613,240.902175 C1266.39913,240.907175 1258.46913,237.112175 1247.04113,230.773175 L1228.76513,220.636175 L1213.44413,202.023175 L1198.12313,183.411175 L1139.60913,155.654175 C1107.42713,140.387175 1080.42113,127.895175 1079.59613,127.893175 C1077.95513,127.888175 988.293129,146.961175 987.781129,147.423175 C987.608129,147.580175 989.007129,150.765175 990.891129,154.501175 L994.315129,161.294175 L986.720129,167.434175 L979.125129,173.574175 L971.831129,169.640175 L964.536129,165.705175 L952.342129,175.558175 L940.148129,185.411175 L928.416129,205.411175 C921.964129,216.411175 916.534129,225.802175 916.351129,226.280175 C916.167129,226.757175 904.560129,221.878175 890.556129,215.436175 C876.553129,208.994175 864.534129,203.493175 863.846129,203.210175 C862.901129,202.822175 862.596129,204.880175 862.596129,211.647175 L862.596129,220.598175 L849.148129,232.754175 C841.751129,239.441175 835.451129,244.911175 835.148129,244.911175 C834.844129,244.911175 834.565129,231.073175 834.527129,214.161175 L834.458129,183.411175 L813.616129,173.223175 L792.773129,163.036175 L792.116129,172.723175 C791.755129,178.052175 791.315129,182.881175 791.138129,183.455175 C790.961129,184.030175 781.256129,190.232175 769.572129,197.237175 L748.327129,209.975175 L678.639129,169.443175 C614.953129,132.402175 608.569129,128.914175 604.523129,128.950175 C602.088129,128.971175 589.071129,130.034175 575.596129,131.312175 L551.096129,133.635175 L509.664129,145.913175 L468.231129,158.191175 L466.164129,155.590175 C465.026129,154.159175 453.746129,139.133175 441.096129,122.199175 L418.096129,91.4111746 L333.540129,45.6611746 C287.034129,20.4981746 248.109129,-0.0488253937 247.040129,8.71473367e-05 C245.971129,0.0501746063 216.300129,7.36217461 181.105129,16.2501746 M535.846129,191.190175 L476.596129,201.278175 L476.596129,204.594175 C476.596129,208.662175 476.954129,208.685175 489.596129,205.411175 C494.821129,204.058175 499.603129,202.942175 500.223129,202.931175 C503.437129,202.874175 537.203129,253.395175 540.096129,262.589175 L541.096129,265.768175 L552.449129,252.272175 C560.176129,243.087175 564.273129,238.957175 565.276129,239.342175 C566.086129,239.653175 579.060129,248.233175 594.106129,258.409175 C609.153129,268.585175 621.718129,276.911175 622.030129,276.911175 C622.341129,276.911175 622.603129,266.673175 622.611129,254.161175 C622.620129,241.649175 623.024129,230.784175 623.509129,230.018175 C624.206129,228.916175 630.544129,231.952175 653.744129,244.498175 L683.096129,260.373175 L705.311129,306.892175 C718.922129,335.395175 729.957129,359.986175 733.804129,370.388175 C738.074129,381.935175 742.170129,390.890175 746.611129,398.388175 L753.141129,409.411175 L760.868129,410.315175 C765.119129,410.813175 768.591129,411.488175 768.585129,411.815175 C768.579129,412.143175 765.879129,413.963175 762.585129,415.859175 C757.014129,419.066175 755.416129,421.063175 757.425129,422.305175 C757.881129,422.587175 761.827129,420.425175 766.194129,417.501175 L774.134129,412.185175 L787.615129,414.018175 C795.030129,415.025175 801.774129,415.864175 802.602129,415.881175 C804.875129,415.927175 806.917129,410.343175 806.303129,405.763175 C805.947129,403.110175 806.179129,401.624175 806.999129,401.310175 C807.877129,400.973175 808.037129,399.349175 807.560129,395.627175 C807.029129,391.491175 807.222129,390.140175 808.494129,389.077175 C810.491129,387.409175 806.720129,389.555175 789.596129,399.829175 L776.096129,407.929175 L775.096129,403.653175 C774.546129,401.301175 772.634129,396.804175 770.846129,393.659175 C769.058129,390.514175 767.596129,387.709175 767.596129,387.426175 C767.596129,387.143175 773.452129,386.911175 780.609129,386.911175 L793.621129,386.911175 L790.239129,380.161175 C788.005129,375.702175 786.702129,371.483175 786.400129,367.732175 L785.943129,362.053175 L790.752129,364.490175 L795.560129,366.927175 L794.385129,364.347175 C793.527129,362.465175 793.510129,361.582175 794.322129,361.080175 C795.031129,360.642175 784.497129,342.253175 765.292129,310.402175 L735.150129,260.411175 L668.056129,220.661175 C618.477129,191.288175 600.196129,180.936175 598.029129,181.006812 C596.416129,181.060175 568.433129,185.642175 535.846129,191.190175 M1063.84613,192.705175 C1047.20813,197.972175 1033.59613,202.600175 1033.59613,202.989175 C1033.59613,203.379175 1049.10113,212.183175 1068.05113,222.554175 L1102.50613,241.411175 L1102.80113,293.220175 L1103.09613,345.030175 L1144.27413,294.720175 C1169.90013,263.412175 1185.10113,244.052175 1184.52413,243.461175 C1183.55613,242.470175 1183.20513,235.911175 1184.12013,235.911175 C1184.40813,235.911175 1191.27113,240.329175 1199.37013,245.728175 C1207.46913,251.127175 1214.63913,255.867175 1215.30313,256.260175 C1216.21313,256.800175 1216.35613,255.677175 1215.88613,251.693175 L1215.26313,246.411175 L1195.29013,226.919175 L1175.31713,207.427175 L1137.20713,195.194175 C1116.24613,188.466175 1097.97113,182.999175 1096.59613,183.044886 C1095.22113,183.091175 1080.48413,187.438175 1063.84613,192.705175 M807.520129,219.661175 L805.096129,222.411175 L807.846129,219.987175 C809.359129,218.653175 810.596129,217.416175 810.596129,217.237175 C810.596129,216.452175 809.786129,217.091175 807.520129,219.661175 M794.596129,231.411175 C792.167129,233.886175 790.405129,235.911175 790.680129,235.911175 C790.955129,235.911175 793.167129,233.886175 795.596129,231.411175 C798.025129,228.936175 799.787129,226.911175 799.512129,226.911175 C799.237129,226.911175 797.025129,228.936175 794.596129,231.411175"/><path fill-opacity=".151" d="M181.105129,16.2501746 L117.115129,32.4111746 L73.1681285,79.8121746 L29.2211285,127.213175 L14.4751285,173.795175 C6.36412851,199.415175 -0.146871492,220.501175 0.00252031451,220.653175 C0.157128508,220.806175 10.6121285,208.213175 23.2381285,192.671175 C40.4941285,171.428175 46.9531285,164.162175 49.2511285,163.407175 C51.8051285,162.568175 52.1321285,162.123175 51.2361285,160.702175 C49.9671285,158.690175 52.6201285,155.413175 59.2131285,150.848175 L63.3291285,147.998175 L65.6371285,150.455175 C66.9061285,151.806175 68.2771285,152.911175 68.6841285,152.911175 C69.0911285,152.911175 71.0781285,149.953175 73.1001285,146.337175 C76.4231285,140.395175 77.7061285,139.163175 86.4361285,133.528175 C91.7491285,130.099175 97.6081285,126.420175 99.4551285,125.352175 L102.814129,123.411175 L104.455129,125.857175 C109.283129,133.052175 108.379129,133.439175 117.984129,120.067175 C122.782129,113.387175 127.470129,107.517175 128.402129,107.023175 C130.606129,105.853175 240.961129,72.9111746 242.675129,72.9111746 C243.393129,72.9111746 278.228129,91.4741746 320.087129,114.161175 L396.194129,155.411175 L405.145129,171.362175 C410.068129,180.136175 415.142129,189.172175 416.421129,191.443175 L418.747129,195.573175 L399.473129,224.864175 L380.199129,254.156175 L366.946129,298.748175 C359.657129,323.274175 353.829129,343.477175 353.995129,343.644175 C354.227129,343.875175 388.012129,302.925175 393.096129,296.250175 C393.903129,295.191175 396.383129,295.625175 405.938129,298.499175 C412.451129,300.457175 417.931129,301.909175 418.115129,301.725175 C418.299129,301.541175 415.520129,296.734175 411.939129,291.043175 L405.429129,280.695175 L407.799129,278.053175 C409.103129,276.600175 412.206129,273.158175 414.695129,270.404175 L419.221129,265.397175 L436.630129,274.599175 C446.205129,279.660175 454.165129,283.675175 454.319129,283.521175 C454.473129,283.367175 450.998129,274.628175 446.598129,264.100175 C442.197129,253.572175 438.596129,244.576175 438.596129,244.109175 C438.596129,243.642175 439.655129,242.264175 440.950129,241.048175 L443.305129,238.836175 L449.581129,250.123175 C456.724129,262.969175 473.449129,288.911175 474.589129,288.911175 C475.005129,288.911175 479.767129,286.859175 485.171129,284.351175 L494.997129,279.791175 L496.741129,282.101175 C498.444129,284.356175 498.419129,284.447175 495.702129,285.911175 L492.919129,287.411175 L498.513129,296.078175 L504.108129,304.746175 L516.876129,274.294175 L529.644129,243.841175 L525.398129,236.626175 C519.902129,227.286175 501.686129,202.905175 500.223129,202.931175 C499.603129,202.942175 494.821129,204.058175 489.596129,205.411175 C476.954129,208.684175 476.596129,208.662175 476.596129,204.596175 L476.596129,201.280175 L537.346129,191.066175 C570.759129,185.448175 598.741129,180.865175 599.529129,180.881175 C600.316129,180.898175 631.153129,198.798175 668.053129,220.661175 L735.145129,260.411175 L766.121129,311.719175 C783.157129,339.938175 799.886129,368.738175 803.296129,375.719175 C809.393129,388.199175 809.527129,388.653175 811.299129,402.911175 L813.101129,417.411175 L816.724129,407.411175 L820.347129,397.411175 L821.602129,403.661175 C822.292129,407.099175 823.071129,409.911175 823.333129,409.911175 C823.595129,409.911175 828.005129,406.986175 833.133129,403.411175 C838.260129,399.836175 842.950129,396.911175 843.554129,396.911175 C844.159129,396.911175 847.327129,398.261175 850.596129,399.911175 C853.865129,401.561175 856.804129,402.911175 857.128129,402.911175 C857.452129,402.911175 857.429129,399.648175 857.077129,395.661175 C856.530129,389.463175 855.334129,386.016175 848.833129,371.911175 C844.650129,362.836175 836.698129,345.061175 831.162129,332.411175 L821.095129,309.411175 L791.096129,263.411175 L761.096129,217.411175 L685.022129,173.161175 C615.407129,132.669175 608.571129,128.914175 604.522129,128.950175 C602.088129,128.971175 589.071129,130.034175 575.596129,131.312175 L551.096129,133.635175 L509.664129,145.913175 L468.231129,158.191175 L466.164129,155.590175 C465.026129,154.159175 453.746129,139.133175 441.096129,122.199175 L418.096129,91.4111746 L333.540129,45.6611746 C287.034129,20.4981746 248.109129,-0.0488253937 247.040129,8.71473367e-05 C245.971129,0.0501746063 216.300129,7.36217461 181.105129,16.2501746 M1032.09613,137.619175 C1007.89613,142.854175 987.957129,147.262175 987.786015,147.415175 C987.502129,147.674175 1016.33713,205.896175 1017.21813,206.839175 C1017.43813,207.074175 1024.70113,205.056175 1033.35713,202.355175 C1048.88413,197.509175 1049.53313,197.188175 1081.49513,178.544175 C1099.31513,168.150175 1114.61513,159.472175 1115.49513,159.260175 C1116.37613,159.048175 1138.92113,170.951175 1165.59613,185.711175 L1214.09613,212.548175 L1214.59613,221.687175 L1215.09613,230.826175 L1209.28713,224.619175 C1203.93513,218.899175 1203.52713,218.647175 1204.09613,221.411175 C1204.50513,223.395175 1208.17113,227.969175 1214.91813,234.911175 C1220.53113,240.686175 1227.06813,247.493175 1229.44613,250.037175 L1233.76913,254.663175 L1229.18213,257.956175 C1226.66013,259.768175 1224.59613,261.551175 1224.59613,261.919175 C1224.59613,262.287175 1237.26013,271.029175 1252.73713,281.346175 C1278.33713,298.409175 1281.09613,300.004175 1283.28113,299.009175 C1287.79713,296.951175 1363.49313,273.911175 1365.79713,273.893175 C1367.06213,273.883175 1391.86313,277.820175 1420.91113,282.642175 L1473.72713,291.409175 L1489.92813,307.910175 C1498.83913,316.986175 1512.81713,331.161175 1520.99013,339.411175 L1535.84913,354.411175 L1526.21213,342.911175 C1520.91113,336.586175 1504.99213,317.686175 1490.83513,300.911175 L1465.09613,270.411175 L1406.59613,251.089175 C1374.42113,240.462175 1346.82413,231.799175 1345.26913,231.839175 C1342.45513,231.911175 1256.84513,242.421175 1251.05913,243.405175 C1248.12513,243.904175 1247.17313,242.893175 1223.06413,213.666175 L1198.10713,183.411175 L1139.60113,155.654175 C1107.42313,140.387175 1079.97113,127.943175 1078.59613,127.998986 C1077.22113,128.056175 1056.29613,132.385175 1032.09613,137.619175 M1221.58113,218.534175 C1222.94813,220.116175 1224.41013,221.839175 1224.83113,222.361175 C1225.25213,222.883175 1225.59613,222.333175 1225.59613,221.137175 C1225.59613,219.689175 1224.50913,218.410175 1222.34613,217.309175 L1219.09613,215.657175 L1221.58113,218.534175 M984.596129,274.630175 L984.596129,290.348175 L990.596129,284.411175 L996.596129,278.474175 L996.596129,287.799175 C996.596129,295.901175 996.804129,297.045175 998.181129,296.517175 C999.053129,296.182175 1007.13713,292.463175 1016.14613,288.253175 L1032.52513,280.598175 L1008.89113,269.754175 C995.892129,263.790175 985.108129,258.911175 984.926129,258.911175 C984.745129,258.911175 984.596129,265.984175 984.596129,274.630175 M987.953129,389.223175 C981.824129,394.826175 977.214129,399.664175 977.707129,399.972175 C978.200129,400.281175 965.102129,407.678175 948.600129,416.409175 C932.098129,425.140175 918.596129,432.556175 918.596129,432.889175 C918.596129,433.222175 921.001129,434.674175 923.940129,436.116175 L929.285129,438.737175 L959.635129,421.609175 L989.985129,404.481175 L1004.75513,412.196175 L1019.52413,419.911175 L1019.81013,410.161175 L1020.09613,400.411175 L1010.70913,389.661175 C1005.54613,383.748175 1000.82113,378.939175 1000.20913,378.972995 C999.597129,379.006175 994.082129,383.619175 987.953129,389.223175 M1291.19013,402.786175 C1288.49113,406.155175 1285.87113,408.911175 1285.36613,408.911175 C1283.56813,408.911175 1285.17613,411.994175 1290.59613,418.936175 L1296.09613,425.981175 L1296.38913,418.400175 C1296.55013,414.231175 1296.55013,407.634175 1296.38913,403.741175 L1296.09613,396.662175 L1291.19013,402.786175 M1249.19113,432.880175 L1221.28613,450.664175 L1215.98413,448.319175 C1213.06813,447.029175 1206.62213,443.935175 1201.65913,441.443175 C1196.69613,438.950175 1192.40213,436.911175 1192.11613,436.911175 C1191.83013,436.911175 1191.59613,447.255175 1191.59613,459.898175 L1191.59613,482.886175 L1187.59613,485.411175 C1184.31313,487.483175 1183.59613,488.500175 1183.59613,491.079175 C1183.59613,494.124175 1187.72213,500.911175 1189.57413,500.911175 C1190.05513,500.911175 1190.65513,500.123175 1190.90713,499.161175 C1191.30013,497.658175 1191.38013,497.687175 1191.48013,499.369175 C1191.57613,500.990175 1192.37213,500.566175 1196.09613,496.911175 L1200.59613,492.495175 L1200.59613,503.793175 L1200.59613,515.092175 L1205.17813,520.455175 C1209.75513,525.813175 1209.75813,525.820175 1207.92813,528.276175 C1206.92013,529.627175 1202.16913,532.532175 1197.37013,534.732175 L1188.64513,538.730175 L1188.37013,523.014175 L1188.09613,507.298175 L1174.59613,522.043175 C1162.61913,535.124175 1160.72913,536.795175 1157.84113,536.849175 C1155.69213,536.890175 1140.66213,543.875175 1113.59113,557.413175 C1091.04413,568.690175 1072.59613,577.760175 1072.59613,577.570175 C1072.59613,577.380175 1073.47013,574.683175 1074.53913,571.576175 L1076.48213,565.928175 L1072.44213,567.989175 C1070.22013,569.123175 1068.28313,569.907175 1068.13713,569.731175 C1067.99113,569.555175 1068.68713,562.436175 1069.68313,553.911175 C1070.67913,545.386175 1071.51713,537.398175 1071.54513,536.161175 C1071.59113,534.134175 1072.09313,533.911175 1076.59613,533.911175 L1081.59613,533.911175 L1081.57413,493.161175 L1081.55113,452.411175 L1068.54413,445.672175 L1055.53713,438.934175 L1055.62913,466.102175 L1055.72013,493.269175 L1052.30013,497.361175 C1049.47213,500.744175 1044.93713,503.401175 1026.10113,512.711175 C1013.57213,518.903175 1003.20613,523.844175 1003.06413,523.690175 C1002.92213,523.537175 1005.48913,519.653175 1008.76813,515.061175 C1012.04713,510.468175 1014.58713,506.570175 1014.41313,506.397175 C1013.87113,505.860175 955.721129,534.488175 953.774129,536.250175 C952.762129,537.166175 951.680129,537.661175 951.369129,537.351175 C951.059129,537.040175 946.597129,538.899175 941.456129,541.482175 C935.157129,544.645175 929.820129,548.297175 925.101129,552.673175 C917.239129,559.963175 914.112129,561.827175 912.481129,560.196175 C911.734129,559.449175 912.819129,558.069175 916.152129,555.524175 C918.755129,553.537175 920.587129,551.911175 920.224129,551.911175 C919.862129,551.911175 914.190129,554.605175 907.621129,557.899175 L895.676129,563.886175 L895.386129,555.917175 L895.096129,547.949175 L876.096129,566.049175 C864.197129,577.384175 856.982129,584.992175 856.791129,586.407175 C856.532129,588.334175 852.576129,590.366175 829.839129,600.252175 C815.183129,606.626175 803.038129,611.686175 802.850129,611.499175 C802.663129,611.311175 804.104129,605.774175 806.053129,599.194175 C808.001129,592.614175 809.596129,586.925175 809.596129,586.551175 C809.596129,586.176175 807.814129,586.779175 805.636129,587.891175 C800.671129,590.423175 800.596129,590.418175 800.596129,587.507175 C800.596129,585.187175 800.184129,585.322175 788.846129,591.367175 C781.057129,595.520175 758.977129,604.652175 723.346129,618.456175 C693.784129,629.909175 669.596129,639.593175 669.596129,639.975175 C669.596129,640.357175 674.546129,642.394175 680.596129,644.501175 C686.646129,646.608175 691.584129,648.575175 691.570129,648.872175 C691.556129,649.168175 678.050129,655.233175 661.557129,662.348175 C645.064129,669.463175 631.913129,675.623175 632.323342,676.037175 C633.376129,677.065175 661.429129,687.911175 663.044129,687.911175 C663.757129,687.911175 678.460129,682.047175 695.718129,674.881175 C714.695129,667.000175 728.001129,662.008175 729.386129,662.250175 C733.547129,662.975175 818.426129,693.378175 818.039129,694.004175 C817.830129,694.341175 806.958129,699.242175 793.878129,704.894175 C780.798129,710.546175 769.943129,715.302175 769.756129,715.464175 C769.569129,715.626175 771.369129,716.150175 773.756129,716.629175 C777.397129,717.360175 773.062129,718.051175 746.846129,720.919175 C729.659129,722.799175 715.607129,724.579175 715.620129,724.874175 C715.649129,725.497175 815.599129,765.941175 817.096129,765.936175 C817.646129,765.936175 865.429129,742.865175 923.280129,714.671175 L1028.46413,663.411175 L1028.78013,648.633175 L1029.09613,633.854175 L1055.20613,650.222175 L1081.31613,666.589175 L1060.43113,676.500175 L1039.54613,686.411175 L1045.82113,686.911175 L1052.09613,687.411175 L1027.33513,695.865175 C1012.22013,701.026175 1003.09913,704.613175 1003.92213,705.074175 C1006.24313,706.373175 1095.75813,739.910175 1096.95713,739.930175 C1099.19013,739.967175 1220.54113,689.392175 1220.57213,688.411175 C1220.59013,687.861175 1265.36213,671.211175 1320.06713,651.411175 L1419.53113,615.411175 L1419.81313,562.831175 L1420.09613,510.250175 L1442.59613,520.145175 C1460.08113,527.834175 1466.99013,530.369175 1473.59613,531.519175 C1478.27113,532.334175 1507.60813,537.930175 1538.78913,543.955175 C1569.97013,549.981175 1596.52013,554.927175 1597.78913,554.947175 C1599.05813,554.967175 1626.64613,550.366175 1659.09613,544.723175 L1718.09613,534.462175 L1735.09613,523.565175 C1744.44613,517.571175 1752.54613,512.245175 1753.09613,511.727175 C1754.10213,510.781175 1746.18213,514.075175 1728.59613,521.914175 L1719.09613,526.149175 L1667.59613,532.505175 C1639.27113,536.001175 1614.54713,538.872175 1612.65313,538.886175 C1610.76013,538.900175 1580.83513,531.249175 1546.15313,521.885175 L1483.09613,504.859175 L1451.37413,489.175175 L1419.65113,473.492175 L1419.37413,460.713175 L1419.09613,447.934175 L1408.10113,455.043175 L1397.10713,462.151175 L1366.75013,446.983175 C1337.42813,432.331175 1336.31113,431.867175 1333.99413,433.386175 C1331.70313,434.887175 1331.04213,434.688175 1319.22413,428.934175 C1306.24113,422.613175 1302.59613,421.678175 1302.59613,424.670175 C1302.59613,425.638175 1301.68913,426.996175 1300.58113,427.688175 C1298.67613,428.878175 1299.33813,429.911175 1312.74513,446.679175 C1320.54313,456.431175 1327.06413,464.588175 1327.23613,464.804175 C1327.40813,465.020175 1331.10313,462.448175 1335.44713,459.087175 L1343.34513,452.977175 L1343.99713,458.742175 C1344.45713,462.803175 1344.19813,465.787175 1343.12313,468.835175 C1342.28313,471.215175 1341.59613,473.488175 1341.59613,473.885175 C1341.59613,474.282175 1343.35413,475.400175 1345.50213,476.368175 L1349.40713,478.130175 L1350.10813,486.270175 C1350.53213,491.189175 1351.40213,495.081175 1352.30713,496.105175 C1353.66113,497.637175 1353.39013,498.280175 1349.45013,502.854175 C1346.35113,506.453175 1344.36513,507.910175 1342.56213,507.911175 C1341.16813,507.911175 1325.03513,514.916175 1306.71113,523.477175 C1288.38713,532.038175 1273.18013,538.829175 1272.91813,538.566175 C1272.65613,538.304175 1273.41113,534.634175 1274.59613,530.411175 C1275.78113,526.188175 1276.53713,522.519175 1276.27713,522.259175 C1276.01613,521.998175 1269.54513,525.805175 1261.89613,530.718175 C1245.07013,541.527175 1243.85513,542.020175 1243.41713,538.224175 L1243.09613,535.446175 L1238.96813,539.185175 L1234.84013,542.923175 L1235.30013,538.667175 C1235.55313,536.326175 1237.41013,517.952175 1239.42813,497.836175 L1243.09613,461.262175 L1239.12513,459.566175 L1235.15413,457.871175 L1256.61613,436.391175 C1268.42013,424.577175 1277.85713,414.953175 1277.58713,415.003973 C1277.31713,415.055175 1264.53913,423.100175 1249.19113,432.880175 M486.096129,466.719175 C480.046129,469.875175 471.834129,474.581175 467.846129,477.178175 C460.649129,481.864175 460.596129,481.930175 460.596129,486.325175 C460.596129,490.431175 460.378129,490.800175 457.596129,491.411175 C454.877129,492.008175 454.596129,492.442175 454.596129,496.039175 C454.596129,499.539175 454.966129,500.163175 457.731129,501.326175 L460.865129,502.644175 L455.981129,503.359175 C450.297129,504.192175 420.161129,516.901175 421.316129,517.979175 C422.444129,519.031175 458.620129,533.911175 460.050129,533.911175 C461.177129,533.911175 467.019129,531.483175 489.346129,521.733175 L498.596129,517.693175 L498.596129,489.302175 C498.596129,473.687175 498.259129,460.927175 497.846129,460.946153 C497.433129,460.966175 492.146129,463.564175 486.096129,466.719175 M602.096129,511.323175 C595.496129,514.805175 582.043129,522.423175 572.200129,528.251175 C554.701129,538.614175 554.367129,538.873175 557.200129,539.929175 C573.478129,545.998175 584.596129,550.528175 584.596129,551.091175 C584.596129,551.469175 565.246129,561.497175 541.596129,573.376175 L498.596129,594.975175 L498.596129,584.502175 L498.596129,574.029175 L479.550129,586.148175 C463.932129,596.086175 460.557129,598.637175 460.800129,600.324175 C461.026129,601.895175 468.774129,606.575175 493.596129,620.138175 C511.471129,629.905175 529.303129,639.564175 533.222129,641.602175 L540.348129,645.309175 L576.722129,631.944175 C596.728129,624.593175 613.437129,618.290175 613.854129,617.937175 C614.272129,617.583175 614.497129,592.026175 614.354129,561.144175 L614.096129,504.993175 L602.096129,511.323175 M1066.77813,594.756175 C1065.60813,598.355175 1064.75113,601.391175 1064.87313,601.503175 C1064.99613,601.616175 1068.84413,599.818175 1073.42513,597.509175 L1081.75313,593.310175 L1075.33013,590.761175 L1068.90613,588.212175 L1066.77813,594.756175 M1041.34613,609.738175 L1028.59613,613.404175 L1028.59613,616.664175 L1028.59613,619.925175 L1041.84613,613.305175 C1049.13313,609.663175 1055.28413,606.510175 1055.51313,606.297175 C1056.33113,605.538175 1053.92213,606.123175 1041.34613,609.738175 M951.596129,620.411175 C951.596129,624.536175 951.830129,627.911175 952.116129,627.911175 C952.402129,627.911175 956.789129,625.819175 961.866129,623.263175 L971.096129,618.615175 L962.641129,615.763175 C957.991129,614.194175 953.604129,612.911175 952.891129,612.911175 C951.946129,612.911175 951.596129,614.938175 951.596129,620.411175 M612.596129,626.931175 C611.771129,627.453175 609.659129,627.887175 607.902129,627.896175 C604.976129,627.910175 556.997129,644.226175 555.404129,645.749175 C555.023129,646.113175 567.966129,651.543175 584.167129,657.815175 C600.367129,664.086175 613.851129,668.990175 614.129129,668.711175 C614.408129,668.432175 614.515129,658.704175 614.366129,647.093175 C614.130129,628.615175 613.909129,626.101175 612.596129,626.931175"/><path fill-opacity=".317" d="M181.106129,16.2501746 L117.116129,32.4111746 L73.3931285,79.4111746 L29.6711285,126.411175 L25.6551285,138.911175 C23.3451285,146.100175 19.9081285,160.759175 17.5661285,173.411175 C15.3261285,185.511175 13.2571285,196.311175 12.9691285,197.411175 C12.6811285,198.511175 14.2781285,196.486175 16.5181285,192.911175 C18.7571285,189.336175 27.9121285,177.203175 36.8611285,165.948175 L53.1331285,145.485175 L81.2331285,129.374175 C96.6881285,120.514175 114.549129,109.617175 120.923129,105.159175 L132.513129,97.0551746 L178.805129,84.8721746 C204.265129,78.1721746 225.546129,72.3441746 226.096129,71.9211746 C226.646129,71.4981746 231.701129,70.1601746 237.330129,68.9471746 L247.564129,66.7421746 L312.330129,101.998175 C347.951129,121.389175 377.782129,137.212175 378.620129,137.162175 C379.458129,137.111175 385.189129,139.846175 391.355129,143.240175 L402.567129,149.411175 L412.525129,169.583175 L422.483129,189.755175 L401.262129,222.123175 C380.427129,253.903175 379.983129,254.690175 376.827129,265.451175 C373.731129,276.005175 365.242129,315.890175 365.942129,316.590175 C366.129129,316.778175 367.125129,315.014175 368.154129,312.671175 C369.183129,310.328175 377.691129,298.545175 387.060129,286.486175 C402.068129,267.172175 407.563129,261.099175 433.217129,235.486175 C449.234129,219.495175 465.251129,203.072175 468.811129,198.992175 L475.284129,191.573175 L528.190129,184.299175 C557.288129,180.298175 585.534129,176.114175 590.958129,175.001175 C600.354129,173.074175 600.973129,173.059175 604.069129,174.695175 C605.857129,175.639175 636.863129,193.736175 672.972129,214.911175 L738.624129,253.411175 L765.790129,301.911175 C780.732129,328.586175 793.485129,350.861175 794.130129,351.411175 C794.775129,351.961175 795.972129,353.421175 796.789129,354.655175 C798.221129,356.817175 798.489129,356.447175 804.186129,344.435175 C807.436129,337.581175 810.365129,331.959175 810.694129,331.942175 C811.023129,331.925175 812.099129,333.701175 813.086129,335.888175 C814.519129,339.066175 814.633129,340.161175 813.655129,341.340175 C812.359129,342.901175 813.085129,346.911175 814.663129,346.911175 C815.176129,346.911175 815.596129,346.461175 815.596129,345.911175 C815.596129,342.768175 817.860129,346.097175 821.654129,354.817175 L825.964129,364.724175 L832.078129,356.625175 L838.191129,348.527175 L829.644129,328.969175 C821.312129,309.905175 820.339129,308.250175 791.096129,263.411175 L761.096129,217.411175 L685.022129,173.161175 C615.407129,132.669175 608.571129,128.914175 604.522129,128.950175 C602.088129,128.971175 589.071129,130.034175 575.596129,131.312175 L551.096129,133.635175 L509.664129,145.913175 L468.231129,158.191175 L466.164129,155.590175 C465.026129,154.159175 453.746129,139.133175 441.096129,122.199175 L418.096129,91.4111746 L333.540129,45.6611746 C287.034129,20.4981746 248.109129,-0.0488253937 247.040129,8.71473367e-05 C245.971129,0.0501746063 216.300129,7.36217461 181.106129,16.2501746 M114.375129,115.603175 L102.653129,123.134175 L105.673129,127.522175 C107.333129,129.936175 108.865129,131.911175 109.076129,131.911175 C109.287129,131.911175 112.278129,127.974175 115.723129,123.161175 C119.168129,118.349175 123.077129,112.948175 124.410129,111.161175 C125.743129,109.374175 126.667129,107.947175 126.465129,107.992175 C126.262129,108.036175 120.821129,111.461175 114.375129,115.603175 M69.7871285,144.088175 L63.4781285,148.247175 L66.0231285,150.793175 C67.5961285,152.366175 68.8991285,152.970175 69.4321285,152.375175 C70.5501285,151.127175 76.8441285,139.908175 76.4191285,139.920165 C76.2421285,139.925175 73.2571285,141.801175 69.7871285,144.088175 M1058.59613,154.939175 C1044.02113,158.163175 1028.72113,161.918175 1024.59613,163.284175 C1020.47113,164.651175 1013.15913,166.940175 1008.34613,168.372175 C1003.53413,169.804175 999.612129,171.298175 999.632052,171.693175 C999.652129,172.088175 1001.79013,176.420175 1004.38213,181.320175 L1009.09613,190.230175 L1020.60013,196.544175 L1032.10413,202.858175 L1040.64813,200.110175 C1047.08413,198.040175 1057.25613,192.680175 1081.87113,178.387175 C1099.84513,167.950175 1114.56113,159.177175 1114.57315,158.892175 C1114.60113,158.263175 1087.51513,148.833175 1086.09613,148.977175 C1085.54613,149.033175 1073.17113,151.716175 1058.59613,154.939175 M48.0251285,161.990175 C46.1621285,164.048175 46.1691285,164.056175 49.1231285,163.345175 C52.8951285,162.437175 52.9131285,162.419175 51.2721285,161.057175 C50.2101285,160.176175 49.4751285,160.387175 48.0251285,161.990175 M1125.09613,163.150175 C1126.19613,163.933175 1143.29613,173.482175 1163.09613,184.369175 C1182.89613,195.257175 1200.67113,205.108175 1202.59613,206.261175 C1206.04313,208.327175 1206.02113,208.269175 1201.09613,202.470175 C1196.18113,196.681175 1195.51413,196.296175 1161.86413,179.819175 C1143.03613,170.600175 1126.61113,162.758175 1125.36413,162.391175 C1123.15713,161.744175 1123.15013,161.764175 1125.09613,163.150175 M460.943129,218.408175 L445.790129,235.396175 L452.145129,247.404175 C455.641129,254.008175 459.136129,259.820175 459.913129,260.321175 C460.893129,260.952175 463.709129,259.945175 469.106129,257.034175 L476.886129,252.837175 L480.893129,255.489175 L484.899129,258.140175 L484.305129,253.776175 C483.712129,249.416175 483.716129,249.408175 488.404129,246.831175 C505.112129,237.647175 516.596129,231.914175 516.596129,232.758175 C516.596129,233.297175 513.558129,235.417175 509.846129,237.468175 C499.787129,243.026175 500.088129,242.190175 505.349129,249.975175 C509.938129,256.767175 510.044129,256.847175 512.389129,255.311175 C513.698129,254.453175 514.890129,253.900175 515.036129,254.081175 C515.183129,254.263175 516.549129,256.569175 518.071129,259.206175 C519.593129,261.844175 520.993129,263.847175 521.182129,263.659175 C521.370129,263.470175 523.349129,258.931175 525.580129,253.572175 L529.635129,243.827175 L525.394129,236.619175 C519.902129,227.285175 501.686129,202.905175 500.223129,202.931154 C499.603129,202.942175 494.821129,204.058175 489.596129,205.411175 C477.126129,208.640175 476.791129,208.621175 476.409129,204.665175 C476.104129,201.498175 475.733129,201.827175 460.943129,218.408175 M428.696129,254.511175 C423.572129,260.295175 419.610129,265.258175 419.891129,265.540175 C420.798129,266.446175 454.040129,283.801175 454.324129,283.516175 C454.552129,283.288175 438.788129,244.851175 438.201129,244.202175 C438.097129,244.088175 433.820129,248.727175 428.696129,254.511175 M1328.59613,254.012175 C1315.67113,255.602175 1304.19613,257.353175 1303.09613,257.904175 C1301.99613,258.456175 1293.44613,261.198175 1284.09613,263.998175 C1274.74613,266.799175 1266.93913,269.244175 1266.74713,269.433175 C1266.55513,269.621175 1269.82913,275.318175 1274.02113,282.093175 C1281.51013,294.196175 1281.60813,294.440175 1279.64013,296.055175 C1277.87513,297.503175 1277.81613,297.849175 1279.14613,298.952175 C1280.30613,299.915175 1281.23613,299.940175 1283.16913,299.060175 C1287.76313,296.967175 1363.45813,273.911175 1365.79713,273.893175 C1367.06213,273.883175 1391.86313,277.820175 1420.91113,282.642175 L1473.72713,291.409175 L1489.92813,307.910175 C1498.83913,316.986175 1512.81613,331.161175 1520.98913,339.411175 L1535.84713,354.411175 L1525.47213,341.944175 C1515.17213,329.568175 1506.90313,320.585175 1482.44513,295.204175 L1469.71813,281.996175 L1439.55113,271.445175 C1410.40313,261.250175 1408.48113,260.725175 1382.64613,255.902175 C1367.94013,253.157175 1355.05013,250.958175 1354.00213,251.016175 C1352.95413,251.074175 1341.52113,252.422175 1328.59613,254.012175 M1262.77713,283.355175 L1259.45913,285.701175 L1261.71713,287.283175 C1262.95913,288.153175 1264.06813,288.763175 1264.18113,288.638175 C1264.46113,288.329175 1266.47813,280.898175 1266.26513,280.960175 C1266.17213,280.987175 1264.60313,282.065175 1262.77713,283.355175 M399.761129,288.096175 C396.943129,291.537175 394.965129,294.649175 395.367129,295.012175 C396.291129,295.847175 417.683129,302.157175 418.118129,301.722175 C418.588129,301.252175 406.694129,282.464175 405.712129,282.126175 C405.257129,281.969175 402.578129,284.656175 399.761129,288.096175 M1384.34613,470.132175 L1376.59613,475.178175 L1376.59613,482.829175 C1376.59613,491.941175 1374.30813,490.074175 1400.51613,502.350175 C1410.90513,507.216175 1419.19913,510.553175 1419.53813,510.004175 C1419.87913,509.453175 1430.54013,513.600175 1444.11813,519.565175 L1468.09613,530.099175 L1531.59613,542.491175 C1566.52113,549.306175 1596.22113,554.905175 1597.59613,554.933293 C1598.97113,554.960175 1626.64613,550.367175 1659.09613,544.724175 L1718.09613,534.465175 L1733.59613,524.542175 C1756.83213,509.668175 1756.42213,509.284175 1732.15113,523.191175 L1718.20613,531.182175 L1696.15113,533.979175 C1684.02113,535.518175 1658.18913,539.559175 1638.74813,542.959175 L1603.39913,549.142175 L1578.74813,542.583175 C1565.18913,538.976175 1536.26313,532.396175 1514.46813,527.961175 L1474.84013,519.898175 L1447.21813,505.829175 L1419.59613,491.761175 L1419.59613,482.521175 L1419.59613,473.281175 L1416.21513,471.669175 C1413.23513,470.248175 1412.58613,470.230175 1410.75213,471.514175 C1408.85413,472.844175 1407.97013,472.619175 1400.65613,468.941175 C1396.24713,466.725175 1392.51813,464.951175 1392.36813,464.999175 C1392.21813,465.047175 1388.60913,467.357175 1384.34613,470.132175 M1372.16713,509.482175 C1371.30313,510.347175 1370.59613,511.822175 1370.59613,512.760175 C1370.59613,513.698175 1369.98213,515.354175 1369.23213,516.438175 C1368.48213,517.523175 1366.59613,524.149175 1365.04013,531.162175 C1363.48513,538.176175 1361.96113,544.274175 1361.65413,544.714175 C1361.34713,545.153175 1336.34613,556.688175 1306.09613,570.346175 C1275.84613,584.004175 1250.86213,595.540175 1250.57613,595.982175 C1249.77013,597.226175 1244.53713,598.993175 1243.52013,598.364175 C1243.02113,598.056175 1240.69713,599.085175 1238.35413,600.651175 C1233.51813,603.884175 1228.59613,606.186175 1228.59613,605.215175 C1228.59613,604.856175 1229.96713,591.312175 1231.64313,575.117175 C1233.31913,558.922175 1234.53213,545.513175 1234.33813,545.320175 C1234.14413,545.126175 1232.77113,550.869175 1231.28713,558.082175 C1229.80213,565.295175 1227.95713,571.695175 1227.18513,572.304175 C1226.41413,572.913175 1224.55413,579.333175 1223.05113,586.572175 L1220.31913,599.732175 L1216.45813,601.473175 C1214.33413,602.431175 1212.59613,603.524175 1212.59613,603.903175 C1212.59613,604.281175 1214.41413,605.191175 1216.63613,605.924175 C1219.19113,606.767175 1220.56913,607.787175 1220.38613,608.697175 C1220.22313,609.506175 1192.12113,623.555175 1156.34613,640.713175 C1121.28413,657.529175 1092.59613,671.555175 1092.59613,671.882175 C1092.59613,672.208175 1105.67813,679.625175 1121.66713,688.364175 C1139.87213,698.313175 1150.24413,704.520175 1149.41713,704.969175 C1148.69013,705.363175 1131.46413,711.381175 1111.13513,718.342175 C1090.80713,725.304175 1074.03913,731.134175 1073.87513,731.299175 C1073.50713,731.666175 1095.69913,739.922175 1097.09613,739.938183 C1099.25613,739.962175 1220.54213,689.349175 1220.57213,688.411175 C1220.59013,687.861175 1265.36613,671.211175 1320.07513,651.411175 L1419.54613,615.411175 L1419.57113,595.546175 L1419.59613,575.681175 L1417.34613,577.124175 C1416.10913,577.918175 1398.22113,589.386175 1377.59613,602.607175 L1340.09613,626.647175 L1327.59613,628.300175 C1315.80513,629.859175 1312.69113,630.829175 1272.66413,645.416175 C1249.32613,653.921175 1230.01313,660.662175 1229.74713,660.395175 C1229.26213,659.911175 1241.39613,619.853175 1242.63513,617.848175 C1243.05613,617.166175 1250.06713,619.498175 1262.16813,624.347175 C1272.55013,628.507175 1281.50513,631.911175 1282.07013,631.911175 C1282.63413,631.911175 1300.64613,624.390175 1322.09613,615.198175 L1361.09613,598.484175 L1368.88913,573.948175 L1376.68213,549.411175 L1376.63913,528.661175 C1376.60313,511.364175 1376.35813,507.911175 1375.16713,507.911175 C1374.38213,507.911175 1373.03213,508.618175 1372.16713,509.482175 M1074.02713,518.023175 C1073.64813,518.635175 1071.37413,527.933175 1068.97213,538.685175 C1066.57113,549.437175 1064.49113,558.337175 1064.35113,558.462175 C1064.21113,558.588175 1045.87113,567.799175 1023.59613,578.932175 C986.704129,597.371175 981.893129,599.505175 969.596129,602.884175 C962.171129,604.925175 955.083129,606.921175 953.846129,607.320175 C951.762129,607.992175 951.596129,607.745175 951.596129,603.978175 C951.596129,601.741175 951.319129,599.911175 950.981129,599.911175 C950.643129,599.911175 946.030129,601.102175 940.731129,602.558175 C935.432129,604.013175 930.424129,605.213175 929.602129,605.224175 C927.263129,605.256175 857.147129,672.927175 856.790129,675.498175 C856.536129,677.320175 853.379129,679.050175 838.583129,685.472175 C828.737129,689.745175 820.899129,693.593175 821.165129,694.023175 C821.431129,694.452175 825.417129,696.031175 830.024129,697.532175 L838.401129,700.260175 L894.748129,680.687175 L951.096129,661.113175 L951.364129,637.012175 C951.549129,620.349175 951.970129,612.911175 952.729129,612.911175 C953.332129,612.911175 961.578129,615.386175 971.052129,618.411175 C980.526129,621.436175 988.912129,623.937175 989.687129,623.968175 C990.462129,623.999175 1007.54613,619.387175 1027.65113,613.718175 L1064.20613,603.411175 L1066.99513,577.911175 C1068.52913,563.886175 1070.25513,548.248175 1070.83113,543.161175 L1071.87813,533.911175 L1076.73713,533.911175 L1081.59613,533.911175 L1081.59613,525.411175 L1081.59613,516.911175 L1078.15513,516.911175 C1076.26213,516.911175 1074.40513,517.412175 1074.02713,518.023175 M517.608113,632.676175 C517.614129,633.080175 522.576129,636.032175 528.634129,639.235175 C537.743129,644.051175 540.180129,644.942175 542.721129,644.384175 C546.684129,643.513175 545.797129,642.809175 536.096129,639.121175 C531.696129,637.448175 525.734129,635.148175 522.846129,634.010175 C519.958129,632.871175 517.601129,632.271175 517.608113,632.676175 M945.596129,693.495175 C940.921129,697.089175 934.295129,701.328175 930.871129,702.917175 C927.447129,704.505175 906.972129,714.004175 885.371129,724.025175 C861.061129,735.302175 844.381129,743.635175 841.596129,745.892175 C839.121129,747.898175 836.528129,749.878175 835.834129,750.292175 C835.140129,750.705175 825.331129,752.085175 814.036129,753.359175 C802.742129,754.632175 793.300129,755.874175 793.054129,756.119175 C792.569129,756.605175 815.475129,765.911175 817.156129,765.911175 C818.023129,765.911175 967.509129,693.280175 968.403129,692.424175 C968.708129,692.132175 955.493129,686.888175 954.575129,686.935847 C954.311129,686.950175 950.271129,689.902175 945.596129,693.495175"/></g></svg>