<svg xmlns="http://www.w3.org/2000/svg" width="550.065" height="971.694" viewBox="0 0 550.065 971.694"><g fill="#ABABAB" fill-rule="evenodd"><path fill-opacity=".239" d="M366.452,18.682158 C358.004,29.981158 350.953,39.226158 350.783,39.226158 C350.612,39.226158 345.205,36.751158 338.767,33.726158 C326.236,27.838158 325.32,27.549158 325.297,29.476158 C325.288,30.164158 324.895,31.336158 324.422,32.082158 C323.757,33.131158 321.153,31.822158 312.937,26.310158 L302.312,19.181158 L302.335,24.454158 C302.347,27.353158 302.792,35.319158 303.324,42.154158 C303.855,48.989158 304.1,54.771158 303.869,55.002158 C303.637,55.234158 293.855,49.685158 282.13,42.672158 C270.405,35.660158 260.405,29.696158 259.907,29.419158 C258.787,28.797158 258.661,28.590158 269.859,45.796158 C282.966,65.934158 284.815,69.226158 283.019,69.226158 C282.203,69.226158 273.566,68.070158 263.825,66.658158 C254.084,65.246158 245.95,64.254158 245.75,64.455158 C245.55,64.655158 253.866,73.291158 264.231,83.645158 L283.077,102.471158 L273.583,111.062158 C268.362,115.786158 264.533,119.800158 265.074,119.980158 C265.615,120.160158 272.977,119.419158 281.435,118.332158 C289.892,117.245158 297.174,116.711158 297.616,117.145158 C298.059,117.579158 290.998,122.602158 281.925,128.306158 C272.852,134.010158 265.554,138.802158 265.707,138.955158 C265.86,139.107158 273.721,137.431158 283.175,135.229158 C292.629,133.027158 300.803,131.226158 301.338,131.226158 C301.883,131.226158 302.312,134.533158 302.312,138.739158 C302.312,146.049158 302.504,146.638158 309.415,160.489158 C313.322,168.319158 317.385,175.668158 318.443,176.820158 L320.367,178.914158 L305.09,179.572158 C296.687,179.934158 281.262,181.118158 270.812,182.202158 L251.812,184.174158 L247.125,179.341158 L242.438,174.507158 L209.625,166.319158 C191.578,161.816158 175.125,157.686158 173.062,157.140158 C169.975,156.324158 169.312,155.701158 169.312,153.612158 C169.312,152.217158 166.949,145.037158 164.062,137.655158 L158.812,124.235158 L149.376,124.481158 L139.94,124.726158 L135.126,136.669158 C132.309,143.659158 130.312,150.191158 130.312,152.419158 C130.312,154.815158 129.849,156.214158 129.062,156.195158 C128.375,156.178158 114.129,157.178158 97.406,158.418158 L67,160.673158 L61.169,173.199158 C57.962,180.089158 53.82,188.870158 51.965,192.712158 L48.593,199.697158 L46.432,195.462158 C43.846,190.393158 44.766,190.462158 21.312,193.552158 L4.812,195.726158 L2.406,202.583158 L0,209.440158 L2.568,214.675158 L5.136,219.911158 L24.701,222.264158 L44.267,224.617158 L46.824,222.215158 L49.38,219.813158 L69.096,239.463158 L88.812,259.113158 L125.312,270.064158 L161.812,281.015158 L161.492,285.144158 C161.196,288.961158 161.72,289.960158 168.453,298.403158 L175.735,307.534158 L184.008,336.618158 L192.282,365.703158 L185.297,377.821158 C181.455,384.486158 178.312,390.163158 178.312,390.438158 C178.312,390.712158 183.712,393.317158 190.313,396.226158 L202.314,401.516158 L204.248,408.121158 C205.312,411.754158 207.331,418.734158 208.733,423.633158 L211.283,432.539158 L204.172,444.971158 L197.061,457.403158 L201.899,462.314158 C206.058,466.537158 207.286,467.226158 210.652,467.226158 L214.568,467.226158 L213.918,471.289158 C211.543,486.143158 210.49,481.756158 231.286,543.674158 L250.413,600.623158 L240.661,640.438158 L230.908,680.253158 L233.61,685.762158 C235.831,690.289158 236.315,692.647158 236.327,698.998158 C236.336,703.248158 237.229,721.126158 238.312,738.726158 C239.395,756.326158 240.288,772.819158 240.297,775.377158 L240.312,780.028158 L228.812,782.833158 L217.312,785.638158 L217.312,807.302158 L217.312,828.966158 L221.607,830.169158 L225.902,831.371158 L229.107,847.598158 C231.695,860.702158 232.312,866.273158 232.312,876.545158 L232.312,889.265158 L207.858,916.196158 C185.725,940.569158 178.348,949.957158 179.712,952.010158 C179.973,952.404158 188.48,956.994158 198.616,962.210158 L217.045,971.694158 L252.963,954.210158 L288.88,936.726158 L293.363,924.726158 L297.845,912.726158 L295.384,901.391158 L292.923,890.057158 L307.817,860.215158 L322.711,830.374158 L326.762,829.231158 L330.812,828.088158 L335.844,811.342158 L340.876,794.595158 L330.771,790.829158 C325.213,788.757158 320.125,786.728158 319.464,786.320158 C318.598,785.785158 322.109,774.994158 332.046,747.652158 L345.828,709.726158 L343.634,687.226158 C342.428,674.851158 341.408,662.251158 341.368,659.226158 C341.298,653.952158 354.659,568.554158 356.109,565.004158 C356.547,563.932158 361.812,581.461158 370.075,611.504158 L383.338,659.726158 L383.325,682.748158 L383.312,705.770158 L391.652,730.748158 L399.991,755.726158 L396.152,767.193158 C394.04,773.500158 392.344,779.800158 392.384,781.193158 C392.423,782.586158 394.566,791.376158 397.145,800.726158 L401.835,817.726158 L408.323,818.027158 L414.812,818.328158 L420.099,828.027158 C423.007,833.361158 428.653,841.538158 432.646,846.197158 L439.906,854.668158 L429.488,873.697158 C414.087,901.828158 415.166,897.945158 420.512,905.984158 L425.051,912.809158 L444.431,915.024158 C455.091,916.242158 464.792,917.236158 465.989,917.232158 C467.825,917.227158 470.333,913.024158 482.011,890.384158 L495.857,863.542158 L489.084,845.708158 L482.312,827.874158 L482.312,808.774158 L482.312,789.674158 L487.08,775.407158 L491.849,761.140158 L489.342,741.683158 L486.836,722.226158 L477.539,722.226158 L468.243,722.226158 L468.773,717.476158 C469.064,714.863158 469.766,706.252158 470.333,698.338158 C470.9,690.425158 471.582,683.597158 471.849,683.165158 C472.116,682.733158 473.569,682.109158 475.078,681.777158 C477.05,681.344158 478.524,679.845158 480.317,676.450158 C482.2,672.886158 483.46,671.651158 485.452,671.420158 C487.574,671.174158 488.506,670.118158 490.202,666.037158 C491.362,663.244158 492.312,659.255158 492.312,657.173158 C492.312,655.090158 481.962,616.874158 469.312,572.248158 C456.662,527.621158 446.312,490.567158 446.312,489.904158 C446.312,489.241158 448.27,485.784158 450.663,482.222158 L455.014,475.745158 L451.196,464.380158 L447.378,453.016158 L450.595,453.584158 C452.364,453.896158 457.862,454.683158 462.812,455.333158 C467.762,455.983158 472.487,456.865158 473.312,457.293158 C474.299,457.804158 475.5,461.941158 476.826,469.398158 L478.839,480.726158 L472.076,497.104158 C468.356,506.112158 465.312,513.936158 465.312,514.489158 C465.312,515.043158 468.282,519.485158 471.913,524.361158 L478.513,533.226158 L486.386,533.226158 C497.884,533.226158 501.067,531.340158 509.914,519.283158 L517.015,509.604158 L510.018,495.665158 L503.021,481.726158 L504.273,472.726158 C504.961,467.776158 505.664,463.576158 505.835,463.392158 C506.007,463.208158 515.879,464.951158 527.774,467.264158 C539.668,469.578158 549.681,471.190158 550.024,470.847158 C550.367,470.504158 548.503,439.511158 545.881,401.975158 L541.114,333.726158 L529.644,304.726158 C523.335,288.776158 513.592,264.686158 507.992,251.193158 L497.812,226.661158 L475.102,217.193158 C456.428,209.408158 452.202,207.282158 451.321,205.226158 C450.362,202.986158 447.734,201.998158 426.042,195.726158 L401.834,188.726158 L398.102,174.747158 C396.05,167.058158 394.695,160.457158 395.091,160.076158 C395.488,159.696158 399.789,157.097158 404.649,154.301158 L413.486,149.216158 L419.649,150.774158 C423.039,151.630158 426.712,152.563158 427.812,152.846158 C428.912,153.128158 427.214,151.844158 424.039,149.992158 L418.266,146.624158 L446.7,130.602158 L475.133,114.580158 L466.472,111.771158 C450.973,106.744158 451.355,108.515158 463.332,97.211158 L473.812,87.322158 L462.312,87.259158 C455.987,87.224158 450.219,86.820158 449.495,86.360158 C448.528,85.747158 449.537,84.387158 453.285,81.249158 C456.094,78.897158 458.219,76.799158 458.007,76.587158 C457.795,76.376158 449.204,78.233158 438.916,80.714158 C417.291,85.930158 414.873,86.184158 415.839,83.140158 C416.43,81.278158 416.276,81.175158 414.407,82.175158 C413.255,82.792158 412.321,82.943158 412.333,82.511158 C412.344,82.079158 421.771,64.865158 433.281,44.257158 C444.791,23.650158 454.079,6.66015799 453.922,6.50215799 C453.764,6.34515799 437.25,14.260158 417.223,24.092158 C397.197,33.924158 380.665,41.842158 380.485,41.687158 C380.305,41.532158 380.689,32.702158 381.339,22.065158 C381.989,11.429158 382.362,1.69415799 382.167,0.432157987 C381.883,-1.40384201 378.752,2.23215799 366.452,18.682158 M345.553,91.770158 C344.341,92.619158 340.303,94.821158 336.58,96.663158 L329.812,100.013158 L336.483,100.727158 C343.107,101.437158 347.59,100.551158 343.91,99.260158 C342.425,98.739158 342.875,97.962158 346.704,94.433158 C349.898,91.488158 350.741,90.226158 349.512,90.226158 C348.547,90.226158 346.765,90.921158 345.553,91.770158 M131.312,181.344158 C125.537,181.806158 119.738,182.306158 118.426,182.455158 C116.848,182.634158 122.438,185.524158 134.926,190.984158 L153.812,199.243158 L164.927,199.234158 C175.93,199.226158 176.16,199.177158 187.711,194.393158 L199.38,189.559158 L178.096,184.870158 C155.395,179.869158 152.492,179.650158 131.312,181.344158 M77.262,193.117158 L76.031,200.008158 L89.228,217.117158 C96.487,226.527158 102.665,234.226158 102.958,234.226158 C103.634,234.226158 129.285,218.859158 129.014,218.616158 C128.287,217.969158 79.115,186.226158 78.839,186.226158 C78.649,186.226158 77.939,189.327158 77.262,193.117158 M214.55,209.080158 C205.056,214.490158 197.02,219.185158 196.693,219.512158 C196.365,219.839158 203.719,223.923158 213.033,228.586158 L229.969,237.066158 L231.78,225.396158 C232.777,218.977158 234.215,211.299158 234.977,208.332158 C236.224,203.473158 236.195,202.754158 234.682,201.082158 C233.758,200.061158 232.734,199.230158 232.407,199.234144 C232.08,199.239158 224.044,203.669158 214.55,209.080158 M146.312,243.688158 C139.798,247.013158 136.381,249.262158 137.312,249.611158 C138.137,249.921158 147.812,252.023158 158.812,254.282158 C178.014,258.225158 179.311,258.363158 191.312,257.744158 C213.246,256.612158 213.214,257.040158 192.13,246.960158 L173.812,238.202158 L165.312,238.265158 C157.061,238.327158 156.504,238.486158 146.312,243.688158 M211.312,280.754158 C206.637,281.467158 202.25,282.090158 201.562,282.139158 C200.754,282.195158 200.312,283.866158 200.312,286.860158 C200.312,289.409158 199.798,293.208158 199.171,295.304158 C198.13,298.778158 198.498,300.641158 203.337,316.420158 C206.257,325.938158 208.972,334.105158 209.37,334.568158 C209.769,335.030158 212.644,330.908158 215.758,325.407158 L221.421,315.406158 L222.853,298.566158 C223.641,289.304158 224.292,281.164158 224.299096,280.476158 C224.314,278.996158 222.59,279.033158 211.312,280.754158 M450.324,358.726158 C449.848,367.344158 444.432,406.195158 443.456,407.991158 C442.493,409.764158 442.486,411.065158 443.424,413.991158 C444.083,416.045158 444.89,423.801158 445.217,431.226158 L445.812,444.726158 L450.325,405.600158 L454.838,366.475158 L452.636,361.600158 C451.241,358.512158 450.394,357.459158 450.324,358.726158 M285.417,409.976158 C284.287,417.466158 283.699,419.226158 282.323,419.226158 C281.389,419.226158 273.955,417.875158 265.803,416.224158 C257.652,414.573158 250.886,413.336158 250.767,413.474158 C250.649,413.613158 249.366,416.089158 247.915,418.976158 C245.798,423.192158 244.789,424.226158 242.795,424.226158 L240.312,424.226158 L240.374,440.976158 L240.436,457.726158 L242.578,453.461158 C243.757,451.115158 245.03,449.315158 245.407,449.461158 C245.785,449.607158 248.068,451.556158 250.482,453.793158 L254.871,457.861158 L261.326,486.476158 C264.876,502.214158 267.85,515.009158 267.935,514.908752 C268.021,514.808158 269.33,506.176158 270.844,495.726158 C273.507,477.352158 273.757,476.413158 278.431,467.226158 C283.622,457.025158 283.673,457.067158 281.714,469.976158 C281.298,472.724158 281.53,473.226158 283.221,473.226158 C285.302,473.226158 285.457,472.742158 286.829,461.976158 C287.309,458.211158 287.824,457.226158 289.312,457.226158 C290.797,457.226158 291.32,456.234158 291.815,452.476158 C292.987,443.579158 293.383,442.441158 295.497,441.888158 C297.097,441.469158 297.457,440.764158 297.079,438.786158 C296.632,436.450158 296.883,436.226158 299.951,436.226158 C301.799,436.226158 303.312,435.776158 303.312,435.226158 C303.312,434.676158 304.437,434.226158 305.812,434.226158 C307.187,434.226158 308.312,433.828158 308.312,433.343158 C308.312,432.857158 309.324,432.134158 310.562,431.737158 C312.481,431.120158 312.552,430.945158 311.05,430.544158 C310.081,430.286158 309.545,429.659158 309.859,429.150158 C310.175,428.638158 308.466,428.226158 306.023,428.226158 L301.616,428.226158 L297.456,416.976158 C295.168,410.789158 293.254,405.051158 293.202,404.226158 C293.149,403.401158 292.329,405.140158 291.378,408.090158 L289.649,413.455158 L288.517,410.590158 C287.894,409.015158 287.255,406.151158 287.098,404.226158 C286.905,401.863158 286.359,403.730158 285.417,409.976158 M233.326,462.784158 L226.84,467.226158 L231.376,467.226158 C235.763,467.226158 235.986,467.077158 238.1,462.726158 C239.302,460.251158 240.179,458.252158 240.049,458.284158 C239.919,458.316158 236.893,460.341158 233.326,462.784158"/><path fill-opacity=".134" d="M442.564,17.005158 C437.275,20.783158 433.786,23.901158 434.413,24.288158 C435.033,24.672158 430.647,28.336158 424.312,32.726158 C418.117,37.019158 413.597,40.784158 414.194,41.153158 C415.239,41.799158 400.202,53.226158 398.308,53.226158 C397.799,53.226158 396.87,54.183158 396.244,55.353158 C395.364,56.997158 395.4,57.663158 396.402,58.282158 C397.431,58.917158 397.452,59.624158 396.505,61.701158 C394.913,65.196158 395.001,66.226158 396.891,66.226158 C398.126,66.226158 398.327,66.881158 397.812,69.226158 C397.283,71.634158 397.486,72.226158 398.84,72.226158 C399.971,72.226158 400.325,72.750158 399.915,73.819158 C398.086,78.585158 398.096,80.226158 399.954,80.229158 C401.321,80.231158 400.623,81.277158 397.312,84.186158 C394.837,86.361158 393.459,88.160158 394.249,88.183158 C395.197,88.211158 394.708,89.247158 392.812,91.226158 C390.254,93.896158 390.151,94.235158 391.875,94.305158 C393.216,94.360158 393.374,94.557158 392.389,94.946158 C391.455,95.315158 392.488,96.305158 395.389,97.822158 C397.821,99.094158 399.137,100.176158 398.312,100.226158 C397.487,100.276158 398.837,101.401158 401.312,102.726158 C404.895,104.645158 405.342,105.145158 403.503,105.181158 C402.233,105.206158 401.449,105.639158 401.762,106.145158 C402.074,106.650158 400.976,107.361158 399.321,107.724158 C397.666,108.088158 396.312,108.799158 396.312,109.305158 C396.312,109.812158 395.61,110.226158 394.753,110.226158 C393.896,110.226158 393.458,110.653158 393.781,111.175158 C394.104,111.698158 392.784,112.422158 390.849,112.785158 C388.913,113.148158 387.554,113.809158 387.829,114.254158 C388.104,114.699158 386.976,115.361158 385.321,115.724158 C383.666,116.088158 382.312,116.799158 382.312,117.305158 C382.312,117.812158 381.524,118.213158 380.562,118.196158 C379.573,118.180158 376.659,115.215158 373.859,111.374158 L368.906,104.581158 L359.119,103.494158 C349.372,102.413158 345.312,102.662158 345.312,104.343158 C345.312,104.828158 344.426,105.226158 343.343,105.226158 C341.921,105.226158 341.551,105.686158 342.011,106.885158 C342.57,108.340158 342.057,108.463158 337.84,107.885158 C335.196,107.523158 332.272,107.226158 331.343,107.226158 C330.234,107.226158 329.68,106.453158 329.733,104.976158 C329.791,103.314158 329.158,102.628158 327.312,102.351158 C324.992,102.004158 324.956,101.919158 326.812,101.172158 C328.71,100.408158 328.697,100.363158 326.562,100.296158 C325.324,100.258158 324.312,99.854158 324.312,99.399158 C324.312,98.703158 311.218,96.199158 307.685,96.219158 C307.065,96.223158 305.602,100.035158 304.435,104.690158 C302.698,111.617158 302.312,116.159158 302.312,129.704158 L302.312,146.255158 L308.926,159.490158 C312.563,166.770158 315.723,172.924158 315.949,173.166158 C316.174,173.408158 318.584,171.413158 321.305,168.733158 C326.193,163.918158 326.276,163.883158 328.321,165.734158 C330.337,167.559158 330.579,167.560158 337.76,165.772158 C345.129,163.937158 345.129,163.937158 347.855,166.081158 C349.409,167.304158 349.986,168.243158 349.197,168.266158 C348.435,168.288158 349.162,169.036158 350.811,169.928158 L353.81,171.551158 L341.462,174.390158 C329.451,177.152158 328.949,177.187158 323.102,175.672158 C319.796,174.815158 316.953,174.252158 316.785,174.420158 C316.618,174.588158 319.521,178.320158 323.239,182.713158 L329.997,190.700158 L326.518,195.360158 C324.604,197.924158 323.049,200.405158 323.064,200.874158 C323.089,201.716158 328.357,202.831158 345.71,205.668158 C350.605,206.468158 355.082,207.596158 355.66,208.174158 C356.239,208.753158 357.536,209.226158 358.543,209.226158 C359.551,209.226158 360.634,209.901158 360.95,210.726158 C361.267,211.551158 362.555,212.226158 363.812,212.226158 C365.069,212.226158 366.341,212.859158 366.637,213.632158 C366.934,214.405158 368.617,215.354158 370.378,215.740158 C372.726,216.256158 373.21,216.677158 372.195,217.319158 C371.153,217.980158 371.34,218.199158 372.954,218.211234 C376.167,218.234158 381.76,213.053158 392.343,200.254158 L401.875,188.726158 L398.122,174.747158 C396.059,167.058158 394.695,160.457158 395.091,160.076158 C395.488,159.696158 399.789,157.097158 404.649,154.301158 L413.486,149.216158 L419.649,150.774158 C423.039,151.630158 426.712,152.563158 427.812,152.846158 C428.912,153.128158 427.217,151.846158 424.045,149.995158 L418.277,146.630158 L443.884,132.185158 C465.09,120.223158 469.089,117.627158 467.152,117.083158 C465.865,116.721158 465.375,116.381158 466.062,116.326158 C467.776,116.189158 467.651,114.226158 465.929,114.226158 C465.168,114.226158 464.327,113.390158 464.059,112.367158 C463.792,111.345158 462.409,110.216158 460.987,109.859158 C459.564,109.502158 457.152,108.735158 455.627,108.155158 L452.853,107.101158 L463.332,97.211158 L473.812,87.322158 L462.312,87.259158 C455.987,87.224158 450.219,86.820158 449.495,86.360158 C448.528,85.747158 449.537,84.387158 453.285,81.249158 C456.094,78.897158 458.219,76.799158 458.007,76.587158 C457.795,76.376158 449.204,78.233158 438.916,80.714158 C417.291,85.930158 414.873,86.184158 415.839,83.140158 C416.442,81.241158 416.3,81.162158 414.255,82.257158 C412.291,83.308158 412.091,83.245158 412.663,81.753158 C413.303,80.087158 446.676,19.909158 450.529,13.476158 C451.599,11.688158 452.326,10.265158 452.144,10.3119784 C451.961,10.360158 447.65,13.372158 442.564,17.005158 M378.967,39.594158 C378.553,41.171158 378.451,42.698158 378.74,42.987158 C379.545,43.792158 380.529,40.572158 380.101,38.534158 C379.82,37.201158 379.522,37.480158 378.967,39.594158 M267.812,116.226158 L263.906,120.226158 L267.109,120.226158 C268.871,120.226158 270.312,119.776158 270.312,119.226158 C270.312,118.676158 269.758,118.226158 269.08,118.226158 C268.402,118.226158 269.527,117.085158 271.58,115.690158 C275.769,112.844158 276.114,112.226158 273.515,112.226158 C272.527,112.226158 269.96,114.026158 267.812,116.226158 M298.125,116.909158 C298.846,117.198158 299.709,117.162158 300.041,116.830158 C300.373,116.498158 299.783,116.262158 298.729,116.305158 C297.564,116.353158 297.327,116.590158 298.125,116.909158 M138.86,127.476158 C132.472,142.854158 130.312,149.156158 130.312,152.420158 C130.312,154.815158 129.848,156.214158 129.062,156.195158 C128.375,156.178158 114.129,157.178158 97.406,158.418158 L67,160.673158 L61.169,173.199158 C57.962,180.089158 53.82,188.870158 51.965,192.712158 L48.593,199.697158 L46.432,195.462158 C43.846,190.393158 44.766,190.462158 21.312,193.552158 L4.812,195.726158 L2.406,202.583158 L0,209.440158 L2.568,214.675158 L5.136,219.911158 L24.701,222.264158 L44.267,224.617158 L46.824,222.215158 L49.38,219.813158 L69.096,239.463158 L88.812,259.113158 L125.312,270.064158 L161.812,281.015158 L161.492,285.144158 C161.196,288.961158 161.72,289.960158 168.453,298.403158 L175.735,307.534158 L183.985,336.537158 C188.523,352.489158 192.001,365.920158 191.715,366.383158 C191.428,366.847158 191.578,367.226158 192.046,367.226158 C192.515,367.226158 193.405,369.124158 194.024,371.443158 C195.305,376.240158 194.298,379.226158 191.399,379.226158 C190.386,379.226158 188.997,379.901158 188.312,380.726158 C187.627,381.551158 186.08,382.226158 184.874,382.226158 C183.367,382.226158 181.997,383.442158 180.496,386.112158 C179.295,388.250158 178.312,390.209158 178.312,390.468158 C178.312,390.726158 183.712,393.317158 190.313,396.226158 L202.314,401.516158 L204.248,408.121158 C205.312,411.754158 207.331,418.734158 208.733,423.633158 L211.283,432.539158 L204.172,444.971158 L197.061,457.403158 L201.899,462.314158 C206.058,466.537158 207.286,467.226158 210.652,467.226158 L214.568,467.226158 L213.918,471.289158 C211.554,486.071158 210.626,482.127158 230.142,540.226158 C240.026,569.651158 248.653,595.076158 249.314,596.726158 C250.434,599.524158 250.912,598.140158 256.4,576.226158 C259.636,563.301158 263.558,544.395158 265.115,534.213158 L267.945,515.699158 L261.399,486.772158 L254.853,457.844158 L250.473,453.785158 C248.064,451.553158 245.785,449.607158 245.407,449.461158 C245.03,449.315158 243.757,451.115158 242.578,453.461158 L240.436,457.726158 L240.374,440.976158 L240.312,424.226158 L242.795,424.226158 C244.789,424.226158 245.798,423.192158 247.915,418.976158 C249.366,416.089158 250.649,413.613158 250.767,413.474158 C250.886,413.336158 257.652,414.573158 265.803,416.224158 C273.955,417.875158 281.389,419.226158 282.323,419.226158 C285.195,419.226158 286.942,403.499158 285.477,390.827158 C279.811,341.793158 277.912,328.226158 276.715,328.226158 C276.012,328.226158 275.504,329.126158 275.587,330.226158 C275.67,331.326158 276.204,332.229158 276.775,332.232158 C277.345,332.236158 276.523,332.911158 274.948,333.732158 C273.372,334.554158 271.476,335.226158 270.733,335.226158 C269.99,335.226158 268.901,336.126158 268.312,337.226158 C267.706,338.358158 266.218,339.226158 264.884,339.226158 C263.587,339.226158 262.267,339.901158 261.95,340.726158 C261.634,341.551158 260.344,342.226158 259.084,342.226158 C257.824,342.226158 256.231,343.126158 255.544,344.226158 C254.857,345.326158 253.454,346.226158 252.426,346.226158 C251.398,346.226158 249.997,346.901158 249.312,347.726158 C248.627,348.551158 247.208,349.226158 246.158,349.226158 C245.108,349.226158 243.99,349.901158 243.674,350.726158 C243.357,351.551158 242.007,352.226158 240.674,352.226158 C239.34,352.226158 237.99,352.901158 237.674,353.726158 C237.357,354.551158 236.037,355.226158 234.74,355.226158 C233.406,355.226158 231.918,356.094158 231.312,357.226158 C230.706,358.358158 229.218,359.226158 227.884,359.226158 C226.587,359.226158 225.267,359.901158 224.95,360.726158 C224.634,361.551158 223.273,362.226158 221.927,362.226158 C220.58,362.226158 219.269,362.788158 219.012,363.476158 C218.394,365.131158 218.938,366.714158 207.749,330.726158 C198.64,301.427158 198.171,299.492158 199.211,295.462158 C199.817,293.116158 200.312,289.235158 200.312,286.837158 C200.312,281.626158 196.37,282.695158 234.33,277.615158 L262.849,273.800158 L272.347,256.263158 L281.844,238.726158 L288.783,239.014158 C292.6,239.173158 301.73,240.185158 309.072,241.264158 C316.414,242.343158 323.256,243.226158 324.276,243.226158 C325.689,243.226158 326.715,241.491158 328.576,235.956158 L331.02,228.686158 L328.553,223.648158 L326.087,218.611158 L315.655,215.754158 C307.163,213.428158 305.339,212.603158 305.842,211.312158 C306.182,210.440158 306.52,209.501158 306.594,209.226158 C306.668,208.951158 304.572,202.314158 301.937,194.476158 L297.146,180.226158 L291.479,180.257158 L285.812,180.288158 L289.812,182.760158 C292.098,184.172158 293.686,185.873158 293.518,186.729158 C293.357,187.552158 293.694,188.226158 294.268,188.226158 C295.794,188.226158 295.545,190.875158 293.68,194.482158 C292.551,196.664158 292.397,197.754158 293.18,198.015158 C294.791,198.552158 294.591,200.340158 292.358,205.389158 C290.965,208.539158 289.206,210.479158 286.226,212.154158 L282.048,214.502158 L262.081,194.464158 L242.113,174.426158 L209.463,166.279158 C191.505,161.798158 175.125,157.686158 173.062,157.140158 C169.975,156.324158 169.312,155.701158 169.312,153.612158 C169.312,152.217158 166.949,145.050158 164.062,137.685158 L158.812,124.293158 L149.511,124.260158 L140.21,124.226158 L138.86,127.476158 M272.312,134.383158 C268.004,137.262158 265.876,139.155158 267.312,138.831158 C268.687,138.521158 273.174,137.515158 277.283,136.597158 C284.554,134.972158 289.745,132.245158 285.633,132.211158 C284.253,132.199158 284.135,131.990158 285.147,131.349158 C286.143,130.718158 285.89,130.345158 284.147,129.878158 C280.587,128.925158 280.337,129.020158 272.312,134.383158 M131.312,181.344158 C125.537,181.806158 119.738,182.306158 118.426,182.455158 C116.848,182.634158 122.438,185.524158 134.926,190.984158 L153.812,199.243158 L164.927,199.234158 C175.93,199.226158 176.16,199.177158 187.711,194.393158 L199.38,189.559158 L178.096,184.870158 C155.395,179.869158 152.492,179.650158 131.312,181.344158 M77.262,193.117158 L76.031,200.008158 L89.228,217.117158 C96.487,226.527158 102.665,234.226158 102.958,234.226158 C103.634,234.226158 129.285,218.859158 129.014,218.616158 C128.287,217.969158 79.115,186.226158 78.839,186.226158 C78.649,186.226158 77.939,189.327158 77.262,193.117158 M214.55,209.080158 C205.056,214.490158 197.019,219.185158 196.691,219.513158 C196.363,219.842158 208.792,226.462158 224.312,234.226158 C239.832,241.990158 252.651,248.203158 252.799,248.034158 C252.947,247.865158 254.266,242.576158 255.731,236.281158 L258.395,224.837158 L245.618,212.031158 C238.59,204.988158 232.609,199.230158 232.326,199.234156 C232.043,199.239158 224.044,203.669158 214.55,209.080158 M441.113,201.466158 C442.233,202.833158 450.368,207.226158 451.78,207.226158 C452.049,207.226158 451.777,206.147158 451.177,204.828158 C450.576,203.509158 448.898,202.170158 447.448,201.852158 C445.998,201.534158 443.687,200.960158 442.312,200.577158 C440.116,199.964158 439.97,200.072158 441.113,201.466158 M498.812,234.226158 C498.472,234.776158 498.922,235.226158 499.812,235.226158 C500.702,235.226158 501.152,234.776158 500.812,234.226158 C500.472,233.676158 500.022,233.226158 499.812,233.226158 C499.602,233.226158 499.152,233.676158 498.812,234.226158 M496,241.035158 C493.395,243.680158 491.574,246.155158 491.954,246.535158 C492.334,246.915158 492.008,247.233152 491.229,247.241158 C490.062,247.254158 490.077,247.428158 491.312,248.226158 C492.562,249.034158 492.478,249.215158 490.812,249.310158 C489.145,249.406158 489.228,249.559158 491.312,250.226158 C492.979,250.760158 493.229,251.060158 492.062,251.126158 C489.772,251.257158 489.751,251.162158 493.812,259.226158 C497.84,267.225158 497.84,267.226158 495.705,267.226158 C494.65,267.226158 494.307,267.770158 494.705,268.808158 C495.039,269.678158 495.312,271.028158 495.312,271.808158 C495.312,272.588158 495.893,273.226158 496.602,273.226158 C497.496,273.226158 498.324,276.682158 499.296,284.476158 C500.069,290.664158 500.678,296.964158 500.65,298.476158 C500.618,300.205158 501.125,301.226158 502.015,301.226158 C502.793,301.226158 503.14,301.696158 502.785,302.270158 C502.43,302.844158 502.684,303.969158 503.348,304.770158 C504.08,305.651158 504.151,306.226158 503.528,306.226158 C502.962,306.226158 502.735,307.126158 503.022,308.226158 C503.312,309.333158 504.386,310.226158 505.429,310.226158 C507.803,310.226158 507.912,312.923158 505.562,313.537158 C504.139,313.909158 504.2,314.016158 505.888,314.110158 C507.728,314.213158 508.276,315.725158 510.725,327.476158 C517.972,362.242158 517.419,360.217158 519.699,360.342158 C521.389,360.435158 521.461,360.550158 520.062,360.915158 C518.19,361.405158 517.601,364.226158 519.371,364.226158 C519.953,364.226158 520.152,364.676158 519.812,365.226158 C519.472,365.776158 519.896,366.226158 520.753,366.226158 C522.797,366.226158 522.692,367.184158 520.312,370.226158 C517.949,373.246158 517.827,374.226158 519.812,374.226158 C520.637,374.226158 521.312,374.901158 521.312,375.726158 C521.312,376.594158 520.406,377.226158 519.162,377.226158 C517.058,377.226158 517.025,377.457158 517.593,388.226158 C518.141,398.628158 518.068,399.226158 516.242,399.226158 C514.764,399.226158 514.312,399.929158 514.312,402.226158 C514.312,403.876158 513.876,405.226158 513.343,405.226158 C512.811,405.226158 512.634,405.901158 512.95,406.726158 C513.32,407.689158 512.93,408.226158 511.86,408.226158 C510.944,408.226158 510.472,408.676158 510.812,409.226158 C511.152,409.776158 510.477,410.226158 509.312,410.226158 C508.147,410.226158 507.472,410.676158 507.812,411.226158 C508.152,411.776158 507.68,412.226158 506.764,412.226158 C505.694,412.226158 505.304,412.763158 505.674,413.726158 C506.035,414.668158 505.663,415.226158 504.674,415.226158 C503.684,415.226158 503.312,415.784158 503.674,416.726158 C504.024,417.640158 503.675,418.226158 502.781,418.226158 C501.973,418.226158 501.312,418.676158 501.312,419.226158 C501.312,419.776158 500.651,420.226158 499.843,420.226158 C498.949,420.226158 498.6,420.812158 498.95,421.726158 C499.32,422.689158 498.93,423.226158 497.86,423.226158 C496.916,423.226158 496.485,423.697158 496.865,424.312158 C497.841,425.891158 488.146,424.587158 474.312,421.279158 C458.756,417.558158 450.221,415.983158 449.503,416.701158 C449.175,417.030158 448.151,423.470158 447.228,431.012158 L445.551,444.726158 L445.42,432.726158 C445.339,425.197158 444.723,418.863158 443.768,415.726158 C442.428,411.323158 442.42,410.308158 443.703,407.226158 C444.505,405.301158 446.381,393.103158 447.873,380.120158 L450.585,356.514158 L440.828,333.120158 L431.072,309.726158 L428.91,293.234158 C427.056,279.091158 426.489,276.691158 424.933,276.392158 C423.496,276.115158 423.257,276.477158 423.783,278.134158 C424.272,279.674158 424.016,280.226158 422.812,280.226158 C421.632,280.226158 421.354,280.783158 421.812,282.226158 C422.237,283.567158 421.992,284.226158 421.067,284.226158 C420.103,284.226158 419.698,285.510158 419.725,288.476158 C419.747,290.813158 419.663,296.438158 419.538,300.976158 C419.332,308.484158 419.132,309.226158 417.312,309.226158 C415.756,309.226158 415.312,309.893158 415.312,312.226158 C415.312,314.226158 415.812,315.226158 416.812,315.226158 C417.637,315.226158 418.312,315.676158 418.312,316.226158 C418.312,316.776158 417.461,317.226158 416.421,317.226158 C414.657,317.226158 414.482,318.526158 413.799,336.726158 C413.119,354.878158 412.938,356.226158 411.19,356.226158 C410.157,356.226158 409.312,356.676158 409.312,357.226158 C409.312,357.776158 409.987,358.226158 410.812,358.226158 C411.812,358.226158 412.312,359.226158 412.312,361.226158 C412.312,363.495158 411.854,364.226158 410.433,364.226158 C408.714,364.226158 408.492,365.463158 407.827,378.775158 C407.351,388.290158 406.447,395.469158 405.213,399.525158 C402.929,407.036158 402.874,408.226158 404.812,408.226158 C406.801,408.226158 406.706,409.240158 403.791,419.175158 C402.428,423.821158 401.312,427.984158 401.312,428.425158 C401.312,430.627158 406.085,428.721158 410.927,424.584158 C413.916,422.030158 416.592,420.173158 416.876,420.456158 C417.159,420.740158 417.485,423.725158 417.601,427.090158 C417.717,430.455158 418.205,433.212158 418.684,433.217158 C419.164,433.222158 418.997,433.901158 418.312,434.726158 C417.334,435.904158 417.331,436.226158 418.297,436.226158 C418.979,436.226158 419.27,436.894158 418.95,437.726158 C418.634,438.551158 418.88,439.226158 419.498,439.226158 C420.116,439.226158 419.807,440.126158 418.812,441.226158 C417.062,443.159158 417.065,443.227158 418.907,443.258158 C420.765,443.289158 420.764,443.326158 418.871,444.758158 C417.479,445.811158 417.338,446.230158 418.371,446.241158 C419.586,446.254158 419.577,446.408158 418.312,447.226158 C416.979,448.088158 416.979,448.199158 418.312,448.226158 C419.645,448.253158 419.645,448.364158 418.312,449.226158 C416.979,450.088158 416.979,450.199158 418.312,450.226158 C419.645,450.253158 419.645,450.364158 418.312,451.226158 C416.979,452.088158 416.979,452.199158 418.312,452.226158 C419.645,452.253158 419.645,452.364158 418.312,453.226158 C416.979,454.088158 416.979,454.199158 418.312,454.226158 C419.645,454.253158 419.645,454.364158 418.312,455.226158 C416.979,456.088158 416.979,456.199158 418.312,456.226158 C419.604,456.252158 419.612,456.383158 418.369,457.170158 C417.192,457.914158 417.146,458.566158 418.119,460.701158 C419.649,464.060158 419.629,464.226158 417.695,464.226158 C416.093,464.226158 416.117,465.375158 417.806,469.476158 C418.328,470.744158 418.052,471.226158 416.802,471.226158 C415.086,471.226158 415.086,472.300158 416.806,476.476158 C417.316,477.716158 417.057,478.226158 415.919,478.226158 C413.91,478.226158 413.89,479.509158 415.838,483.276158 C417.286,486.077158 417.26,486.226158 415.324,486.226158 C413.369,486.226158 413.347,486.375158 414.799,489.848158 C416.663,494.311158 416.665,494.226158 414.695,494.226158 C413.093,494.226158 413.117,495.375158 414.806,499.476158 C415.316,500.716158 415.057,501.226158 413.919,501.226158 C413.035,501.226158 412.312,501.469158 412.312,501.766158 C412.312,502.064158 414.365,510.482158 416.874,520.474158 C419.384,530.466158 421.226,539.448158 420.968,540.434158 C420.677,541.545158 421.047,542.226158 421.941,542.226158 C423.072,542.226158 423.152,542.656158 422.312,544.226158 C421.497,545.749158 421.552,546.226158 422.54,546.226158 C423.255,546.226158 424.377,548.362158 425.035,550.976158 C425.693,553.588158 426.516,556.697158 426.864,557.885158 C427.329,559.470158 427.008,560.170158 425.655,560.519158 C424.154,560.906158 424.229,561.016158 426.062,561.110158 C428.53,561.237158 429.234,563.226158 426.812,563.226158 C425.987,563.226158 425.312,563.676158 425.312,564.226158 C425.312,564.776158 426.212,565.226158 427.312,565.226158 C428.412,565.226158 429.312,565.676158 429.312,566.226158 C429.312,566.776158 428.637,567.226158 427.812,567.226158 C425.39,567.226158 426.094,569.215158 428.562,569.342158 C430.255,569.429158 430.379,569.571158 429.062,569.915158 C426.561,570.569158 426.898,572.205158 429.562,572.342158 C431.255,572.429158 431.379,572.571158 430.062,572.915158 C429.1,573.167158 428.312,573.705158 428.312,574.112158 C428.312,574.518158 432.812,589.194158 438.312,606.726158 C443.812,624.258158 448.312,638.934158 448.312,639.340158 C448.312,639.747158 447.524,640.285158 446.562,640.537158 C445.245,640.881158 445.369,641.023158 447.062,641.110158 C449.53,641.237158 450.234,643.226158 447.812,643.226158 C445.39,643.226158 446.094,645.215158 448.562,645.342158 C450.255,645.429158 450.379,645.571158 449.062,645.915158 C446.528,646.578158 446.911,649.205158 449.562,649.342158 C451.255,649.429158 451.379,649.571158 450.062,649.915158 C447.561,650.569158 447.898,652.205158 450.562,652.342158 C452.255,652.429158 452.379,652.571158 451.062,652.915158 C448.87,653.488158 448.846,653.187158 451.843,662.571158 C453.999,669.322158 456.238,683.609158 456.295,690.976158 C456.307,692.554158 456.91,693.226158 458.312,693.226158 C459.645,693.226158 460.312,693.893158 460.312,695.226158 C460.312,696.337158 459.645,697.226158 458.812,697.226158 C457.987,697.226158 457.312,697.676158 457.312,698.226158 C457.312,698.776158 458.212,699.226158 459.312,699.226158 C462.473,699.226158 461.647,701.856158 457.723,704.281158 C455.054,705.931158 454.478,706.716158 455.473,707.347158 C456.21,707.814158 456.405,708.202158 455.907,708.211158 C455.409,708.219158 455.817,709.126158 456.812,710.226158 C458.559,712.156158 458.559,712.226158 456.812,712.226158 C455.122,712.226158 455.112,712.347158 456.657,714.055158 C457.567,715.061158 458.312,717.536158 458.312,719.555158 C458.312,722.286158 458.731,723.226158 459.946,723.226158 C461.351,723.226158 461.51,724.210158 461.08,730.226158 C460.636,736.428158 460.779,737.226158 462.337,737.226158 C464.287,737.226158 464.595,736.290158 466.37,724.976158 C467.039,720.713158 467.862,717.225158 468.199,717.224158 C468.536,717.223158 468.912,715.760158 469.033,713.974158 C470.006,699.688158 471.462,683.792158 471.856,683.154158 C472.12,682.728158 473.569,682.109158 475.078,681.777158 C477.05,681.344158 478.524,679.845158 480.317,676.450158 C482.2,672.886158 483.46,671.651158 485.452,671.420158 C487.574,671.174158 488.506,670.118158 490.202,666.037158 C491.362,663.244158 492.312,659.255158 492.312,657.173158 C492.312,655.090158 481.962,616.874158 469.312,572.248158 C456.662,527.621158 446.312,490.567158 446.312,489.904158 C446.312,489.241158 448.27,485.784158 450.663,482.222158 L455.014,475.745158 L451.196,464.380158 L447.378,453.016158 L450.595,453.574158 C452.364,453.881158 457.637,454.631158 462.312,455.240158 C475.391,456.944158 474.735,456.314158 476.798,469.137158 L478.582,480.226158 L482.84,480.226158 C485.702,480.226158 487.287,480.718158 487.674,481.726158 C488.069,482.755158 487.613,483.226158 486.222,483.226158 C485.106,483.226158 484.44,483.625158 484.742,484.112158 C485.334,485.070158 482.109,486.190158 478.695,486.212158 C476.918,486.224158 475.669,488.439158 470.931,499.976158 C467.825,507.539158 465.291,514.124158 465.298,514.611158 C465.306,515.098158 468.282,519.485158 471.913,524.361158 L478.513,533.226158 L486.386,533.226158 C497.884,533.226158 501.067,531.340158 509.914,519.283158 L517.015,509.604158 L510.018,495.665158 L503.021,481.726158 L504.273,472.726158 C504.961,467.776158 505.664,463.576158 505.835,463.392158 C506.007,463.208158 515.879,464.951158 527.774,467.264158 C539.668,469.578158 549.681,471.190158 550.024,470.847158 C550.367,470.504158 548.503,439.511158 545.881,401.975158 L541.114,333.726158 L529.649,304.726158 C515.143,268.036158 501.972,236.243158 501.274,236.233152 C500.979,236.233152 498.605,238.390158 496,241.035158 M146.312,243.688158 C139.798,247.013158 136.381,249.262158 137.312,249.611158 C138.137,249.921158 147.812,252.023158 158.812,254.282158 C178.014,258.225158 179.311,258.363158 191.312,257.744158 C213.246,256.612158 213.214,257.040158 192.13,246.960158 L173.812,238.202158 L165.312,238.265158 C157.061,238.327158 156.504,238.486158 146.312,243.688158 M319.135,431.976158 C316.74,434.558158 313.833,441.080158 314.693,441.941158 C315.039,442.287158 366.684,451.175158 368.562,451.211183 C368.975,451.219158 369.312,449.271158 369.312,446.881158 C369.312,443.789158 369.896,442.008158 371.335,440.705158 C373.313,438.915158 372.819,438.767158 349.085,434.055158 C335.735,431.404158 324.109,429.233158 323.249,429.230156 C322.389,429.228158 320.538,430.464158 319.135,431.976158 M383.812,442.226158 C384.912,442.699158 386.712,443.072158 387.812,443.056158 C389.42,443.032158 389.322,442.870158 387.312,442.226158 C383.893,441.131158 381.264,441.131158 383.812,442.226158 M233.326,462.784158 L226.84,467.226158 L231.376,467.226158 C235.763,467.226158 235.986,467.077158 238.1,462.726158 C239.302,460.251158 240.179,458.252158 240.049,458.284158 C239.919,458.316158 236.893,460.341158 233.326,462.784158 M347.922,529.048158 C347.643,529.499158 343.396,539.962158 338.485,552.298158 C327.711,579.355158 314.56,609.351158 312.868,610.726158 C312.19,611.276158 311.826,612.289158 312.058,612.976158 C312.289,613.664158 311.965,614.226158 311.336,614.226158 C310.708,614.226158 310.472,614.676158 310.812,615.226158 C311.152,615.776158 310.968,616.226158 310.402,616.226158 C309.837,616.226158 309.634,616.901158 309.95,617.726158 C310.267,618.551158 310.001,619.226158 309.36,619.226158 C308.719,619.226158 308.472,619.676158 308.812,620.226158 C309.152,620.776158 308.927,621.226158 308.312,621.226158 C307.697,621.226158 307.472,621.676158 307.812,622.226158 C308.152,622.776158 307.905,623.226158 307.264,623.226158 C306.623,623.226158 306.357,623.901158 306.674,624.726158 C306.99,625.551158 306.787,626.226158 306.222,626.226158 C305.656,626.226158 305.448,626.638158 305.759,627.141158 C306.07,627.644158 305.852,628.213158 305.274,628.405158 C304.696,628.598158 304.147,629.761158 304.055,630.991158 C303.962,632.220158 303.611,633.226158 303.274,633.226158 C302.937,633.226158 301.135,637.032158 299.27,641.685158 C296.725,648.034158 295.372,650.216158 293.846,650.435158 C291.718,650.739158 291.425,652.555158 292.69,657.596158 C293.189,659.586158 292.974,660.226158 291.805,660.226158 C290.417,660.226158 290.415,660.524158 291.786,663.176158 C293.68,666.839158 293.683,667.226158 291.812,667.226158 C290.114,667.226158 289.801,668.792158 291.312,669.726158 C292.823,670.660158 292.51,672.226158 290.812,672.226158 C288.919,672.226158 288.909,673.311158 290.78,675.785158 C292.67,678.283158 292.678,679.226158 290.812,679.226158 C288.919,679.226158 288.909,680.311158 290.78,682.785158 C292.696,685.318158 292.676,686.226158 290.705,686.226158 C289.673,686.226158 289.315,686.763158 289.705,687.726158 C290.039,688.551158 290.585,689.901158 290.919,690.726158 C291.311,691.695158 290.948,692.226158 289.893,692.226158 C288.407,692.226158 288.398,692.491158 289.786,695.176158 C290.625,696.799158 291.312,698.374158 291.312,698.676158 C291.312,698.979158 290.625,699.226158 289.786,699.226158 C288.419,699.226158 288.419,699.532158 289.786,702.176158 C291.638,705.757158 291.669,706.226158 290.053,706.226158 C289.36,706.226158 288.231,707.126158 287.544,708.226158 C286.474,709.940158 286.547,710.231158 288.054,710.259158 C289.536,710.287158 289.441,710.602158 287.451,712.259158 C285.144,714.181158 285.138,714.226158 287.201,714.226158 C288.846,714.226158 289.312,714.844158 289.312,717.026158 C289.312,718.566158 288.772,720.366158 288.112,721.026158 C287.179,721.959158 287.303,722.226158 288.671,722.226158 C289.638,722.226158 290.152,722.676158 289.812,723.226158 C289.472,723.776158 289.671,724.226158 290.253,724.226158 C290.835,724.226158 291.312,724.901158 291.312,725.726158 C291.312,726.551158 292.048,727.226158 292.948,727.226158 C294.312,727.226158 294.481,727.975158 293.967,731.726158 C293.417,735.740158 293.562,736.226158 295.312,736.226158 C297.062,736.226158 297.207,736.712158 296.657,740.726158 C296.129,744.581158 296.291,745.226158 297.791,745.226158 C299.331,745.226158 299.459,745.892158 298.855,750.726158 C298.225,755.770158 298.332,756.226158 300.145,756.226158 C301.874,756.226158 302.054,756.727158 301.585,760.226158 C301.138,763.558158 301.338,764.226158 302.779,764.226158 C304.303,764.226158 304.426,764.937158 303.812,770.226158 C303.198,775.515158 303.321,776.226158 304.845,776.226158 C306.286,776.226158 306.486,776.894158 306.039,780.226158 C305.567,783.747158 305.744,784.226158 307.518,784.226158 C309.306,784.226158 309.455,784.651158 308.834,787.976158 C308.449,790.039158 307.979,791.883158 307.791,792.074158 C307.192,792.683158 280.877,800.182158 279.312,800.189158 C278.487,800.193158 269.262,795.695158 258.812,790.194158 L239.812,780.192158 L228.562,782.915158 L217.312,785.638158 L217.312,807.302158 L217.312,828.966158 L221.607,830.169158 L225.902,831.371158 L229.107,847.598158 C231.695,860.702158 232.312,866.273158 232.312,876.545158 L232.312,889.265158 L207.858,916.196158 C185.725,940.569158 178.348,949.957158 179.712,952.010158 C179.973,952.404158 188.48,956.994158 198.616,962.210158 L217.045,971.694158 L252.963,954.210158 L288.88,936.726158 L293.363,924.726158 L297.845,912.726158 L295.384,901.391158 L292.923,890.057158 L307.817,860.215158 L322.711,830.374158 L326.762,829.231158 L330.812,828.088158 L335.844,811.342158 L340.876,794.595158 L330.771,790.829158 C325.213,788.757158 320.125,786.728158 319.464,786.320158 C318.598,785.785158 322.109,774.994158 332.046,747.652158 L345.828,709.726158 L343.634,687.226158 C342.428,674.851158 341.411,662.192158 341.376,659.094158 C341.341,655.997158 344.697,632.868158 348.833,607.696158 L356.355,561.929158 L352.351,547.327158 C350.057,538.963158 348.603,531.765158 348.946,530.476158 C349.533,528.271158 348.926,527.423158 347.922,529.048158 M468.312,726.952158 C468.312,730.143158 465.964,738.746158 461.079,753.452158 L453.846,775.226158 L430.161,775.226158 L406.477,775.226158 L403.231,765.483158 L399.985,755.740158 L396.149,767.200158 C394.038,773.503158 392.344,779.800158 392.383306,781.193158 C392.423,782.586158 394.566,791.376158 397.145,800.726158 L401.835,817.726158 L408.323,818.027158 L414.812,818.328158 L420.099,828.027158 C423.007,833.361158 428.653,841.538158 432.646,846.197158 L439.906,854.668158 L429.488,873.697158 C414.087,901.828158 415.166,897.945158 420.512,905.984158 L425.051,912.809158 L444.431,915.024158 C455.091,916.242158 464.792,917.236158 465.989,917.23217 C467.825,917.227158 470.333,913.024158 482.011,890.384158 L495.857,863.542158 L489.084,845.708158 L482.312,827.874158 L482.312,808.774158 L482.312,789.674158 L487.08,775.407158 L491.849,761.140158 L489.342,741.683158 L486.836,722.226158 L477.574,722.226158 L468.312,722.226158 L468.312,726.952158"/><path fill-opacity=".685" d="M138.86,127.476158 C132.472,142.854158 130.312,149.156158 130.312,152.420158 C130.312,154.815158 129.848,156.214158 129.062,156.195158 C128.375,156.178158 114.129,157.178158 97.406,158.418158 L67,160.673158 L61.169,173.199158 C57.962,180.089158 53.82,188.870158 51.965,192.712158 L48.593,199.697158 L46.432,195.462158 C43.846,190.393158 44.766,190.462158 21.312,193.552158 L4.812,195.726158 L2.406,202.583158 L0,209.440158 L2.568,214.675158 L5.136,219.911158 L24.701,222.264158 L44.267,224.617158 L46.824,222.215158 L49.38,219.813158 L69.096,239.463158 L88.812,259.113158 L125.312,270.064158 L161.812,281.015158 L161.489,285.166158 C161.19,289.016158 161.7,289.985158 168.517,298.521158 L175.866,307.726158 L195.776,377.976158 L215.686,448.226158 L225.84,448.226158 L235.994,448.226158 L237.959,440.861158 C239.833,433.839158 239.846,433.266158 238.243,428.550158 C236.804,424.317158 236.76,423.333158 237.937,421.724158 C239.257,419.918158 239.312,419.931158 239.312,422.035158 C239.312,423.801158 239.892,424.226158 242.303,424.226158 C245.09,424.226158 245.635,423.545158 250.303,414.244158 C253.058,408.754158 255.312,404.131158 255.312,403.972158 C255.312,403.812158 253.662,402.792158 251.645,401.706158 C248.934,400.246158 247.869,400.056158 247.561,400.978158 C247.332,401.665158 246.592,402.226158 245.916,402.226158 C245.239,402.226158 243.393,403.576158 241.812,405.226158 C239.414,407.729158 239.238,408.226158 240.747,408.226158 C242.242,408.226158 242.341,408.487158 241.312,409.726158 C240.627,410.551158 239.37,411.226158 238.518,411.226158 C237.666,411.226158 236.235,411.891158 235.337,412.703158 C233.844,414.054158 232.182,409.269158 215.868,356.642158 C199.039,302.354158 198.096,298.889158 199.172,295.299158 C199.799,293.206158 200.312,289.465158 200.312,286.985158 C200.312,281.600158 196.308,282.703158 234.33,277.615158 L262.849,273.800158 L272.33,256.263158 C281.257,239.753158 281.995,238.708158 284.928,238.423158 C286.643,238.256158 295.741,239.268158 305.147,240.673158 C314.553,242.077158 323.122,243.226158 324.19,243.226158 C325.71,243.226158 326.662,241.647158 328.576,235.956158 L331.02,228.686158 L328.579,223.706158 L326.138,218.726158 L309.088,213.800158 L292.039,208.874158 L287.04,211.684158 L282.04,214.494158 L262.077,194.460158 L242.113,174.426158 L209.463,166.279158 C191.505,161.798158 175.125,157.686158 173.062,157.140158 C169.975,156.324158 169.312,155.701158 169.312,153.612158 C169.312,152.217158 166.949,145.050158 164.062,137.685158 L158.812,124.293158 L149.511,124.260158 L140.21,124.226158 L138.86,127.476158 M306.529,133.917158 L311.221,138.608158 L321.286,136.232158 L331.352,133.856158 L325.662,131.541158 C321.161,129.710158 318.078,129.226158 310.905,129.226158 L301.838,129.226158 L306.529,133.917158 M403.869,133.449158 C402.279,135.718158 401.623,139.434158 403.122,137.676158 C404.192,136.421158 406.387,131.226158 405.847,131.226158 C405.615,131.226158 404.725,132.226158 403.869,133.449158 M344.968,136.342158 C342.853,137.458158 341.278,138.525158 341.468,138.714158 C342.585,139.828158 358.929,143.218158 362.979,143.176158 L367.812,143.126158 L359.312,138.726158 C354.637,136.306158 350.362,134.324158 349.812,134.320151 C349.262,134.317158 347.082,135.227158 344.968,136.342158 M382.812,144.226158 C379.747,149.008158 377.7,151.226158 376.354,151.226158 C374.011,151.226158 372.207,154.216158 372.091,158.289158 C372.045,159.904158 371.6,161.226158 371.101,161.226158 C370.602,161.226158 370.472,161.676158 370.812,162.226158 C371.152,162.776158 370.898,163.226158 370.249,163.226158 C369.368,163.226158 369.384,163.608158 370.312,164.726158 C371.343,165.968158 371.235,166.229158 369.684,166.241158 C368.11,166.254158 368.05,166.411158 369.312,167.226158 C370.574,168.041158 370.514,168.198158 368.94,168.211158 C367.389,168.223158 367.281,168.484158 368.312,169.726158 C369.305,170.923158 369.305,171.226158 368.312,171.226158 C367.319,171.226158 367.319,171.529158 368.312,172.726158 C369.343,173.968158 369.235,174.229158 367.684,174.241158 C366.11,174.254158 366.05,174.411158 367.312,175.226158 C368.574,176.041158 368.514,176.198158 366.94,176.211158 C365.389,176.223158 365.281,176.484158 366.312,177.726158 C367.305,178.923158 367.305,179.226158 366.312,179.226158 C365.351,179.226158 365.369,179.590158 366.39,180.820158 C367.56,182.230158 367.315,182.391158 364.262,182.219158 C358.026,181.866158 356.312,182.191158 356.312,183.726158 C356.312,184.559158 355.423,185.226158 354.312,185.226158 C353.201,185.226158 352.312,185.893158 352.312,186.726158 C352.312,187.559158 351.423,188.226158 350.312,188.226158 C349.201,188.226158 348.312,188.893158 348.312,189.726158 C348.312,190.559158 347.423,191.226158 346.312,191.226158 C345.201,191.226158 344.312,191.893158 344.312,192.726158 C344.312,193.559158 343.423,194.226158 342.312,194.226158 C341.212,194.226158 340.312,194.647158 340.312,195.163158 C340.312,195.678158 344.25,194.766158 349.062,193.137158 C356.833,190.507158 358.349,190.290158 362.611,191.201158 C368.567,192.473158 372.612,192.520158 371.862,191.307158 C371.55,190.802158 372.648,190.091158 374.303,189.728158 C375.958,189.364158 377.312,188.612158 377.312,188.056158 C377.312,185.880158 386.592,176.226158 388.683,176.226158 C389.926,176.226158 391.999,174.738158 393.665,172.651158 C396.318,169.325158 396.442,168.785158 395.441,164.901158 C394.561,161.487158 394.633,160.524158 395.838,159.616158 C396.649,159.005158 397.312,157.614158 397.312,156.525158 C397.312,155.435158 397.931,152.487158 398.688,149.973158 L400.063,145.402158 L396.612,144.754158 C393.897,144.245158 392.853,143.372158 391.723,140.666158 C390.932,138.774158 389.613,137.226158 388.792,137.226158 C387.971,137.226158 385.28,140.376158 382.812,144.226158 M131.312,181.344158 C125.537,181.806158 119.738,182.306158 118.426,182.455158 C116.848,182.634158 122.438,185.524158 134.926,190.984158 L153.812,199.243158 L164.927,199.234158 C175.93,199.226158 176.16,199.177158 187.711,194.393158 L199.38,189.559158 L178.096,184.870158 C155.395,179.869158 152.492,179.650158 131.312,181.344158 M77.262,193.117158 L76.031,200.008158 L89.228,217.117158 C96.487,226.527158 102.665,234.226158 102.958,234.226158 C103.634,234.226158 129.285,218.859158 129.014,218.616158 C128.287,217.969158 79.115,186.226158 78.839,186.226158 C78.649,186.226158 77.939,189.327158 77.262,193.117158 M214.55,209.080158 C205.056,214.490158 197.019,219.185158 196.691,219.513158 C196.363,219.842158 208.792,226.462158 224.312,234.226158 C239.832,241.990158 252.651,248.203158 252.799,248.034158 C252.947,247.865158 254.266,242.576158 255.731,236.281158 L258.395,224.837158 L245.618,212.031158 C238.59,204.988158 232.609,199.230158 232.326,199.234156 C232.043,199.239158 224.044,203.669158 214.55,209.080158 M146.312,243.688158 C139.798,247.013158 136.381,249.262158 137.312,249.611158 C138.137,249.921158 147.812,252.023158 158.812,254.282158 C178.014,258.225158 179.311,258.363158 191.312,257.744158 C213.246,256.612158 213.214,257.040158 192.13,246.960158 L173.812,238.202158 L165.312,238.265158 C157.061,238.327158 156.504,238.486158 146.312,243.688158 M446.921,356.976158 C447.508,366.252158 447.406,367.226158 445.851,367.226158 C444.376,367.226158 444.161,368.183158 444.333,373.976158 C444.668,385.234158 444.401,388.226158 443.062,388.227158 C442.146,388.228158 441.812,390.879158 441.812,398.141158 C441.812,403.594158 442.089,408.332158 442.427,408.672158 C443.836,410.087158 445.293,402.424158 447.876,380.023158 L450.608,356.321158 L448.44,351.523158 L446.271,346.726158 L446.921,356.976158 M319.135,431.976158 C316.74,434.558158 313.833,441.080158 314.693,441.941158 C315.039,442.287158 366.684,451.175158 368.562,451.211183 C368.975,451.219158 369.312,449.271158 369.312,446.881158 C369.312,443.789158 369.896,442.008158 371.335,440.705158 C373.313,438.915158 372.819,438.767158 349.085,434.055158 C335.735,431.404158 324.109,429.233158 323.249,429.230156 C322.389,429.228158 320.538,430.464158 319.135,431.976158 M239.391,439.809158 C239.439,440.974158 239.676,441.211158 239.995,440.414158 C240.284,439.692158 240.248,438.829158 239.916,438.497158 C239.584,438.165158 239.348,438.755158 239.391,439.809158 M383.812,442.226158 C384.912,442.699158 386.712,443.072158 387.812,443.056158 C389.42,443.032158 389.322,442.870158 387.312,442.226158 C383.893,441.131158 381.264,441.131158 383.812,442.226158 M236.716,449.976158 C234.674,458.932158 233.921,460.226158 230.749,460.226158 C229.473,460.226158 228.192,460.610158 227.902,461.080158 C227.612,461.550158 223.198,462.247158 218.093,462.630158 C212.988,463.012158 207.787,463.579158 206.535,463.891158 C202.89,464.796158 205.824,467.226158 210.562,467.226158 L214.568,467.226158 L213.918,471.289158 C211.554,486.071158 210.626,482.127158 230.142,540.226158 C240.026,569.651158 248.653,595.076158 249.314,596.726158 C250.434,599.524158 250.912,598.140158 256.4,576.226158 C259.636,563.301158 263.558,544.395158 265.115,534.213158 L267.945,515.699158 L261.399,486.772158 L254.853,457.844158 L250.473,453.785158 C248.064,451.553158 245.785,449.607158 245.407,449.461158 C245.03,449.315158 243.757,451.115158 242.578,453.461158 L240.436,457.726158 L240.374,449.976158 C240.34,445.714158 239.9,442.226158 239.397,442.226158 C238.894,442.226158 237.688,445.714158 236.716,449.976158 M233.326,462.784158 L226.84,467.226158 L231.376,467.226158 C235.763,467.226158 235.986,467.077158 238.1,462.726158 C239.302,460.251158 240.179,458.252158 240.049,458.284158 C239.919,458.316158 236.893,460.341158 233.326,462.784158 M495.411,462.041158 C493.96,464.752158 494.006,464.999158 496.062,465.537158 C497.379,465.881158 497.255,466.023158 495.562,466.110158 C492.927,466.246158 492.491,468.179158 495.062,468.326158 C496.229,468.392158 495.979,468.692158 494.312,469.226158 C492.645,469.760158 492.395,470.060158 493.562,470.126158 C495.757,470.251158 495.748,470.452158 493.312,475.226158 C492.212,477.382158 491.312,479.389158 491.312,479.686158 C491.312,479.983158 493.946,480.226158 497.165,480.226158 L503.018,480.226158 L504.551,470.976158 C505.394,465.889158 505.933,461.561158 505.748,461.359158 C505.562,461.157158 503.408,460.766158 500.96,460.490158 C497.201,460.066158 496.339,460.307158 495.411,462.041158 M511.359,506.441158 C511.317,513.390158 511.089,514.275158 509.065,515.358158 C507.55,516.169158 507.25,516.705158 508.146,517.004158 C509.948,517.605158 504.562,523.226158 502.184,523.226158 C501.219,523.226158 500.149,523.682158 499.804,524.238158 C499.422,524.857158 494.377,525.148158 486.841,524.988158 C480.056,524.844158 474.19,525.034158 473.807,525.410158 C473.424,525.787158 474.334,527.699158 475.83,529.660158 C478.541,533.214158 478.575,533.226158 486.404,533.226158 C497.883,533.226158 501.07,531.336158 509.92,519.274158 L517.028,509.587158 L514.217,504.156158 L511.406,498.726158 L511.359,506.441158 M468.312,726.952158 C468.312,730.143158 465.964,738.746158 461.079,753.452158 L453.846,775.226158 L430.161,775.226158 L406.477,775.226158 L403.231,765.483158 L399.985,755.740158 L396.149,767.200158 C394.038,773.503158 392.344,779.800158 392.383306,781.193158 C392.423,782.586158 394.566,791.376158 397.145,800.726158 L401.835,817.726158 L408.323,818.027158 L414.812,818.328158 L420.099,828.027158 C423.007,833.361158 428.653,841.538158 432.646,846.197158 L439.906,854.668158 L429.488,873.697158 C414.087,901.828158 415.166,897.945158 420.512,905.984158 L425.051,912.809158 L444.431,915.024158 C455.091,916.242158 464.792,917.236158 465.989,917.23217 C467.825,917.227158 470.333,913.024158 482.011,890.384158 L495.857,863.542158 L489.084,845.708158 L482.312,827.874158 L482.312,808.774158 L482.312,789.674158 L487.08,775.407158 L491.849,761.140158 L489.342,741.683158 L486.836,722.226158 L477.574,722.226158 L468.312,722.226158 L468.312,726.952158 M227.562,783.033158 L217.312,785.631158 L217.312,807.298158 L217.312,828.966158 L221.607,830.169158 L225.902,831.371158 L229.107,847.598158 C231.695,860.702158 232.312,866.273158 232.312,876.545158 L232.312,889.265158 L207.858,916.196158 C185.725,940.569158 178.348,949.957158 179.712,952.010158 C179.973,952.404158 188.48,956.994158 198.616,962.210158 L217.045,971.694158 L252.963,954.210158 L288.88,936.726158 L293.363,924.726158 L297.845,912.726158 L295.384,901.391158 L292.923,890.057158 L307.817,860.215158 L322.711,830.374158 L326.762,829.231158 L330.812,828.088158 L335.844,811.342158 L340.876,794.595158 L330.443,790.661158 C324.705,788.497158 319.598,786.566158 319.095,786.371158 C318.592,786.175158 317.961,786.851158 317.694,787.873158 C317.311,789.338158 313.246,790.850158 298.51,795.008158 C288.226,797.909158 279.362,800.264158 278.812,800.240158 C278.262,800.216158 269.262,795.704158 258.812,790.214158 C248.362,784.724158 239.362,780.278158 238.812,780.333635 C238.262,780.389158 233.199,781.604158 227.562,783.033158"/><path fill-opacity=".641" d="M138.86,127.476158 C132.472,142.854158 130.312,149.156158 130.312,152.420158 C130.312,154.815158 129.848,156.214158 129.062,156.195158 C128.375,156.178158 114.129,157.178158 97.406,158.418158 L67,160.673158 L61.169,173.199158 C57.962,180.089158 53.82,188.870158 51.965,192.712158 L48.593,199.697158 L46.432,195.462158 C43.846,190.393158 44.766,190.462158 21.312,193.552158 L4.812,195.726158 L2.406,202.583158 L0,209.440158 L2.568,214.675158 L5.136,219.911158 L24.701,222.264158 L44.267,224.617158 L46.824,222.215158 L49.38,219.813158 L69.096,239.463158 L88.812,259.113158 L125.312,270.064158 L161.812,281.015158 L161.492,285.144158 C161.196,288.956158 161.721,289.961158 168.33,298.249158 L175.489,307.226158 L183.151,307.240158 C192.132,307.256158 195.312,307.936158 195.312,309.843158 C195.312,310.603158 194.83,311.226158 194.241,311.226158 C193.651,311.226158 193.91,311.966158 194.814,312.871158 C196.151,314.208158 196.212,314.691158 195.136,315.447158 C194.198,316.107158 194.145,316.516158 194.956,316.850158 C195.585,317.110158 195.87,318.200158 195.589,319.274158 C195.308,320.348158 195.504,321.226158 196.025,321.226158 C196.545,321.226158 196.936,322.013158 196.893,322.976158 C196.851,323.938158 197.449,327.988158 198.224,331.976158 C199.363,337.839158 199.984,339.226158 201.472,339.226158 C202.484,339.226158 203.312,339.676158 203.312,340.226158 C203.312,340.776158 202.637,341.226158 201.812,341.226158 C200.987,341.226158 200.312,341.676158 200.312,342.226158 C200.312,342.776158 201.161,343.226158 202.198,343.226158 C203.688,343.226158 204.226,344.225158 204.755,347.976158 C206.832,362.697158 207.499,365.226158 209.306,365.226158 C211.333,365.226158 211.61,366.125158 213.38,378.476158 L214.634,387.226158 L217.723,387.110158 C219.422,387.046158 220.025,386.788158 219.062,386.537158 C217.043,386.009158 216.718,383.632158 218.562,382.888158 C219.309,382.587158 219.107,382.352158 218.062,382.305158 C216.044,382.214158 215.717,380.633158 217.562,379.888158 C218.309,379.587158 218.107,379.352158 217.062,379.305158 C215.059,379.215158 214.683,376.646158 216.562,375.888158 C217.309,375.587158 217.107,375.352158 216.062,375.305158 C214.044,375.214158 213.717,373.633158 215.562,372.888158 C216.309,372.587158 216.107,372.352158 215.062,372.305158 C213.059,372.215158 212.683,369.646158 214.562,368.888158 C215.309,368.587158 215.107,368.352158 214.062,368.305158 C212.044,368.214158 211.717,366.633158 213.562,365.888158 C214.309,365.587158 214.107,365.352158 213.062,365.305158 C211.254,365.223158 210.533,363.226158 212.312,363.226158 C212.862,363.226158 213.312,362.776158 213.312,362.226158 C213.312,361.676158 212.637,361.226158 211.812,361.226158 C209.996,361.226158 209.821,359.591158 211.562,358.888158 C212.309,358.587158 212.107,358.352158 211.062,358.305158 C210.099,358.262158 209.312,357.809158 209.312,357.299158 C209.312,356.790158 210.099,356.162158 211.062,355.905158 C212.544,355.510158 212.468,355.327158 210.562,354.715158 C207.874,353.852158 207.636,352.535158 210.062,351.952158 C211.504,351.605158 211.372,351.339158 209.312,350.442158 C207.515,349.659158 207.304,349.335158 208.562,349.289158 C211.005,349.201158 210.766,347.226158 208.312,347.226158 C207.212,347.226158 206.312,346.776158 206.312,346.226158 C206.312,345.676158 206.987,345.226158 207.812,345.226158 C210.234,345.226158 209.53,343.237158 207.062,343.110158 C205.369,343.023158 205.245,342.881158 206.562,342.537158 C208.958,341.911158 208.775,340.226158 206.312,340.226158 C205.212,340.226158 204.312,339.776158 204.312,339.226158 C204.312,338.676158 204.987,338.226158 205.812,338.226158 C208.234,338.226158 207.53,336.237158 205.062,336.110158 C203.369,336.023158 203.245,335.881158 204.562,335.537158 C207.063,334.883158 206.726,333.247158 204.062,333.110158 C202.369,333.023158 202.245,332.881158 203.562,332.537158 C206.096,331.874158 205.713,329.247158 203.062,329.110158 C201.369,329.023158 201.245,328.881158 202.562,328.537158 C205.063,327.883158 204.726,326.247158 202.062,326.110158 C200.369,326.023158 200.245,325.881158 201.562,325.537158 C204.096,324.874158 203.713,322.247158 201.062,322.110158 C199.369,322.023158 199.245,321.881158 200.562,321.537158 C203.063,320.883158 202.726,319.247158 200.062,319.110158 C198.369,319.023158 198.245,318.881158 199.562,318.537158 C202.096,317.874158 201.713,315.247158 199.062,315.110158 C197.369,315.023158 197.245,314.881158 198.562,314.537158 C201.063,313.883158 200.726,312.247158 198.062,312.110158 C196.369,312.023158 196.245,311.881158 197.562,311.537158 C199.975,310.906158 199.773,308.226158 197.312,308.226158 C194.791,308.226158 194.799,308.084158 197.812,299.226158 C199.187,295.183158 200.312,289.761158 200.312,287.176158 C200.312,281.567158 196.233,282.713158 234.33,277.615158 L262.849,273.800158 L272.33,256.263158 C281.257,239.753158 281.995,238.708158 284.928,238.423158 C286.643,238.256158 295.741,239.268158 305.147,240.673158 C314.553,242.077158 323.122,243.226158 324.19,243.226158 C325.71,243.226158 326.662,241.647158 328.576,235.956158 L331.02,228.686158 L328.579,223.706158 L326.138,218.726158 L309.088,213.800158 L292.039,208.874158 L287.04,211.684158 L282.04,214.494158 L262.077,194.460158 L242.113,174.426158 L209.463,166.279158 C191.505,161.798158 175.125,157.686158 173.062,157.140158 C169.975,156.324158 169.312,155.701158 169.312,153.612158 C169.312,152.217158 166.949,145.050158 164.062,137.685158 L158.812,124.293158 L149.511,124.260158 L140.21,124.226158 L138.86,127.476158 M306.529,133.917158 L311.221,138.608158 L321.286,136.232158 L331.352,133.856158 L325.662,131.541158 C321.161,129.710158 318.078,129.226158 310.905,129.226158 L301.838,129.226158 L306.529,133.917158 M344.968,136.342158 C342.853,137.458158 341.278,138.525158 341.468,138.714158 C342.585,139.828158 358.929,143.218158 362.979,143.176158 L367.812,143.126158 L359.312,138.726158 C354.637,136.306158 350.362,134.324158 349.812,134.320151 C349.262,134.317158 347.082,135.227158 344.968,136.342158 M131.312,181.344158 C125.537,181.806158 119.738,182.306158 118.426,182.455158 C116.848,182.634158 122.438,185.524158 134.926,190.984158 L153.812,199.243158 L164.927,199.234158 C175.93,199.226158 176.16,199.177158 187.711,194.393158 L199.38,189.559158 L178.096,184.870158 C155.395,179.869158 152.492,179.650158 131.312,181.344158 M77.262,193.117158 L76.031,200.008158 L89.228,217.117158 C96.487,226.527158 102.665,234.226158 102.958,234.226158 C103.634,234.226158 129.285,218.859158 129.014,218.616158 C128.287,217.969158 79.115,186.226158 78.839,186.226158 C78.649,186.226158 77.939,189.327158 77.262,193.117158 M214.55,209.080158 C205.056,214.490158 197.019,219.185158 196.691,219.513158 C196.363,219.842158 208.792,226.462158 224.312,234.226158 C239.832,241.990158 252.651,248.203158 252.799,248.034158 C252.947,247.865158 254.266,242.576158 255.731,236.281158 L258.395,224.837158 L245.618,212.031158 C238.59,204.988158 232.609,199.230158 232.326,199.234156 C232.043,199.239158 224.044,203.669158 214.55,209.080158 M146.312,243.688158 C139.798,247.013158 136.381,249.262158 137.312,249.611158 C138.137,249.921158 147.812,252.023158 158.812,254.282158 C178.014,258.225158 179.311,258.363158 191.312,257.744158 C213.246,256.612158 213.214,257.040158 192.13,246.960158 L173.812,238.202158 L165.312,238.265158 C157.061,238.327158 156.504,238.486158 146.312,243.688158 M215.312,389.226158 C215.312,389.776158 216.55,390.219158 218.062,390.211158 C220.205,390.199158 220.481,389.981158 219.312,389.226158 C217.355,387.962158 215.312,387.962158 215.312,389.226158 M220.312,397.783158 C220.312,402.581158 222.752,413.226158 223.852,413.226158 C225.388,413.226158 226.57,410.479158 225.227,410.031158 C224.692,409.853158 224.155,408.361158 224.033,406.716158 C223.912,405.072158 223.412,403.436158 222.924,403.082158 C222.435,402.727158 221.985,401.041158 221.924,399.334158 C221.813,396.250158 220.312,394.806158 220.312,397.783158 M224.125,415.909158 C224.846,416.198158 225.709,416.162158 226.041,415.830158 C226.373,415.498158 225.783,415.262158 224.729,415.305158 C223.564,415.353158 223.327,415.590158 224.125,415.909158 M228.876,428.226158 C229.77,435.638158 230.421,438.226158 231.391,438.226158 C232.661,438.226158 232.581,437.632158 230.319,430.226158 C228.515,424.319158 228.383,424.136158 228.876,428.226158 M319.135,431.976158 C316.74,434.558158 313.833,441.080158 314.693,441.941158 C315.039,442.287158 366.684,451.175158 368.562,451.211183 C368.975,451.219158 369.312,449.271158 369.312,446.881158 C369.312,443.789158 369.896,442.008158 371.335,440.705158 C373.313,438.915158 372.819,438.767158 349.085,434.055158 C335.735,431.404158 324.109,429.233158 323.249,429.230156 C322.389,429.228158 320.538,430.464158 319.135,431.976158 M383.812,442.226158 C384.912,442.699158 386.712,443.072158 387.812,443.056158 C389.42,443.032158 389.322,442.870158 387.312,442.226158 C383.893,441.131158 381.264,441.131158 383.812,442.226158 M468.312,727.003158 C468.312,730.255158 466.078,738.463158 461.312,752.726158 C457.462,764.247158 454.312,774.022158 454.312,774.449158 C454.312,774.876158 455.123,775.226158 456.115,775.226158 C457.466,775.226158 458.484,773.471158 460.173,768.226158 C462.039,762.431158 462.805,761.214158 464.62,761.156158 C466.733,761.088158 466.74,761.054158 464.812,760.226158 C462.89,759.400158 462.898,759.364158 465.022,759.296158 C466.714,759.242158 467.516,758.279158 468.444,755.179158 C469.412,751.949158 470.076,751.192158 471.734,751.429158 C473.009,751.611158 473.935,752.595158 474.132,753.976158 C474.337,755.422158 475.141,756.226158 476.382,756.226158 C477.621,756.226158 478.312,756.916158 478.312,758.153158 C478.312,759.212158 479.1,760.285158 480.062,760.537158 C481.379,760.881158 481.255,761.023158 479.562,761.110158 C477.084,761.238158 476.364,764.226158 478.812,764.226158 C479.637,764.226158 480.312,764.676158 480.312,765.226158 C480.312,765.776158 479.412,766.226158 478.312,766.226158 C477.212,766.226158 476.312,766.676158 476.312,767.226158 C476.312,767.776158 476.987,768.226158 477.812,768.226158 C480.26,768.226158 479.54,771.214158 477.062,771.342158 C475.21,771.437158 475.14,771.543158 476.668,771.936158 C478.148,772.317158 478.401,773.029158 477.918,775.445158 C477.585,777.112158 477.312,779.320158 477.312,780.351158 C477.312,781.559158 476.601,782.226158 475.312,782.226158 C473.776,782.226158 473.312,782.893158 473.312,785.099158 L473.312,787.972158 L450.062,788.695158 C425.889,789.446158 396.731,791.473158 395.733,792.471158 C395.417,792.788158 396.661,798.600158 398.498,805.387158 L401.838,817.726158 L437.332,817.988158 L472.825,818.251158 L482.343,789.488158 L491.86,760.726158 L489.358,741.476158 L486.856,722.226158 L477.584,722.226158 L468.312,722.226158 L468.312,727.003158 M317.312,788.598158 C317.312,789.222158 311.574,791.421158 304.562,793.484158 L291.812,797.235158 L304.812,796.717158 C311.962,796.432158 322.087,795.918158 327.312,795.575158 C343.04,794.541158 337.839,796.044158 309.369,800.761158 C304.726,801.530158 300.273,802.411158 299.475,802.717158 C294.287,804.708158 280.424,805.427158 250.562,805.255158 L217.312,805.062158 L217.312,816.914158 L217.312,828.765158 L245.659,838.175158 L274.005,847.585158 L302.421,837.696158 L330.837,827.807158 L335.912,811.016158 C339.149,800.308158 340.56,794.226158 339.807,794.226158 C339.158,794.226158 333.83,792.704158 327.969,790.844158 C321.334,788.738158 317.312,787.891158 317.312,788.598158 M480.818,832.220158 C479.063,834.159158 479.064,834.226158 480.831,834.226158 C482.465,834.226158 482.41,834.493158 480.312,836.726158 C478.119,839.060158 478.091,839.233158 479.888,839.326158 C481.396,839.404158 481.271,839.599158 479.312,840.226158 C477.937,840.666158 477.491,841.071158 478.321,841.126158 C479.152,841.181158 480.393,842.126158 481.08,843.226158 C481.767,844.326158 483,845.226158 483.82,845.226158 C484.641,845.226158 485.312,845.901158 485.312,846.726158 C485.312,847.551158 486.043,848.226158 486.937,848.226158 C488.215,848.226158 488.428,848.867158 487.937,851.226158 C487.593,852.876158 487.031,855.576158 486.687,857.226158 C486.196,859.585158 486.409,860.226158 487.687,860.226158 C490.233,860.226158 489.624,863.216158 487.062,863.296158 C484.915,863.363158 484.904,863.406158 486.812,864.226158 C488.748,865.058158 488.743,865.088158 486.643,865.156158 C484.696,865.219158 484.144,866.604158 481.239,878.726158 C478.389,890.618158 477.754,892.240158 475.908,892.342158 C474.219,892.435158 474.152,892.547158 475.562,892.915158 C477.939,893.536158 477.784,895.226158 475.351,895.226158 C473.88,895.226158 473.118,896.289158 472.304,899.476158 C471.707,901.813158 470.81,904.851158 470.312,906.226158 C469.813,907.601158 469.272,909.805158 469.109,911.124158 C468.787,913.727158 467.665,914.538158 462.312,916.040158 L458.812,917.022158 L463.489,917.124158 L468.166,917.226158 L482.01,890.386158 L495.855,863.547158 L489.706,847.343158 C486.325,838.431158 483.35,830.931158 483.096,830.676158 C482.841,830.422158 481.816,831.116158 480.818,832.220158 M279.312,885.686158 C279.312,886.062158 280.027,887.084158 280.902,887.959158 C281.874,888.931158 282.33,890.651158 282.075,892.387158 C281.747,894.622158 282.047,895.226158 283.485,895.226158 C285.614,895.226158 286.102,899.741158 284.062,900.564158 C283.375,900.841158 283.686,901.104158 284.753,901.147158 C286.675,901.225158 286.675,901.241158 284.753,902.694158 C283.556,903.600158 283.314,904.175158 284.121,904.194158 C284.841,904.212158 285.152,904.676158 284.812,905.226158 C284.472,905.776158 284.596,906.226158 285.086,906.226158 C285.577,906.226158 285.979,906.901158 285.979,907.726158 C285.979,908.551158 285.352,909.226158 284.586,909.226158 C283.821,909.226158 283.472,909.676158 283.812,910.226158 C284.152,910.776158 283.477,911.226158 282.312,911.226158 C281.147,911.226158 280.472,911.676158 280.812,912.226158 C281.152,912.776158 280.728,913.226158 279.871,913.226158 C279.014,913.226158 278.312,913.676158 278.312,914.226158 C278.312,914.776158 277.61,915.226158 276.753,915.226158 C275.896,915.226158 275.472,915.676158 275.812,916.226158 C276.152,916.776158 275.732,917.226158 274.879,917.226158 C274.027,917.226158 272.767,918.126158 272.08,919.226158 C271.393,920.326158 269.866,921.226158 268.686,921.226158 C267.503,921.226158 265.808,922.346158 264.904,923.726158 C264.003,925.101158 262.407,926.226158 261.357,926.226158 C260.307,926.226158 258.487,927.576158 257.312,929.226158 C256.137,930.876158 254.317,932.226158 253.267,932.226158 C252.217,932.226158 250.621,933.351158 249.72,934.726158 C248.788,936.148158 247.126,937.226158 245.866,937.226158 C244.526,937.226158 243.121,938.214158 242.312,939.726158 C241.525,941.196158 240.093,942.226158 238.836,942.226158 C236.807,942.226158 230.925,949.020158 229.095,953.476158 C228.7,954.438158 227.687,955.226158 226.844,955.226158 C225.877,955.226158 225.312,956.147158 225.312,957.726158 C225.312,959.559158 224.779,960.226158 223.312,960.226158 C222.02,960.226158 221.312,960.893158 221.312,962.109158 C221.312,964.596158 218.435,965.071158 209.282,964.093158 C205.223,963.659158 201.778,963.426158 201.629,963.576158 C201.479,963.725158 204.932,965.591158 209.302,967.721158 L217.247,971.595158 L253.064,954.160158 L288.88,936.726158 L293.353,924.726158 L297.826,912.726158 L295.347,901.084158 C293.027,890.192158 292.672,889.340158 289.84,887.875158 C286.445,886.118158 279.312,884.635158 279.312,885.686158"/></g></svg>