<svg xmlns="http://www.w3.org/2000/svg" width="309.628" height="924.676" viewBox="0 0 309.628 924.676"><g fill="#ABABAB" fill-rule="evenodd"><path fill-opacity=".318" d="M167.166368,2.05034612 L154.722368,4.19534612 L151.529368,9.51434612 C149.772368,12.4393461 143.855368,19.4103461 138.381368,25.0043461 C130.522368,33.0343461 128.035368,36.2813461 126.570368,40.4263461 C124.743368,45.5943461 124.651368,45.6763461 120.661368,45.6643461 C115.987368,45.6493461 61.8263682,50.8353461 61.1763682,51.3603461 C60.9383682,51.5513461 62.2703682,61.8993461 64.1363682,74.3553461 L67.5283682,97.0023461 L71.3193682,98.4903461 C73.4033682,99.3093461 75.1093682,100.361346 75.1093682,100.828346 C75.1093682,101.294346 75.9293682,101.676346 76.9313682,101.676346 C77.9333682,101.676346 80.8913682,102.405346 83.5043682,103.295346 L88.2553682,104.914346 L85.4953682,107.795346 C82.3743682,111.052346 82.5253682,111.101346 90.1093682,109.295346 C94.8883682,108.157346 96.1013682,108.194346 99.3633682,109.580346 L103.116368,111.176346 L85.0873682,126.567346 C75.1713682,135.032346 67.2663682,142.166346 67.5203682,142.420346 C67.7743682,142.674346 73.6413682,142.091346 80.5573682,141.124346 C87.4743682,140.158346 93.4013682,139.634346 93.7283682,139.962346 C94.0563682,140.289346 91.1643682,144.297346 87.3033682,148.867346 C83.4413682,153.437346 80.4233682,157.319346 80.5963682,157.493346 C80.7683682,157.668346 89.7233682,154.998346 100.494368,151.561346 C111.265368,148.123346 120.283368,145.517346 120.535368,145.768346 C120.933368,146.167346 117.930368,161.232346 116.535368,165.836346 C116.210368,166.906346 108.758368,170.409346 95.5513682,175.699346 C75.4793682,183.739346 74.9773682,184.011346 70.4343682,189.330346 C65.9713682,194.553346 65.5793682,195.552346 59.9683682,215.966346 C56.7613682,227.632346 54.1293682,238.076346 54.1183682,239.176346 C54.1073682,240.276346 55.0933682,245.647346 56.3103682,251.112346 C58.0963682,259.130346 59.4133682,262.413346 63.1323682,268.112346 L67.7413682,275.176346 L54.6363682,289.679346 L41.5323682,304.181346 L39.3243682,333.090346 L37.1163682,361.999346 L31.3623682,368.088346 C27.8753682,371.778346 24.2653682,377.007346 22.1963682,381.364346 L18.7833682,388.551346 L23.3713682,399.109346 L27.9603682,409.666346 L22.4023682,426.308346 L16.8443682,442.950346 L18.9303682,447.244346 C20.3853682,450.240346 22.8283682,452.769346 27.0083682,455.607346 C30.3033682,457.845346 33.3033682,459.676346 33.6733682,459.676346 C34.0443682,459.676346 37.0203682,458.052346 40.2873682,456.068346 C43.5543682,454.084346 46.3503682,452.621346 46.5003682,452.818346 C46.6513682,453.015346 51.9173682,465.097346 58.2033682,479.668346 L69.6313682,506.160346 L75.1203682,508.086346 C78.1393682,509.145346 80.7693682,510.134346 80.9663682,510.283346 C81.1623682,510.433346 78.2923682,533.420346 74.5883682,561.366346 L67.8553682,612.176346 L59.9823682,638.334346 C55.6523682,652.722346 52.1093682,666.031346 52.1093682,667.912346 C52.1093682,669.792346 54.3593682,692.996346 57.1093682,719.477346 C59.8593682,745.958346 62.1093682,768.218346 62.1093682,768.944346 C62.1093682,769.716346 58.5833682,771.412346 53.6093682,773.032346 L45.1093682,775.800346 L45.1743682,802.988346 C45.2233682,823.464346 45.6623682,832.892346 46.9543682,841.176346 L48.6703682,852.176346 L25.5923682,876.176346 C5.72436823,896.838346 -1.40563177,905.534346 0.224368231,907.113346 C0.884368231,907.752346 43.5133682,924.676346 44.4623682,924.676346 C44.9573682,924.676346 59.1833682,916.014346 76.0753682,905.426346 L106.788368,886.176346 L108.722368,878.176346 C110.591368,870.447346 110.598368,869.855346 108.934368,860.676346 C107.986368,855.451346 107.191368,849.826346 107.166368,848.176346 C107.136368,846.139346 112.831368,834.564346 124.915368,812.105346 L142.708368,779.033346 L132.158368,775.324346 C126.356368,773.284346 121.125368,771.291346 120.534368,770.895346 C119.836368,770.428346 126.329368,754.034346 139.037368,724.176346 L158.615368,678.176346 L156.942368,658.676346 C156.021368,647.951346 155.246368,636.026346 155.218368,632.176346 C155.174368,626.078346 168.128368,538.324346 169.235368,537.216346 C169.458368,536.994346 175.483368,557.818346 182.625368,583.494346 L195.609368,630.176346 L193.677368,652.339346 L191.744368,674.503346 L203.965368,701.683346 L216.186368,728.863346 L213.933368,747.308346 L211.679368,765.754346 L217.193368,782.465346 L222.708368,799.176346 L230.719368,804.645346 L238.730368,810.115346 L229.420368,830.996346 C224.299368,842.481346 220.109368,852.400346 220.109368,853.040346 C220.109368,853.679346 221.696368,856.559346 223.636368,859.439346 L227.162368,864.676346 L247.529368,864.676346 L267.895368,864.676346 L278.771368,837.426346 L289.646368,810.176346 L287.628368,800.479346 C285.927368,792.310346 285.093368,790.249346 282.335368,787.406346 L279.060368,784.031346 L279.335368,746.853346 L279.609368,709.675346 L272.340368,709.676346 C265.329368,709.676346 265.088368,709.596346 265.540368,707.426346 C265.798368,706.188346 266.521368,698.201346 267.146368,689.676346 C267.771368,681.151346 268.491368,673.518346 268.746368,672.714346 C269.001368,671.910346 269.433368,667.185346 269.708368,662.214346 C269.982368,657.243346 270.754368,647.326346 271.424368,640.176346 L272.643368,627.176346 L267.310368,610.176346 L261.978368,593.176346 L256.714368,535.676346 L251.450368,478.176346 L257.058368,469.219346 L262.665368,460.263346 L255.395368,435.719346 C249.128368,414.561346 248.124368,410.111346 248.117368,403.453346 C248.111368,397.920346 248.661368,394.516346 250.054368,391.453346 C251.376368,388.547346 253.650368,375.538346 257.148368,350.878346 L262.296368,314.580346 L279.485368,283.840346 L296.675368,253.100346 L295.366368,248.638346 L294.058368,244.176346 L297.853368,240.605346 L301.648368,237.034346 L305.636368,212.105346 L309.625368,187.176346 L306.236368,167.676346 C304.371368,156.951346 302.670368,147.978346 302.455368,147.736346 C302.116368,147.357346 287.605368,149.831346 281.515368,151.307346 C279.800368,151.723346 277.199368,149.159346 267.173368,137.171346 C260.436368,129.116346 255.165368,122.286346 255.459368,121.993346 C255.753368,121.699346 260.149368,122.852346 265.229368,124.556346 C270.309368,126.260346 274.636368,127.483346 274.844368,127.274346 C275.053368,127.065346 267.338368,120.005346 257.700368,111.585346 C248.062368,103.165346 240.273368,96.1893461 240.392368,96.0833461 C240.512368,95.9773461 246.909368,90.7803461 254.609368,84.5333461 L268.609368,73.1763461 L265.609368,63.9513461 L262.609368,54.7253461 L246.056368,54.7013461 L229.503368,54.6763461 L227.306368,47.8553461 C225.541368,42.3763461 225.101368,38.5893461 225.068368,28.6053461 L225.027368,16.1763461 L218.318368,11.1763461 C212.519368,6.85434612 209.981368,5.73734612 199.609368,2.94134612 C185.765368,-0.78965388 183.929368,-0.84065388 167.166368,2.05034612 M210.352368,144.866346 C209.858368,147.237346 209.488368,149.249346 209.531368,149.338346 C209.719368,149.729346 239.342368,153.776346 239.664368,153.455346 C239.934368,153.184346 217.040368,142.739346 212.072368,140.866346 C211.620368,140.696346 210.846368,142.496346 210.352368,144.866346 M110.585368,296.426346 C106.921368,300.688346 86.9783682,321.163346 66.2663682,341.924346 L28.6093682,379.673346 L32.4793682,379.674349 C36.2163682,379.676346 37.5553682,378.497346 71.4793682,345.323346 C91.8653682,325.388346 112.415368,306.292346 120.443368,299.823346 L134.277368,288.676346 L125.762368,288.676346 L117.247368,288.676346 L110.585368,296.426346"/><path fill-opacity=".086" d="M167.166368,2.05034612 L154.722368,4.19534612 L151.529368,9.51434612 C149.772368,12.4393461 143.855368,19.4103461 138.381368,25.0043461 C130.522368,33.0343461 128.035368,36.2813461 126.570368,40.4263461 C124.743368,45.5943461 124.651368,45.6763461 120.661368,45.6643461 C115.987368,45.6493461 61.8263682,50.8353461 61.1763682,51.3603461 C60.9383682,51.5513461 62.2703682,61.8993461 64.1363682,74.3553461 L67.5283682,97.0023461 L71.3193682,98.4903461 C73.4033682,99.3093461 75.1093682,100.361346 75.1093682,100.828346 C75.1093682,101.294346 75.9293682,101.676346 76.9313682,101.676346 C77.9333682,101.676346 80.8913682,102.405346 83.5043682,103.295346 L88.2553682,104.914346 L85.4953682,107.795346 C82.3743682,111.052346 82.5253682,111.101346 90.1093682,109.295346 C94.8883682,108.157346 96.1013682,108.194346 99.3633682,109.580346 L103.116368,111.176346 L85.0873682,126.567346 C75.1713682,135.032346 67.2663682,142.166346 67.5203682,142.420346 C67.7743682,142.674346 73.6413682,142.091346 80.5573682,141.124346 C87.4743682,140.158346 93.4013682,139.634346 93.7283682,139.962346 C94.0563682,140.289346 91.1643682,144.297346 87.3033682,148.867346 C83.4413682,153.437346 80.4233682,157.319346 80.5963682,157.493346 C80.7683682,157.668346 89.7233682,154.998346 100.494368,151.561346 C111.265368,148.123346 120.287368,145.520346 120.542368,145.776346 C121.325368,146.558346 116.423368,166.864346 115.282368,167.569346 C114.650368,167.960346 115.416368,169.036346 117.158368,170.203346 C120.467368,172.420346 120.686368,173.330346 118.577368,176.117346 C117.470368,177.580346 117.403368,178.239346 118.302368,178.795346 C119.226368,179.367346 119.226368,180.123346 118.302368,182.151346 C117.646368,183.592346 117.103368,187.111346 117.095368,189.973346 C117.078368,196.580346 116.247368,199.676346 114.492368,199.676346 C113.410368,199.676346 113.107368,201.797346 113.098368,209.426346 C113.084368,221.456346 112.292368,226.676346 110.478368,226.676346 C109.575368,226.676346 109.109368,227.891346 109.109368,230.247346 C109.109368,233.844346 107.305368,236.676346 105.014368,236.676346 C104.333368,236.676346 104.086368,236.987346 104.466368,237.366346 C104.846368,237.746346 103.908368,238.609346 102.383368,239.285346 C100.226368,240.240346 100.037368,240.532346 101.533368,240.595346 C103.328368,240.671346 103.300368,240.844346 101.109368,243.176346 C99.8173682,244.551346 98.0113682,245.676346 97.0953682,245.676346 C95.7303682,245.676346 95.1303682,247.794346 93.7683682,257.426346 C92.8543682,263.888346 92.1073682,271.600346 92.1083682,274.562346 L92.1093682,279.948346 L87.8593682,279.351346 C85.5213682,279.023346 82.0343682,278.458346 80.1093682,278.095346 L76.6093682,277.435346 L80.1093682,280.515346 C84.8433682,284.680346 82.4023682,284.478346 75.6263682,280.144346 C72.5893682,278.201346 69.4853682,276.374346 68.7283682,276.083346 C67.8643682,275.752346 62.5443682,280.891346 54.4413682,289.883346 L41.5303682,304.211346 L39.3193682,333.160346 L37.1073682,362.109346 L32.6083682,366.677346 C29.5023682,369.831346 28.1093682,372.085346 28.1093682,373.960346 C28.1093682,376.076346 27.6123682,376.702346 25.8593682,376.792346 C23.8163682,376.897346 23.7933682,376.954346 25.6093682,377.408346 C26.7093682,377.683346 27.8483682,378.286346 28.1413682,378.748346 C28.4333682,379.210346 44.4213682,363.858346 63.6703682,344.633346 C97.9023682,310.441346 98.6253682,309.637346 96.7893682,307.801346 C94.9533682,305.965346 95.1573682,305.735346 106.121368,297.300346 L117.329368,288.676346 L125.470368,288.676346 L133.611368,288.676346 L137.499368,302.426346 C139.637368,309.989346 141.601368,316.963346 141.864368,317.926346 C142.304368,319.536346 141.139368,319.676346 127.246368,319.676346 L112.150368,319.676346 L110.006368,315.426346 C108.828368,313.089346 107.704368,310.999346 107.509368,310.782346 C107.315368,310.566346 91.3313682,325.866346 71.9903682,344.782346 C43.8043682,372.350346 37.2503682,379.239346 38.9673682,379.496346 C40.1453682,379.671346 41.1093682,380.202346 41.1093682,380.675346 C41.1093682,381.471346 36.4743682,382.620346 26.6093682,384.272346 L22.6093682,384.942346 L24.8593682,382.494346 C27.5873682,379.527346 27.6813682,378.676346 25.2803682,378.676346 C24.0663682,378.676346 22.6703682,380.344346 21.1283682,383.636346 L18.8053682,388.596346 L30.3863682,415.386346 C36.7563682,430.120346 41.6623682,442.475346 41.2893682,442.839346 C40.9153682,443.204346 35.5823682,444.082346 29.4373682,444.790346 L18.2653682,446.078346 L19.6973682,448.846346 C20.9423682,451.255346 31.8113682,459.676346 33.6733682,459.676346 C34.0443682,459.676346 37.0203682,458.052346 40.2873682,456.068346 C43.5543682,454.084346 46.3503682,452.621346 46.5003682,452.818346 C46.6513682,453.015346 51.9173682,465.097346 58.2033682,479.668346 L69.6313682,506.160346 L75.1203682,508.086346 C78.1393682,509.145346 80.7693682,510.134346 80.9663682,510.283346 C81.1623682,510.433346 78.2923682,533.420346 74.5883682,561.366346 L67.8553682,612.176346 L59.9823682,638.334346 C55.6523682,652.722346 52.1093682,666.031346 52.1093682,667.912346 C52.1093682,669.792346 54.3593682,692.996346 57.1093682,719.477346 C59.8593682,745.958346 62.1093682,768.218346 62.1093682,768.944346 C62.1093682,769.716346 58.5833682,771.412346 53.6093682,773.032346 L45.1093682,775.800346 L45.1743682,802.988346 C45.2233682,823.464346 45.6623682,832.892346 46.9543682,841.176346 L48.6703682,852.176346 L25.5923682,876.176346 C5.72436823,896.838346 -1.40563177,905.534346 0.224368231,907.113346 C0.884368231,907.752346 43.5133682,924.676346 44.4623682,924.676346 C44.9573682,924.676346 59.1833682,916.014346 76.0753682,905.426346 L106.788368,886.176346 L108.722368,878.176346 C110.591368,870.447346 110.598368,869.855346 108.934368,860.676346 C107.986368,855.451346 107.191368,849.826346 107.166368,848.176346 C107.136368,846.139346 112.831368,834.564346 124.915368,812.105346 L142.708368,779.033346 L132.158368,775.324346 C126.356368,773.284346 121.125368,771.291346 120.534368,770.895346 C119.836368,770.428346 126.329368,754.034346 139.037368,724.176346 L158.615368,678.176346 L156.942368,658.676346 C156.021368,647.951346 155.246368,636.026346 155.218368,632.176346 C155.174368,626.078346 168.128368,538.324346 169.235368,537.216346 C169.458368,536.994346 175.483368,557.818346 182.625368,583.494346 L195.609368,630.176346 L193.677368,652.339346 L191.744368,674.503346 L203.965368,701.683346 L216.186368,728.863346 L213.933368,747.308346 L211.679368,765.754346 L217.193368,782.465346 L222.708368,799.176346 L230.719368,804.645346 L238.730368,810.115346 L229.420368,830.996346 C224.299368,842.481346 220.109368,852.400346 220.109368,853.040346 C220.109368,853.679346 221.696368,856.559346 223.636368,859.439346 L227.162368,864.676346 L247.529368,864.676346 L267.895368,864.676346 L278.771368,837.426346 L289.646368,810.176346 L287.628368,800.479346 C285.927368,792.310346 285.093368,790.249346 282.335368,787.406346 L279.060368,784.031346 L279.335368,746.853346 L279.609368,709.675346 L272.340368,709.676346 C265.329368,709.676346 265.088368,709.596346 265.540368,707.426346 C265.798368,706.188346 266.521368,698.201346 267.146368,689.676346 C267.771368,681.151346 268.491368,673.518346 268.746368,672.714346 C269.001368,671.910346 269.433368,667.185346 269.708368,662.214346 C269.982368,657.243346 270.754368,647.326346 271.424368,640.176346 L272.643368,627.176346 L267.310368,610.176346 L261.978368,593.176346 L256.714368,535.676346 L251.450368,478.176346 L257.058368,469.219346 L262.665368,460.263346 L255.395368,435.719346 C249.128368,414.561346 248.124368,410.111346 248.117368,403.453346 C248.111368,397.920346 248.661368,394.516346 250.054368,391.453346 C251.376368,388.547346 253.650368,375.538346 257.148368,350.878346 L262.296368,314.580346 L279.485368,283.840346 L296.675368,253.100346 L295.366368,248.638346 L294.058368,244.176346 L297.853368,240.605346 L301.648368,237.034346 L305.636368,212.105346 L309.625368,187.176346 L306.236368,167.676346 C304.371368,156.951346 302.670368,147.978346 302.455368,147.736346 C302.116368,147.357346 287.605368,149.831346 281.515368,151.307346 C279.800368,151.723346 277.199368,149.159346 267.173368,137.171346 C260.436368,129.116346 255.165368,122.286346 255.459368,121.993346 C255.753368,121.699346 260.149368,122.852346 265.229368,124.556346 C270.309368,126.260346 274.636368,127.483346 274.844368,127.274346 C275.053368,127.065346 267.338368,120.005346 257.700368,111.585346 C248.062368,103.165346 240.273368,96.1893461 240.392368,96.0833461 C240.512368,95.9773461 246.909368,90.7803461 254.609368,84.5333461 L268.609368,73.1763461 L265.609368,63.9513461 L262.609368,54.7253461 L246.056368,54.7013461 L229.503368,54.6763461 L227.306368,47.8553461 C225.541368,42.3763461 225.101368,38.5893461 225.068368,28.6053461 L225.027368,16.1763461 L218.318368,11.1763461 C212.519368,6.85434612 209.981368,5.73734612 199.609368,2.94134612 C185.765368,-0.78965388 183.929368,-0.84065388 167.166368,2.05034612 M181.407368,114.180346 C176.896368,114.767346 172.931368,115.521346 172.596368,115.855346 C172.262368,116.190346 174.788368,118.424346 178.209368,120.820346 L184.430368,125.176346 L178.020368,125.494346 C172.185368,125.783346 160.109368,123.314346 160.109368,121.832346 C160.109368,121.542346 161.087368,120.263346 162.283368,118.990346 C164.798368,116.314346 164.394368,116.232346 155.723368,117.652346 C148.900368,118.769346 148.380368,119.092346 150.089368,121.152346 C152.188368,123.680346 133.764368,123.299346 127.109368,120.676346 C124.318368,119.576346 121.817368,118.676346 121.552368,118.676346 C121.286368,118.676346 122.052368,120.588346 123.255368,122.926346 C124.458368,125.264346 127.292368,134.539346 129.553368,143.537346 L133.665368,159.899346 L140.477368,152.287346 C145.255368,146.948346 147.982368,144.676346 149.610368,144.676346 C153.791368,144.676346 163.536368,148.933346 167.151368,152.339346 C169.099368,154.174346 171.574368,155.665346 172.651368,155.651346 C174.239368,155.631346 173.853368,154.922346 170.609368,151.901346 L166.609368,148.176346 L169.244368,145.426346 C170.693368,143.914346 172.596368,142.676346 173.474368,142.676346 C174.351368,142.676346 175.987368,140.876346 177.109368,138.676346 C178.231368,136.476346 179.795368,134.676346 180.584368,134.676346 C181.373368,134.676346 183.143368,133.551346 184.518368,132.176346 C185.893368,130.801346 187.924368,129.676346 189.032368,129.676346 C190.446368,129.676346 190.868368,129.211346 190.448368,128.116346 C190.085368,127.172346 190.961368,125.397346 192.666368,123.616346 C195.112368,121.063346 195.235368,120.676346 193.596368,120.676346 C192.128368,120.676346 191.976368,120.409346 192.909368,119.476346 C194.726368,117.659346 194.347368,115.676346 192.182368,115.676346 C191.123368,115.676346 190.110368,115.099346 189.932368,114.394346 C189.675368,113.373346 187.941368,113.330346 181.407368,114.180346 M214.762368,117.773346 C215.915368,118.927346 217.703368,119.692346 218.734368,119.473346 C220.275368,119.146346 220.038368,118.772346 217.409368,117.376346 C213.121368,115.099346 212.222368,115.234346 214.762368,117.773346 M210.352368,144.866346 C209.858368,147.237346 209.488368,149.249346 209.531368,149.338346 C209.719368,149.729346 239.342368,153.776346 239.664368,153.455346 C239.934368,153.184346 217.040368,142.739346 212.072368,140.866346 C211.620368,140.696346 210.846368,142.496346 210.352368,144.866346 M210.169368,165.104346 C209.451368,165.969346 208.253368,166.676346 207.506368,166.676346 C206.758368,166.676346 205.912368,167.688346 205.624368,168.926346 C204.338368,174.460346 202.272368,185.172346 202.456368,185.356346 C202.567368,185.468346 205.371368,182.548346 208.686368,178.867346 L214.713368,172.176346 L213.093368,167.854346 C211.682368,164.090346 211.305368,163.735346 210.169368,165.104346 M225.762368,207.426346 C217.697368,224.889346 211.085368,240.301346 211.068267,241.676346 C211.052368,243.051346 212.941368,263.432346 215.266368,286.967346 L219.494368,329.759346 L225.972368,329.467346 C229.780368,329.296346 232.608368,328.695346 232.835368,328.010346 C233.046368,327.369346 232.526368,326.694346 231.678368,326.510346 C230.466368,326.248346 230.991368,324.825346 234.122368,319.886346 C236.315368,316.426346 238.109368,313.389346 238.109368,313.136346 C238.109368,312.883346 237.322368,312.631346 236.359368,312.576346 C235.192368,312.510346 235.442368,312.210346 237.109368,311.676346 C238.974368,311.079346 239.135368,310.850346 237.744368,310.776346 C235.936368,310.679346 235.935368,310.592346 237.695368,307.926346 C239.919368,304.559346 240.630368,300.537346 243.419368,275.573346 C244.784368,263.352346 246.126368,255.349346 246.981368,254.323346 C247.736368,253.417346 249.536368,252.66934 250.981368,252.661346 C253.045368,252.649346 253.287368,252.437346 252.109368,251.676346 C250.912368,250.903346 251.097368,250.704346 253.021368,250.691346 C254.490368,250.682346 259.787368,247.356346 266.581368,242.176346 C272.713368,237.501346 278.558368,233.676346 279.571368,233.676346 C280.584368,233.676346 283.341368,232.213346 285.697368,230.426346 C289.203368,227.766346 289.877368,226.743346 289.403368,224.793346 C289.085368,223.482346 283.827368,214.018346 277.717368,203.763346 L266.609368,185.117346 L254.109368,180.389346 C247.234368,177.789346 241.343368,175.665346 241.018368,175.66934 C240.693368,175.673346 233.828368,189.963346 225.762368,207.426346 M94.5333682,369.756346 L72.7083682,392.921346 L74.4313682,399.487346 C75.3783682,403.098346 76.3433682,406.243346 76.5743682,406.475346 C76.8063682,406.707346 87.9343682,397.059346 101.302368,385.036346 L125.609368,363.176346 L121.609368,355.509346 C119.409368,351.292346 117.327368,347.561346 116.984368,347.217346 C116.640368,346.873346 106.537368,357.016346 94.5333682,369.756346 M179.827368,422.091346 C178.170368,423.348346 178.231368,423.490346 180.695368,424.108346 C183.820368,424.893346 184.378368,424.540346 183.526368,422.319346 C182.770368,420.350346 182.171368,420.313346 179.827368,422.091346 M127.123368,427.606346 L122.636368,429.425346 L135.858368,436.050346 C143.130368,439.694346 149.649368,442.655346 150.345368,442.629346 C151.040368,442.604346 149.488368,441.479346 146.896368,440.129346 C143.576368,438.400346 140.979368,435.903346 138.109368,431.676346 C135.868368,428.376346 133.489368,425.701346 132.822368,425.732346 C132.155368,425.763346 129.590368,426.606346 127.123368,427.606346 M107.859368,434.906346 C102.180368,437.127346 100.109368,438.418346 100.109368,439.739346 C100.109368,440.737346 101.113368,441.849346 102.359368,442.230346 C103.596368,442.609346 107.347368,445.677346 110.693368,449.047346 C114.633368,453.017346 117.452368,455.076346 118.693368,454.893346 C121.870368,454.425346 133.696368,451.634346 144.744368,448.746346 C147.383368,448.056346 149.058368,446.980346 149.374368,445.771346 C149.801368,444.136346 147.672368,443.046346 133.739368,437.767346 C124.867368,434.406346 117.159368,431.705346 116.609368,431.766346 C116.059368,431.826346 112.122368,433.239346 107.859368,434.906346"/><path fill-opacity=".352" d="M167.166368,2.05034612 L154.722368,4.19534612 L151.529368,9.51434612 C149.772368,12.4393461 143.855368,19.4103461 138.381368,25.0043461 C130.522368,33.0343461 128.035368,36.2813461 126.570368,40.4263461 C124.743368,45.5943461 124.651368,45.6763461 120.661368,45.6643461 C115.987368,45.6493461 61.8263682,50.8353461 61.1763682,51.3603461 C60.9383682,51.5513461 62.2703682,61.8993461 64.1363682,74.3553461 L67.5283682,97.0023461 L71.3193682,98.4903461 C73.4033682,99.3093461 75.1093682,100.361346 75.1093682,100.828346 C75.1093682,101.294346 75.9293682,101.676346 76.9313682,101.676346 C77.9333682,101.676346 80.8913682,102.405346 83.5043682,103.295346 L88.2553682,104.914346 L85.4953682,107.795346 C82.3743682,111.052346 82.5253682,111.101346 90.1093682,109.295346 C94.8883682,108.157346 96.1013682,108.194346 99.3633682,109.580346 L103.116368,111.176346 L85.0873682,126.567346 C75.1713682,135.032346 67.2663682,142.166346 67.5203682,142.420346 C67.7743682,142.674346 73.6413682,142.091346 80.5573682,141.124346 C87.4743682,140.158346 93.4013682,139.634346 93.7283682,139.962346 C94.0563682,140.289346 91.1643682,144.297346 87.3033682,148.867346 C83.4413682,153.437346 80.4233682,157.319346 80.5963682,157.493346 C80.7683682,157.668346 89.7233682,154.998346 100.494368,151.561346 C111.265368,148.123346 120.283368,145.517346 120.535368,145.768346 C120.942368,146.176346 117.909368,161.314346 116.479368,166.012346 C115.999368,167.588346 116.207368,167.694346 117.949368,166.762346 C120.631368,165.326346 121.109368,165.389346 121.109368,167.176346 C121.109368,168.001346 121.551368,168.676346 122.090368,168.676346 C122.714368,168.676346 122.852368,173.692346 122.470368,182.426346 L121.868368,196.176346 L127.783368,208.676346 C132.970368,219.636346 134.729368,225.149346 142.065368,253.432346 C146.666368,271.172346 150.556368,285.562346 150.710368,285.409571 C150.863368,285.255346 156.663368,271.865346 163.598368,255.653346 L176.208368,226.176346 L187.528368,214.676346 L198.848368,203.176346 L203.650368,178.773346 L208.451368,154.370346 L211.530368,163.264346 L214.609368,172.158346 L226.609368,175.815346 C237.437368,179.114346 238.697368,179.311346 239.506368,177.824346 C240.000368,176.917346 240.544368,176.007346 240.715368,175.801346 C240.887368,175.594346 246.783368,177.603346 253.818368,180.266346 L266.609368,185.106346 L277.609368,203.582346 C287.492368,220.182346 288.878368,223.113346 291.260368,232.435346 C292.718368,238.142346 294.070368,242.970346 294.264368,243.164346 C294.457368,243.358346 296.196368,242.068346 298.128368,240.297346 L301.641368,237.078346 L305.633368,212.127346 L309.625368,187.176346 L306.236368,167.676346 C304.371368,156.951346 302.670368,147.978346 302.455368,147.736346 C302.116368,147.357346 287.605368,149.831346 281.515368,151.307346 C279.800368,151.723346 277.199368,149.159346 267.173368,137.171346 C260.436368,129.116346 255.165368,122.286346 255.459368,121.993346 C255.753368,121.699346 260.149368,122.852346 265.229368,124.556346 C270.309368,126.260346 274.636368,127.483346 274.844368,127.274346 C275.053368,127.065346 267.338368,120.005346 257.700368,111.585346 C248.062368,103.165346 240.273368,96.1893461 240.392368,96.0833461 C240.512368,95.9773461 246.909368,90.7803461 254.609368,84.5333461 L268.609368,73.1763461 L265.609368,63.9513461 L262.609368,54.7253461 L246.056368,54.7013461 L229.503368,54.6763461 L227.306368,47.8553461 C225.541368,42.3763461 225.101368,38.5893461 225.068368,28.6053461 L225.027368,16.1763461 L218.318368,11.1763461 C212.519368,6.85434612 209.981368,5.73734612 199.609368,2.94134612 C185.765368,-0.78965388 183.929368,-0.84065388 167.166368,2.05034612 M184.900368,113.592346 C178.461368,114.509346 172.921368,115.531346 172.590368,115.862346 C172.259368,116.193346 174.788368,118.424346 178.209368,120.820346 L184.430368,125.176346 L178.020368,125.494346 C172.185368,125.783346 160.109368,123.314346 160.109368,121.832346 C160.109368,121.542346 161.087368,120.263346 162.283368,118.990346 C164.798368,116.314346 164.394368,116.232346 155.723368,117.652346 C148.900368,118.769346 148.380368,119.092346 150.089368,121.152346 C152.188368,123.680346 133.764368,123.299346 127.109368,120.676346 C124.318368,119.576346 121.817368,118.676346 121.552368,118.676346 C121.286368,118.676346 122.052368,120.588346 123.255368,122.926346 C124.458368,125.264346 127.292368,134.539346 129.553368,143.537346 L133.665368,159.899346 L140.477368,152.287346 C148.160368,143.703346 148.818368,143.497346 157.770368,146.887346 C162.005368,148.491346 166.534368,151.650346 174.259368,158.387346 C180.116368,163.496346 185.137368,167.676346 185.417368,167.676346 C185.696368,167.676346 190.753368,160.251346 196.654368,151.176346 C202.555368,142.101346 207.745368,134.676346 208.187368,134.676346 C208.629368,134.676346 209.269368,135.126346 209.609368,135.676346 C210.742368,137.510346 212.591368,136.695346 214.363368,133.581346 C216.216368,130.326346 215.940368,128.676346 213.543368,128.676346 C212.723368,128.676346 210.266368,124.989346 207.879368,120.176346 C202.975368,110.287346 204.677368,110.775346 184.900368,113.592346 M212.109368,115.265346 C212.109368,115.608346 213.546368,117.753346 215.302368,120.032346 C217.058368,122.311346 218.638368,124.368346 218.812368,124.603346 C219.191368,125.113346 222.032368,121.494346 222.077368,120.443346 C222.095368,120.040346 219.859368,118.570346 217.109368,117.176346 C214.359368,115.782346 212.109368,114.923346 212.109368,115.265346 M210.352368,144.866346 C209.858368,147.237346 209.488368,149.249346 209.531368,149.338346 C209.719368,149.729346 239.342368,153.776346 239.664368,153.455346 C239.934368,153.184346 217.040368,142.739346 212.072368,140.866346 C211.620368,140.696346 210.846368,142.496346 210.352368,144.866346 M117.267368,217.676346 C117.267368,219.051346 117.494368,219.614346 117.771368,218.926346 C118.049368,218.239346 118.049368,217.114346 117.771368,216.426346 C117.494368,215.739346 117.267368,216.301346 117.267368,217.676346 M54.3733682,289.959346 L41.5023682,304.242346 L39.7543682,328.209346 C38.7923682,341.391346 37.7473682,354.426346 37.4323682,357.176346 L36.8593682,362.176346 L49.7343682,349.704346 C56.8153682,342.844346 69.9373682,330.034346 78.8943682,321.239346 L95.1793682,305.246346 L93.9483682,293.299346 C93.0013682,284.114346 92.4733682,281.756346 91.6633682,283.100346 C88.4773682,288.389346 89.0593682,288.443346 78.3913682,281.850346 C72.8963682,278.454346 68.1403682,275.676346 67.8223682,275.676346 C67.5043682,275.676346 61.4513682,282.103346 54.3733682,289.959346 M257.784368,322.743346 L253.992368,329.676346 L237.800368,329.753346 C226.971368,329.804346 214.161368,330.715346 199.121368,332.503346 L176.632368,335.176346 L171.342368,354.176346 C168.433368,364.626346 165.897368,373.851346 165.707368,374.676346 C165.518368,375.501346 165.022368,377.648346 164.606368,379.447346 C163.602368,383.795346 162.109368,384.565346 162.109368,380.735346 C162.109368,378.343346 161.673368,377.676346 160.109368,377.676346 C159.009368,377.676346 158.109368,377.226346 158.109368,376.676346 C158.109368,376.126346 158.784368,375.676346 159.609368,375.676346 C160.434368,375.676346 161.109368,375.226346 161.109368,374.676346 C161.109368,374.126346 160.254368,373.676346 159.208368,373.676346 C157.539368,373.676346 157.154368,372.391346 156.062368,363.176346 C154.931368,353.629346 154.627368,352.665346 152.714368,352.560346 C151.024368,352.467346 150.954368,352.354346 152.359368,351.987346 C154.697368,351.376346 154.585368,349.613346 152.168368,348.981346 C150.649368,348.584346 150.081368,347.247346 149.554368,342.825346 C149.184368,339.718346 147.584368,333.801346 145.999368,329.676346 C144.415368,325.551346 143.116368,321.651346 143.114368,321.010346 C143.110368,320.184346 138.093368,319.727346 125.859368,319.442346 L108.609368,319.039346 L100.109368,327.886346 C95.4343682,332.752346 90.8773682,336.720346 89.9823682,336.705346 C89.0873682,336.689346 84.8823682,340.501346 80.6383682,345.176346 C76.3943682,349.851346 72.1653682,353.676346 71.2413682,353.676346 C70.3163682,353.676346 64.0853682,359.464346 57.3923682,366.538346 L45.2243682,379.400346 L54.4013682,395.288346 C61.8383682,408.164346 67.3883682,420.220346 83.6793682,458.880346 L103.779368,506.583346 L99.5413682,510.743346 L95.3023682,514.903346 L88.6423682,512.687346 C84.9783682,511.468346 81.8163682,510.635346 81.6143682,510.837346 C81.4133682,511.039346 78.2793682,533.698346 74.6513682,561.190346 L68.0553682,611.176346 L60.0823682,637.847346 C55.6973682,652.516346 52.1093682,666.051346 52.1093682,667.924346 C52.1093682,669.797346 54.3593682,692.996346 57.1093682,719.477346 C59.8593682,745.958346 62.1093682,768.218346 62.1093682,768.944346 C62.1093682,769.716346 58.5833682,771.412346 53.6093682,773.032346 L45.1093682,775.800346 L45.1743682,802.988346 C45.2233682,823.464346 45.6623682,832.892346 46.9543682,841.176346 L48.6703682,852.176346 L25.5923682,876.176346 C5.72436823,896.838346 -1.40563177,905.534346 0.224368231,907.113346 C0.884368231,907.752346 43.5133682,924.676346 44.4623682,924.676346 C44.9573682,924.676346 59.1833682,916.013346 76.0753682,905.426346 L106.788368,886.176346 L108.722368,878.176346 C110.591368,870.447346 110.598368,869.855346 108.934368,860.676346 C107.986368,855.451346 107.191368,849.826346 107.166368,848.176346 C107.136368,846.139346 112.831368,834.564346 124.915368,812.105346 L142.708368,779.033346 L132.158368,775.324346 C126.356368,773.284346 121.125368,771.291346 120.534368,770.895346 C119.836368,770.428346 126.329368,754.034346 139.037368,724.176346 L158.615368,678.176346 L156.942368,658.676346 C156.021368,647.951346 155.246368,636.026346 155.218368,632.176346 C155.174368,626.078346 168.128368,538.324346 169.235368,537.216346 C169.458368,536.994346 175.483368,557.818346 182.625368,583.494346 L195.609368,630.176346 L193.677368,652.339346 L191.744368,674.503346 L203.965368,701.683346 L216.186368,728.863346 L213.933368,747.308346 L211.679368,765.754346 L217.193368,782.465346 L222.708368,799.176346 L230.719368,804.645346 L238.730368,810.115346 L229.420368,830.996346 C224.299368,842.481346 220.109368,852.400346 220.109368,853.040346 C220.109368,853.679346 221.696368,856.559346 223.636368,859.439346 L227.162368,864.676346 L247.529368,864.676346 L267.895368,864.676346 L278.771368,837.426346 L289.646368,810.176346 L287.628368,800.479346 C285.927368,792.310346 285.093368,790.249346 282.335368,787.406346 L279.060368,784.031346 L279.335368,746.853346 L279.609368,709.675346 L272.340368,709.676346 C265.329368,709.676346 265.088368,709.596346 265.540368,707.426346 C265.798368,706.189346 266.521368,698.201346 267.146368,689.676346 C267.771368,681.151346 268.491368,673.518346 268.746368,672.714346 C269.001368,671.910346 269.433368,667.185346 269.708368,662.214346 C269.982368,657.243346 270.754368,647.326346 271.424368,640.176346 L272.643368,627.176346 L267.310368,610.176346 L261.978368,593.176346 L256.714368,535.676346 L251.450368,478.176346 L257.058368,469.219346 L262.665368,460.263346 L255.395368,435.719346 C249.101368,414.469346 248.124368,410.129346 248.117368,403.376346 C248.112368,398.006346 248.631368,394.580346 249.785368,392.376346 C250.838368,390.364346 253.426368,375.650346 256.758368,352.732346 C259.671368,332.688346 261.947368,316.181346 261.815368,316.045168 C261.683368,315.917346 259.869368,318.929346 257.784368,322.743346 M94.5333682,369.756346 L72.7083682,392.921346 L74.4313682,399.487346 C75.3783682,403.098346 76.3433682,406.243346 76.5743682,406.475346 C76.8063682,406.707346 87.9343682,397.059346 101.302368,385.036346 L125.609368,363.176346 L121.609368,355.509346 C119.409368,351.292346 117.327368,347.561346 116.984368,347.217346 C116.640368,346.873346 106.537368,357.016346 94.5333682,369.756346 M219.098368,387.216346 C207.172368,399.177346 195.199368,409.858346 181.457368,420.797346 C162.279368,436.064346 161.250368,437.059346 160.162368,441.379346 C159.533368,443.876346 159.152368,446.037346 159.314368,446.180346 C159.476368,446.324346 165.291368,441.614346 172.235368,435.714346 C182.995368,426.572346 184.713368,424.720346 183.857368,423.190346 C182.988368,421.637346 183.174368,421.472346 185.231368,421.966346 C186.539368,422.280346 192.839368,423.100346 199.230368,423.787346 L210.852368,425.037346 L222.980368,417.259346 C229.651368,412.980346 235.124368,409.186346 235.142368,408.828346 C235.160368,408.469346 235.579368,405.034346 236.074368,401.193346 C236.690368,396.405346 236.638368,394.003346 235.907368,393.551346 C235.168368,393.095346 235.323368,390.784346 236.411368,386.034346 C238.791368,375.636346 239.308368,369.676346 237.829368,369.676346 C237.146368,369.676346 228.717368,377.569346 219.098368,387.216346 M127.123368,427.606346 L122.636368,429.425346 L135.858368,436.050346 C143.130368,439.694346 149.649368,442.655346 150.345368,442.629346 C151.040368,442.604346 149.488368,441.479346 146.896368,440.129346 C143.576368,438.400346 140.979368,435.903346 138.109368,431.676346 C135.868368,428.376346 133.489368,425.701346 132.822368,425.732346 C132.155368,425.763346 129.590368,426.606346 127.123368,427.606346 M107.859368,434.906346 C99.0863682,438.337346 99.3623682,437.694346 101.667368,449.319346 C103.858368,460.372346 104.889368,462.676346 107.647368,462.676346 C108.909368,462.676346 110.092368,463.081346 110.276368,463.576346 C110.544368,464.300346 127.013368,469.157346 136.718368,471.374346 C138.906368,471.873346 138.961368,471.764346 148.151368,448.549346 L149.983368,443.921346 L133.796368,437.789346 C124.893368,434.416346 117.159368,431.705346 116.609368,431.766346 C116.059368,431.826346 112.122368,433.239346 107.859368,434.906346"/><path fill-opacity=".223" d="M118.624368,64.2403461 C117.100368,71.5063461 117.007368,73.6433461 118.021368,78.1723461 C118.679368,81.1143461 119.756368,83.9463461 120.413368,84.4653461 C121.071368,84.9843461 125.933368,86.8353461 131.218368,88.5783461 L140.828368,91.7473461 L177.718368,91.4623461 L214.609368,91.1763461 L224.609368,85.3473461 C230.109368,82.1413461 234.974368,79.1663461 235.419368,78.7373461 C235.865368,78.3073461 235.340368,74.4053461 234.253368,70.0663461 C231.747368,60.0603461 230.438368,56.6763461 229.075368,56.6763461 C228.479368,56.6763461 228.269368,57.1263461 228.609368,57.6763461 C228.949368,58.2263461 228.724368,58.6763461 228.109368,58.6763461 C227.494368,58.6763461 227.269368,59.1263461 227.609368,59.6763461 C227.949368,60.2263461 227.413368,60.7123461 226.418368,60.7553461 C225.369368,60.8013461 225.134368,61.0463461 225.859368,61.3383461 C226.547368,61.6163461 227.109368,63.4983461 227.109368,65.5213461 L227.109368,69.1993461 L212.920368,73.1583461 L198.730368,77.1173461 L175.170368,72.2343461 C162.211368,69.5493461 145.772368,66.6373461 138.638368,65.7643461 L125.668368,64.1763461 L123.582368,60.4533461 C122.434368,58.4053461 121.255368,56.4883461 120.960368,56.1943461 C120.666368,55.9003461 119.615368,59.5213461 118.624368,64.2403461 M232.579368,102.533346 L225.549368,108.360346 L214.403368,109.686346 L203.257368,111.011346 L207.693368,119.844346 C210.168368,124.772346 212.762368,128.676346 213.560368,128.676346 C216.057368,128.676346 216.196368,130.414346 213.997368,134.142346 C212.039368,137.460346 211.719368,137.633346 210.156368,136.219346 C209.219368,135.370346 208.211368,134.676346 207.917368,134.676346 C207.623368,134.676346 202.555368,142.101346 196.654368,151.176346 C190.753368,160.251346 185.696368,167.676346 185.417368,167.676346 C185.137368,167.676346 180.026368,163.401346 174.058368,158.176346 C163.784368,149.180346 162.968368,148.676346 158.692368,148.676346 C156.209368,148.676346 152.538368,147.894346 150.534368,146.939346 L146.892368,145.202346 L140.240368,152.531346 L133.589368,159.860346 L129.708368,144.018346 C127.574368,135.305346 124.786368,126.093346 123.513368,123.548346 C122.240368,121.002346 121.373368,118.745346 121.587368,118.532346 C121.800368,118.318346 117.768368,116.534346 112.626368,114.567346 L103.277368,110.990346 L85.1713682,126.477346 C75.2133682,134.996346 67.2713682,142.172346 67.5233682,142.424346 C67.7753682,142.676346 73.6413682,142.091346 80.5573682,141.124346 C87.4743682,140.158346 93.4013682,139.634346 93.7283682,139.962346 C94.0563682,140.289346 91.1643682,144.297346 87.3033682,148.867346 C83.4413682,153.437346 80.4193682,157.315346 80.5873682,157.484346 C80.7553682,157.654346 90.4003682,154.775346 102.020368,151.087346 C113.640368,147.398346 123.420368,144.653346 123.753368,144.986346 C124.086368,145.320346 123.773368,156.806346 123.058368,170.512346 L121.758368,195.431346 L125.641368,204.054346 C128.424368,210.232346 130.032368,212.676346 131.317368,212.676346 C133.480368,212.676346 133.472368,212.789346 131.609368,208.330346 C129.741368,203.860346 129.745368,203.676346 131.716368,203.676346 C132.607368,203.676346 133.095368,203.119346 132.812368,202.426346 C130.941368,197.850346 130.930368,197.676346 132.502368,197.676346 C133.549368,197.676346 134.109368,196.806346 134.109368,195.176346 C134.109368,193.620346 133.542368,192.676346 132.609368,192.676346 C131.784368,192.676346 131.109368,192.283346 131.109368,191.802346 C131.109368,191.321346 131.784368,189.014346 132.609368,186.676346 C134.398368,181.606346 134.538368,177.986346 132.965368,177.461346 C132.118368,177.179346 132.148368,176.087346 133.081368,173.259346 C133.775368,171.158346 134.120368,167.467346 133.849368,165.057346 C133.577368,162.648346 133.519368,160.676346 133.720368,160.676346 C133.921368,160.676346 138.801368,163.021346 144.564368,165.888346 C153.378368,170.271346 155.140368,171.539346 155.651368,173.865346 C155.985368,175.386346 155.969368,177.541346 155.616368,178.654346 C155.158368,180.096346 155.423368,180.676346 156.542368,180.676346 C158.470368,180.676346 158.472368,180.871346 156.609368,185.330346 C155.784368,187.305346 155.109368,189.315346 155.109368,189.798346 C155.109368,190.281346 155.784368,190.676346 156.609368,190.676346 C157.434368,190.676346 158.109368,190.846346 158.109368,191.054346 C158.109368,191.262346 157.434368,193.047346 156.609368,195.022346 C155.784368,196.996346 155.109368,198.851346 155.109368,199.144346 C155.109368,199.437346 155.784368,199.676346 156.609368,199.676346 C157.434368,199.676346 158.109368,199.915346 158.109368,200.208346 C158.109368,200.501346 157.434368,202.356346 156.609368,204.330346 C155.784368,206.305346 155.109368,208.315346 155.109368,208.798346 C155.109368,209.281346 155.784368,209.676346 156.609368,209.676346 C157.434368,209.676346 158.109368,209.846346 158.109368,210.054346 C158.109368,210.262346 157.434368,212.047346 156.609368,214.022346 C155.784368,215.996346 155.109368,217.851346 155.109368,218.144346 C155.109368,218.437346 155.784368,218.676346 156.609368,218.676346 C158.641368,218.676346 158.504368,220.656346 156.359368,222.284346 C154.745368,223.509346 154.740368,223.615346 156.300368,223.644346 C158.396368,223.684346 158.750368,224.247346 159.630368,228.934346 C160.205368,231.999346 160.040368,232.676346 158.720368,232.676346 C156.725368,232.676346 156.704368,234.022346 158.598368,240.267346 C160.496368,246.524346 160.481368,247.676346 158.498368,247.676346 C156.740368,247.676346 156.943368,250.217346 159.371368,258.588346 L160.609368,262.857346 L168.092368,245.017346 L175.575368,227.176346 L187.195368,215.176346 L198.816368,203.176346 L204.946368,172.276346 C208.318368,155.280346 211.240368,141.212346 211.439368,141.013346 C211.638368,140.813346 228.858368,148.238346 249.705368,157.513346 L287.609368,174.375346 L287.268368,177.728346 C286.960368,180.752346 284.752368,188.871346 280.720368,201.807346 L279.276368,206.439346 L284.028368,214.344346 C287.475368,220.077346 289.411368,224.847346 291.081368,231.712346 C292.346368,236.917346 293.658368,241.705346 293.995368,242.351346 C294.400368,243.125346 295.808368,242.427346 298.125368,240.302346 L301.641368,237.078346 L305.634368,212.127346 L309.628368,187.176346 L307.098368,172.753346 C305.603368,164.228346 304.065368,158.161346 303.339368,157.919346 C302.662368,157.694346 302.109368,155.978346 302.109368,154.106346 L302.109368,150.702346 L295.933368,156.689346 C292.536368,159.982346 289.460368,162.676346 289.097368,162.676346 C288.037368,162.676346 254.887368,122.565346 255.467368,121.984346 C255.757368,121.695346 260.149368,122.852346 265.229368,124.556346 C270.309368,126.260346 274.634368,127.484346 274.841368,127.278346 C275.253368,126.865346 240.991368,96.6673461 240.138368,96.6913318 C239.847368,96.6993461 236.445368,99.3283461 232.579368,102.533346 M75.9223682,101.359346 C76.6433682,101.648346 77.5063682,101.612346 77.8383682,101.280346 C78.1703682,100.948346 77.5803682,100.712346 76.5263682,100.755346 C75.3613682,100.803346 75.1243682,101.040346 75.9223682,101.359346 M85.0333682,108.324346 L82.6093682,110.972346 L85.1093682,110.324346 C86.4843682,109.967346 89.3533682,109.384346 91.4843682,109.028346 C95.3033682,108.390346 95.3253682,108.361346 92.9843682,107.064346 C89.4603682,105.110346 87.7243682,105.385346 85.0333682,108.324346 M212.109368,115.265346 C212.109368,115.608346 213.546368,117.753346 215.302368,120.032346 C217.058368,122.311346 218.638368,124.368346 218.812368,124.603346 C219.191368,125.113346 222.032368,121.494346 222.077368,120.443346 C222.095368,120.040346 219.859368,118.570346 217.109368,117.176346 C214.359368,115.782346 212.109368,114.923346 212.109368,115.265346 M163.186368,118.265346 C161.494368,119.689346 160.109368,121.193346 160.109368,121.607346 C160.109368,123.269346 171.756368,125.804346 177.965368,125.494346 L184.321368,125.176346 L177.707368,120.426346 C174.070368,117.814346 170.007368,115.676346 168.678368,115.676346 C167.350368,115.676346 164.878368,116.841346 163.186368,118.265346 M136.109368,120.111346 C125.633368,121.507346 128.196368,122.642346 141.867368,122.662346 C150.877368,122.676346 151.092368,122.622346 149.877368,120.676346 C148.507368,118.482346 148.375368,118.477346 136.109368,120.111346 M157.109368,265.117346 C157.109368,267.429346 158.833368,267.841346 159.402368,265.665346 C159.739368,264.376346 159.427368,263.676346 158.515368,263.676346 C157.742368,263.676346 157.109368,264.324346 157.109368,265.117346 M54.3733682,289.959346 L41.5023682,304.242346 L39.7543682,328.209346 C38.7923682,341.391346 37.7473682,354.426346 37.4323682,357.176346 L36.8593682,362.176346 L49.7343682,349.704346 C56.8153682,342.844346 69.9373682,330.034346 78.8943682,321.239346 L95.1793682,305.246346 L93.9483682,293.299346 C93.0013682,284.114346 92.4733682,281.756346 91.6633682,283.100346 C88.4773682,288.389346 89.0593682,288.443346 78.3913682,281.850346 C72.8963682,278.454346 68.1403682,275.676346 67.8223682,275.676346 C67.5043682,275.676346 61.4513682,282.103346 54.3733682,289.959346 M198.620368,332.538346 L176.631368,335.176346 L171.351368,354.176346 C168.448368,364.626346 165.876368,374.076346 165.638368,375.176346 C164.662368,379.668346 163.363368,382.626346 158.253368,391.997346 C153.133368,401.383346 152.926368,402.052346 153.561368,407.137346 C154.210368,412.329346 154.146368,412.512346 150.917368,414.743346 C149.098368,416.000346 147.438368,417.158346 147.228368,417.316346 C147.019368,417.475346 147.867368,420.117346 149.114368,423.187346 L151.380368,428.770346 L153.621368,426.664346 L155.863368,424.558346 L156.566368,431.117346 C157.088368,435.990346 157.656368,437.676346 158.778368,437.676346 C162.202368,437.676346 201.738368,404.618346 218.927368,387.383346 L236.245368,370.019346 L245.058368,349.847346 L253.872368,329.676346 L237.240368,329.788346 C226.145368,329.863346 213.289368,330.779346 198.620368,332.538346 M241.388368,402.956346 C237.556368,406.952346 230.498368,412.437346 223.009368,417.240346 L210.852368,425.037346 L199.230368,423.787346 C192.839368,423.100346 186.548368,422.282346 185.251368,421.971346 C183.137368,421.463346 183.006368,421.615346 183.983368,423.441346 C184.864368,425.087346 184.741368,425.604346 183.341368,426.143346 C180.088368,427.397346 184.105368,428.324346 205.504368,431.262346 L226.398368,434.130346 L230.558368,429.403346 C232.845368,426.803346 235.570368,424.676346 236.613368,424.676346 C238.088368,424.676346 238.242368,424.943346 237.309368,425.876346 C235.641368,427.544346 235.811368,428.676346 237.731368,428.676346 C239.060368,428.676346 239.129368,428.947346 238.109368,430.176346 C237.086368,431.408346 237.164368,431.676346 238.546368,431.676346 C239.470368,431.676346 239.937368,432.146346 239.582368,432.720346 C239.227368,433.294346 239.481368,434.419346 240.145368,435.220346 C241.093368,436.362346 241.086368,436.676346 240.109368,436.676346 C239.116368,436.676346 239.116368,436.979346 240.109368,438.176346 C241.113368,439.385346 241.088368,439.677346 239.981368,439.681346 C239.227368,439.684346 239.959368,440.793346 241.609368,442.145346 C243.911368,444.032346 244.202368,444.612346 242.859368,444.640346 C240.647368,444.685346 240.633368,444.426346 243.604368,458.422346 C246.535368,472.232346 246.566368,472.676346 244.609368,472.676346 C242.808368,472.676346 242.767368,473.639346 244.254368,481.043346 C245.138368,485.446346 245.120368,487.357346 244.174368,489.433346 C243.500368,490.912346 243.350368,492.256346 243.841368,492.420346 C244.332368,492.584346 244.543368,495.351346 244.310368,498.569346 C244.078368,501.787346 244.671368,521.240346 245.628368,541.798346 C246.654368,563.815346 247.118368,584.827346 246.758368,592.926346 C246.161368,606.341346 246.197368,606.676346 248.207368,606.676346 C250.133368,606.676346 250.246368,607.163346 249.938368,614.178346 C249.650368,620.744346 249.824368,621.680346 251.334368,621.678346 C252.773368,621.676346 252.898368,622.102346 252.084368,624.241346 C250.820368,627.566346 250.837368,627.676346 252.609368,627.676346 C253.434368,627.676346 254.109368,628.539346 254.109368,629.593346 C254.109368,630.647346 255.909368,636.535346 258.109368,642.676346 C260.309368,648.817346 262.109368,655.380346 262.109368,657.259346 C262.109368,659.475346 262.587368,660.676346 263.470368,660.676346 C264.383368,660.676346 264.674368,661.500346 264.354368,663.176346 C263.993368,665.065346 264.300368,665.676346 265.609368,665.676346 C267.004368,665.676346 267.205368,666.213346 266.637368,668.426346 C266.250368,669.939346 265.785368,678.376346 265.605368,687.176346 L265.277368,703.176346 L266.599368,692.676346 C267.326368,686.901346 267.963368,680.113346 268.015368,677.593346 C268.067368,675.072346 268.349368,672.770346 268.641368,672.477346 C268.934368,672.184346 269.406368,667.722346 269.690368,662.560346 C269.974368,657.399346 270.754368,647.326346 271.424368,640.176346 L272.643368,627.176346 L267.310368,610.176346 L261.978368,593.176346 L256.714368,535.676346 L251.450368,478.176346 L257.058368,469.218346 L262.666368,460.261346 L255.739368,437.218346 C250.337368,419.250346 248.679368,412.226346 248.210368,405.323346 L247.609368,396.469346 L241.388368,402.956346 M161.139368,510.926346 C161.120368,512.044346 160.296368,512.701346 158.859368,512.746346 C156.710368,512.813346 156.699368,512.856346 158.609368,513.688346 C160.536368,514.527346 160.523368,514.585346 158.274368,515.256346 C156.524368,515.779346 156.274368,516.165346 157.274368,516.799346 C158.267368,517.429346 158.097368,517.667346 156.609368,517.731346 L154.609368,517.817346 L156.609368,518.688346 C158.536368,519.527346 158.523368,519.585346 156.274368,520.256346 C154.524368,520.779346 154.274368,521.165346 155.274368,521.799346 C156.297368,522.448346 156.200368,522.649346 154.859368,522.661346 C152.844368,522.678346 152.507368,524.266346 154.359368,525.014346 C155.148368,525.332346 155.004368,525.547346 153.966368,525.597346 C151.844368,525.699346 150.654368,528.770346 152.325368,529.831346 C153.294368,530.446346 153.215368,530.649346 152.001368,530.661346 C150.833368,530.672346 148.674368,535.394346 144.107368,547.926346 C140.649368,557.413346 135.410368,570.886346 132.465368,577.866346 C129.519368,584.845346 127.109368,590.808346 127.109368,591.116346 C127.109368,591.424346 127.784368,591.676346 128.609368,591.676346 C129.434368,591.676346 130.109368,591.915346 130.109368,592.208346 C130.109368,592.501346 129.434368,594.356346 128.609368,596.330346 C127.784368,598.305346 127.109368,600.090346 127.109368,600.298346 C127.109368,600.506346 127.784368,600.676346 128.609368,600.676346 C130.472368,600.676346 130.507368,601.993346 128.736368,605.476346 C126.195368,610.471346 125.830368,612.676346 127.542368,612.676346 C129.470368,612.676346 129.472368,612.871346 127.609368,617.330346 C126.784368,619.305346 126.109368,621.090346 126.109368,621.298346 C126.109368,621.506346 126.784368,621.676346 127.609368,621.676346 C129.533368,621.676346 129.499368,622.790346 127.447368,627.094346 C126.462368,629.160346 124.934368,630.701346 123.697368,630.878346 C121.711368,631.161346 121.536368,632.204346 120.109368,652.176346 C119.284368,663.726346 118.245368,673.739346 117.800368,674.426346 C117.270368,675.245346 117.552368,675.676346 118.618368,675.676346 C120.017368,675.676346 119.953368,676.086346 118.163368,678.600346 C116.347368,681.151346 116.286368,681.566346 117.690368,681.850346 C119.076368,682.131346 118.999368,682.558346 117.132368,684.926346 C115.292368,687.260346 115.212368,687.676346 116.604368,687.676346 C117.701368,687.676346 118.068368,688.255346 117.714368,689.426346 C117.090368,691.487346 112.109368,720.935346 112.109368,722.562346 C112.109368,723.175346 112.784368,723.676346 113.609368,723.676346 C115.634368,723.676346 115.564368,724.634346 112.068368,744.580346 C110.396368,754.124346 109.159368,762.241346 109.318368,762.619346 C109.478368,762.996346 110.734368,762.984346 112.109368,762.590346 C114.220368,761.987346 114.298368,761.844346 112.609368,761.676346 C110.903368,761.506346 110.969368,761.376346 113.064368,760.792346 C114.637368,760.353346 116.717368,758.056346 118.858368,754.392346 C121.037368,750.663346 122.849368,748.676346 124.070368,748.676346 C127.216368,748.676346 134.403368,735.161346 146.920368,705.706346 L158.619368,678.176346 L156.944368,658.676346 C156.022368,647.951346 155.233368,636.193346 155.189368,632.547346 C155.145368,628.882346 158.262368,605.638346 162.159368,580.566346 L169.209368,535.215346 L166.041368,523.696346 C162.740368,511.691346 161.196368,507.669346 161.139368,510.926346 M265.058368,710.426346 C265.031368,710.839346 264.813368,713.426346 264.575368,716.176346 C264.337368,718.926346 264.120368,721.851346 264.093368,722.676346 C264.067368,723.501346 263.084368,733.005346 261.909368,743.795346 L259.774368,763.414346 L236.442368,763.878346 C223.610368,764.132346 212.790368,764.662346 212.398368,765.054346 C212.006368,765.445346 214.069368,773.058346 216.983368,781.971346 C222.393368,798.521346 224.828368,802.676346 229.118368,802.676346 C230.161368,802.676346 232.049368,803.079346 233.312368,803.572346 C234.575368,804.065346 237.634368,805.017346 240.109368,805.688346 C242.584368,806.359346 245.734368,807.269346 247.109368,807.711346 C248.484368,808.152346 250.734368,808.765346 252.109368,809.072346 C253.878368,809.468346 255.559368,811.371346 257.858368,815.580346 C260.749368,820.875346 260.914368,821.580346 259.358368,821.987346 C258.133368,822.307346 258.359368,822.500346 260.109368,822.630346 C262.420368,822.803346 262.458368,822.881346 260.609368,823.676346 C258.765368,824.468346 258.805368,824.546346 261.109368,824.676346 C263.110368,824.789346 263.259368,824.955346 261.858368,825.510346 C260.293368,826.129346 260.518368,826.907346 263.956368,832.791346 C266.815368,837.683346 267.691368,840.166346 267.358368,842.435346 C267.011368,844.796346 267.330368,845.599346 268.759368,845.967346 C270.274368,846.358346 270.202368,846.465346 268.359368,846.560346 C265.881368,846.688346 265.161368,849.676346 267.609368,849.676346 C268.434368,849.676346 269.109368,850.351346 269.109368,851.176346 C269.109368,852.009346 268.220368,852.676346 267.109368,852.676346 C265.919368,852.676346 265.109368,853.343346 265.109368,854.322346 C265.109368,855.815346 263.451368,855.904346 247.359368,855.277346 C233.823368,854.750346 228.718368,854.897346 225.857368,855.896346 L222.105368,857.206346 L224.643368,860.941346 L227.181368,864.676346 L247.538368,864.676346 L267.895368,864.676346 L278.771368,837.426346 L289.646368,810.176346 L287.628368,800.479346 C285.927368,792.310346 285.093368,790.249346 282.335368,787.406346 L279.060368,784.031346 L279.335368,746.853346 L279.609368,709.675346 L272.359368,709.675346 C268.371368,709.675346 265.086368,710.013346 265.058368,710.426346 M52.7073682,773.236346 C48.9103682,774.562346 45.6453682,775.807346 45.4493682,776.002346 C45.2543682,776.198346 48.8103682,777.824346 53.3523682,779.617346 C57.8933682,781.410346 62.0723682,783.066346 62.6383682,783.298346 C63.6423682,783.710346 63.5903682,777.871346 62.5463682,772.926346 C61.9673682,770.182346 61.3963682,770.200346 52.7073682,773.236346 M114.969368,780.946346 L110.615368,791.312346 L98.2083682,798.138346 L85.8013682,804.965346 L82.5003682,803.187346 L79.1993682,801.410346 L74.0853682,804.691346 C70.4023682,807.055346 69.3403682,808.207346 70.2903682,808.809346 C71.1703682,809.367346 70.6103682,809.656346 68.6093682,809.676346 C66.3023682,809.700346 65.9553682,809.930346 67.1093682,810.676346 C68.2633682,811.422346 67.9163682,811.652346 65.6093682,811.676346 C63.3023682,811.700346 62.9553682,811.930346 64.1093682,812.676346 C65.2633682,813.422346 64.9163682,813.652346 62.6093682,813.676346 C60.3023682,813.700346 59.9553682,813.930346 61.1093682,814.676346 C62.2633682,815.422346 61.9163682,815.652346 59.6093682,815.676346 C57.3023682,815.700346 56.9553682,815.930346 58.1093682,816.676346 C59.2633682,817.422346 58.9163682,817.652346 56.6093682,817.676346 C54.3023682,817.700346 53.9553682,817.930346 55.1093682,818.676346 C56.2633682,819.422346 55.9163682,819.652346 53.6093682,819.676346 C51.3023682,819.700346 50.9553682,819.930346 52.1093682,820.676346 C53.2633682,821.422346 52.9163682,821.652346 50.6093682,821.676346 C48.3643682,821.699346 47.9793682,821.941346 49.0813682,822.638346 C50.3773682,823.457346 50.3773682,823.625346 49.0813682,824.043346 C44.8833682,825.396346 44.7043682,825.521346 46.8593682,825.597346 C48.5503682,825.656346 49.1093682,826.276346 49.1093682,828.094346 C49.1093682,831.823346 50.1413682,833.676346 52.2163682,833.676346 C53.4153682,833.676346 54.1093682,834.379346 54.1093682,835.594346 C54.1093682,838.776346 55.2233682,840.676346 57.0883682,840.676346 C58.3743682,840.676346 59.0273682,841.762346 59.4933682,844.676346 C59.9903682,847.787346 60.5753682,848.676346 62.1213682,848.676346 C63.9793682,848.676346 64.6113682,850.132346 64.1843682,853.426346 C64.0943682,854.114346 64.7163682,854.676346 65.5653682,854.676346 C68.6863682,854.676346 66.9533682,858.280346 60.8883682,864.399346 C56.5713682,868.754346 55.2123682,870.676346 56.4473682,870.676346 C58.7923682,870.676346 57.6813682,872.356346 53.7503682,874.753346 C52.0223682,875.807346 51.2843682,876.686346 52.1093682,876.708346 C53.0083682,876.731346 52.6073682,877.320346 51.1093682,878.176346 C49.5963682,879.041346 49.2013682,879.625346 50.1093682,879.656346 C51.4423682,879.701346 51.4423682,879.814346 50.1093682,880.676346 C48.7763682,881.538346 48.7763682,881.651346 50.1093682,881.696346 C51.0173682,881.727346 50.6223682,882.311346 49.1093682,883.176346 C47.5713682,884.055346 47.1863682,884.632346 48.1093682,884.676346 C49.0323682,884.720346 48.6473682,885.297346 47.1093682,886.176346 C45.5963682,887.041346 45.2013682,887.625346 46.1093682,887.656346 C47.4423682,887.701346 47.4423682,887.814346 46.1093682,888.676346 C44.7763682,889.538346 44.7763682,889.651346 46.1093682,889.696346 C47.0173682,889.727346 46.6223682,890.311346 45.1093682,891.176346 C43.5713682,892.055346 43.1863682,892.632346 44.1093682,892.676346 C45.0323682,892.720346 44.6473682,893.297346 43.1093682,894.176346 C41.5963682,895.041346 41.2013682,895.625346 42.1093682,895.656346 C43.4423682,895.701346 43.4423682,895.814346 42.1093682,896.676346 C40.7763682,897.538346 40.7763682,897.655346 42.1093682,897.728346 C43.0523682,897.781346 42.7733682,898.214346 41.3593682,898.896346 C39.7163682,899.689346 39.1093682,900.850346 39.1093682,903.204346 C39.1093682,907.269346 36.8433682,907.843346 25.6093682,906.624346 C5.83436823,904.477346 0.109368231,904.301346 0.109368231,905.840346 C0.109368231,907.991346 43.6073682,925.228346 46.0593682,924.049346 C47.0583682,923.569346 61.1323682,914.851346 77.3343682,904.676346 L106.793368,886.176346 L108.725368,878.176346 C110.591368,870.448346 110.598368,869.853346 108.934368,860.676346 C107.986368,855.451346 107.191368,849.826346 107.166368,848.176346 C107.136368,846.139346 112.831368,834.564346 124.915368,812.105346 L142.708368,779.033346 L131.706368,775.105346 C125.654368,772.944346 120.392368,771.042346 120.013368,770.878346 C119.633368,770.714346 117.363368,775.245346 114.969368,780.946346"/></g></svg>