<svg xmlns="http://www.w3.org/2000/svg" width="800.329" height="1105.044" viewBox="0 0 800.329 1105.044"><g fill="#ABABAB" fill-rule="evenodd"><path fill-opacity=".184" d="M309.015,12.724 C317.793,46.73 317.53,41.085 311.841,73.5 C311.069,77.9 309.904,84.742 309.254,88.705 C308.08,95.855 307.836,96.262 276.973,142.691 C248.272,185.867 245.623,189.521 242.609,190.113 C239.911,190.643 219.989,202.289 210.372,208.959 C204.755,212.854 171.164,228.974 161.375,232.471 C155.6,234.534 150.392,236.735 149.803,237.361 C149.213,237.988 148.217,240.75 147.589,243.5 C142.594,265.399 141,272.165 139.778,276.654 C137.391,285.422 137.696,286.451 143.386,288.816 L148.396,290.898 L146.473,294.699 C145.415,296.79 140.89,306.646 136.418,316.603 C131.945,326.559 126.246,338.259 123.753,342.603 C121.26,346.946 117.844,352.975 116.161,356 C114.478,359.025 111.343,364.485 109.194,368.133 C105.442,374.501 105.298,375.072 105.581,382.479 L105.875,390.192 L118.875,394.579 C126.025,396.992 132.689,398.974 133.684,398.983 C134.678,398.992 137.153,400.318 139.184,401.929 C141.214,403.54 146.906,406.227 151.833,407.899 L160.792,410.941 L173.583,405.803 C180.618,402.977 186.657,400.948 187.003,401.294 C187.349,401.64 187.132,407.678 186.522,414.712 C185.911,421.745 185.14,432.268 184.807,438.096 L184.204,448.692 L166.539,466.29 C150.776,481.994 146.611,485.487 127.84,498.752 C110.998,510.654 103.25,515.386 88.967,522.497 L71.128,531.377 L55.002,530.174 C46.132,529.512 34.999,528.977 30.261,528.985 L21.647,529 L19.928,533.75 C18.983,536.362 17.386,540.525 16.381,543 C14.428,547.806 11.407,560.063 9.357,571.5 C8.667,575.35 7.526,580.975 6.823,584 C6.12,587.025 5.226,591.525 4.837,594 C4.449,596.475 3.286,600.654 2.253,603.287 C1.22,605.92 0.393,609.295 0.415531628,610.787 C0.442,612.539 4.283,619.169 11.258,629.5 L22.059,645.5 L35.967,645.507 C43.616,645.511 50.741,645.926 51.799,646.43 C53.37,647.179 53.605,647.041 53.08,645.674 C52.577,644.362 53.026,643.999 55.156,643.996 C57.705,643.991 57.496,643.653 51.826,638.595 C44.239,631.827 37.045,619.942 35.425,611.5 C34.792,608.2 33.846,603.328 33.324,600.674 C31.757,592.704 32.169,590.135 36.017,583.901 C39.504,578.252 39.835,578 43.767,577.993 C46.026,577.99 51.293,578.507 55.47,579.143 L63.065,580.299 L69.904,576.667 C73.666,574.669 76.869,573.161 77.023,573.315 C77.177,573.468 75.082,576.948 72.368,581.047 L67.434,588.5 L67.405,598.75 C67.388,604.388 67.755,609 68.22,609 C68.685,609 69.922,608.044 70.97,606.875 C72.018,605.706 76.175,602.047 80.207,598.743 C86.912,593.251 87.988,591.828 92.77,582.118 C95.646,576.278 98.848,569.138 99.885,566.25 C101.258,562.425 102.285,561 103.666,561 C104.709,561 105.789,560.131 106.067,559.069 C106.345,558.007 108.215,556.477 110.224,555.668 C112.232,554.859 117.839,552.353 122.684,550.099 C127.529,547.844 131.72,546 131.996,546 C132.273,546 134.833,544.9 137.687,543.555 C145.347,539.945 164.991,531.176 171.875,528.295 C175.175,526.914 181.632,524.032 186.224,521.892 C190.816,519.751 194.866,517.969 195.224,517.932 C197.366,517.707 207.805,502.049 211.872,492.961 C214.447,487.208 217.82,479.8 219.368,476.5 C220.916,473.2 223.499,467.575 225.106,464 C227.459,458.77 229.48,456.24 235.452,451.047 C239.535,447.498 246.259,441.423 250.394,437.547 C269.367,419.765 286.712,404.51 287.84,404.614 C288.52,404.677 292.407,407.189 296.476,410.197 C300.545,413.205 308.6,419.112 314.375,423.324 C320.15,427.536 328.556,433.705 333.056,437.033 C337.555,440.361 344.08,444.217 347.556,445.602 C351.031,446.986 355.675,448.94 357.875,449.944 C360.075,450.947 367.05,453.887 373.375,456.478 C379.7,459.068 385.279,461.572 385.773,462.042 C387.38,463.57 384.15,475.158 378.816,487 C371.209,503.89 363.575,520.673 360.394,527.5 C358.856,530.8 353.911,541.6 349.405,551.5 C334.336,584.605 335.767,582.084 329.391,586.75 L323.582,591 L311.729,590.96 C305.209,590.938 292.225,590.309 282.875,589.563 C265.331,588.164 262.72,587.476 244.875,579.554 C243.225,578.822 240.75,577.897 239.375,577.5 C238,577.103 235.525,576.175 233.875,575.438 C232.225,574.701 226.301,572.296 220.711,570.092 L210.547,566.084 L194.711,572.123 C186.001,575.444 176.625,578.972 173.875,579.963 C171.125,580.955 167.525,582.325 165.875,583.007 C160.773,585.119 159.213,585.725 147.89,589.999 C141.849,592.279 136.291,594.655 135.539,595.279 C134.787,595.903 132.678,598.683 130.851,601.457 C129.025,604.23 125.133,609.924 122.203,614.11 C115.371,623.867 108.608,633.603 105.746,637.801 C104.509,639.616 102.983,643.666 102.356,646.801 C100.825,654.458 100.18,657.456 95.357,679.372 C94.767,682.051 94.517,684.475 94.8,684.758 C95.083,685.041 99.941,683.8 105.595,682 C132.995,673.276 133.953,672.9 158.375,661.274 C181.838,650.104 179.897,650.655 191.399,651.906 C197,652.516 202.563,653.26 203.762,653.561 C205.636,654.031 202.615,657.418 182.138,677.804 L158.336,701.5 L133.606,707.739 C74.822,722.567 70.759,723.794 59.129,730.231 C53.219,733.502 48.178,736.509 47.929,736.913 C47.679,737.317 50.165,745.984 53.454,756.172 L59.434,774.695 L64.654,775.849 C67.526,776.484 76.625,778.154 84.875,779.561 C93.125,780.968 105.275,783.088 111.875,784.271 C128.963,787.334 129.258,787.319 154.875,782.049 C160.375,780.918 167.35,779.521 170.375,778.945 C173.4,778.369 179.025,777.243 182.875,776.443 C204.278,771.994 210.257,770.805 213.875,770.277 C216.547,769.888 219.8,768.167 223.673,765.097 C226.863,762.569 231.815,758.7 234.678,756.5 C237.541,754.3 243.214,749.8 247.284,746.5 C255.142,740.129 263.865,733.286 271.571,727.448 C274.154,725.491 278.625,720.652 281.506,716.695 C288.752,706.743 298.851,693.014 305.925,683.5 C309.197,679.1 313.035,673.7 314.453,671.5 C315.872,669.3 317.86,666.825 318.87,666 C320.577,664.606 320.665,664.677 320.111,667 C319.783,668.375 319.241,673.775 318.906,679 C318.571,684.225 317.814,694.125 317.225,701 L316.154,713.5 L304.588,725.192 L293.022,736.884 L295.565,740.692 C306.781,757.486 317.864,776.781 326.222,794.062 C331.659,805.303 340.955,824.4 346.879,836.5 C352.803,848.6 362.551,868.599 368.541,880.943 L379.432,903.386 L378.335,908.943 C377.731,911.999 376.781,916.251 376.224,918.392 C375.666,920.533 374.852,924.358 374.415,926.892 C373.375,932.928 368.278,957.466 368.051,957.532 C367.954,957.56 364.95,958.356 361.375,959.301 C354.928,961.005 341.951,964.598 331.375,967.608 C328.35,968.469 324.525,969.536 322.875,969.979 C321.225,970.422 317.175,971.538 313.875,972.458 C310.575,973.379 305.676,974.727 302.988,975.455 C298.491,976.672 295.778,979.107 268.988,1005.96 L239.875,1035.143 L246.875,1034.534 C250.725,1034.2 259.05,1033.281 265.375,1032.493 C279.144,1030.777 285.375,1030.284 285.375,1030.91 C285.375,1031.164 282.9,1035.744 279.875,1041.086 C276.85,1046.429 274.375,1051.353 274.375,1052.028 C274.375,1052.915 275.554,1053.062 278.625,1052.558 C280.962,1052.175 286.925,1051.436 291.875,1050.916 C296.825,1050.396 301.55,1049.759 302.375,1049.5 C303.2,1049.241 308.038,1048.573 313.125,1048.015 C318.212,1047.457 326.481,1046.548 331.499,1045.995 C339.445,1045.12 352.268,1041.331 361.875,1037.019 C362.975,1036.525 374.225,1032.253 386.875,1027.525 C399.525,1022.798 411,1018.449 412.375,1017.862 C413.75,1017.275 418.025,1015.666 421.875,1014.286 C425.725,1012.906 429.55,1011.203 430.375,1010.501 C431.2,1009.799 435.925,1006.546 440.875,1003.272 C449.825,997.353 457.522,994 462.16,994 C463.73,994 464.394,993.558 464.039,992.75 C463.736,992.063 462.307,988.575 460.863,985 C455.305,971.239 450.009,958.278 447.786,953 C446.512,949.975 442.298,939.468 438.422,929.651 L431.375,911.801 L431.375,853.26 L431.375,794.718 L435.515,799.422 C437.792,802.009 441.73,806.748 444.265,809.954 C446.801,813.159 450.952,818.193 453.492,821.141 C456.392,824.508 459.608,830.031 462.143,836 C464.362,841.225 468.519,850.45 471.381,856.5 C474.243,862.55 478.511,871.775 480.866,877 C483.221,882.225 487.674,891.814 490.761,898.308 C493.849,904.803 496.375,910.301 496.375,910.525 C496.375,910.75 498.584,915.561 501.285,921.217 C503.985,926.873 508.835,937.35 512.063,944.5 C518.484,958.725 518.32,957.15 514.925,972 C513.042,980.237 509.956,994.382 508.145,1003.075 C507.016,1008.498 506.846,1008.709 501.929,1010.772 C494.765,1013.778 478.863,1020.734 472.375,1023.7 C469.35,1025.083 464.85,1027.029 462.375,1028.026 C454.217,1031.31 442.067,1037.792 428.875,1045.898 C421.725,1050.292 413.086,1055.496 409.678,1057.463 C406.27,1059.429 401.868,1062.942 399.897,1065.269 C394.63,1071.487 382.375,1088.353 382.375,1089.384 C382.375,1089.872 384.512,1089.971 387.125,1089.604 C389.738,1089.236 396.6,1088.486 402.375,1087.937 C408.15,1087.387 415.575,1086.505 418.875,1085.976 C422.175,1085.448 426.755,1085.012 429.052,1085.008 L433.229,1085 L427.674,1094.538 C424.619,1099.785 422.392,1104.35 422.726,1104.684 C423.26,1105.219 428.727,1104.091 452.875,1098.465 C456.175,1097.696 461.8,1096.409 465.375,1095.605 C468.95,1094.801 475.925,1093.189 480.875,1092.022 C485.825,1090.855 492.125,1089.429 494.875,1088.853 C497.625,1088.277 513.6,1081.089 530.375,1072.879 C547.15,1064.67 561.641,1057.964 562.578,1057.977 C563.515,1057.989 565.315,1057.58 566.578,1057.068 C567.841,1056.555 571.575,1055.371 574.875,1054.437 C584.728,1051.647 588.602,1050.264 594.12,1047.565 C597.005,1046.154 599.866,1045 600.477,1045 C601.126,1045 601.309,1044.271 600.917,1043.25 C600.257,1041.533 594.434,1024.287 579.729,980.5 C574.694,965.505 572.009,955.794 571.297,950 C570.723,945.325 569.851,938.228 569.36,934.229 C568.869,930.23 568.024,924.38 567.482,921.229 C566.94,918.078 565.99,911.45 565.372,906.5 C564.753,901.55 563.635,893.45 562.887,888.5 C562.139,883.55 561.022,875.45 560.404,870.5 C559.787,865.55 558.654,857.225 557.888,852 C555.519,835.841 555.284,833.111 556.51,836 C558.094,839.733 565.34,859.842 566.96,865 C568.012,868.35 572.743,874.611 585.474,889.5 C594.88,900.5 605.793,913.325 609.725,918 C624.454,935.51 626.143,936.831 644.875,945.47 C654.225,949.782 666.6,955.543 672.375,958.271 C694.109,968.538 708.647,975.062 709.003,974.705 C709.361,974.348 704.293,967.029 690.861,948.5 C683.291,938.058 671.768,922.063 668.875,917.979 C667.775,916.427 663.612,910.593 659.625,905.015 C655.638,899.437 652.375,894.491 652.375,894.023 C652.375,893.555 657.518,884.921 663.804,874.836 C670.089,864.751 677.508,852.826 680.29,848.337 L685.348,840.173 L693.112,839.558 C697.381,839.219 704.156,838.505 708.166,837.971 C712.176,837.437 734.563,837 757.916,837 C781.268,837 800.354,836.663 800.329025,836.25 C800.304,835.837 786.917,826.653 770.579,815.84 C743.639,798.009 740.131,795.979 732.875,794.018 C707.568,787.18 694.052,783.422 687.156,781.307 C682.623,779.917 682.091,779.979 673.656,782.88 C665.343,785.739 631.898,797.347 622.53,800.624 C620.141,801.46 618.047,801.999 617.878,801.822 C617.709,801.645 626.999,791.274 638.522,778.776 C658.461,757.149 659.893,755.825 668.174,751.371 C672.96,748.797 682.275,743.714 688.875,740.077 C695.475,736.439 703.461,732.121 706.623,730.481 C712.437,727.465 714.253,725.318 710.125,726.34 C708.888,726.646 704.761,727.391 700.954,727.995 C697.148,728.599 693.713,729.291 693.321,729.534 C692.929,729.776 689.518,730.437 685.741,731.003 C681.965,731.568 675.275,732.707 670.875,733.532 C666.475,734.358 658.825,735.752 653.875,736.631 C646.271,737.982 636.589,741.079 627.875,744.949 C622.009,747.553 611.297,751.255 610.868,750.826 C610.595,750.554 609.914,745.419 609.353,739.416 C608.792,733.412 607.682,721.525 606.885,713 C606.089,704.475 605.168,693.675 604.84,689 C604.511,684.325 603.116,675.56 601.74,669.522 C600.363,663.485 598.827,656.51 598.325,654.022 C597.824,651.535 596.692,646.35 595.811,642.5 C594.93,638.65 593.383,631.675 592.374,627 C590.652,619.022 589.721,614.847 585.793,597.5 C584.922,593.65 583.384,586.675 582.375,582 C581.366,577.325 579.798,570.35 578.889,566.5 C575.525,552.253 575.627,551.258 581.127,544.5 C583.813,541.2 590.645,532.65 596.308,525.5 C601.971,518.35 607.975,510.795 609.651,508.712 C611.326,506.629 613.903,503.308 615.376,501.332 C617.85,498.014 620.108,496.983 644.965,487.829 L671.875,477.919 L678.875,478.998 C687.318,480.3 696.299,481.774 706.375,483.513 C710.5,484.224 717.25,485.342 721.375,485.997 C725.5,486.651 732.208,487.824 736.281,488.604 C740.355,489.383 743.954,489.754 744.28,489.428 C745.003,488.705 747.929,490.854 706.375,461.581 L671.875,437.278 L610.996,436.677 C577.512,436.346 549.917,435.875 549.673,435.631 C549.136,435.095 547.02,424.289 545.437,414 C544.802,409.875 543.673,403.35 542.927,399.5 C542.181,395.65 541.062,389.35 540.44,385.5 C536.378,360.369 536.995,362.436 531.738,356.35 C529.063,353.253 525.533,349.095 523.894,347.11 C520.572,343.088 509.35,329.869 505.973,326 C502.398,321.905 488.941,305.871 488.046,304.64 C487.536,303.939 489.344,300.031 492.736,294.5 C495.772,289.55 499.97,282.638 502.066,279.141 C506.816,271.212 506.221,272.191 516.283,255.729 C525.193,241.152 524.394,241.999 551.728,218.133 C555.109,215.182 561.475,209.497 565.875,205.501 C570.275,201.504 575.759,196.667 578.061,194.75 C581.75,191.678 618.086,172.195 651.375,155.438 C657.7,152.255 663.063,149.504 663.292,149.325 C664.945,148.036 660.476,147.903 647.669,148.86 C639.532,149.468 622.975,150.654 610.875,151.497 C598.775,152.34 583.025,153.473 575.875,154.016 C568.725,154.559 559.788,155.002 556.016,155.001 C549.43,155 548.593,155.295 535.016,162.39 C527.238,166.455 514.8,173.107 507.375,177.172 C499.95,181.237 490.762,186.124 486.956,188.032 C480.605,191.215 463.421,206.049 444.768,224.449 C442.509,226.677 437.048,232.038 432.632,236.363 L424.603,244.226 L415.239,242.666 C406.419,241.196 401.167,240.448 381.875,237.915 C377.475,237.337 370.275,236.22 365.875,235.431 C361.475,234.643 356.66,233.999 355.174,233.999 C353.689,234 350.142,233.5 347.292,232.889 L342.111,231.778 L368.993,204.839 C395.872,177.904 395.877,177.899 411.875,167.81 C420.675,162.26 429.45,156.71 431.375,155.476 C433.3,154.241 437.575,151.517 440.875,149.422 C444.175,147.327 461.5,138.301 479.375,129.364 C510.523,113.791 511.679,113.113 507.165,113.058 C504.575,113.026 498.05,113.643 492.665,114.429 C487.281,115.215 477.475,116.377 470.875,117.011 C453.737,118.659 438.643,120.836 436.617,121.954 C435.659,122.483 427.225,125.691 417.875,129.083 C408.525,132.476 399.525,135.817 397.875,136.508 C396.225,137.2 393.3,138.314 391.375,138.984 C389.45,139.654 386.975,140.594 385.875,141.073 C384.775,141.553 381.607,142.814 378.835,143.875 C376.062,144.937 371.787,146.904 369.335,148.247 C366.882,149.59 360.375,153.075 354.875,155.991 C349.375,158.908 341.725,162.965 337.875,165.007 C334.025,167.05 326.913,170.859 322.07,173.472 C317.227,176.085 313.107,178.06 312.915,177.861 C312.559,177.493 315.018,167.441 319.854,149.5 C321.336,144 322.7,138.825 322.885,138 C323.07,137.175 324.646,131.1 326.387,124.5 C328.128,117.9 330.262,109.8 331.129,106.5 C332.518,101.213 332.565,97.766 331.526,77.5 C330.877,64.85 330.352,48.953 330.36,42.174 L330.375,29.848 L325.654,23.674 C317.853,13.474 307.249,0.519 306.458,0.220990483 C306.051,0.072 307.201,5.697 309.015,12.724 M421.375,705.63 C417.8,709.789 412.067,716.468 408.635,720.473 L402.396,727.754 L410.453,732.989 C418.904,738.48 419.576,739.42 421.277,748.117 C421.856,751.078 423.047,756.65 423.925,760.5 C424.802,764.35 426.17,770.65 426.965,774.5 C429.807,788.259 430.488,790.151 432.112,788.803 C432.921,788.132 433.986,786.664 434.477,785.541 C434.969,784.418 437.239,780.575 439.523,777 C444.192,769.692 444.228,769.264 441.312,755.913 C440.182,750.736 437.941,740.2 436.334,732.5 C434.727,724.8 432.713,715.35 431.859,711.5 C431.005,707.65 430.038,703.038 429.71,701.25 C429.382,699.462 428.835,698.016 428.494,698.034815 C428.154,698.054 424.95,701.472 421.375,705.63 M527.916,758.5 C527.536,759.6 526.588,762.267 525.811,764.427 C525.033,766.588 524.504,768.445 524.636,768.554 C525.709,769.45 533.648,773.061 533.928,772.781 C534.3,772.409 531.998,765.006 530.421,761.5 C529.926,760.4 529.316,758.825 529.065,758 C528.713,756.845 528.449,756.96 527.916,758.5"/><path fill-opacity=".505" d="M306.977,2.75 C307.329,4.263 308.956,10.675 310.593,17 C312.23,23.325 313.957,30.3 314.432,32.5 C314.906,34.7 315.726,37.943 316.252,39.707 C316.779,41.47 317.059,43.72 316.873,44.707 C316.687,45.693 316.04,49.65 315.434,53.5 C314.828,57.35 313.217,67.114 311.853,75.197 C310.49,83.281 309.375,91.005 309.375,92.362 C309.375,93.887 302.93,104.511 292.509,120.165 C283.233,134.099 269.019,155.506 260.922,167.735 C246.955,188.831 245.998,190.025 242.215,191.043 C240.022,191.634 232.298,195.933 225.051,200.598 C204.56,213.789 167.595,231.872 151.848,236.409 C150.204,236.883 149.382,238.925 147.489,247.246 C146.205,252.886 144.721,259.3 144.19,261.5 C142.217,269.674 140.495,276.617 139.45,280.616 C138.859,282.88 138.375,285.033 138.375,285.402 C138.375,285.77 140.503,286.983 143.105,288.098 C145.706,289.213 147.987,290.278 148.173,290.465 C148.657,290.949 131.693,328.98 127.192,337.5 C126.03,339.7 120.879,348.961 115.744,358.079 C106.533,374.438 106.405,374.756 106.142,382.05 L105.875,389.441 L116.375,393.208 C122.15,395.28 128.675,397.267 130.875,397.623 C133.075,397.978 136.985,399.764 139.565,401.59 C143.952,404.696 157.468,410 160.995,410 C161.863,410 163.991,409.362 165.724,408.582 C170.356,406.497 186.717,400 187.34,399.999 C188.107,399.997 187.638,408.817 185.735,430.213 L184.069,448.926 L165.472,467.403 C150.211,482.566 144.095,487.846 131.375,496.838 C122.85,502.865 114.3,508.998 112.375,510.468 C110.45,511.938 100.78,517.226 90.886,522.219 L72.896,531.298 L53.886,530.496 C43.43,530.054 31.996,529.65 28.478,529.597 L22.081,529.5 L18.653,538.5 C14.109,550.427 12.889,555.266 7.814,581.5 C5.435,593.793 4.437,597.942 2.129,605.135 L0,611.77 L10.957,628.135 L21.914,644.5 L34.395,644.544 C41.259,644.569 48.169,644.929 49.751,645.345 C52.116,645.967 52.522,645.826 52.033,644.551 C51.607,643.44 52.068,642.993 53.656,642.976 C55.522,642.955 54.979,642.12 50.243,637.726 C44.172,632.093 35.379,618.014 35.369,613.912 C35.366,612.585 34.969,609.925 34.486,608 C34.003,606.075 33.054,601.346 32.377,597.492 L31.146,590.484 L35.507,583.644 L39.868,576.803 L43.871,577.434 C46.073,577.782 51.531,578.336 56,578.666 C63.928,579.252 64.291,579.179 70.934,575.651 C74.679,573.662 77.929,572.221 78.157,572.449 C78.384,572.676 76.261,576.3 73.438,580.501 L68.307,588.14 L68.591,598.091 L68.875,608.041 L78.216,599.821 C86.723,592.335 87.98,590.75 92.297,582.051 C94.904,576.798 98.059,569.928 99.308,566.785 C100.661,563.38 102.346,560.827 103.477,560.468 C104.521,560.136 105.375,559.269 105.375,558.541 C105.375,557.813 107.063,556.519 109.125,555.665 C112.45,554.289 127.595,547.508 141.873,541.001 C144.623,539.749 150.248,537.263 154.373,535.478 C168.245,529.476 180.831,523.887 187.128,520.933 C190.567,519.32 193.773,518 194.253,518 C196.395,518 207.824,501.31 211.525,492.777 C213.709,487.74 217.257,479.879 219.408,475.309 C221.56,470.738 224.293,464.736 225.482,461.972 C227.271,457.814 230.311,454.574 243.07,443.223 C251.553,435.675 264.88,423.784 272.685,416.797 C280.489,409.811 287.325,404.083 287.875,404.067 C288.425,404.052 292.25,406.515 296.375,409.541 C300.5,412.566 307.7,417.81 312.375,421.193 C317.05,424.576 324.945,430.36 329.918,434.046 C340.313,441.75 342.741,443.071 358.196,449.432 C364.422,451.995 371.847,455.142 374.696,456.425 C377.544,457.708 381.564,459.353 383.628,460.081 C386.234,461 387.239,461.877 386.916,462.952 C386.66,463.803 386.02,467.2 385.495,470.5 C384.939,473.983 382.407,481.015 379.457,487.265 C376.662,493.186 374.375,498.209 374.375,498.427 C374.375,498.645 371.675,504.528 368.375,511.5 C365.075,518.472 362.375,524.335 362.375,524.529 C362.375,524.723 360.529,528.846 358.273,533.691 C356.017,538.536 352.152,547 349.685,552.5 C347.218,558 343.213,566.685 340.787,571.799 C338.36,576.914 336.372,581.414 336.368,581.799 C336.364,582.185 334.802,583.562 332.895,584.86 C330.989,586.158 328.18,588.295 326.652,589.609 C323.427,592.383 325.351,592.306 293.586,590.928 L268.875,589.857 L249.875,582.391 C239.425,578.285 229.975,574.513 228.875,574.009 C227.775,573.505 223.166,571.659 218.632,569.907 L210.389,566.723 L192.632,573.494 C182.866,577.219 170.15,582.027 164.375,584.179 C158.6,586.331 152.975,588.495 151.875,588.986 C150.775,589.478 146.626,591.111 142.655,592.615 C136.233,595.048 135.068,595.911 132.115,600.425 C130.289,603.216 124.556,611.575 119.375,619 C104.403,640.459 103.709,641.571 103.074,645.126 C102.742,646.982 101.072,655.025 99.362,663 C95.513,680.953 94.811,685.46 95.973,684.772 C96.469,684.479 104.906,681.663 114.722,678.516 C124.537,675.369 136.687,670.88 141.722,668.54 C146.756,666.2 153.8,662.917 157.375,661.245 C160.95,659.573 167.925,656.324 172.875,654.026 L181.875,649.848 L188.875,650.935 C192.725,651.533 198.327,652.257 201.325,652.544 C204.322,652.831 206.91,653.202 207.076,653.368 C207.74,654.031 158.195,702.519 156.595,702.772 C155.649,702.922 152.4,703.687 149.375,704.472 C135.522,708.07 126.557,710.303 122.875,711.074 C120.675,711.535 116.175,712.651 112.875,713.555 C109.575,714.459 103.725,716.011 99.875,717.003 C70.635,724.537 69.105,725.049 59.545,730.511 C54.261,733.53 49.586,736 49.156,736 C47.738,736 48.324,738.546 53.436,754.603 C60.37,776.383 59.464,774.755 65.072,775.5 C69.934,776.145 73.814,776.825 87.375,779.407 C91.5,780.193 98.25,781.364 102.375,782.011 C106.5,782.657 112.889,783.819 116.572,784.593 C125.076,786.379 131.825,786.375 139.669,784.579 C143.083,783.797 148.575,782.654 151.875,782.038 C155.175,781.422 160.8,780.291 164.375,779.524 C167.95,778.758 176.05,777.172 182.375,776 C188.7,774.828 196.8,773.242 200.375,772.476 C203.95,771.709 209.575,770.52 212.875,769.834 C217.817,768.806 220.177,767.52 226.259,762.543 C230.32,759.219 236.263,754.475 239.467,752 C252.334,742.058 267.138,730.356 271.677,726.538 C276.334,722.622 282.01,715.525 297.454,694.305 C321.235,661.632 319.837,663.303 320.227,667.088 C320.42,668.965 320.093,675.675 319.5,682 C318.906,688.325 318.141,698.051 317.8,703.614 L317.179,713.728 L305.777,725.098 C299.506,731.351 294.375,736.837 294.375,737.289 C294.375,737.741 296.699,741.798 299.539,746.305 C302.379,750.812 306.25,756.975 308.142,760 C310.035,763.025 312.886,767.426 314.479,769.779 C316.072,772.133 317.375,774.244 317.375,774.47 C317.375,774.696 323.507,787.395 331.001,802.691 C373.788,890.011 379.96,903.341 379.299,907 C378.621,910.748 377.001,918.387 372.83,937.5 C371.39,944.1 369.97,951.369 369.674,953.653 C369.161,957.622 368.93,957.861 364.506,959.018 C361.959,959.685 358.525,960.616 356.875,961.087 C355.225,961.559 351.625,962.577 348.875,963.35 C346.125,964.122 342.075,965.271 339.875,965.902 C337.675,966.533 327.446,969.415 317.144,972.305 L298.413,977.56 L269.885,1005.938 C254.195,1021.545 241.535,1034.493 241.752,1034.71 C241.968,1034.927 247.26,1034.426 253.51,1033.597 C271.666,1031.189 281.813,1030 284.196,1030 C286.272,1030 286.062,1030.656 280.894,1040.334 C277.858,1046.018 275.375,1051.001 275.375,1051.406 C275.375,1052.324 283.133,1051.542 313.375,1047.576 C319.7,1046.747 328.925,1045.555 333.875,1044.928 C338.825,1044.301 345.575,1042.754 348.875,1041.49 C352.175,1040.225 365.225,1035.28 377.875,1030.499 C390.525,1025.719 401.775,1021.433 402.875,1020.976 C403.975,1020.518 408.025,1018.971 411.875,1017.536 C415.725,1016.102 420.353,1014.27 422.159,1013.464 C423.965,1012.659 425.852,1012 426.353,1012 C426.853,1012 432.35,1008.541 438.569,1004.313 C446.682,998.798 451.655,996.147 456.179,994.926 C463.596,992.926 463.828,992.758 462.483,990.347 C461.915,989.331 459.62,983.775 457.381,978 C455.143,972.225 452.901,966.6 452.4,965.5 C451.899,964.4 449.611,958.775 447.316,953 C445.02,947.225 440.269,935.332 436.758,926.571 L430.375,910.642 L430.375,852.321 C430.375,820.244 430.733,794 431.17,794 C431.606,794 433.744,796.349 435.92,799.22 C438.095,802.091 441.675,806.528 443.875,809.08 C446.075,811.632 450.229,816.443 453.107,819.772 C456.749,823.986 459.684,828.964 462.769,836.162 C465.206,841.848 469.94,852.246 473.288,859.269 C476.636,866.292 479.375,872.216 479.375,872.433 C479.375,872.65 481.684,877.704 484.507,883.664 C489.707,894.644 497.318,911.096 506.869,932 C509.758,938.325 513.573,946.643 515.344,950.484 L518.566,957.467 L516.994,964.984 C516.13,969.118 514.725,975.875 513.873,980 C512.422,987.02 510.641,994.745 508.17,1004.737 C507.234,1008.523 506.557,1009.242 501.811,1011.487 C498.889,1012.869 496.277,1014 496.007,1014 C495.736,1014 492.671,1015.309 489.195,1016.909 C485.719,1018.509 475.039,1023.265 465.462,1027.478 C455.885,1031.691 444.185,1037.469 439.462,1040.317 C434.739,1043.166 429.708,1046.173 428.282,1046.999 C406.551,1059.578 401.784,1062.988 397.375,1069.105 C394.9,1072.539 390.696,1078.308 388.032,1081.924 L383.189,1088.5 L386.516,1088.831 C388.346,1089.013 393.45,1088.631 397.859,1087.982 C402.268,1087.333 408.575,1086.632 411.875,1086.424 C415.175,1086.217 421.176,1085.55 425.21,1084.942 C429.245,1084.334 432.778,1084.07 433.062,1084.354 C433.551,1084.843 426.97,1097.636 423.522,1102.899 C421.945,1105.306 421.962,1105.341 424.394,1104.669 C427.165,1103.905 446.418,1099.341 453.375,1097.8 C455.85,1097.252 459.45,1096.443 461.375,1096.003 C463.3,1095.562 473.2,1093.3 483.375,1090.975 L501.875,1086.748 L529.375,1073 C544.5,1065.438 560.138,1058.294 564.125,1057.125 C568.112,1055.956 574.638,1054.065 578.625,1052.923 C584.993,1051.099 600.375,1044.549 600.375,1043.662 C600.375,1043.482 594.125,1024.697 586.485,1001.918 C572.434,960.02 571.986,958.283 568.424,932 C567.865,927.875 566.718,919.775 565.875,914 C564.151,902.194 562.998,893.659 561.349,880.5 C560.729,875.55 559.614,867.45 558.872,862.5 C557.459,853.066 555.586,839.29 554.795,832.5 L554.329,828.5 L555.693,832 C556.443,833.925 558.311,839.1 559.843,843.5 C568.32,867.834 569.418,870.339 573.641,874.988 C579.594,881.541 588.003,891.329 593.875,898.539 C596.625,901.915 604.897,911.682 612.257,920.244 C627.118,937.531 624.562,935.731 652.375,948.501 C659.8,951.911 669.7,956.536 674.375,958.779 C697.995,970.116 709.773,975.053 707.77,972.777 C706.668,971.525 704.44,968.521 702.82,966.103 C701.2,963.684 698.975,960.48 697.875,958.981 C695.643,955.941 687.954,945.262 684.875,940.927 C683.775,939.378 678.869,932.573 673.972,925.805 C669.075,919.037 661.975,909.141 658.194,903.814 L651.319,894.128 L664.597,872.814 C678.574,850.378 678.509,850.484 682.25,844.2 L684.625,840.211 L696.25,839.043 C702.644,838.401 709,837.623 710.375,837.314 C711.75,837.006 732.312,836.471 756.069,836.126 L799.264,835.5 L770.076,816 C754.023,805.275 739.535,796.197 737.882,795.826 C736.228,795.455 733.3,794.719 731.375,794.189 C725.952,792.697 705.812,787.035 696.375,784.348 C680.926,779.951 683.932,779.596 657.375,788.96 C633.956,797.219 616.186,803.145 615.85,802.809 C615.66,802.618 625.716,791.744 638.197,778.643 C658.479,757.354 661.686,754.4 668.382,750.835 C672.503,748.641 680.15,744.461 685.375,741.545 C690.6,738.629 698.63,734.276 703.219,731.871 C712.492,727.013 711.959,726.116 701.137,728.372 C697.143,729.204 690.725,730.404 686.875,731.037 C683.025,731.671 676.95,732.806 673.375,733.56 C669.8,734.313 662.394,735.657 656.917,736.547 C649.908,737.685 641.912,740.089 629.917,744.666 C620.544,748.243 612.087,751.408 611.125,751.701 C609.624,752.157 609.376,751.54 609.385,747.367 C609.39,744.69 608.746,736.425 607.952,729 C605.91,709.891 604.357,691.268 604.367,685.993 C604.371,683.515 603.915,679.915 603.352,677.993 C602.79,676.072 601.653,671.125 600.827,667 C600,662.875 598.625,656.575 597.771,653 C596.917,649.425 595.839,644.7 595.375,642.5 C594.911,640.3 593.842,635.575 592.999,632 C592.155,628.425 589.405,616.05 586.888,604.5 C584.37,592.95 581.874,581.871 581.341,579.88 C580.808,577.888 579.932,574.063 579.393,571.38 C578.854,568.696 577.73,563.35 576.894,559.5 C576.059,555.651 575.375,552.211 575.375,551.858 C575.375,551.504 581.04,544.079 587.965,535.357 C594.889,526.636 602.427,517.089 604.715,514.142 C617.179,498.087 617.909,497.434 627.191,494.04 C631.967,492.293 637.45,490.261 639.375,489.523 C641.3,488.786 645.575,487.202 648.875,486.003 C652.175,484.805 655.981,483.381 657.333,482.839 C670.439,477.584 673.268,477.322 687.875,480.009 C690.625,480.515 697.15,481.64 702.375,482.509 C707.6,483.379 714.35,484.502 717.375,485.006 C720.4,485.51 725.8,486.369 729.375,486.915 C732.95,487.461 737.563,488.174 739.625,488.499 C741.688,488.824 743.375,488.882 743.375,488.627 C743.375,488.372 730.438,479.047 714.625,467.905 C698.813,456.764 682.617,445.252 678.635,442.324 L671.394,437 L621.135,436.995 C593.492,436.993 565.82,436.7 559.642,436.344 L548.409,435.696 L547.928,432.598 C547.663,430.894 546.94,426.125 546.322,422 C545.704,417.875 544.762,412.25 544.229,409.5 C542.777,402.011 538.332,376.003 537.82,372 C536.638,362.757 536.989,363.309 518.607,341.694 C515.71,338.287 509.976,331.45 505.865,326.5 C501.754,321.55 495.923,314.575 492.908,311 C489.892,307.425 487.414,303.894 487.4,303.154 C487.386,302.414 488.214,300.614 489.24,299.154 C490.266,297.694 494.617,290.65 498.909,283.5 C503.202,276.35 510.012,265.179 514.044,258.675 C518.076,252.171 521.375,246.534 521.375,246.15 C521.375,245.141 534.525,232.48 543.875,224.487 C553.532,216.23 565.414,205.658 574.307,197.408 C579.976,192.149 585.393,188.978 613.875,174.244 C632.025,164.855 650.475,155.357 654.875,153.137 L662.875,149.1 L655.875,149.043 C652.025,149.011 643.25,149.424 636.375,149.959 C629.5,150.494 613.525,151.634 600.875,152.493 C588.225,153.351 571.125,154.538 562.875,155.129 L547.875,156.205 L535.375,162.734 C528.5,166.325 517.7,172.074 511.375,175.51 C505.05,178.946 494.925,184.353 488.875,187.525 C479.052,192.676 476.485,194.647 464.875,205.95 C457.725,212.911 445.7,224.364 438.153,231.401 L424.43,244.195 L419.153,243.557 C416.25,243.206 410.95,242.512 407.375,242.015 C403.8,241.518 397.05,240.597 392.375,239.969 C387.7,239.34 379.825,238.215 374.875,237.469 C364.994,235.979 353.491,234.377 346.125,233.465 C343.512,233.142 341.375,232.565 341.375,232.182 C341.375,231.8 353.862,219.055 369.125,203.86 C392.065,181.022 398.348,175.334 405.375,171.046 C410.05,168.193 414.739,165.328 415.794,164.679 C416.85,164.031 424.017,159.514 431.722,154.642 C439.427,149.77 460.388,138.399 478.303,129.372 C501.739,117.564 509.753,113.11 506.875,113.493 C502.599,114.063 488.252,115.606 474.375,116.987 C442.804,120.129 443.411,120.023 430.982,124.59 C424.323,127.037 417.3,129.687 415.375,130.479 C413.45,131.271 403.775,134.9 393.875,138.543 C382.534,142.717 370.511,148.057 361.375,152.977 C353.4,157.271 343.05,162.788 338.375,165.236 C333.7,167.685 326.013,171.783 321.293,174.344 C316.573,176.905 312.477,179 312.192,179 C311.703,179 313.916,169.928 319.753,148 C321.144,142.775 323.002,135.8 323.88,132.5 C331.773,102.865 331.557,104.042 331.476,91 C331.433,84.125 330.872,67.25 330.229,53.5 L329.06,28.5 L324.467,22.611 C321.942,19.371 318.494,15.096 316.807,13.111 C315.119,11.125 312.23,7.362 310.387,4.75 C308.544,2.138 306.879,0 306.686,0 C306.494,0 306.625,1.237 306.977,2.75 M422.779,703.566 C419.532,707.289 413.613,713.959 409.625,718.389 C405.637,722.82 402.393,726.907 402.413899,727.472 C402.436,728.038 406.222,730.946 410.827,733.936 C418.349,738.818 419.247,739.733 419.663,742.936 C419.917,744.896 420.904,749.875 421.856,754 C425.151,768.283 426.319,773.537 427.97,781.5 C428.882,785.9 429.971,789.877 430.389,790.337 C431.264,791.3 432.47,789.717 439.788,778 C444.051,771.174 444.951,769.008 444.355,767 C443.686,764.744 442.162,757.756 439.23,743.5 C438.664,740.75 437.753,736.749 437.206,734.608 C436.658,732.467 435.846,728.642 435.401,726.108 C433.508,715.308 430.105,699.397 429.422,698.149 C428.894,697.185 426.993,698.735 422.779,703.566 M525.979,762.533 C524.95,766.126 524.281,769.199 524.491,769.36 C525.175,769.884 534.339,774 534.821,774 C535.079,774 533.881,769.95 532.159,765 C530.438,760.05 528.764,756 528.44,756 C528.115,756 527.008,758.94 525.979,762.533"/><path fill-opacity=".058" d="M307.375,3.016 C307.375,3.575 308.995,10.212 310.974,17.766 C318.464,46.345 318.115,40.675 313.874,65 C312.689,71.792 311.74,77.841 309.794,91 C309.263,94.589 305.582,100.863 291.605,122 C281.967,136.575 269.326,155.7 263.513,164.5 C257.701,173.3 250.567,183.758 247.66,187.74 C244.753,191.723 242.375,195.21 242.375,195.49 C242.375,196.454 245.891,195.965 253.875,193.892 C258.275,192.749 266.6,190.743 272.375,189.434 C278.15,188.125 285.35,186.389 288.375,185.576 C294.812,183.848 310.269,180 310.777,180 C311.166,180 319.422,194.208 324.432,203.5 C326.212,206.8 329.402,212.504 331.521,216.174 C333.641,219.845 335.375,223.117 335.375,223.444 C335.375,223.772 336.546,225.895 337.977,228.161 L340.579,232.283 L368.727,204.26 C397.909,175.206 399.318,174.059 423.926,159.334 C424.998,158.692 431.447,154.698 438.257,150.458 C445.068,146.218 463.921,136.272 480.155,128.355 C496.388,120.439 509.476,113.768 509.239,113.53 C509.002,113.293 505.673,113.5 501.841,113.989 C498.01,114.478 488.35,115.608 480.375,116.5 C472.4,117.392 462.594,118.544 458.584,119.061 C454.574,119.577 449.624,120.001 447.584,120.002 C445.544,120.003 438.475,122.062 431.875,124.577 C425.275,127.092 418.3,129.727 416.375,130.432 C377.829,144.562 376.444,145.171 346.875,161.019 C319.084,175.914 312.387,179.346 311.966,178.912 C311.573,178.508 313.049,172.448 319.374,148.5 C326.67,120.876 327.645,117.139 329.531,109.603 C331.43,102.012 331.463,100.285 330.378,65.154 L329.249,28.603 L326.062,25.046 C324.309,23.089 319.548,17.104 315.482,11.744 C311.415,6.385 307.928,2 307.732,2 C307.535,2 307.375,2.457 307.375,3.016 M641.875,150.037 C608.544,151.989 590.892,153.181 590.351,153.515 C590.021,153.719 580.329,154.386 568.813,154.998 L547.875,156.111 L534.375,163.444 C526.95,167.478 516.375,173.137 510.875,176.022 C505.375,178.906 499.525,182.048 497.875,183.004 C496.225,183.959 491.275,186.681 486.875,189.052 C480.449,192.514 474.84,197.145 458.375,212.586 C447.1,223.16 434.95,234.795 431.375,238.442 L424.875,245.074 L432.888,252.787 C437.295,257.029 450.87,270.101 463.054,281.837 C475.238,293.572 485.509,303.159 485.879,303.141025 C486.248,303.123 490.336,296.896 494.963,289.304 C499.59,281.712 503.799,274.825 504.317,274 C507.06,269.627 516.119,254.647 519.526,248.848 C523.473,242.131 524.185,241.439 555.379,214 C561.319,208.775 570.001,201.125 574.673,197 C582.025,190.509 586.042,188.049 604.522,178.72 C616.266,172.79 633.975,163.691 643.875,158.498 C664.032,147.926 664.221,148.728 641.875,150.037 M285.875,225.086 C284.225,225.669 281.975,226.548 280.875,227.038 C279.775,227.528 276.4,228.799 273.375,229.862 C243.723,240.279 235.227,243.946 232.836,247.359 C230.725,250.373 231.001,251 234.442,251 L237.509,251 L233.865,255.446 C231.862,257.892 228.794,260.783 227.048,261.87 C225.303,262.958 221.791,265.345 219.245,267.174 C210.586,273.393 192.887,285.907 189.496,288.208 C187.638,289.469 183.943,292.457 181.286,294.849 C176.543,299.12 176.359,299.187 171.165,298.539 C164.572,297.717 161.009,296.405 155.76,292.865 C153.497,291.339 151.13,289.957 150.499,289.795 C149.867,289.633 147.406,294 145.029,299.5 C142.652,305 139.659,311.75 138.379,314.5 C137.099,317.25 133.874,324.179 131.213,329.897 C128.552,335.616 126.375,340.446 126.375,340.631 C126.375,341.577 136.66,346 138.86,346 C140.264,346 144.666,345.159 148.643,344.132 C152.621,343.104 161.275,341.025 167.875,339.511 C174.475,337.997 183.017,335.942 186.857,334.945 C190.698,333.948 194.038,333.329 194.279,333.571 C194.521,333.813 191.604,338.502 187.797,343.992 C183.99,349.482 180.314,355.05 179.629,356.365 C177.674,360.116 173.312,362.903 151.713,374.202 C131.663,384.69 131.502,384.753 122.713,385.445 C112.612,386.241 105.714,387.776 106.998,388.942 C108.391,390.207 131.367,397.999 133.735,398.01 C134.912,398.015 137.781,399.535 140.111,401.388 C142.689,403.437 147.604,405.771 152.665,407.349 L160.981,409.942 L174.678,404.559 C182.211,401.599 188.375,399.339 188.375,399.537 C188.375,399.736 189.925,399.25 191.82,398.459 C193.715,397.667 198.932,395.681 203.413,394.045 C210.317,391.526 211.46,391.333 210.897,392.786 C210.532,393.729 209.861,396.3 209.406,398.5 C208.951,400.7 207.414,407 205.99,412.5 C204.091,419.834 203.161,426.822 202.504,438.71 L201.607,454.92 L198.262,459.143 C196.422,461.466 193.316,466.547 191.359,470.434 C188.682,475.754 185.711,479.49 179.339,485.552 C165.337,498.873 153.995,508.66 151.875,509.252 C150.775,509.56 146.5,511.048 142.375,512.559 C138.25,514.07 130.168,516.973 124.415,519.011 L113.955,522.717 L114.23,527.182 L114.504,531.648 L105.943,531.199 C96.465,530.701 94.9,531.332 93.86,536.069 C93.092,539.564 91.844,539.86 90.992,536.75 C90.493,534.929 90.197,534.776 89.444,535.948 C88.825,536.91 88.697,536.019 89.062,533.294 L89.613,529.192 L82.487,531.104 C78.568,532.155 73.452,533.68 71.118,534.493 C67.936,535.601 61.943,535.975 47.157,535.985 L27.438,536 L27.157,547.75 L26.875,559.5 L22.875,561.5 C20.675,562.6 18.732,563.568 18.558,563.65 C18.384,563.733 17.78,566.905 17.217,570.7 C16.186,577.643 16.706,580.585 22.114,598.415 C22.609,600.047 21.822,599.835 16.785,596.982 C7.497,591.721 7.381,591.63 7.258,589.509 C7.194,588.404 6.732,589.969 6.232,592.986 C5.733,596.003 4.182,601.325 2.787,604.812 L0.251,611.152 L11.416,627.826 L22.582,644.5 L36.976,644.5 C44.892,644.5 51.371,644.194 51.372,643.82 C51.374,643.445 52.277,642.995 53.381,642.82 C55.016,642.559 54.416,641.751 50.131,638.442 C47.24,636.209 43.975,632.609 42.875,630.442 C41.775,628.274 40.635,626.275 40.342,626 C38.855,624.604 33.213,614.782 30.865,609.5 C26.039,598.643 25.963,598.044 29.97,602.5 C33.097,605.977 33.482,606.173 32.915,604 C32.557,602.625 32.026,598.8 31.737,595.5 C31.234,589.766 31.393,589.223 35.321,583.25 C37.581,579.813 40.015,577 40.729,577 C41.443,577 46.867,577.487 52.783,578.082 L63.538,579.165 L70.57,575.537 C74.438,573.542 77.946,572.042 78.367,572.205 C78.787,572.367 76.711,576.3 73.753,580.944 L68.375,589.387 L68.375,598.316 C68.375,605.306 68.647,607.036 69.625,606.283 C87.394,592.608 87.749,592.144 97.01,570.5 C99.364,565 101.759,560.444 102.332,560.375 C102.906,560.306 103.825,560.194 104.375,560.125 C104.925,560.056 105.375,559.3 105.375,558.445 C105.375,557.512 107.675,555.877 111.125,554.358 C114.287,552.966 119.719,550.516 123.195,548.914 C126.671,547.311 129.677,546 129.875,546 C130.073,546 133.192,544.65 136.805,543 C140.419,541.35 146.331,538.65 149.945,537 C153.558,535.35 156.675,534 156.872,534 C157.068,534 160.524,532.489 164.552,530.643 C168.58,528.796 176.375,525.343 181.875,522.968 C187.375,520.594 192.775,518.05 193.875,517.314 C198.764,514.043 206.332,503.448 210.402,494.177 C212.739,488.855 216.441,480.675 218.629,476 C220.817,471.325 223.613,465.25 224.844,462.5 C226.612,458.549 230.102,454.75 241.478,444.391 C258.217,429.149 271.872,416.83 280.878,408.844 L287.257,403.187 L280.566,398.287 C276.886,395.592 271.039,391.388 267.573,388.944 C264.107,386.5 260.282,383.678 259.073,382.674 L256.875,380.848 L259.375,381.47 C260.75,381.812 264.35,382.794 267.375,383.653 C272.902,385.223 273.853,385.482 284.875,388.433 C295.804,391.358 301.765,393.225 312.401,397.051 C322.348,400.63 324.647,401.514 331.875,404.535 C333.525,405.225 338.25,406.992 342.375,408.463 C346.5,409.934 352.575,412.19 355.875,413.476 C364.52,416.847 390.923,426.903 397.375,429.283 C404.871,432.047 410.624,435.768 409.749,437.286 C409.363,437.954 406.071,442.55 402.433,447.5 C398.794,452.45 395.032,457.738 394.073,459.25 C392.959,461.007 391.458,462 389.919,462 C387.198,462 386.749,463.013 385.929,471 C385.435,475.818 385.722,477.12 388.25,481.5 C390.723,485.785 392.511,487.287 400.747,492 C406.033,495.025 410.361,497.862 410.366,498.305 C410.371,498.748 411.34,501.223 412.519,503.805 C413.699,506.387 416.61,513.205 418.989,518.955 C422.833,528.246 423.151,529.59 421.845,531.033 C419.509,533.614 420.033,534 425.875,534 L431.375,534 L431.599,515.5 C431.722,505.325 431.834,493.288 431.849,488.75 L431.875,480.5 L425.875,480.432 C422.122,480.39 418.564,479.68 416.375,478.536 C412.67,476.601 394.422,465.238 393.089,464.037 C392.657,463.647 396.932,463.875 402.589,464.543 C408.246,465.211 417.213,466.061 422.515,466.431 L432.155,467.105 L432.561,462.842 C432.806,460.277 432.218,456.374 431.084,453.04 C427.711,443.118 427.542,442.339 428.743,442.245 C430.63,442.099 440.369,440.215 449.505,438.23 L458.136,436.355 L458.149,461.184 C458.156,474.841 457.772,486.255 457.295,486.549 C455.775,487.489 454.247,494.479 449.435,522.5 C446.563,539.22 446.654,538.985 443.017,539.098 C438.607,539.235 451.637,541.859 457.125,541.938 C461.891,542.007 462.284,542.89 459.99,548.378 C458.585,551.741 457.937,552.164 436.375,563.787 C432.8,565.714 429.425,567.625 428.875,568.034 C427.934,568.734 412.491,577.405 393.375,587.968 C388.7,590.552 376.508,597.015 366.283,602.331 C352.696,609.395 346.285,613.344 342.474,616.999 C338.017,621.272 336.684,622 333.316,622 C331.149,622 329.375,622.409 329.375,622.909 C329.375,623.409 326.563,626.089 323.125,628.864 C317.095,633.734 307.367,641.792 293.045,653.782 C289.288,656.927 283.171,661.975 279.451,665 C275.73,668.025 268.732,673.875 263.899,678 C255.218,685.409 245.149,693.19 235.43,700 C232.682,701.925 227.609,705.566 224.155,708.092 C212.578,716.558 207.375,720.02 207.377,719.257 C207.378,718.841 210.109,711.3 213.446,702.5 C216.782,693.7 220.333,684.25 221.337,681.5 C222.341,678.75 224.096,674.357 225.238,671.737 C226.38,669.118 227.284,666.737 227.245,666.447 C227.207,666.156 228.164,663.35 229.373,660.21 C230.581,657.069 231.914,653.6 232.334,652.5 C232.754,651.4 233.835,648.797 234.736,646.716 C235.638,644.635 236.375,642.76 236.375,642.551 C236.375,642.15 215.641,653.504 206.581,658.867 C203.669,660.59 200.928,662 200.49,662 C200.051,662 197.033,664.813 193.784,668.25 C189.017,673.292 186.345,677.617 179.96,690.629 L172.045,706.759 L160.96,710.558 C154.863,712.648 145.375,715.885 139.875,717.752 C134.375,719.619 124.892,723.565 118.802,726.522 L107.729,731.898 L100.802,730.412 C96.992,729.594 92.525,728.69 90.875,728.403 C83.623,727.141 79.375,725.651 79.375,724.37 C79.375,722.666 79.867,722.619 72.518,725.031 C67.949,726.531 53.081,734.267 48.656,737.447 C48.536,737.533 49.505,740.731 50.809,744.552 C52.113,748.373 54.577,756 56.285,761.5 C57.994,767 59.74,772.044 60.166,772.709 C61.061,774.103 75.382,777.149 104.375,782.112 C132.127,786.862 126.375,787.184 167.875,778.557 C171.725,777.757 177.575,776.585 180.875,775.953 C184.175,775.321 189.575,774.209 192.875,773.481 C196.175,772.754 203.15,771.374 208.375,770.416 C217.466,768.748 222.499,766.299 226.875,761.415 C227.425,760.801 229.674,758.994 231.873,757.399 C234.072,755.805 239.175,751.8 243.214,748.5 C247.252,745.2 252.663,740.925 255.237,739 C263.298,732.972 274.293,724.004 276.441,721.705 C277.574,720.492 284.21,711.69 291.188,702.144 C313.054,672.23 316.71,667.295 322.934,659.291 C326.266,655.006 331.78,647.856 335.186,643.401 C340.67,636.23 341.97,635.112 346.531,633.638 C349.365,632.723 351.9,632.192 352.165,632.457 C352.43,632.722 352.143,635.54 351.528,638.719 C350.912,641.899 349.493,651.025 348.375,659 C347.257,666.975 345.923,675.975 345.411,679 C344.899,682.025 343.978,688.1 343.364,692.5 C341.83,703.502 339.447,718.52 338.308,724.359 L337.36,729.218 L344.561,737.359 C348.522,741.837 353.058,746.905 354.642,748.623 L357.521,751.746 L353.698,754.07 C351.595,755.349 349.612,756.775 349.29,757.24 C348.968,757.705 345.368,757.429 341.29,756.628 C337.212,755.826 332.115,754.873 329.963,754.509 C325.621,753.776 321.886,752.071 306.125,743.628 C300.213,740.461 295.4,738.237 295.43,738.685 C295.46,739.133 300.325,747.15 306.239,756.5 C314.535,769.614 317.765,773.892 320.371,775.215 C322.917,776.509 324.829,778.969 328.14,785.215 C330.556,789.772 335.133,798.225 338.312,804 C341.49,809.775 346.469,819 349.376,824.5 C352.283,830 354.985,834.95 355.381,835.5 C355.777,836.05 358.248,840.55 360.872,845.5 C363.497,850.45 366.051,854.762 366.548,855.083 C367.046,855.404 368.724,859.004 370.278,863.083 C371.832,867.162 376.089,878.184 379.739,887.575 L386.375,904.65 L386.375,922.825 C386.375,932.821 386.712,941.001 387.125,941.002 C388.319,941.005 393.371,949.517 393.417,951.605 C393.441,952.647 394.756,957.325 396.34,962 L399.22,970.5 L391.686,982.687 L384.152,994.873 L377.013,997.038 C371.787,998.624 366.058,1001.735 355.625,1008.653 L341.375,1018.102 L341.353,1026.801 L341.332,1035.5 L334.103,1040.373 L326.875,1045.247 L333.962,1044.632 C339.037,1044.191 345.283,1042.428 355.962,1038.423 C364.164,1035.346 371.775,1032.42 372.875,1031.92 C374.835,1031.03 378.588,1029.618 406.875,1019.128 C425.817,1012.103 426.292,1011.871 439.146,1003.367 C447.42,997.893 452.101,995.495 456.753,994.347 L463.09,992.783 L460.174,985.642 C458.571,981.714 456.859,977.6 456.371,976.5 C455.882,975.4 454.06,970.9 452.323,966.5 C450.585,962.1 444.936,947.955 439.769,935.066 L430.375,911.632 L430.375,851.682 C430.375,817.497 429.971,790.178 429.435,788.116 C427.725,781.539 425.633,772.585 424.383,766.5 C423.705,763.2 422.586,758.25 421.896,755.5 C421.206,752.75 420.059,747.909 419.347,744.743 C418.067,739.052 417.963,738.928 410.275,733.997 C405.998,731.253 402.292,728.669 402.039,728.254 C401.787,727.839 405.135,723.45 409.478,718.5 C413.821,713.55 419.934,706.421 423.062,702.658 L428.75,695.815 L427.608,689.658 C426.98,686.271 425.28,678.1 423.831,671.5 C418.985,649.434 418.924,648.637 421.325,638.544 C422.509,633.57 423.875,627.7 424.361,625.5 C426.727,614.803 428.705,606.261 429.34,604 C429.905,601.985 431.692,600.862 438.546,598.212 L447.051,594.923 L453.876,580.712 C457.63,572.895 463.351,560.735 466.589,553.69 C475.006,535.377 476.553,532.948 487.956,520.14 C488.975,518.995 490.33,519.029 496.521,520.354 C500.566,521.219 505.86,522.281 508.285,522.714 L512.695,523.5 L515.066,535 C517.532,546.956 517.525,547.681 514.847,560 C513.95,564.125 512.823,569.75 512.342,572.5 C511.861,575.25 510.736,580.875 509.842,585 C508.948,589.125 507.821,594.75 507.338,597.5 C506.856,600.25 505.072,609.025 503.375,617 C501.678,624.975 499.878,633.75 499.376,636.5 C498.873,639.25 497.945,644.313 497.312,647.75 C496.679,651.188 495.763,654 495.277,654 C493.994,654 494.287,672.552 495.924,695 C496.707,705.725 497.353,719.069 497.361,724.654 L497.375,734.808 L488.875,752.529 C484.2,762.276 480.375,770.635 480.375,771.105 C480.375,771.972 496.109,771.565 506.625,770.426 C513.048,769.731 513.228,769.963 510.736,775.716 C506.005,786.641 504.101,792.785 504.613,795.466 L505.098,798 L481.131,798 C464.32,798 455.478,797.593 451.519,796.637 C442.648,794.494 432.325,792.717 431.799,793.243 C431.535,793.506 433.266,795.922 435.644,798.611 C439.884,803.404 449.579,815.04 456.233,823.321 C458.08,825.619 474.393,857.089 492.486,893.253 C510.578,929.417 526.28,959.905 527.378,961.003 C529.129,962.754 529.375,964.339 529.375,973.866 C529.375,981.642 530.057,987.826 531.774,995.616 C533.093,1001.602 534.477,1009.425 534.849,1013 C535.222,1016.575 536.2,1020.247 537.024,1021.16 C538.758,1023.081 538.38,1023.312 507.924,1038.988 C490.292,1048.063 486.567,1050.643 468.921,1066 C466.077,1068.475 458.647,1074.775 452.411,1080 C439.461,1090.851 425.349,1102.814 423.875,1104.191 C423.325,1104.705 424.225,1104.615 425.875,1103.99 C427.525,1103.365 445.3,1099.133 465.375,1094.585 L501.875,1086.315 L528.875,1072.803 C544.247,1065.111 559.536,1058.177 564.375,1056.705 C574.65,1053.579 584.512,1050.698 585.875,1050.426 C586.425,1050.316 589.848,1048.799 593.481,1047.055 L600.088,1043.885 L585.806,1000.692 C571.008,955.94 570.841,955.269 567.344,926.5 C566.742,921.55 565.631,913.675 564.875,909 C564.119,904.325 563.001,896.45 562.391,891.5 C561.78,886.55 560.653,878.225 559.884,873 C559.116,867.775 557.995,859.675 557.394,855 C556.793,850.325 555.653,842.703 554.86,838.061 C553.524,830.237 553.543,827.835 554.931,829.223 C555.237,829.529 556.997,834.216 558.841,839.64 C568.987,869.467 569.146,869.773 581.83,884.055 C584.055,886.56 589.089,892.41 593.018,897.055 C611.203,918.556 624.254,933.647 626.016,935.209 C627.076,936.15 630.535,938.065 633.703,939.466 C636.871,940.868 644.731,944.537 651.169,947.621 C657.607,950.705 667.364,955.246 672.85,957.713 C684.93,963.143 698.533,969.467 703.625,972.019 C705.688,973.053 707.375,973.498 707.375,973.009 C707.375,972.519 706.89,971.818 706.297,971.452 C705.705,971.086 703.792,968.633 702.047,966.003 C697.374,958.956 682.715,938.494 681.189,936.887 C680.464,936.124 678.522,933.521 676.873,931.103 C675.224,928.684 672.975,925.48 671.875,923.981 C667.197,917.609 660.705,908.492 658.497,905.194 C657.189,903.24 655.282,900.743 654.259,899.645 C653.235,898.546 652.132,896.81 651.807,895.786 C651.396,894.491 656.335,885.654 668.057,866.713 L684.897,839.5 L692.386,838.863 C696.505,838.513 705.275,837.733 711.875,837.129 C718.475,836.525 740.918,836.025 761.748,836.016 L799.622,836 L770.933,816.917 C755.154,806.421 740.361,797.233 738.059,796.499 C735.758,795.765 731.4,794.47 728.375,793.622 C725.35,792.773 719.05,790.988 714.375,789.654 C709.7,788.32 700.566,785.789 694.077,784.029 L682.278,780.831 L674.577,783.351 C670.341,784.738 663.5,787.077 659.375,788.549 C647.864,792.658 614.924,804 614.502,804 C613.852,804 637.22,779.025 650.292,765.75 C657.197,758.737 663.156,753 663.536,753 C663.915,753 668.981,750.3 674.794,747 C680.607,743.7 685.548,741 685.776,741 C686.003,741 691.035,738.3 696.957,735 C702.88,731.7 708.07,729 708.491,729 C708.912,729 709.509,728.592 709.817,728.093 C710.126,727.595 709.59,727.333 708.626,727.513 C703.005,728.561 688.077,731.232 683.375,732.031 C680.35,732.546 674.275,733.617 669.875,734.411 C665.475,735.206 658.725,736.393 654.875,737.049 C648.963,738.056 623.356,746.827 612.75,751.478 L609.625,752.849 L608.536,742.174 C607.937,736.303 606.962,725.2 606.369,717.5 C603.59,681.398 603.441,680.427 594.796,642.5 C594.044,639.2 592.514,632.065 591.396,626.644 C590.277,621.224 589.177,616.489 588.951,616.123 C588.725,615.757 588.241,613.452 587.875,611 C587.509,608.548 587.045,606.275 586.843,605.948 C586.498,605.389 583.636,592.883 582.851,588.5 C582.654,587.4 581.782,583.35 580.915,579.5 C580.047,575.65 578.913,570.475 578.394,568 C577.876,565.525 576.984,561.928 576.413,560.007 C574.513,553.613 575.1,550.601 579.164,545.891 C583.213,541.198 588.948,533.982 604.875,513.539 C610.375,506.48 615.55,499.885 616.375,498.884 C617.2,497.883 626.65,493.859 637.375,489.942 C648.1,486.026 659.652,481.736 663.046,480.41 C669.784,477.778 674.887,477.444 683.958,479.042 C687.212,479.616 693.475,480.727 697.875,481.512 C702.275,482.296 709.25,483.439 713.375,484.05 C717.5,484.662 724.025,485.765 727.875,486.502 C731.725,487.24 736.899,488.126 739.372,488.473 L743.869,489.103 L735.872,483.289 C731.474,480.091 726.75,476.706 725.375,475.766 C724,474.825 720.625,472.443 717.875,470.472 C715.125,468.501 711.3,465.79 709.375,464.448 C707.45,463.106 704.489,460.993 702.794,459.754 C701.1,458.514 697.101,455.7 693.909,453.5 C690.717,451.3 686.892,448.6 685.409,447.5 C683.926,446.4 680.184,443.813 677.092,441.75 L671.471,438 L633.576,438 C593.351,438 549.247,436.412 548.332,434.93 C548.029,434.44 546.988,428.743 546.018,422.27 C545.048,415.796 543.643,407.35 542.897,403.5 C542.15,399.65 540.991,393.125 540.32,389 C539.649,384.875 538.487,378.433 537.738,374.685 C536.988,370.936 536.375,366.708 536.375,365.288 C536.375,363.649 534.824,361.008 532.125,358.05 C529.788,355.489 524.725,349.643 520.875,345.06 C517.025,340.477 511.85,334.396 509.375,331.549 C504.173,325.562 492.424,311.613 489.625,308.099 C487.717,305.705 487.71,305.748 486.661,325.099 L485.61,344.5 L491.071,350.257 C495.709,355.148 496.441,356.428 495.934,358.757 C495.605,360.266 495.119,363.3 494.852,365.5 C494.586,367.7 493.962,371.75 493.466,374.5 C492.97,377.25 492.052,382.875 491.425,387 C490.294,394.449 487.435,406.082 485.457,411.284 C484.476,413.865 484.087,414.002 477.65,414.031 C473.924,414.048 467.5,414.511 463.375,415.06 C459.25,415.608 450.25,416.474 443.375,416.983 C436.5,417.492 428.397,418.203 425.368,418.563 L419.861,419.218 L406.868,404.432 C399.722,396.299 391.817,387.362 389.302,384.573 C386.787,381.783 383.69,377.025 382.421,374 C381.151,370.975 378.653,365.35 376.87,361.5 C368.807,344.094 367.283,340.58 367.086,338.934 C366.951,337.813 370.544,333.979 377.018,328.338 C405.985,303.098 405.516,303.563 402.779,302.823 C401.402,302.451 392.535,301.178 383.075,299.996 C373.615,298.813 363.676,297.43 360.989,296.922 C358.301,296.415 354.194,296 351.861,296 C347.002,296 346.292,295.358 343.561,288.5 C341.357,282.966 335.536,268.77 331.67,259.5 C330.293,256.2 327.832,250.125 326.199,246 C324.567,241.875 322.617,237.15 321.866,235.5 C321.115,233.85 319.82,230.813 318.989,228.75 L317.477,225 L310.577,225 C306.782,225 300.346,224.781 296.276,224.513 C292.205,224.246 287.525,224.504 285.875,225.086 M152.508,394.069 C145.156,395.627 138.94,397.102 138.694,397.348 C138.448,397.593 141.416,398.775 145.288,399.973 L152.328,402.152 L159.852,396.951 C163.989,394.091 167.375,391.581 167.375,391.375 C167.375,390.895 168.127,390.759 152.508,394.069 M166.875,609.968 C158.075,610.279 150.2,610.85 149.375,611.238 C148.55,611.625 146.75,612.131 145.375,612.362 C140.805,613.131 121.884,617.197 121.338,617.528 C121.043,617.708 118.568,621.149 115.838,625.177 C113.109,629.205 110.605,632.725 110.274,633 C108.216,634.714 104.489,642.327 103.421,647 C101.218,656.641 99.55,664.33 98.324,670.5 C97.668,673.8 96.749,678.05 96.28,679.944 C95.812,681.838 95.619,683.577 95.85,683.809 C96.082,684.041 99.558,683.106 103.573,681.732 C107.589,680.358 115.6,677.744 121.375,675.922 C131.825,672.626 137.365,670.293 157.375,660.765 C163.15,658.015 171.475,654.224 175.875,652.341 C180.275,650.459 184.55,648.554 185.375,648.109 C186.2,647.665 194.662,643.071 204.18,637.9 C213.698,632.73 223.936,627.27 226.93,625.767 C229.925,624.264 232.373,622.689 232.370003,622.267 C232.367,621.845 227.53,619.976 221.62,618.114 C215.71,616.251 206.964,613.439 202.184,611.864 C196.291,609.922 191.784,609.065 188.184,609.201 C185.264,609.312 175.675,609.657 166.875,609.968 M199.375,721.963 C197.45,722.382 192.5,723.271 188.375,723.94 C184.25,724.608 179.022,725.562 176.758,726.058 C174.494,726.555 170.444,727.215 167.758,727.524 C161.897,728.198 157.117,729 134.875,733.039 C119.46,735.838 114.9,736.213 85.966,737.056 C68.416,737.567 53.895,738.147 53.697,738.344 C53.499,738.542 59.533,740.16 67.106,741.939 C74.679,743.718 82.9,745.758 85.375,746.473 C87.85,747.188 92.575,748.322 95.875,748.995 C99.175,749.667 103.868,750.843 106.303,751.609 C113.323,753.815 117.159,753.346 127.875,748.972 C128.975,748.523 137.75,745.395 147.375,742.02 C157,738.646 166.45,735.274 168.375,734.528 C170.3,733.782 176.6,731.53 182.375,729.525 C203.721,722.114 208.548,719.966 199.375,721.963 M525.99,760.938 C523.495,768.567 523.76,769.469 529.357,772.395 C535.417,775.564 535.674,775.581 534.873,772.75 C533.11,766.522 529.017,756 528.356,756 C527.943,756 526.878,758.222 525.99,760.938 M475.406,768.5 C475.406,769.05 475.842,770.175 476.375,771 C476.908,771.825 477.344,772.05 477.344,771.5 C477.344,770.95 476.908,769.825 476.375,769 C475.842,768.175 475.406,767.95 475.406,768.5 M507.644,797.693 C508.617,797.947 509.967,797.93 510.644,797.656 C511.321,797.382 510.525,797.175 508.875,797.195 C507.225,797.215 506.671,797.439 507.644,797.693 M292.875,1005.833 C289.025,1007.913 279.35,1013.145 271.375,1017.46 C263.4,1021.775 253.95,1026.855 250.375,1028.749 C246.8,1030.642 243.448,1032.598 242.925,1033.096 C241.507,1034.446 247.983,1034.211 259.38,1032.499 C264.875,1031.674 269.709,1031.082 270.123,1031.185 C270.537,1031.287 274.25,1030.979 278.375,1030.5 C282.5,1030.021 286.1,1029.674 286.375,1029.729 C286.65,1029.784 290.161,1023.567 294.177,1015.914 C298.193,1008.261 301.118,1002.012 300.677,1002.02598 C300.236,1002.041 296.725,1003.754 292.875,1005.833 M415.875,1072.698 L382.875,1089.15 L389.375,1088.542 C399.538,1087.591 412.923,1086.143 424.287,1084.763 L434.699,1083.5 L442.095,1070.142 C446.164,1062.795 449.353,1056.663 449.184,1056.515 C449.014,1056.367 434.025,1063.65 415.875,1072.698"/><path fill-opacity=".443" d="M307.931,4.5 C308.298,6.15 309.492,10.875 310.584,15 C311.676,19.125 312.968,24.443 313.455,26.817 C313.941,29.191 314.553,31.479 314.814,31.901 C317.237,35.821 317.316,48.429 314.996,60.793 C314.097,65.582 312.419,75.35 311.265,82.5 C308.881,97.286 310.297,94.445 290.771,123.604 C282.999,135.211 276.467,145.112 276.257,145.607 C275.712,146.891 247.472,189.02 245.236,191.885 C242.847,194.947 242.869,196.296 245.295,195.525 C246.351,195.19 248.079,194.75 249.134,194.546 C250.189,194.343 252.812,193.684 254.964,193.082 C257.115,192.48 267.425,189.969 277.875,187.503 C288.325,185.037 299.165,182.339 301.963,181.509 C304.761,180.679 308.003,180 309.168,180 C310.836,180 311.416,179.206 311.907,176.25 C312.249,174.188 312.976,171.15 313.523,169.5 C314.069,167.85 316.03,160.65 317.882,153.5 C319.733,146.35 322.449,136 323.918,130.5 C325.386,125 326.95,118.925 327.392,117 C327.834,115.075 328.986,110.575 329.951,107 C331.558,101.047 331.606,98.565 330.526,77.5 C329.877,64.85 329.338,48.875 329.328,42 L329.309,29.5 L321.76,20 C317.607,14.775 313.45,9.6 312.521,8.5 C311.592,7.4 310.029,5.375 309.047,4 L307.263,1.5 L307.931,4.5 M493.875,115.133 C482.228,116.567 462.47,118.888 451.875,120.066 C443.394,121.01 435.55,123.09 425.875,126.96 C418.337,129.976 414.039,131.607 399.375,137.016 C375.877,145.683 375.355,145.918 353.875,157.536 C341.659,164.144 323.483,173.778 317.625,176.752 C314.738,178.217 312.375,179.734 312.375,180.121 C312.375,180.509 318.45,191.737 325.875,205.074 C333.3,218.41 339.375,229.699 339.375,230.161 C339.375,232.9 344.662,228.215 369.869,203.14 L397.875,175.281 L418.375,162.545 C429.65,155.54 440.225,148.84 441.875,147.655 C443.525,146.47 459.05,138.441 476.375,129.812 C509.651,113.24 509.72,113.183 493.875,115.133 M644.875,150.076 C639.375,150.513 626.775,151.364 616.875,151.968 C606.975,152.572 590.55,153.729 580.375,154.54 C570.2,155.35 559.013,156.01 555.516,156.006 C549.563,156 548.283,156.458 535.516,163.146 C528.013,167.077 518.05,172.407 513.375,174.992 C508.7,177.577 499.475,182.527 492.875,185.991 C486.275,189.455 480.099,192.821 479.151,193.471 C478.203,194.12 468.763,202.943 458.174,213.076 C447.585,223.209 435.848,234.43 432.093,238.01 L425.265,244.521 L455.36,273.51 C471.912,289.455 485.775,302.593 486.165,302.706 C486.556,302.82 489.161,298.995 491.955,294.206 C494.749,289.418 501.45,278.3 506.846,269.5 C512.243,260.7 518.146,250.988 519.966,247.918 C521.86,244.721 526.608,239.381 531.075,235.425 C535.365,231.624 540.9,226.66 543.375,224.394 C545.85,222.128 550.9,217.624 554.597,214.387 C558.294,211.149 565.944,204.43 571.597,199.455 C582.63,189.746 589.251,186.019 654.375,152.865 C662.9,148.525 663.227,148.62 644.875,150.076 M231.075,259.764 C221.367,271.207 217.315,274.778 205.053,282.7 C199.455,286.317 191.206,291.689 186.721,294.638 C181.556,298.034 177.523,299.987 175.721,299.964 C170.26,299.896 161.831,297.246 155.881,293.728 L149.887,290.184 L147.488,295.342 C143.957,302.935 139.957,311.704 136.927,318.5 C135.455,321.8 132.527,328.1 130.419,332.5 L126.588,340.5 L132.059,343.305 L137.531,346.111 L146.203,344.03 C150.973,342.885 157.125,341.436 159.875,340.81 C162.625,340.184 170.888,338.171 178.238,336.336 C185.588,334.501 192.424,333 193.43,333 C194.607,333 198.74,328.367 205.027,320 C210.4,312.85 215.039,307.004 215.335,307.01 C215.632,307.015 218.761,311.628 222.287,317.26 C240.102,345.709 238.519,343.634 244.372,346.19 L249.221,348.307 L244.548,353.39 C223.768,375.99 211.797,385.368 189.985,396.133 C184.162,399.006 179.52,401.478 179.667,401.626 C179.948,401.907 202.394,393.673 205.875,392.012 C206.975,391.487 210.8,389.975 214.375,388.652 C217.95,387.33 227.334,383.042 235.229,379.124 C243.124,375.206 249.756,372 249.966,372 C250.177,372 251.439,373.726 252.771,375.835 C254.969,379.317 255.96,379.88 263.533,381.955 C268.121,383.212 273.225,384.623 274.875,385.092 C281.218,386.894 288.053,388.803 292.375,389.979 C298.815,391.732 311.357,395.902 314.875,397.46 C316.525,398.191 321.25,399.992 325.375,401.463 C329.5,402.934 335.575,405.19 338.875,406.477 C342.175,407.764 354.1,412.262 365.375,416.472 C376.65,420.682 386.775,424.538 387.875,425.042 C388.975,425.545 393.321,427.261 397.532,428.855 C401.743,430.449 409.006,434.059 413.671,436.877 C418.336,439.695 422.505,442 422.935,442 C423.365,442 424.54,442.745 425.546,443.655 C428.103,445.969 427.914,444.962 423.249,431.451 C419.626,420.955 418.439,418.729 413.499,413.163 C408.002,406.97 405.314,403.852 390.74,386.761 C386.815,382.159 382.601,376.168 381.375,373.447 C380.149,370.726 375.872,361.3 371.872,352.5 C367.872,343.7 363.46,333.8 362.068,330.5 C360.677,327.2 357.675,320.515 355.398,315.646 C353.121,310.776 350.143,304.272 348.782,301.193 L346.306,295.595 L332.341,309.534 C324.66,317.201 318.375,322.841 318.375,322.067 C318.375,321.014 310.298,303.515 308.708,301.126 C308.572,300.92 307.056,301.932 305.341,303.376 C303.625,304.819 301.77,306 301.219,306 C300.667,306 297.327,307.125 293.796,308.5 C290.264,309.875 284.337,312.14 280.625,313.533 C276.913,314.927 273.094,316.502 272.139,317.033 C268.55,319.031 267.384,318.284 268.572,314.75 C269.173,312.962 269.974,311.05 270.351,310.5 C270.729,309.95 272.063,306.575 273.316,303 C275.594,296.501 277.873,290.798 279.298,288.03 C280.097,286.479 276.476,282.82 262.875,271.432 C259.025,268.209 252.28,262.293 247.887,258.286 C243.493,254.279 239.586,251 239.204,251 C238.823,251 235.165,254.944 231.075,259.764 M297.236,343.059 L294.875,345.119 L297.625,343.444 C299.137,342.523 300.375,341.597 300.375,341.385 C300.375,340.604 299.54,341.05 297.236,343.059 M197.919,378.928 C197.604,379.439 194.196,381.308 190.348,383.082 C186.499,384.856 183.484,386.442 183.647,386.606 C183.811,386.77 187.304,386.214 191.41,385.37 C198.243,383.967 203.375,381.16 203.375,378.826 C203.375,377.69 198.629,377.779 197.919,378.928 M270.894,399.555 C268.154,401.45 264.891,403 263.644,403 C262.396,403 261.397,403.337 261.424,403.75 C261.452,404.163 263.158,407.789 265.217,411.808 L268.959,419.117 L277.667,411.483 C282.456,407.285 286.375,403.701 286.375,403.519 C286.375,403.149 276.512,395.968 276.123,396.055 C275.986,396.085 273.633,397.66 270.894,399.555 M175.882,402.989 C175.532,403.555 175.933,403.723 176.823,403.382 C178.555,402.717 178.872,402 177.434,402 C176.916,402 176.218,402.445 175.882,402.989 M548.806,439.623 C549.079,441.755 549.86,447.325 550.542,452 C551.224,456.675 551.697,460.819 551.592,461.21 C551.487,461.6 552.021,465.425 552.777,469.71 C553.533,473.994 554.691,482 555.349,487.5 C556.008,493 557.181,501.325 557.957,506 C558.734,510.675 559.394,515.85 559.424,517.5 C559.455,519.164 562.925,527.32 567.217,535.815 L574.953,551.13 L579.914,544.91 C585.74,537.605 588.286,534.344 594.375,526.383 C596.85,523.147 599.378,519.964 599.994,519.31 C600.609,518.655 604.832,513.393 609.378,507.615 C613.925,501.838 618.371,496.819 619.26,496.462 C620.148,496.105 632.35,491.55 646.375,486.339 L671.875,476.864 L679.375,478.01 C683.5,478.64 690.25,479.769 694.375,480.519 C715.834,484.418 720.492,485.202 735.875,487.507 C738.075,487.837 740.775,488.342 741.875,488.631 C743.223,488.984 742.898,488.478 740.875,487.078 C737.439,484.698 729.505,479.131 724.375,475.499 C722.45,474.136 717.215,470.429 712.741,467.261 C708.267,464.092 698.655,457.225 691.382,452 C684.108,446.775 676.741,441.551 675.011,440.39 C671.941,438.332 670.577,438.265 618.87,437.639 C589.723,437.286 561.923,436.716 557.093,436.372 L548.311,435.746 L548.806,439.623 M386.48,468.421 C385.315,473.629 385.386,474.079 388.284,479.821 C391.117,485.432 391.902,486.147 401.089,491.486 L410.875,497.174 L413.498,503.837 C423.002,527.984 425.876,533.971 427.969,533.98618 C429.968,533.999 430.094,533.346 430.716,519.75 C431.074,511.913 431.369,499.988 431.371,493.25 L431.375,481 L425.586,481 C419.11,481 418.566,480.759 401.063,470.156 C394.566,466.22 388.9,463 388.472,463 C388.044,463 387.147,465.44 386.48,468.421 M511.212,493.778 C504.269,501.134 490.172,518.13 490.632,518.59 C490.891,518.849 493.526,519.473 496.489,519.976 C499.451,520.48 506.825,521.829 512.875,522.973 C518.925,524.118 528.15,525.744 533.375,526.588 C538.6,527.432 545.667,528.769 549.081,529.561 C552.494,530.352 556.457,531 557.887,531 C560.251,531 560.366,530.825 559.146,529.083 C558.407,528.028 552.869,523.034 546.839,517.983 C540.809,512.933 533.625,506.672 530.875,504.07 C528.125,501.468 523.366,497.251 520.3,494.698 L514.726,490.057 L511.212,493.778 M76.774,554.428 C75.069,555.17 70.682,556.788 67.024,558.024 L60.375,560.27 L60.375,569.166 C60.375,581.369 61.204,581.505 74.522,571.496 C80.849,566.741 81.2,566.257 81.819,561.453 C82.442,556.611 81.877,552.956 80.518,553.039 C80.164,553.061 78.48,553.686 76.774,554.428 M557.879,612.75 C557.539,615.362 556.83,619.525 556.304,622 C551.751,643.419 550.006,656.505 549.704,671.5 L549.381,687.5 L554.282,673.101 L559.183,658.701 L559.171,633.351 C559.165,619.408 559.011,608 558.829,608 C558.647,608 558.219,610.138 557.879,612.75 M548.375,689.753 C548.375,690.937 547.966,692.94 547.467,694.203 C546.968,695.466 545.575,699.875 544.372,704 C541.92,712.411 534.163,737.363 531.176,746.447 C530.101,749.718 529.205,753.093 529.185806,753.947 C529.166,754.801 530.692,759.775 532.575,765 L536.001,774.5 L542.031,777.5 L548.061,780.5 L548.765,787.5 C550.326,803.044 553.392,824.175 554.568,827.5 C555.152,829.15 556.946,834.1 558.556,838.5 C560.166,842.9 562.332,848.975 563.37,852 C569.547,870.006 569.834,870.455 588.92,891.945 C591.145,894.45 594.949,898.975 597.373,902 C599.797,905.025 603.827,909.793 606.328,912.596 C608.829,915.399 614.344,921.699 618.585,926.596 C623.389,932.144 627.912,936.31 630.585,937.648 C637.867,941.294 656.381,950 656.853,950 C657.208,950 674.581,958.134 677.625,959.726 C678.038,959.942 678.375,959.869 678.375,959.565 C678.375,959.261 671.161,955.4 662.344,950.985 L646.314,942.958 L624.855,910.596 C601.861,875.92 602.207,876.605 591.903,845.5 C591.174,843.3 588.081,834.3 585.03,825.5 C562.829,761.478 563.726,764.451 559.836,742 C558.288,733.071 554.462,712.378 551.699,698 C550.103,689.688 548.375,685.403 548.375,689.753 M700.875,729.081 C686.042,731.547 657.457,736.764 649.499,738.456 C645.443,739.319 640.718,740.675 638.999,741.469 C636.484,742.632 618.358,749.675 611.28,752.24 C609.936,752.727 609.813,753.737 610.497,758.659 C610.944,761.872 611.766,770.8 612.325,778.5 C612.883,786.2 613.639,794.67 614.003,797.322 L614.667,802.144 L620.123,796.822 C623.124,793.895 633.342,783.175 642.829,773 C658.299,756.41 660.869,754.087 667.722,750.5 C671.924,748.3 676.156,746.05 677.126,745.5 C680.477,743.599 696.895,734.664 702.364,731.765 C710.33,727.542 710.313,727.512 700.875,729.081 M296.375,739.606 C296.375,739.846 297.576,741.946 299.045,744.271 C302.48,749.713 304.827,753.461 311.711,764.5 C317.176,773.265 317.487,773.562 323.599,775.877 C327.051,777.184 331.225,778.825 332.875,779.523 C334.525,780.221 338.575,781.849 341.875,783.142 C347.877,785.493 350.471,786.908 366.375,796.502 C382.378,806.157 380.869,805.782 391.044,802.639 C395.901,801.139 400.775,799.712 401.875,799.469 C402.975,799.226 405,798.618 406.375,798.118 C407.75,797.618 413.724,795.724 419.651,793.909 C428.373,791.238 430.089,790.413 428.651,789.579 C426.7,788.447 399.413,776.284 389.875,772.294 C386.575,770.913 380.118,768.032 375.526,765.892 C370.934,763.751 366.274,762 365.17,762 C364.067,762 360.624,761.386 357.519,760.635 C354.415,759.884 346.25,758.27 339.375,757.049 C326.394,754.742 323.691,753.717 306.625,744.628 C300.988,741.626 296.375,739.366 296.375,739.606 M672.875,784.026 C668.475,785.568 657,789.592 647.375,792.967 C637.75,796.342 626.424,800.239 622.207,801.626 L614.539,804.148 L616.021,807.824 C616.836,809.846 618.374,813.408 619.439,815.739 C620.504,818.071 621.375,820.253 621.375,820.588 C621.375,820.923 622.021,822.616 622.81,824.349 C623.599,826.082 627.44,835.375 631.345,845 C635.251,854.625 639.555,865.031 640.91,868.125 C642.266,871.219 643.375,874.06 643.375,874.439 C643.375,874.818 644.435,877.462 645.73,880.314 C647.026,883.166 648.636,887.188 649.308,889.25 C649.98,891.313 650.862,893 651.267,893 C651.673,893 652.781,891.538 653.731,889.75 C657.135,883.341 682.063,843.238 684.189,840.75 C685.273,839.482 687.227,838.988 691.28,838.956 C694.357,838.932 698.9,838.424 701.375,837.827 C704.057,837.18 724.584,836.491 752.192,836.121 L798.508,835.5 L769.584,816.291 C742.392,798.233 740.128,796.938 731.768,794.662 C726.877,793.33 719.275,791.253 714.875,790.046 C710.475,788.838 704.625,787.237 701.875,786.488 C699.125,785.739 693.618,784.198 689.638,783.063 C685.657,781.928 682.057,781.05 681.638,781.111 C681.218,781.172 677.275,782.483 672.875,784.026 M436.8,799.577 C439.973,803.385 443.763,807.869 445.222,809.543 C446.681,811.217 450.422,815.755 453.534,819.628 C459.114,826.569 459.326,826.713 468.534,829.768 L477.875,832.867 L494.871,815.934 L511.868,799 L486.064,799 C471.872,799 458.374,798.573 456.068,798.052 C453.762,797.531 447.825,796.348 442.875,795.424 C437.925,794.5 433.235,793.499 432.453,793.199 C431.67,792.899 433.626,795.769 436.8,799.577 M294.375,1005.621 C289.153,1008.49 275.732,1015.776 266.375,1020.822 C239.735,1035.188 241.406,1034.122 246.375,1033.579 C248.85,1033.308 256.05,1032.594 262.375,1031.992 C274.784,1030.812 286.467,1029.287 286.831,1028.802 C288.514,1026.551 300.267,1003.02 299.681,1003.07391 C299.238,1003.115 296.85,1004.261 294.375,1005.621 M416.375,1073.144 C399.05,1081.905 386.004,1088.85 387.384,1088.578 C388.764,1088.306 395.064,1087.582 401.384,1086.97 C407.704,1086.357 416.925,1085.451 421.875,1084.955 C426.825,1084.46 431.586,1084.042 432.456,1084.027 C433.326,1084.012 434.658,1082.763 435.416,1081.25 C436.174,1079.737 439.437,1073.849 442.665,1068.164 C445.894,1062.479 448.387,1057.689 448.205,1057.521 C448.024,1057.352 433.7,1064.382 416.375,1073.144"/></g></svg>