<svg xmlns="http://www.w3.org/2000/svg" width="799.694" height="916.989" viewBox="0 0 799.694 916.989"><g fill="#ABABAB" fill-rule="evenodd"><path fill-opacity=".376" d="M341.014001,0.413 C340.785001,0.64 334.297001,1.585 326.597001,2.512 C311.182001,4.368 295.253001,6.303 281.898001,7.942 C273.999001,8.912 271.278001,9.917 252.295001,18.883 C240.798001,24.313 222.896001,33.606 212.514001,39.534 C197.764001,47.956 190.583001,51.377 179.674001,55.182 C171.995001,57.86 165.573001,60.191 165.402001,60.361 C165.232001,60.532 163.953001,66.033 162.559001,72.585 C161.166001,79.138 158.961001,89.45 157.659001,95.5 C156.358001,101.55 155.5,106.836 155.752001,107.247 C156.005001,107.658 158.658001,109.192 161.648001,110.656 L167.084001,113.318 L162.252001,122.409 C151.456001,142.724 144.524001,154.863 139.093001,162.964 C135.945001,167.659 129.934001,177.009 125.734001,183.742 L118.097001,195.985 L118.097001,205.45 L118.097001,214.915 L125.347001,217.03 C129.335001,218.193 135.911001,220.237 139.961001,221.572 C147.572001,224.081 151.156001,224.443 154.597001,223.049 C155.864001,222.536 157.147001,222.71 158.097001,223.525 C159.643001,224.851 173.660001,230.431 178.097001,231.487 C179.741001,231.879 185.631001,230.356 195.294001,227.041 C203.378001,224.269 210.400001,222 210.900001,222 C211.765001,222 211.366001,224.82 207.647001,245 C206.785001,249.675 205.797001,255.3 205.450001,257.5 C204.908001,260.936 203.691001,262.486 196.814001,268.5 C186.827001,277.233 181.857001,281.664 171.097001,291.425 C166.422001,295.666 158.997001,301.507 154.597001,304.404 C137.932001,315.377 131.565001,319.516 130.597001,320.004 C130.047001,320.281 127.122001,322.125 124.097001,324.1 C121.072001,326.076 109.935001,331.392 99.3480006,335.913 L80.0990006,344.133 L52.9520006,343.012 C38.0220006,342.396 25.4740006,342.254 25.0680006,342.696 C22.7170006,345.262 15.3110006,369.362 13.1450006,381.5 C9.74700063,400.541 8.90400063,403.413 4.52100063,410.9 C-2.32299937,422.593 -2.09899937,423.74 10.0820006,439.282 C15.5730006,446.29 20.8120006,453.162 21.7250006,454.555 C23.2740006,456.918 23.8890006,457.078 30.9900006,456.961 C35.5440006,456.886 40.8050006,457.5 44.0970006,458.491 C58.9470006,462.959 59.6140006,462.939 56.1780006,458.114 L54.0400006,455.112 L58.8190006,454.806 L63.5970006,454.5 L53.9820006,448 C43.3120006,440.787 39.5800006,436.466 38.8630006,430.5 C38.5990006,428.3 37.8040006,422.176 37.0970006,416.892 L35.8110006,407.283 L41.1340006,400.642 L46.4560006,394 L59.1670006,394 L71.8780006,394 L79.7370006,390.104 C84.0600006,387.962 87.7530006,386.355 87.9440006,386.534 C88.1340006,386.713 85.5920006,391.054 82.2940006,396.18 C77.7100006,403.306 75.7940006,407.472 74.1580006,413.877 C72.9810006,418.484 72.2170006,422.454 72.4620006,422.698 C73.0320006,423.269 97.2290006,412.169 98.7290006,410.648 C99.3520006,410.017 101.319001,405.793 103.101001,401.262 C106.473001,392.688 113.351001,379.89 116.422001,376.476 C117.400001,375.389 118.964001,373.525 119.899001,372.333 C120.966001,370.972 135.719001,364.159 159.597001,354.001 C180.497001,345.11 198.947001,337.231 200.597001,336.494 C208.808001,332.823 218.009001,329 218.633001,329 C219.018001,329 220.791001,327.763 222.572001,326.25 C227.189001,322.331 229.154001,320.786 232.894001,318.134 C235.491001,316.293 238.706001,310.778 248.042001,292.149 C259.351001,269.584 260.139001,268.317 265.233001,264.5 C268.169001,262.3 273.963001,257.8 278.108001,254.5 C285.314001,248.763 296.867001,239.674 314.934001,225.528 C319.520001,221.938 323.633001,219 324.075001,219 C324.517001,219 338.765001,228.288 355.738001,239.64 L386.597001,260.28 L410.524001,267.15 C423.684001,270.929 434.669001,274.238 434.934001,274.504 C436.232001,275.802 430.630001,287.957 403.174001,343.423 L373.435001,403.5 L367.967001,406.75 C362.603001,409.939 362.274001,409.999 350.548001,409.962 C330.672001,409.9 302.367001,407.369 296.097001,405.094 C293.072001,403.996 279.424001,399.306 265.767001,394.671 L240.937001,386.244 L198.032001,400.487 C174.434001,408.321 154.374001,415.354 153.455001,416.115 C152.536001,416.877 148.346001,421.775 144.145001,427 C139.944001,432.225 131.844001,442.259 126.145001,449.299 C114.839001,463.264 115.933001,460.673 112.540001,481.5 C109.601001,499.536 108.796001,506.032 109.421001,506.658 C110.375001,507.612 146.437001,494.69 163.597001,487.245 C171.847001,483.666 184.207001,478.3 191.063001,475.321 C202.893001,470.18 203.760001,469.955 208.063001,470.913 C210.557001,471.468 215.747001,472.409 219.597001,473.004 C223.447001,473.6 228.351001,474.405 230.495001,474.794 L234.392001,475.501 L230.400001,479 C228.204001,480.925 222.881001,485.425 218.570001,489 C211.435001,494.918 204.630001,500.828 184.434001,518.648 L177.467001,524.796 L166.032001,526.965 C159.743001,528.159 150.997001,529.79 146.597001,530.589 C132.220001,533.202 127.909001,534.164 102.415001,540.443 L77.2340006,546.646 L67.6650006,552.955 C62.4030006,556.425 58.0970006,559.563 58.0970006,559.927 C58.0970006,560.292 59.2630006,565.07 60.6870006,570.545 C62.1120006,576.02 64.3130006,584.478 65.5770006,589.34 C66.8420006,594.201 68.2630006,598.561 68.7370006,599.027 C69.2100006,599.494 74.9970006,600.598 81.5970006,601.481 C88.1970006,602.363 98.5470006,603.746 104.597001,604.552 C110.647001,605.359 120.997001,606.782 127.597001,607.714 C145.061001,610.182 142.869001,610.311 181.097001,604.569 C186.322001,603.785 195.322001,602.44 201.097001,601.581 C206.872001,600.722 214.522001,599.555 218.097001,598.989 C221.672001,598.422 229.510001,597.285 235.514001,596.463 C241.519001,595.64 246.919001,594.595 247.514001,594.14 C249.596001,592.55 288.287001,564.486 290.432001,563.011 C291.623001,562.192 296.915001,558.367 302.192001,554.511 C311.617001,547.623 313.290001,545.863 333.097001,521.986 C337.772001,516.351 344.689001,508.107 348.467001,503.667 C352.246001,499.227 356.268001,494.335 357.405001,492.797 C358.543001,491.259 359.766001,490 360.124001,490 C360.482001,490 360.441001,492.587 360.034001,495.75 C359.626001,498.913 358.767001,505.624 358.124001,510.664 L356.956001,519.828 L345.027001,531.611 C338.465001,538.091 333.097001,543.937 333.097001,544.602 C333.097001,545.267 334.560001,547.6 336.347001,549.787 C350.749001,567.406 357.483001,576.911 363.064001,587.5 C366.542001,594.1 371.293001,603.1 373.620001,607.5 C385.702001,630.34 399.855001,657.255 412.196001,680.861 L425.977001,707.222 L422.131001,722.861 C420.016001,731.462 417.299001,742.626 416.093001,747.669 C414.169001,755.721 413.578001,756.965 411.249001,757.876 C409.791001,758.447 392.868001,764.144 373.643001,770.535 C334.275001,783.623 339.889001,780.581 316.511001,801.483 C310.964001,806.442 299.602001,816.574 291.261001,823.998 C282.921001,831.422 276.097001,837.835 276.097001,838.248 C276.097001,839.168 276.684001,839.152 286.097001,837.973 C290.222001,837.457 300.311001,836.358 308.516001,835.531 C316.722001,834.704 324.315001,833.748 325.391001,833.407 C327.678001,832.681 328.206001,831.603 318.946001,846.573 C315.179001,852.663 312.097001,858.233 312.097001,858.95 C312.097001,859.927 313.166001,860.082 316.347001,859.567 C318.684001,859.189 327.572001,858.247 336.097001,857.474 C350.226001,856.193 355.722001,855.648 380.597001,853.059 C384.997001,852.601 390.622001,851.337 393.097001,850.249 C395.572001,849.162 405.247001,845.302 414.597001,841.672 C464.284001,822.384 475.888001,817.837 478.881001,816.484 C480.687001,815.668 482.568001,815 483.060001,815 C483.553001,815 486.575001,813.275 489.776001,811.166 C505.162001,801.032 510.160001,797.986 517.097001,794.517 C521.222001,792.454 524.712001,790.665 524.854001,790.543 C525.113001,790.318 517.125001,773.291 505.599001,749.5 C502.135001,742.35 496.551001,730.686 493.190001,723.581 L487.079001,710.661 L487.338001,659.818 L487.597001,608.975 L501.597001,624.055 C516.887001,640.524 513.635001,635.431 540.829001,685.5 C544.414001,692.1 548.478001,699.525 549.860001,702 C554.809001,710.862 563.533001,726.772 572.281001,742.891 C577.174001,751.905 582.283001,761.168 583.635001,763.474 L586.092001,767.668 L579.916001,792.258 L573.739001,816.848 L543.168001,829.027 C525.727001,835.975 499.645001,847.438 482.441001,855.718 L452.285001,870.23 L443.674001,885.265 C438.939001,893.535 435.294001,900.531 435.576001,900.812 C436.086001,901.322 443.825001,900.424 464.597001,897.444 C482.079001,894.936 488.506001,894.068 489.860001,894.033 C491.142001,893.999 490.104001,895.871 481.447001,909.197 C479.055001,912.88 477.097001,916.201 477.097001,916.578 C477.097001,917.295 478.321001,917.122 492.097001,914.456 C507.157001,911.54 513.131001,910.352 539.597001,905.009 L565.597001,899.76 L597.097001,884.001 C623.727001,870.679 630.762001,867.598 642.597001,864.076 C650.297001,861.784 658.321001,859.244 660.428001,858.43 C666.063001,856.255 679.326001,847.025 678.767001,845.668 C677.668001,843.001 668.691001,820.201 661.573001,802 C657.379001,791.275 652.699001,779.35 651.173001,775.5 C648.214001,768.033 647.274001,764.116 644.097001,746 C642.988001,739.675 641.634001,732.25 641.088001,729.5 C640.543001,726.75 639.623001,721.8 639.044001,718.5 C637.493001,709.661 636.367001,703.456 634.687001,694.5 C632.037001,680.372 627.023001,652.744 625.614001,644.5 C624.862001,640.1 623.510001,632.965 622.610001,628.645 C621.709001,624.325 621.147001,620.616 621.361001,620.403 C621.574001,620.19 622.919001,622.824 624.350001,626.258 C632.687001,646.255 644.360001,670.537 647.194001,673.774 C651.022001,678.145 670.344001,699.648 684.621001,715.424 C690.134001,721.516 697.248001,729.506 700.431001,733.179 L706.217001,739.859 L718.407001,743.832 C786.572001,766.049 799.314001,770.116 799.664001,769.766 C800.064001,769.367 796.566001,764.874 782.330001,747.5 C778.274001,742.55 771.5,734.225 767.277001,729 C763.053001,723.775 754.423001,713.188 748.098001,705.474 L736.597001,691.447 L715.857001,648.974 L695.117001,606.5 L693.552001,591.5 C691.789001,574.597 689.975001,558.064 687.626001,537.5 C686.746001,529.8 685.353001,517.425 684.530001,510 C683.707001,502.575 682.653001,493.35 682.187001,489.5 C681.721001,485.65 678.852001,473.725 675.812001,463 C672.772001,452.275 668.259001,436.3 665.781001,427.5 C663.304001,418.7 658.478001,401.6 655.057001,389.5 C651.635001,377.4 648.557001,366.375 648.217001,365 C647.876001,363.625 645.031001,357.748 641.895001,351.941 C638.759001,346.133 635.958001,340.058 635.671001,338.441 C634.898001,334.091 633.722001,328.281 627.587001,298.5 C617.713001,250.567 616.018001,241.699 614.489001,230 C613.663001,223.675 612.346001,213.775 611.562001,208 C610.779001,202.225 609.604001,192.881 608.950001,187.236 L607.763001,176.972 L595.779001,166.236 C589.189001,160.331 578.309001,150.55 571.603001,144.5 C564.897001,138.45 553.860001,128.55 547.077001,122.5 C540.294001,116.45 528.389001,105.65 520.622001,98.5 C476.737001,58.102 480.702001,60.944 465.597001,59.056 C461.197001,58.506 451.972001,57.355 445.097001,56.498 C438.222001,55.642 426.972001,54.233 420.097001,53.367 C413.222001,52.502 403.112001,51.278 397.631001,50.647 L387.665001,49.5 L380.131001,39.413 C375.987001,33.865 367.669001,22.728 361.647001,14.663 L350.696001,0 L346.063001,0 C343.515001,0 341.243001,0.186 341.014001,0.413 M468.530001,519.495 C452.501001,534.982 452.678001,533.047 466.640001,540.197 L474.720001,544.334 L475.998001,549.917 C478.132001,559.244 483.063001,580.024 485.139001,588.44 C486.216001,592.808 487.097001,598.347 487.097001,600.749 C487.097001,603.152 487.499001,604.87 487.990001,604.566 C488.481001,604.263 492.088001,599.787 496.005001,594.621 L503.127001,585.228 L497.046001,561.364 C493.702001,548.239 489.200001,530.567 487.041001,522.094 C484.883001,513.62 482.970001,506.54 482.791001,506.36 C482.611001,506.181 476.194001,512.091 468.530001,519.495 M596.837001,573.619 C595.874001,576.303 595.089001,578.821 595.091992,579.213 C595.095001,579.605 597.774001,581.743 601.046001,583.965 C606.974001,587.991 606.991001,587.996 605.999001,585.253 C605.451001,583.739 603.560001,579.403 601.795001,575.619 L598.587001,568.737 L596.837001,573.619"/><path fill-opacity=".265" d="M345.597001,0.558 C344.662001,0.933 335.736001,2.061 306.597001,5.488 C299.997001,6.264 293.247001,7.127 291.597001,7.405 C289.947001,7.684 284.811001,8.448 280.183001,9.104 C273.139001,10.102 269.234001,11.502 256.183001,17.712 C247.611001,21.792 238.572001,26.081 236.097001,27.244 C233.622001,28.407 223.272001,34.097 213.097001,39.888 C199.019001,47.901 191.134001,51.656 180.110001,55.598 C166.635001,60.416 165.579001,60.978 165.008001,63.639 C160.719001,83.604 156.102001,105.935 156.098001,106.736 C156.098001,106.865 158.813001,108.342 162.132001,110.018 L168.167001,113.064 L163.496001,121.782 C160.927001,126.577 157.819001,132.3 156.588001,134.5 C155.358001,136.7 152.212001,142.55 149.597001,147.5 C146.982001,152.45 143.846001,157.625 142.627001,159 C141.409001,160.375 137.753001,165.771 134.504001,170.991 C131.255001,176.211 126.228001,184.086 123.332001,188.491 L118.067001,196.5 L118.332001,205.382 L118.597001,214.265 L125.597001,216.533 C147.119001,223.505 149.497001,224.069 153.043001,223.033 C155.749001,222.243 156.999001,222.361 158.862001,223.582 C160.167001,224.437 165.473001,226.67 170.654001,228.546 L180.073001,231.955 L195.705001,226.478 C204.303001,223.465 211.697001,221 212.137001,221 C212.576001,221 212.572001,222.463 212.127001,224.25 C211.681001,226.037 210.574001,231.775 209.665001,237 C208.756001,242.225 207.604001,248.3 207.106001,250.5 C206.608001,252.7 205.943001,256.124 205.629001,258.109 C205.132001,261.256 202.984001,263.566 188.885001,276.109 C179.989001,284.024 170.129001,292.837 166.975001,295.692 C163.820001,298.548 159.295001,302.11 156.918001,303.607 C153.050001,306.044 138.273001,315.629 124.597001,324.571 C119.749001,327.741 116.116001,329.423 92.3830006,339.485 L81.1690006,344.239 L53.3350006,343.506 L25.5020006,342.774 L22.8350006,349.637 C17.2260006,364.068 13.9030006,377.384 10.3910006,399.5 C10.1290006,401.15 7.97500063,405.956 5.60500063,410.181 C3.23500063,414.405 1.01600063,419.58 0.673000633,421.681 C0.118000633,425.085 0.506000633,426.097 4.24700063,431 C10.8000006,439.59 18.1760006,449.132 21.5320006,453.362 L24.5970006,457.225 L30.5940006,456.685 C35.3470006,456.257 38.7550006,456.752 47.0180006,459.072 C52.7520006,460.683 57.6210006,462 57.8390006,462 C58.0560006,462 57.3030006,460.693 56.1650006,459.096 C55.0280006,457.498 54.0970006,455.949 54.0970006,455.653 C54.0970006,455.357 56.0090006,454.977 58.3470006,454.807 L62.5970006,454.5 L53.5500006,448.361 C41.8000006,440.387 39.5480006,437.393 38.1760006,427.917 C37.5850006,423.838 36.6790006,417.647 36.1620006,414.16 L35.2230006,407.819 L40.8280006,400.41 L46.4320006,393 L59.6550006,393 L72.8780006,393 L80.7370006,389.104 C85.0600006,386.962 88.7690006,385.371 88.9780006,385.569 C89.1880006,385.767 86.4560006,390.557 82.9070006,396.214 C78.2180006,403.688 75.9590006,408.491 74.6440006,413.785 C73.6480006,417.791 73.0680006,421.304 73.3540006,421.591 C73.6410006,421.877 79.5150006,419.545 86.4090006,416.409 L98.9430006,410.706 L102.003001,402.603 C105.201001,394.136 113.198001,379.221 115.463001,377.5 C116.187001,376.95 117.447001,375.22 118.265001,373.656 C119.946001,370.439 122.252001,369.375 191.155001,340.026 C216.768001,329.116 220.559001,327.196 227.913001,321.407 L236.113001,314.952 L247.561001,292.073 C260.079001,267.053 258.815001,268.673 276.228001,255.342 C280.425001,252.129 292.097001,242.975 302.166001,235 C312.235001,227.025 321.293001,219.909 322.294001,219.187 C323.913001,218.019 327.684001,220.244 356.356001,239.285 L388.597001,260.695 L411.597001,267.023 C424.247001,270.504 434.983001,273.681 435.455001,274.084 C436.992001,275.395 434.171001,282.048 419.589001,311.5 C411.692001,327.45 398.308001,354.675 389.848001,372 L374.466001,403.5 L368.031001,407.316 L361.597001,411.132 L334.097001,410.048 L306.597001,408.964 L273.597001,397.907 L240.597001,386.85 L198.097001,400.976 C174.722001,408.745 154.852001,415.641 153.941001,416.301 C152.473001,417.363 138.432001,434.545 121.900001,455.509 L116.203001,462.733 L114.098001,475.116 C110.538001,496.06 109.034001,506.27 109.447001,506.683 C109.664001,506.9 114.287001,505.458 119.719001,503.478 C125.152001,501.497 133.422001,498.524 138.097001,496.87 C147.671001,493.483 159.585001,488.562 185.097001,477.457 L202.597001,469.84 L213.097001,471.449 C227.806001,473.704 234.288001,474.857 234.729001,475.299 C234.938001,475.507 231.393001,478.769 226.853001,482.547 C222.312001,486.325 214.882001,492.742 210.341001,496.808 C205.800001,500.873 200.105001,505.842 197.686001,507.85 C195.266001,509.857 189.477001,514.763 184.820001,518.75 C180.163001,522.737 175.653001,526 174.798001,526 C173.943001,526 168.823001,526.854 163.421001,527.898 C158.018001,528.941 149.322001,530.569 144.097001,531.514 C133.747001,533.386 92.2460006,543.115 82.5970006,545.932 C75.3070006,548.06 59.0970006,558.361 59.0970006,560.866 C59.0970006,561.823 60.2260006,566.857 61.6070006,572.053 C62.9870006,577.249 65.0710006,585.376 66.2380006,590.113 L68.3590006,598.727 L74.9780006,599.855 C78.6190006,600.475 85.4220006,601.466 90.0970006,602.057 C99.0580006,603.19 103.205001,603.774 122.597001,606.64 C137.900001,608.901 149.759001,608.942 163.597001,606.783 C169.647001,605.838 179.097001,604.407 184.597001,603.602 C190.097001,602.797 202.472001,600.928 212.097001,599.449 C221.722001,597.97 233.422001,596.251 238.097001,595.63 C245.611001,594.631 247.235001,594.026 252.097001,590.415 C255.122001,588.168 266.822001,579.657 278.097001,571.501 C289.372001,563.346 299.803001,555.734 301.278001,554.586 C302.753001,553.439 305.562001,551.375 307.522001,550 C309.482001,548.625 314.116001,543.9 317.820001,539.5 C321.524001,535.1 327.264001,528.303 330.576001,524.395 C333.887001,520.487 340.422001,512.666 345.097001,507.014 C349.772001,501.362 355.339001,494.681 357.469007,492.168 L361.340001,487.598 L360.743001,492.549 C360.415001,495.272 359.653001,502.517 359.051001,508.65 L357.956001,519.799 L345.505001,532.15 L333.054001,544.5 L336.826001,549.135 C338.900001,551.684 343.972001,558.174 348.097001,563.558 C352.222001,568.941 356.047001,573.847 356.597001,574.46 C357.147001,575.073 359.192001,578.708 361.141001,582.537 C364.184001,588.514 371.277001,602.036 392.595001,642.5 C397.301001,651.433 417.598001,689.888 422.997001,700.1 L426.486001,706.699 L424.335001,715.6 C423.152001,720.495 421.199001,728.775 419.995001,734 C418.791001,739.225 417.028001,746.65 416.078001,750.5 L414.350001,757.5 L376.758001,770.089 L339.166001,782.678 L330.043001,790.589 C325.025001,794.94 318.060001,800.975 314.565001,804 C299.021001,817.452 277.097001,837.17 277.097001,837.698 C277.097001,838.297 279.000001,838.132 302.597001,835.491 C310.297001,834.629 319.222001,833.65 322.431001,833.316 L328.265001,832.707 L322.452001,842.104 C319.255001,847.272 315.613001,853.033 314.357001,854.906 C313.102001,856.779 312.235001,858.471 312.431001,858.667 C312.626001,858.862 320.393001,858.318 329.691001,857.457 C338.990001,856.597 353.572001,855.261 362.097001,854.49 C385.833001,852.342 386.330001,852.229 406.597001,844.333 C417.047001,840.262 431.222001,834.734 438.097001,832.048 C444.972001,829.361 454.872001,825.522 460.097001,823.517 C465.322001,821.511 470.497001,819.468 471.597001,818.976 C472.697001,818.484 476.297001,817.015 479.597001,815.711 C482.897001,814.407 490.322001,810.257 496.097001,806.489 C501.872001,802.721 510.422001,797.621 515.097001,795.156 C519.772001,792.69 523.780001,790.527 524.003001,790.347 C524.438001,789.998 519.178001,778.533 507.555001,754.5 C503.566001,746.25 497.326001,733.238 493.690001,725.585 L487.079001,711.67 L487.338001,659.774 L487.597001,607.878 L501.597001,623.022 C516.087001,638.697 515.509001,637.843 531.032001,666.5 C533.118001,670.35 537.426001,678.225 540.605001,684 C543.785001,689.775 550.082001,701.25 554.598001,709.5 C559.114001,717.75 568.049001,734.048 574.453001,745.718 C580.857001,757.388 586.097001,767.464 586.097001,768.11 C586.097001,768.755 583.658001,779.232 580.677001,791.392 C577.696001,803.551 575.109001,814.33 574.927001,815.343 C574.675001,816.749 565.935001,820.688 538.097001,831.941 C517.717001,840.179 490.732001,852.002 476.996001,858.71 L452.396001,870.725 L449.394001,876.113 C447.743001,879.076 444.025001,885.686 441.131001,890.803 C438.237001,895.919 436.050001,900.286 436.270001,900.507 C436.491001,900.728 439.580001,900.473 443.134001,899.941 C449.143001,899.042 471.739001,895.913 485.597001,894.062 C488.897001,893.621 491.678001,893.321 491.778001,893.395 C491.878001,893.468 488.628001,898.81 484.557001,905.264 C480.487001,911.719 477.255001,916.989005 477.376001,916.989005 C477.498001,916.989005 497.397001,912.995 521.597001,908.126 L565.597001,899.274 L596.706001,883.704 C626.960001,868.562 634.911001,865.347 656.958001,859.34 C661.600001,858.076 676.209001,849.246 677.729001,846.786 C678.227001,845.98 672.057001,829.633 655.365001,787.527 C649.390001,772.457 647.343001,765.874 645.413001,755.527 C640.847001,731.054 637.990001,715.503 636.586001,707.5 C635.814001,703.1 634.469007,695.675 633.597001,691 C632.725001,686.325 631.381001,678.9 630.611001,674.5 C629.841001,670.1 628.490001,662.675 627.609001,658 C626.727001,653.325 625.601001,647.25 625.106001,644.5 C624.610001,641.75 623.298001,634.57 622.190001,628.544 C621.082001,622.519 620.308001,617.456 620.470001,617.293 C620.633001,617.131 622.930001,621.836 625.575001,627.749 C628.220001,633.662 631.607001,641.2 633.102001,644.5 C634.597001,647.8 637.703001,654.788 640.004001,660.028 C643.364001,667.681 645.704001,671.239 651.892001,678.101 C656.130001,682.8 664.322001,691.951 670.097001,698.437 C675.872001,704.923 681.947001,711.699 683.597001,713.495 C685.247001,715.291 691.198001,721.893 696.822001,728.165 L707.047001,739.57 L727.822001,746.317 C763.028001,757.751 796.503001,768.761 798.492001,769.562 C799.534001,769.982 797.284001,766.517 793.492001,761.862 C786.859001,753.721 771.604001,735.056 760.097001,721.002 C757.072001,717.308 752.347001,711.478 749.597001,708.047 C746.847001,704.616 742.725001,699.563 740.436001,696.819 C736.104001,691.623 734.800001,689.115 710.325001,638.914 C700.314001,618.38 695.180001,606.713 694.701001,603.414 C693.931001,598.103 691.897001,580.504 689.567001,559 C688.762001,551.575 687.672001,541.9 687.144001,537.5 C686.616001,533.1 685.952001,527.437 685.670001,524.916 C685.387001,522.395 684.691001,516.32 684.123001,511.416 C683.555001,506.512 682.608001,498.225 682.019001,493 C681.430001,487.775 680.046001,480.35 678.945001,476.5 C677.843001,472.65 676.342001,467.25 675.610001,464.5 C674.492001,460.299 662.942001,419.003 658.690001,404 C657.988001,401.525 655.081001,391.079 652.229001,380.786 C647.896001,365.152 646.143001,360.483 641.577001,352.42 C637.352001,344.959 635.759001,340.922 634.562001,334.634 C633.709001,330.16 632.575001,324.7 632.041001,322.5 C631.506001,320.3 629.906001,312.65 628.483001,305.5 C623.589001,280.897 623.101001,278.487 622.097001,274 C617.463001,253.286 615.247001,239.786 610.607001,204 C606.774001,174.438 607.657001,177.637 601.820001,172.173 C598.947001,169.484 594.797001,165.761 592.597001,163.901 C590.397001,162.04 583.401001,155.789 577.049001,150.009 C570.698001,144.229 559.915001,134.55 553.086001,128.5 C546.257001,122.45 534.542001,111.875 527.053001,105 C506.614001,86.236 495.485001,76.156 486.405001,68.185 L478.214001,60.993 L464.905001,59.437 C444.197001,57.017 417.345001,53.719 396.097001,50.986 C391.422001,50.385 387.100001,49.355 386.493001,48.697 C385.885001,48.038 377.433001,36.813 367.709001,23.75 C350.846001,1.097 349.024001,-0.814 345.597001,0.558 M467.718001,519.879 L453.858001,533.765 L462.228001,538.322 C466.831001,540.829 471.334001,543.16 472.235001,543.504 C473.136001,543.847 474.357001,546.012 474.949001,548.314 C481.542001,573.949 486.396001,595.14 487.015001,600.995 L487.597001,606.489 L492.507001,599.995 C495.208001,596.423 498.863001,591.7 500.630001,589.5 L503.842001,585.5 L499.985001,570.5 C497.865001,562.25 494.989001,551 493.596001,545.5 C486.019001,515.596 483.499001,506.629 482.587001,506.327 C482.031001,506.144 475.340001,512.242 467.718001,519.879 M596.243001,573.569 C595.063001,576.654 594.097001,579.35 594.097001,579.561 C594.097001,580.117 606.359001,588 607.223001,588 C607.882001,588 600.027001,569.596 598.876001,568.446 C598.609001,568.178 597.424001,570.484 596.243001,573.569"/><path fill-opacity=".077" d="M345.224001,25.501 C338.973001,31.473 335.562001,33.822 328.485001,37.025 C323.597001,39.238 318.472001,41.653 317.097001,42.392 C315.243001,43.389 309.290001,43.744 294.046001,43.769 L273.495001,43.802 L264.244001,50.117 C252.861001,57.887 253.375001,57.359 245.496001,69.355 L239.023001,79.211 L245.781001,78.585 C249.917001,78.202 252.162001,78.316 251.568001,78.881 C251.034001,79.388 242.722001,85.059 233.097001,91.484 C223.217001,98.079 210.896001,107.374 204.799001,112.832 L194.002001,122.5 L199.476001,124.126 C202.487001,125.02 207.451001,126.064 210.508001,126.446 C213.564001,126.827 216.318001,127.548 216.626001,128.047 C216.934001,128.546 217.858001,134.688 218.678001,141.696 C219.498001,148.704 220.398001,155.352 220.679001,156.471 C221.142001,158.314 220.228001,158.723 210.893001,160.849 C205.230001,162.138 197.447001,163.843 193.597001,164.637 C186.723001,166.054 186.444001,166.237 178.089001,174.79 C169.787001,183.29 155.809001,195.528 147.668001,201.426 L143.611001,204.364 L133.104001,201.66 C118.160001,197.814 118.957001,197.524 119.305001,206.689 L119.597001,214.378 L133.597001,218.763 C144.457001,222.165 148.606001,223.036 152.097001,222.647 C155.455001,222.272 157.866001,222.726 161.597001,224.436 C164.347001,225.696 169.629001,227.796 173.335001,229.101 L180.074001,231.474 L196.059001,226.044 C204.851001,223.058 212.229001,220.813 212.454001,221.057 C212.894001,221.533 211.304001,231.975 208.581001,246.5 C207.654001,251.45 206.669001,256.85 206.393001,258.5 C206.117001,260.15 204.867001,263.75 203.614001,266.5 C202.361001,269.25 201.054001,272.428 200.709001,273.562 C200.323001,274.829 190.159001,282.247 174.339001,292.805 C160.181001,302.255 144.161001,313.804 138.739001,318.468 C132.130001,324.155 127.763001,327.16 125.489001,327.586 C123.623001,327.936 122.097001,328.635 122.097001,329.14 C122.097001,329.644 123.556001,332.857 125.340001,336.279 C127.123001,339.7 128.736001,342.837 128.923001,343.25 C129.555001,344.643 122.227001,344.012 113.386001,341.914 C103.168001,339.489 96.0120006,339.779 86.2320006,343.016 C80.0240006,345.071 79.2010006,345.096 52.8680006,344.009 C38.0190006,343.396 25.7810006,343.031 25.6740006,343.197 C25.5660006,343.364 24.2170006,347.325 22.6760006,352 C21.1350006,356.675 19.5560006,360.95 19.1660006,361.5 C17.9890006,363.161 16.2440006,369.992 14.5690006,379.5 C11.1510006,398.903 9.97900063,402.977 5.61500063,410.634 C-0.960999367,422.172 -1.00099937,423.637 5.05600063,431.476 C7.82900063,435.064 12.4120006,441.038 15.2420006,444.75 C24.1450006,456.432 23.5160006,456 31.6410006,456 C35.9110006,456 41.2270006,456.761 44.7170006,457.872 C47.9510006,458.901 52.1260006,460.077 53.9950006,460.484 L57.3930006,461.224 L55.2740006,458.249 C52.7630006,454.723 53.2290006,454 58.0110006,454 C61.5030006,454 61.3650006,453.851 52.5190006,448.063 C38.9490006,439.183 38.8730006,439.018 35.3690006,410.961 C34.9830006,407.867 35.6370006,406.514 40.5690006,400.211 L46.2110006,393 L59.0550006,393 L71.8980006,393 L80.6430006,388.979 C85.4530006,386.767 89.5370006,385.106 89.7180006,385.288 C89.9000006,385.47 88.5940006,387.842 86.8170006,390.559 C78.4810006,403.3 77.0900006,406.015 75.1230006,413.378 C73.9660006,417.71 73.1490006,421.384 73.3080006,421.541 C73.4670006,421.698 78.5470006,419.577 84.5970006,416.828 C90.6470006,414.08 96.2930006,411.615 97.1440006,411.352 C97.9960006,411.088 99.9590006,407.414 101.508001,403.186 C104.589001,394.779 113.945001,377 115.289001,377 C115.751001,377 116.878001,375.43 117.794001,373.51 C118.709001,371.591 120.389001,369.737 121.527001,369.391 C122.666001,369.045 125.397001,367.96 127.597001,366.98 C129.797001,366.001 142.847001,360.397 156.597001,354.527 C170.347001,348.657 190.147001,340.198 200.597001,335.73 C215.819001,329.221 221.154001,326.403 227.430001,321.553 L235.263001,315.5 L247.090001,292 C258.182001,269.961 259.241001,268.251 264.125001,264.5 C266.989001,262.3 271.029001,259.15 273.102001,257.5 C275.175001,255.85 280.185001,251.915 284.234001,248.756 C288.284001,245.596 296.568001,239.071 302.644001,234.256 C308.719001,229.44 316.011001,223.736 318.847001,221.58 C321.684001,219.424 323.835001,217.399 323.628001,217.08 C323.422001,216.761 314.912001,211.1 304.719001,204.5 C294.526001,197.9 286.166001,192.236 286.142001,191.913 C286.117001,191.591 290.780001,189.185 296.504001,186.566 C302.228001,183.948 313.333001,177.561 321.183001,172.374 L335.454001,162.943 L336.619001,165.722 C337.259001,167.25 338.349001,170.863 339.040001,173.75 C339.731001,176.637 340.589001,178.975 340.947001,178.944 C341.304001,178.913 346.547001,171.922 352.597001,163.408 C373.151001,134.484 381.528001,123.509 386.761001,118.653 L391.984001,113.806 L413.142001,156.591 L434.300001,199.376 L442.949001,190.419 C456.465001,176.42 500.567001,129.03 500.86004,128.195 C500.999001,127.783 497.327001,126.929 492.698001,126.298 C486.963001,125.516 483.057001,124.369 480.439001,122.7 C478.326001,121.352 470.972001,116.971 464.097001,112.964 C457.222001,108.957 444.172001,101.313 435.097001,95.977 C426.022001,90.641 412.041001,82.423 404.028001,77.715 L389.459001,69.154 L385.149001,59.878 C382.098001,53.312 378.211001,47.375 371.839001,39.551 C366.889001,33.473 360.984001,26.163 358.718001,23.306 C356.451001,20.449 354.255001,18.087 353.836001,18.0557866 C353.418001,18.025 349.542001,21.375 345.224001,25.501 M264.490001,77.75 C263.479001,79.263 262.771001,80.893 262.916001,81.373 C263.061001,81.854 261.970001,85.877 260.492001,90.315 L257.805001,98.383 L262.158001,111.685 C264.551001,119.001 266.811001,124.653 267.180001,124.244 C267.549001,123.835 268.776001,120.8 269.908001,117.5 C271.039001,114.2 273.979001,105.749 276.441001,98.72 L280.916001,85.94 L274.146001,80.47 C270.422001,77.462 267.140001,75 266.851001,75 C266.563001,75 265.500001,76.237 264.490001,77.75 M500.097001,82.371 C500.097001,82.941 506.356001,112.479 508.236001,120.782 C509.148001,124.809 509.155001,126.342 508.265001,127.232 C506.926001,128.571 506.690001,132.669 507.924001,133.167 C508.378001,133.35 510.628001,136.344 512.924001,139.821 L517.097001,146.141 L517.111001,159.821 C517.123001,172.368 516.895001,174.098 514.361001,180.726 C512.365001,185.943 511.180001,187.83 510.097001,187.513 C509.272001,187.272 505.447001,186.996 501.597001,186.9 L494.597001,186.725 L470.243001,198.919 C447.996001,210.057 446.011001,211.259 447.301001,212.806 C448.078001,213.738 453.664001,220.125 459.714001,227 C465.763001,233.875 470.999001,240.257 471.348001,241.183 C472.258001,243.596 467.859001,244.327 460.028001,243.066 C455.868001,242.396 453.317001,242.38 452.677001,243.02 C452.138001,243.559 448.387001,244 444.340001,244 C438.264001,244 434.665001,243.217 423.654001,239.501 L410.324001,235.002 L396.960001,238.519 C389.610001,240.454 381.529001,242.539 379.002001,243.154 L374.406001,244.272 L360.502001,236.772 C338.674001,224.998 331.097001,221.053 331.097001,221.462 C331.097001,221.67 343.903001,230.395 359.555001,240.85 C389.140001,260.613 388.847001,260.463 407.597001,265.482 C435.981001,273.081 440.884001,274.796 454.417001,281.858 C464.644001,287.195 466.447001,287.794 475.558001,288.88 C481.053001,289.534 485.867001,290.612 486.293001,291.283 C487.056001,292.483 487.465001,354.725 486.705001,353.917 C486.490001,353.687 481.494001,344.275 475.604001,333 C469.713001,321.725 464.069001,311.642 463.062001,310.594 C461.266001,308.726 461.175001,308.754 458.413001,312.01 C456.864001,313.838 454.954001,316.27 454.168001,317.416 C453.382001,318.562 451.582001,320.872 450.168001,322.549 C448.754001,324.226 446.179001,327.376 444.446001,329.549 C438.938001,336.455 412.745001,369.119 408.880001,373.901 C406.836001,376.43 404.204001,380.256 403.032001,382.403 L400.901001,386.305 L405.249001,383.766 C407.640001,382.37 411.172001,380.333 413.097001,379.24 C415.022001,378.146 421.097001,374.527 426.597001,371.198 C451.106001,356.363 452.200001,355.8 455.474001,356.347 C471.952001,359.103 484.097001,361.515 484.097001,362.033 C484.097001,362.379 481.510001,363.82 478.347001,365.235 C473.012001,367.621 464.300001,371.575 436.862001,384.061 C429.633001,387.351 421.632001,392.202 412.362001,398.914 C404.791001,404.396 397.247001,409.831 395.597001,410.991 C393.947001,412.151 388.022001,416.424 382.431001,420.485 C372.763001,427.508 371.879001,427.926 364.431001,429.012 C347.039001,431.547 336.788001,432.977 305.000001,437.299 C295.567001,438.582 295.267001,438.707 287.500001,444.593 C283.153001,447.887 278.147001,451.598 276.374001,452.84 L273.151001,455.098 L274.521001,451.299 C275.275001,449.209 276.840001,445.318 278.001001,442.652 L280.110001,437.804 L276.856001,433.652 C275.067001,431.368 269.323001,424.1 264.092001,417.5 C258.861001,410.9 253.402001,403.925 251.960001,402 C247.804001,396.451 238.926001,393.835 226.925001,394.623 C218.645001,395.166 214.040001,396.406 185.941001,405.653 L154.284001,416.072 L146.457001,425.786 C142.152001,431.129 135.247001,439.613 131.113001,444.64 C117.683001,460.97 116.272001,462.996 115.687001,466.787 C115.372001,468.829 114.191001,476.575 113.063001,484 C111.935001,491.425 110.560001,499.467 110.009001,501.872 C109.458001,504.276 109.140001,506.364 109.302001,506.512 C109.464001,506.66 114.547001,504.99 120.597001,502.8 C126.647001,500.61 136.547001,497.033 142.597001,494.849 C152.316001,491.342 159.097001,488.537 173.597001,482.026 C175.797001,481.039 180.399001,479.052 183.823001,477.613 C187.247001,476.173 192.506001,473.871 195.509001,472.497 C201.266001,469.864 205.397001,469.531 213.597001,471.039 C216.347001,471.544 222.310001,472.499 226.847001,473.161 C231.384001,473.823 235.097001,474.707 235.097001,475.127 C235.097001,475.547 231.567001,478.952 227.252001,482.695 C222.938001,486.438 213.425001,494.675 206.113001,501 C198.801001,507.325 189.424001,515.512 185.274001,519.193 C179.478001,524.335 176.787001,526.036 173.663001,526.531 C171.427001,526.885 164.197001,528.226 157.597001,529.511 C150.997001,530.795 141.547001,532.592 136.597001,533.504 C131.647001,534.416 125.347001,535.743 122.597001,536.453 C119.847001,537.163 108.597001,539.918 97.5970006,542.575 C77.9630006,547.318 77.4320006,547.515 68.5970006,553.35 C63.6470006,556.62 59.4550006,559.408 59.2820006,559.545 C58.9390006,559.819 66.4920006,590.491 68.1980006,595.75 C68.7780006,597.538 69.5550006,599.015 69.9250006,599.033 C70.2940006,599.051 73.5220006,599.471 77.0970006,599.966 C80.6720006,600.462 88.9970006,601.597 95.5970006,602.489 C102.197001,603.381 112.322001,604.756 118.097001,605.545 C147.524001,609.564 143.828001,609.6 173.097001,605.002 C176.672001,604.441 184.322001,603.279 190.097001,602.42 C210.314001,599.415 219.646001,598.011 225.597001,597.081 C228.897001,596.565 234.957001,595.649 239.063001,595.045 C246.700001,593.921 247.861001,593.315 260.876001,583.671 C263.229001,581.927 275.604001,572.899 288.376001,563.609 L311.597001,546.717 L326.097001,529.272 C348.314001,502.542 354.666001,495.043 360.879001,488.214 C364.024001,484.756 366.747001,481.493 366.930001,480.964 C367.114001,480.434 367.653001,480 368.128001,480 C368.604001,480 368.568001,481.238 368.050001,482.75 C367.531001,484.262 366.691001,494.725 366.184001,506 L365.261001,526.5 L368.462001,530 C376.232001,538.497 376.521001,536.711 365.698001,547.058 C360.417001,552.106 356.097001,556.599 356.097001,557.041 C356.097001,558.664 367.434001,564.878 371.454001,565.459 C374.910001,565.958 385.994001,567.915 394.681001,569.56 C396.737001,569.949 396.748001,570.103 395.468001,580.641 C394.754001,586.518 393.738001,591.759 393.210001,592.287 C392.596001,592.901 386.265001,590.337 375.673001,585.186 C366.556001,580.752 359.097001,577.377 359.097001,577.686 C359.097001,577.995 362.857001,585.279 367.452001,593.874 C377.571001,612.798 383.831001,624.638 392.104001,640.5 C395.547001,647.1 399.595001,654.75 401.101001,657.5 C402.606001,660.25 406.086001,666.775 408.833001,672 C411.579001,677.225 416.851001,687.246 420.547001,694.268 L427.267001,707.036 L425.566001,713.268 C423.567001,720.591 422.613001,741.977 423.794001,753 C424.578001,760.323 424.674001,760.525 427.850001,761.551 L431.102001,762.603 L427.850001,765.611 C426.061001,767.265 420.772001,771.804 416.097001,775.697 C411.422001,779.59 406.171001,784.063 404.427001,785.637 C402.684001,787.212 398.072001,791.146 394.177001,794.38 L387.097001,800.26 L387.086001,806.38 C387.080001,809.746 386.798001,814.178 386.459001,816.229 C385.777001,820.355 389.529001,817.782 350.597001,840.816 C341.797001,846.022 332.136001,851.794 329.128001,853.641 L323.660001,857 L328.628001,856.929 C331.361001,856.89 337.422001,856.475 342.097001,856.007 C346.772001,855.539 358.661001,854.429 368.517001,853.542 C382.733001,852.261 387.796001,851.397 393.017001,849.359 C396.636001,847.946 405.672001,844.406 413.097001,841.491 C420.522001,838.576 430.647001,834.615 435.597001,832.687 C440.547001,830.76 449.772001,827.161 456.097001,824.689 C462.422001,822.217 471.397001,818.734 476.042001,816.949 C480.850001,815.102 489.918001,810.171 497.102001,805.497 C504.041001,800.983 512.946001,795.762 516.892001,793.895 C522.986001,791.011 523.972001,790.2 523.437001,788.506 C523.091001,787.41 519.723001,780.333 515.952001,772.78 C512.182001,765.227 509.097001,758.847 509.097001,758.603 C509.097001,758.359 504.035001,747.885 497.847001,735.329 L486.597001,712.5 L486.395001,654 C486.229001,605.62 485.932001,594.462 484.683001,589.5 C483.852001,586.2 481.788001,577.65 480.097001,570.5 C478.406001,563.35 476.296001,554.685 475.410001,551.244 L473.797001,544.989 L463.947001,539.773 C458.530001,536.904 454.097001,534.019 454.097001,533.361 C454.097001,532.704 460.636001,525.929 468.629001,518.307 L483.160001,504.448 L481.752001,497.974 C480.978001,494.413 479.371001,487.955 478.182001,483.622 C473.103001,465.126 475.892001,472.861 504.819001,557.5 C509.519001,571.25 513.754001,582.928 514.231001,583.45 C514.707001,583.973 518.585001,584.648 522.847001,584.95 C531.652001,585.575 530.811001,584.003 529.560001,597.5 C529.084001,602.634 529.301001,605.406 530.376001,607.899 L531.842001,611.298 L546.719001,611.137 C554.902001,611.049 565.196001,610.689 569.595001,610.338 C579.239001,609.567 579.181001,609.713 566.162001,619.01 C561.163001,622.58 552.522001,628.763 546.958001,632.75 C541.395001,636.737 536.199001,640 535.411001,640 C534.623001,640 534.257001,640.45 534.597001,641 C535.411001,642.316 533.078001,642.215 524.597001,640.564 C520.747001,639.815 517.452001,639.339 517.274001,639.507 C516.965001,639.8 523.412001,652.257 527.104001,658.5 C528.080001,660.15 530.204001,663.975 531.824001,667 C533.445001,670.025 537.319001,677.112 540.434001,682.75 C548.073001,696.577 555.997001,711.044 560.497001,719.38 C562.539001,723.164 567.489001,732.164 571.497001,739.38 C575.504001,746.596 580.613001,755.875 582.850001,760 L586.918001,767.5 L584.787001,776.5 C583.592001,781.548 582.717001,788.354 582.795001,792 C582.871001,795.575 582.964001,803.026 583.002001,808.559 L583.072001,818.618 L586.664001,820.331 L590.257001,822.044 L585.292001,827.772 C567.641001,848.138 558.109001,856.003 522.097001,879.912 C488.730001,902.066 485.180001,904.598 484.359001,906.828 C484.021001,907.748 482.765001,909.85 481.568001,911.5 C478.485001,915.751 477.590001,917.431 478.813001,916.676 C479.376001,916.327 487.658001,914.51 497.217001,912.638 C506.776001,910.765 515.722001,909.003 517.097001,908.722 C542.855001,903.457 560.722001,900 562.172001,900 C563.173001,900 578.753001,892.642 596.794001,883.649 C614.836001,874.656 632.972001,866.281 637.097001,865.039 C641.222001,863.796 647.960001,861.704 652.069001,860.39 C656.179001,859.075 659.915001,858 660.372001,858 C661.358001,858 678.097001,846.96 678.097001,846.309 C678.097001,846.063 676.779001,842.63 675.169001,838.68 C671.619001,829.975 660.995001,802.934 653.095001,782.5 C649.383001,772.898 646.548001,763.542 645.217001,756.5 C642.661001,742.983 639.424001,725.158 637.591001,714.5 C636.289001,706.932 633.243001,690.504 631.101001,679.5 C630.566001,676.75 629.460001,670.675 628.644001,666 C627.827001,661.325 626.281001,652.775 625.207001,647 C624.134001,641.225 622.292001,630.425 621.115001,623 C616.409001,593.317 616.472001,593.491 609.042001,589.777 C607.636001,589.075 603.694001,586.7 600.282001,584.5 C594.463001,580.749 594.118001,580.313 594.719001,577.5 C595.071001,575.85 596.439001,572.138 597.758001,569.25 C599.771001,564.843 609.088001,540.684 616.172001,521.5 C622.567001,504.185 622.011001,504.317 624.594001,519.5 C630.560001,554.562 633.155001,567.102 636.596001,577.5 C638.417001,583 641.702001,593.125 643.898001,600 C646.093001,606.875 652.187001,625.775 657.440001,642 C662.693001,658.225 667.295001,672.763 667.667001,674.307 C668.039001,675.852 669.314001,677.751 670.502001,678.53 C675.238001,681.633 688.549001,698.593 702.147001,718.852 C710.029001,730.595 717.467001,740.851 718.674001,741.643 C719.882001,742.434 738.283001,748.89 759.565001,755.989 C803.132001,770.522 800.604001,770.445 789.168001,756.902 C786.104001,753.274 779.997001,745.899 775.597001,740.514 C771.197001,735.13 765.122001,727.699 762.097001,724.002 C733.620001,689.2 737.370001,694.926 720.668001,660.734 C694.265001,606.682 694.426001,607.041 693.772001,600.5 C693.098001,593.747 690.955001,574.392 688.568001,553.5 C686.466001,535.099 684.570001,517.914 682.611001,499.523 C681.734001,491.286 680.152001,481.611 679.094001,478.023 C678.037001,474.435 673.525001,458.45 669.068001,442.5 C664.610001,426.55 658.557001,404.95 655.617001,394.5 C652.676001,384.05 649.476001,372.575 648.507001,369 C647.537001,365.425 644.322001,358.14 641.363001,352.81 C635.928001,343.025 634.328001,337.112 627.608001,302 C627.345001,300.625 625.294001,290.725 623.051001,280 C617.018001,251.15 615.179001,241.228 613.598001,229 C613.278001,226.525 612.585001,221.35 612.059001,217.5 C609.728001,200.448 607.970001,187.108 607.421001,182.297 C606.832001,177.137 606.732001,177.009 595.285001,166.797 C588.937001,161.134 580.754001,153.8 577.100001,150.5 C573.446001,147.2 565.332001,140 559.070001,134.5 C552.807001,129 546.213001,123.094 544.416001,121.376 C542.620001,119.658 537.908001,115.383 533.945001,111.876 C529.983001,108.369 524.822001,103.666 522.477001,101.426 C516.513001,95.726 500.097001,81.75 500.097001,82.371 M569.827001,325.206 C565.619001,329.72 562.318001,333.554 562.491001,333.727 C564.061001,335.297 590.335001,338.096 591.602001,336.828 C592.226001,336.204 579.141001,317 578.092001,317 C577.755001,317 574.036001,320.693 569.827001,325.206 M550.589001,346.643 C540.079001,357.913 540.296001,357.596 519.600001,392 L503.659001,418.5 L494.629001,421.584 L485.600001,424.668 L479.186001,441.584 C475.658001,450.888 472.756001,459.85 472.735835,461.5 C472.703001,464.248 477.601001,473.954 487.623001,491 C492.011001,498.464 510.030001,530.079 514.126001,537.5 C520.610001,549.249 520.158001,551.593 520.059001,506.744 L519.970001,465.988 L524.094001,457.388 C526.362001,452.658 528.429001,448.998 528.686001,449.256 C528.944001,449.513 529.493001,451.698 529.907001,454.112 L530.660001,458.5 L532.951001,449 C539.564001,421.585 548.645001,383.422 553.057001,364.5 C555.366001,354.6 557.845001,344.363 558.566001,341.75 C559.288001,339.137 559.811001,337 559.730001,337 C559.648001,337 555.535001,341.339 550.589001,346.643 M322.597001,830.708 C314.627001,833.126 313.003001,834.086 318.097001,833.368 C320.572001,833.019 323.947001,832.627 325.597001,832.497 C327.440001,832.351 328.722001,831.631 328.920001,830.63 C329.299001,828.721 329.139001,828.723 322.597001,830.708 M282.296001,833.114 C278.375001,836.617 278.660001,836.7 284.061001,833.632 C286.663001,832.154 287.722001,831.07 286.878001,830.746 C286.134001,830.461 284.072001,831.526 282.296001,833.114 M455.656001,869.872 C454.038001,870.821 451.964001,872.926 451.047001,874.549 C450.131001,876.172 448.490001,879.075 447.402001,881 C446.314001,882.925 443.945001,887.2 442.138001,890.5 C440.331001,893.8 438.458001,896.928 437.975001,897.45 C436.807001,898.714 436.849001,900.271 438.032001,899.54 C438.546001,899.222 442.214001,894.133 446.183001,888.231 C450.151001,882.329 454.944001,875.362 456.833001,872.75 C460.508001,867.667 460.297001,867.149 455.656001,869.872 M485.597001,891.183 L477.597001,894.027 L483.097001,893.522 C486.122001,893.244 489.369001,893.013 490.312001,893.009 C491.794001,893.001 494.848001,889.264 493.928001,888.584 C493.746001,888.449 489.997001,889.619 485.597001,891.183"/><path fill-opacity=".185" d="M338.747001,46.757 C338.467001,47.211 339.893001,47.397 341.917001,47.171 C343.941001,46.945 345.372001,46.985 345.097001,47.26 C344.226001,48.131 324.826001,55.71 319.177001,57.385 C312.428001,59.387 311.413001,58.808 317.559001,56.462 C320.079001,55.499 321.950001,54.52 321.716001,54.286 C321.483001,54.052 318.984001,54.853 316.164001,56.067 C313.344001,57.28 311.272001,58.508 311.560001,58.797 C312.142001,59.379 310.336001,60.765 305.097001,63.757 C303.172001,64.856 298.672001,67.44 295.097001,69.5 C291.522001,71.56 287.106001,74.098 285.283001,75.141 C283.461001,76.184 280.881001,77.751 279.551001,78.622 C277.269001,80.117 276.961001,80.063 274.123001,77.676 L271.115001,75.144 L279.630001,71.93 C284.314001,70.162 287.972001,68.542 287.760001,68.329 C287.547001,68.117 283.834001,69.306 279.508001,70.971 C275.182001,72.637 270.957001,74.009 270.120001,74.019 C268.123001,74.044 273.612001,78.861 288.597001,90.234 C295.197001,95.243 303.598001,101.73 307.267001,104.649 L313.936001,109.957 L312.216001,113.728 C311.269001,115.803 309.843001,118.906 309.046001,120.624 C308.249001,122.342 300.655001,133.65 292.169001,145.753 L276.742001,167.757 L271.669001,166.045 C266.634001,164.345 266.521001,164.212 256.276001,147.916 C250.600001,138.887 245.571001,131.361 245.101001,131.192 C244.631001,131.022 242.196001,133.497 239.690001,136.692 C237.184001,139.886 231.916001,146.55 227.984001,151.5 C224.052001,156.45 217.021001,165.303 212.359001,171.173 C206.871001,178.084 202.775001,182.289 200.740001,183.103 C192.847001,186.26 165.029001,200.315 159.939001,203.718 C156.828001,205.798 152.361001,208.793 150.013001,210.374 C146.140001,212.981 145.204001,213.192 139.920001,212.639 C135.979001,212.227 134.097001,212.387 134.097001,213.132 C134.097001,213.741 133.203001,213.999 132.097001,213.71 C130.997001,213.423 130.097001,213.561 130.097001,214.018 C130.097001,214.475 128.414001,214.64 126.358001,214.385 C120.555001,213.666 123.619001,215.372 133.597001,218.417 C138.547001,219.928 143.631001,221.577 144.894001,222.082 C147.701001,223.204 153.148001,223.255 154.848001,222.175 C155.590001,221.704 158.679001,222.628 162.426001,224.44 C165.905001,226.123 171.264001,228.347 174.333001,229.381 L179.914001,231.263 L202.255001,223.972 C214.543001,219.963 229.772001,214.904 236.097001,212.731 C242.422001,210.558 248.567001,208.717 249.752001,208.64 C250.936001,208.563 251.729001,208.214 251.513001,207.864 C251.296001,207.514 252.033001,206.989 253.149001,206.697 C255.582001,206.06 255.581001,206.064 250.073001,221 C247.943001,226.775 245.165001,234.425 243.899001,238 L241.597001,244.5 L241.286001,240.18 C241.071001,237.185 241.914001,233.403 244.036001,227.845 C245.720001,223.436 247.076001,219.305 247.051001,218.665 C247.026001,218.024 245.506001,221.422 243.674001,226.215 C240.632001,234.172 238.118001,248.949 240.348001,245.759 C241.497001,244.115 240.182001,248.971 238.928001,251 C238.270001,252.065 238.174001,251.775 238.597001,250 C239.371001,246.751 237.631001,249.435 236.652001,253 C236.128001,254.909 236.214001,255.145 237.016001,254 C237.803001,252.876 238.070001,253.932 238.082001,258.209 C238.098001,264.39 235.455001,271.272 233.355001,270.516 C230.262001,269.403 225.364001,278.768 222.643001,291 C221.687001,295.297 223.658001,290.367 226.109001,282.331 C227.361001,278.226 229.322001,274.198 230.696001,272.907 C233.224001,270.532 233.762001,270.859 232.108001,273.764 C230.141001,277.218 223.009001,300.541 223.428001,302.15 C223.692001,303.163 222.649001,304.683 220.727001,306.084 C219.006001,307.34 215.122001,310.45 212.097001,312.995 C207.502001,316.861 205.281001,317.928 198.597001,319.485 C194.197001,320.509 190.147001,321.658 189.597001,322.038 C189.047001,322.417 187.922001,322.741 187.097001,322.758 C186.272001,322.774 182.447001,323.961 178.597001,325.396 C174.747001,326.83 171.597001,327.955 171.597001,327.896 C171.597001,327.837 169.572001,328.367 167.097001,329.075 C164.622001,329.782 162.372001,330.423 162.097001,330.5 C161.822001,330.577 159.572001,331.252 157.097001,332 C154.622001,332.748 152.372001,333.423 152.097001,333.5 C151.822001,333.577 149.572001,334.252 147.097001,335 C144.622001,335.748 142.372001,336.411 142.097001,336.473 C141.822001,336.535 139.910001,337.163 137.847001,337.87 C133.909001,339.219 133.884001,339.321 135.747001,346.217 C136.072001,347.421 135.442001,348.126 133.638001,348.579 C132.224001,348.934 130.038001,350.538 128.782001,352.143 L126.498001,355.061 L120.216001,353.452 C113.142001,351.64 113.516001,351.445 109.094001,359.25 C105.997001,364.715 107.277001,363.839 110.897001,358.015 C113.820001,353.313 114.183001,353.065 117.296001,353.654 C119.112001,353.998 121.947001,354.885 123.597001,355.626 L126.597001,356.973 L122.473001,356.42 L118.349001,355.867 L113.499001,364.183 C110.832001,368.758 108.050001,373.625 107.317001,375 C104.479001,380.32 103.852001,380.299 99.3410006,374.726 C97.0140006,371.852 95.1070006,368.762 95.1030006,367.86 C95.1000006,366.958 95.9970006,361.846 97.0970006,356.5 C99.4770006,344.932 99.4430006,345.468 97.7020006,346.913 C96.9350006,347.549 95.9230006,347.959 95.4520006,347.823 C94.9820006,347.686 93.5840006,348.137 92.3470006,348.823 C91.1100006,349.509 90.0970006,349.774 90.0970006,349.413 C90.0970006,349.051 89.4420006,349.299 88.6410006,349.964 C87.8400006,350.628 86.6450006,350.839 85.9860006,350.432 C85.2280006,349.963 85.0500006,350.115 85.5020006,350.845 C86.1870006,351.955 84.9980006,352.419 82.3470006,352.075 C81.6600006,351.985 81.0970006,352.457 81.0970006,353.123 C81.0970006,353.789 80.8150006,354.051 80.4700006,353.707 C80.1250006,353.362 78.6080006,353.719 77.0970006,354.5 C75.5860006,355.281 74.0690006,355.638 73.7240006,355.293 C73.3790006,354.949 73.0970006,355.192 73.0970006,355.833 C73.0970006,356.475 72.2240006,357 71.1560006,357 C70.0880006,357 68.9010006,357.507 68.5180006,358.128 C68.0170006,358.938 63.2320006,359.054 51.5210006,358.541 L35.2200006,357.827 L34.9080006,376.741 C34.6060006,395.114 34.5240006,395.766 32.0280006,399.577 L29.4580006,403.5 L31.8160006,406.955 C34.2110006,410.465 36.0000006,412.513 34.7110006,410.271 C33.7730006,408.639 35.1400006,406.254 41.1540006,399.027 L46.1700006,393 L59.1190006,393 L72.0680006,393 L80.5450006,388.796 C85.2070006,386.483 89.3200006,384.89 89.6840006,385.254 C90.0490006,385.618 88.7990006,388.298 86.9080006,391.208 C85.0170006,394.119 82.0830006,398.644 80.3870006,401.264 C77.4980006,405.731 73.2320006,419.468 74.3790006,420.615 C74.6650006,420.902 78.2060006,419.605 82.2480006,417.734 C86.2900006,415.862 91.7330006,413.469 94.3430006,412.416 C96.9540006,411.362 99.0960006,410.05 99.1030006,409.5 C99.1170006,408.435 105.985001,391.356 108.248001,386.758 C108.990001,385.25 109.935001,384.012 110.347001,384.008 C110.759001,384.004 111.097001,383.382 111.097001,382.626 C111.097001,381.87 112.668001,379.536 114.589001,377.439 C116.509001,375.343 118.313001,372.896 118.596001,372.003 C118.880001,371.109 120.796001,369.66 122.854001,368.781 C135.104001,363.553 142.066001,360.557 145.597001,358.993 C147.797001,358.019 155.672001,354.666 163.097001,351.541 C170.522001,348.417 177.947001,345.262 179.597001,344.53 C189.627001,340.08 218.172001,328 218.658001,328 C218.978001,328 219.838001,327.438 220.570001,326.75 C221.301001,326.063 225.018001,323.025 228.830001,320 L235.761001,314.5 L247.100001,291.718 L258.439001,268.937 L266.518001,262.504 C280.603001,251.29 296.537001,238.82 309.967001,228.5 C317.125001,223 323.007001,218.213 323.039001,217.862 C323.071001,217.511 314.554001,211.661 304.113001,204.862 C293.672001,198.063 285.122001,192.256 285.113001,191.958 C285.104001,191.66 287.910001,190.141 291.347001,188.582 C305.405001,182.206 309.221001,180.057 324.077001,170.152 C336.045001,162.171 345.393001,154.65 364.923001,137.284 C378.853001,124.899 390.461001,114.216 390.718001,113.545 C390.976001,112.874 384.057001,97.514 375.344001,79.412 L359.502001,46.5 L349.380001,46.216 C343.812001,46.06 339.028001,46.303 338.747001,46.757 M333.347001,49.031 C332.109001,49.529 331.097001,50.133 331.097001,50.374 C331.097001,51.118 335.095001,49.812 335.672001,48.879 C336.308001,47.85 336.281001,47.852 333.347001,49.031 M325.597001,52.535 C323.085001,53.745 323.003001,53.882 325.097001,53.378 C326.472001,53.046 328.025001,52.376 328.547001,51.888 C329.843001,50.677 329.131001,50.833 325.597001,52.535 M305.597001,60.535 C303.096001,61.74 303.013001,61.878 305.097001,61.369 C307.931001,60.677 311.115001,59.053 309.597001,59.076 C309.047001,59.084 307.247001,59.74 305.597001,60.535 M298.097001,63.5 C296.722001,64.286 296.047001,64.929 296.597001,64.929 C297.147001,64.929 298.722001,64.286 300.097001,63.5 C301.472001,62.714 302.147001,62.071 301.597001,62.071 C301.047001,62.071 299.472001,62.714 298.097001,63.5 M291.347001,66.031 C287.998001,67.377 288.624001,68.061 292.097001,66.85 C293.747001,66.275 295.097001,65.623 295.097001,65.402 C295.097001,64.809 293.880001,65.013 291.347001,66.031 M252.969001,97.671 C251.507001,99.451 232.502001,112.07 225.253001,116.074 L220.909001,118.474 L226.753001,120.223 C233.690001,122.3 235.355001,122.367 241.986001,120.836 L247.028001,119.672 L250.141001,110.586 C255.476001,95.011 255.593001,94.477 252.969001,97.671 M397.138001,122.123 C399.443001,126.73 401.533001,130.718 401.782001,130.985 C402.030001,131.252 402.991001,130.518 403.915001,129.355 C404.840001,128.192 407.348001,125.15 409.488001,122.595 C411.628001,120.04 413.129001,117.698 412.822001,117.391 C412.515001,117.085 409.106001,116.437 405.247001,115.953 C401.388001,115.468 397.042001,114.773 395.589001,114.409 L392.947001,113.745 L397.138001,122.123 M395.097001,115.49 C395.097001,115.683 396.706001,119.008 398.672001,122.878 L402.247001,129.915 L407.027001,124.208 C412.255001,117.966 412.050001,117.21 405.090001,117.07 C403.162001,117.032 400.124001,116.581 398.340001,116.07 C396.557001,115.558 395.097001,115.297 395.097001,115.49 M558.847001,140.278 C557.498001,143.549 557.097001,147.403 557.097001,157.096 L557.097001,169.67 L561.597001,174.235 C564.072001,176.745 566.097001,179.295 566.097001,179.9 C566.097001,180.505 566.605001,181 567.225001,181 C568.037001,181 568.184001,184.722 567.750001,194.25 C567.058001,209.405 567.623001,210.33 568.623001,195.682 C568.992001,190.282 569.436001,186.007 569.611001,186.182 C569.785001,186.357 570.226001,188.525 570.592001,191 C570.957001,193.475 571.744001,197.75 572.340001,200.5 C573.715001,206.847 573.714001,207.029 572.140001,234.5 C571.415001,247.15 570.787001,258.288 570.745001,259.25 C570.682001,260.679 569.728001,261 565.543001,261 C561.022001,261 560.281001,260.7 559.258001,258.453 C557.690001,255.013 557.697001,255 560.975001,255 C562.557001,255 564.296001,254.438 564.839001,253.75 C565.381001,253.063 566.045001,244.625 566.314001,235 C566.592001,225.088 566.488001,220.535 566.075001,224.5 C565.674001,228.35 565.290001,236.311 565.221001,242.191 C565.153001,248.071 564.760001,253.089 564.347001,253.342 C563.934001,253.595 562.060001,253.959 560.182001,254.151 C556.840001,254.493 556.676001,254.33 552.509001,246.5 L548.252001,238.5 L539.924001,238.429 L531.597001,238.358 L539.352001,238.721 L547.107001,239.084 L546.639001,242.792 C546.381001,244.831 545.689001,250.325 545.101001,255 C544.514001,259.675 543.614001,266.65 543.102001,270.5 C542.591001,274.35 541.870001,280.65 541.502001,284.5 C541.133001,288.35 540.372001,291.795 539.810001,292.154 C539.248001,292.514 538.390001,295.439 537.904001,298.654 C537.418001,301.87 536.377001,308.775 535.591001,314 C529.840001,352.247 529.508001,354.125 528.364001,354.859 C527.815001,355.212 527.032001,356.572 526.622001,357.882 C526.038001,359.752 525.677001,359.967 524.943001,358.882 C524.228001,357.825 524.063001,357.971 524.245001,359.5 C524.375001,360.6 523.270001,364.101 521.789001,367.28 C520.309001,370.458 519.097001,373.774 519.097001,374.648 C519.097001,375.522 518.127001,379.064 516.941001,382.519 C514.589001,389.373 514.894001,389.133 500.097001,395.806 C494.071001,398.524 490.545001,400.169 468.597001,410.501 C457.839001,415.566 444.802001,421.644 438.097001,424.721 C435.072001,426.109 427.913001,429.461 422.189001,432.169 C411.332001,437.306 401.029001,441.265 400.332001,440.568 C400.109001,440.345 400.805001,439.691 401.880001,439.116 C402.955001,438.541 404.054001,438.29 404.323001,438.559 C404.592001,438.828 405.381001,438.362 406.077001,437.524 C406.773001,436.686 407.697001,436 408.130001,436 C409.336001,436 424.097001,428.962 424.097001,428.387 C424.097001,428.109 423.760001,428.058 423.347001,428.273 C422.934001,428.488 420.797001,429.476 418.597001,430.47 C405.615001,436.332 398.131001,440.246 398.564001,440.946 C398.836001,441.386 396.366001,442.728 393.075001,443.928 C389.785001,445.127 385.139001,447.772 382.752001,449.805 C377.102001,454.614 373.753001,457.225 367.398001,461.774 C364.535001,463.823 362.171001,465.864 362.145001,466.308 C362.119001,466.753 364.910001,464.989 368.347001,462.388 C371.785001,459.787 375.245001,457.173 376.036001,456.58 C376.828001,455.986 375.515001,458.293 373.120001,461.706 C370.725001,465.12 368.320001,467.638 367.776001,467.302 C367.233001,466.966 367.070001,467.147 367.415001,467.705 C368.594001,469.613 362.598001,475.851 352.097001,483.641 C346.322001,487.926 341.372001,491.674 341.097001,491.972 C340.822001,492.269 336.772001,495.399 332.097001,498.927 C320.487001,507.689 315.689001,511.397 315.097001,512.064 C314.652001,512.565 299.285001,524.38 290.467001,531 C288.635001,532.375 283.214001,536.538 278.418001,540.25 C272.156001,545.098 268.866001,547 266.741001,547 C264.800001,547 261.865001,548.462 258.212001,551.25 C251.113001,556.668 250.716001,556.978 243.914001,562.438 L238.232001,567 L219.914001,567.012 C203.265001,567.024 200.778001,567.259 192.597001,569.595 C183.382001,572.227 177.786001,573.77 175.053001,574.432 C174.203001,574.638 166.103001,576.837 157.053001,579.32 C148.002001,581.803 138.910001,584.147 136.847001,584.529 C134.785001,584.91 133.097001,585.653 133.097001,586.179 C133.097001,586.705 132.159001,586.837 131.013001,586.473 C129.868001,586.11 125.480001,585.218 121.263001,584.491 C117.047001,583.765 109.328001,582.438 104.111001,581.543 C98.0280006,580.499 94.5050006,580.275 94.2910006,580.919 C93.9860006,581.833 85.0190006,584.797 72.8210006,588.015 C70.1950006,588.707 67.8580006,589.577 67.6290006,589.948 C67.4010006,590.318 67.6680006,592.41 68.2230006,594.598 L69.2320006,598.575 L81.9150006,600.363 C88.8900006,601.346 99.0970006,602.762 104.597001,603.51 C110.097001,604.258 117.972001,605.363 122.097001,605.967 C145.578001,609.406 143.175001,609.405 165.097001,605.993 C168.672001,605.436 175.872001,604.342 181.097001,603.561 C202.911001,600.3 213.115001,598.784 222.097001,597.471 C249.025001,593.534 244.410001,595.327 263.516001,581.382 C272.910001,574.525 286.672001,564.556 294.097001,559.23 C309.145001,548.435 313.754001,544.092 326.097001,529.079 C337.851001,514.782 344.731001,506.623 366.068001,481.679 L384.539001,460.085 L396.517001,455.978 C403.105001,453.719 409.307001,452.083 410.298001,452.342 C411.289001,452.601 411.848001,452.405 411.539001,451.907 C411.026001,451.076 412.703001,450.617 415.836001,450.73 C416.518001,450.754 416.829001,450.375 416.527001,449.887 C416.226001,449.399 416.483001,449 417.098001,449 C418.326001,449 417.813001,465.151 415.987001,483.932 C414.982001,494.271 413.764001,497.542 409.644001,500.961 C408.356001,502.03 408.097001,505.169 408.097001,519.693 L408.097001,537.14 L402.362001,545.07 C399.207001,549.432 396.352001,553 396.017001,553 C395.681001,553 394.661001,552.175 393.749001,551.168 C392.188001,549.443 392.326001,549.006 396.094001,543.744 L400.097001,538.154 L400.097001,527.495 L400.097001,516.837 L403.710001,512.168 L407.323001,507.5 L403.210001,511.879 L399.097001,516.257 L399.097001,527.288 L399.097001,538.318 L394.945001,543.818 L390.793001,549.317 L400.610001,558.487 C407.556001,564.975 410.185001,568.049 409.598001,568.998 C408.998001,569.968 409.212001,570.17 410.368001,569.726 C411.248001,569.389 412.109001,569.496 412.282001,569.964 C412.455001,570.433 423.172001,574.407 436.097001,578.796 C449.022001,583.186 465.309001,588.729 472.291001,591.114 L484.985001,595.451 L480.291001,597.132 C477.709001,598.057 472.222001,599.795 468.097001,600.995 C463.972001,602.195 458.797001,603.789 456.597001,604.538 C446.827001,607.864 432.669001,612 431.054001,612 C430.082001,612 422.607001,608.805 414.442001,604.9 C383.810001,590.249 377.722001,587.582 378.755001,589.264 C382.148001,594.79 397.638001,617.711 398.513001,618.5 C399.424001,619.322 402.001001,624.039 402.609001,626 C403.296001,628.212 407.320001,637.238 412.417001,648 C413.589001,650.475 414.582001,652.725 414.623001,653 C414.664001,653.275 415.777001,655.75 417.097001,658.5 C418.417001,661.25 419.542001,663.725 419.597001,664 C419.708001,664.55 422.918001,671.73 426.528001,679.5 C431.560001,690.333 433.477001,694.521 433.620001,695 C433.884001,695.882 435.342001,699.388 437.155001,703.5 C438.126001,705.7 438.997001,707.95 439.093001,708.5 C439.189001,709.05 439.726001,710.053 440.287001,710.729 C440.848001,711.405 441.510001,715.123 441.757001,718.992 C442.152001,725.148 442.717001,726.803 446.291001,732.263 C448.537001,735.693 451.157001,739.4 452.114001,740.5 C453.070001,741.6 455.778001,747.567 458.132001,753.76 C460.485001,759.953 462.580001,764.851 462.787001,764.644 C463.560001,763.87 454.707001,742.394 452.539001,739.784 C447.665001,733.916 443.339001,725.429 442.847001,720.768 C442.572001,718.166 442.714001,716.263 443.163001,716.541 C443.612001,716.819 445.666001,719.848 447.727001,723.273 C449.788001,726.698 451.758001,729.725 452.104001,730 C454.538001,731.937 461.097001,745.657 468.211001,763.697 C474.881001,780.611 477.048001,785.112 478.933001,785.971 C481.259001,787.031 481.268001,787.09 479.508001,789.774 C478.525001,791.273 477.151001,793.599 476.453001,794.942 C475.314001,797.136 468.924001,799.791 464.383001,799.956 C463.716001,799.98 465.402001,796.287 468.131001,791.75 C470.860001,787.212 473.094001,782.948 473.095001,782.273 C473.096001,781.598 472.064001,780.369 470.801001,779.542 C469.532001,778.71 467.681001,775.682 466.662001,772.769 C465.647001,769.871 464.400001,767.05 463.889001,766.5 C463.378001,765.95 463.934001,768.2 465.126001,771.5 C466.317001,774.8 468.373001,778.417 469.695001,779.538 C471.016001,780.658 472.097001,781.979 472.097001,782.472 C472.097001,782.965 469.749001,787.335 466.879001,792.183 C462.896001,798.911 461.260001,800.869 459.964001,800.458 C459.031001,800.162 457.061001,800.222 455.587001,800.592 C453.544001,801.105 453.227001,801.491 454.252001,802.216 C455.163001,802.861 454.532001,802.985 452.297001,802.599 C450.284001,802.252 449.231001,802.408 449.597001,803 C449.963001,803.592 448.910001,803.748 446.897001,803.401 C444.389001,802.968 443.957001,803.088 445.097001,803.9 C446.821001,805.129 446.596001,805.193 439.475001,805.504 C436.757001,805.622 434.543001,806.449 432.975001,807.929 C431.667001,809.164 428.940001,811.029 426.915001,812.073 C424.890001,813.117 422.897001,814.514 422.488001,815.177 C421.659001,816.518 427.480001,813.176 433.540001,808.833 C436.449001,806.747 437.684001,806.331 438.248001,807.245 C438.669001,807.926 438.695001,808.767 438.305001,809.113 C437.225001,810.074 390.012001,839 389.524001,839 C388.309001,839 389.373001,836.579 391.347001,834.851 L393.597001,832.881 L390.773001,834.604 C388.857001,835.773 388.103001,836.917 388.429001,838.162 C388.693001,839.172 388.501001,840.25 388.003001,840.558 C387.505001,840.866 387.097001,842.866 387.097001,845.002 C387.097001,847.886 386.517001,849.302 384.847001,850.499 L382.597001,852.112 L385.367001,851.442 C388.261001,850.743 406.735001,843.779 435.597001,832.508 C456.505001,824.343 477.588001,816.129 481.597001,814.586 C483.247001,813.951 487.972001,811.197 492.097001,808.467 C496.222001,805.736 500.047001,803.277 500.597001,803.001 C501.147001,802.726 503.421001,801.313 505.650001,799.862 C507.880001,798.411 512.952001,795.587 516.923001,793.588 C522.999001,790.528 523.996001,789.679 523.220001,788.226 C522.714001,787.277 518.827001,779.3 514.583001,770.5 C510.339001,761.7 502.306001,745.05 496.732001,733.5 L486.597001,712.5 L486.087001,652.5 C485.653001,601.53 485.336001,591.672 483.977001,587 C483.097001,583.975 480.402001,573.236 477.987001,563.136 L473.597001,544.773 L463.347001,539.658 C457.710001,536.845 453.097001,534.231 453.097001,533.848 C453.097001,533.465 459.775001,526.763 467.937001,518.954 L482.778001,504.756 L481.539001,499.628 C480.858001,496.808 478.393001,487.024 476.063001,477.886 L471.825001,461.273 L473.436001,455.886 C474.321001,452.924 476.548001,444.903 478.383001,438.061 L481.721001,425.623 L492.659001,421.737 L503.597001,417.851 L521.597001,387.812 C531.497001,371.291 541.389001,355.688 543.580001,353.137 C545.771001,350.587 556.246001,339.186 566.859001,327.801 L586.155001,307.103 L597.876001,315.479 C604.323001,320.086 612.644001,326.025 616.368001,328.678 C634.230001,341.398 633.774001,341.002 630.528001,340.985 C625.551001,340.961 592.945001,339.095 586.476001,338.465 L580.356001,337.869 L581.731001,343.184 C584.001001,351.961 584.522001,350.452 582.399001,341.25 C582.004001,339.535 582.322001,339.004 583.739001,339.015 C587.679001,339.048 588.157001,340.199 586.863001,346.552 C586.197001,349.823 585.339001,352.729 584.957001,353.008 C584.169001,353.584 585.101001,358.97 590.996001,387.889 C593.282001,399.103 594.953001,408.477 594.710001,408.72 C594.466001,408.964 594.875001,410.617 595.617001,412.395 C596.983001,415.664 596.568001,418.833 593.047001,432 C592.532001,433.925 591.189001,439.55 590.063001,444.5 C585.002001,466.737 584.919001,467 582.962001,467 C581.195001,467 581.096001,468.249 581.075001,490.75 C581.054001,512.782 580.911001,514.681 579.097001,517 C578.021001,518.375 577.117001,519.95 577.087001,520.5 C577.058001,521.05 576.373001,522.374 575.565001,523.441 C574.263001,525.163 574.097001,522.268 574.097001,497.808 C574.097001,471.074 574.158001,470.217 576.097001,469.71 C577.197001,469.423 578.061001,468.583 578.018001,467.844 C577.959001,466.833 577.814001,466.81 577.435001,467.75 C577.157001,468.438 576.068001,469 575.014001,469 C573.168001,469 573.097001,470.099 573.097001,498.829 L573.097001,528.659 L566.427001,540.579 C562.758001,547.136 557.081001,557.225 553.810001,563 C550.540001,568.775 547.316001,574.493 546.647001,575.706 C545.978001,576.919 545.635001,579.307 545.886001,581.012 L546.341001,584.113 L551.969001,583.4 C555.064001,583.008 558.272001,582.701 559.097001,582.718 C561.760001,582.774 593.352001,580.083 593.511001,579.787 C593.595001,579.629 594.267001,577.7 595.004001,575.5 C595.741001,573.3 597.136001,569.7 598.106001,567.5 C599.076001,565.3 604.218001,551.8 609.534001,537.5 C614.850001,523.2 619.598001,510.6 620.086001,509.5 C620.573001,508.4 621.257001,506.481 621.606001,505.235 C622.649001,501.514 623.735001,503.464 626.058001,513.234 C629.381001,527.208 636.975001,558.707 638.659001,565.5 C639.477001,568.8 642.594001,577.8 645.585001,585.5 C648.576001,593.2 653.558001,606.025 656.656001,614 C659.754001,621.975 664.783001,635.025 667.832001,643 C674.092001,659.375 675.562001,663.186 679.979001,674.5 C681.697001,678.9 685.239001,685.285 687.850001,688.69 C692.601001,694.885 710.197001,717.91 717.452001,727.425 C719.572001,730.205 723.487001,735.22 726.151001,738.568 C731.516001,745.31 728.824001,744.032 764.597001,756.819 C798.116001,768.8 798.194001,768.825 796.884001,767.135 C795.729001,765.646 789.565001,758.079 782.065001,748.945 C780.460001,746.989 776.988001,742.714 774.351001,739.445 C771.714001,736.175 768.666001,732.4 767.577001,731.056 C763.850001,726.457 754.492001,717.502 747.141001,711.5 C743.098001,708.2 738.932001,704.684 737.881001,703.688 C736.831001,702.691 735.438001,702.056 734.785001,702.277 C734.042001,702.528 730.494001,694.769 725.325001,681.59 C715.970001,657.739 706.552001,633.911 704.784001,629.618 C704.131001,628.032 701.497001,622.427 698.931001,617.162 L694.265001,607.588 L693.614001,611.544 C693.257001,613.72 692.859001,616.175 692.731001,617 C692.603001,617.825 692.178001,609.725 691.787001,599 C691.115001,580.55 689.624001,562.792 687.044001,542.5 C686.414001,537.55 685.744001,531.925 685.553001,530 C685.363001,528.075 684.713001,522.225 684.109001,517 C683.505001,511.775 682.405001,502.1 681.666001,495.5 C680.718001,487.047 678.639001,477.588 674.631001,463.5 C671.502001,452.5 668.334001,441.25 667.590001,438.5 C666.150001,433.17 657.533001,402.522 656.064001,397.5 C655.240001,394.685 654.329001,391.373 650.495001,377.255 C649.636001,374.09 648.432001,369.475 647.819001,367 C647.206001,364.525 646.455001,362.275 646.151001,362 C645.846001,361.725 644.472001,359.25 643.097001,356.5 C641.722001,353.75 640.322001,351.275 639.987001,351 C637.708001,349.134 635.309001,340.608 630.614001,317.684 C627.664001,303.283 624.064001,285.875 622.614001,279 C618.659001,260.254 617.253001,252.746 615.123001,239 C611.924001,218.359 607.097001,183.12 607.097001,180.405 C607.097001,178.617 605.544001,176.451 601.847001,173.08 C588.094001,160.54 583.159001,156.129 577.816001,151.602 C571.148001,145.953 571.158001,145.949 567.239001,156.054 C565.971001,159.324 564.520001,162 564.015001,162 C563.510001,162 563.097001,165.012 563.097001,168.694 L563.097001,175.389 L560.597001,172 C558.248001,168.816 558.097001,167.865 558.097001,156.256 C558.097001,147.016 558.490001,143.14 559.658001,140.883 C560.516001,139.223 561.079001,137.453 560.908001,136.95 C560.737001,136.447 559.809001,137.944 558.847001,140.278 M249.097001,210.257 C249.097001,210.398 248.655001,212.055 248.114001,213.939 C247.574001,215.823 247.516001,216.945 247.985001,216.433 C249.008001,215.315 250.355001,210 249.616001,210 C249.331001,210 249.097001,210.115 249.097001,210.257 M169.347001,219.119 C167.560001,219.635 166.097001,220.269 166.097001,220.529 C166.097001,221.612 170.864001,220.887 172.656001,219.532 C174.856001,217.868 174.035001,217.765 169.347001,219.119 M487.480001,239.96 L472.364001,240.5 L473.198001,242.75 L474.033001,245 L505.172001,245 C534.415001,245 536.270001,245.107 535.645001,246.75 C535.137001,248.084 535.257001,248.224 536.151001,247.337 C539.154001,244.357 535.825001,244 505.038001,244 C478.202001,244 474.097001,243.801 474.097001,242.5 C474.097001,241.251 476.230001,240.981 486.847001,240.888 C493.859001,240.827 503.872001,240.449 509.097001,240.05 L518.597001,239.324 L510.597001,239.372 C506.197001,239.399 495.795001,239.663 487.480001,239.96 M536.202001,254.793 C536.629001,257.382 537.040001,260.4 537.116001,261.5 C537.193001,262.6 537.482001,262.938 537.759001,262.25 C538.943001,259.316 540.024001,261.367 539.603001,265.75 L539.147001,270.5 L540.103001,266.057 C540.936001,262.182 540.805001,261.377 539.078001,259.768 C537.853001,258.627 537.097001,256.623 537.097001,254.52 C537.097001,252.649 536.721001,250.886 536.262001,250.602 C535.803001,250.318 535.776001,252.204 536.202001,254.793 M234.640001,257.25 C233.892001,259.623 232.911001,268.499 233.456001,267.964 C234.108001,267.324 235.962001,256 235.414001,256 C235.205001,256 234.857001,256.563 234.640001,257.25 M466.674001,265.75 C462.927001,268.913 458.677001,272.285 457.229001,273.245 C455.782001,274.204 455.047001,275.001 455.597001,275.015 C456.147001,275.028 462.654001,275.686 470.058001,276.476 C477.461001,277.266 483.694001,277.737 483.907001,277.523 C484.381001,277.049 482.523001,270.814 480.432001,265.865 C479.227001,263.012 475.793001,260 473.745001,260 C473.602001,260 470.421001,262.587 466.674001,265.75 M537.640001,280.75 C537.310001,283.913 536.847001,288.075 536.612001,290 C536.347001,292.169 536.497001,292.929 537.006001,292 C537.873001,290.419 539.370001,275 538.656001,275 C538.428001,275 537.971001,277.587 537.640001,280.75 M533.733001,297.636 C533.380001,300.216 533.283001,302.52 533.519001,302.755 C533.754001,302.991 534.260001,301.096 534.642001,298.545 C535.025001,295.995 535.122001,293.691 534.857001,293.427 C534.593001,293.162 534.087001,295.057 533.733001,297.636 M220.982001,295.25 C220.919001,295.938 220.940001,297.247 221.029001,298.16 C221.119001,299.073 220.335001,300.423 219.288001,301.16 C216.568001,303.075 207.393001,310.903 203.181001,314.904 C200.159001,317.773 201.714001,316.909 205.706001,313.5 C206.350001,312.95 210.270001,309.642 214.417001,306.15 C220.720001,300.842 221.944001,299.324 221.875001,296.9 C221.793001,293.996 221.198001,292.899 220.982001,295.25 M531.665001,310.25 C531.286001,313.688 530.296001,320.481 529.466001,325.347 C528.636001,330.212 528.214001,334.45 528.527001,334.763 C528.841001,335.077 529.097001,334.867 529.097001,334.298 C529.097001,333.728 529.746001,329.491 530.539001,324.881 C532.367001,314.254 533.504001,304 532.855001,304 C532.580001,304 532.045001,306.813 531.665001,310.25 M526.696001,342.933 C525.054001,354.081 524.912001,355.459 525.459001,354.94 C526.206001,354.232 528.278001,339.847 527.714001,339.283 C527.484001,339.053 527.026001,340.696 526.696001,342.933 M39.0970006,356.067 C44.7340006,356.82 67.7640006,357.291 67.0140006,356.637 C66.7840006,356.437 59.1720006,356.062 50.0970006,355.803 C41.0220006,355.544 36.0720006,355.663 39.0970006,356.067 M97.1150006,365.453 C95.7120006,369.142 95.9000006,369.984 97.4860006,367.122 L98.8040006,364.744 L100.451001,367.095 C101.356001,368.387 102.097001,369.078 102.097001,368.63 C102.097001,368.182 101.205001,366.682 100.115001,365.296 L98.1330006,362.776 L97.1150006,365.453 M104.556001,367.067 C104.193001,367.653 104.111001,368.348 104.373001,368.61 C104.635001,368.872 105.116001,368.392 105.442001,367.543 C106.118001,365.781 105.542001,365.471 104.556001,367.067 M512.097001,387 C511.196001,387.582 511.072001,387.975 511.788001,387.985 C512.443001,387.993 513.257001,387.55 513.597001,387 C514.364001,385.758 514.018001,385.758 512.097001,387 M500.918001,391.829 C494.074001,395.123 489.253001,398.036 493.127001,396.537 C496.808001,395.113 510.490001,388.13 509.597001,388.131 C509.047001,388.132 505.141001,389.796 500.918001,391.829 M32.5030006,400.49 C30.4750006,403.569 30.4660006,403.737 32.2180006,405.901 L34.0250006,408.133 L34.6350006,405.705 C34.9700006,404.369 35.0990006,401.935 34.9210006,400.294 L34.5970006,397.312 L32.5030006,400.49 M478.597001,402.47 C472.547001,405.414 468.047001,407.832 468.597001,407.843038 C469.147001,407.854 474.547001,405.454 480.597001,402.51 C486.647001,399.566 491.147001,397.148 490.597001,397.136955 C490.047001,397.125 484.647001,399.525 478.597001,402.47 M591.225001,407.405 C590.605001,409.869 590.134001,412.699 590.180001,413.693 C590.226001,414.687 590.907001,412.843 591.692001,409.595 C592.478001,406.348 592.948001,403.518 592.737001,403.307 C592.526001,403.096 591.846001,404.94 591.225001,407.405 M459.569001,411.308 C455.734001,413.128 449.338001,416.131 445.354001,417.982 C441.371001,419.833 438.290001,421.526 438.508001,421.744 C438.725001,421.962 444.623001,419.409 451.613001,416.07 C458.603001,412.732 464.695001,410 465.151001,410 C465.606001,410 466.257001,409.55 466.597001,409 C467.474001,407.582 467.307001,407.637 459.569001,411.308 M6.11200063,410.772 C6.10400063,411.472 7.45100063,415.03 9.10600063,418.68 C10.7610006,422.33 11.9820006,425.448 11.8200006,425.61 C11.6590006,425.772 9.43600063,424.118 6.88200063,421.934 C2.02900063,417.786 1.78000063,417.798 0.723000633,422.224 C0.104000633,424.814 0.715000633,426.084 4.64200063,430.362 C5.21700063,430.988 9.26700063,436.173 13.6420006,441.885 C18.0170006,447.597 22.0810006,452.864 22.6730006,453.589 C23.3120006,454.371 26.7680006,455.101 31.1730006,455.383 C37.4090006,455.783 44.1980006,457.255 55.4910006,460.656 C57.2200006,461.176 57.1980006,461.025 55.2410006,458.925 C52.1180006,455.572 52.5590006,454.165 56.8470006,453.81 L60.5970006,453.5 L55.8580006,451.25 C50.1540006,448.542 49.7090006,448.501 50.4920006,450.75 C50.8740006,451.848 50.3350006,451.568 49.0460006,450 C47.9160006,448.625 44.2030006,444.175 40.7940006,440.11 C37.3860006,436.046 33.3470006,430.421 31.8180006,427.61 C29.4800006,423.31 29.0090006,423.875 30.8490006,428.771 C31.6150006,430.808 8.72600063,414.208 7.36200063,411.737 C6.68200063,410.507 6.12000063,410.072 6.11200063,410.772 M588.616001,418.5 C587.214001,425.253 587.089001,426.466 587.947001,425 C588.911001,423.353 590.223001,416 589.553001,416 C589.323001,416 588.902001,417.125 588.616001,418.5 M430.097001,425 C427.072001,426.598 425.047001,427.906 425.597001,427.906 C426.147001,427.906 429.072001,426.598 432.097001,425 C435.122001,423.402 437.147001,422.094 436.597001,422.094 C436.047001,422.094 433.122001,423.402 430.097001,425 M585.159001,433.146 C584.552001,435.976 584.249001,438.485 584.485001,438.721 C584.994001,439.231 585.686001,436.9 586.555001,431.75 C587.499001,426.153 586.429001,427.223 585.159001,433.146 M195.097001,441.334 C188.222001,441.9 183.425001,442.547 184.437001,442.772 C185.450001,442.997 192.363001,442.675 199.801001,442.055 C211.083001,441.116 213.513001,441.157 214.461001,442.307 C215.642001,443.741 233.908001,450.522 234.634001,449.797 C234.861001,449.569 230.558001,447.835 225.072001,445.942 C219.586001,444.049 215.097001,441.938 215.097001,441.25 C215.097001,439.824 213.361001,439.832 195.097001,441.334 M582.174001,446.077 C580.718001,452.866 581.502001,453.65 583.097001,447 C583.771001,444.191 584.091001,441.66 583.807001,441.377 C583.524001,441.094 582.789001,443.209 582.174001,446.077 M179.691001,443.152 C180.082001,443.785 179.546001,444.962 178.500001,445.766 C177.453001,446.571 177.233001,447.041 178.011001,446.81 C178.789001,446.579 180.082001,445.403 180.883001,444.195 C182.190001,442.227 182.167001,442 180.660001,442 C179.646001,442 179.262001,442.457 179.691001,443.152 M171.292001,447.738 C168.925001,448.555 167.150001,449.386 167.349001,449.585 C167.968001,450.204 174.993001,447.977 175.620001,446.963 C175.947001,446.433 176.076001,446.057 175.906001,446.126 C175.736001,446.195 173.660001,446.921 171.292001,447.738 M196.347001,446.747 C189.060001,446.918 183.097001,447.3 183.097001,447.595 C183.097001,447.89 183.515001,448.912 184.025001,449.866 C184.845001,451.397 183.474001,452.022 172.275001,455.223 C165.302001,457.215 155.653001,460.005 150.832001,461.423 C146.011001,462.84 141.231001,464 140.209001,464 C139.186001,464 134.834001,464.879 130.535001,465.953 C124.069001,467.569 122.032001,468.594 118.731001,471.896 C115.253001,475.374 114.573001,476.824 113.437001,483.193 C110.983001,496.955 109.842001,505.079 110.301001,505.537 C110.553001,505.79 113.873001,504.9 117.678001,503.561 C145.179001,493.881 154.264001,490.432 166.597001,484.986 C201.048001,469.774 203.390001,468.856 206.024001,469.532 C207.439001,469.895 212.872001,470.848 218.097001,471.65 C240.685001,475.117 241.885001,474.649 230.561001,466.785 L222.951001,461.5 L228.274001,459.116 L233.597001,456.732 L230.597001,455.508 C228.947001,454.834 224.360001,453.065 220.404001,451.576 C215.193001,449.615 213.362001,448.473 213.761001,447.434 C214.154001,446.408 213.640001,446.062 211.954001,446.218 C210.658001,446.338 203.634001,446.577 196.347001,446.747 M159.597001,451.538 C155.636001,452.908 155.632001,452.916 159.097001,452.346 C161.022001,452.029 163.272001,451.386 164.097001,450.916 C166.299001,449.661 164.172001,449.955 159.597001,451.538 M236.597001,451 C236.937001,451.55 238.201001,451.968 239.406001,451.93 C241.518001,451.862 241.525001,451.829 239.597001,451 C236.845001,449.817 235.866001,449.817 236.597001,451 M150.296001,453.986 C148.481001,454.416 146.714001,455.05 146.369001,455.394 C145.524001,456.239 152.208001,454.941 154.097001,453.893 C155.887001,452.9 154.767001,452.928 150.296001,453.986 M578.927001,459.921 C578.126001,463.203 577.799001,465.684 578.202001,465.435 C579.033001,464.921 581.341001,454.91 580.762001,454.331 C580.554001,454.124 579.729001,456.64 578.927001,459.921 M138.597001,457.456 C136.397001,458.204 131.118001,459.841 126.866001,461.093 C122.614001,462.346 119.334001,463.57 119.577001,463.813 C119.820001,464.057 122.174001,463.573 124.808001,462.739 C127.442001,461.905 132.859001,460.235 136.847001,459.028 C140.835001,457.821 144.097001,456.646 144.097001,456.417 C144.097001,455.765 142.909001,455.989 138.597001,457.456 M408.683001,470.195 C408.333001,475.863 407.779001,484.775 407.452001,490 C407.125001,495.225 407.110001,499.264 407.419001,498.976 C408.108001,498.33 410.375001,460.944 409.761001,460.331 C409.519001,460.089 409.034001,464.527 408.683001,470.195 M356.097001,470.55 C353.622001,472.492 350.922001,474.626 350.097001,475.291 C349.272001,475.956 345.222001,479.051 341.097001,482.168 C336.972001,485.285 328.140001,492.035 321.470001,497.168 C308.410001,507.219 289.224001,521.95 287.597001,523.177 C287.047001,523.591 285.022001,525.185 283.097001,526.719 C279.282001,529.758 274.264001,533.634 266.770001,539.331 C264.116001,541.349 262.257001,543 262.641001,543 C263.024001,543 267.555001,539.737 272.710001,535.75 C277.865001,531.763 283.593001,527.375 285.440001,526 C287.286001,524.625 293.439001,519.9 299.113001,515.5 C309.638001,507.338 317.274001,501.463 323.158001,497 C324.970001,495.625 327.611001,493.566 329.025001,492.425 C330.440001,491.284 336.997001,486.236 343.597001,481.207 C357.051001,470.955 361.834001,467.084 361.097001,467.045894 C360.822001,467.031 358.572001,468.608 356.097001,470.55 M241.597001,511.578 C238.297001,513.474 234.585001,515.458 233.347001,515.988 C232.109001,516.517 231.097001,517.173 231.097001,517.444 C231.097001,518.226 234.268001,516.851 238.396001,514.28 C242.251001,511.878 247.097001,509.735 247.097001,510.432 C247.097001,510.642 245.734001,513.853 244.067001,517.567 C242.401001,521.281 241.174001,524.73 241.341001,525.232 C241.508001,525.733 243.209001,522.399 245.121001,517.822 C247.033001,513.245 248.747001,509.163 248.930001,508.75 C249.543001,507.371 247.643001,508.104 241.597001,511.578 M227.494001,519.285 C226.337001,519.953 225.583001,521.052 225.819001,521.727 C226.056001,522.403 224.284001,525.553 221.883001,528.727 C219.482001,531.902 216.750001,535.719 215.811001,537.209 C214.760001,538.878 212.513001,540.394 209.956001,541.16 C207.674001,541.844 206.281001,542.561 206.859001,542.754 C210.022001,543.808 214.953001,539.873 220.878001,531.566 C224.299001,526.771 227.097001,522.369 227.097001,521.784 C227.097001,521.199 227.884001,520.123 228.847001,519.392 C231.033001,517.733 230.285001,517.674 227.494001,519.285 M236.097001,530.065 C233.622001,531.593 231.035001,532.878 230.347001,532.921 C229.660001,532.965 229.094001,534.013 229.090001,535.25 C229.083001,537.66 225.923001,543.122 224.473001,543.23 C223.991001,543.266 219.154001,544.839 213.724001,546.726 C208.294001,548.613 202.219001,550.308 200.224001,550.492 C198.229001,550.677 192.837001,551.345 188.242001,551.976 C183.647001,552.607 179.693001,552.929 179.455001,552.691 C179.217001,552.454 182.891001,551.027 187.619001,549.522 C192.347001,548.016 196.030001,546.6 195.804001,546.374 C195.578001,546.148 188.689001,548.241 180.495001,551.026 C171.955001,553.929 167.517001,555.809 170.097001,555.432 C172.572001,555.07 175.138001,554.338 175.799001,553.804 C176.460001,553.271 177.853001,553.105 178.894001,553.436 C179.936001,553.766 184.120001,553.558 188.192001,552.973 C192.265001,552.389 198.522001,551.69 202.097001,551.422 C205.672001,551.153 210.622001,550.527 213.097001,550.031 C215.572001,549.535 221.060001,548.815 225.293001,548.431 L232.990001,547.734 L237.170001,537.827 C239.469001,532.378 241.181001,527.778 240.974001,527.604 C240.767001,527.43 238.572001,528.537 236.097001,530.065 M200.097001,544.5 C198.172001,545.241 197.272001,545.862 198.097001,545.879 C198.922001,545.896 200.947001,545.292 202.597001,544.536 C206.459001,542.768 204.663001,542.742 200.097001,544.5 M258.097001,546 C256.722001,547.076 254.192001,547.966 252.474001,547.978 C250.248001,547.994 247.556001,549.435 243.097001,553 L236.842001,558 L227.720001,558.07 C222.702001,558.109 217.697001,558.568 216.597001,559.091 C214.854001,559.919 214.918001,559.976 217.097001,559.534 C218.472001,559.255 223.453001,559.021 228.167001,559.014 L236.736001,559 L243.167001,554.009 C247.361001,550.753 250.572001,549.015 252.400001,549.009 C253.942001,549.004 256.859001,547.875 258.882001,546.5 C260.906001,545.125 262.119001,544.01 261.579001,544.021904 C261.039001,544.034 259.472001,544.924 258.097001,546 M69.0970006,554 C68.1960006,554.582 68.0720006,554.975 68.7880006,554.985 C69.4430006,554.993 70.2570006,554.55 70.5970006,554 C71.3640006,552.758 71.0180006,552.758 69.0970006,554 M65.3970006,556.389 C64.9570006,557.152 63.6970006,558 62.5970006,558.273 C61.4970006,558.545 62.8470006,558.759 65.5970006,558.748 C68.3470006,558.737 69.5500006,558.528 68.2710006,558.284 C66.7630006,557.997 66.1360006,557.341 66.4890006,556.42 C67.1890006,554.598 66.4410006,554.576 65.3970006,556.389 M71.9100006,559.683 C72.6310006,559.972 73.4940006,559.936 73.8260006,559.604 C74.1580006,559.272 73.5680006,559.036 72.5140006,559.079 C71.3490006,559.127 71.1120006,559.364 71.9100006,559.683 M208.254001,560.995 C206.416001,561.43 204.391001,562.318 203.754001,562.969 C202.865001,563.879 203.176001,563.925 205.097001,563.169 C206.472001,562.627 209.172001,561.739 211.097001,561.194 C215.257001,560.017 213.045001,559.862 208.254001,560.995 M196.347001,564.119 C194.560001,564.635 193.097001,565.258 193.097001,565.504 C193.097001,566.138 199.302001,564.889 201.097001,563.893 C202.430001,563.153 202.430001,563.067 201.097001,563.121 C200.272001,563.153 198.134001,563.603 196.347001,564.119 M553.078001,566.09 C552.385001,567.416 550.622001,570.75 549.160001,573.5 C547.698001,576.25 546.673001,579.561 546.883001,580.858 C547.214001,582.904 547.667001,583.136 550.306001,582.608 C551.978001,582.274 554.477001,582 555.858001,582 C558.288001,582 558.346001,581.848 557.645001,577.25 C557.247001,574.638 556.741001,571.232 556.521001,569.682 C556.300001,568.132 555.719001,566.148 555.229001,565.272 C554.466001,563.908 554.158001,564.026 553.078001,566.09 M186.597001,567.047 C184.947001,567.511 181.428001,568.408 178.776001,569.041 C176.125001,569.674 174.153001,570.389 174.394001,570.631 C174.636001,570.872 176.805001,570.576 179.215001,569.972 C181.625001,569.369 185.509001,568.417 187.847001,567.857 C190.185001,567.296 192.097001,566.649 192.097001,566.419 C192.097001,565.833 190.114001,566.059 186.597001,567.047 M166.597001,572.538 C162.653001,573.902 162.646001,573.913 166.097001,573.331 C170.176001,572.643 174.347001,571.12 172.097001,571.14 C171.272001,571.148 168.797001,571.776 166.597001,572.538 M155.597001,575.538 C151.636001,576.908 151.632001,576.916 155.097001,576.346 C157.022001,576.029 159.272001,575.386 160.097001,574.916 C162.299001,573.661 160.172001,573.955 155.597001,575.538 M82.4500006,575.765 C81.8200006,576.169 84.0700006,576.537 87.4500006,576.583 C91.5500006,576.638 92.7640006,576.421 91.0970006,575.932 C87.7270006,574.944 83.8490006,574.869 82.4500006,575.765 M71.9250006,578.831 C68.8060006,579.749 65.9330006,580.823 65.5410006,581.218 C65.1490006,581.613 67.8740006,581.065 71.5970006,580 C75.3200006,578.935 78.6060006,577.825 78.8980006,577.532 C79.7170006,576.713 78.1010006,577.015 71.9250006,578.831 M98.0970006,577.899 C101.621001,579.133 119.184001,582.246 119.702001,581.729 C120.085001,581.345 106.358001,578.565 98.5970006,577.453 C95.8160006,577.055 95.7790006,577.087 98.0970006,577.899 M145.597001,578.039 C143.947001,578.498 140.122001,579.562 137.097001,580.404 C132.614001,581.651 132.337001,581.837 135.597001,581.407 C139.527001,580.888 144.650001,579.522 148.597001,577.938 C151.169001,576.906 149.464001,576.963 145.597001,578.039 M122.706001,582.009 C123.291001,582.594 125.531001,583.267 127.683001,583.505 C129.836001,583.743 130.697001,583.7 129.597001,583.411 C128.497001,583.121 126.257001,582.448 124.620001,581.915 C122.517001,581.23 121.955001,581.258 122.706001,582.009 M596.317001,589.186 C596.792001,593.163 597.409001,596.645 597.689001,596.925 C598.470001,597.707 596.942001,583.606 596.150001,582.728 C595.767001,582.304 595.842001,585.21 596.317001,589.186 M607.597001,590.518 C608.697001,591.414 610.497001,592.588 611.597001,593.128 L613.597001,594.11 L611.597001,592.482 C610.497001,591.586 608.697001,590.412 607.597001,589.872 L605.597001,588.89 L607.597001,590.518 M388.773001,602.85 C398.750001,617.743 398.784001,617.783 396.488001,612 C393.860001,605.382 384.426001,591.319 382.230001,590.745 C380.894001,590.396 382.836001,593.987 388.773001,602.85 M607.097001,597.364 C602.972001,599.12 598.247001,601.283 596.597001,602.171 C594.947001,603.06 590.756001,604.939 587.284001,606.349 C580.981001,608.907 576.617001,612.239 559.597001,627.493 C554.647001,631.929 548.199001,637.529 545.268001,639.938 L539.939001,644.318 L531.702001,642.882 L523.465001,641.445 L526.441001,645.973 C530.657001,652.387 531.856001,653.359 528.635001,647.75 C526.410001,643.876 526.201001,643 527.502001,643 C528.379001,643 529.097001,643.472 529.097001,644.048 C529.097001,644.624 530.771001,647.662 532.816001,650.798 C536.940001,657.12 537.467001,657.963 541.182001,664.177 C542.604001,666.554 551.348001,680.65 560.613001,695.5 C569.878001,710.35 578.807001,724.975 580.456001,728 C582.105001,731.025 585.306001,735.75 587.568001,738.5 C589.830001,741.25 593.687001,746.2 596.139001,749.5 C598.591001,752.8 600.934001,755.65 601.347001,755.833 C601.760001,756.017 602.097001,757.381 602.097001,758.865 C602.097001,761.978 608.644001,773 610.493001,773 C612.785001,773 617.204001,790.115 617.524001,800.234 C618.285001,824.279 619.346001,836.509 620.769001,837.649 C621.956001,838.6 621.312001,839.547 617.031001,843.149 C614.187001,845.542 608.651001,850.327 604.728001,853.781 C597.890001,859.805 597.392001,860.056 592.597001,859.907 C589.847001,859.822 586.472001,860.193 585.097001,860.73 C583.722001,861.268 579.697001,862.001 576.153001,862.359 C572.609001,862.717 569.459001,863.352 569.153001,863.771 C568.563001,864.578 556.752001,872.405 543.791001,880.578 C536.435001,885.216 529.811001,890.057 533.097001,888.393 C533.922001,887.975 538.936001,884.795 544.240001,881.326 C554.474001,874.632 557.108001,873.262 557.080001,874.643 C557.065001,875.366 553.649001,877.65 542.295001,884.529 C541.361001,885.095 535.422001,888.944 529.097001,893.083 C512.505001,903.942 510.481001,905.085 508.911001,904.482 C507.638001,903.994 495.097001,911.242 495.097001,912.466 C495.097001,912.746 497.573001,911.391 500.600001,909.455 C506.963001,905.385 509.097001,904.433 509.097001,905.666 C509.097001,906.149 507.519001,907.395 505.591001,908.433 C503.663001,909.472 502.286001,910.522 502.531001,910.767 C502.776001,911.013 517.067001,908.411 534.287001,904.987 L565.597001,898.76 L597.597001,883.003 C631.349001,866.383 631.331001,866.391 643.097001,862.965 C659.025001,858.326 662.633001,856.85 670.171001,851.89 C676.995001,847.399 677.858001,846.502 677.147001,844.633 C674.927001,838.796 661.423001,804.278 654.736001,787.348 C650.576001,776.814 646.666001,765.339 646.048001,761.848 C645.429001,758.356 644.527001,753.475 644.042001,751 C643.558001,748.525 642.434001,742.45 641.544001,737.5 C640.654001,732.55 639.309001,725.125 638.554001,721 C637.800001,716.875 636.447001,709.45 635.549001,704.5 C634.651001,699.55 633.528001,693.475 633.055001,691 C631.068001,680.611 628.916001,668.962 627.513001,661 C624.193001,642.15 623.114001,636.13 621.602001,628 C620.732001,623.325 619.846001,618.375 619.633001,617 C617.530001,603.407 616.006001,595.515 615.366001,594.905 C614.943001,594.502 611.222001,595.608 607.097001,597.364 M531.097001,653.941 C531.097001,654.459 531.491001,655.125 531.972001,655.423 C532.454001,655.72 534.724001,659.122 537.017001,662.982 C539.310001,666.842 541.443001,670 541.757001,670 C542.070001,670 541.683001,668.987 540.895001,667.75 C540.108001,666.513 537.774001,662.688 535.708001,659.25 C532.027001,653.124 531.097001,652.053 531.097001,653.941 M544.175001,674.75 C545.408001,676.813 547.469001,679.932 548.757001,681.683 C550.044001,683.434 551.097001,685.113 551.097001,685.414 C551.097001,686.234 558.086001,697 558.618001,697 C559.148001,697 554.950001,689.919 547.800001,678.75 C542.743001,670.852 540.106001,667.942 544.175001,674.75 M724.168001,671.5 C724.168001,672.05 724.811001,673.625 725.597001,675 C726.383001,676.375 727.026001,677.05 727.026001,676.5 C727.026001,675.95 726.383001,674.375 725.597001,673 C724.811001,671.625 724.168001,670.95 724.168001,671.5 M727.520001,679.75 C731.758001,693.034 736.197001,700.109 736.776001,694.5 C736.936001,692.946 736.867001,692.89 736.466001,694.25 C735.532001,697.418 734.582001,696.107 731.207001,687 C729.372001,682.05 727.667001,678 727.417001,678 C727.167001,678 727.213001,678.788 727.520001,679.75 M559.097001,698.941 C559.097001,699.459 559.504001,700.134 560.002001,700.441 C560.499001,700.748 562.258001,703.363 563.910001,706.25 C565.563001,709.138 567.678001,712.4 568.611001,713.5 C570.247001,715.428 570.257001,715.41 568.886001,713 C564.979001,706.131 559.904001,698 559.525001,698 C559.289001,698 559.097001,698.423 559.097001,698.941 M570.721001,717.25 C576.216001,726.511 599.566001,763.754 600.345001,764.5 C601.816001,765.907 601.781001,765.847 588.583001,744.5 C571.020001,716.091 570.962001,716 570.452001,716 C570.192001,716 570.313001,716.563 570.721001,717.25 M602.097001,768 C602.686001,769.1 603.392001,770 603.667001,770 C603.942001,770 603.686001,769.1 603.097001,768 C602.508001,766.9 601.802001,766 601.527001,766 C601.252001,766 601.508001,766.9 602.097001,768 M605.090001,774.959 C605.504001,777.225 606.106001,779.342 606.427001,779.664 C607.289001,780.525 605.967001,772.644 605.086001,771.67 C604.674001,771.213 604.675001,772.693 605.090001,774.959 M607.097001,781.928 C607.097001,783.752 611.256001,797.175 611.687001,796.743 C612.066001,796.364 608.160001,781.811 607.484001,781.083 C607.271001,780.854 607.097001,781.234 607.097001,781.928 M612.572001,800.167 C612.890001,801.794 612.607001,803.031 611.845001,803.338 C610.943001,803.702 610.927001,803.864 611.788001,803.921 C613.667001,804.046 614.190001,802.389 613.076001,799.842 C612.084001,797.575 612.068001,797.585 612.572001,800.167 M612.513001,822.899 C612.727001,829.546 613.150001,831.566 614.540001,832.582 C616.834001,834.26 616.450001,834.769 606.789001,842.85 C602.283001,846.618 596.347001,851.823 593.597001,854.415 C590.847001,857.008 592.817001,855.644 597.974001,851.384 C603.131001,847.124 609.656001,841.472 612.474001,838.824 C617.342001,834.25 617.503001,833.938 615.713001,832.547 C614.282001,831.435 613.639001,829.094 613.036001,822.792 L612.242001,814.5 L612.513001,822.899 M408.023001,823.643 C397.284001,830.249 390.205001,835.097 395.097001,832.496 C397.920001,830.994 419.596001,817.645 420.547001,816.822 C423.048001,814.658 419.404001,816.642 408.023001,823.643 M564.575001,868.161 C557.812001,872.683 556.240001,874.005 557.647001,873.989 C559.420001,873.968 572.360001,865.281 571.454001,864.721 C570.958001,864.414 567.863001,865.962 564.575001,868.161 M528.087001,890.75 C526.736001,891.712 521.798001,894.86 517.114001,897.744 C512.430001,900.628 508.964001,902.991 509.412001,902.994004 C510.390001,903.001 525.558001,893.755 529.097001,890.995 C532.211001,888.566 531.420001,888.374 528.087001,890.75"/></g></svg>