<svg xmlns="http://www.w3.org/2000/svg" width="306.889" height="911.879" viewBox="0 0 306.889 911.879"><g fill="#ABABAB" fill-rule="evenodd"><path fill-opacity=".4" d="M175.943,18.189 C168.549,28.193 162.016,37.023 161.424,37.811 C160.538,38.992 158.459,37.883 149.616,31.514 C143.713,27.262 138.773,23.945 138.638,24.142 C138.503,24.339 137.959,25.541 137.429,26.813 C136.49,29.066 136.168,28.899 125.232,20.501 L114,11.876 L114.059,19.688 C114.091,23.985 114.483,33.8 114.929,41.5 C115.376,49.2 115.637,55.625 115.509,55.779 C115.381,55.932 105.491,50.409 93.531,43.506 C64.58,26.797 66.98,27.966 70.087,32.083 C78.685,43.475 97.101,69.227 96.827,69.473 C96.647,69.635 89.075,68.685 80,67.362 C70.925,66.04 62.848,65.081 62.052,65.233 C61.228,65.389 68.433,72.842 78.748,82.504 L96.893,99.5 L86.714,109.75 C81.116,115.387 76.978,119.982 77.518,119.96 C78.058,119.939 85.699,118.175 94.499,116.042 C103.298,113.909 110.663,112.33 110.866,112.533 C111.069,112.736 103.645,117.866 94.368,123.934 C85.09,130.001 77.992,134.973 78.594,134.983 C79.574,134.998 106.402,129.755 111.589,128.534 C114.019,127.962 113.641,126.967 121.077,153.5 C125.344,168.726 126.577,171.924 129.076,174.25 L132.032,177 L122.238,177 C114.993,177 111.867,177.405 110.223,178.557 C108.211,179.966 108,179.966 108,178.557 C108,177.701 107.438,177.01 106.75,177.021 C106.063,177.033 95.607,180.08 83.514,183.792 L61.529,190.542 L53.014,202.533 C44.826,214.066 44.121,215.512 34.609,240.288 C29.169,254.458 24.894,266.203 25.109,266.389 C25.324,266.574 30.432,267.482 36.459,268.406 C42.487,269.329 47.638,270.305 47.908,270.574 C48.177,270.843 50.903,277.004 53.966,284.265 L59.535,297.467 L51.093,311.382 C42.898,324.892 42.543,325.739 38.93,340.405 C36.095,351.913 35.033,358.673 34.475,368.779 C33.894,379.278 33.412,382.229 32.166,382.927 C30.86,383.658 30.793,384.25 31.77,386.394 C32.564,388.138 32.745,392.059 32.326,398.438 C31.719,407.692 31.649,407.902 29.107,408.198 C26.762,408.471 25.749,410.254 18.713,426.5 C13.911,437.588 11.126,445.268 11.459,446.5 C11.756,447.6 13.514,450.548 15.365,453.051 C18.204,456.89 19.689,457.892 24.857,459.457 C30.813,461.26 31.101,461.26 35.241,459.468 C40.796,457.063 56.6,441.926 56.224,439.373 C55.804,436.527 58.203,441.15 70.624,467.131 L81.922,490.761 L77.603,551.631 C74.271,598.607 72.91,613.356 71.643,616.25 C70.739,618.312 69.326,621.627 68.502,623.617 C67.024,627.186 66.972,627.212 64.502,625.593 C61.582,623.68 61.51,623.891 63.481,628.61 C64.932,632.081 64.848,632.428 59.481,645.222 C56.467,652.41 54,658.701 54,659.204 C54,659.707 56.714,663.683 60.031,668.04 L66.061,675.962 L65.005,726.231 C64.182,765.41 63.489,780.471 61.862,794.5 C59.849,811.852 59.572,813.004 54.17,826.5 L48.565,840.5 L25.569,860 L2.573,879.5 L1.33,885.5 C0.646,888.8 0.068,892.231 0.0438650269,893.124 C0.011,894.356 6.023,896.861 24.909,903.488 C38.609,908.295 50.286,912.064 50.858,911.871606 C51.43,911.664 63.779,903.175 78.299,893 L104.7,874.5 L106.624,866.522 L108.548,858.545 L104.569,847.664 L100.59,836.783 L105.948,809.642 C110.289,787.65 114.14,772.634 126.241,730.5 C134.455,701.9 141.423,678.275 141.725,678 C142.027,677.725 141.979,681.325 141.617,686 C141.255,690.675 140.708,698.1 140.402,702.5 L139.846,710.5 L149.673,692.502 L159.5,674.503 L157.551,650.858 L155.601,627.213 L161.497,587.106 C164.739,565.048 167.642,547.004 167.946,547.01 C168.251,547.015 173.799,564.678 180.276,586.26 L192.053,625.5 L192.026,647.168 L192,668.836 L197.496,681.081 C200.519,687.815 203.181,693.514 203.412,693.745 C203.643,693.976 204.858,690.978 206.113,687.082 C207.367,683.187 208.662,680 208.99,680 C209.72,680 230.375,753.544 232.582,764 C233.453,768.125 234.969,776.9 235.953,783.5 L237.741,795.5 L233.366,808.276 C230.96,815.303 226.744,825.533 223.996,831.008 C219.574,839.82 219,841.692 219,847.302 L219,853.641 L244.488,855.999 C258.507,857.296 270.152,858.164 270.366,857.928 C270.581,857.693 274.186,845.472 278.378,830.772 C285.858,804.541 286,803.833 286,792.683 C286,781.669 285.927,781.288 283.607,780.231 C281.563,779.299 279.87,775.111 272.017,751.552 L262.821,723.964 L263.557,690.276 L264.292,656.589 L266.652,662.044 C270.789,671.605 271.098,671.996 270.584,667 C270.328,664.525 269.562,656.853 268.881,649.952 L267.643,637.403 L271.626,631.555 L275.61,625.707 L267.516,607.565 L259.422,589.423 L255.504,531.756 L251.587,474.088 L253.617,467.794 L255.647,461.5 L247.824,438.023 C240.384,415.699 239.999,414.104 239.988,405.523 C239.982,400.561 239.322,394.04 238.521,391.033 L237.066,385.565 L242.054,380.033 C252.26,368.711 264.823,348.493 277.632,322.774 L290.1,297.742 L294.3,298.318 C296.61,298.635 300.413,299.201 302.75,299.575 C307.9,300.4 307.609,304.513 305.305,263.5 L303.564,232.5 L295.293,218.5 C290.743,210.8 287.016,203.938 287.011,203.25 C287.005,202.563 286.605,202 286.121,202 C285.638,202 284.719,200.736 284.08,199.192 C282.93,196.417 282.718,196.357 265.862,194.039 C252.762,192.238 248.634,191.974 248.061,192.902 C247.506,193.799 242.216,192.746 227.426,188.791 L207.536,183.473 L204.309,169.486 C202.533,161.794 200.831,154.496 200.526,153.268 C200.038,151.306 200.951,150.544 208.11,146.945 C216.072,142.942 216.415,142.866 223.874,143.459 L231.5,144.066 L227.095,141.683 L222.69,139.301 L251.151,124.401 L279.613,109.5 L267.306,105.568 C260.538,103.406 254.998,101.381 254.995,101.068 C254.992,100.756 259.154,96.584 264.245,91.798 L273.5,83.096 L269,83.128 C266.525,83.145 260.788,83.468 256.25,83.845 C251.713,84.223 248,84.484 248,84.427 C248,84.37 251.848,81.273 256.551,77.546 C261.255,73.819 264.928,70.595 264.715,70.381 C264.389,70.056 220.083,80.241 216.238,81.525 C214.553,82.088 214.353,82.452 237.369,43.038 C248.116,24.634 256.781,9.448 256.625,9.292 C256.469,9.135 243.101,15.353 226.92,23.11 C210.739,30.866 195.532,38.072 193.127,39.123 L188.755,41.034 L189.487,20.517 C189.89,9.233 190.032,0 189.803,0 C189.573,0 183.336,8.185 175.943,18.189 M115.349,303.75 L104.5,320.5 L72.609,351.5 C51.865,371.665 41.281,382.611 42.331,382.818 C43.288,383.007 58.881,370.212 80.722,351.318 C108.878,326.959 120.1,316.56 128.591,306.961 L139.681,294.422 L133.408,290.711 C129.958,288.67 126.924,287 126.666,287 C126.409,287 121.316,294.538 115.349,303.75"/><path fill-opacity=".17" d="M175.943,18.189 C168.549,28.193 162.016,37.023 161.424,37.811 C160.538,38.992 158.459,37.883 149.616,31.514 C143.713,27.262 138.773,23.945 138.638,24.142 C138.503,24.339 137.959,25.541 137.429,26.813 C136.49,29.066 136.168,28.899 125.232,20.501 L114,11.876 L114.059,19.688 C114.091,23.985 114.483,33.8 114.929,41.5 C115.376,49.2 115.637,55.625 115.509,55.779 C115.381,55.932 105.491,50.409 93.531,43.506 C64.58,26.797 66.98,27.966 70.087,32.083 C78.685,43.475 97.101,69.227 96.827,69.473 C96.647,69.635 89.075,68.685 80,67.362 C70.925,66.04 62.848,65.081 62.052,65.233 C61.228,65.389 68.433,72.842 78.748,82.504 L96.893,99.5 L86.714,109.75 C81.116,115.387 76.978,119.982 77.518,119.96 C78.058,119.939 85.699,118.175 94.499,116.042 C103.298,113.909 110.663,112.33 110.866,112.533 C111.069,112.736 103.645,117.866 94.368,123.934 C85.09,130.001 77.986,134.973 78.581,134.983 C79.175,134.992 87.447,133.428 96.962,131.508 L114.263,128.015 L120.013,131.508 C123.175,133.428 126.304,135 126.967,135 C127.63,135 131.527,134.025 135.627,132.834 L143.082,130.668 L139.338,126.834 C135.042,122.434 134.181,122.332 124,125 C119.875,126.081 115.938,126.973 115.25,126.983 C113.408,127.008 113.799,109.277 115.846,100 L117.5,92.5 L133,92.187 L148.5,91.875 L160.549,95.687 L172.598,99.5 L177.247,105.5 C179.804,108.8 181.469,111.65 180.948,111.833 C180.427,112.017 180,113.029 180,114.083 C180,115.138 179.325,116 178.5,116 C177.675,116 177,116.666 177,117.481 C177,119.213 172.706,120.545 170.807,119.402 C169.812,118.804 169.828,119.02 170.872,120.308 C171.627,121.239 173.329,122 174.654,122 C175.979,122 177.322,122.675 177.638,123.5 C177.955,124.325 179.066,125 180.107,125 C181.46,125 182,125.714 182,127.5 C182,128.875 182.477,130 183.059,130 C183.641,130 183.84,130.45 183.5,131 C183.16,131.55 183.696,132.045 184.691,132.1 C185.972,132.17 185.771,132.433 184,133 C182.071,133.618 181.935,133.823 183.405,133.9 C185.187,133.994 185.203,134.118 183.655,135.829 C182.745,136.835 182,138.41 182,139.329 C182,140.248 181.53,141 180.956,141 C180.382,141 178.699,142.125 177.217,143.5 C175.734,144.875 173.595,146 172.463,146 C170.276,146 163,152.76 163,154.792 C163,155.456 162.277,156 161.393,156 C160.375,156 159.997,156.55 160.362,157.5 C160.718,158.43 160.357,159 159.41,159 C158.569,159 158.16,159.45 158.5,160 C158.84,160.55 158.416,161 157.559,161 C156.358,161 156,162.13 156,165.917 C156,168.914 156.488,171.03 157.25,171.338 C158.169,171.709 158.135,171.863 157.121,171.921 C156.363,171.964 152.623,170.875 148.811,169.5 C140.193,166.391 138.797,166.423 132.126,169.877 L126.752,172.66 L129.511,174.83 L132.27,177 L122.357,177 C115.004,177 111.871,177.402 110.223,178.557 C108.211,179.966 108,179.966 108,178.557 C108,177.701 107.438,177.01 106.75,177.021 C106.063,177.033 95.607,180.08 83.514,183.792 L61.529,190.542 L53.014,202.533 C44.826,214.066 44.121,215.512 34.609,240.288 C29.169,254.458 24.894,266.204 25.109,266.39 C25.324,266.576 37.875,268.61 53,270.91 C87.791,276.2 87,276.055 87,277.111 C87,277.6 86.325,278 85.5,278 C83.629,278 83.629,278.698 85.5,284 C87.225,288.89 87.454,293 86,293 C85.45,293 85,293.675 85,294.5 C85,295.516 83.983,296 81.845,296 C78.852,296 78.775,296.094 80.345,297.829 C81.255,298.835 82,300.41 82,301.329 C82,302.248 82.707,303 83.571,303 C84.88,303 84.922,303.232 83.821,304.388 C80.235,308.157 79.068,310.001 80.26,310.015 C81.15,310.026 81.114,310.275 80.13,310.898 C79.024,311.599 79.12,311.976 80.63,312.853 C82.032,313.667 82.124,313.951 81,313.985 C79.667,314.026 79.667,314.138 81,315 C82.244,315.804 82.159,315.975 80.5,316 C78.841,316.025 78.756,316.196 80,317 C81,317.646 81.083,317.974 80.25,317.985 C78.475,318.006 78.694,320.787 80.501,321.177 C81.646,321.423 81.051,322.926 78,327.5 C74.829,332.253 74.324,333.57 75.572,333.837 C76.504,334.037 76.913,334.785 76.573,335.669 C76.258,336.491 76,337.352 76,337.582 C76,337.812 75.1,338 74,338 C72.242,338 72,338.667 72,343.5 C72,348.333 71.758,349 70,349 C68.9,349 68,349.557 68,350.237 C68,350.918 61.655,357.831 53.9,365.6 C45.54,373.975 39.943,380.347 40.15,381.252 C40.375,382.232 52.014,371.541 72.607,351.44 C95.146,329.441 104.184,320.012 102.934,319.801 C101.533,319.564 103.444,316.417 111.921,305 C117.842,297.025 123.632,289.665 124.789,288.644 C126.854,286.821 127,286.854 133.195,290.553 C142.227,295.945 142.718,296.492 148.027,307.061 L152.829,316.622 L139.164,317.828 C131.649,318.491 123.832,319.026 121.792,319.017 C118.355,319.001 115.372,321.347 80.819,351.237 L43.553,383.475 L50.026,385.45 L56.5,387.425 L63.637,405.463 C72.621,428.168 72.571,428 70.46,428 C69.383,428 68.991,428.535 69.362,429.5 C69.757,430.529 69.301,431 67.91,431 C66.794,431 66.16,431.45 66.5,432 C66.84,432.55 66.169,433 65.008,433 C63.53,433 62.447,431.92 61.39,429.392 C59.025,423.73 58.682,426.12 61.012,432.031 C62.676,436.251 62.835,437.488 61.799,438.146 C60.865,438.738 61.063,438.978 62.5,439 C63.978,439.023 64.152,439.251 63.167,439.876 C62.115,440.543 62.589,442.22 65.417,447.835 C67.388,451.748 69,455.153 69,455.402 C69,455.65 68.212,456.059 67.25,456.311 C65.933,456.655 66.057,456.797 67.75,456.884 C70.218,457.011 70.922,459 68.5,459 C67.675,459 67,459.158 67,459.351 C67,459.544 70.359,466.674 74.463,475.195 L81.927,490.688 L77.603,551.594 L73.278,612.5 L70.131,619.908 C68.399,623.983 67.099,627.411 67.241,627.527 C67.384,627.643 74.299,632.431 82.609,638.167 L97.718,648.597 L91.851,660.298 C88.624,666.734 85.803,672 85.581,672 C84.931,672 70.345,645.046 67.458,638.51 L64.813,632.52 L59.406,645.403 C56.433,652.489 54,658.686 54,659.175 C54,660.353 65.046,675 65.934,675 C66.315,675 67.919,673.65 69.5,672 C71.081,670.35 72.666,669 73.022,669 C73.379,669 74.446,675.413 75.395,683.25 C76.343,691.087 77.383,699.239 77.705,701.364 C78.244,704.912 78.126,705.175 76.251,704.58 C75.09,704.211 72.637,704.682 70.56,705.673 L66.91,707.413 L71.205,709.662 C74.45,711.36 77.212,711.915 82.5,711.93 L89.5,711.951 L84.75,709.308 C82.137,707.853 80,706.177 80,705.583 C80,704.137 89.132,676.788 89.482,677.187 C90.026,677.809 95.126,696.351 95.917,700.585 C96.468,703.535 96.371,705.071 95.614,705.383 C95.001,705.636 95.287,705.878 96.25,705.921 C98.537,706.024 98.471,706.687 95.5,713.404 C92.595,719.973 92.46,721 94.5,721 C96.434,721 96.439,720.959 93.5,728.192 C90.527,735.509 90.483,735.971 92.75,736.1 C93.917,736.166 93.667,736.466 92,737 C90.333,737.534 90.083,737.834 91.25,737.9 C93.552,738.031 93.469,738.884 90.5,745.596 C87.588,752.18 87.477,753 89.5,753 C91.434,753 91.439,752.959 88.5,760.192 C85.527,767.509 85.483,767.971 87.75,768.1 C88.917,768.166 88.667,768.466 87,769 C85.333,769.534 85.083,769.834 86.25,769.9 C88.482,770.027 88.449,770.787 85.96,776.593 C84.839,779.21 84.149,781.947 84.429,782.675 C84.709,783.404 84.446,784 83.846,784 C83.126,784 83.179,784.511 84,785.5 C85.004,786.709 84.979,787.003 83.872,787.015 C82.794,787.027 82.822,787.239 84,788 C85.244,788.804 85.159,788.975 83.5,789 C82.312,789.018 81.946,789.329 82.599,789.765 C84.165,790.813 83.931,794 82.288,794 C81.53,794 77.554,791.735 73.452,788.967 C69.35,786.199 65.394,783.705 64.66,783.423 C63.631,783.028 62.924,786.287 61.564,797.706 C59.941,811.326 59.356,813.611 54.184,826.5 L48.565,840.5 L25.569,860 L2.573,879.5 L1.33,885.5 C0.646,888.8 0.068,892.231 0.0438650269,893.124 C0.011,894.356 6.023,896.861 24.909,903.488 C38.609,908.295 50.286,912.064 50.858,911.871606 C51.43,911.664 63.779,903.175 78.299,893 L104.7,874.5 L106.624,866.522 L108.548,858.545 L104.569,847.664 L100.59,836.783 L105.948,809.642 C110.289,787.65 114.14,772.634 126.241,730.5 C134.455,701.9 141.423,678.275 141.725,678 C142.027,677.725 141.979,681.325 141.617,686 C141.255,690.675 140.708,698.1 140.402,702.5 L139.846,710.5 L149.673,692.502 L159.5,674.503 L157.551,650.858 L155.601,627.213 L161.497,587.106 C164.739,565.048 167.642,547.004 167.946,547.01 C168.251,547.015 173.799,564.678 180.276,586.26 L192.053,625.5 L192.026,647.168 L192,668.836 L197.496,681.081 C200.519,687.815 203.172,693.505 203.392,693.726 C203.613,693.946 205.452,689.148 207.479,683.063 C209.507,676.978 211.305,672 211.475,672 C211.646,672 216.157,677.85 221.5,685 C226.843,692.15 231.339,698 231.49,698 C231.641,698 233.453,691.22 235.516,682.934 C237.58,674.648 239.597,668.235 240,668.684 C240.403,669.133 242.375,671.975 244.383,675 C247.219,679.271 247.696,680.572 246.517,680.823 C244.64,681.223 244.641,681.405 246.526,685.05 C247.893,687.694 247.893,688 246.526,688 C244.569,688 244.598,688.291 247.02,693.04 C248.716,696.364 248.797,697 247.52,697 C245.628,697 245.629,697.381 247.526,701.05 C248.893,703.694 248.893,704 247.526,704 C245.52,704 245.604,704.839 248.004,708.774 C250.396,712.699 250.432,713 248.5,713 C246.515,713 246.615,713.899 249,717.5 C251.385,721.101 251.485,722 249.5,722 C247.607,722 247.597,723.085 249.468,725.559 C251.358,728.057 251.366,729 249.5,729 C247.515,729 247.615,729.899 250,733.5 C252.385,737.101 252.485,738 250.5,738 C248.813,738 248.549,739.126 249.903,740.55 C250.4,741.073 251.706,744.538 252.806,748.25 L254.806,755 L242.903,755 C236.189,755 231,755.407 231,755.935 C231,756.449 231.712,760.161 232.582,764.185 C233.453,768.208 234.969,776.9 235.953,783.5 L237.741,795.5 L233.366,808.276 C230.96,815.303 226.744,825.533 223.996,831.008 C219.574,839.82 219,841.692 219,847.302 L219,853.641 L244.488,855.999 C258.507,857.296 270.152,858.164 270.366,857.928 C270.581,857.693 274.186,845.472 278.378,830.772 C285.858,804.541 286,803.833 286,792.683 C286,781.669 285.927,781.288 283.607,780.231 C281.563,779.299 279.87,775.111 272.017,751.552 L262.821,723.964 L263.557,690.276 L264.292,656.589 L266.652,662.044 C270.789,671.605 271.098,671.996 270.584,667 C270.328,664.525 269.562,656.853 268.881,649.952 L267.643,637.403 L271.626,631.555 L275.61,625.707 L267.516,607.565 L259.422,589.423 L255.504,531.756 L251.587,474.088 L253.617,467.794 L255.647,461.5 L247.824,438.023 C240.384,415.699 239.999,414.104 239.988,405.523 C239.982,400.561 239.322,394.04 238.521,391.033 L237.066,385.565 L242.054,380.033 C252.26,368.711 264.823,348.493 277.632,322.774 L290.1,297.742 L294.3,298.318 C296.61,298.635 300.413,299.201 302.75,299.575 C307.9,300.4 307.609,304.513 305.305,263.5 L303.564,232.5 L295.293,218.5 C290.743,210.8 287.016,203.938 287.011,203.25 C287.005,202.563 286.605,202 286.121,202 C285.638,202 284.719,200.736 284.08,199.192 C282.93,196.417 282.718,196.357 265.862,194.039 C252.762,192.238 248.634,191.974 248.061,192.902 C247.506,193.799 242.216,192.746 227.426,188.791 L207.536,183.473 L204.309,169.486 C202.533,161.794 200.831,154.496 200.526,153.268 C200.038,151.306 200.951,150.544 208.11,146.945 C216.072,142.942 216.415,142.866 223.874,143.459 L231.5,144.066 L227.095,141.683 L222.69,139.301 L251.151,124.401 L279.613,109.5 L267.306,105.568 C260.538,103.406 254.998,101.381 254.995,101.068 C254.992,100.756 259.154,96.584 264.245,91.798 L273.5,83.096 L269,83.128 C266.525,83.145 260.788,83.468 256.25,83.845 C251.713,84.223 248,84.484 248,84.427 C248,84.37 251.848,81.273 256.551,77.546 C261.255,73.819 264.928,70.595 264.715,70.381 C264.389,70.056 220.083,80.241 216.238,81.525 C214.553,82.088 214.353,82.452 237.369,43.038 C248.116,24.634 256.781,9.448 256.625,9.292 C256.469,9.135 243.101,15.353 226.92,23.11 C210.739,30.866 195.532,38.072 193.127,39.123 L188.755,41.034 L189.487,20.517 C189.89,9.233 190.032,0 189.803,0 C189.573,0 183.336,8.185 175.943,18.189 M206.5,120.85 C205.4,121.207 204.448,122.4 204.385,123.5 C204.322,124.6 203.925,126.316 203.504,127.314 C202.822,128.927 203.213,129.093 207.041,128.814 C211.465,128.491 213.518,126.533 210.305,125.7 C208.713,125.287 208.736,125.217 210.5,125.101 C212.167,124.991 212.251,124.808 211,124 C210.051,123.387 209.948,123.025 210.719,123.015 C211.389,123.007 211.678,122.325 211.362,121.5 C210.755,119.918 209.769,119.787 206.5,120.85 M151.518,129.982 C149.38,132.172 147.826,134.149 148.065,134.377 C149.915,136.135 163.859,139 170.566,139 L178.416,139 L167.458,132.519 C161.431,128.954 156.254,126.029 155.953,126.018949 C155.652,126.008 153.656,127.792 151.518,129.982 M194,187.567 C188.225,189.433 182.06,190.969 180.299,190.98 C176.408,191.004 166.88,189.068 165.5,187.973 C163.348,186.265 156.918,185.836 152.072,187.078 C147.633,188.216 146.846,188.17 145.201,186.682 C144.179,185.757 142.953,185 142.476,185 C140.996,185 136,190.294 136,191.862 C136,193.306 151.937,253.209 152.476,253.788 C152.623,253.947 159.845,243.147 168.525,229.788 C183.05,207.433 185.189,204.645 195.403,194.754 C201.506,188.844 206.05,184.046 205.5,184.090686 C204.95,184.136 199.775,185.701 194,187.567 M226.685,283.227 C226.357,286.677 225.541,299.861 224.872,312.524 L223.656,335.549 L205.078,348.024 L186.5,360.5 L179.974,375 C176.385,382.975 172.155,391.68 170.574,394.344 C167.852,398.931 167.755,399.488 168.737,404.844 C169.308,407.955 169.588,410.816 169.358,411.202 C169.129,411.588 165.282,414.483 160.808,417.635 L152.674,423.367 L155.77,424.833 C159.886,426.782 163.583,425.26 168.995,419.389 C171.634,416.527 173.883,415 175.462,415 C176.793,415 178.16,414.55 178.5,414 C178.84,413.45 180.19,413 181.5,413 C182.81,413 184.16,412.55 184.5,412 C184.84,411.45 186.19,411 187.5,411 C188.81,411 190.16,410.55 190.5,410 C190.84,409.45 192.19,409 193.5,409 C194.81,409 196.16,408.55 196.5,408 C196.84,407.45 198.231,407 199.59,407 C203.68,407 203.451,404.449 198.838,398.606 C195.444,394.307 193.847,393.074 191.5,392.94 C189.645,392.834 189.188,392.59 190.303,392.3 C191.734,391.929 191.864,391.541 190.931,390.416 C189.999,389.294 190.091,389 191.378,389 C192.321,389 193,388.182 193,387.045 C193,385.603 193.918,384.918 196.5,384.434 C198.425,384.073 200,383.377 200,382.889 C200,382.4 200.605,382 201.345,382 C202.085,382 203.505,381.1 204.5,380 C205.495,378.9 207.102,378 208.07,378 C209.038,378 211.481,375.75 213.5,373 C215.937,369.68 217.898,367.998 219.335,367.993 C220.701,367.989 222.418,366.638 223.988,364.334 C225.357,362.325 227.832,359.854 229.488,358.844 C231.145,357.834 232.05,356.969 231.5,356.923 C230.95,356.876 231.85,356.219 233.5,355.464 C235.15,354.708 235.825,354.056 235,354.015 C233.75,353.952 233.772,353.78 235.136,352.984 C236.036,352.458 237.069,350.447 237.431,348.514 C237.947,345.764 238.57,344.997 240.295,344.985 C241.921,344.973 242.142,344.743 241.137,344.106 C239.986,343.377 239.986,343.158 241.137,342.7 C242.21,342.273 242.181,342.134 241,342.044 C240.047,341.971 240.411,341.408 242,340.5 C243.513,339.635 243.908,339.051 243,339.02 C241.667,338.975 241.667,338.862 243,338 C244.333,337.138 244.333,337.027 243,337 C242.112,336.982 241.91,336.67 242.506,336.235 C243.769,335.312 249,328.33 249,327.567 C249,327.255 248.273,327 247.385,327 C245.898,327 245.898,326.804 247.385,324.535 C248.273,323.18 249,321.38 249,320.535 C249,319.667 249.869,319 251,319 C252.758,319 253,318.333 253,313.5 C253,308.667 253.242,308 255,308 C256.69,308 257,307.333 257,303.7 C257,301.335 257.412,298.972 257.915,298.45 C258.419,297.928 258.981,296.375 259.165,295 C259.469,292.729 259.043,292.407 254.5,291.484 C249.653,290.499 249.49,290.353 249.188,286.708 L248.876,282.948 L244.001,283.594 C239.03,284.254 238.552,284.08 229.39,278.288 C227.344,276.994 227.263,277.142 226.685,283.227 M106.505,375.505 L82.72,400.053 L84.534,404.075 C85.531,406.287 86.734,408.335 87.206,408.627 C87.678,408.919 98.748,398.841 111.804,386.23 L135.544,363.302 L133.178,357.401 C131.877,354.156 130.695,351.378 130.551,351.228 C130.408,351.079 119.587,362.004 106.505,375.505 M47.408,431.75 C46.41,435.462 45.01,439.095 44.297,439.821 C43.584,440.548 43,441.963 43,442.964 C43,445.717 40.72,446.218 25.75,446.759 C18.188,447.033 12.011,447.536 12.0249762,447.878 C12.038,448.22 13.553,450.548 15.39,453.051 C18.214,456.898 19.678,457.889 24.857,459.457 C30.813,461.26 31.101,461.26 35.241,459.468 C37.584,458.454 43.358,453.904 48.074,449.358 L56.648,441.092 L54.965,435.796 C52.886,429.251 50.911,425 49.951,425 C49.55,425 48.406,428.038 47.408,431.75 M125.5,436.175 C117.25,438.386 110.362,440.327 110.193,440.488 C109.401,441.244 119.733,449.956 121.445,449.977 C122.515,449.99 124.61,451.169 126.101,452.597 L128.812,455.194 L141.582,453.548 C151.042,452.328 154.687,451.46 155.644,450.201 C156.388,449.222 156.95,445.706 156.968,441.914 L157,435.327 L150.107,433.664 C146.316,432.749 142.603,432.035 141.857,432.078 C141.111,432.121 133.75,433.964 125.5,436.175 M158.606,435.416 C158.941,436.287 159.653,437 160.19,437 C161.505,437 160.682,434.727 159.187,434.229 C158.456,433.985 158.233,434.443 158.606,435.416 M188.051,554.25 C188.079,555.487 188.866,560.77 189.801,565.988 L191.5,575.477 L204.876,581.279 C212.233,584.47 218.38,586.95 218.536,586.79 C218.693,586.631 215.373,580.367 211.16,572.871 L203.5,559.241 L196.233,555.621 C192.237,553.629 188.749,552 188.483,552 C188.218,552 188.023,553.013 188.051,554.25 M206.045,646.941 C202.72,651.308 200,655.103 200,655.374 C200,655.925 215.811,665.606 218.222,666.532 C219.388,666.979 221.753,663.662 227.824,653.063 L235.879,639 L223.985,639 L212.09,639 L206.045,646.941 M72.088,724.198 L66.677,727.352 L70.588,730.638 C78.297,737.116 78.315,737.116 85.054,730.446 L91.043,724.52 L86.272,722.837 C79.608,720.488 78.227,720.621 72.088,724.198"/><path fill-opacity=".291" d="M175.943,18.189 C168.549,28.193 162.016,37.023 161.424,37.811 C160.538,38.992 158.459,37.883 149.616,31.514 C143.713,27.262 138.773,23.945 138.638,24.142 C138.503,24.339 137.959,25.541 137.429,26.813 C136.49,29.066 136.168,28.899 125.232,20.501 L114,11.876 L114.059,19.688 C114.091,23.985 114.483,33.8 114.929,41.5 C115.376,49.2 115.637,55.625 115.509,55.779 C115.381,55.932 105.491,50.409 93.531,43.506 C64.58,26.797 66.98,27.966 70.087,32.083 C78.685,43.475 97.101,69.227 96.827,69.473 C96.647,69.635 89.075,68.685 80,67.362 C70.925,66.04 62.848,65.081 62.052,65.233 C61.228,65.389 68.433,72.842 78.748,82.504 L96.893,99.5 L86.714,109.75 C81.116,115.387 76.978,119.982 77.518,119.96 C78.058,119.939 85.699,118.175 94.499,116.042 C103.298,113.909 110.663,112.33 110.866,112.533 C111.069,112.736 103.645,117.866 94.368,123.934 C85.09,130.001 77.986,134.973 78.581,134.983 C79.175,134.992 87.447,133.428 96.962,131.508 L114.263,128.015 L120.013,131.508 C123.175,133.428 126.304,135 126.967,135 C127.63,135 131.527,134.025 135.627,132.834 L143.082,130.668 L139.338,126.834 C135.042,122.434 134.181,122.332 124,125 C119.875,126.081 115.938,126.973 115.25,126.983 C113.408,127.008 113.799,109.277 115.846,100 L117.5,92.5 L122.5,91.978 C126.394,91.571 130.117,89.881 139.329,84.337 C146.005,80.32 150.579,76.988 149.829,76.689 C149.098,76.397 149.625,76.119 151,76.071 C154.21,75.958 173.65,64.414 171.842,63.693 C171.07,63.385 171.421,63.124 172.668,63.079 C173.861,63.036 175.586,62.712 176.502,62.361 C177.831,61.851 177.898,61.551 176.834,60.876 C175.898,60.283 176.246,60.021 178,60 C180.968,59.964 184.519,58.111 182,57.913 C180.688,57.81 182.974,57.065 189.317,55.529 C191.56,54.986 198.593,48.902 198.25,47.802 C198.112,47.361 198.527,47 199.171,47 C199.815,47 201.063,46.348 201.944,45.551 C202.881,44.703 204.083,44.433 204.84,44.901 C205.768,45.475 204.682,46.917 201,50 C197.857,52.632 196.298,54.566 196.98,54.988 C197.661,55.408 195.905,57.547 192.47,60.481 C188.924,63.511 187.269,65.548 187.99,65.994 C188.713,66.441 187.218,68.306 183.933,71.056 C180.7,73.763 179.237,75.579 180.065,75.855 C180.908,76.136 179.576,77.894 176.449,80.629 C173.333,83.356 172.111,84.966 173.15,84.979 C174.195,84.992 172.573,87.154 168.733,90.865 L162.665,96.729 L167.583,98.014 C172.207,99.222 173.035,99.988 181.5,110.899 C190.22,122.138 190.562,122.78 192.5,131.5 L194.5,140.5 L198.249,140.81 L201.998,141.121 L196.18,148.81 C192.98,153.04 188.42,159.151 186.045,162.391 L181.728,168.283 L189.963,161.47 C194.491,157.723 198.715,153.795 199.348,152.74 C199.982,151.686 204.043,149.029 208.374,146.838 C216.055,142.951 216.436,142.868 223.874,143.459 L231.5,144.066 L227.095,141.683 L222.69,139.301 L251.151,124.401 L279.613,109.5 L267.306,105.568 C260.538,103.406 254.998,101.381 254.995,101.068 C254.992,100.756 259.154,96.584 264.245,91.798 L273.5,83.096 L269,83.128 C266.525,83.145 260.788,83.468 256.25,83.845 C251.713,84.223 248,84.484 248,84.427 C248,84.37 251.848,81.273 256.551,77.546 C261.255,73.819 264.928,70.595 264.715,70.381 C264.389,70.056 220.083,80.241 216.238,81.525 C214.553,82.088 214.353,82.452 237.369,43.038 C248.116,24.634 256.781,9.448 256.625,9.292 C256.469,9.135 243.101,15.353 226.92,23.11 C210.739,30.866 195.532,38.072 193.127,39.123 L188.755,41.034 L189.487,20.517 C189.89,9.233 190.032,0 189.803,0 C189.573,0 183.336,8.185 175.943,18.189 M202.068,122.904 C200.931,124.502 200,126.212 200,126.705 C200,127.198 201.98,128.564 204.401,129.739 C208.599,131.779 208.875,131.796 210.401,130.11 C211.328,129.085 212,126.591 212,124.171 L212,120 L208.068,120 C204.869,120 203.751,120.542 202.068,122.904 M151.518,129.982 C149.38,132.172 147.826,134.149 148.065,134.377 C149.915,136.135 163.859,139 170.566,139 L178.416,139 L167.458,132.519 C161.431,128.954 156.254,126.029 155.953,126.018949 C155.652,126.008 153.656,127.792 151.518,129.982 M132.094,169.839 L126.689,172.691 L136.796,180.346 C142.355,184.556 147.445,188 148.107,188 C149.481,188 170.856,181.182 172.659,180.168 C174.133,179.339 145.808,167.884 141,167.365 C138.541,167.099 135.892,167.835 132.094,169.839 M97.68,179.367 C91.32,181.381 89.795,183 94.256,183 C95.314,183 96.97,183.977 97.937,185.17 L99.694,187.34 L103.847,184.003 C108.136,180.556 109.404,176.917 106.25,177.104 C105.287,177.161 101.431,178.179 97.68,179.367 M205.592,184.852 C205.302,185.32 207.863,186.489 211.283,187.451 C214.702,188.412 218.694,189.828 220.154,190.599 C221.614,191.37 223.568,192 224.497,192 C225.425,192 227.329,192.9 228.727,194 C230.126,195.1 232.279,196 233.512,196 C234.746,196 236.276,196.628 236.913,197.395 C237.549,198.162 239.6,198.968 241.47,199.186 C244.296,199.516 245.055,199.175 245.972,197.162 C246.579,195.831 246.86,194.527 246.598,194.265 C245.891,193.557 209.778,184.000998 207.809,184.000998 C206.879,184 205.881,184.383 205.592,184.852 M278,237.903 C272.9,240.576 271.888,241 270.621,241 C269.847,241 268.955,241.675 268.638,242.5 C268.322,243.325 267.374,244 266.531,244 C265.689,244 265,244.675 265,245.5 C265,246.333 264.111,247 263,247 C261.9,247 261,247.45 261,248 C261,248.55 260.1,249 259,249 C257.889,249 257,249.667 257,250.5 C257,251.333 256.111,252 255,252 C253.889,252 253,252.667 253,253.5 C253,254.325 252.148,255 251.107,255 C250.066,255 248.955,255.675 248.638,256.5 C248.322,257.325 247.135,258 246,258 C244.865,258 243.678,258.675 243.362,259.5 C243.045,260.325 241.757,261 240.5,261 C239.243,261 237.955,261.675 237.638,262.5 C237.322,263.325 236.135,264 235,264 C233.865,264 232.678,264.675 232.362,265.5 C232.045,266.325 230.908,267 229.834,267 C228.76,267 228.124,267.392 228.421,267.872 C228.717,268.351 226.856,269.547 224.286,270.529 C219.87,272.215 219.448,272.22 216.646,270.611 C214.207,269.212 213.908,269.184 214.962,270.455 C215.832,271.502 215.883,272 215.122,272 C214.505,272 214,272.675 214,273.5 C214,274.333 214.889,275 216,275 C217.1,275 218,275.45 218,276 C218,276.55 217.325,277 216.5,277 C214.511,277 214.532,277.261 217.992,295.085 C221.468,312.989 221.469,313 219.5,313 C218.675,313 218,313.45 218,314 C218,314.55 218.9,315 220,315 C221.111,315 222,315.667 222,316.5 C222,317.325 221.264,318 220.364,318 C218.993,318 218.831,318.752 219.364,322.64 C219.714,325.191 220,329.695 220,332.648 C220,337.608 220.14,337.93 221.837,336.87 C223.477,335.846 223.814,333.08 224.978,311.111 C225.696,297.575 226.557,284.384 226.891,281.798 L227.5,277.095 L233,280.587 C237.963,283.738 239.007,284.026 243.69,283.538 L248.879,282.997 L249.19,286.748 L249.5,290.5 L277.795,295.372 C293.357,298.052 306.368,299.965 306.709,299.625 C307.274,299.06 305.771,266.514 304.314,247.75 L303.712,240 L300.606,239.976 C298.898,239.962 295.7,239.56 293.5,239.083 C286.772,237.623 279.58,237.075 278,237.903 M88,241.5 C87.315,242.325 85.712,243 84.437,243 C83.161,243 81.84,243.45 81.5,244 C81.16,244.55 79.839,245 78.563,245 C77.288,245 75.685,245.675 75,246.5 C74.315,247.325 72.771,248 71.569,248 C70.366,248 68.509,248.661 67.441,249.468 C66.374,250.276 64.543,250.951 63.372,250.968 C62.202,250.986 60.685,251.675 60,252.5 C59.315,253.325 57.74,254 56.5,254 C55.26,254 53.685,254.675 53,255.5 C52.315,256.325 50.771,257 49.569,257 C48.366,257 46.509,257.661 45.441,258.468 C44.374,259.276 42.543,259.951 41.372,259.968 C40.202,259.986 38.685,260.675 38,261.5 C37.315,262.325 35.712,263 34.437,263 C33.161,263 31.84,263.45 31.5,264 C31.16,264.55 29.559,265 27.941,265 C26.323,265 25,265.367 25,265.815 C25,266.264 37.712,268.565 53.25,270.929 C68.787,273.293 82.737,275.458 84.25,275.739 C86.862,276.224 87.001,276.056 87.023,272.375 C87.036,270.244 87.925,262.65 89,255.5 C90.075,248.35 90.964,241.938 90.9774742,241.25 C91.008,239.55 89.514,239.675 88,241.5 M119,351.261 C112.769,357.814 107.952,361.952 105,363.288 C102.319,364.501 101.075,365.518 101.923,365.803 C102.806,366.1 101.665,367.162 98.923,368.596 C96.491,369.868 95.175,370.949 96,370.997 C96.825,371.045 95.925,371.946 94,373 C92.075,374.054 91.175,374.954 92,375 C92.825,375.046 91.925,375.946 90,377 C88.075,378.054 87.175,378.955 88,379.003 C88.825,379.051 87.475,380.175 85,381.5 C82.525,382.825 81.175,383.949 82,383.997 C82.825,384.045 81.925,384.946 80,386 C78.075,387.054 77.175,387.954 78,388 C78.825,388.046 77.925,388.946 76,390 C74.075,391.054 73.175,391.951 74,391.994 C75.072,392.049 74.916,392.417 73.454,393.285 C72.298,393.972 71.569,395.261 71.778,396.25 C72.007,397.339 71.545,398 70.554,398 C69.355,398 69.117,398.617 69.589,400.5 C70.066,402.4 69.826,403 68.589,403 C67.353,403 67.113,403.6 67.589,405.5 C68.072,407.422 67.829,408 66.541,408 C65.289,408 65.019,408.57 65.474,410.25 C65.809,411.488 76.149,432.802 88.453,457.616 L110.824,502.732 L104.425,509.075 L98.025,515.417 L94.42,511.959 C92.437,510.056 88.896,504.701 86.55,500.057 L82.285,491.614 L81.686,496.057 C81.357,498.501 79.442,525.25 77.431,555.5 L73.774,610.5 L70.367,618.897 C68.494,623.515 67.082,627.394 67.23,627.516 C67.379,627.638 74.299,632.431 82.609,638.167 L97.718,648.597 L91.851,660.298 C88.624,666.734 85.803,672 85.581,672 C84.931,672 70.345,645.046 67.458,638.51 L64.813,632.52 L59.406,645.403 C56.433,652.489 54,658.686 54,659.175 C54,660.353 65.046,675 65.934,675 C66.315,675 67.919,673.65 69.5,672 C71.081,670.35 72.666,669 73.022,669 C73.379,669 74.446,675.413 75.395,683.25 C76.343,691.087 77.383,699.239 77.705,701.364 C78.244,704.912 78.126,705.175 76.251,704.58 C75.09,704.211 72.637,704.682 70.56,705.673 L66.91,707.413 L71.205,709.662 C74.45,711.36 77.212,711.915 82.5,711.93 L89.5,711.951 L84.75,709.308 C82.138,707.853 80,706.177 80,705.583 C80,704.11 89.134,676.795 89.496,677.187 C89.654,677.359 91.724,684.396 94.096,692.825 L98.408,708.151 L104.014,696.972 L109.62,685.793 L115.991,702.976 C121.822,718.702 122.465,719.96 123.581,717.829 C124.252,716.548 128.488,707.175 132.994,697 C137.501,686.825 141.433,678.275 141.731,678 C142.03,677.725 141.988,681.212 141.637,685.75 C141.287,690.288 140.74,697.712 140.423,702.25 L139.846,710.5 L149.673,692.502 L159.5,674.503 L157.551,650.858 L155.601,627.213 L161.497,587.106 C164.739,565.048 167.642,547.004 167.946,547.01 C168.251,547.015 173.799,564.678 180.276,586.26 L192.053,625.5 L192.026,647.168 L192,668.836 L197.496,681.081 C200.519,687.815 203.172,693.505 203.392,693.726 C203.613,693.946 205.452,689.148 207.479,683.063 C209.507,676.978 211.305,672 211.475,672 C211.646,672 216.168,677.865 221.525,685.034 C226.882,692.203 231.398,697.936 231.56,697.774 C231.721,697.612 233.494,690.964 235.5,683 C237.506,675.036 239.27,668.396 239.422,668.245 C239.573,668.094 241.345,670.452 243.359,673.485 C245.373,676.518 247.359,679 247.774,679 C248.188,679 250.865,677.425 253.724,675.5 C256.582,673.575 259.103,672 259.326,672 C259.548,672 260.578,677.063 261.615,683.25 L263.5,694.5 L264,675.515 L264.5,656.529 L267.411,663.77 C269.012,667.753 270.507,670.827 270.732,670.601 C270.957,670.376 270.435,664.095 269.571,656.644 C267.414,638.037 267.471,637.4 271.855,631.107 L275.613,625.714 L267.518,607.569 L259.422,589.423 L255.504,531.756 L251.587,474.088 L253.617,467.794 L255.647,461.5 L247.824,438.023 C240.309,415.474 240,414.181 240,405.273 C240,400.173 239.759,396 239.465,396 C239.17,396 232.557,400.804 224.768,406.675 C216.98,412.546 209.402,417.95 207.929,418.685 C206.455,419.42 199.066,425.49 191.508,432.174 L177.766,444.327 L169.678,442.395 C162.395,440.656 161.392,440.124 159.596,437.048 C158.023,434.354 157.924,433.757 159.127,434.218 C159.965,434.54 163.689,435.129 167.401,435.526 L174.151,436.249 L170.503,429.006 L166.856,421.764 L163.921,424.576 L160.986,427.387 L156.833,425.376 L152.679,423.364 L160.81,417.634 C165.283,414.482 169.135,411.588 169.371,411.202 C170.113,409.99 166.209,391.305 164.54,388.078 C163.515,386.096 162.157,384.975 160.724,384.93 C158.603,384.863 158.593,384.822 160.5,384.054 C162.382,383.297 162.358,383.227 160.102,382.875 C158.247,382.585 156.607,380.46 152.866,373.5 C150.205,368.55 148.022,363.712 148.014,362.75 C148.006,361.788 147.273,361 146.383,361 C145.259,361 144.926,360.391 145.29,359 C145.679,357.511 145.32,357 143.887,357 C142.333,357 142.083,356.518 142.589,354.5 C143.117,352.396 142.865,352 141,352 C139.135,352 138.883,351.604 139.411,349.5 C139.878,347.637 139.642,347 138.484,347 C137.27,347 137.151,346.586 137.94,345.112 C138.831,343.448 138.428,343.093 134.532,342.112 C132.102,341.501 129.751,341.061 129.307,341.135 C128.863,341.209 124.225,345.766 119,351.261 M106.505,375.505 L82.72,400.053 L84.534,404.075 C85.531,406.287 86.734,408.335 87.206,408.627 C87.678,408.919 98.748,398.841 111.804,386.23 L135.544,363.302 L133.178,357.401 C131.877,354.156 130.695,351.378 130.551,351.228 C130.408,351.079 119.587,362.004 106.505,375.505 M125.094,436.324 L109.688,440.5 L108.487,444 C105.809,451.802 105.785,452 107.499,452 C109.202,452 115.935,456.607 117.265,458.681 C118.532,460.66 140.299,467.393 143.13,466.682 C144.915,466.234 147.269,463.435 151.318,456.945 C156.651,448.396 157,447.452 157,441.582 L157,435.327 L150.107,433.664 C146.316,432.749 142.603,432.033 141.857,432.074 C141.111,432.115 133.567,434.028 125.094,436.324 M42.599,452.026 C31.247,460.795 30.664,461.415 35.783,459.269 C38.105,458.296 42.804,454.688 46.224,451.25 C49.644,447.813 52.23,445.034 51.971,445.075 C51.712,445.117 47.495,448.244 42.599,452.026 M235.089,520.715 C233.894,525.547 232.693,530.4 232.421,531.5 C232.141,532.635 232.663,532.202 233.629,530.5 C235.305,527.546 238.518,513.185 237.689,512.355 C237.455,512.121 236.285,515.883 235.089,520.715 M240.09,537.5 L240.021,554.5 L243.843,548.5 L247.665,542.5 L244.491,533 C242.745,527.775 241.056,522.825 240.737,522 C240.419,521.175 240.127,528.15 240.09,537.5 M188.051,554.25 C188.079,555.487 188.866,560.77 189.801,565.988 L191.5,575.477 L204.876,581.279 C212.233,584.47 218.38,586.95 218.536,586.79 C218.693,586.631 215.373,580.367 211.16,572.871 L203.5,559.241 L196.233,555.621 C192.237,553.629 188.749,552 188.483,552 C188.218,552 188.023,553.013 188.051,554.25 M206.045,646.941 C202.72,651.308 200,655.103 200,655.374 C200,655.925 215.811,665.606 218.222,666.532 C219.388,666.979 221.753,663.662 227.824,653.063 L235.879,639 L223.985,639 L212.09,639 L206.045,646.941 M72.088,724.198 L66.677,727.352 L70.588,730.638 C78.297,737.116 78.315,737.116 85.054,730.446 L91.043,724.52 L86.272,722.837 C79.608,720.488 78.227,720.621 72.088,724.198 M260.52,738.831 L258.652,755 L244.826,755 C236.92,755 231,755.4 231,755.935 C231,756.449 231.712,760.161 232.582,764.185 C233.453,768.208 234.969,776.9 235.953,783.5 L237.741,795.5 L233.366,808.276 C230.96,815.303 226.744,825.533 223.996,831.008 C219.574,839.82 219,841.692 219,847.302 L219,853.641 L244.488,855.999 C258.507,857.296 270.152,858.164 270.366,857.928 C270.581,857.693 274.186,845.472 278.378,830.772 C285.858,804.541 286,803.833 286,792.683 C286,781.669 285.927,781.288 283.607,780.231 C281.561,779.298 279.848,775.043 271.8,750.901 L262.387,722.662 L260.52,738.831 M98,788.552 C91.125,792.041 84.825,794.919 84,794.946 C83.175,794.973 78.45,792.298 73.5,789 C68.55,785.702 64.234,783.003 63.908,783.002 C63.582,783.001 62.525,789.638 61.559,797.75 C59.942,811.32 59.352,813.62 54.184,826.5 L48.565,840.5 L25.569,860 L2.573,879.5 L1.33,885.5 C0.646,888.8 0.068,892.231 0.0438650269,893.124 C0.011,894.356 6.023,896.861 24.909,903.488 C38.609,908.295 50.286,912.064 50.858,911.864 C51.43,911.664 63.779,903.175 78.299,893 L104.7,874.5 L106.624,866.522 L108.548,858.545 L104.569,847.664 L100.59,836.783 L105.935,809.865 C108.874,795.059 111.104,782.78 110.89,782.577 C110.675,782.374 104.875,785.063 98,788.552"/><path fill-opacity=".145" d="M122.032,125.391 L113.563,127.59 L119.662,131.295 C123.017,133.333 126.304,135 126.967,135 C127.63,135 131.527,134.025 135.627,132.834 L143.082,130.668 L139.338,126.834 C134.974,122.365 133.996,122.283 122.032,125.391 M151.518,129.982 C149.38,132.172 147.826,134.149 148.065,134.377 C149.915,136.135 163.859,139 170.566,139 L178.416,139 L167.458,132.519 C161.431,128.954 156.254,126.029 155.953,126.018949 C155.652,126.008 153.656,127.792 151.518,129.982 M193.479,135.742 C194.429,140.806 194.617,141 198.559,141 C201.333,141 202,141.387 202,143 C202,144.1 201.351,145 200.558,145 C199.166,145 195.093,149.908 186.036,162.5 C182.01,168.096 182.297,167.888 190.288,159.417 C195,154.421 199.451,150.317 200.178,150.297 C200.905,150.277 205.124,148.487 209.553,146.321 C217.553,142.407 217.592,142.37 215.365,140.691 C214.132,139.761 212.421,139 211.562,139 C210.703,139 210,138.55 210,138 C210,137.45 209.127,137 208.059,137 C206.991,137 205.864,136.589 205.554,136.087 C205.243,135.585 203.192,134.87 200.995,134.499 C198.798,134.128 197,133.414 197,132.912 C197,132.41 196.05,132 194.889,132 C192.991,132 192.849,132.379 193.479,135.742 M220.353,138.137 C221.646,138.889 222.853,138.9 224.353,138.175 C226.226,137.268 225.99,137.131 222.5,137.098 C219.172,137.067 218.811,137.242 220.353,138.137 M169.596,179.611 C169.303,180.375 168.149,181 167.031,181 C165.914,181 165,181.419 165,181.93 C165,182.917 169.595,181.886 172.54,180.237 C174.061,179.386 174.025,179.24 172.179,178.757 C170.944,178.434 169.917,178.774 169.596,179.611 M224,407.168 C216.025,413.238 208.696,418.511 207.714,418.887 C206.732,419.263 202.567,422.48 198.459,426.035 C191.054,432.444 191.014,432.506 193.745,433.222 C197.05,434.089 203.315,444 200.558,444 C198.69,444 198.67,444.182 200.174,447.483 C201.245,449.834 201.009,450.407 197.471,454.03 C194.4,457.174 193.98,458 195.452,458 C197.247,458 197.248,458.068 195.5,460 C193.753,461.93 193.753,462 195.5,462 C197.247,462 197.247,462.07 195.5,464 C193.753,465.931 193.753,466 195.519,466 C197.153,466 197.098,466.267 195,468.5 C192.902,470.733 192.847,471 194.481,471 C196.247,471 196.247,471.069 194.5,473 C192.753,474.93 192.753,475 194.5,475 C196.247,475 196.247,475.07 194.5,477 C192.753,478.931 192.753,479 194.519,479 C196.153,479 196.098,479.267 194,481.5 C191.902,483.733 191.847,484 193.481,484 C195.247,484 195.247,484.069 193.5,486 C191.753,487.93 191.753,488 193.5,488 C195.247,488 195.247,488.07 193.5,490 C191.753,491.931 191.753,492 193.519,492 C195.153,492 195.098,492.267 193,494.5 C190.87,496.767 190.825,497 192.517,497 C194.334,497 194.335,497.035 192.523,498.36 C190.723,499.676 190.732,499.815 192.832,502.764 C195.409,506.383 195.464,506.755 193.48,507.177 C192.243,507.44 192.43,508.19 194.48,511.197 C197.433,515.53 197.478,515.752 195.48,516.177 C194.243,516.44 194.43,517.19 196.48,520.197 C199.433,524.53 199.478,524.752 197.48,525.177 C196.243,525.44 196.43,526.19 198.48,529.197 C201.433,533.53 201.478,533.752 199.48,534.177 C198.243,534.44 198.43,535.19 200.48,538.197 C203.434,542.531 203.526,543 201.418,543 C200.087,543 200.179,543.554 202,546.5 C204.029,549.782 204.049,550.006 202.332,550.1 C201.006,550.172 201.191,550.421 203,551 C204.809,551.579 204.994,551.828 203.668,551.9 C201.942,551.994 201.958,552.196 203.943,555.408 C205.522,557.962 205.73,558.945 204.775,559.329 C204.063,559.616 204.384,559.884 205.5,559.936 C207.049,560.009 207.187,560.229 206.111,560.91 C205.008,561.609 206.179,564.333 211.792,574.13 C215.681,580.917 218.738,586.596 218.585,586.748 C218.432,586.901 216.619,586.321 214.555,585.459 C212.492,584.597 210.06,584.088 209.152,584.33 C207.994,584.637 208.154,584.803 209.689,584.884 C211.549,584.983 212.275,586.318 214.51,593.75 C223.57,623.877 224.329,626 226.045,626 C228.248,626 229.315,627.419 231.495,633.25 C233.131,637.623 233.538,638 236.636,638 C238.486,638 240,638.45 240,639 C240,639.55 240.9,640 242,640 C243.704,640 244,640.667 244,644.5 C244,648.333 244.296,649 246,649 C247.704,649 248,649.667 248,653.5 C248,657.333 248.296,658 250,658 C251.704,658 252,658.667 252,662.5 C252,666.479 252.26,667.008 254.25,667.07 C256.23,667.132 256.278,667.228 254.653,667.867 C253.146,668.461 253.054,668.793 254.153,669.675 C254.894,670.269 256.454,671.047 257.619,671.404 C259.451,671.964 259.993,673.573 261.619,683.276 L263.5,694.5 L264,675.515 L264.5,656.529 L267.411,663.77 C269.012,667.753 270.507,670.827 270.732,670.601 C270.957,670.376 270.435,664.095 269.571,656.644 C267.414,638.037 267.471,637.4 271.855,631.107 L275.613,625.714 L267.518,607.569 L259.422,589.423 L255.504,531.756 L251.587,474.088 L253.617,467.794 L255.647,461.5 L247.824,438.023 C240.309,415.474 240,414.181 240,405.273 C240,400.173 239.662,396.03 239.25,396.065767 C238.838,396.103 231.975,401.099 224,407.168 M126.75,472.662 C127.438,472.94 128.563,472.94 129.25,472.662 C129.938,472.385 129.375,472.158 128,472.158 C126.625,472.158 126.063,472.385 126.75,472.662 M155.155,505.171 C154.577,507.002 150.68,519.75 146.497,533.5 C131.531,582.687 132.118,581 129.966,581 C127.529,581 127.371,582.689 129.75,583.311 C131.067,583.655 130.943,583.797 129.25,583.884 C126.586,584.021 126.249,585.657 128.75,586.311 C130.067,586.655 129.943,586.797 128.25,586.884 C125.586,587.021 125.249,588.657 127.75,589.311 C129.067,589.655 128.943,589.797 127.25,589.884 C124.586,590.021 124.249,591.657 126.75,592.311 C128.157,592.678 128.088,592.791 126.399,592.884 C124.7,592.978 123.914,594.29 122.291,599.75 L120.283,606.5 L115.055,606.805 L109.826,607.111 L110.265,610.912 C110.507,613.002 111.054,615.278 111.48,615.968 C111.928,616.693 111.674,617.593 110.878,618.096 C110.021,618.639 109.939,618.975 110.662,618.985 C111.916,619.001 111.917,620.743 110.663,622.75 C110.189,623.509 110.396,624.012 111.191,624.03 C111.962,624.048 111.748,624.498 110.668,625.126 C109.661,625.711 107.974,625.965 106.918,625.689 C104.611,625.085 104.627,624.773 106.569,632.265 C107.431,635.594 107.873,639.371 107.549,640.659 C107.127,642.344 107.387,643 108.481,643 C110.341,643 110.345,643.773 108.5,647 C106.659,650.221 106.659,651 108.5,651 C110.427,651 110.397,651.302 108,656 C105.603,660.698 105.573,661 107.5,661 C109.341,661 109.341,661.779 107.5,665 C105.659,668.221 105.659,669 107.5,669 C109.381,669 109.372,669.38 107.406,673.182 C106.088,675.73 106.045,676.413 107.156,677.117 C108.243,677.806 108.213,677.975 107,678 C105.796,678.025 105.763,678.198 106.834,678.876 C107.883,679.541 107.782,679.87 106.362,680.415 C104.827,681.004 104.777,681.247 106.028,682.038 C107.024,682.668 107.096,682.974 106.25,682.985 C105.427,682.995 105.597,683.629 106.75,684.841 C107.712,685.854 108.774,686.542 109.109,686.37 C109.444,686.197 112.563,693.729 116.04,703.107 C121.827,718.715 122.465,719.961 123.581,717.829 C124.252,716.548 128.488,707.175 132.994,697 C137.501,686.825 141.433,678.275 141.731,678 C142.03,677.725 141.979,681.325 141.617,686 C141.255,690.675 140.708,698.1 140.402,702.5 L139.846,710.5 L149.673,692.502 L159.5,674.503 L157.546,650.798 L155.592,627.093 L161.677,585.98 L167.762,544.867 L163.452,530.507 C159.723,518.082 159.285,515.682 160.198,512.707 C161.124,509.69 160.944,508.811 158.731,505.554 L156.208,501.841 L155.155,505.171 M235.089,520.715 C233.894,525.547 232.693,530.4 232.421,531.5 C232.141,532.635 232.663,532.202 233.629,530.5 C235.305,527.546 238.518,513.185 237.689,512.355 C237.455,512.121 236.285,515.883 235.089,520.715 M240.09,537.5 L240.021,554.5 L243.843,548.5 L247.665,542.5 L244.491,533 C242.745,527.775 241.056,522.825 240.737,522 C240.419,521.175 240.127,528.15 240.09,537.5 M70.225,705.831 L66.95,707.577 L71.502,709.789 C74.84,711.41 77.846,711.994 82.777,711.979 L89.5,711.959 L82.5,708 C78.65,705.823 75.05,704.051 74.5,704.062939 C73.95,704.074 72.026,704.87 70.225,705.831 M72.088,724.198 L66.677,727.352 L70.588,730.638 C78.297,737.116 78.315,737.116 85.054,730.446 L91.043,724.52 L86.272,722.837 C79.608,720.488 78.227,720.621 72.088,724.198 M260.52,738.831 L258.652,755 L253.908,755 C251.298,755 248.439,755.278 247.552,755.618 C246.105,756.174 246.122,756.374 247.721,757.586 C249.15,758.671 249.205,758.946 248,758.984 C246.667,759.025 246.667,759.138 248,760 C249.246,760.805 249.161,760.978 247.5,761.02 C245.718,761.065 245.772,761.226 248,762.5 C250.25,763.786 250.3,763.941 248.5,764.044 C247.4,764.106 247.063,764.385 247.75,764.662 C249.594,765.406 249.29,769 247.383,769 C246.206,769 245.894,769.667 246.236,771.455 C246.556,773.127 246.217,774.004 245.176,774.205 C244.209,774.391 245.234,775.551 247.961,777.356 C250.757,779.206 251.86,780.469 251.093,780.943 C250.325,781.417 251.415,782.671 254.192,784.508 C256.547,786.067 257.934,787.522 257.274,787.742 C255.72,788.26 262.399,795 264.467,795 C265.438,795 266,795.922 266,797.516 C266,799.381 266.859,800.442 269.318,801.615 C273.02,803.38 276.055,809 273.306,809 C272.219,809 272.015,809.499 272.589,810.75 C273.03,811.712 273.383,813.945 273.372,815.711 C273.36,817.797 273.904,819.07 274.927,819.345 C275.901,819.607 275.643,819.812 274.25,819.884 C271.782,820.011 271.078,822 273.5,822 C274.325,822 275,822.151 275,822.335 C275,822.519 273.182,827.131 270.96,832.585 C268.507,838.605 267.135,843.366 267.467,844.703 C268.14,847.41 266.752,847.689 249,848.417 C240.559,848.763 233.592,849.688 227.545,851.266 L218.591,853.603 L244.284,855.98 C258.415,857.287 270.152,858.164 270.366,857.928 C270.581,857.693 274.186,845.472 278.378,830.772 C285.858,804.541 286,803.833 286,792.683 C286,781.669 285.927,781.288 283.607,780.231 C281.561,779.298 279.848,775.043 271.8,750.901 L262.387,722.662 L260.52,738.831 M97.217,788.861 C83.94,795.495 83.932,795.498 80.967,793.796 C78.033,792.112 78,792.119 78,794.465 C78,798.091 76.969,800 75.01,800 C73.059,800 71.459,804.974 73.389,805.036 C74,805.056 73.15,806.179 71.5,807.531 C69.07,809.523 68.853,809.991 70.361,809.995 C72.011,809.999 71.958,810.214 69.893,811.885 C67.982,813.433 67.787,814.038 68.804,815.264 C69.684,816.325 69.761,817.497 69.07,819.315 C68.245,821.485 68.393,821.921 70.044,822.187 C71.841,822.476 71.88,822.712 70.555,825.25 C69.259,827.732 69.284,828.001 70.809,828.015 C72.266,828.029 72.293,828.165 71,829 C69.91,829.704 69.858,829.974 70.809,829.985 C71.529,829.993 71.84,830.45 71.5,831 C71.16,831.55 71.385,832 72,832 C72.615,832 72.86,832.418 72.544,832.928 C72.229,833.438 72.962,834.17 74.172,834.555 C76.297,835.229 76.308,835.302 74.496,836.627 C72.666,837.965 72.668,838 74.559,838.015 C76.178,838.028 76.251,838.191 75,839 C73.728,839.822 73.775,839.972 75.309,839.985 C76.304,839.993 76.84,840.45 76.5,841 C76.16,841.55 76.584,842 77.441,842 C79.275,842 79.355,842.468 77.965,845.066 C77.15,846.588 77.257,847 78.465,847 C80.594,847 80.385,849.342 78.067,851.439 C77.005,852.401 76.375,853.814 76.669,854.58 C77.005,855.455 76.143,856.39 74.352,857.096 C72.064,857.998 71.83,858.347 73.168,858.86 C74.483,859.365 71.454,863.36 58.822,877.779 C48.062,890.06 43.002,896.564 43.4,897.6 C43.909,898.928 43.19,899.044 38.246,898.438 C35.086,898.05 31.458,897.342 30.185,896.866 C28.912,896.39 26.357,896 24.507,896 C22.658,896 16.949,894.876 11.822,893.503 C0.642,890.507 -5.68434189e-14,890.473 -5.68434189e-14,892.874 C-5.68434189e-14,894.422 4.333,896.269 24.909,903.488 C38.609,908.295 50.286,912.064 50.858,911.864 C51.43,911.664 63.779,903.175 78.299,893 L104.7,874.5 L106.624,866.522 L108.548,858.545 L104.569,847.664 L100.59,836.783 L105.935,809.865 C108.874,795.059 111.104,782.784 110.89,782.585 C110.675,782.386 104.523,785.211 97.217,788.861 M235.103,803.13 C231.688,813.755 231.666,813.891 234.056,809.574 C235.251,807.414 236.309,805.097 236.408,804.425 C236.507,803.752 237.059,802.594 237.635,801.851 C238.211,801.108 238.41,799.433 238.077,798.13 C237.589,796.22 237.011,797.191 235.103,803.13"/></g></svg>