<svg xmlns="http://www.w3.org/2000/svg" width="1546.712" height="960.911" viewBox="0 0 1546.712 960.911"><g fill="#ABABAB" fill-rule="evenodd"><path fill-opacity=".204" d="M80.5904973,43.4465755 C64.6274973,76.7825755 58.9074973,89.6855755 58.9494973,92.2605755 C58.9824973,94.1855755 60.6784973,109.935576 62.7204973,127.260576 L66.4334973,158.760576 L45.4224973,188.760576 L24.4114973,218.760576 L12.1694973,249.185576 C5.43749731,265.919576 0.121497314,279.804576 0.350870319,280.040576 C0.594497314,280.276576 27.1624973,275.023576 59.3974973,268.365576 C91.6314973,261.707576 118.772497,256.255576 119.708497,256.248576 C120.645497,256.242576 142.111497,264.903576 167.411497,275.495576 L213.411497,294.754576 L242.949497,328.275576 L272.488497,361.796576 L261.093497,385.778576 L249.698497,409.760576 L247.820497,425.760576 C246.787497,434.560576 245.935497,443.385576 245.927497,445.371576 C245.916497,447.900576 249.137497,455.835576 256.684497,471.871576 L267.457497,494.760576 L240.203497,546.760576 C225.214497,575.360576 212.941497,599.020576 212.930497,599.339576 C212.920497,599.657576 220.673497,600.469576 230.161497,601.144576 C239.649497,601.819576 248.605497,602.597576 250.065497,602.874576 C251.847497,603.212576 255.333497,606.410576 260.681497,612.613576 L268.644497,621.850576 L289.128497,630.555576 C300.394497,635.343576 310.335497,639.260576 311.219497,639.260576 C312.102497,639.260576 321.057497,643.138576 331.118497,647.877576 L349.411497,656.494576 L372.411497,658.844576 C385.061497,660.137576 396.761497,661.203576 398.411497,661.215576 C400.798497,661.231576 398.475497,659.567576 387.040497,653.071576 L372.668497,644.907576 L358.040497,629.034576 C345.152497,615.050576 342.618497,611.709576 336.750497,600.960576 C330.576497,589.651576 330.211497,588.644576 331.750497,587.176576 C332.664497,586.305576 342.636497,573.423576 353.911497,558.549576 L374.411497,531.505576 L400.911497,520.446576 C415.486497,514.364576 427.724497,509.696576 428.106497,510.074576 C428.489497,510.451576 426.961497,518.112576 424.710497,527.098576 L420.618497,543.435576 L431.609497,554.598576 L442.599497,565.760576 L451.983497,590.738576 L461.368497,615.716576 L473.918497,630.238576 L486.469497,644.760576 L512.282497,653.902576 C526.479497,658.930576 538.441497,663.430576 538.863497,663.902576 C542.936497,668.457576 564.614497,698.494576 567.216497,703.189576 C569.066497,706.527576 570.952497,708.921576 571.406497,708.509576 C571.860497,708.097576 571.933497,708.282576 571.568497,708.920576 C570.749497,710.351576 571.826497,713.431576 572.911497,712.760576 C573.979497,712.100576 575.085497,715.170576 574.260497,716.505576 C573.898497,717.090576 574.049497,717.293576 574.595497,716.955576 C575.141497,716.618576 576.561497,718.072576 577.750497,720.187576 C580.330497,724.777576 580.492497,725.987576 578.281497,724.152576 C576.814497,722.934576 576.722497,723.122576 577.360497,726.030576 C577.751497,727.806576 577.697497,729.283576 577.240497,729.310576 C576.784497,729.338576 557.736497,731.476576 534.911497,734.061576 L493.411497,738.761576 L463.581497,759.261576 C438.328497,776.615576 434.186497,779.798576 436.581497,780.008576 C438.138497,780.144576 450.813497,779.221576 464.748497,777.958576 C480.360497,776.542576 489.554497,776.063576 488.701497,776.710576 C487.940497,777.287576 477.697497,785.860576 465.938497,795.760576 C448.192497,810.700576 444.970497,813.805576 446.984497,814.023576 C448.319497,814.167576 467.411497,812.512576 489.411497,810.345576 L529.411497,806.404576 L552.104497,800.521576 L574.797497,794.638576 L571.206497,801.199576 C569.231497,804.808576 566.354497,810.010576 564.814497,812.760576 C563.273497,815.510576 558.230497,821.510576 553.607497,826.094576 L545.201497,834.428576 L550.169497,843.337576 L555.137497,852.246576 L551.318497,857.253576 C549.218497,860.007576 547.030497,862.242576 546.456497,862.220576 C545.881497,862.198576 540.686497,861.154576 534.911497,859.899576 C525.515497,857.858576 524.195497,857.300576 522.359497,854.586576 L520.308497,851.553576 L516.359497,854.221576 C512.528497,856.810576 510.983497,857.033576 464.411497,861.695576 L416.411497,866.501576 L383.270497,883.631576 L350.130497,900.760576 L360.270497,901.052576 C365.848497,901.213576 387.061497,900.914576 407.411497,900.388576 C427.761497,899.862576 444.531497,899.550576 444.677497,899.695576 C444.823497,899.840576 432.765497,910.656576 417.882497,923.731576 C402.998497,936.805576 390.994497,947.677576 391.207497,947.889576 C391.419497,948.102576 409.327497,943.959576 431.002497,938.683576 C462.160497,931.098576 544.723497,913.758576 545.596497,914.615576 C545.698497,914.715576 542.591497,919.027576 538.692497,924.198576 C532.984497,931.767576 530.551497,936.219576 526.207497,947.046576 C523.239497,954.441576 520.988497,960.671576 521.206497,960.896291 C521.424497,961.106576 532.809497,956.677576 546.506497,951.046576 L571.411497,940.808576 L587.442497,927.770576 L603.473497,914.731576 L630.942497,907.296576 L658.411497,899.860576 L673.664497,866.310576 L688.918497,832.760576 L688.914497,805.708576 L688.911497,778.656576 L704.503497,744.708576 C713.078497,726.037576 723.914497,702.210576 728.583497,691.760576 C736.852497,673.253576 737.271497,672.558576 744.742497,664.980576 C751.234497,658.394576 755.561497,655.325576 772.943497,644.980576 L793.476497,632.760576 L776.953497,622.760576 L760.430497,612.760576 L753.676497,601.260576 L746.922497,589.760576 L746.918497,577.260576 L746.915497,564.760576 L761.213497,559.295576 L775.512497,553.830576 L782.383497,541.295576 C794.010497,520.087576 791.683497,522.307576 807.025497,517.789576 L820.411497,513.848576 L834.911497,494.368576 L849.411497,474.888576 L852.091497,459.036576 C854.523497,444.649576 855.054497,442.861576 857.841497,439.687576 C860.851497,436.258576 860.911497,436.239576 860.911497,438.693576 C860.911497,440.438576 864.428497,445.310576 872.546497,454.812576 L884.182497,468.429576 L888.393497,485.095576 C890.709497,494.261576 897.271497,518.853576 902.976497,539.744576 L913.348497,577.728576 L941.613497,608.462576 L969.877497,639.196576 L965.644497,641.657576 C963.316497,643.011576 951.354497,649.757576 939.063497,656.649576 C919.803497,667.447576 912.795497,672.116576 888.353497,690.426576 C872.754497,702.112576 860.164497,711.846576 860.375497,712.058576 C860.587497,712.269576 868.229497,711.436576 877.358497,710.207576 C886.488497,708.978576 894.190497,708.205576 894.474497,708.490576 C894.758497,708.774576 893.623497,712.450576 891.951497,716.659576 C890.279497,720.868576 888.911497,724.589576 888.911497,724.927576 C888.911497,725.265576 892.725497,725.304576 897.387497,725.013576 L905.862497,724.484576 L867.637497,750.964576 C846.613497,765.527576 815.252497,786.289576 797.946497,797.101576 L766.480497,816.760576 L779.946497,817.928576 C787.352497,818.571576 793.837497,819.133576 794.358497,819.178576 C794.879497,819.223576 791.279497,821.782576 786.358497,824.863576 C781.437497,827.945576 777.186497,830.694576 776.911497,830.972576 C776.636497,831.249576 788.959497,831.146576 804.296497,830.742576 L832.181497,830.007576 L828.998497,834.634576 C825.853497,839.204576 825.843497,839.260576 828.113497,839.265576 C837.727497,839.284576 873.403497,834.608576 889.911497,831.166576 L909.411497,827.100576 L936.956497,814.430576 L964.502497,801.760576 L975.018497,784.260576 C980.802497,774.635576 993.831497,752.449576 1003.9725,734.957576 L1022.4115,703.154576 L1035.4115,696.520576 L1048.4115,689.886576 L1061.9395,674.323576 L1075.4665,658.760576 L1088.1155,602.760576 L1100.7645,546.760576 L1103.9975,514.502576 C1105.7745,496.761576 1106.9545,481.970576 1106.6195,481.634576 C1106.2835,481.299576 1096.3695,482.063576 1084.5885,483.333576 L1063.1675,485.642576 L1048.0265,479.739576 C1039.6995,476.492576 1033.0045,473.521576 1033.1485,473.137576 C1033.2935,472.753576 1058.8365,443.713576 1089.9115,408.605576 L1146.4115,344.771576 L1157.0555,293.455576 C1162.9095,265.231576 1167.8595,241.988576 1168.0555,241.804576 C1168.4875,241.397576 1275.5865,235.222576 1281.8245,235.244576 C1285.9105,235.259576 1289.2475,237.244576 1326.8245,262.010576 L1367.4115,288.760576 L1384.3545,326.260576 L1401.2985,363.760576 L1401.8545,375.562576 L1402.4115,387.364576 L1391.6865,404.062576 C1385.7875,413.246576 1380.9505,421.006576 1380.9365,421.307576 C1380.9225,421.607576 1389.1355,424.532576 1399.1875,427.807576 L1417.4635,433.760576 L1422.4055,470.235576 L1427.3465,506.710576 L1447.1715,529.485576 C1458.0755,542.011576 1467.1665,552.260576 1467.3745,552.260576 C1467.5825,552.260576 1473.7515,541.921576 1481.0825,529.283576 C1488.4135,516.646576 1494.8615,506.322576 1495.4115,506.340576 C1495.9615,506.359576 1507.6615,516.193576 1521.4115,528.194576 C1535.1615,540.196576 1546.5385,549.906576 1546.69575,549.772576 C1546.8485,549.638576 1539.0025,517.622576 1529.2565,478.624576 L1511.5375,407.719576 L1493.1085,397.739576 C1482.9715,392.251576 1474.5005,387.308576 1474.2815,386.755576 C1474.0635,386.202576 1471.0785,372.241576 1467.6485,355.729576 L1461.4115,325.708576 L1433.9115,288.730576 L1406.4115,251.753576 L1360.3555,218.722576 L1314.2995,185.692576 L1252.8555,181.878576 C1219.0615,179.781576 1191.3075,177.968576 1191.1815,177.849576 C1191.0545,177.730576 1195.6685,166.900576 1201.4335,153.782576 C1207.1985,140.664576 1211.7265,129.741576 1211.4955,129.510576 C1211.2635,129.279576 1204.4175,130.907576 1196.2795,133.128576 C1188.1425,135.350576 1181.3565,137.038576 1181.1995,136.881576 C1181.0425,136.724576 1191.2625,113.044576 1203.9115,84.2605755 C1216.5605,55.4765755 1226.7445,31.7605755 1226.5425,31.5585755 C1226.3415,31.3565755 1202.5685,39.8905755 1173.7135,50.5215755 L1121.2505,69.8515755 L1106.2755,83.5275755 C1090.7235,97.7295755 1069.2945,114.395576 1072.0565,110.139576 C1072.9055,108.831576 1082.0675,94.2605755 1092.4155,77.7605755 C1102.7635,61.2605755 1111.9465,46.6535755 1112.8215,45.3005755 C1114.0485,43.4035755 1106.6455,46.7955755 1080.4115,60.1535755 C1048.9285,76.1835755 1045.9255,77.9425755 1039.8435,83.9055755 C1033.4305,90.1935755 1033.2075,90.5875755 1030.4235,100.553576 L1027.5715,110.760576 L1004.9425,133.260576 C992.496497,145.635576 978.775497,159.697576 974.450497,164.510576 L966.587497,173.260576 L961.169497,173.260576 L955.751497,173.260576 L956.460497,163.260576 C956.850497,157.760576 956.962497,153.260576 956.709497,153.260576 C956.456497,153.260576 944.585497,158.017576 930.330497,163.832576 C911.861497,171.365576 894.298497,177.545576 869.226497,185.332576 C849.875497,191.342576 833.149497,196.260576 832.058497,196.260576 C830.968497,196.260576 811.476497,191.795576 788.743497,186.338576 L747.411497,176.415576 L708.985497,158.338576 C687.850497,148.395576 669.625497,140.260576 668.485497,140.261576 C667.344497,140.261576 658.311497,141.833576 648.411497,143.753576 C624.993497,148.296576 624.317497,148.285576 619.411497,143.260576 C617.263497,141.060576 614.809497,139.254576 613.958497,139.246576 C613.107497,139.238576 593.601497,143.779576 570.611497,149.335576 L528.811497,159.439576 L520.611497,165.023576 C516.101497,168.094576 511.669497,171.362576 510.761497,172.284576 C508.311497,174.775576 428.044497,229.895576 416.216497,237.209576 C410.609497,240.677576 405.166497,244.469576 404.122497,245.637576 C403.077497,246.805576 390.831497,263.735576 376.908497,283.260576 C362.985497,302.785576 350.315497,320.131576 348.752497,321.808576 C347.190497,323.484576 345.911497,325.503576 345.911497,326.295576 C345.911497,327.087576 339.518497,346.931576 331.704497,370.393576 L317.498497,413.051576 L314.005497,414.123576 C312.084497,414.713576 310.372497,415.055576 310.201497,414.883576 C309.813497,414.496576 345.168497,322.556576 347.183497,318.710576 C348.566497,316.071576 348.435497,315.530576 344.746497,308.692576 C340.994497,301.736576 340.782497,300.825576 339.129497,284.586576 L337.411497,267.709576 L301.911497,225.734576 L266.411497,183.759576 L221.911497,155.260576 L177.411497,126.760576 L155.786497,98.0275755 L134.161497,69.2945755 L119.401497,36.0275755 C111.283497,17.7305755 104.112497,1.71957551 103.465497,0.446575515 C102.396497,-1.65642449 100.315497,2.25457551 80.5904973,43.4465755 M361.957497,262.705576 C361.297497,263.500576 360.905497,265.113576 361.084497,266.289576 C361.342497,267.979576 361.642497,267.676576 362.512497,264.844576 C363.739497,260.848576 363.682497,260.627576 361.957497,262.705576 M335.485497,438.861576 C302.526497,453.380576 275.355497,465.260576 275.106497,465.260576 C274.857497,465.260576 274.901497,462.448576 275.204497,459.010576 L275.755497,452.760576 L274.236497,459.057576 C273.401497,462.520576 273.016497,466.540576 273.380497,467.992576 L274.042497,470.630576 L275.238497,468.231576 C276.203497,466.295576 286.773497,461.430576 329.923497,443.059576 C359.341497,430.535576 385.007497,419.838576 386.959497,419.290576 C388.910497,418.741576 391.807497,416.935576 393.396497,415.276576 C394.985497,413.617576 396.088497,412.305576 395.848497,412.361576 C395.608497,412.416576 368.444497,424.341576 335.485497,438.861576 M988.562497,541.281576 C986.554497,544.382576 984.911497,547.258576 984.911497,547.672576 C984.911497,548.523576 1002.8705,575.116576 1003.8565,575.726576 C1004.2075,575.943576 1006.4555,570.864576 1008.8505,564.440576 C1011.2465,558.016576 1014.2275,550.036576 1015.4765,546.706576 L1017.7465,540.653576 L1004.9805,538.147576 L992.213497,535.642576 L988.562497,541.281576 M651.411497,591.203576 C640.411497,594.319576 630.763497,597.097576 629.971497,597.377576 C629.130497,597.675576 632.052497,599.690576 636.993497,602.220576 L645.456497,606.554576 L652.933497,627.323576 C657.046497,638.747576 660.491497,648.013576 660.589497,647.915576 C660.687497,647.818576 664.741497,635.143576 669.599497,619.749576 L678.432497,591.760576 L674.922497,588.649576 L671.411497,585.538576 L651.411497,591.203576 M560.645497,845.010576 C559.778497,845.972576 558.921497,847.311576 558.740497,847.985576 C558.431497,849.138576 569.895497,857.609576 570.690497,856.815576 C571.035497,856.469576 563.031497,843.260576 562.476497,843.260576 C562.336497,843.260576 561.512497,844.048576 560.645497,845.010576"/><path fill-opacity=".034" d="M108.883497,13.7605755 C108.848497,14.3105755 106.800497,29.1605755 104.333497,46.7605755 C101.865497,64.3605755 99.8404973,79.6605755 99.8324973,80.7605755 C99.8244973,81.8605755 100.792497,88.9285755 101.982497,96.4665755 L104.146497,110.171576 L111.279497,113.128576 C115.201497,114.754576 127.120497,119.695576 137.764497,124.109576 C148.408497,128.522576 157.331497,132.346576 157.592497,132.607576 C157.853497,132.869576 144.307497,150.859576 127.489497,172.586576 C110.671497,194.314576 96.9014973,212.466576 96.8894973,212.925576 C96.8774973,213.384576 93.6034973,219.610576 89.6144973,226.760576 L82.3604973,239.760576 L42.0234973,258.423576 C19.8374973,268.687576 1.20449731,277.567576 0.615497314,278.156576 C0.026497314,278.745576 -0.175502686,279.506576 0.166497314,279.848576 C0.508497314,280.190576 27.1624973,275.023576 59.3974973,268.365576 C91.6314973,261.707576 118.815497,256.260576 119.805497,256.260576 C120.795497,256.260576 137.762497,263.051576 157.508497,271.351576 C177.255497,279.651576 195.621497,287.323576 198.322497,288.400576 L203.233497,290.358576 L202.654497,266.559576 L202.076497,242.760576 L203.787497,250.342576 C204.728497,254.512576 208.321497,264.049576 211.771497,271.535576 C217.273497,283.475576 217.895497,285.422576 216.835497,287.402576 C214.324497,292.093576 216.522497,292.479576 267.349497,296.270576 L314.411497,299.779576 L314.378497,304.770576 C314.360497,307.514576 314.174497,312.010576 313.964497,314.760576 C313.754497,317.510576 313.657497,335.615576 313.747497,354.994576 L313.911497,390.228576 L317.196497,388.661576 C320.326497,387.169576 321.086497,385.524576 333.255497,353.927576 C340.280497,335.685576 346.619497,319.675576 347.341497,318.349576 C348.525497,316.174576 348.271497,315.227576 344.750497,308.700576 C340.993497,301.735576 340.782497,300.829576 339.129497,284.586576 L337.411497,267.709576 L301.911497,225.734576 L266.411497,183.759576 L221.911497,155.260576 L177.411497,126.760576 L155.931497,98.2605755 L134.451497,69.7605755 L121.699497,41.2605755 C114.685497,25.5855755 108.918497,13.2105755 108.883497,13.7605755 M1222.0905,32.6155755 C1219.4605,33.5685755 1217.7645,35.5445755 1213.9325,42.1245755 C1210.2175,48.5015755 1203.5565,56.3925755 1185.2495,76.1015755 L1161.4055,101.773576 L1138.4085,143.266576 L1115.4115,184.760576 L1114.9115,232.152576 L1114.4115,279.545576 L1102.5985,263.902576 C1096.1005,255.299576 1090.5335,248.260576 1090.2255,248.260576 C1089.9185,248.260576 1090.1145,248.823576 1090.6625,249.510576 C1091.2105,250.198576 1096.4795,257.285576 1102.3715,265.260576 C1108.2635,273.235576 1113.8335,280.066576 1114.7485,280.440576 C1116.2905,281.070576 1116.2895,281.125576 1114.7315,281.190576 C1113.8085,281.228576 1102.1805,281.954576 1088.8915,282.802576 L1064.7315,284.344576 L1060.3895,281.800576 C1055.5335,278.954576 1055.7615,278.765576 1054.4105,286.760576 C1054.0385,288.960576 1051.4845,295.935576 1048.7345,302.260576 C1043.8325,313.537576 1041.8825,317.227576 1043.4535,312.260576 C1043.8885,310.885576 1046.3635,302.918576 1048.9555,294.556576 L1053.6665,279.352576 L1048.0385,283.154576 C1038.1475,289.837576 1033.6705,292.460576 1034.4885,291.092576 C1034.9265,290.359576 1040.4885,283.910576 1046.8485,276.760576 L1058.4115,263.760576 L1056.9775,232.297576 C1055.5725,201.486576 1055.5885,200.459576 1057.7285,182.797576 C1058.9295,172.877576 1060.8915,154.494576 1062.0875,141.946576 L1064.2615,119.132576 L1073.2765,106.446576 C1082.2675,93.7925755 1114.3905,43.4145755 1111.6525,46.2605755 C1110.8585,47.0855755 1107.8285,50.6855755 1104.9195,54.2605755 C1102.0105,57.8355755 1089.6805,71.2565755 1077.5205,84.0845755 C1055.9225,106.868576 1055.3535,107.577576 1052.9115,114.718576 C1051.5365,118.739576 1048.4375,124.827576 1046.0255,128.248576 L1041.6385,134.467576 L1046.8325,165.113576 C1049.6885,181.969576 1052.2075,196.435576 1052.4305,197.260576 C1052.6885,198.219576 1049.9005,200.925576 1044.7015,204.760576 C1038.7035,209.186576 984.339497,251.746576 982.093497,253.776576 C981.918497,253.934576 978.024497,263.895576 973.439497,275.911576 C967.026497,292.719576 964.675497,297.827576 963.244497,298.048576 C961.555497,298.311576 960.905497,295.433576 956.131497,266.548576 C953.242497,249.065576 950.878497,232.960576 950.878497,230.760576 C950.878497,228.560576 952.315497,210.452576 954.072497,190.521576 C955.828497,170.589576 957.036497,154.052576 956.756497,153.771576 C956.475497,153.491576 944.583497,158.017576 930.328497,163.829576 C911.780497,171.392576 894.158497,177.586576 868.350497,185.613576 L832.289497,196.828576 L822.350497,205.599576 L812.411497,214.369576 L809.138497,207.491576 L805.866497,200.614576 L794.517497,202.245576 L783.168497,203.876576 L771.131497,213.914576 L759.093497,223.952576 L749.929497,224.546576 C741.125497,225.116576 740.588497,225.290576 736.293497,228.950576 C733.833497,231.045576 728.771497,235.010576 725.043497,237.760576 C721.316497,240.510576 711.609497,247.675576 703.474497,253.682576 L688.683497,264.605576 L670.047497,268.836576 L651.411497,273.067576 L662.411497,262.711576 L673.411497,252.355576 L656.911497,257.668576 C640.234497,263.038576 617.813497,271.703576 600.953497,279.295576 C595.894497,281.573576 591.575497,283.257576 591.355497,283.037576 C590.385497,282.067576 571.971497,235.867576 572.388497,235.450576 C572.644497,235.193576 595.704497,237.750576 623.632497,241.130576 C651.561497,244.511576 675.385497,247.273576 676.575497,247.268576 C678.352497,247.261576 681.380497,242.673576 693.467497,221.680576 L708.194497,196.099576 L713.553497,193.471576 L718.911497,190.843576 L718.911497,180.258576 L718.911497,169.672576 L707.398497,166.864576 C701.066497,165.320576 695.308497,164.277576 694.603497,164.548576 C693.898497,164.818576 688.875497,170.309576 683.441497,176.750576 L673.561497,188.460576 L670.321497,202.942576 C668.539497,210.907576 666.930497,217.555576 666.746497,217.717576 C666.562497,217.878576 656.061497,217.183576 643.411497,216.173576 L620.411497,214.336576 L595.048497,221.385576 C581.098497,225.261576 569.350497,228.057576 568.942497,227.597576 C568.533497,227.136576 565.795497,220.812576 562.857497,213.541576 C559.919497,206.271576 557.427497,200.421576 557.319497,200.541576 C557.212497,200.662576 559.907497,220.881576 563.310497,245.474576 L569.497497,290.187576 L565.086497,314.474576 L560.675497,338.760576 L562.327497,348.760576 C564.627497,362.684576 563.524497,365.779576 552.362497,376.706576 L544.135497,384.760576 L533.273497,408.664576 L522.411497,432.568576 L507.911497,444.106576 C499.936497,450.451576 489.172497,459.013576 483.991497,463.131576 C478.810497,467.250576 474.956497,469.976576 475.426497,469.190576 C475.897497,468.403576 482.866497,457.860576 490.914497,445.760576 C498.962497,433.660576 510.351497,416.290576 516.224497,407.159576 L526.901497,390.559576 L528.480497,372.410576 C529.347497,362.427576 529.912497,353.535576 529.734497,352.650576 C529.541497,351.684576 521.113497,361.801576 508.701497,377.900576 C492.729497,398.615576 484.036497,408.808576 470.701497,422.457576 L453.411497,440.155576 L421.911497,456.479576 L390.411497,472.803576 L357.411497,479.620576 C325.839497,486.143576 323.740497,486.720576 308.911497,492.957576 C300.386497,496.542576 293.091497,499.770576 292.700497,500.129576 C291.264497,501.448576 281.902497,562.352576 282.531497,566.283576 L283.146497,570.134576 L260.279497,581.543576 C241.592497,590.867576 235.126497,593.575576 224.911497,596.355576 L212.411497,599.757576 L232.411497,601.434576 C243.411497,602.356576 252.458497,603.144576 252.515497,603.185576 C252.572497,603.226576 256.224497,607.443576 260.631497,612.555576 L268.644497,621.850576 L289.128497,630.555576 C300.394497,635.343576 310.335497,639.260576 311.219497,639.260576 C312.102497,639.260576 321.057497,643.138576 331.118497,647.877576 L349.411497,656.494576 L372.411497,658.844576 C385.061497,660.137576 396.761497,661.203576 398.411497,661.215576 C400.798497,661.231576 398.475497,659.567576 387.040497,653.071576 L372.668497,644.907576 L358.040497,629.034576 C345.152497,615.050576 342.618497,611.709576 336.750497,600.960576 C330.576497,589.651576 330.211497,588.644576 331.750497,587.176576 C332.664497,586.305576 342.636497,573.424576 353.911497,558.551576 L374.411497,531.511576 L399.911497,520.893576 C433.357497,506.967576 431.194497,507.633576 435.979497,509.790576 C438.141497,510.766576 439.911497,511.935576 439.911497,512.390576 C439.911497,513.694576 434.561497,524.260576 433.900497,524.260576 C433.573497,524.260576 432.479497,521.898576 431.469497,519.010576 C430.458497,516.122576 429.341497,513.429576 428.985497,513.024576 C428.630497,512.619576 426.609497,519.303576 424.494497,527.877576 L420.649497,543.466576 L431.624497,554.613576 L442.599497,565.760576 L451.983497,590.738576 L461.368497,615.716576 L473.918497,630.238576 L486.469497,644.760576 L512.282497,653.902576 C526.479497,658.930576 538.441497,663.430576 538.863497,663.902576 C543.845497,669.474576 565.219497,699.451576 568.628497,705.649576 C572.722497,713.091576 573.117497,713.520576 571.264497,708.510576 C570.342497,706.018576 571.635497,707.470576 578.624497,716.775576 L584.643497,724.790576 L595.964497,727.005576 C602.191497,728.223576 607.457497,729.047576 607.668497,728.837576 C607.878497,728.626576 607.110497,726.610576 605.960497,724.357576 C603.463497,719.461576 603.252497,719.510576 615.783497,722.058576 L624.155497,723.760576 L626.757497,730.127576 L629.360497,736.494576 L621.886497,750.901576 C614.452497,765.229576 609.911497,771.643576 609.911497,767.816576 C609.911497,766.231576 609.534497,766.309576 606.661497,768.493576 C603.772497,770.689576 600.693497,771.318576 578.911497,774.158576 C565.436497,775.914576 544.286497,778.142576 531.911497,779.109576 L509.411497,780.866576 L483.771497,791.652576 C461.340497,801.088576 457.284497,803.141576 451.371497,808.050576 C447.653497,811.135576 445.142497,813.837576 445.792497,814.054576 C446.441497,814.270576 464.620497,812.794576 486.191497,810.775576 L525.411497,807.103576 L549.823497,800.963576 C573.971497,794.890576 574.257497,794.787576 576.207497,791.482576 C577.749497,788.869576 580.785497,786.834576 590.151497,782.140576 C596.735497,778.839576 602.283497,776.298576 602.478497,776.494576 C602.674497,776.690576 589.869497,789.809576 574.023497,805.648576 L545.211497,834.447576 L550.175497,843.348576 L555.139497,852.249576 L558.571497,847.755576 C560.458497,845.283576 562.164497,843.260576 562.360497,843.260576 C562.557497,843.260576 566.855497,849.785576 571.911497,857.760576 C576.967497,865.735576 581.323497,872.260576 581.590497,872.260576 C581.858497,872.260576 586.952497,868.435576 592.911497,863.760576 C598.870497,859.085576 603.999497,855.260576 604.308497,855.260576 C604.618497,855.260576 608.480497,860.646576 612.890497,867.228576 L620.908497,879.196576 L612.159497,887.595576 C598.138497,901.057576 594.217497,904.087576 584.544497,908.934576 C572.208497,915.115576 560.859497,923.394576 545.911497,937.116576 C527.136497,954.351576 520.784497,960.467576 521.214497,960.904009 C521.427497,961.110576 532.809497,956.677576 546.506497,951.046576 L571.411497,940.808576 L587.442497,927.770576 L603.473497,914.731576 L630.942497,907.296576 L658.411497,899.860576 L673.664497,866.310576 L688.918497,832.760576 L688.914497,805.708576 L688.911497,778.656576 L704.503497,744.708576 C713.078497,726.037576 723.914497,702.210576 728.583497,691.760576 C736.853497,673.251576 737.271497,672.559576 744.742497,664.982576 C751.220497,658.412576 755.605497,655.298576 772.973497,644.937576 L793.535497,632.671576 L778.549497,623.716576 C770.307497,618.790576 762.715497,614.535576 761.678497,614.260576 C760.641497,613.985576 759.920497,613.535576 760.075497,613.260576 C760.231497,612.985576 757.332497,607.550576 753.634497,601.182576 L746.911497,589.603576 L746.913497,577.182576 L746.915497,564.760576 L761.213497,559.295576 L775.512497,553.830576 L782.383497,541.295576 C794.010497,520.087576 791.683497,522.307576 807.025497,517.789576 L820.411497,513.848576 L834.911497,494.368576 L849.411497,474.888576 L852.091497,459.036576 C854.523497,444.649576 855.054497,442.861576 857.841497,439.687576 C860.851497,436.258576 860.911497,436.239576 860.911497,438.693576 C860.911497,440.438576 864.428497,445.310576 872.546497,454.812576 L884.182497,468.429576 L888.393497,485.095576 C890.709497,494.261576 897.271497,518.853576 902.976497,539.744576 L913.348497,577.728576 L941.623497,608.473576 L969.897497,639.217576 L963.654497,642.787576 C960.220497,644.750576 948.414497,651.401576 937.417497,657.567576 L917.423497,668.778576 L909.494497,682.828576 L901.566497,696.878576 L886.298497,703.795576 C877.900497,707.600576 871.116497,710.781576 871.220497,710.864576 C871.325497,710.948576 876.488497,710.336576 882.693497,709.504576 C888.898497,708.672576 894.212497,708.228576 894.502497,708.517576 C894.791497,708.807576 894.321497,710.737576 893.456497,712.805576 C892.592497,714.874576 892.003497,716.671576 892.148497,716.797576 C892.293497,716.924576 894.886497,713.772576 897.911497,709.792576 C902.561497,703.675576 905.479497,701.181576 916.785497,693.658576 C937.975497,679.559576 936.347497,680.486576 935.720497,682.883576 C935.427497,684.003576 929.164497,692.945576 921.802497,702.755576 C909.874497,718.648576 907.871497,720.845576 903.413497,722.917576 L898.411497,725.241576 L902.411497,724.626576 C905.804497,724.104576 900.647497,728.012576 868.420497,750.385576 L830.429497,776.760576 L820.247497,792.760576 C814.648497,801.560576 810.031497,809.081576 809.989497,809.472576 C809.946497,809.864576 816.994497,805.735576 825.652497,800.297576 C834.309497,794.858576 841.567497,790.582576 841.779497,790.795576 C842.373497,791.389576 834.697497,821.688576 833.801497,822.288576 C833.366497,822.578576 827.251497,824.378576 820.211497,826.288576 L807.411497,829.760576 L819.707497,830.041576 L832.003497,830.322576 L829.957497,833.196576 C828.832497,834.776576 827.911497,836.366576 827.911497,836.729576 C827.911497,837.092576 833.087497,832.792576 839.413497,827.172576 C853.388497,814.759576 877.259497,797.736576 877.736497,799.844576 C878.379497,802.685576 875.820497,815.783576 874.414497,816.846576 C873.623497,817.443576 864.632497,822.392576 854.433497,827.842576 C844.234497,833.293576 836.369497,837.913576 836.955497,838.108576 C839.834497,839.068576 873.596497,834.639576 890.411497,831.096576 L909.411497,827.093576 L936.956497,814.426576 L964.502497,801.760576 L975.018497,784.260576 C980.802497,774.635576 993.831497,752.449576 1003.9725,734.957576 L1022.4115,703.154576 L1035.4115,696.520576 L1048.4115,689.886576 L1061.9395,674.323576 L1075.4665,658.760576 L1088.1155,602.760576 L1100.7645,546.760576 L1103.9975,514.502576 C1105.7745,496.761576 1106.9545,481.970576 1106.6195,481.634576 C1106.2835,481.299576 1096.3695,482.063576 1084.5885,483.333576 L1063.1675,485.642576 L1048.0265,479.739576 C1039.6995,476.492576 1033.0045,473.521576 1033.1485,473.137576 C1033.2935,472.753576 1058.8365,443.713576 1089.9115,408.605576 L1146.4115,344.771576 L1157.0555,293.455576 C1162.9095,265.231576 1167.8595,241.988576 1168.0555,241.804576 C1168.4875,241.397576 1275.5865,235.222576 1281.8245,235.244576 C1285.9105,235.259576 1289.2475,237.244576 1326.8245,262.010576 L1367.4115,288.760576 L1384.3355,326.260576 L1401.2585,363.760576 L1402.0155,377.260576 L1402.7715,390.760576 L1399.5495,393.760576 C1396.8805,396.244576 1380.9115,419.930576 1380.9115,421.404576 C1380.9115,421.651576 1389.1355,424.532576 1399.1875,427.807576 L1417.4635,433.760576 L1422.4055,470.235576 L1427.3465,506.710576 L1447.1715,529.485576 C1458.0755,542.011576 1467.1665,552.260576 1467.3745,552.260576 C1467.5825,552.260576 1473.7515,541.921576 1481.0825,529.283576 C1488.4135,516.646576 1494.8615,506.322576 1495.4115,506.340576 C1495.9615,506.359576 1507.6615,516.193576 1521.4115,528.194576 C1535.1615,540.196576 1546.5415,549.903576 1546.70657,549.765576 C1546.8595,549.628576 1543.8785,537.196576 1540.0755,522.138576 L1533.1625,494.760576 L1519.7445,464.760576 C1506.3735,434.867576 1506.2705,434.681576 1491.0045,412.458576 C1482.5775,400.191576 1475.4945,390.344576 1475.2635,390.575576 C1475.0325,390.806576 1475.3245,393.139576 1475.9115,395.760576 C1476.4985,398.381576 1476.8275,400.677576 1476.6425,400.863576 C1476.4565,401.048576 1472.8085,397.683576 1468.5355,393.385576 L1460.7665,385.569576 L1459.1925,373.665576 C1457.8025,363.141576 1457.0115,360.447576 1452.3825,350.447576 C1448.1905,341.391576 1445.4435,337.132576 1438.6195,329.104576 L1430.0945,319.075576 L1418.2745,285.417576 L1406.4535,251.760576 L1360.3765,218.726576 L1314.2995,185.692576 L1252.8555,181.878576 C1219.0615,179.781576 1191.3075,177.968576 1191.1815,177.849576 C1191.0545,177.730576 1195.6685,166.900576 1201.4335,153.782576 C1207.1985,140.664576 1211.7265,129.741576 1211.4955,129.510576 C1211.2635,129.279576 1204.4175,130.907576 1196.2795,133.128576 C1188.1425,135.350576 1181.3565,137.038576 1181.1995,136.881576 C1181.0425,136.724576 1191.2635,113.043576 1203.9125,84.2585755 C1216.5615,55.4725755 1226.9115,31.7715755 1226.9115,31.5905755 C1226.9115,31.0605755 1225.6345,31.3347732 1222.0905,32.6155755 M1050.7835,207.010576 C1049.5405,208.596576 1049.5755,208.631576 1051.1615,207.388576 C1052.1245,206.633576 1052.9115,205.845576 1052.9115,205.638576 C1052.9115,204.815576 1052.0905,205.344576 1050.7835,207.010576 M1022.7645,240.510576 C1008.2855,257.698576 989.437497,279.635576 980.879497,289.260576 C972.321497,298.885576 964.930497,307.435576 964.455497,308.260576 C963.979497,309.085576 963.807497,309.535576 964.072497,309.260576 C1001.0015,270.929576 1017.9305,251.899576 1033.2395,231.510576 C1042.4285,219.272576 1049.7535,209.260576 1049.5185,209.260576 C1049.2825,209.260576 1037.2435,223.323576 1022.7645,240.510576 M819.875497,230.623576 L790.338497,233.760576 L781.625497,240.564576 C776.771497,244.354576 772.911497,248.120576 772.912497,249.064576 C772.912497,249.997576 774.036497,258.808576 775.408497,268.645576 L777.904497,286.531576 L774.408497,291.398576 C772.484497,294.075576 770.911497,296.459576 770.911497,296.698576 C770.911497,297.274576 783.913497,289.658576 785.305497,288.266576 C785.905497,287.666576 789.139497,276.507576 792.492497,263.468576 L798.588497,239.760576 L805.000497,239.127576 C808.526497,238.779576 820.277497,238.441576 831.113497,238.377576 L850.815497,238.260576 L853.693497,234.010576 C858.462497,226.967576 858.461497,227.249576 853.720497,227.373576 C851.350497,227.436576 836.120497,228.898576 819.875497,230.623576 M1074.9115,228.638576 C1074.9115,228.845576 1075.6985,229.633576 1076.6615,230.388576 C1078.2475,231.631576 1078.2825,231.596576 1077.0395,230.010576 C1075.7325,228.344576 1074.9115,227.815576 1074.9115,228.638576 M1077.9115,232.638576 C1077.9115,232.845576 1078.6985,233.633576 1079.6615,234.388576 C1081.2475,235.631576 1081.2825,235.596576 1080.0395,234.010576 C1078.7325,232.344576 1077.9115,231.815576 1077.9115,232.638576 M1080.9115,236.638576 C1080.9115,236.845576 1081.6985,237.633576 1082.6615,238.388576 C1084.2475,239.631576 1084.2825,239.596576 1083.0395,238.010576 C1081.7325,236.344576 1080.9115,235.815576 1080.9115,236.638576 M1083.9115,240.638576 C1083.9115,240.845576 1084.6985,241.633576 1085.6615,242.388576 C1087.2475,243.631576 1087.2825,243.596576 1086.0395,242.010576 C1084.7325,240.344576 1083.9115,239.815576 1083.9115,240.638576 M1086.9115,244.638576 C1086.9115,244.845576 1087.6985,245.633576 1088.6615,246.388576 C1090.2475,247.631576 1090.2825,247.596576 1089.0395,246.010576 C1087.7325,244.344576 1086.9115,243.815576 1086.9115,244.638576 M326.798497,284.010576 C320.348497,291.142576 320.427497,292.367576 326.911497,285.760576 C329.340497,283.285576 330.868497,281.260576 330.306497,281.260576 C329.745497,281.260576 328.166497,282.498576 326.798497,284.010576 M521.178497,313.311576 C508.544497,317.082576 502.536497,319.498576 494.085497,324.208576 C485.661497,328.902576 476.988497,332.396576 455.424497,339.782576 C440.133497,345.020576 427.467497,349.149576 427.276497,348.958576 C427.085497,348.767576 425.081497,342.344576 422.824497,334.685576 C420.566497,327.026576 418.556497,320.591576 418.357497,320.385576 C418.157497,320.178576 414.883497,322.316576 411.080497,325.135576 C403.558497,330.711576 401.911497,331.283576 401.911497,328.319576 C401.911497,324.328576 400.085497,325.580576 394.078497,333.691576 C390.682497,338.277576 386.416497,343.163576 384.599497,344.549576 C381.739497,346.730576 379.967497,350.455576 371.385497,372.326576 L361.475497,397.583576 L372.385497,407.804576 L383.296497,418.024576 L387.354497,416.241576 C408.731497,406.850576 531.896497,348.833576 536.783497,345.853576 L543.155497,341.967576 L542.613497,337.364576 C542.315497,334.832576 541.504497,327.248576 540.811497,320.510576 C540.050497,313.105576 539.128497,308.301576 538.481497,308.362982 C537.893497,308.420576 530.106497,310.646576 521.178497,313.311576 M434.306497,368.874576 C432.944497,369.436576 433.755497,374.291576 435.293497,374.780576 C435.908497,374.975576 439.667497,375.290576 443.647497,375.479576 L450.884497,375.824576 L444.936497,372.042576 C439.357497,368.495576 436.957497,367.780576 434.306497,368.874576 M891.030497,397.010576 C888.671497,411.722576 886.551497,425.110576 886.320497,426.760576 C886.088497,428.410576 888.109497,421.435576 890.811497,411.260576 C893.513497,401.085576 897.491497,387.698576 899.649497,381.510576 L903.575497,370.260576 L899.447497,370.260576 L895.320497,370.260576 L891.030497,397.010576 M988.562497,541.281576 C986.554497,544.382576 984.911497,547.258576 984.911497,547.672576 C984.911497,548.523576 1002.8705,575.116576 1003.8565,575.726576 C1004.2075,575.943576 1006.4555,570.864576 1008.8505,564.440576 C1011.2465,558.016576 1014.2275,550.036576 1015.4765,546.706576 L1017.7465,540.653576 L1004.9805,538.147576 L992.213497,535.642576 L988.562497,541.281576 M651.411497,591.203576 C640.411497,594.319576 630.763497,597.097576 629.971497,597.377576 C629.130497,597.675576 632.052497,599.690576 636.993497,602.220576 L645.456497,606.554576 L652.933497,627.323576 C657.046497,638.747576 660.491497,648.013576 660.589497,647.915576 C660.687497,647.818576 664.741497,635.143576 669.599497,619.749576 L678.432497,591.760576 L674.922497,588.649576 L671.411497,585.538576 L651.411497,591.203576 M473.283497,761.235576 C453.475497,768.209576 446.645497,771.086576 441.021497,774.826576 C437.097497,777.435576 434.096497,779.778576 434.351497,780.033576 C434.606497,780.289576 447.083497,779.443576 462.077497,778.154576 L489.339497,775.810576 L495.029497,771.244576 C500.689497,766.702576 500.827497,766.655576 521.065497,762.412576 C532.255497,760.067576 542.086497,757.877576 542.911497,757.546576 C544.447497,756.930576 508.228497,752.367576 501.911497,752.380548 C499.986497,752.384576 487.103497,756.369576 473.283497,761.235576 M793.411497,818.260576 C790.643497,818.964576 790.605497,819.031576 792.911497,819.126576 C794.286497,819.183576 796.086497,818.793576 796.911497,818.260576 C798.613497,817.160576 797.733497,817.160576 793.411497,818.260576 M393.911497,893.837576 C377.686497,897.322576 363.736497,900.385576 362.911497,900.642576 C360.459497,901.407576 429.713497,900.109576 438.411497,899.227576 C442.811497,898.781576 454.248497,896.205576 463.828497,893.502576 L481.244497,888.588576 L459.916497,887.924576 C426.221497,886.875576 426.397497,886.859576 393.911497,893.837576 M549.828497,909.671576 C549.599497,909.897576 530.081497,911.089576 506.456497,912.319576 L463.501497,914.555576 L431.708497,930.076576 C414.222497,938.613576 400.034497,945.716576 400.178396,945.861576 C400.324497,946.006576 417.086497,942.093576 437.427497,937.165576 C457.768497,932.237576 490.491497,925.088576 510.144497,921.280576 C539.865497,915.520576 546.509497,913.926576 549.627497,911.807576 C551.688497,910.406576 552.671497,909.260576 551.810497,909.260576 C550.949497,909.260576 550.057497,909.445576 549.828497,909.671576 M533.627497,930.992576 C532.208497,933.064576 529.167497,939.485576 526.869497,945.260576 C521.315497,959.221576 521.208497,959.665576 524.936497,953.260576 C528.540497,947.071576 537.117497,928.133576 536.566497,927.582576 C536.369497,927.385576 535.047497,928.919576 533.627497,930.992576"/><path fill-opacity=".169" d="M1188.4115,100.923576 C1174.1595,119.210576 1169.9645,125.437576 1161.3055,141.159576 L1151.0605,159.760576 L1149.4035,177.260576 L1147.7465,194.760576 L1136.7285,217.503576 L1125.7095,240.246576 L1125.1565,260.920576 L1124.6035,281.594576 L1110.2125,313.677576 C1102.0175,331.948576 1094.2335,350.926576 1092.1305,357.760576 C1089.6305,365.888576 1086.3805,373.470576 1082.0585,381.260576 C1078.5485,387.585576 1075.5975,392.855576 1075.4995,392.972576 C1074.8865,393.700576 1054.4115,389.494576 1054.4115,388.640576 C1054.4115,388.060576 1049.7025,383.468576 1043.9475,378.436576 L1033.4835,369.285576 L1027.9265,380.023576 C1023.2275,389.103576 1002.7595,421.623576 999.775497,424.750576 C998.670497,425.909576 1000.5715,420.340576 1004.2865,411.540576 C1005.7305,408.119576 1006.9115,405.082576 1006.9115,404.790576 C1006.9115,403.498576 1005.0295,404.510576 1001.6135,407.639576 C998.864497,410.157576 947.324497,443.988576 936.089497,450.650576 C935.264497,451.140576 937.609497,445.800576 941.300497,438.784576 C944.992497,431.769576 947.860497,425.876576 947.673497,425.689576 C947.487497,425.502576 941.501497,427.063576 934.372497,429.157576 L921.411497,432.964576 L915.911497,447.383576 C912.547497,456.201576 907.304497,467.216576 902.411497,475.743576 C890.149497,497.111576 890.127497,492.589576 902.724497,538.753576 L913.365497,577.746576 L941.445497,608.280576 L969.526497,638.814576 L957.163497,655.287576 C950.364497,664.347576 943.062497,673.560576 940.936497,675.760576 C938.810497,677.960576 936.472497,681.166576 935.741497,682.885576 C935.009497,684.604576 927.886497,694.734576 919.911497,705.397576 L905.411497,724.783576 L868.661497,750.222576 C848.449497,764.213576 831.911497,775.792576 831.911497,775.952576 C831.911497,776.112576 852.984497,765.785576 878.740497,753.002576 C916.284497,734.369576 925.781497,729.264576 926.634497,727.260576 C927.555497,725.098576 927.711497,725.030576 927.789497,726.760576 C927.839497,727.860576 927.550497,729.258576 927.146497,729.867576 C926.742497,730.475576 910.886497,742.559576 891.911497,756.721576 C872.936497,770.882576 857.216497,782.654576 856.977497,782.882576 C856.738497,783.109576 861.913497,780.759576 868.477497,777.660576 C890.842497,767.099576 897.412497,764.158576 896.411497,765.156576 C895.861497,765.704576 882.609497,775.083576 866.963497,785.999576 L838.515497,805.845576 L835.740497,816.803576 C834.214497,822.829576 833.066497,828.062576 833.188497,828.430576 C833.484497,829.319576 870.123497,803.728576 881.820497,794.461576 C891.789497,786.564576 892.378497,787.383576 883.430497,796.696576 L877.783497,802.573576 L875.698497,817.934576 C874.551497,826.383576 873.874497,833.557576 874.193497,833.875576 C874.512497,834.194576 882.567497,832.802576 892.092497,830.782576 C909.210497,827.151576 909.730497,826.961576 936.956497,814.434576 L964.502497,801.760576 L975.018497,784.260576 C980.802497,774.635576 993.831497,752.449576 1003.9725,734.957576 L1022.4115,703.154576 L1035.4115,696.520576 L1048.4115,689.886576 L1061.9395,674.323576 L1075.4665,658.760576 L1088.1155,602.760576 L1100.7645,546.760576 L1103.9975,514.502576 C1105.7745,496.761576 1106.9545,481.970576 1106.6195,481.634576 C1106.2835,481.299576 1096.3695,482.063576 1084.5885,483.333576 L1063.1675,485.642576 L1048.0265,479.739576 C1039.6995,476.492576 1033.0045,473.521576 1033.1485,473.137576 C1033.2935,472.753576 1058.8365,443.713576 1089.9115,408.605576 L1146.4115,344.771576 L1157.0555,293.455576 C1162.9095,265.231576 1167.8595,241.988576 1168.0555,241.804576 C1168.4875,241.397576 1275.5865,235.222576 1281.8245,235.244576 C1285.9105,235.259576 1289.2475,237.244576 1326.8245,262.010576 L1367.4115,288.760576 L1388.5555,335.760576 C1400.1845,361.610576 1409.5445,382.925576 1409.3555,383.126576 C1409.1675,383.327576 1407.5755,383.786576 1405.8195,384.145576 L1402.6265,384.798576 L1402.8025,394.279576 C1402.9005,399.494576 1403.2295,405.167576 1403.5335,406.887576 C1404.0465,409.779576 1403.5355,410.487576 1396.7495,416.302576 C1392.7135,419.760576 1389.2985,422.853576 1389.1615,423.176576 C1388.7915,424.042576 1416.9875,433.306576 1419.9185,433.281576 L1422.4245,433.260576 L1421.5465,445.356576 C1420.7465,456.394576 1420.9615,459.606576 1424.0145,482.068576 L1427.3595,506.683576 L1437.7855,518.721576 C1443.5205,525.343576 1448.5675,530.901576 1449.0025,531.074576 C1449.4375,531.246576 1458.8405,524.584576 1469.8995,516.269576 L1490.0065,501.151576 L1503.7025,512.955576 C1511.2345,519.448576 1524.0375,530.523576 1532.1515,537.567576 C1541.1305,545.361576 1546.5495,549.471576 1545.9955,548.067576 C1545.4955,546.798576 1535.4495,525.446576 1523.6705,500.618576 L1502.2555,455.476576 L1475.8905,414.728576 L1449.5255,373.979576 L1429.8775,318.370576 C1419.0705,287.784576 1409.1445,260.665576 1407.8205,258.104576 C1405.6545,253.917576 1401.0275,250.256576 1361.9115,221.782576 C1337.9865,204.365576 1317.5055,189.121576 1316.3975,187.906576 C1314.4405,185.759576 1312.6445,185.589576 1252.8975,181.884576 C1219.0805,179.787576 1191.1755,178.001576 1190.8875,177.915576 C1190.5995,177.830576 1183.3115,183.986576 1174.6925,191.597576 C1157.1415,207.092576 1160.0425,202.660576 1149.8815,229.506576 C1148.0605,234.317576 1146.4415,238.124576 1146.2845,237.967576 C1146.1275,237.809576 1148.4125,228.248576 1151.3615,216.720576 C1155.9835,198.661576 1158.4515,191.539576 1169.2025,165.260576 C1176.0645,148.485576 1187.1215,122.413576 1193.7745,107.323576 C1200.4265,92.2325755 1205.7355,79.7515755 1205.5715,79.5854804 C1205.4075,79.4225755 1197.6855,89.0245755 1188.4115,100.923576 M954.746497,159.001576 C953.830497,159.206576 946.461497,169.671576 938.371497,182.256576 L923.660497,205.137576 L909.536497,208.535576 L895.411497,211.934576 L887.106497,207.486576 C882.538497,205.039576 878.675497,203.200576 878.522497,203.399576 C878.368497,203.597576 873.766497,208.947576 868.293497,215.286576 C858.970497,226.086576 857.343497,228.684576 842.468497,256.543576 C833.736497,272.895576 826.433497,286.115576 826.238497,285.921576 C826.044497,285.726576 828.118497,280.676576 830.849497,274.698576 C833.579497,268.719576 835.654497,263.669576 835.460497,263.475576 C833.962497,261.977576 822.074497,271.334576 798.890497,292.260576 L771.746497,316.760576 L753.579497,325.963576 L735.411497,335.165576 L741.661497,334.570576 C747.573497,334.007576 747.911497,334.091576 747.911497,336.124576 C747.911497,339.541576 744.939497,358.401576 744.206497,359.638576 C743.840497,360.255576 740.233497,365.147576 736.189497,370.510576 L728.838497,380.260576 L723.577497,380.260576 C720.684497,380.260576 701.238497,379.325576 680.364497,378.183576 C646.336497,376.321576 632.356497,376.098576 627.969497,377.349576 C626.829497,377.674576 625.966497,374.402576 623.857497,361.760576 C621.212497,345.898576 621.123497,345.627576 613.550497,330.399576 C609.348497,321.950576 605.911497,315.344576 605.911497,315.718576 C605.911497,316.093576 607.269497,323.655576 608.930497,332.523576 L611.948497,348.646576 L605.901497,366.791576 L599.853497,384.935576 L571.465497,411.735576 C548.881497,433.056576 542.753497,439.385576 541.488497,442.696576 C540.413497,445.511576 538.272497,448.099576 534.871497,450.692576 C532.106497,452.801576 530.006497,454.688576 530.204497,454.886576 C530.402497,455.084576 533.381497,454.295576 536.825497,453.132576 C540.960497,451.735576 553.162497,444.547576 572.749497,431.969576 C602.411497,412.921576 602.411497,412.921576 610.411497,411.690576 C614.811497,411.013576 637.024497,407.244576 659.774497,403.314576 C682.524497,399.384576 701.476497,396.302576 701.890497,396.464576 C703.160497,396.963576 642.427497,471.190576 633.100497,480.538576 L624.342497,489.315576 L609.232497,478.788576 L594.121497,468.260576 L579.442497,468.260576 C566.948497,468.260576 561.197497,467.662576 540.801497,464.242576 L516.839497,460.223576 L494.243497,468.276576 C481.815497,472.705576 471.496497,476.178576 471.311497,475.993576 C471.126497,475.809576 477.967497,465.175576 486.514497,452.363576 C495.060497,439.550576 501.884497,428.899576 501.678497,428.693576 C501.472497,428.487576 494.491497,430.400576 486.164497,432.944576 L471.025497,437.569576 L462.718497,444.963576 L454.411497,452.357576 L448.751497,451.769576 C443.131497,451.185576 443.016497,451.228576 432.251497,457.882576 C426.289497,461.568576 413.986497,468.100576 404.911497,472.399576 C386.076497,481.322576 371.848497,485.247576 358.221497,485.278576 C353.925497,485.288576 346.271497,485.926576 341.211497,486.697576 C333.389497,487.887576 330.462497,488.928576 321.663497,493.648576 C305.322497,502.413576 304.680497,503.198576 300.401497,519.616576 C298.415497,527.238576 296.942497,533.625576 297.128497,533.810576 C297.313497,533.995576 301.010497,527.535576 305.342497,519.454576 C309.675497,511.372576 313.299497,504.649576 313.396497,504.513576 C313.492497,504.377576 316.490497,504.050576 320.058497,503.785576 C324.368497,503.465576 331.771497,501.472576 342.123497,497.845576 L357.702497,492.386576 L372.556497,493.296576 C380.726497,493.796576 389.005497,494.218576 390.953497,494.233576 C394.244497,494.258576 394.685497,494.650576 397.194497,499.764576 C398.679497,502.792576 399.927497,505.570576 399.968497,505.938576 C400.008497,506.307576 397.425497,507.593576 394.226497,508.798576 C385.087497,512.239576 362.612497,523.798576 351.519497,530.763576 L341.411497,537.109576 L331.199497,554.995576 C325.582497,564.833576 320.069497,573.712576 318.949497,574.726576 C317.828497,575.740576 316.911497,577.182576 316.911497,577.930576 C316.911497,578.679576 319.631497,584.718576 322.956497,591.351576 C328.234497,601.879576 329.130497,604.513576 330.013497,612.085576 C331.263497,622.801576 334.360497,629.130576 344.595497,641.877576 C354.305497,653.971576 358.990497,656.196576 379.911497,658.656576 C387.886497,659.593576 395.761497,660.571576 397.411497,660.830576 C399.061497,661.088576 393.936497,658.703576 386.022497,655.529576 L371.634497,649.760576 L357.135497,630.923576 C347.516497,618.426576 340.527497,608.162576 336.367497,600.423576 C330.561497,589.620576 330.221497,588.643576 331.755497,587.176576 C332.666497,586.305576 342.636497,573.422576 353.911497,558.548576 L374.411497,531.504576 L401.134497,520.362576 C415.832497,514.235576 429.107497,509.000576 430.634497,508.731576 C432.786497,508.352576 438.483497,510.887576 455.954497,520.001576 L478.498497,531.760576 L473.288497,553.260576 C470.423497,565.085576 468.153497,574.811576 468.245497,574.874576 C468.336497,574.936576 472.888497,576.466576 478.360497,578.272576 C487.550497,581.307576 501.911497,589.180576 501.911497,591.184576 C501.911497,591.638576 500.365497,595.403576 498.475497,599.550576 L495.039497,607.090576 L498.458497,617.925576 C500.339497,623.884576 501.885497,628.844576 501.894497,628.947576 C501.904497,629.049576 498.074497,627.836576 493.385497,626.251576 L484.859497,623.369576 L481.279497,628.761576 L477.699497,634.153576 L479.714497,636.957576 C484.603497,643.760576 487.005497,645.016576 511.822497,653.749576 C525.244497,658.472576 536.802497,662.659576 537.506497,663.053576 C538.210497,663.447576 549.086497,677.496576 561.675497,694.272576 L584.563497,724.774576 L595.924497,726.997576 C602.172497,728.219576 607.518497,728.987576 607.802497,728.702576 C608.087497,728.418576 598.437497,718.189576 586.358497,705.972576 C550.178497,669.379576 547.045497,666.018576 550.226497,667.207576 C551.774497,667.786576 553.411497,668.260576 553.864497,668.260576 C554.316497,668.260576 556.140497,664.654576 557.917497,660.246576 C559.693497,655.838576 561.505497,652.011576 561.943497,651.740576 C562.381497,651.470576 565.958497,654.739576 569.893497,659.004576 C576.413497,666.072576 578.232497,669.118576 590.403497,693.351576 L603.759497,719.942576 L617.335497,722.320576 L630.911497,724.698576 L630.911497,728.679576 C630.911497,731.043576 631.271497,732.274576 631.798497,731.710576 C632.286497,731.188576 636.899497,722.895576 642.048497,713.283576 L651.411497,695.806576 L656.137497,672.783576 L660.864497,649.760576 L653.156497,628.155576 L645.449497,606.550576 L636.989497,602.219576 C632.051497,599.690576 629.130497,597.675576 629.971497,597.377576 C630.763497,597.097576 640.411497,594.319576 651.411497,591.203576 L671.411497,585.538576 L674.928497,588.649576 L678.445497,591.760576 L670.047497,618.260576 C662.017497,643.596576 661.699497,644.952576 662.806497,649.124576 C663.613497,652.165576 663.774497,660.045576 663.337497,675.124576 L662.710497,696.760576 L656.872497,718.260576 C651.579497,737.754576 641.557497,767.990576 638.863497,772.593576 C638.273497,773.601576 635.180497,782.898576 631.990497,793.252576 L626.190497,812.078576 L606.394497,838.919576 C595.506497,853.682576 585.431497,867.323576 584.004497,869.233576 C581.709497,872.307576 582.272497,872.033576 588.911497,866.846576 C593.036497,863.624576 598.211497,859.617576 600.411497,857.942576 C603.368497,855.691576 608.031497,848.939576 618.294497,832.045576 C625.930497,819.477576 632.310497,809.326576 632.472497,809.488576 C632.634497,809.649576 627.835497,822.059576 621.807497,837.065576 L610.848497,864.348576 L616.130497,871.990576 L621.411497,879.632576 L613.222497,895.764576 L605.032497,911.895576 L586.722497,925.076576 C576.651497,932.325576 566.611497,939.838576 564.411497,941.771576 L560.411497,945.285576 L565.911497,943.044576 C569.471497,941.593576 577.065497,936.206576 587.442497,927.767576 L603.473497,914.731576 L630.942497,907.296576 L658.411497,899.860576 L673.664497,866.310576 L688.918497,832.760576 L688.914497,805.708576 L688.911497,778.656576 L704.503497,744.708576 C713.078497,726.037576 723.914497,702.210576 728.583497,691.760576 C736.854497,673.249576 737.270497,672.560576 744.738497,664.990576 C750.875497,658.769576 755.641497,655.285576 768.635497,647.521576 C785.001497,637.741576 789.534497,634.070576 781.936497,636.751576 C778.382497,638.005576 777.125497,637.866576 766.242497,635.011576 C759.735497,633.304576 754.294497,631.833576 754.151497,631.741576 C754.008497,631.649576 755.360497,627.341576 757.155497,622.167576 L760.418497,612.760576 L753.668497,601.260576 L746.919497,589.760576 L746.917497,577.260576 L746.915497,564.760576 L761.213497,559.295576 L775.512497,553.830576 L782.383497,541.295576 C794.010497,520.087576 791.683497,522.307576 807.025497,517.789576 L820.411497,513.848576 L834.911497,494.368576 L849.411497,474.888576 L852.102497,458.971576 L854.792497,443.053576 L860.697497,436.406576 C865.518497,430.979576 885.829497,413.776576 886.506497,414.548576 C886.608497,414.664576 885.184497,421.909576 883.340497,430.647576 C880.819497,442.594576 880.246497,447.017576 881.030497,448.483576 C881.604497,449.554576 882.196497,450.280576 882.346497,450.096576 C882.495497,449.911576 885.484497,431.816576 888.986497,409.885576 L895.355497,370.011576 L907.883497,370.461576 L920.411497,370.912576 L937.911497,346.379576 C951.208497,327.737576 956.259497,319.794576 958.941497,313.303576 L962.471497,304.760576 L956.708497,270.260576 C953.538497,251.285576 950.937497,233.473576 950.928497,230.678576 C950.919497,227.883576 952.261497,210.595576 953.911497,192.261576 C955.561497,173.927576 956.798497,158.859576 956.661497,158.777576 C956.523497,158.695576 955.662497,158.796576 954.746497,159.001576 M795.977497,228.970576 C792.194497,232.459576 791.766497,233.187576 793.483497,233.220576 C796.522497,233.279576 853.178497,227.326576 853.600497,226.904576 C853.797497,226.707576 841.940497,226.144576 827.251497,225.653576 L800.544497,224.760576 L795.977497,228.970576 M322.188497,290.504576 L315.002497,297.760576 L314.380497,311.760576 C313.804497,324.738576 314.057497,327.799576 317.838497,353.679576 C320.081497,369.035576 322.031497,381.713576 322.171497,381.854576 C322.311497,381.994576 326.662497,371.005576 331.839497,357.434576 C337.017497,343.863576 342.889497,328.905576 344.890497,324.193576 L348.528497,315.625576 L339.757497,299.705576 C334.933497,290.949576 330.623497,283.664576 330.180497,283.516576 C329.736497,283.368576 326.140497,286.513576 322.188497,290.504576 M710.810497,291.010576 L708.650497,294.760576 L665.321497,303.217576 C641.490497,307.869576 622.157497,311.840576 622.359497,312.041576 C622.560497,312.243576 641.576497,310.475576 664.615497,308.113576 L706.505497,303.818576 L712.894497,295.289576 C716.408497,290.598576 718.564497,287.344576 717.686497,288.059576 C716.612497,288.931576 715.877497,289.013576 715.441497,288.309576 C714.287497,286.442576 713.015497,287.184576 710.810497,291.010576 M617.724497,312.943576 C618.445497,313.232576 619.308497,313.196576 619.640497,312.864576 C619.972497,312.532576 619.382497,312.296576 618.328497,312.339576 C617.163497,312.387576 616.926497,312.624576 617.724497,312.943576 M399.426497,333.567576 L381.440497,346.796576 L371.451497,372.183576 L361.461497,397.570576 L372.413497,407.829576 C380.273497,415.192576 383.794497,417.877576 384.888497,417.340576 C385.726497,416.929576 398.405497,411.045576 413.064497,404.263576 L439.717497,391.933576 L438.336497,387.347576 C437.577497,384.824576 432.824497,368.698576 427.775497,351.510576 C422.726497,334.323576 418.328497,320.277576 418.003497,320.298552 C417.677497,320.320576 409.318497,326.290576 399.426497,333.567576 M313.960497,379.994576 L313.911497,390.228576 L317.411497,388.559576 C321.827497,386.453576 321.827497,384.694576 317.411497,376.260576 L314.008497,369.760576 L313.960497,379.994576 M988.553497,513.010576 C988.283497,513.972576 987.267497,522.210576 986.297497,531.315576 L984.533497,547.869576 L993.875497,561.600576 C999.014497,569.152576 1003.5065,575.509576 1003.8585,575.727576 C1004.2105,575.945576 1007.4725,568.166576 1011.1065,558.442576 L1017.7135,540.760576 L1005.3125,538.308576 C998.492497,536.959576 992.911497,535.529576 992.911497,535.129576 C992.911497,534.728576 995.228497,530.761576 998.059497,526.312576 C1000.8915,521.864576 1003.0295,518.060576 1002.8095,517.860576 C1002.1905,517.296576 990.026497,511.260576 989.507497,511.260576 C989.253497,511.260576 988.824497,512.048576 988.553497,513.010576 M423.911497,546.760576 C425.203497,548.135576 426.344497,549.260576 426.447497,549.260576 C426.549497,549.260576 426.419497,548.135576 426.156497,546.760576 C425.830497,545.058576 425.021497,544.260576 423.620497,544.260576 C421.621497,544.260576 421.629497,544.331576 423.911497,546.760576 M264.055497,597.044576 C253.110497,601.308576 250.174497,602.813576 251.699497,603.377576 C252.800497,603.785576 254.926497,605.725576 256.425497,607.689576 C257.923497,609.653576 259.480497,611.260576 259.886497,611.260576 C260.292497,611.260576 262.686497,609.685576 265.207497,607.760576 C267.728497,605.835576 270.895497,604.260576 272.244497,604.260576 C273.593497,604.260576 274.923497,603.698576 275.198497,603.010576 C279.042497,593.425576 279.771497,591.274576 279.146497,591.356576 C278.742497,591.409576 271.951497,593.968576 264.055497,597.044576 M932.126497,669.600576 L908.840497,683.867576 L903.798497,692.814576 C896.017497,706.619576 895.542497,707.601576 897.078497,706.689576 C897.811497,706.253576 903.586497,702.419576 909.911497,698.169576 C919.041497,692.033576 925.015497,686.816576 938.900497,672.850576 C948.519497,663.176576 956.169497,655.276576 955.900497,655.296538 C955.631497,655.316576 944.933497,661.753576 932.126497,669.600576 M871.314497,757.902576 L829.216497,778.540576 L819.814497,793.569576 C814.642497,801.835576 810.261497,808.973576 810.077497,809.431576 C809.135497,811.782576 846.663497,786.707576 878.175497,763.930576 C909.399497,741.362576 914.871497,737.250576 913.661497,737.263545 C913.523497,737.264576 894.467497,746.552576 871.314497,757.902576 M539.911497,797.960576 C522.553497,799.386576 522.317497,799.437576 510.911497,804.282576 C504.586497,806.969576 500.311497,809.174576 501.411497,809.182576 C510.555497,809.249576 531.838497,805.725576 548.411497,801.400576 C569.956497,795.778576 569.372497,795.541576 539.911497,797.960576"/><path fill-opacity=".294" d="M1190.0645,180.010576 C1187.2835,185.319576 1171.9115,221.539576 1171.9115,222.784576 C1171.9115,223.596576 1171.5235,224.260576 1171.0505,224.260576 C1170.5765,224.260576 1170.3865,225.498576 1170.6285,227.010576 C1170.9085,228.759576 1170.7495,229.312576 1170.1915,228.527576 C1169.5885,227.679576 1168.1235,229.541576 1165.4935,234.499576 C1163.3915,238.462576 1151.0705,260.617576 1138.1145,283.732576 C1125.1575,306.848576 1108.8685,337.010576 1101.9165,350.760576 C1094.9645,364.510576 1082.3675,387.460576 1073.9245,401.760576 C1065.4815,416.060576 1057.9255,428.885576 1057.1345,430.260576 C1055.4875,433.122576 1063.2055,425.124576 1102.4115,383.341576 C1117.8115,366.929576 1131.3735,353.029576 1132.5485,352.453576 C1133.8075,351.836576 1137.9685,345.319576 1142.6805,336.583576 L1150.6765,321.760576 L1158.9785,281.184576 C1166.8295,242.815576 1167.3935,240.629576 1169.3465,240.987576 C1170.4825,241.195576 1194.9675,239.992576 1223.7585,238.313576 C1252.5495,236.634576 1278.3855,235.260576 1281.1715,235.260576 C1286.1215,235.260576 1287.1655,235.872576 1326.8245,262.010576 L1367.4115,288.760576 L1385.3295,328.760576 C1395.1835,350.760576 1409.6425,382.122576 1417.4595,398.453576 L1431.6715,428.146576 L1426.0415,428.859576 C1422.9455,429.251576 1420.8615,429.698576 1421.4115,429.853576 C1421.9615,430.007576 1424.9705,430.638576 1428.0975,431.254576 L1433.7845,432.375576 L1438.3835,446.177576 C1441.4735,455.449576 1443.7925,460.739576 1445.4475,462.294576 C1448.5515,465.210576 1448.5795,464.082576 1445.5315,458.848576 C1444.2225,456.600576 1441.3165,448.235576 1439.0735,440.260576 L1434.9955,425.760576 L1442.2035,399.842576 L1449.4115,373.924576 L1440.4245,356.342576 C1435.4815,346.672576 1424.4565,323.846576 1415.9245,305.619576 L1400.4115,272.477576 L1392.4115,266.541576 C1388.0115,263.276576 1380.7335,256.709576 1376.2385,251.947576 C1369.0475,244.331576 1364.4775,240.923576 1338.2385,223.621576 L1308.4115,203.952576 L1267.4115,192.154576 C1227.2825,180.608576 1226.1035,180.335576 1211.9115,179.318576 C1192.2465,177.910576 1191.1475,177.945576 1190.0645,180.010576 M1169.0695,232.260576 C1169.0695,233.635576 1169.2965,234.198576 1169.5735,233.510576 C1169.8515,232.823576 1169.8515,231.698576 1169.5735,231.010576 C1169.2965,230.323576 1169.0695,230.885576 1169.0695,232.260576 M941.899497,249.389576 L933.411497,266.760576 L912.205497,270.457576 C900.542497,272.491576 889.067497,274.804576 886.705497,275.597576 L882.411497,277.039576 L874.797497,303.180576 C870.610497,317.558576 867.010497,329.486576 866.797497,329.688576 C866.347497,330.117576 836.143497,303.043576 830.757497,297.383576 C825.935497,292.316576 823.414497,291.671576 821.915497,295.123576 C821.080497,297.047576 813.291497,302.354576 793.091497,314.760576 L765.411497,331.760576 L749.632497,352.760576 C740.954497,364.310576 728.129497,381.055576 721.132497,389.971576 L708.411497,406.183576 L704.161497,406.221576 C701.824497,406.243576 699.911497,406.092576 699.911497,405.886576 C699.911497,405.680576 700.603497,403.542576 701.449497,401.136576 C702.962497,396.830576 702.957497,396.792576 701.093497,398.760576 C700.051497,399.860576 686.695497,416.285576 671.412497,435.260576 C648.067497,464.245576 640.092497,473.317576 621.526497,492.010576 C609.372497,504.248576 599.876497,514.260576 600.423497,514.260576 C600.971497,514.260576 610.401497,511.806576 621.378497,508.806576 C632.356497,505.807576 641.459497,503.475576 641.608497,503.624576 C641.758497,503.773576 631.994497,510.585576 619.911497,518.760576 C607.828497,526.935576 598.115497,533.798576 598.327497,534.009576 C598.538497,534.221576 602.320497,533.841576 606.731497,533.166576 L614.751497,531.939576 L625.921497,542.504576 C632.065497,548.315576 637.163497,553.438576 637.251497,553.887576 C637.339497,554.337576 628.928497,556.743576 618.560497,559.233576 L599.708497,563.760576 L595.037497,573.979576 L590.366497,584.198576 L575.711497,597.229576 C567.651497,604.396576 560.857497,610.260576 560.614497,610.260576 C560.370497,610.260576 559.596497,608.122576 558.894497,605.510576 C558.191497,602.898576 557.310497,600.410576 556.935497,599.981576 C556.560497,599.553576 552.357497,600.709576 547.595497,602.550576 L538.936497,605.898576 L545.365497,607.176576 C548.901497,607.879576 552.458497,608.973576 553.270497,609.607576 C554.082497,610.241576 555.967497,614.248576 557.458497,618.510576 L560.170497,626.260576 L566.418497,626.260576 L572.667497,626.260576 L598.912497,669.510576 C613.346497,693.298576 626.951497,715.169576 629.145497,718.114576 C632.740497,722.941576 633.072497,723.877576 632.512497,727.614576 L631.890497,731.760576 L634.964497,726.260576 C636.654497,723.235576 641.046497,715.135576 644.724497,708.260576 L651.411497,695.760576 L656.137497,672.760576 L660.864497,649.760576 L653.156497,628.155576 L645.449497,606.550576 L637.022497,602.235576 L628.595497,597.920576 L617.561497,601.565576 C611.493497,603.570576 606.361497,605.043576 606.157497,604.839576 C605.953497,604.635576 614.251497,601.670576 624.598497,598.250576 C634.945497,594.829576 645.382497,590.905576 647.790497,589.528576 C650.199497,588.151576 655.599497,585.762576 659.790497,584.219576 L667.411497,581.414576 L672.768497,586.587576 C678.987497,592.592576 679.077497,593.187576 670.538497,571.760576 C667.031497,562.960576 664.273497,555.630576 664.408497,555.471576 C664.544497,555.312576 668.674497,557.023576 673.586497,559.273576 L682.516497,563.364576 L689.920497,578.278576 C693.993497,586.481576 697.861497,593.321576 698.516497,593.476576 C699.172497,593.632576 702.894497,597.892576 706.789497,602.942576 L713.869497,612.124576 L710.807497,634.442576 C707.569497,658.042576 701.172497,686.190576 690.355497,724.440576 C685.152497,742.837576 684.198497,745.209576 675.732497,760.816576 C669.683497,771.968576 660.189497,792.829576 647.142497,823.636576 C636.398497,849.004576 626.609497,872.439576 625.387497,875.713576 C624.126497,879.096576 622.336497,882.037576 621.243497,882.525576 C620.117497,883.028576 616.101497,889.836576 611.553497,898.955576 C604.558497,912.978576 604.016497,914.468576 606.099497,913.946576 C607.371497,913.627576 619.662497,910.325576 633.413497,906.607576 L658.415497,899.848576 L673.667497,866.304576 L688.918497,832.760576 L688.914497,805.708576 L688.911497,778.656576 L704.496497,744.708576 C713.068497,726.037576 725.240497,699.300576 731.543497,685.293576 C737.847497,671.286576 744.221497,658.304576 745.708497,656.444576 C749.882497,651.223576 751.337497,648.141576 750.013497,647.323576 C749.239497,646.845576 750.683497,641.341576 754.650497,629.643576 L760.411497,612.657576 L753.667497,601.208576 L746.922497,589.760576 L746.924497,578.760576 C746.925497,572.710576 747.208497,564.765576 747.554497,561.104576 L748.183497,554.448576 L752.797497,556.465576 C758.598497,559.002576 761.491497,558.950576 769.251497,556.167576 L775.449497,553.943576 L782.352497,541.352576 C794.015497,520.078576 791.680497,522.307576 807.025497,517.789576 L820.411497,513.848576 L834.911497,494.368576 L849.411497,474.888576 L852.102497,458.971576 L854.792497,443.053576 L860.686497,436.406576 C863.928497,432.751576 871.523497,425.935576 877.565497,421.260576 L888.550497,412.760576 L891.927497,391.384576 L895.305497,370.009576 L907.858497,370.460576 L920.411497,370.912576 L937.911497,346.373576 C951.198497,327.742576 956.261497,319.777576 958.943497,313.291576 L962.475497,304.747576 L956.431497,268.383576 L950.388497,232.018576 L941.899497,249.389576 M1168.0695,237.260576 C1168.0695,238.635576 1168.2965,239.198576 1168.5735,238.510576 C1168.8515,237.823576 1168.8515,236.698576 1168.5735,236.010576 C1168.2965,235.323576 1168.0695,235.885576 1168.0695,237.260576 M327.513497,285.147576 C326.135497,286.670576 325.905497,288.036576 326.433497,291.560576 C327.006497,295.381576 328.507497,297.630576 336.666497,306.899576 C341.925497,312.873576 346.551497,317.892576 346.946497,318.052576 C347.341497,318.213576 347.882497,317.763576 348.148497,317.052576 C348.653497,315.701576 331.625497,283.998576 330.125497,283.498576 C329.652497,283.340576 328.477497,284.082576 327.513497,285.147576 M411.664497,324.654576 L405.916497,328.995576 L413.414497,335.197576 C422.187497,342.454576 421.780497,340.348576 418.978497,363.993576 C417.215497,378.865576 417.175497,381.045576 418.503497,389.993576 C419.299497,395.365576 420.055497,400.027576 420.181497,400.354576 C420.308497,400.681576 424.750497,398.881576 430.052497,396.354576 L439.694497,391.760576 L429.140497,356.010576 C423.335497,336.347576 418.322497,320.272576 417.999497,320.287565 C417.675497,320.301576 414.825497,322.267576 411.664497,324.654576 M466.220497,464.576576 C450.165497,478.977576 436.665497,491.185576 436.220497,491.704576 C435.775497,492.224576 438.336497,490.377576 441.911497,487.600576 C445.486497,484.823576 456.730497,476.135576 466.899497,468.292576 C483.523497,455.469576 485.918497,453.238576 490.666497,446.146576 C493.570497,441.809576 495.826497,438.290576 495.678497,438.326302 C495.531497,438.362576 482.275497,450.175576 466.220497,464.576576 M978.485497,516.063576 C970.309497,543.946576 963.313497,567.614576 962.938497,568.659576 C962.428497,570.081576 958.013497,562.809576 945.334497,539.659576 L928.411497,508.760576 L926.911497,489.318576 L925.411497,469.876576 L910.388497,490.853576 L895.365497,511.829576 L904.418497,544.907576 L913.471497,577.985576 L923.767497,589.057576 C938.010497,604.373576 958.861497,618.903576 980.123497,628.329576 C988.272497,631.942576 994.747497,635.092576 994.511497,635.329576 C994.276497,635.566576 992.889497,644.023576 991.429497,654.123576 L988.776497,672.487576 L980.732497,689.123576 C976.308497,698.273576 970.683497,710.020576 968.232497,715.226576 C963.516497,725.245576 963.492497,725.218576 971.064497,718.445576 L973.717497,716.072576 L968.642497,736.416576 C963.823497,755.734576 963.348497,757.029576 959.237497,762.104576 C956.855497,765.043576 948.628497,772.243576 940.953497,778.104576 C929.061497,787.186576 925.135497,790.947576 914.374497,803.572576 L901.748497,818.383576 L887.830497,824.974576 C880.083497,828.642576 873.909852,832.162576 873.909852,832.912576 C873.909852,834.704576 873.357497,834.770576 892.583497,830.682576 C909.090497,827.172576 909.937497,826.862576 936.956497,814.432576 L964.502497,801.760576 L975.018497,784.260576 C980.802497,774.635576 993.831497,752.449576 1003.9725,734.957576 L1022.4115,703.154576 L1035.4115,696.520576 L1048.4115,689.886576 L1061.9395,674.323576 L1075.4665,658.760576 L1088.1155,602.760576 L1100.7645,546.760576 L1103.9975,514.502576 C1105.7745,496.761576 1106.9455,481.961576 1106.5995,481.614576 C1106.2525,481.268576 1101.8855,481.440576 1096.8945,481.997576 C1086.9285,483.110576 1089.0755,481.909576 1069.3235,497.410576 L1063.2355,502.188576 L1047.6545,487.748576 L1032.0735,473.309576 L1028.6225,478.534576 C1019.6635,492.097576 992.911497,534.507576 992.911497,535.146576 C992.911497,536.413576 1016.5805,540.476576 1021.8415,540.111576 C1027.8545,539.695576 1027.5985,538.407576 1024.9695,555.864576 C1022.3115,573.508576 1021.1475,602.397576 1023.0325,603.902576 C1023.7905,604.507576 1033.6935,608.071576 1045.0375,611.822576 L1065.6635,618.641576 L1060.8805,628.422576 C1058.2495,633.802576 1055.9145,638.750576 1055.6925,639.418576 C1055.3745,640.372576 1052.6055,640.373576 1042.8495,639.424576 L1030.4115,638.214576 L1023.2455,630.987576 L1016.0795,623.760576 L1002.8935,589.760576 C995.641497,571.060576 988.628497,554.082576 987.309497,552.031576 C985.990497,549.981576 984.911497,547.179576 984.911497,545.805576 C984.911497,544.431576 986.945497,525.906576 989.432497,504.638576 C991.918497,483.369576 993.817497,465.833576 993.651497,465.66667 C993.486497,465.501576 986.661497,488.180576 978.485497,516.063576 M332.818497,497.397576 C328.744497,500.222576 324.961497,502.948576 324.411497,503.454576 C323.646497,504.158576 346.403497,496.596576 355.911497,492.987576 C356.736497,492.674576 353.544497,492.382576 348.818497,492.339576 L340.225497,492.260576 L332.818497,497.397576 M416.911497,509.101576 C406.367497,515.347576 403.716497,516.402576 385.021497,521.787576 L364.631497,527.660576 L344.706497,552.515576 C333.748497,566.186576 324.931497,577.820576 325.114497,578.370576 C325.298497,578.920576 331.494497,573.382576 338.884497,566.065576 C346.274497,558.747576 351.172497,554.110576 349.769497,555.760576 C348.366497,557.410576 343.024497,563.710576 337.899497,569.760576 C332.774497,575.810576 328.163497,581.038576 327.652497,581.377576 C326.294497,582.279576 329.669497,588.302576 331.169497,587.655576 C331.852497,587.360576 341.861497,574.605576 353.411497,559.311576 L374.411497,531.502576 L400.911497,520.456576 C415.486497,514.381576 429.556497,508.871576 432.178497,508.212576 C434.800497,507.553576 437.159497,506.667576 437.422497,506.243576 C437.849497,505.551576 430.938497,502.239576 429.141497,502.275284 C428.739497,502.283576 423.236497,505.355576 416.911497,509.101576 M580.661497,612.463576 C578.599497,613.010576 576.911497,613.837576 576.911497,614.299576 C576.911497,615.012576 585.602497,612.660576 586.828497,611.615576 C587.533497,611.014576 584.598497,611.417576 580.661497,612.463576"/></g></svg>