<svg xmlns="http://www.w3.org/2000/svg" width="1758.922" height="990.721" viewBox="0 0 1758.922 990.721"><g fill="#ABABAB" fill-rule="evenodd"><path fill-opacity=".318" d="M1053.36161,9.90411846 L994.80161,19.5641185 L899.98061,63.9901185 L805.15861,108.415118 L780.66161,145.165118 C760.53361,175.360118 755.69661,182.005118 753.54261,182.423118 C752.10161,182.703118 737.42161,184.364118 720.92161,186.115118 L690.92161,189.297118 L657.92161,222.092118 L624.92161,254.887118 L615.42161,255.578118 C605.98861,256.264118 605.54361,256.421118 552.42161,277.711118 L498.92161,299.153118 L450.92161,344.886118 C407.88861,385.886118 400.96361,392.928118 383.99861,412.940118 L365.07561,435.261118 L372.02761,449.389118 L378.97961,463.517118 L377.88461,482.750118 C377.28161,493.328118 376.59361,502.170118 376.35561,502.399118 C376.11661,502.628118 345.99661,506.141118 309.42161,510.206118 L242.92161,517.597118 L295.42161,519.452118 C324.29661,520.472118 348.24261,521.584118 348.63461,521.924118 C349.02661,522.264118 321.02261,529.483118 286.40361,537.966118 C251.78461,546.449118 223.60561,553.534118 223.78161,553.711118 C224.07561,554.004118 350.31261,541.856118 361.92161,540.417118 L366.92161,539.797118 L362.42161,543.309118 C359.94661,545.240118 356.79661,548.103118 355.42161,549.672118 C353.14961,552.264118 346.68761,554.302118 284.70161,571.967118 C247.17961,582.660118 216.59361,591.522118 216.73161,591.660118 C216.86861,591.798118 244.64361,587.667118 278.45161,582.480118 C312.26061,577.293118 340.51461,573.042118 341.23861,573.033118 C342.14061,573.022118 342.33761,573.708118 341.86161,575.205118 C341.47961,576.408118 340.66261,580.385118 340.04461,584.043118 C339.05161,589.924118 338.28661,591.440118 333.42161,597.158118 L327.92161,603.623118 L309.42161,610.570118 L290.92161,617.517118 L244.92161,619.517118 L198.92161,621.517118 L98.80461,674.017118 C43.73961,702.892118 -0.714389993,726.659118 0.00869790822,726.833118 C0.749610007,727.007118 15.35761,725.737118 32.47961,724.011118 C49.60161,722.285118 63.79961,721.061118 64.02961,721.292118 C64.25961,721.522118 55.23361,727.067118 43.97061,733.614118 C32.70861,740.161118 23.84261,745.639118 24.26961,745.788118 C24.69761,745.937118 44.77861,743.124118 68.89661,739.538118 C93.01361,735.951118 113.01061,733.018118 113.33361,733.020118 C113.65661,733.021118 103.64161,739.869118 91.07761,748.238118 C78.51361,756.607118 68.61361,763.578118 69.07761,763.729118 C69.54161,763.881118 91.07161,760.229118 116.92161,755.614118 C142.77161,750.998118 163.99861,747.290118 164.09161,747.373118 C164.18561,747.456118 154.84261,755.355118 143.33061,764.926118 C131.81861,774.497118 122.54561,782.475118 122.72461,782.654118 C122.96861,782.897118 206.45461,760.975118 218.92161,757.395118 C220.02161,757.079118 212.82161,765.024118 202.92161,775.051118 C193.02161,785.079118 185.72861,793.005118 186.71461,792.665118 C187.70061,792.325118 223.51161,780.586118 266.29461,766.578118 C325.96161,747.042118 350.31661,739.549118 370.84561,734.415118 L397.60961,727.721118 L444.23761,700.391118 C469.88261,685.359118 491.13861,673.388118 491.47161,673.789118 C491.80561,674.189118 494.26661,679.344118 496.93961,685.244118 C499.61361,691.144118 501.93561,695.836118 502.10061,695.671118 C502.26561,695.506118 500.85361,690.004118 498.96261,683.444118 C497.07161,676.884118 495.83861,671.214118 496.22261,670.843118 C498.46961,668.675118 537.70661,648.922118 538.33361,649.643118 C538.75061,650.124118 543.95161,656.817118 549.89161,664.517118 C561.82361,679.986118 563.74361,682.213118 560.67261,677.017118 C559.53561,675.092118 555.00861,667.442118 550.61361,660.017118 C546.21961,652.592118 542.70661,646.426118 542.80761,646.315118 C542.90961,646.204118 559.17661,646.829118 578.95661,647.703118 L614.92161,649.293118 L622.42161,654.791118 L629.92161,660.290118 L624.95961,655.153118 L619.99661,650.017118 L624.33061,650.017118 C626.71461,650.017118 648.52261,650.962118 672.79361,652.118118 C705.12961,653.657118 724.93861,654.091118 746.92161,653.742118 L776.92161,653.264118 L793.28061,660.891118 L809.63961,668.517118 L822.82861,682.517118 C830.08261,690.217118 842.22761,704.537118 849.81661,714.340118 C863.13661,731.543118 863.59361,732.291118 862.94561,735.840118 C862.26961,739.540118 839.82761,802.841118 836.38161,810.767118 L834.53361,815.017118 L781.90661,815.017118 C736.45961,815.017118 729.07361,815.222118 727.77861,816.517118 C726.95361,817.342118 725.46661,818.017118 724.47461,818.017118 C722.89261,818.017118 536.07561,906.287118 528.74861,910.497118 C525.66461,912.268118 523.47361,912.271118 561.92161,910.459118 L572.92161,909.941118 L551.42161,920.925118 C535.40061,929.111118 530.68661,931.916118 532.92161,931.933118 C534.57161,931.945118 551.67161,930.663118 570.92161,929.084118 C590.17161,927.504118 605.98861,926.280118 606.07061,926.364118 C606.15261,926.448118 595.03061,933.042118 581.35661,941.017118 C567.68161,948.992118 557.26461,955.622118 558.20761,955.751118 C559.15061,955.880118 578.59661,953.575118 601.42161,950.630118 C624.24661,947.685118 643.04561,945.379118 643.19761,945.506118 C643.34961,945.633118 633.13561,952.423118 620.50061,960.596118 C607.86461,968.769118 597.67461,975.603118 597.85461,975.784118 C598.03561,975.964118 619.44061,972.019118 645.42161,967.017118 C671.40261,962.015118 692.80561,958.068118 692.98361,958.246118 C693.16161,958.423118 683.21861,965.731118 670.88961,974.485118 C658.55961,983.238118 648.61361,990.542118 648.78761,990.718457 C648.96161,990.890118 692.26261,981.333118 745.01261,969.478118 L840.92161,947.923118 L885.42161,941.587118 C909.89661,938.103118 943.66161,933.527118 960.45461,931.420118 L990.98661,927.588118 L1025.13161,882.053118 C1049.88161,849.046118 1103.41061,775.686118 1108.81961,767.361118 C1108.87561,767.275118 1148.29661,766.898118 1196.42161,766.523118 L1283.92161,765.841118 L1339.81361,761.455118 L1395.70661,757.069118 L1427.36261,782.362118 C1458.08561,806.908118 1459.65261,808.006118 1480.47061,819.552118 L1501.92161,831.450118 L1509.02561,841.048118 L1516.12961,850.645118 L1541.74061,859.951118 C1555.82661,865.070118 1568.01561,869.003118 1568.82761,868.691118 C1569.63961,868.380118 1577.74561,863.151118 1586.84061,857.071118 C1595.93661,850.991118 1603.77861,846.017118 1604.26761,846.017118 C1604.75761,846.017118 1614.05161,850.067118 1624.92161,855.017118 C1635.79161,859.967118 1645.10861,864.017118 1645.62661,864.017118 C1646.14361,864.017118 1653.39761,858.729118 1661.74561,852.267118 L1676.92361,840.517118 L1673.46261,824.105118 L1670.00061,807.692118 L1677.79761,784.605118 C1682.08561,771.906118 1690.62061,746.892118 1696.76361,729.017118 L1707.93361,696.517118 L1726.42761,673.045118 L1744.92161,649.573118 L1751.92161,602.031118 L1758.92161,554.489118 L1754.64861,539.003118 C1752.29861,530.486118 1747.05961,506.417118 1743.00761,485.517118 L1735.63961,447.517118 L1710.76161,385.005118 L1685.88261,322.494118 L1646.90161,256.504118 L1607.92161,190.515118 L1563.48061,156.059118 L1519.03861,121.603118 L1458.83561,83.4671185 L1398.63261,45.3311185 L1312.27761,23.7941185 L1225.92161,2.25811846 L1179.92161,1.12111846 C1111.73161,-0.564881544 1120.53161,-1.17488154 1053.36161,9.90411846 M205.61861,639.152118 C202.70161,640.853118 200.51561,642.444118 200.76061,642.690118 C201.22261,643.151118 212.28761,640.485118 213.04261,639.730118 C213.62261,639.149118 212.36661,636.012118 211.56461,636.039118 C211.21061,636.051118 208.53561,637.452118 205.61861,639.152118 M728.42161,833.517118 C724.84661,835.389118 722.17661,836.942118 722.48761,836.968118 C723.29961,837.038118 734.60861,834.996118 736.56861,834.426118 C738.41961,833.888118 737.95861,829.984118 736.05461,830.066118 C735.43161,830.092118 731.99661,831.645118 728.42161,833.517118"/><path fill-opacity=".494" d="M1053.36161,9.90411846 L994.80161,19.5641185 L899.98061,63.9901185 L805.15861,108.415118 L780.66161,145.165118 C760.53361,175.360118 755.69661,182.005118 753.54261,182.423118 C752.10161,182.703118 737.42161,184.364118 720.92161,186.115118 L690.92161,189.297118 L657.92161,222.092118 L624.92161,254.887118 L615.42161,255.578118 C605.98861,256.264118 605.54361,256.421118 552.42161,277.711118 L498.92161,299.153118 L450.92161,344.886118 C407.88861,385.886118 400.96361,392.928118 383.99861,412.940118 L365.07561,435.261118 L372.02761,449.389118 L378.97961,463.517118 L377.88461,482.750118 C377.28161,493.328118 376.59361,502.170118 376.35561,502.399118 C376.11661,502.628118 345.99661,506.141118 309.42161,510.206118 L242.92161,517.597118 L295.42161,519.452118 C324.29661,520.472118 348.24261,521.584118 348.63461,521.924118 C349.02661,522.264118 321.02261,529.483118 286.40361,537.966118 C251.78461,546.449118 223.60461,553.534118 223.780781,553.710118 C223.95761,553.886118 256.18761,550.869118 295.40361,547.005118 L366.70561,539.979118 L371.64761,536.351118 L376.58961,532.724118 L385.75561,541.841118 L394.92161,550.958118 L402.42161,549.005118 C414.05461,545.975118 411.83961,543.975118 422.01561,566.700118 L424.33661,571.882118 L417.81961,574.051118 C411.75361,576.070118 411.04961,576.623118 407.66361,582.041118 C404.84661,586.546118 402.94861,588.365118 399.25861,590.093118 C394.92961,592.121118 393.53661,592.267118 384.04361,591.686118 L373.59461,591.047118 L371.10461,595.282118 C367.72161,601.038118 356.58661,607.243118 351.20661,606.369118 C346.28561,605.571118 339.67261,598.786118 339.23861,594.090118 L338.92161,590.664118 L333.42161,597.143118 L327.92161,603.623118 L309.42161,610.556118 L290.92161,617.488118 L310.94461,619.503118 L330.96761,621.517118 L353.46961,635.517118 L375.97161,649.517118 L380.26861,664.896118 C382.63061,673.354118 384.19461,680.599118 383.74261,680.997118 C383.29161,681.394118 377.97161,683.139118 371.92161,684.874118 C361.34061,687.908118 360.21261,688.028118 342.28861,688.023118 L323.65561,688.017118 L330.05661,705.699118 C333.57761,715.424118 336.11261,723.689118 335.68961,724.066118 C335.26761,724.444118 322.65861,732.931118 307.67161,742.928118 C292.68361,752.924118 280.42161,761.294118 280.42161,761.528118 C280.42161,761.763118 280.98361,761.760118 281.67161,761.522118 C307.50661,752.594118 352.96761,738.786118 372.25361,734.009118 L397.58561,727.735118 L444.22461,700.398118 C469.87661,685.362118 491.13861,673.388118 491.47161,673.789118 C491.80561,674.189118 494.26661,679.344118 496.93961,685.244118 C499.61361,691.144118 501.93561,695.836118 502.10061,695.671118 C502.26561,695.506118 500.85361,690.004118 498.96261,683.444118 C497.07161,676.884118 495.83861,671.214118 496.22261,670.843118 C498.46961,668.675118 537.70661,648.922118 538.33361,649.643118 C538.75061,650.124118 543.95161,656.817118 549.89161,664.517118 C561.82361,679.986118 563.74361,682.213118 560.67261,677.017118 C559.53561,675.092118 555.00861,667.442118 550.61361,660.017118 C546.21961,652.592118 542.70661,646.426118 542.80761,646.315118 C542.90961,646.204118 559.17661,646.829118 578.95661,647.703118 L614.92161,649.293118 L622.42161,654.791118 L629.92161,660.290118 L624.95961,655.153118 L619.99661,650.017118 L624.33061,650.017118 C626.71461,650.017118 648.52261,650.962118 672.79361,652.118118 C705.12961,653.657118 724.93861,654.091118 746.92161,653.742118 L776.92161,653.264118 L793.28061,660.891118 L809.63961,668.517118 L822.82861,682.517118 C830.08261,690.217118 842.22761,704.537118 849.81661,714.340118 C863.13661,731.543118 863.59361,732.291118 862.94561,735.840118 C862.26961,739.540118 839.82761,802.841118 836.38161,810.767118 L834.53361,815.017118 L827.72761,815.118118 C820.96261,815.219118 821.04561,815.251118 841.45261,820.399118 L861.98261,825.579118 L877.96861,839.548118 L893.95361,853.517118 L898.11161,872.010118 C900.39861,882.181118 902.13361,890.639118 901.96761,890.804118 C901.80161,890.970118 888.38261,889.961118 872.14761,888.562118 C843.08061,886.056118 825.42161,885.354118 825.42161,886.705118 C825.42161,887.084118 827.49361,894.537118 830.02561,903.268118 C832.55761,911.999118 834.37861,919.393118 834.07261,919.699118 C833.76761,920.005118 812.00861,931.710118 785.71961,945.712118 C759.43061,959.713118 738.82161,970.934118 739.92161,970.653467 C741.02161,970.361118 764.19661,965.130118 791.42161,959.023118 C837.05661,948.786118 844.39561,947.425118 885.42161,941.585118 C909.89661,938.102118 943.66161,933.527118 960.45461,931.420118 L990.98661,927.588118 L1025.13161,882.053118 C1049.88161,849.046118 1103.41061,775.686118 1108.81961,767.361118 C1108.87561,767.275118 1148.29661,766.898118 1196.42161,766.523118 L1283.92161,765.841118 L1339.81361,761.455118 L1395.70661,757.069118 L1427.36261,782.362118 C1458.20161,807.001118 1459.57761,807.963118 1480.59061,819.586118 C1496.80661,828.555118 1502.69261,832.324118 1504.30061,834.767118 C1505.47761,836.554118 1506.80861,838.017118 1507.25961,838.017118 C1507.71061,838.017118 1509.59761,830.428118 1511.45361,821.152118 L1514.82761,804.287118 L1531.37461,769.479118 L1547.92161,734.671118 L1574.40761,725.844118 C1588.97461,720.989118 1602.24961,717.009118 1603.90761,716.998118 C1605.56561,716.988118 1614.12561,717.741118 1622.92961,718.671118 L1638.93861,720.363118 L1644.25361,763.940118 C1647.33161,789.179118 1650.45361,810.680118 1651.67161,815.032118 L1653.77561,822.547118 L1662.14861,828.956118 L1670.52261,835.364118 L1669.83661,840.853118 L1669.15061,846.341118 L1673.06961,843.525118 L1676.98761,840.708118 L1673.48861,824.218118 L1669.98861,807.727118 L1677.79161,784.622118 C1682.08261,771.914118 1690.62061,746.892118 1696.76361,729.017118 L1707.93361,696.517118 L1726.42761,673.045118 L1744.92161,649.573118 L1751.92161,602.031118 L1758.92161,554.489118 L1754.64861,539.003118 C1752.29861,530.486118 1747.05961,506.417118 1743.00761,485.517118 L1735.63961,447.517118 L1710.76161,385.005118 L1685.88261,322.494118 L1646.90161,256.504118 L1607.92161,190.515118 L1563.48061,156.059118 L1519.03861,121.603118 L1458.83561,83.4671185 L1398.63261,45.3311185 L1312.27761,23.7941185 L1225.92161,2.25811846 L1179.92161,1.12111846 C1111.73161,-0.564881544 1120.53161,-1.17488154 1053.36161,9.90411846 M284.70361,571.820118 C247.18361,582.597118 216.59761,591.526118 216.733158,591.662118 C216.86961,591.799118 244.64361,587.667118 278.45161,582.480118 C312.26061,577.293118 340.46361,573.042118 341.12661,573.033118 C341.78861,573.024118 342.63161,571.417118 342.99761,569.462118 C343.36461,567.506118 345.54461,563.344118 347.84261,560.212118 C352.21061,554.258118 353.75061,551.946118 353.23061,552.121118 C353.06061,552.179118 322.22361,561.043118 284.70361,571.820118 M1620.79561,750.015118 L1603.66861,776.785118 L1597.98061,807.052118 C1594.85261,823.699118 1592.68061,837.589118 1593.15561,837.918118 C1593.62961,838.248118 1596.15561,840.016118 1598.76861,841.849118 C1604.16561,845.634118 1603.99861,845.689118 1610.45561,837.976118 L1614.42861,833.231118 L1626.35861,778.391118 C1632.91961,748.228118 1638.20561,723.481118 1638.10461,723.396679 C1638.00361,723.313118 1630.21461,735.291118 1620.79561,750.015118"/><path fill-opacity=".205" d="M1118.18861,25.6891185 L1117.92161,51.3621185 L1109.42161,55.1321185 L1100.92161,58.9021185 L1100.64661,74.9471185 C1100.37861,90.6291185 1100.32161,91.0011185 1098.14661,91.4421185 C1096.92261,91.6891185 1088.49661,92.3831185 1079.42161,92.9851185 L1062.92161,94.0771185 L1052.69761,104.297118 L1042.47461,114.517118 L1063.50261,127.017118 L1084.53161,139.517118 L1016.12561,140.017118 L947.72061,140.517118 L939.03761,146.296118 L930.35461,152.074118 L907.30061,155.386118 L884.24561,158.698118 L884.58961,154.367118 C884.86761,150.879118 884.64161,150.125118 883.42761,150.488118 C882.59961,150.737118 859.92761,156.427118 833.04561,163.135118 C797.31761,172.049118 783.51361,175.893118 781.73261,177.423118 L779.29461,179.517118 L795.52161,179.218118 C808.71961,178.974118 811.55761,179.161118 810.72861,180.218118 C810.16761,180.932118 796.83161,198.706118 781.09361,219.715118 L752.47861,257.914118 L768.20161,266.675118 L783.92561,275.436118 L806.42361,308.390118 C818.79761,326.515118 829.05961,341.685118 829.22861,342.101118 C829.39661,342.517118 816.00961,336.709118 799.47861,329.196118 C782.72461,321.581118 769.42161,314.965118 769.42161,314.248118 C769.42161,313.274118 767.90061,313.103118 763.17161,313.542118 C759.73461,313.861118 745.31461,314.943118 731.12761,315.947118 C716.94061,316.950118 705.07261,318.033118 704.75361,318.351118 C704.43461,318.670118 710.75561,330.538118 718.79961,344.724118 L733.42461,370.517118 L682.17361,421.533118 L630.92161,472.548118 L598.08561,479.466118 L565.24961,486.383118 L556.82961,503.200118 L548.41061,520.017118 L542.66561,520.087118 C539.06261,520.131118 537.62761,520.435118 538.81561,520.901118 C540.56561,521.588118 540.49861,521.811118 537.93161,523.831118 C536.40261,525.033118 534.47761,526.017118 533.65361,526.017118 C531.76761,526.017118 424.25361,564.989118 422.99661,566.128118 C422.44761,566.627118 424.10761,571.354118 427.09161,577.784118 L432.11061,588.601118 L428.63661,592.809118 L425.16261,597.017118 L440.73261,597.017118 C449.29661,597.017118 456.50161,597.354118 456.74361,597.767118 C457.44261,598.959118 438.17261,621.428118 423.42361,636.617118 C416.00061,644.262118 405.70761,654.875118 400.55061,660.202118 L391.17461,669.887118 L391.87061,675.452118 C392.25261,678.513118 392.33761,681.017118 392.05961,681.017118 C391.78161,681.017118 389.42961,678.312118 386.83161,675.006118 C384.23461,671.700118 381.98261,669.123118 381.82661,669.279118 C381.67161,669.434118 385.11261,682.151118 389.47361,697.539118 C393.83461,712.927118 397.40761,725.622118 397.41261,725.751118 C397.41761,725.880118 393.37561,727.196118 388.43061,728.677118 C383.48561,730.157118 379.60361,731.532118 379.797143,731.733118 C380.00561,731.934118 384.09161,731.115118 388.88461,729.913118 C396.88561,727.906118 401.41561,725.490118 444.23161,700.394118 C469.87961,685.360118 491.13861,673.388118 491.47161,673.789118 C491.80561,674.189118 494.26661,679.344118 496.93961,685.244118 C499.61361,691.144118 501.93561,695.836118 502.10061,695.671118 C502.26561,695.506118 500.85361,690.004118 498.96261,683.444118 C497.07161,676.884118 495.83861,671.214118 496.22261,670.843118 C498.46961,668.675118 537.70661,648.922118 538.33361,649.643118 C538.75061,650.124118 543.95161,656.817118 549.89161,664.517118 C561.82361,679.986118 563.74361,682.213118 560.67261,677.017118 C559.53561,675.092118 555.00861,667.442118 550.61361,660.017118 C546.21961,652.592118 542.70661,646.426118 542.80761,646.315118 C542.90961,646.204118 559.17661,646.829118 578.95661,647.703118 L614.92161,649.293118 L622.42161,654.791118 L629.92161,660.290118 L624.95961,655.153118 L619.99661,650.017118 L624.33061,650.017118 C626.71461,650.017118 648.52261,650.962118 672.79361,652.118118 C705.12961,653.657118 724.93861,654.091118 746.92161,653.742118 L776.92161,653.264118 L793.28061,660.891118 L809.63961,668.517118 L822.83461,682.517118 C830.09161,690.217118 842.02561,704.280118 849.35661,713.767118 C856.68661,723.254118 862.97661,731.017118 863.33361,731.017118 C863.69061,731.017118 865.43261,723.704118 867.20461,714.767118 C871.71361,692.022118 886.39461,643.581118 898.64461,611.022118 L908.98961,583.527118 L927.93761,571.772118 C938.35761,565.307118 947.13661,560.017118 947.44361,560.017118 C947.75161,560.017118 949.13661,572.729118 950.52061,588.267118 L953.03761,616.517118 L949.87961,621.474118 L946.72161,626.430118 L962.30461,645.885118 L977.88861,665.339118 L978.72861,661.786118 L979.56961,658.233118 L988.04761,661.652118 C992.71061,663.532118 996.90161,664.839118 997.35961,664.555118 C997.81861,664.272118 996.69461,669.984118 994.86261,677.250118 C993.03061,684.516118 991.66961,690.599118 991.83961,690.768118 C992.00861,690.938118 1006.49661,695.215118 1024.03461,700.273118 C1054.28961,708.999118 1059.22361,710.939118 1059.38861,714.170118 C1059.40661,714.530118 1038.02061,742.808118 1011.86261,777.010118 C985.70561,811.213118 963.91761,840.212118 963.44561,841.453118 C962.97361,842.695118 960.74961,846.714118 958.50261,850.385118 L954.41761,857.059118 L957.91961,864.013118 C959.84561,867.838118 961.42161,871.203118 961.42161,871.492118 C961.42161,871.781118 959.05961,872.036118 956.17161,872.060118 C945.21261,872.150118 901.16861,876.937118 899.93361,878.172118 C899.74261,878.362118 902.43361,891.117118 905.91261,906.515118 C910.48961,926.779118 911.91761,934.716118 911.07961,935.250118 C910.44261,935.655118 904.97161,936.018118 898.92161,936.057118 C881.14361,936.171118 841.41361,937.692118 840.82461,938.281118 C840.52661,938.578118 840.83561,940.666118 841.51061,942.920118 C842.43961,946.019118 843.24761,947.016119 844.82961,947.016119 C845.98061,947.016119 865.59661,944.369118 888.42161,941.134118 C911.24661,937.899118 943.66161,933.528118 960.45461,931.420118 L990.98661,927.588118 L1025.13161,882.053118 C1049.88161,849.046118 1103.41061,775.686118 1108.81961,767.361118 C1108.87561,767.275118 1148.29661,766.898118 1196.42161,766.523118 L1283.92161,765.841118 L1339.81361,761.455118 L1395.70661,757.069118 L1427.31861,782.326118 C1457.91061,806.768118 1459.61961,807.966118 1480.23261,819.412118 C1491.94761,825.917118 1501.73861,831.034118 1501.98961,830.782118 C1502.24161,830.530118 1510.51361,813.357118 1520.37361,792.618118 L1538.29961,754.912118 L1510.20661,724.964118 C1494.75561,708.493118 1481.81861,695.017118 1481.45861,695.017118 C1481.09861,695.017118 1479.93061,694.356118 1478.86261,693.549118 C1477.14561,692.250118 1481.85761,692.077118 1519.61961,692.049118 L1562.31761,692.017118 L1561.37361,694.767118 C1560.67561,696.801118 1561.17761,701.369118 1563.30161,712.310118 C1564.88161,720.446118 1566.42661,727.355118 1566.73461,727.664118 C1567.04361,727.972118 1574.86261,725.703118 1584.10961,722.621118 C1593.35761,719.539118 1602.27261,717.009118 1603.92261,716.998118 C1605.57161,716.988118 1614.12161,717.743118 1622.92161,718.676118 L1638.92161,720.373118 L1653.17561,760.445118 C1661.01461,782.485118 1667.46161,801.642118 1667.50161,803.017118 C1667.54161,804.392118 1668.66261,809.117118 1669.99361,813.517118 C1671.32561,817.917118 1672.17361,819.942118 1671.87861,818.017118 C1670.08061,806.272118 1669.29661,809.322118 1688.80061,752.232118 C1699.00161,722.375118 1707.67961,697.400118 1708.08661,696.732118 C1708.49261,696.064118 1716.94761,685.180118 1726.87361,672.545118 L1744.92161,649.573118 L1751.92161,602.031118 L1758.92161,554.489118 L1754.64861,539.003118 C1752.29861,530.486118 1747.05961,506.417118 1743.00761,485.517118 L1735.63961,447.517118 L1710.76161,385.005118 L1685.88261,322.494118 L1646.90161,256.504118 L1607.92161,190.515118 L1563.48061,156.059118 L1519.03861,121.603118 L1458.83561,83.4671185 L1398.63261,45.3311185 L1312.27761,23.7941185 L1225.92161,2.25811846 L1179.92161,1.12111846 C1154.62161,0.496118456 1130.44161,0 1126.18861,0 L1118.45561,0.0171184564 L1118.18861,25.6891185 M383.37661,413.652118 L365.08861,435.288118 L372.06861,449.289118 L379.04961,463.290118 L383.44461,442.403118 C387.71161,422.127118 388.05161,421.086118 395.10861,406.767118 C399.10561,398.654118 402.21661,392.017118 402.02061,392.017118 C401.82461,392.017118 393.43461,401.753118 383.37661,413.652118 M306.42161,510.420118 L242.92161,517.592118 L295.42161,519.449118 C324.29661,520.471118 348.24261,521.584118 348.63461,521.924118 C349.02661,522.264118 321.02261,529.483118 286.40361,537.966118 C251.78461,546.449118 223.60461,553.534118 223.780781,553.710118 C223.95761,553.886118 256.17261,550.871118 295.37061,547.008118 L366.63861,539.985118 L371.03061,536.832118 C375.14261,533.878118 375.42161,533.381118 375.42161,529.003118 C375.42161,526.432118 375.71461,519.533118 376.07361,513.673118 L376.72561,503.017118 L373.32361,503.133118 C371.45261,503.196118 341.34661,506.476118 306.42161,510.420118 M284.70361,571.820118 C247.18361,582.597118 216.59761,591.526118 216.733158,591.662118 C216.86961,591.799118 244.64361,587.667118 278.45161,582.480118 C312.26061,577.293118 340.46361,573.042118 341.12661,573.033118 C341.78861,573.024118 342.63161,571.417118 342.99761,569.462118 C343.36461,567.506118 345.54461,563.344118 347.84261,560.212118 C352.21061,554.258118 353.75061,551.946118 353.23061,552.121118 C353.06061,552.179118 322.22361,561.043118 284.70361,571.820118 M402.17161,608.679118 C402.85961,608.957118 403.98461,608.957118 404.67161,608.679118 C405.35961,608.402118 404.79661,608.175118 403.42161,608.175118 C402.04661,608.175118 401.48461,608.402118 402.17161,608.679118 M384.42161,610.017118 L377.92161,610.672118 L384.42161,610.787118 C387.99661,610.850118 392.72161,610.529118 394.92161,610.074118 L398.92161,609.247118 L394.92161,609.305118 C392.72161,609.336118 387.99661,609.657118 384.42161,610.017118 M376.23461,732.700118 C376.95561,732.989118 377.81861,732.953118 378.15061,732.621118 C378.48261,732.289118 377.89261,732.053118 376.83861,732.096118 C375.67361,732.144118 375.43661,732.381118 376.23461,732.700118"/><path fill-opacity=".242" d="M1552.49661,149.020118 C1553.36261,150.393118 1559.73961,160.967118 1566.66661,172.517118 C1576.96761,189.692118 1581.78161,196.522118 1593.09561,210.017118 C1600.70361,219.092118 1610.07661,230.957118 1613.92561,236.384118 L1620.92161,246.252118 L1626.07861,271.884118 C1628.91461,285.982118 1631.16461,297.571118 1631.07861,297.636118 C1630.99261,297.702118 1602.58861,294.201118 1567.95861,289.855118 L1504.99561,281.955118 L1475.29861,311.640118 L1445.60161,341.325118 L1426.26161,351.924118 L1406.92161,362.523118 L1374.35361,405.849118 L1341.78561,449.175118 L1344.97361,463.678118 L1348.16161,478.181118 L1297.54161,511.937118 C1250.48961,543.314118 1246.53361,545.743118 1241.42161,546.406118 C1235.37061,547.191118 1136.42161,583.798118 1136.42161,585.252118 C1136.42161,585.734118 1142.80461,596.059118 1150.60561,608.198118 L1164.78861,630.268118 L1157.37961,652.642118 C1153.11261,665.529118 1149.45461,675.017118 1148.75161,675.017118 C1147.27661,675.017118 1081.42161,737.855118 1081.42161,739.263118 C1081.42161,739.807118 1082.78461,741.806118 1084.45161,743.704118 L1087.48061,747.154118 L1084.61561,750.836118 C1083.03961,752.860118 1075.76761,762.392118 1068.45661,772.017118 C1061.14561,781.642118 1054.37661,790.219118 1053.41561,791.078118 C1052.45361,791.936118 1035.83661,818.468118 1016.48861,850.036118 C990.06161,893.153118 981.44561,907.975118 981.85561,909.609118 C982.36361,911.635118 981.97061,911.819118 976.16161,912.268118 C968.38961,912.870118 910.04961,920.142118 909.57261,920.569118 C908.76361,921.294118 912.80861,937.021118 913.81661,937.066373 C914.42461,937.093118 932.03561,934.972118 952.95361,932.353118 L990.98561,927.590118 L1025.13061,882.054118 C1049.88061,849.047118 1103.41061,775.686118 1108.81961,767.361118 C1108.87561,767.275118 1148.29661,766.898118 1196.42161,766.523118 L1283.92161,765.841118 L1339.82261,761.454118 L1395.72461,757.067118 L1427.05561,782.125118 C1459.16161,807.801118 1458.17261,807.134118 1492.67161,826.354118 C1496.38461,828.423118 1499.42161,829.933118 1499.42161,829.710118 C1499.42161,829.487118 1486.24061,819.677118 1470.13061,807.911118 L1440.83861,786.517118 L1418.46661,760.634118 L1396.09361,734.750118 L1386.86961,713.739118 L1377.64561,692.728118 L1379.53861,686.123118 C1380.57961,682.490118 1386.03461,663.375118 1391.66161,643.647118 L1401.89161,607.777118 L1414.90661,583.647118 L1427.92161,559.517118 L1482.42161,513.831118 C1512.39661,488.704118 1537.59661,468.128118 1538.42161,468.107118 C1539.24661,468.086118 1558.59661,474.023118 1581.42161,481.301118 L1622.92161,494.533118 L1648.77961,515.411118 C1666.93861,530.073118 1675.01561,537.216118 1675.90761,539.403118 C1676.60561,541.116118 1682.25461,559.061118 1688.45961,579.282118 L1699.74261,616.047118 L1697.66861,618.282118 C1696.52861,619.511118 1693.24261,624.323118 1690.36761,628.976118 C1685.45461,636.927118 1685.21461,637.617118 1686.36661,640.476118 C1687.04161,642.148118 1687.81561,644.243118 1688.08861,645.131118 C1688.57261,646.710118 1667.81461,707.031118 1666.44761,708.017118 C1665.67461,708.575118 1653.42161,757.073118 1653.42161,759.576118 C1653.42161,761.338118 1669.56761,807.204118 1670.02661,806.745118 C1670.18461,806.587118 1678.64661,782.042118 1688.83061,752.202118 C1699.01461,722.361118 1707.67961,697.400118 1708.08661,696.732118 C1708.49261,696.064118 1716.94761,685.180118 1726.87361,672.545118 L1744.92161,649.573118 L1751.92161,602.031118 L1758.92161,554.489118 L1754.64861,539.003118 C1752.29861,530.486118 1747.05961,506.417118 1743.00761,485.517118 L1735.63961,447.517118 L1710.76161,385.005118 L1685.88261,322.494118 L1646.90161,256.494118 L1607.92161,190.494118 L1582.14261,170.506118 C1567.96361,159.512118 1555.13861,149.618118 1553.64261,148.520118 L1550.92161,146.523118 L1552.49661,149.020118 M383.37661,413.652118 L365.08861,435.288118 L372.06861,449.289118 L379.04961,463.290118 L383.44461,442.403118 C387.71161,422.127118 388.05161,421.086118 395.10861,406.767118 C399.10561,398.654118 402.21661,392.017118 402.02061,392.017118 C401.82461,392.017118 393.43461,401.753118 383.37661,413.652118 M746.81961,462.169118 C747.10861,464.010118 747.88461,474.726118 748.54361,485.981118 L749.74161,506.446118 L743.44561,512.148118 C739.98261,515.284118 736.64761,517.670118 736.03561,517.450118 C735.42261,517.230118 708.82161,514.569118 676.92161,511.536118 C645.02161,508.503118 616.82361,505.759118 614.26061,505.438118 L609.59961,504.854118 L619.43661,489.195118 C624.84661,480.582118 629.11661,473.378118 628.92461,473.186118 C628.73161,472.994118 614.32361,475.891118 596.90561,479.623118 L565.23561,486.409118 L556.32861,504.202118 C551.42961,513.989118 547.42161,522.215118 547.42161,522.482118 C547.42161,522.750118 554.93461,523.092118 564.11661,523.243118 L580.81261,523.517118 L587.54861,545.017118 C591.25361,556.842118 594.75761,567.286118 595.33561,568.226118 C596.19761,569.627118 595.17661,571.310118 589.65461,577.592118 L582.92161,585.251118 L573.42161,584.616118 C568.19661,584.267118 560.48061,583.704118 556.27461,583.364118 L548.62761,582.747118 L524.91661,560.229118 L501.20561,537.712118 L492.30661,542.073118 L483.40861,546.435118 L488.16461,551.320118 C490.78161,554.007118 500.00861,561.615118 508.67161,568.225118 C517.33461,574.836118 524.42161,580.431118 524.42161,580.658118 C524.42161,581.065118 514.86761,580.402118 506.87161,579.441118 C502.97161,578.972118 502.62361,578.619118 497.40861,569.810118 C492.80661,562.036118 485.36761,553.332118 482.35761,552.199118 C481.46761,551.864118 469.42161,559.709118 469.42161,560.624118 C469.42161,560.917118 472.45361,565.039118 476.15961,569.785118 C479.89461,574.568118 482.08661,578.102118 481.07761,577.715118 C480.07661,577.331118 476.59961,577.017118 473.34961,577.017118 L467.44161,577.017118 L463.79061,571.517118 C461.78161,568.492118 459.89561,566.017118 459.59961,566.017118 C457.71661,566.017118 446.42161,574.540118 446.42161,575.961118 C446.42161,577.199118 444.21561,578.439118 438.42161,580.456118 C430.55161,583.196118 429.55961,584.106118 431.35661,586.946118 C431.99961,587.961118 431.23461,589.629118 428.72061,592.696118 L425.18061,597.017118 L440.82561,597.017118 C456.12161,597.017118 456.49061,597.067118 457.35761,599.267118 C457.84561,600.504118 461.85961,609.284118 466.27661,618.776118 L474.30861,636.036118 L454.61561,651.078118 C437.34661,664.268118 432.48861,668.664118 415.16661,686.782118 C395.65161,707.194118 395.41961,707.488118 396.07361,710.981118 C396.66561,714.144118 396.56661,714.377118 395.13361,713.191118 C393.76461,712.056118 393.83061,712.924118 395.58961,719.191118 C396.72161,723.220118 397.80361,726.687118 397.99461,726.894118 C398.18561,727.101118 418.73861,715.321118 443.66761,700.715118 C468.59661,686.110118 489.54761,674.015118 490.22461,673.838118 C490.95061,673.649118 493.58061,678.136118 496.62161,684.752118 C499.46161,690.931118 501.92361,695.848118 502.09261,695.679118 C502.26161,695.510118 500.85361,690.004118 498.96261,683.444118 C497.07161,676.884118 495.83861,671.214118 496.22261,670.843118 C498.46961,668.675118 537.70661,648.922118 538.33361,649.643118 C538.75061,650.124118 543.95161,656.817118 549.89161,664.517118 C561.82361,679.986118 563.74361,682.213118 560.67261,677.017118 C559.53561,675.092118 555.00861,667.442118 550.61361,660.017118 C546.21961,652.592118 542.70661,646.426118 542.80761,646.315118 C542.90961,646.204118 559.17661,646.829118 578.95661,647.703118 L614.92161,649.293118 L622.42161,654.791118 L629.92161,660.290118 L624.95961,655.153118 L619.99661,650.017118 L624.33061,650.017118 C626.71461,650.017118 648.52261,650.962118 672.79361,652.118118 C705.12961,653.657118 724.93861,654.091118 746.92161,653.742118 L776.92161,653.264118 L793.28061,660.891118 L809.63961,668.517118 L822.83461,682.517118 C830.09161,690.217118 842.02561,704.280118 849.35661,713.767118 C856.68661,723.254118 862.98361,731.017118 863.34861,731.017118 C863.71461,731.017118 864.96161,726.180118 866.12161,720.267118 L868.22961,709.517118 L859.57561,698.202118 C848.08761,683.182118 842.03361,673.875118 843.25961,673.117118 C844.49061,672.356118 852.72261,625.322118 854.82861,607.017118 C856.81461,589.756118 859.72361,554.419118 859.26961,553.071118 C859.07761,552.503118 855.56261,565.234118 851.45661,581.362118 L843.99161,610.685118 L837.67961,614.875118 L831.36661,619.066118 L797.40461,610.042118 C778.72561,605.078118 762.33861,601.017118 760.99061,601.017118 C759.64261,601.017118 758.25761,600.561118 757.91361,600.004118 C757.56961,599.447118 759.34261,595.606118 761.85461,591.469118 C764.36661,587.331118 766.42161,583.701118 766.42161,583.403118 C766.42161,583.104118 770.30461,576.373118 775.04961,568.445118 L783.67861,554.030118 L797.29961,566.873118 C819.36161,587.673118 837.90661,604.865118 838.08661,604.685118 C838.17861,604.593118 832.24461,582.508118 824.90161,555.608118 C816.00861,523.035118 810.94361,506.125118 809.73561,504.979118 C808.10661,503.434118 750.78961,461.599118 747.60561,459.631118 C746.58961,459.003118 746.41261,459.575118 746.81961,462.169118 M306.42161,510.420118 L242.92161,517.592118 L295.42161,519.449118 C324.29661,520.471118 348.24261,521.584118 348.63461,521.924118 C349.02661,522.264118 321.02261,529.483118 286.40361,537.966118 C251.78461,546.449118 223.60461,553.534118 223.780781,553.710118 C223.95761,553.886118 256.17261,550.871118 295.37061,547.008118 L366.63861,539.985118 L371.03061,536.832118 C375.14261,533.878118 375.42161,533.381118 375.42161,529.003118 C375.42161,526.432118 375.71461,519.533118 376.07361,513.673118 L376.72561,503.017118 L373.32361,503.133118 C371.45261,503.196118 341.34661,506.476118 306.42161,510.420118 M284.70361,571.820118 C247.18361,582.597118 216.59761,591.526118 216.733158,591.662118 C216.86961,591.799118 244.64361,587.667118 278.45161,582.480118 C312.26061,577.293118 340.46361,573.042118 341.12661,573.033118 C341.78861,573.024118 342.63161,571.417118 342.99761,569.462118 C343.36461,567.506118 345.54461,563.344118 347.84261,560.212118 C352.21061,554.258118 353.75061,551.946118 353.23061,552.121118 C353.06061,552.179118 322.22361,561.043118 284.70361,571.820118 M474.42161,597.621118 C474.42161,598.944118 480.27761,619.206118 480.81561,619.744118 C481.40361,620.332118 483.88561,617.440118 491.31161,607.517118 L497.29661,599.517118 L494.60961,598.735118 C490.35161,597.495118 474.42161,596.617118 474.42161,597.621118"/></g></svg>