<svg xmlns="http://www.w3.org/2000/svg" width="1024.889" height="921.169" viewBox="0 0 1024.889 921.169"><g fill="#ABABAB" fill-rule="evenodd"><path fill-opacity=".349" d="M813.844,1.35346451 C811.094,2.03646451 805.694,3.13646451 801.844,3.79846451 C791.814,5.52146451 784.776,6.83446451 777.344,8.36946451 C773.769,9.10846451 767.919,10.2324645 764.344,10.8674645 C760.769,11.5024645 754.469,12.6914645 750.344,13.5104645 C746.219,14.3294645 740.594,15.4044645 737.844,15.9004645 C735.094,16.3954645 729.469,17.4664645 725.344,18.2804645 C721.219,19.0954645 712.669,20.7064645 706.344,21.8614645 C692.421,24.4044645 675.659,28.2244645 664.844,31.3184645 C660.444,32.5774645 653.919,34.3894645 650.344,35.3454645 C646.769,36.3004645 642.719,37.4314645 641.344,37.8574645 C639.969,38.2834645 635.919,39.4144645 632.344,40.3694645 C628.769,41.3254645 622.244,43.1524645 617.844,44.4294645 C613.444,45.7074645 604.669,48.1464645 598.344,49.8504645 C582.853,54.0224645 571.226,57.2544645 540.844,65.8324645 C532.594,68.1614645 524.494,70.4304645 522.844,70.8754645 C521.194,71.3204645 517.144,72.4464645 513.844,73.3784645 C510.544,74.3104645 506.494,75.4354645 504.844,75.8784645 C503.194,76.3214645 499.369,77.3914645 496.344,78.2564645 C489.168,80.3074645 477.943,83.4614645 467.344,86.4044645 C462.669,87.7034645 456.369,89.4814645 453.344,90.3574645 C450.319,91.2334645 444.019,93.0114645 439.344,94.3104645 C434.669,95.6084645 427.694,97.5574645 423.844,98.6424645 C419.994,99.7264645 411.669,102.071465 405.344,103.852465 C399.019,105.633465 389.344,108.334465 383.844,109.854465 C364.081,115.315465 358.21,116.956465 325.844,126.072465 C321.994,127.157465 315.019,129.106465 310.344,130.404465 C305.669,131.703465 299.369,133.481465 296.344,134.357465 C293.319,135.233465 287.019,137.011465 282.344,138.310465 C273.652,140.724465 262.942,143.727465 253.594,146.372465 C250.707,147.189465 245.981,148.522465 243.094,149.336465 C240.207,150.149465 233.794,151.961465 228.844,153.363465 C223.894,154.766465 215.569,157.046465 210.344,158.431465 C205.119,159.816465 198.819,161.586465 196.344,162.365465 C193.869,163.144465 188.244,164.752465 183.844,165.939465 C179.444,167.126465 172.019,169.181465 167.344,170.505465 C162.669,171.829465 154.569,174.058465 149.344,175.457465 C144.119,176.856465 133.094,180.221465 124.844,182.934465 C116.594,185.647465 97.687,191.848465 82.828,196.713465 C58.296,204.747465 38.074,211.690465 32.844,213.875465 C31.744,214.335465 29.494,215.117465 27.844,215.614465 C23.691,216.864465 23.907,216.354465 14.825,246.357465 C13.327,251.307465 11.536,257.157465 10.845,259.357465 C10.155,261.557465 8.572,266.732465 7.328,270.857465 C6.084,274.982465 4.003,281.720465 2.705,285.829465 L0.344,293.302465 L0.318732351,357.329465 C0.305,392.545465 0.842,474.138465 1.513,538.647465 L2.732,655.937465 L13.244,665.147465 C19.026,670.213465 26.026,676.409465 28.8,678.917465 C31.574,681.425465 38.038,687.050465 43.165,691.417465 C48.291,695.784465 55.716,702.183465 59.665,705.636465 C63.613,709.090465 71.794,716.159465 77.844,721.346465 C83.894,726.533465 92.07,733.608465 96.014,737.067465 C99.957,740.527465 108.655,748.082465 115.344,753.857465 C122.033,759.632465 130.731,767.180465 134.674,770.631465 C138.618,774.082465 146.923,781.282465 153.131,786.631465 C159.339,791.980465 167.889,799.397465 172.131,803.113465 C176.373,806.829465 184.794,814.124465 190.844,819.323465 C196.894,824.523465 205.07,831.608465 209.014,835.067465 C216.44,841.582465 236.124,858.629465 246.298,867.357465 C249.504,870.107465 258.305,877.757465 265.855,884.357465 C273.405,890.957465 282.201,898.607465 285.4,901.357465 C288.599,904.107465 295.013,909.620465 299.652,913.607465 C304.351,917.645465 309.022,920.857465 310.196,920.857465 C311.355,920.857465 314,920.236465 316.074,919.477465 C318.147,918.718465 321.869,917.534465 324.344,916.847465 C326.819,916.160465 330.644,915.028465 332.844,914.331465 C335.044,913.634465 338.644,912.571465 340.844,911.970465 C345.762,910.624465 360.258,906.309465 366.344,904.378465 C368.819,903.593465 375.794,901.538465 381.844,899.811465 C394.016,896.337465 404.922,892.759465 428.844,884.394465 C458.917,873.877465 477.843,867.540465 481.344,866.816465 C483.269,866.417465 487.544,865.344465 490.844,864.430465 C494.144,863.516465 498.644,862.385465 500.844,861.916465 C503.044,861.447465 512.944,859.023465 522.844,856.529465 C545.186,850.900465 617.059,833.112465 668.844,820.395465 C690.294,815.128465 710.319,810.174465 713.344,809.387465 C724.168,806.571465 735.967,803.604465 743.344,801.841465 C754.437,799.192465 767.112,796.044465 773.344,794.391465 C776.369,793.589465 795.494,788.828465 815.844,783.811465 C837.704,778.422465 858.982,772.517465 867.844,769.380465 C876.094,766.460465 889.594,761.732465 897.844,758.873465 C906.094,756.015465 914.419,753.056465 916.344,752.298465 C919.749,750.957465 926.335,748.895465 944.844,743.377465 C959.543,738.995465 965.508,737.237465 971.844,735.419465 C975.144,734.472465 978.969,733.335465 980.344,732.893465 C981.719,732.451465 984.869,731.535465 987.344,730.857465 C989.819,730.179465 992.969,729.263465 994.344,728.821465 C995.719,728.379465 999.544,727.260465 1002.844,726.334465 C1006.144,725.409465 1009.969,724.276465 1011.344,723.817465 C1012.719,723.358465 1015.253,722.705465 1016.975,722.366465 L1020.105,721.750465 L1020.713,660.054465 C1021.047,626.121465 1021.888,558.082465 1022.582,508.857465 C1023.627,434.757465 1023.934,424.261465 1024.367,447.857465 C1024.655,463.532465 1024.889,434.507465 1024.889,383.357465 C1024.889,332.207465 1024.652,304.757465 1024.365,322.357465 C1023.797,357.242465 1023.73,357.267465 1020.343,323.857465 C1019.758,318.082465 1018.634,307.957465 1017.846,301.357465 C1017.059,294.757465 1015.921,284.407465 1015.319,278.357465 C1013.16,256.669465 1011.061,242.320465 1009.733,240.171465 C1008.99,238.968465 1007.529,236.493465 1006.488,234.671465 C1005.447,232.848465 998.86,221.907465 991.85,210.357465 C984.84,198.807465 978.313,188.007465 977.345,186.357465 C976.378,184.707465 971.419,176.382465 966.327,167.857465 C961.235,159.332465 955.941,150.332465 954.563,147.857465 C953.185,145.382465 951.222,142.163465 950.201,140.703465 C949.18,139.243465 948.344,137.775465 948.344,137.442465 C948.344,137.108465 946.182,133.353465 943.539,129.096465 C940.896,124.840465 934.323,113.819465 928.932,104.606465 L919.13,87.8554645 L895.205,65.1064645 C882.046,52.5944645 861.281,32.8174645 849.062,21.1574645 C827.544,0.625464509 826.718,-0.0395354908 822.844,0.0302297271 C820.644,0.0764645092 816.594,0.670464509 813.844,1.35346451 M0.824,384.357465 C0.824,435.507465 0.945,456.285465 1.094,430.531465 C1.242,404.777465 1.242,362.927465 1.094,337.531465 C0.945,312.135465 0.824,333.207465 0.824,384.357465 M728.665,550.659465 C730.244,552.404465 730.4,554.582465 730.138,571.235465 C729.845,589.808465 729.85,589.859465 732.029,589.858465 C733.231,589.858465 735.293,589.447465 736.612,588.945465 C737.931,588.444465 740.773,587.758465 742.927,587.422465 C745.081,587.085465 747.519,586.613465 748.344,586.373465 C749.169,586.132465 750.969,585.718465 752.344,585.451465 C753.719,585.185465 758.219,584.204465 762.344,583.271465 C766.469,582.337465 771.447,581.300465 773.407,580.965465 L776.97,580.357465 L774.488,567.362465 C773.124,560.215465 771.844,554.858465 771.644,555.458465 C771.4,556.190465 769.729,556.291465 766.562,555.767465 C750.128,553.046465 731.478,549.802465 729.371,549.298465 C726.975,548.725465 726.953,548.768465 728.665,550.659465 M723.844,590.857465 C722.583,591.399465 722.399,591.716465 723.344,591.716465 C724.169,591.716465 725.744,591.330465 726.844,590.857465 C728.105,590.315465 728.289,589.998465 727.344,589.998465 C726.519,589.998465 724.944,590.384465 723.844,590.857465 M711.344,593.857465 C709.516,595.038465 711.095,595.038465 713.844,593.857465 C715.163,593.290465 715.333,592.979465 714.344,592.943465 C713.519,592.912465 712.169,593.324465 711.344,593.857465"/><path fill-opacity=".271" d="M819.844,0.811464509 C818.194,1.23746451 813.919,2.08346451 810.344,2.69246451 C801.849,4.13946451 767.665,10.5914645 759.344,12.3184645 C755.769,13.0604645 749.694,14.1924645 745.844,14.8344645 C736.529,16.3864645 729.219,17.7414645 721.344,19.3764645 C717.769,20.1194645 708.544,21.9024645 700.844,23.3394645 C693.144,24.7774645 682.794,27.0424645 677.844,28.3734645 C661.099,32.8754645 657.866,33.7584645 646.844,36.8314645 C640.794,38.5184645 630.894,41.2374645 624.844,42.8734645 C618.794,44.5104645 610.019,46.9214645 605.344,48.2334645 C600.669,49.5444645 593.357,51.5714645 589.094,52.7374645 C565.35,59.2334645 557.679,61.3684645 547.344,64.3604645 C540.509,66.3394645 531.877,68.7884645 527.594,69.9644645 C519.544,72.1754645 516.972,72.8934645 502.844,76.8774645 C494.594,79.2034645 484.019,82.1694645 479.344,83.4674645 C474.669,84.7664645 466.794,86.9724645 461.844,88.3704645 C447.765,92.3454645 428.364,97.7574645 419.094,100.294465 C403.63,104.527465 398.381,105.993465 393.844,107.347465 C389.391,108.676465 377.13,112.151465 367.344,114.857465 C365.419,115.389465 359.794,116.971465 354.844,118.371465 C349.894,119.772465 344.044,121.409465 341.844,122.010465 C339.644,122.611465 335.819,123.667465 333.344,124.357465 C330.869,125.047465 326.819,126.172465 324.344,126.857465 C315.689,129.252465 301.119,133.385465 295.844,134.941465 C286.236,137.776465 274.663,141.041465 266.344,143.263465 C261.119,144.659465 253.019,146.886465 248.344,148.213465 C240.698,150.383465 229.152,153.632465 210.344,158.908465 C206.769,159.911465 199.79,161.833465 194.836,163.180465 C189.882,164.526465 182.682,166.541465 178.836,167.656465 C174.99,168.771465 165.769,171.334465 158.344,173.352465 C137.715,178.957465 63.072,203.267465 31.911,214.528465 C23.451,217.585465 24.057,216.907465 21.336,226.357465 C20.861,228.007465 19.065,233.857465 17.344,239.357465 C14.205,249.390465 13.108,253.070465 11.454,259.107465 C10.964,260.895465 8.232,269.717465 5.382,278.713465 L0.202,295.070465 L1.273,464.277465 C1.862,557.340465 2.344,638.482465 2.344,644.590465 L2.344,655.697465 L13.594,665.253465 C19.781,670.509465 28.07,677.632465 32.014,681.083465 C35.957,684.534465 44.655,692.082465 51.344,697.857465 C58.033,703.632465 66.731,711.183465 70.674,714.636465 C74.618,718.090465 82.794,725.159465 88.844,730.346465 C94.894,735.533465 103.07,742.608465 107.014,746.067465 C110.957,749.527465 119.655,757.082465 126.344,762.857465 C133.033,768.632465 141.731,776.183465 145.674,779.636465 C149.618,783.090465 157.794,790.159465 163.844,795.346465 C169.894,800.533465 178.07,807.608465 182.014,811.067465 C185.957,814.527465 194.655,822.082465 201.344,827.857465 C208.033,833.632465 216.583,841.057465 220.344,844.357465 C224.105,847.657465 232.657,855.082465 239.347,860.857465 C246.037,866.632465 254.602,874.057465 258.382,877.357465 C262.161,880.657465 269.211,886.715465 274.049,890.819465 C284.51,899.695465 295.683,909.503465 303.033,916.263465 L308.368,921.169465 L312.606,919.884465 C314.937,919.176465 318.644,918.028465 320.844,917.331465 C323.044,916.634465 326.644,915.571465 328.844,914.970465 C333.625,913.662465 348.053,909.371465 354.344,907.386465 C356.819,906.605465 366.044,903.893465 374.844,901.359465 C383.644,898.825465 392.981,896.064465 395.594,895.224465 L400.344,893.696465 L400.344,712.592465 C400.344,556.811465 400.139,530.710465 398.88,525.923465 C398.075,522.862465 395.352,510.907465 392.829,499.357465 C390.306,487.807465 387.554,475.432465 386.714,471.857465 C384.967,464.418465 384.403,461.884465 380.818,445.357465 C379.387,438.757465 377.726,431.107465 377.127,428.357465 C374.021,414.087465 371.055,404.361465 367.367,396.357465 C366.861,395.257465 362.105,383.347465 356.8,369.890465 C348.65,349.219465 341.549,333.625465 338.341,329.357465 C336.181,326.483465 329.563,312.864465 330.614,313.458465 C331.291,313.839465 330.726,313.072465 329.36,311.754465 L326.876,309.357465 L329.36,309.044465 C330.726,308.871465 336.344,307.827465 341.844,306.724465 C347.344,305.621465 356.344,303.876465 361.844,302.845465 C367.344,301.815465 375.444,300.267465 379.844,299.406465 C391.107,297.202465 405.876,294.895465 412.298,294.336465 C415.298,294.075465 418.629,293.584465 419.7,293.244465 C421.223,292.761465 421.507,292.989465 421.007,294.294465 C420.63,295.274465 420.774,295.709465 421.355,295.350465 C422.262,294.790465 422.788,296.165465 422.438,298.181465 C422.359,298.635465 422.686,298.764465 423.164,298.468465 C423.642,298.173465 426.657,301.852465 429.863,306.644465 C433.07,311.436465 436.433,316.257465 437.337,317.357465 C438.241,318.457465 440.246,322.732465 441.793,326.857465 C443.34,330.982465 445.196,335.707465 445.917,337.357465 C446.638,339.007465 449.759,346.657465 452.853,354.357465 C455.947,362.057465 459.057,369.707465 459.765,371.357465 C464.942,383.433465 466.115,389.557465 469.34,421.357465 C469.953,427.407465 471.08,437.757465 471.843,444.357465 C472.606,450.957465 473.746,461.532465 474.377,467.857465 C475.008,474.182465 476.158,483.983465 476.934,489.637465 C478.105,498.174465 478.344,531.045465 478.344,683.504465 L478.344,867.090465 L480.594,866.478465 C481.832,866.142465 499.269,861.805465 519.344,856.842465 C539.419,851.879465 558.319,847.168465 561.344,846.374465 C564.369,845.580465 569.769,844.218465 573.344,843.347465 C591.317,838.970465 596.289,837.730465 601.344,836.365465 C604.369,835.548465 615.394,832.846465 625.844,830.360465 C636.294,827.875465 647.094,825.212465 649.844,824.442465 C652.594,823.673465 657.319,822.493465 660.344,821.820465 C663.369,821.147465 667.869,820.018465 670.344,819.311465 C672.819,818.604465 681.369,816.438465 689.344,814.496465 C714.614,808.343465 792.711,789.056465 823.698,781.315465 C840.118,777.213465 853.731,773.857465 853.948,773.857465 C854.166,773.857465 854.333,745.844465 854.32,711.607465 C854.307,677.370465 854.844,596.136465 855.514,531.089465 C856.402,444.917465 856.434,411.943465 855.632,409.589465 C855.027,407.811465 846.396,381.832465 836.453,351.857465 C819.728,301.438465 816.852,291.579465 812.83,270.857465 C811.368,263.325465 810.746,260.296465 808,247.357465 C807.182,243.507465 805.981,237.713465 805.329,234.482465 C804.678,231.251465 802.795,226.318465 801.145,223.520465 C794.662,212.524465 791.421,206.114465 792.035,205.500465 C792.388,205.146465 792.104,204.857465 791.404,204.857465 C790.663,204.857465 790.379,204.207465 790.726,203.305465 C791.053,202.451465 790.899,202.014465 790.383,202.333465 C789.867,202.652465 789.007,202.096465 788.472,201.097465 C787.659,199.578465 787.917,199.246465 790.045,199.070465 C791.445,198.954465 797.259,197.509465 802.967,195.858465 C808.674,194.207465 818.181,191.501465 824.094,189.843465 C830.007,188.185465 836.644,186.307465 838.844,185.670465 C841.044,185.033465 843.744,184.363465 844.844,184.182465 C845.944,184.001465 847.744,183.409465 848.844,182.868465 C849.944,182.326465 853.319,181.215465 856.344,180.400465 C859.369,179.584465 864.948,178.043465 868.741,176.975465 C875.938,174.949465 878.838,175.127465 877.913,177.538465 C877.613,178.321465 877.711,178.748465 878.133,178.488465 C879.437,177.681465 894.919,204.809465 899.173,215.357465 C908.69,238.948465 917.598,260.644465 919.298,264.367465 C920.305,266.572465 921.427,271.972465 921.792,276.367465 C922.157,280.761465 922.868,287.507465 923.372,291.357465 C924.557,300.401465 924.952,303.935465 926.337,317.857465 C926.966,324.182465 928.104,334.532465 928.866,340.857465 C929.628,347.182465 930.766,357.532465 931.395,363.857465 C932.024,370.182465 932.832,377.787465 933.191,380.757465 C933.833,386.066465 933.544,423.712465 931.214,638.123465 C930.57,697.394465 930.237,746.083465 930.474,746.320465 C930.711,746.558465 934.717,745.632465 939.375,744.264465 C944.033,742.896465 957.744,738.895465 969.844,735.373465 C1008.287,724.184465 1012.768,722.873465 1016.344,721.770465 L1019.844,720.691465 L1020.106,678.024465 C1020.25,654.557465 1020.808,606.107465 1021.346,570.357465 C1022.968,462.536465 1023.061,349.098465 1021.536,336.857465 C1019.662,321.806465 1017.61,303.990465 1016.354,291.857465 C1015.756,286.082465 1014.628,275.957465 1013.848,269.357465 C1013.067,262.757465 1012.139,254.227465 1011.785,250.402465 C1011.122,243.240465 1008.507,237.994465 994.318,215.357465 C989.759,208.083465 963.812,164.756465 961.082,159.857465 C960.009,157.932465 958.789,155.907465 958.371,155.357465 C957.953,154.807465 956.486,152.332465 955.111,149.857465 C953.736,147.382465 946.2,134.557465 938.365,121.357465 C930.529,108.157465 923.087,95.5574645 921.827,93.3574645 C919.222,88.8104645 900.951,70.6164645 865.344,37.1124645 C851.869,24.4324645 837.706,10.8634645 833.871,6.95846451 C826.773,-0.269535491 825.759,-0.713535491 819.844,0.811464509 M874.844,182.857465 C873.583,183.399465 873.399,183.716465 874.344,183.716465 C875.169,183.716465 876.744,183.330465 877.844,182.857465 C879.105,182.315465 879.289,181.998465 878.344,181.998465 C877.519,181.998465 875.944,182.384465 874.844,182.857465 M867.344,184.857465 C866.519,185.390465 864.719,185.895465 863.344,185.978465 C861.297,186.102465 861.213,186.203465 862.88,186.535465 C864,186.758465 866.475,186.264465 868.38,185.438465 C870.285,184.611465 871.169,183.925465 870.344,183.911465 C869.519,183.898465 868.169,184.324465 867.344,184.857465 M858.344,187.857465 C857.062,188.685465 857.098,188.829465 858.594,188.842465 C859.556,188.850465 860.344,188.407465 860.344,187.857465 C860.344,186.637465 860.231,186.637465 858.344,187.857465 M851.344,189.857465 C850.011,190.719465 850.011,190.826465 851.344,190.826465 C852.169,190.826465 853.519,190.390465 854.344,189.857465 C855.677,188.995465 855.677,188.888465 854.344,188.888465 C853.519,188.888465 852.169,189.324465 851.344,189.857465 M842.844,192.321465 C838.9,194.127465 839.792,194.158465 845.344,192.409465 C847.819,191.629465 848.944,190.981465 847.844,190.969465 C846.744,190.957465 844.494,191.565465 842.844,192.321465 M832.785,195.412465 C830.875,196.942465 830.876,196.953465 832.844,196.047465 C833.944,195.541465 835.519,194.877465 836.344,194.571465 C837.64,194.091465 837.632,194.004465 836.285,193.936465 C835.428,193.893465 833.853,194.557465 832.785,195.412465 M824.344,197.357465 C822.419,198.098465 821.519,198.705465 822.344,198.705465 C823.169,198.705465 825.419,198.098465 827.344,197.357465 C829.269,196.616465 830.169,196.009465 829.344,196.009465 C828.519,196.009465 826.269,196.616465 824.344,197.357465 M814.785,200.412465 C812.875,201.942465 812.876,201.953465 814.844,201.047465 C815.944,200.541465 817.519,199.877465 818.344,199.571465 C819.64,199.091465 819.632,199.004465 818.285,198.936465 C817.428,198.893465 815.853,199.557465 814.785,200.412465 M807.344,201.882465 C805.969,202.359465 802.819,203.285465 800.344,203.939465 C797.869,204.593465 796.294,205.290465 796.844,205.487465 C797.394,205.684465 801.219,204.767465 805.344,203.450465 C809.469,202.133465 812.169,201.046465 811.344,201.035465 C810.519,201.024465 808.719,201.405465 807.344,201.882465 M406.844,300.364465 C402.994,301.074465 398.269,302.145465 396.344,302.744465 L392.844,303.834465 L396.844,303.195465 C408.578,301.320465 419.468,299.077465 416.844,299.075463 C415.194,299.074465 410.694,299.654465 406.844,300.364465 M383.594,304.888465 C382.356,305.386465 381.344,305.996465 381.344,306.244465 C381.344,306.729465 388.566,304.912465 389.261,304.252465 C390.042,303.511465 385.851,303.981465 383.594,304.888465 M370.844,307.385465 C365.518,309.140465 368.518,309.137465 374.844,307.380465 C377.602,306.615465 378.723,306.009465 377.344,306.029465 C375.969,306.050465 373.044,306.660465 370.844,307.385465 M357.844,309.904465 C356.45,310.535465 357.056,310.625465 359.844,310.201465 C362.044,309.866465 364.032,309.426465 364.261,309.224465 C365.12,308.467465 359.764,309.034465 357.844,309.904465 M343.844,312.376465 C340.268,313.129465 339.056,313.644465 340.844,313.652465 C342.494,313.659465 346.094,313.087465 348.844,312.380465 C355.268,310.728465 351.685,310.726465 343.844,312.376465 M333.344,314.857465 C331.516,316.038465 333.095,316.038465 335.844,314.857465 C337.163,314.290465 337.333,313.979465 336.344,313.943465 C335.519,313.912465 334.169,314.324465 333.344,314.857465 M727.844,442.768465 C721.794,444.301465 712.569,446.533465 707.344,447.728465 C702.119,448.923465 695.369,450.564465 692.344,451.374465 C689.319,452.184465 678.519,454.880465 668.344,457.365465 C650.881,461.629465 645.058,463.129465 615.844,470.882465 C609.244,472.633465 602.326,474.434465 600.472,474.884465 C598.617,475.334465 596.791,476.074465 596.413,476.529465 C596.035,476.985465 594.934,481.632465 593.965,486.857465 C592.996,492.082465 591.747,498.832465 591.189,501.857465 C590.631,504.882465 589.58,510.282465 588.854,513.857465 C588.128,517.432465 587.015,523.507465 586.382,527.357465 C585.748,531.207465 584.613,537.282465 583.86,540.857465 C583.106,544.432465 581.974,550.282465 581.344,553.857465 C580.714,557.432465 579.596,563.507465 578.86,567.357465 C578.124,571.207465 576.998,577.282465 576.357,580.857465 C575.717,584.432465 574.783,589.382465 574.282,591.857465 C573.78,594.332465 573.184,597.482465 572.956,598.857465 C572.728,600.232465 571.822,605.119465 570.943,609.717465 C570.063,614.316465 569.344,618.507465 569.344,619.032465 C569.344,620.616465 602.86,619.435465 610.344,617.587465 C618.373,615.605465 632.176,612.534465 647.462,609.331465 C653.852,607.991465 659.702,606.675465 660.462,606.405465 C661.222,606.136465 662.969,605.723465 664.344,605.488465 C667.072,605.022465 678.095,602.696465 688.344,600.423465 C691.919,599.631465 699.119,598.033465 704.344,596.874465 C709.569,595.714465 719.072,593.670465 725.462,592.331465 C731.852,590.991465 737.702,589.675465 738.462,589.405465 C739.222,589.136465 740.969,588.723465 742.344,588.488465 C746.993,587.694465 760.796,584.779465 769.429,582.768465 L778.013,580.768465 L777.299,576.562465 C776.907,574.249465 776.117,570.107465 775.545,567.357465 C774.973,564.607465 774.017,559.657465 773.422,556.357465 C772.437,550.900465 767.751,526.575465 763.79,506.357465 C762.928,501.957465 761.813,496.107465 761.312,493.357465 C760.811,490.607465 759.735,484.982465 758.921,480.857465 C758.106,476.732465 756.47,468.286465 755.285,462.089465 L753.131,450.821465 L747.487,445.359465 C744.384,442.355465 741.169,439.916465 740.344,439.940289 C739.519,439.963465 733.894,441.236465 727.844,442.768465"/><path fill-opacity=".165" d="M819.344,0.860464509 C813.791,2.12246451 801.424,4.59046451 794.344,5.84746451 C790.769,6.48246451 784.919,7.61246451 781.344,8.35746451 C777.769,9.10246451 771.919,10.2294645 768.344,10.8604645 C764.769,11.4924645 759.819,12.3974645 757.344,12.8734645 C754.869,13.3494645 746.544,14.9094645 738.844,16.3414645 C731.144,17.7734645 721.694,19.5764645 717.844,20.3504645 C713.994,21.1234645 707.694,22.2984645 703.844,22.9614645 C696.33,24.2544645 676.025,28.9544645 667.844,31.2934645 C665.094,32.0794645 658.794,33.8184645 653.844,35.1584645 C648.894,36.4984645 640.344,38.8354645 634.844,40.3504645 C629.344,41.8654645 621.694,43.9714645 617.844,45.0294645 C613.994,46.0874645 608.594,47.5764645 605.844,48.3384645 C603.094,49.1004645 596.794,50.8364645 591.844,52.1974645 C586.894,53.5574645 579.694,55.5574645 575.844,56.6424645 C571.994,57.7264645 563.669,60.0714645 557.344,61.8524645 C551.019,63.6334645 541.344,66.3344645 535.844,67.8544645 C522.015,71.6754645 509.547,75.1584645 498.344,78.3314645 C489.102,80.9484645 479.777,83.5574645 462.344,88.4024645 C457.669,89.7024645 451.369,91.4814645 448.344,92.3554645 C441.328,94.3854645 432.46,96.8834645 419.844,100.385465 C414.344,101.912465 407.819,103.738465 405.344,104.442465 C402.869,105.146465 396.794,106.835465 391.844,108.196465 C382.945,110.642465 379.808,111.521465 357.344,117.857465 C335.796,123.935465 331.844,125.044465 322.844,127.539465 C317.894,128.911465 312.494,130.396465 310.844,130.840465 C309.194,131.283465 297.269,134.651465 284.344,138.325465 C260.421,145.125465 252.198,147.439465 246.844,148.879465 C245.194,149.323465 241.594,150.348465 238.844,151.158465 C236.094,151.967465 230.469,153.558465 226.344,154.694465 C222.219,155.829465 213.444,158.377465 206.844,160.356465 C200.244,162.336465 194.169,164.093465 193.344,164.261465 C190.565,164.829465 185.872,166.026465 181.344,167.323465 C175.818,168.905465 173.138,169.650465 152.344,175.384465 C143.269,177.886465 130.669,181.669465 124.344,183.791465 C118.019,185.912465 97.319,192.711465 78.344,198.898465 C59.369,205.085465 43.394,210.437465 42.844,210.791465 C42.294,211.145465 37.928,212.754465 33.141,214.367465 L24.438,217.300465 L21.951,225.329465 C20.583,229.744465 17.836,238.757465 15.847,245.357465 C13.858,251.957465 11.618,259.157465 10.869,261.357465 C10.12,263.557465 7.368,272.332465 4.754,280.857465 L5.68434189e-14,296.357465 L1.198,414.857465 C1.857,480.032465 2.384,560.597465 2.37,593.891465 L2.344,654.425465 L7.594,659.477465 C10.482,662.255465 17.039,668.090465 22.167,672.443465 C27.295,676.796465 34.587,683.057465 38.371,686.357465 C42.155,689.657465 50.334,696.727465 56.547,702.067465 C62.761,707.408465 71.07,714.608465 75.014,718.067465 C78.957,721.527465 87.651,729.082465 94.335,734.857465 C101.018,740.632465 109.343,747.832465 112.834,750.857465 C116.325,753.882465 123.887,760.407465 129.639,765.357465 C135.39,770.307465 146.31,779.757465 153.904,786.357465 C173.505,803.391465 192.666,819.957465 207.844,832.993465 C211.144,835.827465 216.769,840.726465 220.344,843.879465 C230.565,852.896465 241.119,862.012465 246.19,866.205465 C248.75,868.321465 253.994,872.862465 257.844,876.297465 C267.802,885.179465 278.27,894.261465 287.884,902.357465 C292.455,906.207465 299.068,911.924465 302.579,915.062465 L308.963,920.767465 L314.654,918.671465 L320.344,916.574465 L320.344,758.434465 C320.344,614.731465 320.194,599.794465 318.703,594.825465 C316.707,588.172465 315.511,553.857465 317.275,553.857465 C317.962,553.857465 318.344,550.295465 318.344,543.877465 C318.344,537.723465 318.886,532.452465 319.757,530.127465 C321.099,526.548465 322.598,518.095465 322.466,514.857465 C322.432,514.032465 322.821,509.532465 323.331,504.857465 C323.841,500.182465 324.744,491.632465 325.338,485.857465 C325.932,480.082465 327.058,470.182465 327.84,463.857465 C328.622,457.532465 329.747,447.182465 330.341,440.857465 C330.934,434.532465 331.786,427.684465 332.234,425.639465 C332.682,423.594465 332.702,422.136465 332.278,422.398465 C330.961,423.212465 330.4,418.107465 329.316,395.450465 C328.739,383.400465 328.065,373.215465 327.818,372.815465 C327.571,372.415465 324.438,371.586465 320.856,370.973465 C304.949,368.248465 301.694,367.713465 299.344,367.438465 C292.131,366.594465 285.133,364.604465 286.449,363.771465 C287.216,363.285465 288.622,362.881465 289.574,362.872465 C293.91,362.834465 298.864,359.739465 300.461,356.071465 C301.351,354.028465 302.968,350.332465 304.055,347.857465 C305.141,345.382465 307.105,340.719465 308.418,337.495465 C309.863,333.947465 311.613,331.325465 312.852,330.854465 C313.977,330.426465 316.395,328.678465 318.225,326.968465 C325.649,320.033465 328.964,317.879465 330.258,319.149465 C331.621,320.486465 324.407,306.513465 320.696,300.627465 C319.402,298.575465 318.344,296.629465 318.344,296.301465 C318.344,295.974465 316.527,292.595465 314.307,288.794465 C312.087,284.992465 308.711,279.064465 306.805,275.619465 C304.899,272.175465 301.47,265.982465 299.186,261.857465 C296.026,256.151465 293.115,252.682465 287.016,247.357465 C282.607,243.507465 276.456,238.107465 273.348,235.357465 C270.239,232.607465 262.813,226.082465 256.844,220.857465 C245.234,210.693465 236.272,202.749465 229.878,196.953465 C227.696,194.975465 224.096,191.837465 221.878,189.980465 C219.659,188.123465 215.328,184.276465 212.254,181.431465 C207.626,177.149465 207.023,176.233465 208.754,176.111465 C214.064,175.738465 217.669,174.676465 216.365,173.870465 C215.514,173.344465 217.187,172.807465 220.934,172.402465 C233.585,171.036465 245.317,169.693465 256.344,168.350465 C266.413,167.123465 272.426,166.449465 292.255,164.324465 C296.462,163.873465 296.968,164.118465 303.255,169.651465 C306.879,172.842465 315.019,179.793465 321.344,185.100465 C327.669,190.407465 338.919,199.950465 346.344,206.309465 C353.769,212.667465 363.669,221.104465 368.344,225.057465 C384.185,238.453465 388.621,243.001465 394.542,251.912465 C397.791,256.803465 400.766,260.999465 401.152,261.238465 C401.539,261.477465 404.103,261.310465 406.85,260.865465 C409.596,260.421465 415.894,259.528465 420.844,258.881465 C425.794,258.233465 433.894,257.088465 438.844,256.336465 C443.794,255.584465 451.444,254.478465 455.844,253.878465 C460.244,253.279465 466.8,252.327465 470.412,251.764465 C474.024,251.201465 478.591,250.591465 480.56,250.408465 C482.53,250.225465 487.224,249.591465 490.993,249.001465 C494.761,248.410465 501.444,247.363465 505.844,246.676465 C510.244,245.988465 514.163,245.516465 514.554,245.628465 C514.944,245.739465 518.769,245.204465 523.054,244.439465 C527.338,243.674465 535.119,242.520465 540.344,241.875465 C545.569,241.230465 552.094,240.265465 554.844,239.730465 C565.996,237.560465 587.887,235.877465 605.344,235.846465 C615.519,235.827465 638.919,235.158465 657.344,234.357465 C675.769,233.556465 698.944,232.890465 708.844,232.877465 C724.166,232.857465 752.387,230.820465 757.344,229.377465 C758.169,229.137465 762.161,228.689465 766.216,228.382465 C770.271,228.075465 773.902,227.630465 774.286,227.393465 C774.67,227.156465 779.794,226.472465 785.673,225.874465 C791.552,225.276465 796.975,224.552465 797.724,224.265465 C799.517,223.577465 800.8,226.957465 799.136,227.985465 C798.435,228.419465 795.382,229.034465 792.353,229.353465 C789.323,229.671465 783.694,230.578465 779.844,231.367465 C772.784,232.815465 773.863,232.736465 789.344,230.672465 C794.019,230.049465 799.015,229.498465 800.445,229.448465 L803.047,229.357465 L799.56,222.857465 C797.642,219.282465 795.291,215.232465 794.336,213.857465 C793.381,212.482465 791.267,208.882465 789.638,205.857465 C788.01,202.832465 785.647,198.557465 784.387,196.357465 C772.22,175.099465 762.72,158.526465 757.448,149.357465 C752.327,140.452465 749.872,137.309465 744.559,132.857465 C740.949,129.832465 735.661,125.332465 732.807,122.857465 C729.952,120.382465 723.879,115.207465 719.309,111.357465 C714.739,107.507465 708.679,102.332465 705.842,99.8574645 C703.005,97.3824645 696.71,91.9824645 691.853,87.8574645 C674.771,73.3504645 662.846,62.6604645 663.02,62.0124645 C663.118,61.6524645 665.058,60.8894645 667.332,60.3174645 C669.606,59.7454645 671.776,58.8354645 672.155,58.2944645 C672.707,57.5064645 682.01,54.7744645 692.344,52.3644645 C694.906,51.7664645 721.448,44.8334645 729.344,42.6994645 C733.469,41.5844645 739.843,39.8754645 743.509,38.9014645 L750.173,37.1304645 L760.544,45.7444645 C770.781,54.2464645 783.447,64.6524645 797.805,76.3574645 C810.701,86.8714645 820.798,95.2674645 822.344,96.7644645 C823.169,97.5634645 828.038,101.555465 833.164,105.636465 C838.29,109.718465 842.762,113.799465 843.103,114.707465 C843.444,115.614465 845.212,118.698465 847.033,121.559465 C848.854,124.420465 850.344,126.988465 850.344,127.264465 C850.344,127.541465 853.439,132.850465 857.222,139.062465 C868.692,157.896465 893.299,199.575465 893.948,201.268465 C894.284,202.142465 894.938,202.857465 895.403,202.857465 C895.868,202.857465 893.608,198.386465 890.382,192.921465 C886.869,186.972465 885.183,183.285465 886.18,183.732465 C887.095,184.143465 889.553,185.254465 891.643,186.202465 C893.732,187.149465 898.457,189.282465 902.143,190.941465 C905.828,192.600465 910.092,194.537465 911.617,195.246465 L914.39,196.535465 L910.367,198.116465 C908.154,198.985465 906.374,200.070465 906.41,200.527465 C906.506,201.741465 946.489,220.945465 948.823,220.897465 C950.573,220.862465 957.513,223.161465 968.344,227.365465 C970.269,228.112465 977.694,230.804465 984.844,233.347465 C991.994,235.890465 999.419,238.594465 1001.344,239.356465 C1009.981,242.774465 1010.003,242.760465 1006.297,236.218465 C1004.47,232.994465 1002.721,230.132465 1002.41,229.857465 C1002.099,229.582465 1001.2,228.232465 1000.414,226.857465 C992.778,213.508465 990.827,210.311465 990.141,210.024465 C989.702,209.840465 989.344,209.340465 989.344,208.911465 C989.344,208.150465 979.469,191.085465 974.686,183.578465 C973.361,181.500465 971.439,178.350465 970.414,176.578465 C961.684,161.484465 938.153,121.493465 936.022,118.127465 C934.549,115.800465 933.344,113.438465 933.344,112.877465 C933.344,112.316465 932.894,111.857465 932.344,111.857465 C931.794,111.857465 931.344,111.416465 931.344,110.876465 C931.344,110.337465 929.769,107.434465 927.844,104.424465 C925.919,101.415465 924.344,98.7154645 924.344,98.4244645 C924.344,98.1344645 922.819,95.5114645 920.954,92.5964645 C918.955,89.4714645 907.863,78.0784645 893.919,64.8274645 C880.914,52.4694645 860.277,32.8174645 848.059,21.1574645 C835.841,9.49746451 825.169,-0.0185354908 824.344,0.0103984015 C823.519,0.0404645092 821.269,0.422464509 819.344,0.860464509 M896.344,205.215465 C896.344,205.477465 897.201,207.690465 898.248,210.132465 C899.518,213.096465 900.932,214.770465 902.498,215.166465 C904.748,215.734465 904.734,215.677465 902.167,213.777465 C900.694,212.688465 899.197,210.465465 898.84,208.838465 C898.305,206.403465 896.344,203.556465 896.344,205.215465 M905.427,216.250465 C906.75,217.496465 913.657,220.878465 914.058,220.476465 C914.322,220.213465 912.609,219.066465 910.253,217.927465 C906.191,215.964465 904.501,215.377465 905.427,216.250465 M915.344,221.141465 C915.344,221.389465 920.181,223.972465 926.094,226.880465 C932.007,229.789465 937.181,232.350465 937.594,232.572465 C938.007,232.794465 938.344,232.739465 938.344,232.450465 C938.344,232.162465 933.516,229.548465 927.616,226.641465 C914.853,220.355465 915.344,220.575465 915.344,221.141465 M939.902,232.764465 C939.593,233.262465 940.242,233.435465 941.343,233.147465 C943.678,232.536465 943.973,231.857465 941.903,231.857465 C941.11,231.857465 940.21,232.265465 939.902,232.764465 M758.344,234.030465 C755.319,234.531465 749.572,235.437465 745.572,236.044465 C741.573,236.651465 738.497,237.343465 738.736,237.582465 C739.208,238.055465 750.702,236.465465 761.844,234.386465 C769.723,232.916465 766.843,232.623465 758.344,234.030465 M945.551,233.397465 C946.54,234.386465 956.707,237.827465 957.196,237.338465 C957.461,237.074465 957.483,236.857465 957.247,236.857465 C957.01,236.857465 954.353,235.957465 951.344,234.857465 C945.573,232.748465 944.675,232.521465 945.551,233.397465 M726.344,238.578465 C724.969,238.825465 723.452,239.403465 722.973,239.863465 C722.494,240.322465 723.844,240.319465 725.973,239.855465 C728.102,239.391465 730.969,238.813465 732.344,238.570465 C734.492,238.191465 734.421,238.129465 731.844,238.129465 C730.194,238.129465 727.719,238.331465 726.344,238.578465 M964.225,240.462465 C967.735,241.818465 970.783,242.751465 970.999,242.535465 C971.449,242.086465 960.105,237.821465 958.741,237.927465 C958.248,237.965465 960.716,239.106465 964.225,240.462465 M709.844,240.869465 C707.644,241.308465 701.882,242.210465 697.039,242.873465 C692.196,243.537465 688.465,244.312465 688.748,244.594465 C689.272,245.118465 700.226,243.649465 712.844,241.363465 C716.694,240.666465 718.494,240.090465 716.844,240.083465 C715.194,240.077465 712.044,240.430465 709.844,240.869465 M973.344,243.857465 C974.169,244.390465 975.294,244.826465 975.844,244.826465 C976.394,244.826465 976.169,244.390465 975.344,243.857465 C974.519,243.324465 973.394,242.888465 972.844,242.888465 C972.294,242.888465 972.519,243.324465 973.344,243.857465 M674.344,246.030465 C671.319,246.531465 665.572,247.437465 661.572,248.044465 C657.573,248.651465 654.497,249.343465 654.736,249.582465 C655.208,250.055465 666.702,248.465465 677.844,246.386465 C685.723,244.916465 682.843,244.623465 674.344,246.030465 M980.344,246.357465 C981.719,247.143465 983.744,247.782465 984.844,247.778483 C985.944,247.773465 985.044,247.121465 982.844,246.328465 C977.833,244.523465 977.15,244.531465 980.344,246.357465 M1008.454,251.607465 C1007.846,254.769465 1006.937,259.157465 1006.433,261.357465 C1005.929,263.557465 1004.097,271.882465 1002.363,279.857465 C1000.628,287.832465 998.082,299.532465 996.704,305.857465 C995.326,312.182465 993.369,321.182465 992.355,325.857465 C991.34,330.532465 989.785,337.507465 988.898,341.357465 C988.011,345.207465 986.851,350.607465 986.32,353.357465 C984.162,364.540465 983.276,368.404465 982.161,371.487465 C981.238,374.040465 981.338,377.744465 982.639,389.040465 C983.545,396.914465 984.771,408.982465 985.363,415.857465 C985.955,422.732465 986.896,432.632465 987.454,437.857465 C988.012,443.082465 988.495,448.482465 988.526,449.857465 C988.557,451.232465 989.173,457.757465 989.895,464.357465 C990.617,470.957465 991.714,482.432465 992.333,489.857465 C992.951,497.282465 994.096,509.432465 994.878,516.857465 C995.659,524.282465 996.776,535.757465 997.359,542.357465 C997.942,548.957465 998.894,558.945465 999.474,564.553465 C1000.054,570.161465 1000.193,575.293465 999.782,575.957465 C999.307,576.726465 999.456,576.906465 1000.189,576.452465 C1001.01,575.945465 1001.344,577.365465 1001.344,581.356465 C1001.344,584.446465 1001.781,591.110465 1002.315,596.165465 C1004.752,619.247465 1006.344,635.361465 1007.372,647.357465 C1007.984,654.507465 1008.916,664.034465 1009.441,668.527465 C1009.967,673.021465 1010.332,677.071465 1010.252,677.527465 C1010.172,677.984465 1010.255,688.482465 1010.435,700.857465 L1010.762,723.357465 L1011.303,708.357465 L1011.844,693.357465 L1013.669,700.357465 C1014.673,704.207465 1015.697,708.482465 1015.945,709.857465 C1016.193,711.232465 1016.986,714.346465 1017.707,716.778465 C1018.829,720.562465 1019.186,708.048465 1020.186,629.778465 C1020.829,579.496465 1021.875,498.467465 1022.51,449.713465 C1023.416,380.249465 1023.401,358.720465 1022.445,350.213465 C1021.773,344.242465 1020.593,333.957465 1019.823,327.357465 C1019.052,320.757465 1017.929,310.632465 1017.329,304.857465 C1015.827,290.424465 1013.481,269.869465 1012.308,260.857465 C1011.77,256.732465 1011.334,251.670465 1011.337,249.607465 C1011.347,243.961465 1009.703,245.102465 1008.454,251.607465 M986.422981,250.357465 C986.419,251.457465 987.058,253.482465 987.844,254.857465 C989.67,258.051465 989.678,257.368465 987.873,252.357465 C987.08,250.157465 986.428,249.257465 986.422981,250.357465 M639.344,251.030465 C636.319,251.531465 630.572,252.437465 626.572,253.044465 C622.573,253.651465 619.497,254.343465 619.736,254.582465 C620.208,255.055465 631.702,253.465465 642.844,251.386465 C650.723,249.916465 647.843,249.623465 639.344,251.030465 M604.344,256.030465 C601.319,256.531465 595.572,257.437465 591.572,258.044465 C587.573,258.651465 584.497,259.343465 584.736,259.582465 C585.208,260.055465 596.702,258.465465 607.844,256.386465 C615.723,254.916465 612.843,254.623465 604.344,256.030465 M991.546,262.335465 C992.742,264.798465 993.893,266.642465 994.102,266.432465 C994.555,265.980465 990.514,257.857465 989.837,257.857465 C989.58,257.857465 990.349,259.872465 991.546,262.335465 M572.344,260.578465 C570.969,260.825465 569.452,261.403465 568.973,261.863465 C568.494,262.322465 569.844,262.319465 571.973,261.855465 C574.102,261.391465 576.969,260.813465 578.344,260.570465 C580.492,260.191465 580.421,260.129465 577.844,260.129465 C576.194,260.129465 573.719,260.331465 572.344,260.578465 M555.844,262.869465 C553.644,263.308465 547.882,264.210465 543.039,264.873465 C538.196,265.537465 534.465,266.312465 534.748,266.594465 C535.272,267.118465 546.226,265.649465 558.844,263.363465 C562.694,262.666465 564.494,262.090465 562.844,262.083465 C561.194,262.077465 558.044,262.430465 555.844,262.869465 M402.998,264.107465 C406.058,269.060465 411.493,276.857465 411.885,276.857465 C412.362,276.857465 410.291,272.796465 409.335,271.857465 C409.054,271.582465 407.586,269.444465 406.07,267.107465 C404.555,264.770465 403.07,262.857465 402.771,262.857465 C402.471,262.857465 402.573,263.420465 402.998,264.107465 M520.344,268.030465 C517.319,268.531465 511.572,269.437465 507.572,270.044465 C503.573,270.651465 500.497,271.343465 500.736,271.582465 C501.208,272.055465 512.702,270.465465 523.844,268.386465 C531.723,266.916465 528.843,266.623465 520.344,268.030465 M994.844,268.857465 C995.184,269.407465 995.66,269.857465 995.903,269.857465 C996.146,269.857465 996.344,269.407465 996.344,268.857465 C996.344,268.307465 995.867,267.857465 995.285,267.857465 C994.703,267.857465 994.504,268.307465 994.844,268.857465 M997.427,273.440465 C996.782,276.003465 996.441,278.288465 996.671,278.517465 C996.9,278.746465 997.615,276.837465 998.261,274.274465 C998.906,271.711465 999.247,269.426465 999.017,269.197465 C998.788,268.968465 998.073,270.877465 997.427,273.440465 M485.344,273.030465 C482.319,273.531465 476.572,274.437465 472.572,275.044465 C468.573,275.651465 465.497,276.343465 465.736,276.582465 C466.208,277.055465 477.702,275.465465 488.844,273.386465 C496.723,271.916465 493.843,271.623465 485.344,273.030465 M450.344,278.030465 C447.319,278.531465 441.572,279.437465 437.572,280.044465 C433.573,280.651465 430.497,281.343465 430.736,281.582465 C431.208,282.055465 442.702,280.465465 453.844,278.386465 C461.723,276.916465 458.843,276.623465 450.344,278.030465 M413.237,279.439465 C415.12,283.368465 416.754,284.018465 421.994,282.924465 L426.844,281.912465 L421.889,282.393465 C417.42,282.828465 416.703,282.604465 414.586,280.116465 C412.942,278.184465 412.537,277.981465 413.237,279.439465 M994.969,284.982465 C994.135,289.150465 994.943,289.958465 995.844,285.857465 C996.224,284.128465 996.326,282.506465 996.071,282.251465 C995.816,281.996465 995.32,283.225465 994.969,284.982465 M992.57,296.300465 C991.896,298.822465 991.374,301.667465 991.41,302.621465 C991.446,303.576465 992.132,301.915465 992.934,298.931465 C993.737,295.946465 994.259,293.102465 994.095,292.610465 C993.931,292.118465 993.245,293.779465 992.57,296.300465 M989.844,307.857465 C989.464,309.586465 989.379,311.225465 989.654,311.500465 C989.929,311.775465 990.464,310.586465 990.844,308.857465 C991.224,307.128465 991.309,305.489465 991.034,305.214465 C990.759,304.939465 990.224,306.128465 989.844,307.857465 M987.424,319.601465 C986.741,322.767465 985.706,327.282465 985.125,329.636465 C984.544,331.989465 984.283,334.129465 984.545,334.391465 C984.807,334.654465 985.581,332.278465 986.264,329.113465 C986.947,325.947465 987.982,321.432465 988.563,319.078465 C989.144,316.725465 989.405,314.585465 989.143,314.323465 C988.881,314.060465 988.107,316.436465 987.424,319.601465 M331.483,321.357465 C332.732,324.380465 335.939,330.429465 336.531,330.877465 C336.91,331.164465 337.683,332.618465 338.25,334.109465 C339.096,336.335465 338.973,336.979465 337.562,337.704465 C336.617,338.189465 335.169,338.396465 334.344,338.164465 C333.356,337.885465 333.44,338.118465 334.592,338.847465 C335.947,339.705465 336.863,339.559465 338.669,338.196465 L340.999,336.439465 L336.56,328.898465 C332.392,321.819465 330.533,319.057465 331.483,321.357465 M982.393,343.082465 C981.714,346.533465 980.75,350.662465 980.251,352.256465 C979.752,353.851465 979.383,355.876465 979.43,356.756465 C979.477,357.637465 979.933,357.007465 980.442,355.357465 C981.965,350.423465 984.5,337.680465 984.048,337.228465 C983.817,336.997465 983.072,339.631465 982.393,343.082465 M328.765,344.425465 C326.961,349.148465 323.244,351.857465 318.567,351.857465 C317.555,351.857465 315.941,352.431465 314.981,353.133465 C312.478,354.963465 313.88,357.883465 317.201,357.757465 L319.844,357.658465 L317.418,356.980465 C313.938,356.007465 313.725,354.033465 317.023,353.325465 C324.897,351.633465 326.81,350.398465 329.16,345.492465 C330.434,342.832465 331.269,340.449465 331.016,340.196465 C330.763,339.943465 329.75,341.846465 328.765,344.425465 M329.094,359.561465 C335.33,361.027465 335.344,361.039465 335.426,364.694465 C335.565,370.927465 338.051,396.536465 338.208,393.357465 C338.29,391.707465 337.836,383.543465 337.2,375.215465 L336.043,360.073465 L330.527,358.965465 C322.674,357.388465 321.655,357.811465 329.094,359.561465 M977.915,363.428465 C977.548,364.894465 977.44,366.286465 977.675,366.522465 C977.911,366.757465 978.405,365.751465 978.773,364.286465 C979.14,362.820465 979.248,361.428465 979.013,361.192465 C978.777,360.957465 978.283,361.963465 977.915,363.428465 M976.48,370.907465 C976.405,372.310465 975.831,373.970465 975.204,374.597465 C974.35,375.451465 974.384,378.524465 975.341,386.827465 C976.043,392.926465 976.849,397.686465 977.131,397.404465 C977.413,397.122465 977.061,392.170465 976.349,386.400465 C975.329,378.133465 975.314,375.598465 976.276,374.439465 C976.948,373.629465 977.299,371.930465 977.057,370.662465 C976.637,368.467465 976.61,368.479465 976.48,370.907465 M977.432,409.049465 C977.874,411.969465 978.431,415.707465 978.668,417.357465 C978.906,419.007465 978.903,416.982465 978.663,412.857465 C978.422,408.732465 977.866,404.994465 977.427,404.549465 C976.988,404.105465 976.99,406.130465 977.432,409.049465 M338.533,412.907465 C338.425,416.655465 338.822,419.935465 339.461,420.574465 C340.284,421.397465 340.284,423.381465 339.461,428.106465 C338.847,431.634465 338.39,435.609465 338.446,436.939465 C338.502,438.269465 339.19,435.532465 339.975,430.857465 C340.973,424.919465 341.098,421.754465 340.39,420.357465 C339.833,419.257465 339.23,415.657465 339.05,412.357465 L338.722,406.357465 L338.533,412.907465 M979.905,432.357465 C981.64,454.195465 982.498,462.964465 983.329,467.357465 L984.275,472.357465 L983.748,466.357465 C983.459,463.057465 982.792,455.182465 982.266,448.857465 C981.74,442.532465 980.886,434.882465 980.369,431.857465 L979.429,426.357465 L979.905,432.357465 M338.014,444.607465 C337.592,445.313465 337.071,449.247465 334.238,473.141465 C333.6,478.521465 333.29,483.136465 333.549,483.395465 C333.807,483.654465 334.555,479.251465 335.211,473.611465 C335.866,467.971465 336.97,458.970465 337.665,453.607465 C338.897,444.096465 338.937,443.062465 338.014,444.607465 M984.94,485.357465 C985.229,488.657465 985.896,496.532465 986.422,502.857465 C986.948,509.182465 987.802,516.832465 988.319,519.857465 L989.259,525.357465 L988.783,519.357465 C987.048,497.519465 986.19,488.750465 985.359,484.357465 L984.413,479.357465 L984.94,485.357465 M331.98,494.493465 C331.627,497.073465 331.53,499.377465 331.766,499.612465 C332.001,499.848465 332.507,497.953465 332.889,495.402465 C333.272,492.852465 333.369,490.548465 333.104,490.284465 C332.84,490.019465 332.334,491.914465 331.98,494.493465 M329.788,502.143465 C329.009,504.171465 329.12,630.015465 330.031,778.357465 L330.865,914.357465 L330.622,778.857465 C330.488,704.332465 330.147,626.482465 329.864,605.857465 C329.58,585.232465 329.685,553.169465 330.096,534.606465 C330.508,516.043465 330.717,500.856465 330.563,500.856465 C330.408,500.856465 330.059,501.436465 329.788,502.143465 M989.885,536.857465 C990.146,539.882465 990.825,547.757465 991.394,554.357465 C991.963,560.957465 992.841,568.832465 993.344,571.857465 L994.259,577.357465 L993.809,571.357465 C992.544,554.512465 991.193,540.838465 990.351,536.357465 L989.411,531.357465 L989.885,536.857465 M994.428,588.049465 C995.906,597.860465 996.101,598.389465 995.648,591.357465 C995.4,587.507465 994.844,583.994465 994.413,583.549465 C993.982,583.105465 993.988,585.130465 994.428,588.049465 M996.515,608.357465 C996.482,610.007465 997.057,615.632465 997.793,620.857465 C998.529,626.082465 999.14,628.557465 999.15,626.357465 C999.161,624.157465 998.585,618.532465 997.872,613.857465 C997.159,609.182465 996.548,606.707465 996.515,608.357465 M999.484,638.442465 C1000.072,640.595465 1000.784,642.582465 1001.065,642.857465 C1001.947,643.717465 1000.18,636.407465 999.274,635.442465 C998.801,634.939465 998.895,636.289465 999.484,638.442465 M1001.373,646.440465 C1001.389,646.944465 1002.276,650.507465 1003.344,654.357465 C1004.412,658.207465 1005.299,661.770465 1005.315,662.274465 C1005.331,662.778465 1005.587,662.948465 1005.883,662.651465 C1006.18,662.355465 1005.474,658.574465 1004.315,654.250465 C1002.375,647.010465 1001.301,644.158465 1001.373,646.440465 M1006.485,665.857465 C1006.485,666.682465 1006.871,668.257465 1007.344,669.357465 C1007.886,670.618465 1008.203,670.802465 1008.203,669.857465 C1008.203,669.032465 1007.817,667.457465 1007.344,666.357465 C1006.802,665.096465 1006.485,664.912465 1006.485,665.857465 M1008.423,674.440465 C1008.471,675.605465 1008.708,675.842465 1009.027,675.045465 C1009.316,674.323465 1009.28,673.460465 1008.948,673.128465 C1008.616,672.796465 1008.38,673.386465 1008.423,674.440465"/><path fill-opacity=".297" d="M817.844,1.40146451 C812.708,2.74746451 801.816,4.92046451 790.344,6.88746451 C786.769,7.50046451 780.919,8.61246451 777.344,9.35746451 C773.769,10.1024645 767.919,11.2294645 764.344,11.8604645 C760.769,12.4924645 755.819,13.3904645 753.344,13.8574645 C750.869,14.3244645 746.144,15.1914645 742.844,15.7834645 C736.71,16.8854645 717.17,20.6134645 702.844,23.4154645 C696.07,24.7404645 687.209,26.7954645 666.344,31.8824645 C664.419,32.3514645 659.019,33.8384645 654.344,35.1864645 C641.102,39.0034645 616.22,45.9344645 612.344,46.8864645 C605.955,48.4544645 587.097,53.6164645 566.844,59.3424645 C555.844,62.4514645 544.369,65.6484645 541.344,66.4464645 C538.319,67.2434645 533.594,68.5504645 530.844,69.3494645 C522.91,71.6554645 491.008,80.6244645 473.844,85.3744645 C468.344,86.8964645 460.244,89.1824645 455.844,90.4554645 C451.444,91.7284645 444.244,93.7454645 439.844,94.9394645 C429.84,97.6534645 420.467,100.289465 413.344,102.392465 C410.319,103.285465 406.269,104.407465 404.344,104.885465 C402.419,105.363465 398.594,106.422465 395.844,107.238465 C393.094,108.054465 386.794,109.840465 381.844,111.207465 C376.894,112.574465 368.569,114.903465 363.344,116.383465 C349.232,120.379465 337.702,123.610465 329.844,125.771465 C325.994,126.830465 316.094,129.590465 307.844,131.906465 C289.345,137.099465 281.979,139.152465 272.344,141.796465 C268.219,142.929465 262.594,144.528465 259.844,145.350465 C242.917,150.409465 214.623,158.417465 210.344,159.359465 C207.901,159.897465 203.76,161.725465 204.844,161.788465 C209.607,162.062465 234.296,157.014465 243.748,153.833465 C245.451,153.260465 255.169,152.434465 265.344,151.997465 L283.844,151.202465 L287.039,153.950465 C288.796,155.462465 291.046,156.548465 292.039,156.364465 C297.331,155.381465 311.43,152.638465 315.344,151.829465 C317.819,151.318465 334.019,150.408465 351.344,149.809465 C368.669,149.209465 385.094,148.253465 387.844,147.683465 C397.015,145.784465 409.768,143.039465 416.844,141.441465 C420.694,140.572465 426.994,139.147465 430.844,138.275465 C434.694,137.404465 441.669,135.865465 446.344,134.856465 C454.322,133.134465 458.497,132.203465 475.844,128.275465 C479.694,127.404465 486.669,125.874465 491.344,124.876465 C496.019,123.878465 503.219,122.292465 507.344,121.352465 C511.469,120.411465 516.644,119.272465 518.844,118.821465 C521.044,118.369465 532.969,115.686465 545.344,112.857465 C557.719,110.028465 569.644,107.345465 571.844,106.893465 C574.044,106.442465 579.219,105.303465 583.344,104.362465 C587.469,103.422465 594.669,101.835465 599.344,100.837465 C607.304,99.1374645 611.149,98.2824645 628.844,94.2754645 C632.694,93.4044645 639.669,91.8654645 644.344,90.8564645 C653.262,88.9314645 662.141,86.9434645 673.844,84.2494645 C677.694,83.3634645 681.661,82.5914645 682.66,82.5334645 C684.131,82.4484645 683.942,82.0424645 681.667,80.3934645 C680.123,79.2734645 674.533,74.5324645 669.245,69.8574645 C663.957,65.1824645 656.849,58.9534645 653.45,56.0154645 L647.269,50.6734645 L631.385,50.5154645 C622.649,50.4284645 616.029,50.0684645 616.673,49.7154645 C617.317,49.3624645 623.244,47.6504645 629.844,45.9114645 C636.444,44.1724645 643.194,42.3364645 644.844,41.8314645 C650.436,40.1194645 657.803,38.0794645 671.844,34.3554645 C679.544,32.3134645 688.319,29.8244645 691.344,28.8234645 C695.097,27.5814645 703.062,26.6104645 716.413,25.7654645 L735.983,24.5274645 L745.413,31.9274645 C750.6,35.9974645 756.419,40.7604645 758.344,42.5114645 C765.924,49.4064645 767.017,49.9524645 774.074,50.3844645 C818.104,53.0794645 820.886,53.4214645 827.62,56.9704645 C829.02,57.7084645 832.194,56.0574645 842.62,49.1664645 C849.893,44.3594645 857.31,39.3424645 859.102,38.0174645 L862.36,35.6074645 L844.102,17.7594645 C834.06,7.94246451 825.169,-0.0495354908 824.344,0.000231171126 C823.519,0.0494645092 820.594,0.680464509 817.844,1.40146451 M200.157,162.540465 C200.878,162.829465 201.741,162.793465 202.073,162.461465 C202.405,162.129465 201.815,161.893465 200.761,161.936465 C199.596,161.984465 199.359,162.221465 200.157,162.540465 M181.844,167.342465 C177.444,168.592465 168.669,171.021465 162.344,172.739465 C142.91,178.019465 134.034,180.760465 100.344,191.883465 C94.019,193.971465 81.869,197.944465 73.344,200.712465 C59.519,205.200465 34.215,213.965465 27.25,216.678465 C24.41,217.785465 23.809,219.058465 19.852,232.357465 C18.379,237.307465 16.121,244.732465 14.835,248.857465 C13.548,252.982465 10.866,261.757465 8.874,268.357465 C6.882,274.957465 4.656,282.157465 3.928,284.357465 C3.199,286.557465 2.004,290.326465 1.272,292.732465 C0.16,296.387465 0.234,324.701465 1.72,464.732465 C2.698,556.926465 3.408,637.516465 3.297,643.822465 L3.095,655.287465 L7.97,659.617465 C10.651,661.998465 16.894,667.377465 21.844,671.570465 C26.794,675.763465 31.294,679.691465 31.844,680.300465 C32.984,681.562465 49.269,695.728465 62.372,706.857465 C67.229,710.982465 76.67,719.082465 83.352,724.857465 C90.034,730.632465 98.053,737.551465 101.173,740.232465 C104.292,742.913465 109.769,747.690465 113.344,750.847465 C116.919,754.003465 122.769,758.986465 126.344,761.920465 C129.919,764.854465 133.519,767.958465 134.344,768.817465 C135.169,769.677465 138.657,772.782465 142.094,775.718465 L148.344,781.055465 L148.344,694.602465 L148.344,608.148465 L153.094,606.632465 L157.844,605.117465 L158.344,517.841465 L158.844,430.565465 L162.344,433.414465 C164.269,434.981465 167.957,438.192465 170.54,440.549465 C173.871,443.590465 175.749,444.639465 177.003,444.158465 C177.975,443.785465 184.116,440.189465 190.651,436.168465 C197.185,432.147465 202.746,428.857465 203.007,428.857465 C203.269,428.857465 205.365,427.584465 207.664,426.028465 C209.963,424.473465 215.966,420.840465 221.004,417.956465 C230.023,412.793465 230.21,412.737465 233.204,414.285465 C237.672,416.595465 238.801,416.276465 241.711,411.878465 C243.159,409.690465 244.344,407.724465 244.344,407.510465 C244.344,407.295465 239.731,402.965465 234.094,397.887465 C228.456,392.809465 221.792,386.774465 219.283,384.477465 C216.775,382.179465 213.507,379.344465 212.021,378.175465 C210.177,376.725465 207.563,371.814465 203.784,362.704465 C200.332,354.380465 197.023,348.040465 194.992,345.857465 C193.201,343.932465 190.322,338.982465 188.593,334.857465 C186.864,330.732465 183.588,322.857465 181.312,317.357465 C179.037,311.857465 176.582,306.007465 175.858,304.357465 C170.067,291.163465 155.021,253.947465 154.819,252.318465 C154.68,251.197465 150.652,242.461465 145.869,232.906465 C138.417,218.023465 137.399,215.405465 138.766,214.641465 C141.064,213.354465 148.648,202.828465 147.851,202.029465 C147.482,201.660465 145.53,200.880465 143.512,200.297465 C139.959,199.270465 140.129,199.199465 148.912,198.047465 C153.899,197.392465 159.924,196.857465 162.3,196.857465 C166.871,196.857465 180.046,195.737465 205.057,193.223465 C213.424,192.382465 220.795,192.018465 221.437,192.414465 C222.091,192.819465 222.437,192.657465 222.224,192.046465 C221.616,190.302465 191.968,164.813465 190.722,164.962805 C190.239,165.021465 186.244,166.092465 181.844,167.342465"/></g></svg>