<svg xmlns="http://www.w3.org/2000/svg" width="990.913" height="962.982" viewBox="0 0 990.913 962.982"><g fill="#ABABAB" fill-rule="evenodd"><path fill-opacity=".141" d="M503.698,15.7660075 C494.248,30.5130075 493.012,31.9890075 483.757,39.5640075 C478.33,44.0070075 471.967,48.3330075 469.615,49.1780075 L465.34,50.7160075 L462.176,41.8730075 C460.437,37.0090075 458.7,33.2240075 458.316,33.4610075 C457.933,33.6980075 456.798,35.7130075 455.794,37.9400075 C454.79,40.1660075 453.589,41.9880075 453.126,41.9880075 C452.663,41.9880075 452.564,34.4510075 452.906,25.2380075 C453.322,14.0310075 453.196,8.81900749 452.524,9.48800749 C451.972,10.0380075 445.803,18.2490075 438.814,27.7360075 C428.097,42.2830075 425.425,46.6660075 421.744,55.7360075 L417.379,66.4880075 L417.075,40.4880075 L416.772,14.4880075 L400.522,43.5670075 C391.585,59.5610075 384.272,73.0720075 384.272,73.5920075 C384.272,74.1120075 375.181,76.7920075 364.071,79.5490075 L343.869,84.5600075 L357.071,94.9810075 C364.331,100.713007 370.272,105.664007 370.272,105.983007 C370.272,106.302007 368.135,108.640007 365.522,111.178007 C361.072,115.500007 359.762,116.098007 344.772,120.640007 L328.772,125.488007 L338.272,126.652007 C343.497,127.293007 348.796,127.855007 350.048,127.902007 C352.115,127.980007 351.726,128.794007 345.819,136.738007 C342.24,141.551007 319.166,168.672007 294.542,197.007007 L249.772,248.527007 L213.796,270.489007 L177.82,292.451007 L141.296,324.539007 C91.318,368.446007 82.612,377.819007 57.281,414.988007 C46.598,430.663007 33.226,449.415007 27.565,456.660007 C21.904,463.904007 17.272,470.573007 17.272,471.479007 C17.272,472.385007 13.386,478.765007 8.636,485.657007 L0,498.187007 L0.654,523.838007 L1.307,549.488007 L10.54,589.988007 C19.496,629.276007 19.787,630.294007 20.272,623.988007 L20.772,617.488007 L25.194,633.233007 C27.626,641.893007 29.77,648.823007 29.959,648.634007 C30.148,648.445007 28.046,629.537007 25.287,606.617007 C22.529,583.696007 20.263,563.266007 20.251,561.215007 C20.218,555.269007 26.601,509.910007 27.355,510.738007 C27.73,511.151007 33.376,525.779007 39.902,543.246007 C46.427,560.713007 51.885,574.649007 52.03,574.215007 C52.6,572.504007 44.198,503.001007 42.513,495.488007 L40.718,487.488007 L48.168,475.604007 C55.545,463.835007 55.79,463.576007 73.206,449.104007 L90.793,434.488007 L97.226,420.738007 C100.764,413.176007 103.973,406.988007 104.357,406.988007 C104.741,406.988007 105.352,408.226007 105.715,409.738007 C106.077,411.250007 109.839,419.903007 114.073,428.967007 L121.772,445.445007 L122.272,428.560007 C122.837,409.488007 121.44,387.661007 119.429,384.131007 C118.691,382.834007 118.466,381.423007 118.929,380.995007 C119.393,380.567007 141.147,366.558007 167.272,349.864007 C214.233,319.855007 215.101,319.241007 243.772,295.658007 C268.642,275.201007 277.436,267.153007 305.522,239.152007 C323.534,221.193007 338.272,206.846007 338.272,207.269007 C338.272,207.692007 336.639,211.280007 334.644,215.242007 L331.016,222.446007 L331.71,259.467007 L332.404,296.488007 L342.86,341.488007 C348.611,366.238007 353.518,386.938007 353.766,387.488007 C354.013,388.038007 353.941,368.008007 353.606,342.977007 C352.88,288.822007 355.161,230.574007 358.363,221.488007 L360.126,216.488007 L360.317,223.488007 C360.423,227.338007 360.501,230.713007 360.49,230.988007 C360.48,231.263007 360.15,237.195007 359.756,244.171007 L359.039,256.854007 L362.59,257.520007 C368.198,258.572007 369.593,260.948007 371.282,272.320007 L372.792,282.488007 L382.33,284.913007 L391.869,287.338007 L396.165,298.172007 C400.272,308.530007 400.584,308.996007 403.267,308.792007 C404.81,308.674007 406.801,309.182007 407.691,309.921007 C409.06,311.057007 409.596,311.005007 411.167,309.583007 C412.871,308.041007 413.076,308.036007 413.648,309.527007 C413.991,310.420007 414.272,312.690007 414.272,314.570007 C414.272,318.593007 414.471,318.646007 419.017,315.837007 L422.497,313.686007 L421.92,316.587007 C421.602,318.182007 418.994,338.613007 416.124,361.988007 L410.906,404.488007 L396.589,419.608007 L382.272,434.727007 L382.264,449.108007 L382.255,463.488007 L372.61,475.988007 C367.305,482.863007 359.322,493.206007 354.871,498.972007 C345.783,510.745007 344.985,510.637007 362.272,499.977007 C366.397,497.433007 370.333,495.019007 371.019,494.613007 C371.96,494.055007 372.049,494.444007 371.381,496.202007 C370.894,497.482007 370.167,503.350007 369.766,509.241007 L369.036,519.952007 L379.159,537.091007 L389.283,554.229007 L384.583,569.172007 L379.883,584.114007 L381.634,598.301007 C388.328,652.537007 389.251,665.252007 387.427,678.098007 L386.772,682.707007 L363.827,676.151007 L340.881,669.596007 L316.696,682.027007 L292.51,694.459007 L281.785,690.992007 L271.059,687.526007 L249.916,692.923007 C238.287,695.891007 227.939,698.609007 226.921,698.963007 C225.318,699.521007 309.535,721.988007 313.227,721.988007 C313.918,721.988007 321.603,715.463007 330.306,707.488007 C339.008,699.513007 346.571,692.988007 347.112,692.988007 C347.652,692.988007 353.422,695.277007 359.933,698.075007 C369.803,702.315007 372.454,703.070007 375.871,702.614007 L379.97,702.068007 L376.016,709.612007 L372.063,717.157007 L371.597,735.322007 L371.131,753.488007 L375.504,760.988007 L379.877,768.488007 L373.574,781.825007 C368.054,793.507007 367.272,795.895007 367.272,801.070007 L367.272,806.978007 L352.385,826.870007 L337.498,846.762007 L336.785,853.860007 C335.383,867.815007 338.67,878.985007 345.459,883.345007 C346.731,884.161007 352.947,885.844007 359.272,887.085007 C366.823,888.565007 371.18,889.908007 371.96,890.995007 C372.68,891.998007 376.611,893.376007 381.94,894.494007 C390.468,896.284007 391.178,896.285007 405.564,894.518007 L420.396,892.697007 L431.64,886.632007 L442.883,880.567007 L450.828,866.543007 C455.197,858.830007 460.909,847.588007 463.522,841.562007 L468.272,830.606007 L468.272,805.766007 L468.272,780.927007 L464.948,778.008007 C461.9,775.333007 461.672,774.733007 462.198,770.797007 C462.646,767.447007 461.981,764.198007 459.169,755.996007 C457.187,750.217007 453.844,739.064007 451.741,731.213007 L447.916,716.939007 L450.679,699.213007 C452.198,689.464007 454.641,673.163007 456.107,662.988007 L458.772,644.488007 L453.62,619.488007 C450.786,605.738007 446.399,586.003007 443.87,575.633007 C439.486,557.653007 439.272,556.105007 439.272,542.293007 L439.272,527.810007 L433.546,509.794007 L427.819,491.779007 L431.2,478.633007 C433.06,471.403007 435.466,462.216007 436.547,458.216007 L438.514,450.944007 L457.203,436.567007 C472.97,424.439007 478.259,421.005007 491.034,414.607007 C499.362,410.436007 506.356,407.353007 506.577,407.756007 C506.797,408.159007 509.62,420.166007 512.849,434.439007 L518.72,460.391007 L521.276,447.469007 L523.831,434.547007 L533.132,449.866007 C542.43,465.180007 542.432,465.186007 541.764,470.336007 C541.396,473.170007 536.86,486.657007 531.684,500.309007 L522.272,525.129007 L522.287,539.309007 L522.302,553.488007 L529.577,575.988007 L536.852,598.488007 L548.741,601.952007 L560.629,605.416007 L564.619,600.806007 L568.609,596.196007 L585.69,604.658007 C610.44,616.920007 631.677,628.617007 640.272,634.721007 C647.63,639.946007 647.829,640.202007 650.795,648.267007 L653.819,656.488007 L648.442,668.488007 C645.484,675.088007 642.705,680.872007 642.265,681.342007 C641.825,681.811007 634.224,679.798007 625.373,676.867007 L609.282,671.538007 L595.527,676.095007 L581.772,680.653007 L599.487,686.537007 L617.202,692.422007 L588.987,697.680007 C573.469,700.572007 560.097,703.074007 559.272,703.239007 C558.447,703.404007 571.393,705.074007 588.04,706.951007 C616.881,710.202007 618.607,710.291007 624.64,708.848007 L630.971,707.333007 L626.663,716.910007 L622.356,726.488007 L618.405,726.791007 C614.554,727.086007 614.311,727.338007 608.739,736.791007 C605.595,742.124007 600.782,749.779007 598.044,753.801007 C595.305,757.823007 593.326,761.375007 593.644,761.694007 C593.963,762.012007 603.797,762.373007 615.498,762.497007 C627.199,762.620007 640.158,763.301007 644.295,764.011007 C651.251,765.204007 652.308,765.143007 658.295,763.204007 C661.858,762.050007 668.756,760.797007 673.625,760.420007 C682.274,759.750007 682.701,759.594007 692.219,753.611007 L701.96,747.488007 L703.19,737.988007 C704.99,724.084007 705.026,723.988007 708.38,723.988007 C709.971,723.988007 711.272,723.775007 711.272,723.515007 C711.272,723.254007 710.313,721.067007 709.141,718.654007 C707.323,714.913007 707.114,713.290007 707.72,707.628007 L708.431,700.988007 L727.711,700.988007 L746.991,700.988007 L747.938,693.988007 L748.886,686.988007 L730.079,686.988007 L711.272,686.988007 L711.272,683.825007 C711.272,678.212007 725.644,646.453007 736.607,627.840007 C746.513,611.020007 746.917,610.101007 748.735,600.187007 C749.77,594.547007 750.942,590.283007 751.339,590.710007 C751.736,591.138007 753.571,601.388007 755.417,613.488007 C758.72,635.146007 758.76,635.814007 758.014,656.488007 C757.597,668.038007 757.372,680.381007 757.514,683.917007 L757.772,690.347007 L764.958,665.417007 L772.144,640.488007 L773.714,617.488007 C774.578,604.838007 775.576,589.184007 775.933,582.702007 C776.551,571.461007 777.658,567.245007 778.691,572.197007 C778.954,573.457007 780.116,582.813007 781.272,592.988007 C782.429,603.163007 785.504,622.033007 788.106,634.921007 L792.838,658.353007 L796.805,631.421007 L800.772,604.488007 L798.702,592.488007 C797.277,584.225007 793.919,572.359007 787.919,554.388007 L779.205,528.287007 L779.307,504.654007 L779.409,481.022007 L769.517,463.087007 L759.625,445.152007 L751.378,395.320007 C743.967,350.544007 742.07,341.176007 732.681,302.988007 C726.933,279.613007 720.557,254.863007 718.513,247.988007 L714.795,235.488007 L679.283,201.203007 C659.752,182.345007 633.976,157.370007 622.004,145.703007 L600.236,124.488007 L603.699,111.016007 C605.604,103.607007 607.049,97.4320075 606.911,97.2940075 C606.773,97.1560075 603.773,99.9550075 600.245,103.515007 C596.717,107.075007 593.511,109.988007 593.12,109.988007 C592.73,109.988007 592.267,109.200007 592.092,108.238007 C591.916,107.275007 586.372,96.9560075 579.772,85.3060075 C569.569,67.2960075 567.36,64.0270075 565.022,63.4760075 L562.273,62.8290075 L562.916,55.9090075 C563.27,52.1020075 563.34,48.9880075 563.072,48.9880075 C562.804,48.9880075 561.052,51.2370075 559.179,53.9860075 C557.305,56.7350075 555.284,58.9850075 554.687,58.9860075 C554.091,58.9870075 549.216,57.2030075 543.854,55.0220075 C535.138,51.4750075 533.059,50.0890075 524.213,41.9330075 L514.32,32.8120075 L514.046,16.4280075 L513.772,0.0440074906 L503.698,15.7660075 M646.264,272.340007 L646.255,296.488007 L641.467,310.988007 C638.046,321.350007 633.839,330.977007 626.726,344.722007 L616.772,363.957007 L612.272,363.988007 C609.797,364.005007 607.217,364.371007 606.539,364.802007 C605.861,365.232007 600.754,379.963007 595.189,397.536007 C587.835,420.762007 584.411,433.312007 582.652,443.488007 C579.848,459.702007 578.792,481.818007 579.978,499.488007 C580.606,508.840007 580.428,513.651007 579.174,521.289007 C577.789,529.728007 577.766,531.012007 579.012,530.534007 C584.188,528.548007 585.932,528.973007 610.094,538.100007 L634.84,547.449007 L641.248,562.894007 C647.404,577.734007 648.023,578.765007 657.024,589.177007 C668.103,601.993007 675.836,608.285007 679.923,607.811007 C683.141,607.437007 682.903,608.219007 686.877,584.988007 C688.833,573.555007 692.41,559.911007 700.511,532.988007 C706.551,512.913007 714.034,485.470007 717.139,472.004007 L722.785,447.520007 L713.067,393.004007 C703.889,341.511007 702.798,336.473007 693.398,302.158007 C687.924,282.177007 683.281,265.664007 683.08,265.463007 C682.879,265.261007 674.515,261.293007 664.493,256.645007 L646.272,248.193007 L646.264,272.340007 M529.508,395.418007 C528.263,395.999007 527.444,396.993007 527.687,397.627007 C527.93,398.262007 529.83,405.108007 531.909,412.843007 C533.988,420.577007 535.819,426.775007 535.978,426.616007 C536.481,426.113007 532.998,395.514007 532.371,394.925007 C532.042,394.615007 530.753,394.837007 529.508,395.418007 M716.93,553.125007 C713.219,565.975007 707.023,584.430007 703.162,594.137007 L696.141,611.785007 L699.309,617.399007 C702.604,623.238007 716.119,636.550007 717.415,635.233007 C717.818,634.823007 721.537,626.892007 725.681,617.609007 L733.215,600.730007 L733.3,575.609007 L733.386,550.488007 L728.532,540.125007 L723.678,529.761007 L716.93,553.125007 M116.802,740.635007 L116.105,745.282007 L105.939,744.650007 C100.347,744.303007 90.872,743.715007 84.883,743.343007 L73.995,742.667007 L79.164,750.328007 L84.333,757.988007 L89.052,757.997007 L93.772,758.006007 L87.272,760.918007 C81.482,763.512007 77.715,764.173007 52.772,766.974007 C37.372,768.703007 24.386,770.217007 23.914,770.339007 C23.442,770.460007 31.709,773.217007 42.284,776.465007 L61.511,782.371007 L75.642,780.545007 C101.031,777.265007 98.578,777.123007 100.778,782.000007 L102.684,786.228007 L123.416,785.507007 L144.147,784.785007 L171.087,773.086007 L198.027,761.388007 L194.851,757.922007 C191.76,754.550007 191.258,754.389007 176.223,751.935007 L160.772,749.414007 L167.434,744.951007 L174.096,740.488007 L149.934,738.289007 C136.645,737.079007 123.911,736.067007 121.636,736.039007 L117.499,735.988007 L116.802,740.635007 M868.356,766.282007 L846.939,786.475007 L864.356,788.686007 C886.814,791.536007 888.073,791.533007 891.217,788.624007 C893.641,786.382007 895.989,786.036007 936.866,781.904007 L979.96,777.548007 L954.965,767.284007 C941.218,761.638007 929.793,756.843007 929.577,756.626007 C929.361,756.410007 933.028,754.694007 937.727,752.814007 L946.27,749.396007 L921.021,747.671007 C907.134,746.723007 894.422,745.979007 892.772,746.018007 C890.285,746.077007 886.11,749.542007 868.356,766.282007 M907.144,770.654007 C905.892,772.175007 906.122,772.263007 909.772,771.665007 C911.972,771.305007 914.897,770.952007 916.272,770.881007 C918.595,770.761007 918.559,770.697007 915.772,769.988007 C910.819,768.728007 908.59,768.900007 907.144,770.654007 M76.809,826.940007 C72.663,832.413007 69.272,837.084007 69.272,837.318007 C69.272,837.553007 70.611,838.300007 72.248,838.978007 C75.156,840.183007 74.521,840.552007 44.078,855.349007 L12.933,870.488007 L26.853,872.171007 C34.508,873.096007 47.785,874.643007 56.356,875.607007 L71.939,877.361007 L88.547,864.675007 C97.682,857.697007 105.519,851.985007 105.964,851.982007 C106.408,851.979007 109.069,852.987007 111.877,854.222007 L116.982,856.467007 L100.946,868.477007 C92.127,875.083007 85.554,880.595007 86.341,880.727007 C96.568,882.441007 127.661,886.988007 129.158,886.988007 C130.418,886.988007 133.937,883.687007 138.853,877.893007 C146.154,869.287007 146.736,868.832007 149.671,869.442007 C152.554,870.040007 153.273,869.541007 159.889,862.344007 L167.005,854.602007 L126.434,835.795007 C104.12,825.451007 85.521,816.988007 85.104,816.988007 C84.687,816.988007 80.954,821.466007 76.809,826.940007 M831.776,853.263007 L796.78,875.488007 L808.776,877.129007 C815.374,878.032007 827.198,879.586007 835.051,880.582007 L849.331,882.394007 L859.569,872.191007 C865.199,866.579007 870.339,861.988007 870.991,861.988007 C871.642,861.988007 878.449,865.088007 886.118,868.877007 L900.06,875.766007 L894.666,881.093007 C891.699,884.023007 889.272,886.689007 889.272,887.019007 C889.272,887.869007 919.788,891.353007 921.969,890.752007 C922.961,890.479007 938.879,880.621007 957.342,868.846007 L990.913,847.437007 L965.842,844.193007 C952.054,842.408007 939.948,840.957007 938.942,840.968007 C937.935,840.979007 933.134,844.363007 928.272,848.488007 C923.41,852.613007 919.059,855.995007 918.602,856.003007 C918.146,856.011007 911.526,853.683007 903.892,850.828007 L890.013,845.639007 L895.392,840.490007 L900.772,835.342007 L885.272,833.133007 C876.747,831.918007 869.097,830.950007 868.272,830.982007 C867.447,831.013007 851.024,841.040007 831.776,853.263007 M682.272,926.083007 C663.297,939.288007 647.415,950.448007 646.979,950.883007 C646.543,951.318007 657.005,953.191007 670.228,955.044007 L694.271,958.414007 L699.056,953.701007 C701.687,951.109007 704.203,948.988007 704.647,948.988007 C705.09,948.988007 707.823,951.013007 710.72,953.488007 C713.617,955.963007 716.614,957.998007 717.38,958.009007 C718.146,958.021007 726.647,956.583007 736.272,954.814007 L753.772,951.597007 L739.272,944.359007 C729.652,939.556007 725.613,937.094007 727.272,937.042007 C728.647,937.000007 739.222,937.485007 750.772,938.121007 L771.772,939.278007 L783.812,933.303007 L795.853,927.329007 L757.798,914.658007 C736.868,907.690007 719.075,902.007007 718.258,902.029938 C717.441,902.054007 701.247,912.877007 682.272,926.083007 M334.506,914.488007 L329.284,924.988007 L324.555,924.988007 C321.954,924.988007 312.579,924.496007 303.723,923.896007 C281.274,922.373007 281.491,922.289007 290.158,929.133007 L297.307,934.778007 L306.353,935.494007 C314.983,936.177007 315.295,936.283007 313.136,937.796007 C311.067,939.245007 308.762,939.230007 286.322,937.616007 C272.82,936.644007 257.746,935.584007 252.825,935.258007 L243.879,934.666007 L250.365,943.077007 L256.852,951.488007 L292.312,952.621007 C325.837,953.693007 329.545,954.006007 360.272,958.366007 C378.147,960.902007 393.784,962.979007 395.022,962.982079 C397.177,962.988007 397.272,962.634007 397.272,954.605007 L397.272,946.222007 L375.069,945.481007 L352.865,944.741007 L356.084,941.864007 L359.304,938.988007 L378.919,938.988007 L398.534,938.988007 L397.914,935.238007 C397.573,933.176007 397.289,930.491007 397.283,929.272007 C397.272,927.143007 396.857,927.044007 386.774,926.772007 L376.275,926.488007 L386.614,919.988007 L396.953,913.488007 L370.362,908.790007 C355.738,906.206007 342.862,904.069007 341.75,904.039459 C340.163,903.999007 338.604,906.247007 334.506,914.488007 M729.772,923.988007 C729.394,924.599007 730.829,924.961007 733.463,924.918007 C736.788,924.863007 737.315,924.651007 735.772,923.988007 C733.005,922.799007 730.507,922.799007 729.772,923.988007"/><path fill-opacity=".242" d="M503.698,15.7660075 C494.248,30.5130075 493.012,31.9890075 483.757,39.5640075 C478.33,44.0070075 471.967,48.3330075 469.615,49.1780075 L465.34,50.7160075 L462.176,41.8730075 C460.437,37.0090075 458.7,33.2240075 458.316,33.4610075 C457.933,33.6980075 456.798,35.7130075 455.794,37.9400075 C454.79,40.1660075 453.589,41.9880075 453.126,41.9880075 C452.663,41.9880075 452.564,34.4510075 452.906,25.2380075 C453.322,14.0310075 453.196,8.81900749 452.524,9.48800749 C451.972,10.0380075 445.803,18.2490075 438.814,27.7360075 C428.097,42.2830075 425.425,46.6660075 421.744,55.7360075 L417.379,66.4880075 L417.075,40.4880075 L416.772,14.4880075 L400.522,43.5670075 C391.585,59.5610075 384.272,73.0720075 384.272,73.5920075 C384.272,74.1120075 375.181,76.7920075 364.071,79.5490075 L343.869,84.5600075 L357.071,94.9810075 C364.331,100.713007 370.272,105.664007 370.272,105.983007 C370.272,106.302007 368.135,108.640007 365.522,111.178007 C361.072,115.500007 359.762,116.098007 344.772,120.640007 L328.772,125.488007 L338.272,126.652007 C343.497,127.293007 348.796,127.855007 350.048,127.902007 C352.115,127.980007 351.726,128.794007 345.819,136.738007 C342.24,141.551007 319.166,168.672007 294.542,197.007007 L249.772,248.527007 L213.796,270.489007 L177.82,292.451007 L141.296,324.539007 C91.318,368.446007 82.612,377.819007 57.281,414.988007 C46.598,430.663007 33.226,449.415007 27.565,456.660007 C21.904,463.904007 17.272,470.573007 17.272,471.479007 C17.272,472.385007 13.386,478.765007 8.636,485.657007 L0,498.187007 L0.654,523.838007 L1.307,549.488007 L10.54,589.988007 C19.496,629.276007 19.787,630.294007 20.272,623.988007 L20.772,617.488007 L25.194,633.233007 C27.626,641.893007 29.77,648.823007 29.959,648.634007 C30.148,648.445007 28.046,629.537007 25.287,606.617007 C22.529,583.696007 20.263,563.266007 20.251,561.215007 C20.218,555.269007 26.601,509.910007 27.355,510.738007 C27.73,511.151007 33.376,525.779007 39.902,543.246007 C46.427,560.713007 51.885,574.649007 52.03,574.215007 C52.6,572.504007 44.198,503.001007 42.513,495.488007 L40.718,487.488007 L48.168,475.604007 C55.545,463.835007 55.79,463.576007 73.206,449.104007 L90.793,434.488007 L97.226,420.738007 C100.764,413.176007 103.973,406.988007 104.357,406.988007 C104.741,406.988007 105.352,408.226007 105.715,409.738007 C106.077,411.250007 109.839,419.903007 114.073,428.967007 L121.772,445.445007 L122.272,428.560007 C122.837,409.488007 121.44,387.661007 119.429,384.131007 C118.691,382.834007 118.466,381.423007 118.929,380.995007 C119.393,380.567007 141.147,366.558007 167.272,349.864007 C214.233,319.855007 215.101,319.241007 243.772,295.658007 C268.642,275.201007 277.436,267.153007 305.522,239.152007 C323.534,221.193007 338.272,206.846007 338.272,207.269007 C338.272,207.692007 336.639,211.280007 334.644,215.242007 L331.016,222.446007 L331.71,259.467007 L332.404,296.488007 L342.86,341.488007 C348.611,366.238007 353.518,386.938007 353.766,387.488007 C354.013,388.038007 353.941,368.008007 353.606,342.977007 C352.88,288.822007 355.161,230.574007 358.363,221.488007 L360.126,216.488007 L360.317,223.488007 C360.423,227.338007 360.501,230.713007 360.49,230.988007 C360.48,231.263007 360.15,237.195007 359.756,244.171007 L359.039,256.854007 L362.59,257.520007 C368.198,258.572007 369.593,260.948007 371.282,272.320007 L372.792,282.488007 L382.33,284.913007 L391.869,287.338007 L396.165,298.172007 C400.272,308.530007 400.584,308.996007 403.267,308.792007 C404.81,308.674007 406.801,309.182007 407.691,309.921007 C409.06,311.057007 409.596,311.005007 411.167,309.583007 C412.871,308.041007 413.076,308.036007 413.648,309.527007 C413.991,310.420007 414.272,312.690007 414.272,314.570007 C414.272,318.593007 414.471,318.646007 419.017,315.837007 L422.497,313.686007 L421.92,316.587007 C421.602,318.182007 418.994,338.613007 416.124,361.988007 L410.906,404.488007 L396.589,419.608007 L382.272,434.727007 L382.264,449.108007 L382.255,463.488007 L372.61,475.988007 C367.305,482.863007 359.322,493.206007 354.871,498.972007 C345.783,510.745007 344.985,510.637007 362.272,499.977007 C366.397,497.433007 370.333,495.019007 371.019,494.613007 C371.96,494.055007 372.049,494.444007 371.381,496.202007 C370.894,497.482007 370.167,503.350007 369.766,509.241007 L369.036,519.952007 L379.159,537.091007 L389.283,554.229007 L384.575,569.198007 L379.866,584.166007 L382.628,606.827007 C388.626,656.038007 388.827,658.577007 387.916,673.590007 L387.061,687.692007 L366.916,681.357007 C355.837,677.873007 345.872,675.034007 344.772,675.047007 C343.672,675.061007 341.243,675.886007 339.375,676.882007 L335.978,678.692007 L355.171,688.960007 C372.794,698.388007 374.688,699.177007 378.311,698.598007 L382.257,697.967007 L377.162,707.503007 L372.067,717.039007 L371.599,735.263007 L371.131,753.488007 L375.504,760.988007 L379.877,768.488007 L373.574,781.825007 C368.054,793.507007 367.272,795.895007 367.272,801.070007 L367.272,806.978007 L352.385,826.870007 L337.498,846.762007 L336.785,853.860007 C335.383,867.815007 338.67,878.985007 345.459,883.345007 C346.731,884.161007 352.947,885.844007 359.272,887.085007 C366.823,888.565007 371.18,889.908007 371.96,890.995007 C372.68,891.998007 376.611,893.376007 381.94,894.494007 C390.468,896.284007 391.178,896.285007 405.564,894.518007 L420.396,892.697007 L431.64,886.632007 L442.883,880.567007 L450.828,866.543007 C455.197,858.830007 460.909,847.588007 463.522,841.562007 L468.272,830.606007 L468.272,805.766007 L468.272,780.927007 L464.948,778.008007 C461.9,775.333007 461.672,774.733007 462.198,770.797007 C462.646,767.447007 461.981,764.198007 459.169,755.996007 C457.187,750.217007 453.844,739.064007 451.741,731.213007 L447.916,716.939007 L450.679,699.213007 C452.198,689.464007 454.641,673.163007 456.107,662.988007 L458.772,644.488007 L453.62,619.488007 C450.786,605.738007 446.399,586.003007 443.87,575.633007 C439.486,557.653007 439.272,556.105007 439.272,542.293007 L439.272,527.810007 L433.546,509.794007 L427.819,491.779007 L431.2,478.633007 C433.06,471.403007 435.466,462.216007 436.547,458.216007 L438.514,450.944007 L457.203,436.567007 C472.97,424.439007 478.259,421.005007 491.034,414.607007 C499.362,410.436007 506.356,407.353007 506.577,407.756007 C506.797,408.159007 509.62,420.166007 512.849,434.439007 L518.72,460.391007 L521.276,447.469007 L523.831,434.547007 L533.132,449.866007 C542.43,465.180007 542.432,465.186007 541.764,470.336007 C541.396,473.170007 536.86,486.657007 531.684,500.309007 L522.272,525.129007 L522.287,539.309007 L522.302,553.488007 L529.577,575.988007 L536.852,598.488007 L548.741,601.952007 L560.629,605.416007 L564.619,600.806007 L568.609,596.196007 L585.69,604.658007 C610.44,616.920007 631.677,628.617007 640.272,634.721007 C647.63,639.945007 647.829,640.202007 650.796,648.267007 L653.82,656.488007 L647.389,670.738007 C643.181,680.064007 640.43,684.988007 639.428,684.988007 C638.586,684.988007 631.937,683.188007 624.652,680.988007 C609.907,676.535007 608.796,676.430007 601.97,678.836007 L597.167,680.528007 L612.091,685.428007 L627.014,690.328007 L633.175,688.024007 C639.729,685.573007 641.04,685.705007 639.433,688.652007 C638.659,690.073007 632.248,691.957007 611.105,696.980007 L583.778,703.472007 L599.163,705.954007 L614.548,708.436007 L623.612,705.247007 C628.597,703.493007 632.78,702.163007 632.909,702.291007 C633.037,702.420007 630.715,707.917007 627.749,714.506007 L622.357,726.488007 L618.406,726.791007 C614.554,727.086007 614.312,727.338007 608.739,736.791007 C605.595,742.124007 600.782,749.779007 598.044,753.801007 C595.305,757.823007 593.326,761.375007 593.644,761.694007 C593.963,762.012007 603.797,762.373007 615.498,762.497007 C627.199,762.620007 640.158,763.301007 644.295,764.011007 C651.251,765.204007 652.308,765.143007 658.295,763.204007 C661.858,762.050007 668.756,760.797007 673.625,760.420007 C682.281,759.750007 682.692,759.599007 692.176,753.611007 L701.874,747.488007 L705.349,723.488007 L708.824,699.488007 L722.389,699.211007 L735.953,698.934007 L737.019,695.461007 L738.085,691.988007 L724.106,691.988007 L710.128,691.988007 L710.796,686.238007 C711.861,677.066007 724.634,648.167007 736.607,627.840007 C746.513,611.020007 746.917,610.101007 748.735,600.187007 C749.77,594.547007 750.942,590.283007 751.339,590.710007 C751.736,591.138007 753.571,601.388007 755.417,613.488007 C758.72,635.146007 758.76,635.814007 758.014,656.488007 C757.597,668.038007 757.372,680.381007 757.514,683.917007 L757.772,690.347007 L764.958,665.417007 L772.144,640.488007 L773.714,617.488007 C774.578,604.838007 775.576,589.184007 775.933,582.702007 C776.551,571.461007 777.658,567.245007 778.691,572.197007 C778.954,573.457007 780.116,582.813007 781.272,592.988007 C782.429,603.163007 785.504,622.033007 788.106,634.921007 L792.838,658.353007 L796.805,631.421007 L800.772,604.488007 L798.702,592.488007 C797.277,584.225007 793.919,572.359007 787.919,554.388007 L779.205,528.287007 L779.307,504.654007 L779.409,481.022007 L769.517,463.087007 L759.625,445.152007 L751.378,395.320007 C743.967,350.544007 742.07,341.176007 732.681,302.988007 C726.933,279.613007 720.557,254.863007 718.513,247.988007 L714.795,235.488007 L679.283,201.203007 C659.752,182.345007 633.976,157.370007 622.004,145.703007 L600.236,124.488007 L603.699,111.016007 C605.604,103.607007 607.049,97.4320075 606.911,97.2940075 C606.773,97.1560075 603.773,99.9550075 600.245,103.515007 C596.717,107.075007 593.511,109.988007 593.12,109.988007 C592.73,109.988007 592.267,109.200007 592.092,108.238007 C591.916,107.275007 586.372,96.9560075 579.772,85.3060075 C569.569,67.2960075 567.36,64.0270075 565.022,63.4760075 L562.273,62.8290075 L562.916,55.9090075 C563.27,52.1020075 563.34,48.9880075 563.072,48.9880075 C562.804,48.9880075 561.052,51.2370075 559.179,53.9860075 C557.305,56.7350075 555.284,58.9850075 554.687,58.9860075 C554.091,58.9870075 549.216,57.2030075 543.854,55.0220075 C535.138,51.4750075 533.059,50.0890075 524.213,41.9330075 L514.32,32.8120075 L514.046,16.4280075 L513.772,0.0440074906 L503.698,15.7660075 M646.264,272.340007 L646.255,296.488007 L641.467,310.988007 C638.046,321.350007 633.839,330.977007 626.726,344.722007 L616.772,363.957007 L612.272,363.988007 C609.797,364.005007 607.217,364.371007 606.539,364.802007 C605.861,365.232007 600.754,379.963007 595.189,397.536007 C587.835,420.762007 584.411,433.312007 582.652,443.488007 C579.848,459.702007 578.792,481.818007 579.978,499.488007 C580.606,508.840007 580.428,513.651007 579.174,521.289007 C577.789,529.728007 577.766,531.012007 579.012,530.534007 C584.188,528.548007 585.932,528.973007 610.094,538.100007 L634.84,547.449007 L641.248,562.894007 C647.404,577.734007 648.023,578.765007 657.024,589.177007 C668.103,601.993007 675.836,608.285007 679.923,607.811007 C683.141,607.437007 682.903,608.219007 686.877,584.988007 C688.833,573.555007 692.41,559.911007 700.511,532.988007 C706.551,512.913007 714.034,485.470007 717.139,472.004007 L722.785,447.520007 L713.067,393.004007 C703.889,341.511007 702.798,336.473007 693.398,302.158007 C687.924,282.177007 683.281,265.664007 683.08,265.463007 C682.879,265.261007 674.515,261.293007 664.493,256.645007 L646.272,248.193007 L646.264,272.340007 M529.508,395.418007 C528.263,395.999007 527.444,396.993007 527.687,397.627007 C527.93,398.262007 529.83,405.108007 531.909,412.843007 C533.988,420.577007 535.819,426.775007 535.978,426.616007 C536.481,426.113007 532.998,395.514007 532.371,394.925007 C532.042,394.615007 530.753,394.837007 529.508,395.418007 M716.93,553.125007 C713.219,565.975007 707.023,584.430007 703.162,594.137007 L696.141,611.785007 L699.309,617.399007 C702.604,623.238007 716.119,636.550007 717.415,635.233007 C717.818,634.823007 721.537,626.892007 725.681,617.609007 L733.215,600.730007 L733.3,575.609007 L733.386,550.488007 L728.532,540.125007 L723.678,529.761007 L716.93,553.125007 M314.484,691.816007 L299.197,699.538007 L309.036,702.763007 C314.447,704.537007 319.535,705.988007 320.343,705.988007 C321.151,705.988007 325.979,701.803007 331.073,696.688007 L340.334,687.388007 L336.769,685.688007 C334.808,684.753007 332.432,684.012007 331.488,684.041007 C330.544,684.070007 322.893,687.568007 314.484,691.816007 M255.371,696.363007 L242.971,699.549007 L273.948,708.269007 C290.985,713.064007 305.544,716.988007 306.301,716.988007 C307.058,716.988007 309.151,715.559007 310.953,713.813007 L314.229,710.637007 L293.075,701.813007 C281.44,696.959007 270.987,693.030007 269.846,693.082007 C268.705,693.134007 262.192,694.611007 255.371,696.363007 M127.433,743.535007 C126.794,744.936007 126.272,746.462007 126.272,746.926007 C126.272,747.390007 131.188,748.091007 137.195,748.483007 L148.119,749.197007 L152.644,745.741007 L157.17,742.286007 L146.565,741.637007 C129.29,740.580007 128.755,740.633007 127.433,743.535007 M94.861,749.238007 C95.249,749.926007 96.585,751.868007 97.83,753.554007 L100.093,756.619007 L133.644,759.009007 L167.196,761.398007 L148.984,768.268007 C129.635,775.568007 129.915,775.523007 117.022,773.356007 L113.272,772.726007 L113.272,777.357007 L113.272,781.988007 L126.126,781.988007 L138.98,781.988007 L161.09,771.640007 L183.199,761.292007 L180.485,758.815007 C177.883,756.440007 176.111,756.166007 137.272,752.125007 C114.997,749.808007 96.183,747.929007 95.463,747.949833 C94.71,747.972007 94.454,748.519007 94.861,749.238007 M877.853,767.794007 L858.934,785.488007 L870.307,785.773007 L881.679,786.057007 L896.726,771.057007 L911.772,756.057007 L919.24,754.277007 L926.707,752.497007 L915.74,751.308007 C895.877,749.155007 899.439,747.605007 877.853,767.794007 M915.766,760.994007 C914.768,762.098007 914.136,763.169007 914.361,763.376007 C914.587,763.582007 917.65,765.194007 921.167,766.957007 C926.013,769.387007 931.071,770.758007 942.042,772.617007 C950.006,773.967007 956.685,774.908007 956.884,774.709007 C957.231,774.362007 919.369,758.988007 918.167,758.988007 C917.845,758.988007 916.765,759.891007 915.766,760.994007 M102.772,764.716007 L93.772,768.370007 L71.272,769.429007 L48.772,770.488007 L56.892,772.738007 C63.801,774.652007 67.474,774.988007 81.514,774.988007 L98.016,774.988007 L114.394,768.006007 L130.772,761.024007 L121.272,761.043007 C112.671,761.060007 110.921,761.408007 102.772,764.716007 M910.027,774.370007 C902.21,775.369007 900.939,775.833007 898.046,778.738007 C895.227,781.570007 895.065,781.993007 896.791,782.023007 C897.881,782.042007 912.151,781.043007 928.504,779.802007 L958.236,777.547007 L944.504,775.294007 C929.524,772.837007 923.316,772.670007 910.027,774.370007 M85.924,832.273007 L82.077,835.529007 L113.931,848.258007 C131.451,855.260007 146.211,860.988007 146.731,860.988007 C147.251,860.988007 149.151,859.560007 150.952,857.814007 L154.227,854.639007 L123.08,841.814007 C105.949,834.760007 91.446,828.995007 90.852,829.002999 C90.258,829.011007 88.041,830.483007 85.924,832.273007 M842.335,854.752007 L813.897,873.476007 L825.335,875.157007 C844.466,877.970007 840.612,879.761007 864.199,857.105007 L884.9,837.223007 L879.836,836.614007 C877.051,836.279007 873.872,836.011007 872.772,836.016909 C871.672,836.024007 857.975,844.455007 842.335,854.752007 M60.022,856.546007 C47.509,862.844007 37.272,868.161007 37.272,868.363007 C37.272,868.565007 43.721,869.764007 51.603,871.029007 L65.933,873.329007 L81.474,860.332007 L97.015,847.335007 L91.334,846.162007 C88.208,845.516007 85.004,845.012007 84.212,845.042007 C83.42,845.071007 72.535,850.248007 60.022,856.546007 M926.772,861.071007 C917.422,869.847007 908.029,878.768007 905.899,880.895007 L902.027,884.763007 L909.09,886.025007 L916.154,887.287007 L945.056,868.318007 L973.957,849.349007 L960.365,847.156007 C952.889,845.950007 946.097,844.998007 945.272,845.039007 C944.447,845.080007 936.122,852.294007 926.772,861.071007 M878.896,853.297007 L875.021,856.576007 L889.896,863.298007 C898.078,866.995007 905.128,870.013007 905.564,870.004028 C906,869.995007 908.279,868.538007 910.63,866.766007 L914.904,863.544007 L899.924,856.766007 C891.686,853.038007 884.456,849.995007 883.859,850.002992 C883.261,850.011007 881.028,851.493007 878.896,853.297007 M114.352,868.805007 L102.932,877.488007 L110.852,878.663007 C125.143,880.783007 124.288,881.073007 131.575,871.632007 L138.025,863.276007 L132.811,861.632007 C129.943,860.728007 127.186,860.018007 126.684,860.055007 C126.182,860.091007 120.633,864.029007 114.352,868.805007 M346.495,917.503007 C344.172,922.186007 342.272,926.236007 342.272,926.503007 C342.272,926.770007 346.136,926.988007 350.859,926.988007 L359.447,926.988007 L369.249,920.197007 L379.052,913.407007 L365.912,911.178007 C358.685,909.952007 352.31,908.958007 351.745,908.968917 C351.18,908.979007 348.817,912.820007 346.495,917.503007 M689.773,929.576007 C673.824,940.856007 660.395,950.465007 659.932,950.928007 C659.468,951.392007 665.629,952.098007 673.623,952.497007 L688.157,953.224007 L709.48,933.306007 L730.804,913.389007 L725.788,911.182007 C723.029,909.969007 720.322,908.996007 719.772,909.021007 C719.222,909.045007 705.723,918.295007 689.773,929.576007 M737.828,915.926007 C736.124,917.809007 736.274,917.964007 743.148,921.426007 C750.101,924.927007 750.423,924.987007 761.997,924.911007 L773.772,924.834007 L757.796,919.411007 C749.009,916.428007 741.316,913.988007 740.701,913.988007 C740.085,913.988007 738.793,914.860007 737.828,915.926007 M304.093,930.297007 C306.224,932.566007 306.954,932.639007 345.281,934.450007 C366.741,935.464007 384.529,936.064007 384.809,935.784007 C385.09,935.504007 385.073,934.634007 384.773,933.851007 C384.335,932.709007 376.56,931.980007 345.499,930.168007 C324.199,928.926007 305.681,927.927007 304.348,927.949007 L301.923,927.988007 L304.093,930.297007 M721.272,931.488007 L718.923,933.988007 L743.498,933.988007 C767.587,933.988007 768.179,933.939007 773.423,931.498007 L778.772,929.008007 L751.196,928.998007 L723.621,928.988007 L721.272,931.488007 M323.772,938.744007 L318.772,941.407007 L327.98,942.864007 L337.188,944.320007 L341.708,940.154007 L346.227,935.988007 L337.5,936.035007 C330.02,936.074007 328.057,936.462007 323.772,938.744007 M710.404,940.352007 L707.098,943.763007 L713.726,948.492007 L720.353,953.221007 L730.884,952.504007 L741.414,951.786007 L728.744,944.817007 C721.775,940.985007 715.541,937.645007 714.891,937.395007 C714.241,937.146007 712.222,938.476007 710.404,940.352007 M266.289,943.345007 L269.772,946.701007 L318.772,950.973007 C345.722,953.322007 370.81,955.472007 374.522,955.750007 L381.272,956.257007 L381.272,952.369007 L381.272,948.482007 L323.522,944.190007 C291.76,941.829007 265.104,939.918007 264.289,939.943007 C263.351,939.971007 264.086,941.223007 266.289,943.345007"/><path fill-opacity=".548" d="M503.698,15.7660075 C494.248,30.5130075 493.012,31.9890075 483.757,39.5640075 C478.33,44.0070075 471.967,48.3330075 469.615,49.1780075 L465.34,50.7160075 L462.176,41.8730075 C460.437,37.0090075 458.7,33.2240075 458.316,33.4610075 C457.933,33.6980075 456.798,35.7130075 455.794,37.9400075 C454.79,40.1660075 453.589,41.9880075 453.126,41.9880075 C452.663,41.9880075 452.564,34.4510075 452.906,25.2380075 C453.322,14.0310075 453.196,8.81900749 452.524,9.48800749 C451.972,10.0380075 445.803,18.2490075 438.814,27.7360075 C428.097,42.2830075 425.425,46.6660075 421.744,55.7360075 L417.379,66.4880075 L417.075,40.4880075 L416.772,14.4880075 L400.522,43.5670075 C391.585,59.5610075 384.272,73.0720075 384.272,73.5920075 C384.272,74.1120075 375.181,76.7920075 364.071,79.5490075 L343.869,84.5600075 L357.071,94.9810075 C364.331,100.713007 370.272,105.664007 370.272,105.983007 C370.272,106.302007 368.135,108.640007 365.522,111.178007 C361.072,115.500007 359.762,116.098007 344.772,120.640007 L328.772,125.488007 L338.272,126.652007 C343.497,127.293007 348.796,127.855007 350.048,127.902007 C352.115,127.980007 351.726,128.794007 345.819,136.738007 C342.24,141.551007 319.166,168.672007 294.542,197.007007 L249.772,248.527007 L213.796,270.489007 L177.82,292.451007 L141.296,324.539007 C91.318,368.446007 82.612,377.819007 57.281,414.988007 C46.598,430.663007 33.226,449.415007 27.565,456.660007 C21.904,463.904007 17.272,470.573007 17.272,471.479007 C17.272,472.385007 13.386,478.765007 8.636,485.657007 L0,498.187007 L0.654,523.838007 L1.307,549.488007 L10.54,589.988007 C19.496,629.276007 19.787,630.294007 20.272,623.988007 L20.772,617.488007 L25.194,633.233007 C27.626,641.893007 29.77,648.823007 29.959,648.634007 C30.148,648.445007 28.046,629.537007 25.287,606.617007 C22.529,583.696007 20.263,563.266007 20.251,561.215007 C20.218,555.269007 26.601,509.910007 27.355,510.738007 C27.73,511.151007 33.376,525.779007 39.902,543.246007 C46.427,560.713007 51.885,574.649007 52.03,574.215007 C52.6,572.504007 44.198,503.001007 42.513,495.488007 L40.718,487.488007 L48.168,475.604007 C55.545,463.835007 55.79,463.576007 73.206,449.104007 L90.793,434.488007 L97.226,420.738007 C100.764,413.176007 103.973,406.988007 104.357,406.988007 C104.741,406.988007 105.352,408.226007 105.715,409.738007 C106.077,411.250007 109.839,419.903007 114.073,428.967007 L121.772,445.445007 L122.272,428.560007 C122.837,409.488007 121.44,387.661007 119.429,384.131007 C118.691,382.834007 118.466,381.422007 118.929,380.993007 C119.393,380.564007 141.15,366.550007 167.279,349.850007 L214.786,319.488007 L245.279,294.303007 C271.795,272.404007 279.909,264.969007 307.489,237.303007 L339.206,205.488007 L350.024,182.488007 L360.843,159.488007 L379.101,143.738007 L397.36,127.988007 L407.317,127.988007 L417.273,127.988007 L404.523,142.745007 C394.29,154.587007 389.007,159.680007 377.772,168.530007 L363.772,179.559007 L361.49,190.023007 C359.461,199.327007 359.28,202.097007 359.86,214.988007 C360.218,222.963007 360.521,229.938007 360.532,230.488007 C360.544,231.038007 360.213,237.195007 359.797,244.171007 L359.039,256.854007 L362.59,257.520007 C368.198,258.572007 369.593,260.948007 371.282,272.320007 L372.792,282.488007 L382.33,284.913007 L391.869,287.338007 L396.165,298.172007 C400.272,308.530007 400.584,308.996007 403.267,308.792007 C404.81,308.674007 406.801,309.182007 407.691,309.921007 C409.06,311.057007 409.596,311.005007 411.167,309.583007 C412.871,308.041007 413.076,308.036007 413.648,309.527007 C413.991,310.420007 414.272,312.690007 414.272,314.570007 C414.272,318.593007 414.471,318.646007 419.017,315.837007 L422.497,313.686007 L421.92,316.587007 C421.602,318.182007 418.994,338.613007 416.124,361.988007 L410.906,404.488007 L396.589,419.608007 L382.272,434.727007 L382.264,449.108007 L382.255,463.488007 L372.61,475.988007 C367.305,482.863007 359.322,493.206007 354.871,498.972007 C345.783,510.745007 344.985,510.637007 362.272,499.977007 C366.397,497.433007 370.333,495.019007 371.019,494.613007 C371.96,494.055007 372.049,494.444007 371.381,496.202007 C370.894,497.482007 370.167,503.350007 369.766,509.241007 L369.036,519.952007 L379.159,537.091007 L389.283,554.229007 L384.575,569.198007 L379.866,584.166007 L382.628,606.827007 C388.746,657.022007 388.847,658.356007 387.772,674.488007 L386.772,689.488007 L379.418,703.309007 L372.064,717.131007 L371.597,735.309007 L371.131,753.488007 L375.504,760.988007 L379.877,768.488007 L373.574,781.825007 C368.054,793.507007 367.272,795.895007 367.272,801.070007 L367.272,806.978007 L352.385,826.870007 L337.498,846.762007 L336.785,853.860007 C335.383,867.815007 338.67,878.985007 345.459,883.345007 C346.731,884.161007 352.947,885.844007 359.272,887.085007 C366.823,888.565007 371.18,889.908007 371.96,890.995007 C372.68,891.998007 376.611,893.376007 381.94,894.494007 C390.468,896.284007 391.178,896.285007 405.564,894.518007 L420.396,892.697007 L431.64,886.632007 L442.883,880.567007 L450.828,866.543007 C455.197,858.830007 460.909,847.588007 463.522,841.562007 L468.272,830.606007 L468.272,805.766007 L468.272,780.927007 L464.948,778.008007 C461.9,775.333007 461.672,774.733007 462.198,770.797007 C462.646,767.447007 461.981,764.198007 459.169,755.996007 C457.187,750.217007 453.844,739.064007 451.741,731.213007 L447.916,716.939007 L450.679,699.213007 C452.198,689.464007 454.641,673.163007 456.107,662.988007 L458.772,644.488007 L453.62,619.488007 C450.786,605.738007 446.399,586.003007 443.87,575.633007 C439.486,557.653007 439.272,556.105007 439.272,542.293007 L439.272,527.810007 L433.546,509.794007 L427.819,491.779007 L431.2,478.633007 C433.06,471.403007 435.466,462.216007 436.547,458.216007 L438.514,450.944007 L457.203,436.567007 C472.97,424.439007 478.259,421.005007 491.034,414.607007 C499.362,410.436007 506.356,407.353007 506.577,407.756007 C506.797,408.159007 509.62,420.166007 512.849,434.439007 L518.72,460.391007 L521.276,447.469007 L523.831,434.547007 L533.132,449.866007 C542.43,465.180007 542.432,465.186007 541.764,470.336007 C541.396,473.170007 536.86,486.657007 531.684,500.309007 L522.272,525.129007 L522.287,539.309007 L522.302,553.488007 L529.577,575.988007 L536.852,598.488007 L548.741,601.952007 L560.629,605.416007 L564.619,600.806007 L568.609,596.196007 L585.69,604.658007 C610.44,616.920007 631.677,628.617007 640.272,634.721007 C647.634,639.949007 647.827,640.197007 650.785,648.267007 L653.798,656.488007 L638.077,691.488007 L622.356,726.488007 L618.406,726.791007 C614.554,727.086007 614.311,727.338007 608.739,736.791007 C605.595,742.124007 600.782,749.779007 598.044,753.801007 C595.305,757.823007 593.326,761.375007 593.644,761.694007 C593.963,762.012007 603.797,762.373007 615.498,762.497007 C627.199,762.620007 640.158,763.301007 644.295,764.011007 C651.251,765.204007 652.308,765.143007 658.295,763.204007 C661.858,762.050007 668.756,760.797007 673.625,760.420007 C682.283,759.749007 682.69,759.600007 692.162,753.612007 L701.847,747.491007 L706.686,713.989007 L711.525,680.488007 L718.942,662.863007 C723.779,651.369007 729.924,639.186007 736.607,627.840007 C746.513,611.020007 746.917,610.101007 748.735,600.187007 C749.77,594.547007 750.942,590.283007 751.339,590.710007 C751.736,591.138007 753.571,601.388007 755.417,613.488007 C758.72,635.146007 758.76,635.814007 758.014,656.488007 C757.597,668.038007 757.372,680.381007 757.514,683.917007 L757.772,690.347007 L764.958,665.417007 L772.144,640.488007 L773.714,617.488007 C774.578,604.838007 775.576,589.184007 775.933,582.702007 C776.551,571.461007 777.658,567.245007 778.691,572.197007 C778.954,573.457007 780.116,582.813007 781.272,592.988007 C782.429,603.163007 785.504,622.033007 788.106,634.921007 L792.838,658.353007 L796.805,631.421007 L800.772,604.488007 L798.702,592.488007 C797.277,584.225007 793.919,572.359007 787.919,554.388007 L779.205,528.287007 L779.307,504.654007 L779.409,481.022007 L769.517,463.087007 L759.625,445.152007 L751.378,395.320007 C743.967,350.544007 742.07,341.176007 732.681,302.988007 C726.933,279.613007 720.557,254.863007 718.513,247.988007 L714.795,235.488007 L679.283,201.203007 C659.752,182.345007 633.976,157.370007 622.004,145.703007 L600.236,124.488007 L603.699,111.016007 C605.604,103.607007 607.049,97.4320075 606.911,97.2940075 C606.773,97.1560075 603.773,99.9550075 600.245,103.515007 C596.717,107.075007 593.511,109.988007 593.12,109.988007 C592.73,109.988007 592.267,109.200007 592.092,108.238007 C591.916,107.275007 586.372,96.9560075 579.772,85.3060075 C569.569,67.2960075 567.36,64.0270075 565.022,63.4760075 L562.273,62.8290075 L562.916,55.9090075 C563.27,52.1020075 563.34,48.9880075 563.072,48.9880075 C562.804,48.9880075 561.052,51.2370075 559.179,53.9860075 C557.305,56.7350075 555.284,58.9850075 554.687,58.9860075 C554.091,58.9870075 549.216,57.2030075 543.854,55.0220075 C535.138,51.4750075 533.059,50.0890075 524.213,41.9330075 L514.32,32.8120075 L514.046,16.4280075 L513.772,0.0440074906 L503.698,15.7660075 M457.267,148.044007 L454.059,154.550007 L438.665,156.940007 C429.693,158.334007 423.291,159.781007 423.319,160.409007 C423.344,161.003007 424.379,163.951007 425.619,166.960007 L427.873,172.432007 L413.322,181.800007 C405.32,186.953007 398.402,191.520007 397.95,191.950007 C397.497,192.381007 402.011,195.593007 407.98,199.089007 L418.833,205.445007 L431.893,243.967007 L444.954,282.488007 L449.334,326.988007 C451.743,351.463007 453.848,370.813007 454.012,369.988007 C454.176,369.163007 457.793,348.913007 462.051,324.988007 L469.793,281.488007 L465.085,251.988007 C459.471,216.801007 459.524,217.456007 462.658,222.016007 C464.018,223.994007 464.629,225.750007 464.079,226.096007 C463.542,226.434007 465.914,231.978007 469.427,238.596007 C475.513,250.059007 476.111,251.876007 486.014,288.988007 C492.538,313.438007 500.744,340.879007 508.501,364.183007 C515.219,384.365007 520.847,400.747007 521.008,400.587184 C521.701,399.892007 510.825,315.307007 505.694,281.488007 C500.404,246.619007 499.881,244.099007 496.621,237.738007 L493.163,230.987007 L500.467,227.675007 C504.485,225.853007 509.817,223.523007 512.317,222.498007 C518.824,219.828007 519.868,217.929007 520.701,207.238007 C521.283,199.777007 521.161,197.988007 520.07,197.988007 C519.327,197.988007 515.58,194.797007 511.745,190.898007 C507.91,186.998007 500.722,180.429007 495.772,176.300007 C490.822,172.170007 480.855,162.660007 473.624,155.165007 L460.476,141.537007 L457.267,148.044007 M477.272,184.463007 C475.897,185.235007 473.734,185.614007 472.465,185.305007 C470.393,184.800007 470.996,186.424007 478.362,201.187007 L486.566,217.632007 L490.419,216.603007 C492.896,215.942007 494.272,214.992007 494.272,213.943007 C494.272,213.045007 492.474,206.725007 490.277,199.899007 C488.08,193.073007 486.28,186.941007 486.277,186.273007 C486.271,184.929007 483.141,182.968007 481.088,183.023007 C480.364,183.043007 478.647,183.691007 477.272,184.463007 M646.264,272.340007 L646.255,296.488007 L641.467,310.988007 C638.046,321.350007 633.839,330.977007 626.726,344.722007 L616.772,363.957007 L612.272,363.988007 C609.797,364.005007 607.217,364.371007 606.539,364.802007 C605.861,365.232007 600.754,379.963007 595.189,397.536007 C587.835,420.762007 584.411,433.312007 582.652,443.488007 C579.848,459.702007 578.792,481.818007 579.978,499.488007 C580.606,508.840007 580.428,513.651007 579.174,521.289007 C577.789,529.728007 577.766,531.012007 579.012,530.534007 C584.188,528.548007 585.932,528.973007 610.094,538.100007 L634.84,547.449007 L641.248,562.894007 C647.404,577.734007 648.023,578.765007 657.024,589.177007 C668.103,601.993007 675.836,608.285007 679.923,607.811007 C683.141,607.437007 682.903,608.219007 686.877,584.988007 C688.833,573.555007 692.41,559.911007 700.511,532.988007 C706.551,512.913007 714.034,485.470007 717.139,472.004007 L722.785,447.520007 L713.067,393.004007 C703.889,341.511007 702.798,336.473007 693.398,302.158007 C687.924,282.177007 683.281,265.664007 683.08,265.463007 C682.879,265.261007 674.515,261.293007 664.493,256.645007 L646.272,248.193007 L646.264,272.340007 M529.508,395.418007 C528.263,395.999007 527.444,396.993007 527.687,397.627007 C527.93,398.262007 529.83,405.108007 531.909,412.843007 C533.988,420.577007 535.819,426.775007 535.978,426.616007 C536.481,426.113007 532.998,395.514007 532.371,394.925007 C532.042,394.615007 530.753,394.837007 529.508,395.418007 M716.93,553.125007 C713.219,565.975007 707.023,584.430007 703.162,594.137007 L696.141,611.785007 L699.309,617.399007 C702.604,623.238007 716.119,636.550007 717.415,635.233007 C717.818,634.823007 721.537,626.892007 725.681,617.609007 L733.215,600.730007 L733.3,575.609007 L733.386,550.488007 L728.532,540.125007 L723.678,529.761007 L716.93,553.125007"/><path fill-opacity=".507" d="M496.553,26.8280075 C487.082,41.5770075 478.078,56.4540075 476.545,59.8880075 L473.757,66.1330075 L471.497,63.7270075 C470.254,62.4040075 466.957,55.0590075 464.17,47.4050075 C461.384,39.7510075 458.937,33.3210075 458.734,33.1170075 C458.53,32.9130075 457.353,34.8260075 456.118,37.3670075 C454.884,39.9090075 453.516,41.9880075 453.079,41.9880075 C452.642,41.9880075 452.564,34.4510075 452.906,25.2380075 C453.322,14.0310075 453.196,8.81900749 452.524,9.48800749 C451.972,10.0380075 445.803,18.2490075 438.814,27.7360075 C428.097,42.2830075 425.425,46.6660075 421.744,55.7360075 L417.379,66.4880075 L417.075,40.4880075 L416.772,14.4880075 L400.522,43.5670075 C391.585,59.5610075 384.272,73.0720075 384.272,73.5920075 C384.272,74.1120075 375.18,76.7930075 364.068,79.5490075 L343.863,84.5610075 L359.681,97.0250075 C373.121,107.614007 375.971,109.451007 378.636,109.243007 C380.361,109.108007 370.522,112.515007 356.772,116.814007 C343.022,121.113007 331.133,124.849007 330.351,125.116007 C329.148,125.528007 367.129,130.086007 371.151,130.013007 C372.257,129.993007 372.398,128.550007 371.865,122.738007 L371.2,115.488007 L373.736,119.840007 C376.667,124.870007 376.845,126.268007 374.772,127.988007 C373.947,128.673007 373.272,129.542007 373.272,129.920007 C373.272,130.297007 375.902,132.421007 379.117,134.639007 L384.962,138.673007 L391.185,133.330007 L397.408,127.988007 L406.09,127.965007 C413.914,127.945007 417.046,128.612007 437.772,134.710007 L460.772,141.477007 L471.272,152.887007 C477.047,159.162007 486.947,168.683007 493.272,174.044007 C499.597,179.405007 507.91,186.986007 511.745,190.890007 L518.718,197.988007 L526.106,197.988007 C531.7,197.988007 536.508,198.881007 545.906,201.665007 L558.319,205.343007 L565.862,203.564007 C571.743,202.178007 575.357,201.941007 582.267,202.488007 L591.13,203.189007 L591.541,199.839007 L591.952,196.488007 L592.112,200.046007 L592.272,203.604007 L615.309,205.426007 C627.979,206.428007 638.538,207.055007 638.774,206.819007 C639.011,206.583007 627.632,198.312007 613.489,188.439007 L587.775,170.488007 L612.484,169.988007 L637.194,169.488007 L618.741,158.988007 C608.592,153.213007 600.285,148.256007 600.28,147.972007 C600.276,147.688007 602.033,144.443007 604.185,140.760007 L608.098,134.064007 L604.011,130.371007 L599.923,126.678007 L603.244,113.083007 C605.07,105.606007 606.786,98.8130075 607.057,97.9880075 C607.329,97.1630075 604.439,99.5260075 600.636,103.238007 C596.833,106.951007 593.427,109.988007 593.066,109.988007 C592.706,109.988007 592.267,109.200007 592.092,108.238007 C591.916,107.275007 586.372,96.9560075 579.772,85.3060075 C569.569,67.2960075 567.36,64.0270075 565.022,63.4760075 L562.273,62.8290075 L562.916,55.9090075 C563.27,52.1020075 563.34,48.9880075 563.072,48.9880075 C562.804,48.9880075 561.052,51.2370075 559.179,53.9860075 C557.305,56.7350075 555.284,58.9850075 554.687,58.9860075 C551.57,58.9920075 533.407,50.5470075 530.437,47.7120075 L527.06,44.4880075 L531.166,52.7160075 L535.272,60.9440075 L535.235,73.7160075 L535.199,86.4880075 L524.362,65.0290075 L513.525,43.5710075 L514.044,21.7790075 C514.33,9.79400749 514.385,-0.00699250943 514.168,3.74327806e-06 C513.95,0.00600749057 506.023,12.0790075 496.553,26.8280075 M581.971,106.643007 C581.026,112.608007 580.257,118.051007 580.261976,118.738007 C580.282,121.243007 583.96,119.892007 587.785,115.975007 L591.703,111.962007 L587.697,103.879007 L583.69,95.7970075 L581.971,106.643007 M597.355,209.738007 C597.923,211.250007 600.21,214.353007 602.436,216.633007 L606.483,220.779007 L603.797,237.133007 C602.216,246.765007 600.039,256.160007 598.503,259.988007 C595.911,266.446007 595.762,266.594007 575.333,282.988007 L554.772,299.488007 L536.997,301.596007 C527.221,302.756007 519.066,303.881007 518.874,304.096007 C517.527,305.614007 515.246,311.296007 515.773,311.823007 C516.13,312.180007 528.126,310.075007 542.431,307.147007 C556.735,304.218007 568.598,301.981007 568.793,302.176007 C568.988,302.370007 566.935,306.345007 564.231,311.009007 C560.71,317.083007 559.347,320.481007 559.425,322.988007 L559.535,326.488007 L560.154,323.120007 C560.712,320.080007 561.407,319.496007 567.293,317.120007 C571.832,315.288007 579.582,310.081007 592.793,299.988007 C608.235,288.190007 614.399,282.693007 625.869,270.488007 C635.498,260.243007 640.364,254.278007 641.219,251.671007 C641.908,249.572007 642.634,248.016007 642.832,248.215007 C643.031,248.413007 634.736,274.656007 624.4,306.532007 C614.064,338.408007 605.645,364.510007 605.69,364.538007 C605.735,364.565007 608.247,364.416007 611.272,364.207007 L616.772,363.828007 L626.726,344.658007 C633.862,330.914007 638.037,321.384007 641.476,310.988007 L646.273,296.488007 L646.022,271.737007 C645.87,256.681007 645.396,247.015007 644.811,247.061007 C644.283,247.102007 643.608,246.504007 643.311,245.733007 C642.619,243.931007 605.939,212.157007 601.154,209.213007 C596.506,206.355007 596.104,206.410007 597.355,209.738007 M298.772,244.131007 C292.172,250.201007 284.022,257.264007 280.661,259.827007 C277.3,262.391007 263.675,273.488007 250.384,284.488007 C237.093,295.488007 223.125,306.738007 219.345,309.488007 C215.565,312.238007 207.815,318.016007 202.122,322.328007 C196.43,326.640007 177.154,340.283007 159.288,352.645007 C113.409,384.391007 113.46,384.368007 171.775,347.025007 C214.229,319.840007 215.168,319.166007 245.275,294.305007 C266.901,276.448007 281.005,263.868007 293.762,251.055007 C303.656,241.118007 311.531,233.012007 311.262,233.041924 C310.992,233.072007 305.372,238.062007 298.772,244.131007 M467.832,240.041007 C467.455,241.937007 466.693,244.672007 466.137,246.119007 C465.582,247.567007 465.273,250.199007 465.45,251.969007 L465.772,255.188007 L469.022,250.559007 C472.762,245.231007 472.83,244.694007 470.353,240.041007 L468.517,236.595007 L467.832,240.041007 M421.772,288.924007 L413.772,289.492007 L420.096,290.347007 L426.42,291.202007 L424.346,293.409007 C421.997,295.910007 421.681,297.109007 423.522,296.537007 C424.21,296.324007 427.247,295.918007 430.272,295.634007 L435.772,295.119007 L428.772,297.503007 C424.922,298.814007 420.984,299.910007 420.022,299.938007 C419.06,299.965007 418.272,300.363007 418.272,300.820007 C418.272,301.278007 420.859,301.442007 424.022,301.184007 C428.239,300.840007 430.924,299.926007 434.095,297.754007 C437.534,295.397007 439.237,294.870007 442.427,295.174007 C446.381,295.551007 446.428,295.517007 445.854,292.647007 C445.534,291.047007 445.272,289.344007 445.272,288.863007 C445.272,287.942007 435.212,287.968007 421.772,288.924007 M467.315,295.133007 C466.623,299.009007 466.443,302.506007 466.915,302.913007 C468.095,303.931007 478.511,308.082007 478.903,307.691007 C479.077,307.516007 477.996,303.642007 476.5,299.080007 C474.387,292.634007 473.201,290.485007 471.177,289.439007 L468.574,288.093007 L467.315,295.133007 M476.982,335.344007 C469.947,348.073007 461.4,363.438007 457.987,369.488007 C453.167,378.034007 451.061,383.165007 448.547,392.488007 C444.949,405.833007 432.892,467.941007 433.735,468.785007 C434.03,469.080007 434.272,468.714007 434.272,467.973007 C434.272,467.231007 435.223,463.098007 436.386,458.789007 L438.5,450.954007 L457.196,436.573007 C472.987,424.425007 478.252,421.009007 491.082,414.583007 C499.436,410.399007 506.272,406.713007 506.272,406.392007 C506.272,404.228007 499.48,376.722007 495.648,363.365007 L491.022,347.241007 L495.032,341.812007 L499.043,336.384007 L495.79,325.050007 C494.001,318.816007 491.915,313.375007 491.154,312.958007 C490.119,312.390007 486.558,318.016007 476.982,335.344007 M417.196,315.663007 L414.772,318.338007 L418.772,315.989007 C423.983,312.929007 423.928,312.988007 421.613,312.988007 C420.517,312.988007 418.53,314.192007 417.196,315.663007 M522.348,352.508007 C522.27,378.094007 522.4,379.289007 526.882,394.238007 C527.521,396.369007 529.597,396.506007 531.24,394.527007 C532.912,392.512007 528.969,356.850007 525.21,339.988007 L522.423,327.488007 L522.348,352.508007 M110.84,377.836007 C110.403,382.428007 109.748,387.302007 109.382,388.668007 C108.779,390.925007 108.453,390.597007 105.811,385.070007 C102.731,378.626007 102.323,378.315007 99.376,380.155007 C97.845,381.111007 97.667,381.878007 98.391,384.404007 C99.012,386.568007 98.924,387.604007 98.097,387.880007 C94.769,388.989007 87.8,397.153007 83.615,404.844007 C78.797,413.698007 56.809,449.772007 55.249,451.383007 C54.753,451.895007 53.611,449.650007 52.577,446.133007 L50.772,439.988007 L45.772,440.612007 C43.022,440.956007 40.322,441.669007 39.772,442.198007 C39.131,442.813007 40.924,442.896007 44.765,442.428007 C52.384,441.499007 52.534,441.309007 33.003,457.231007 L17.967,469.488007 L22.511,469.788007 C27.563,470.122007 26.375,468.397007 34.693,487.488007 L37.308,493.488007 L31.04,486.505007 C20.902,475.209007 17.039,471.377007 17.625,473.194007 C17.928,474.132007 18.72,477.536007 19.385,480.757007 C20.529,486.296007 20.442,487.005007 17.782,493.784007 C15.038,500.778007 14.981,501.328007 15.423,516.221007 C15.673,524.618007 15.628,533.420007 15.325,535.780007 C14.792,539.920007 14.513,539.368007 7.502,520.280007 L0.232,500.488007 L0.778,524.988007 L1.325,549.488007 L10.548,589.988007 C19.494,629.269007 19.787,630.292007 20.272,623.988007 L20.772,617.488007 L25.194,633.233007 C27.626,641.893007 29.77,648.823007 29.959,648.634007 C30.536,648.058007 20.495,565.076007 18.75,555.988007 C17.852,551.313007 17.27,545.463007 17.457,542.988007 L17.797,538.488007 L19.203,542.770007 C19.975,545.125007 20.921,546.700007 21.304,546.270007 C21.686,545.840007 23.041,537.491007 24.314,527.716007 C25.587,517.942007 26.945,510.292007 27.333,510.716007 C27.72,511.141007 33.376,525.779007 39.902,543.246007 C46.427,560.713007 51.885,574.649007 52.03,574.215007 C52.604,572.493007 44.193,502.982007 42.505,495.488007 L40.702,487.488007 L48.59,474.988007 C52.929,468.113007 56.925,462.210007 57.47,461.870007 C58.015,461.531007 65.741,455.231007 74.638,447.870007 L90.814,434.488007 L97.237,420.738007 C100.769,413.176007 103.973,406.988007 104.357,406.988007 C104.741,406.988007 105.352,408.226007 105.715,409.738007 C106.077,411.250007 109.839,419.903007 114.073,428.967007 L121.772,445.445007 L122.272,428.560007 C122.547,419.273007 122.31,406.007007 121.745,399.081007 C120.869,388.336007 120.289,385.646007 117.795,380.754007 C115.76,376.763007 114.601,375.395007 113.985,376.254007 C113.404,377.063007 113.268,376.712007 113.592,375.238007 C113.863,374.000007 113.71,372.988007 113.252,372.988007 C112.794,372.988007 112.242,372.200007 112.026,371.238007 C111.81,370.276007 111.276,373.245007 110.84,377.836007 M99.024,399.905007 C96.492,401.363007 96.281,401.961007 96.344,407.488007 C96.457,417.400007 97.355,417.976007 101.042,410.501007 C103.929,404.646007 104.136,403.665007 103.019,401.142007 C101.804,398.394007 101.702,398.362007 99.024,399.905007 M373.147,475.216007 C368.403,481.416007 360.56,491.627007 355.719,497.907007 C350.877,504.188007 347.333,509.081007 347.844,508.781007 C348.354,508.482007 354.097,504.970007 360.604,500.978007 L372.437,493.719007 L377.399,483.118007 C381.365,474.647007 382.303,471.655007 382.067,468.230007 L381.772,463.944007 L373.147,475.216007 M23.446,502.672007 C21.993,505.377007 21.823,524.231007 23.272,521.988007 C23.805,521.163007 24.251,518.913007 24.262,516.988007 C24.274,515.063007 24.721,511.911007 25.257,509.984007 C25.801,508.026007 25.875,505.157007 25.425,503.484007 C24.635,500.546007 24.597,500.530007 23.446,502.672007 M758.658,528.738007 L757.772,553.488007 L743.786,533.696007 C736.094,522.810007 729.658,514.329007 729.485,514.849007 C729.312,515.369007 730.251,524.500007 731.572,535.141007 C733.259,548.731007 733.835,557.464007 733.507,564.488007 C732.869,578.166007 734.987,600.886007 737.136,603.410007 C738.036,604.467007 738.242,605.023007 737.594,604.645007 C736.378,603.937007 730.507,613.644007 721.139,631.857007 C718.488,637.010007 715.763,641.896007 715.083,642.716007 C713.993,644.029007 702.012,699.061007 702.672,699.722249 C702.815,699.864007 708.221,687.633007 714.686,672.541007 C723.503,651.958007 728.987,640.775007 736.631,627.794007 L746.823,610.488007 L749.797,594.676007 L752.772,578.864007 L755.215,588.176007 C757.2,595.741007 757.763,600.866007 758.215,615.488007 L758.772,633.488007 L761.153,627.702007 C762.462,624.520007 763.769,622.152007 764.057,622.439007 C764.344,622.727007 763.202,626.006007 761.518,629.725007 L758.456,636.488007 L757.763,663.488007 C757.382,678.338007 757.284,690.263007 757.545,689.988007 C757.806,689.713007 761.199,678.463007 765.085,664.988007 L772.15,640.488007 L773.704,617.488007 C774.559,604.838007 775.789,586.217007 776.439,576.108007 L777.619,557.728007 L781.895,566.108007 C786.687,575.498007 786.894,576.164007 784.772,575.350007 C783.675,574.929007 783.272,575.475007 783.272,577.381007 C783.272,579.495007 783.745,579.988007 785.772,579.988007 C788.242,579.988007 788.272,580.089007 788.272,588.466007 C788.272,595.666007 787.862,597.780007 785.552,602.491007 L782.831,608.037007 L787.829,633.232007 L792.827,658.426007 L796.8,631.457007 L800.772,604.488007 L798.699,592.488007 C797.296,584.371007 793.899,572.286007 788.199,555.139007 L779.772,529.789007 L779.261,535.139007 L778.751,540.488007 L769.506,522.238007 C764.422,512.200007 760.1,503.988007 759.903,503.988007 C759.706,503.988007 759.146,515.126007 758.658,528.738007 M705.546,532.497007 C702.74,538.278007 700.263,542.460007 700.04,541.791007 C699.817,541.123007 697.254,547.306007 694.345,555.532007 C690.226,567.179007 688.973,572.132007 688.683,577.917007 C688.477,582.004007 687.577,587.854007 686.683,590.917007 C684.773,597.454007 670.297,663.346007 670.685,663.734007 C671.39,664.439007 698.786,605.562007 704.069,591.988007 L710.102,576.488007 L710.717,549.238007 C711.055,534.251007 711.178,521.988007 710.989,521.988007 C710.801,521.988007 708.351,526.717007 705.546,532.497007 M433.408,541.392007 C430.583,549.314007 428.272,555.987007 428.272,556.221007 C428.272,556.456007 430.747,556.199007 433.772,555.650007 L439.272,554.654007 L439.272,540.821007 C439.272,533.213007 439.108,526.988007 438.908,526.988007 C438.708,526.988007 436.233,533.470007 433.408,541.392007 M585.87,533.490007 C586.288,535.139007 588.246,543.232007 590.221,551.474007 L593.812,566.461007 L595.835,562.996007 L597.859,559.531007 L591.95,545.510007 C585.743,530.782007 584.619,528.559007 585.87,533.490007 M648.565,581.309007 C648.844,582.036007 650.312,586.761007 651.827,591.809007 L654.581,600.988007 L660.957,600.988007 L667.333,600.988007 L658.178,590.488007 C649.252,580.250007 647.526,578.602007 648.565,581.309007 M450.369,627.218007 L450.272,649.948007 L444.772,669.443007 C441.747,680.166007 439.272,689.113007 439.272,689.327007 C439.272,689.882007 451.252,692.351007 451.665,691.880007 C451.854,691.664007 453.53,680.913007 455.39,667.988007 L458.772,644.488007 L454.619,624.488007 L450.465,604.488007 L450.369,627.218007 M444.272,722.488007 C447.815,726.063007 450.778,728.988007 450.857,728.988007 C450.935,728.988007 450.299,726.063007 449.444,722.488007 L447.889,715.988007 L442.859,715.988007 L437.83,715.988007 L444.272,722.488007 M608.749,736.738007 C605.576,742.100007 602.794,746.825007 602.567,747.238007 C602.34,747.651007 607.512,747.988007 614.06,747.988007 L625.967,747.988007 L632.53,738.131007 L639.092,728.275007 L630.028,727.631007 C613.453,726.455007 615.302,725.664007 608.749,736.738007 M639.89,741.567007 C638.354,746.285007 637.249,750.296007 637.434,750.479007 C637.62,750.662007 641.396,751.127007 645.825,751.512007 L653.879,752.212007 L657.409,743.747007 L660.939,735.283007 L653.355,734.129007 C642.195,732.430007 643.013,731.979007 639.89,741.567007 M662.866,744.666007 C661.989,747.239007 661.272,749.489007 661.272,749.666007 C661.272,749.843007 664.759,749.974007 669.022,749.956007 L676.772,749.924007 L671.272,744.988007 C668.247,742.273007 665.477,740.037007 665.116,740.020007 C664.755,740.002007 663.743,742.093007 662.866,744.666007 M460.234,786.450007 C459.013,797.400007 458.811,798.042007 455.615,801.141007 L452.272,804.380007 L452.227,821.934007 L452.182,839.488007 L449.818,834.988007 C447.596,830.758007 447.422,830.638007 446.924,832.988007 C446.632,834.363007 446.181,838.188007 445.921,841.488007 C445.539,846.344007 444.491,849.184007 440.423,856.386007 L435.396,865.285007 L438.951,872.386007 C440.907,876.292007 442.634,879.631007 442.79,879.806007 C443.47,880.567007 459.203,851.557007 463.522,841.579007 L468.272,830.606007 L468.2,805.547007 L468.128,780.488007 L464.819,777.743007 L461.51,774.999007 L460.234,786.450007 M380.465,857.238007 C378.687,864.526007 377.241,870.968007 377.251938,871.555007 C377.263,872.142007 380.699,873.430007 384.888,874.418007 C391.061,875.873007 394.618,876.081007 403.659,875.516007 L414.814,874.819007 L417.828,861.107007 L420.842,847.395007 L404.307,845.679007 C395.213,844.735007 386.855,843.968007 385.735,843.97496 C383.952,843.986007 383.293,845.644007 380.465,857.238007 M352.266,848.738007 C352.263,850.251007 351.975,855.143007 351.628,859.609007 L350.995,867.731007 L360.697,870.963007 C366.033,872.741007 370.539,874.036007 370.712,873.842007 C370.884,873.647007 371.874,868.773007 372.911,863.009007 L374.796,852.531007 L364.784,849.270007 C359.277,847.477007 354.21,846.005007 353.522,845.998985 C352.824,845.993007 352.269,847.202007 352.266,848.738007 M341.772,856.263007 L335.772,860.436007 L339.772,861.154007 C341.972,861.550007 345.01,861.899007 346.522,861.930007 C349.163,861.986007 349.272,861.790007 349.272,856.988007 C349.272,854.238007 348.935,852.011007 348.522,852.039007 C348.109,852.067007 345.072,853.967007 341.772,856.263007"/></g></svg>