<svg xmlns="http://www.w3.org/2000/svg" width="1278.399" height="1049.5" viewBox="0 0 1278.399 1049.5"><g fill="#ABABAB" fill-rule="evenodd"><path fill-opacity=".204" d="M463.319,2.09 C461.944,3.202 459.244,5.592 457.319,7.4 C455.394,9.208 447.328,15.945 439.394,22.371 C431.46,28.797 424.436,34.83 423.784,35.777 C422.673,37.392 421.907,47.373 416.725,127.773 C415.865,141.123 414.755,154.848 414.26,158.273 C413.765,161.698 413.35,166.863 413.339,169.75 C413.328,172.637 413.067,175 412.76,175 C412.452,175 408.62,172.274 404.243,168.942 L396.285,162.884 L388.288,146.192 C378.214,125.165 371.656,111.886 370.492,110.159 C369.779,109.101 367.811,109.834 361.203,113.618 C356.592,116.259 351.746,119.225 350.434,120.21 C349.122,121.194 347.693,122 347.257,122 C346.477,122 344.352,118.623 334.831,102.25 C332.193,97.712 329.757,94 329.419,94 C329.081,94 317.711,105.137 304.153,118.75 L279.501,143.5 L277.393,159 C276.234,167.525 274.165,182.712 272.795,192.749 C271.426,202.786 269.198,219.211 267.844,229.249 C266.489,239.287 264.008,257.4 262.331,269.5 C260.653,281.6 258.185,299.6 256.848,309.5 C255.51,319.4 253.436,334.7 252.238,343.5 L250.061,359.5 L244.035,369 C237.965,378.569 234.222,384.394 224.113,400 C221.085,404.675 217.864,409.85 216.956,411.5 C216.049,413.15 214.469,415.625 213.447,417 C212.424,418.375 208.76,424 205.304,429.5 C201.848,435 197.288,442.082 195.17,445.239 C193.052,448.395 191.319,451.196 191.319,451.463 C191.319,451.73 187.112,458.373 181.97,466.224 C176.827,474.076 172.046,481.625 171.345,483 C170.643,484.375 169.289,486.4 168.335,487.5 C167.382,488.6 163.783,495.8 160.337,503.5 C149.957,526.697 150.435,525.992 143.166,528.821 C139.675,530.179 135.366,531.917 133.59,532.682 C131.814,533.448 128.542,534.716 126.319,535.5 C124.096,536.284 120.824,537.598 119.048,538.418 C117.272,539.239 114.019,540.557 111.819,541.348 C100.663,545.357 91.681,549.311 90.31,550.817 C89.467,551.743 85.412,557.024 81.298,562.553 C77.185,568.082 69.769,577.918 64.819,584.411 C59.869,590.904 55.275,596.958 54.609,597.864 C53.528,599.336 51.785,603.952 42.659,629.5 C41.284,633.35 39.512,638.525 38.722,641 C37.932,643.475 36.653,646.85 35.879,648.5 C35.106,650.15 34.147,652.85 33.749,654.5 C33.351,656.15 31.04,662 28.614,667.5 C24.226,677.448 21.62,685.595 18.859,698 C14.918,715.697 12.293,728.692 12.305,730.435 C12.318,732.23 10.875,739.418 3.658,773.5 C0.071,790.442 0.046,800.084 3.556,813.5 C5.947,822.642 7.486,829.148 14.852,861.25 C21.289,889.304 22.661,895.173 24.907,904.288 C26.234,909.672 27.319,914.933 27.319,915.979 C27.319,920.435 29.265,918.534 30.617,912.758 C32.063,906.582 33.97,899.6 39.294,881 C40.789,875.775 42.597,869.25 43.31,866.5 C44.024,863.75 45.915,856.775 47.512,851 C49.11,845.225 51.514,836.45 52.855,831.5 C59.375,807.438 60.153,805.254 65.33,796.5 C68.257,791.55 71.952,785.25 73.54,782.5 C75.129,779.75 78.716,773.675 81.511,769 C84.306,764.325 87.646,758.584 88.933,756.241 C90.219,753.899 92.117,750.749 93.151,749.241 C95.611,745.65 105.319,728.989 105.319,728.357 C105.319,728.087 106.444,726.392 107.819,724.589 C109.194,722.786 110.319,720.957 110.319,720.525 C110.319,720.092 113.403,714.284 117.172,707.619 C120.941,700.954 125.28,693.25 126.813,690.5 C132.403,680.478 134.245,677.171 144.361,659 C154.169,641.384 155.217,639.927 166.3,628.5 C172.702,621.9 180.988,613.275 184.713,609.333 L191.486,602.167 L189.459,597.583 C187.301,592.706 187.84,591.708 190.84,595.024 C191.848,596.137 193.023,596.696 193.452,596.267 C193.881,595.838 212.639,558.59 235.136,513.494 C269.255,445.102 276.384,430.09 278.107,423 C279.244,418.325 281.332,409.663 282.747,403.75 C288.528,379.589 290.601,371.048 292.881,362 C294.197,356.775 296.661,346.65 298.357,339.5 C304.632,313.042 306.513,305.235 309.319,294 C310.899,287.675 313.345,277.663 314.755,271.75 C316.165,265.838 318.419,256.388 319.764,250.75 C321.109,245.113 323.388,235.55 324.828,229.5 C327.294,219.14 330.903,204.426 334.885,188.5 C335.847,184.65 337.078,179.25 337.62,176.5 C338.161,173.75 339.49,168.359 340.573,164.52 L342.541,157.54 L345.011,160.52 C346.37,162.159 351.27,168.45 355.901,174.5 C360.532,180.55 368.64,191.125 373.92,198 C379.199,204.875 387.288,215.45 391.896,221.5 C396.503,227.55 401.555,234.075 403.122,236 L405.971,239.5 L404.133,256 C403.122,265.075 401.125,282.85 399.696,295.5 L397.097,318.5 L391.08,330 C387.771,336.325 382.667,346 379.738,351.5 C376.808,357 371.937,366.225 368.912,372 C347.546,412.792 346.513,414.902 333.2,444.861 C329.691,452.76 326.308,459.426 325.683,459.674 C325.059,459.923 320.161,457.173 314.8,453.563 C309.439,449.953 304.767,447 304.418,447 C304.07,447 298.774,457.237 292.65,469.75 C282.528,490.432 281.233,493.727 278.398,506 C274.511,522.826 274.496,527.783 278.252,554.5 C279.876,566.05 281.963,580.9 282.89,587.5 C284.934,602.048 286.113,629.444 286.231,665.101 C286.317,690.97 286.383,691.823 288.655,696.101 C290.878,700.288 291.023,701.802 291.661,727.5 C292.03,742.35 293.454,767.081 294.825,782.459 C296.197,797.836 297.318,813.586 297.316,817.459 C297.315,821.331 298.464,829.9 299.87,836.5 C303.157,851.932 307.516,873.041 310.815,889.5 C312.248,896.65 314.497,907.675 315.812,914 C317.128,920.325 319.204,930.45 320.424,936.5 C321.645,942.55 322.933,948.327 323.286,949.339 C323.914,951.136 326.797,894.304 327.792,860.5 C328.35,841.549 332.403,797.001 333.569,797 C333.982,797 334.319,797.675 334.319,798.5 C334.319,799.325 334.816,800 335.424,800 C336.215,800 336.323,795.582 335.802,784.47 C334.936,765.999 337.141,738.516 340.813,722 C342.097,716.225 344.345,706.1 345.808,699.5 C352.34,670.036 357.589,646.778 361.831,628.5 C363.107,623 365.558,612.2 367.277,604.5 C368.996,596.8 371.342,587.498 372.491,583.828 C374.491,577.436 374.849,576.982 381.021,573.02 C384.564,570.745 388.964,568.122 390.798,567.192 C393.676,565.732 394.416,564.533 396.192,558.454 C397.324,554.579 398.962,549.705 399.831,547.625 L401.412,543.842 L403.615,546.867 C415.133,562.676 420.393,569.881 423.642,574.3 C425.744,577.16 428.514,581.075 429.798,583 C431.081,584.925 433.466,588.065 435.097,589.977 L438.062,593.455 L438.749,562.477 C439.271,538.934 439.898,528.835 441.36,520.394 C442.418,514.285 443.463,507.085 443.682,504.394 C444.053,499.829 447.465,478.939 450.851,460.5 C451.659,456.1 452.32,450.654 452.32,448.397 C452.319,446.14 452.61,441.508 452.966,438.105 L453.613,431.916 L464.751,423.097 L475.888,414.278 L478.143,374.389 L480.397,334.5 L483.358,328.313 C484.987,324.91 486.34,321.76 486.367,321.313 C486.393,320.866 488.087,317.023 490.131,312.773 L493.848,305.046 L514.834,315.581 C570.835,343.696 590.205,353.727 593.37,356.25 C598.902,360.662 610.423,368.692 615.555,371.712 C618.159,373.246 620.297,374.885 620.305,375.356 C620.313,375.827 618.913,377.988 617.194,380.158 C614.169,383.977 614.084,384.353 614.566,391.802 C614.844,396.105 617.325,408.589 620.191,420.108 C623.012,431.443 625.319,441.003 625.319,441.353 C625.319,442.125 618.23,445.387 613.069,446.99 L609.319,448.155 L609.319,458.71 C609.319,470.277 608.607,468.298 618.168,483.312 L620.517,487 L632.168,486.986 C638.576,486.979 644.797,486.71 645.992,486.39 C647.187,486.069 650.04,483.133 652.333,479.865 L656.501,473.923 L652.241,468.28 C648.108,462.806 648.04,462.597 649.98,461.309 C651.08,460.579 653.368,458.742 655.066,457.226 C656.763,455.711 660.586,452.707 663.562,450.55 L668.972,446.63 L673.75,431.802 C678.962,415.632 678.909,415.705 692.705,405.551 C696.525,402.74 696.643,402.72 699.705,404.395 C706.494,408.109 706.165,406.74 704.656,425.001 C696.736,520.837 693.428,556.866 690.336,581 C688.751,593.375 686.259,613.175 684.798,625 C683.338,636.825 681.307,649.577 680.284,653.337 C678.916,658.366 678.758,660.045 679.689,659.688 C680.667,659.313 680.547,661.962 679.162,671.351 C678.177,678.033 677.359,686.088 677.345,689.251 C677.319,694.954 677.367,695.049 683.174,700.751 C687.479,704.978 689.628,708.088 691.289,712.5 C692.531,715.8 694.784,721.65 696.296,725.5 C698.783,731.836 699.158,734.538 700.26,754 C700.929,765.825 702.151,778.65 702.974,782.5 C704.967,791.817 708.834,808.76 712.331,823.5 C714.813,833.961 716.616,841.78 721.253,862.193 C722.592,868.087 722.666,929.178 721.375,962.289 C720.107,994.789 719.087,1049.565 719.762,1048.89618 C720.276,1048.376 721.825,1044.302 729.984,1022 C731.896,1016.775 734.13,1010.7 734.95,1008.5 C735.77,1006.3 737.601,1001.125 739.019,997 C740.437,992.875 741.925,989.05 742.326,988.5 C742.726,987.95 743.843,985.025 744.806,982 C745.77,978.975 747.157,975.15 747.888,973.5 C753.19,961.531 754.643,955.347 755.41,941.5 C755.836,933.8 756.913,919.85 757.804,910.5 C758.694,901.15 759.837,886.3 760.345,877.5 C760.852,868.7 762.397,846.425 763.778,828 C765.159,809.575 766.296,790.818 766.304,786.317 C766.312,781.817 767.426,767.642 768.779,754.817 C772.53,719.259 772.509,718.526 767.378,706 C765.012,700.225 761.752,692.133 760.133,688.019 C758.515,683.904 757.024,680.371 756.82,680.168 C756.617,679.964 754.834,681.031 752.857,682.538 C750.881,684.046 749.076,685.09 748.845,684.859 C748.412,684.427 747.161,674.741 742.854,638.5 C741.482,626.95 739.548,610.894 738.558,602.82 L736.756,588.14 L739.461,584.826 C741.4,582.451 742.638,579.1 743.83,573.005 C744.745,568.327 746.579,559.942 747.906,554.37 C749.233,548.799 750.319,543.52 750.319,542.64 C750.319,541.759 751.625,535.292 753.221,528.269 C754.821,521.231 757.305,504.729 758.755,491.5 C765.46,430.344 765.159,432.125 773.501,404.25 C776.036,395.779 776.442,395.629 786.319,399.5 C794.579,402.737 796.583,402.653 801.879,398.849 L806.266,395.699 L813.432,400.506 C818.279,403.758 821.001,405.02 821.845,404.407 C822.531,403.908 824.675,402.242 826.609,400.705 L830.126,397.91 L839.901,407.983 L849.676,418.057 L853.325,414.494 C858.439,409.5 861.752,399.808 861.517,390.528 C861.403,386.037 861.808,382.893 862.639,381.818 C863.968,380.1 873.607,376.001 876.322,376.001 C877.149,376 887.497,371.275 899.319,365.5 C911.141,359.725 921.489,355.006 922.316,355.013 C923.143,355.02 927.869,353.851 932.819,352.416 C937.769,350.982 946.544,348.445 952.319,346.78 C958.094,345.114 966.196,342.683 970.322,341.376 C980.564,338.133 981.025,338.205 982.379,343.25 C983.007,345.587 984.825,351.123 986.42,355.55 C988.014,359.978 989.319,363.995 989.319,364.477 C989.319,364.959 991.541,372.361 994.257,380.926 C996.973,389.492 1001.719,404.6 1004.804,414.5 C1007.888,424.4 1011.491,435.875 1012.809,440 C1014.128,444.125 1016.405,451.325 1017.869,456 C1019.334,460.675 1021.767,468.325 1023.277,473 C1024.786,477.675 1027.26,485.55 1028.774,490.5 C1033.307,505.313 1036.397,515.18 1038.327,521 C1039.33,524.025 1040.657,529.2 1041.277,532.5 C1041.897,535.8 1043.488,543.675 1044.813,550 C1050.882,578.966 1052.409,586.343 1054.852,598.5 C1056.288,605.65 1058.781,617.215 1060.391,624.201 C1062.002,631.187 1063.319,637.812 1063.319,638.923 C1063.319,640.035 1064.44,645.344 1065.81,650.722 C1067.18,656.1 1068.305,661.633 1068.31,663.019 C1068.315,664.404 1069.9,667.779 1071.831,670.519 C1073.763,673.258 1077.893,679.325 1081.009,684 C1086.043,691.552 1106.868,717.902 1109.856,720.5 C1114.435,724.482 1126.038,740.067 1127.623,744.366 C1130.525,752.234 1133.801,760.74 1137.111,769 C1138.764,773.125 1140.674,778.075 1141.354,780 C1142.554,783.395 1143.276,785.223 1148.864,799 C1151.745,806.104 1155.809,818.64 1157.779,826.5 C1158.468,829.25 1159.992,834.65 1161.164,838.5 C1162.337,842.35 1164.374,849.325 1165.691,854 C1167.008,858.675 1169.298,866.55 1170.78,871.5 C1175.804,888.282 1177.42,894.482 1178.852,902.478 C1179.638,906.866 1181.154,914.516 1182.222,919.478 C1183.289,924.44 1185.562,935.7 1187.271,944.5 C1188.981,953.3 1191.458,965.675 1192.776,972 C1194.093,978.325 1195.456,985.627 1195.803,988.227 C1196.703,994.966 1198.063,994.982 1198.827,988.264 C1199.187,985.094 1200.527,977.325 1201.805,971 C1203.083,964.675 1205.334,952.75 1206.807,944.5 C1208.279,936.25 1210.811,922.922 1212.433,914.881 C1214.94,902.458 1215.386,897.909 1215.407,884.591 C1215.42,875.972 1214.893,863.547 1214.236,856.981 C1213.461,849.244 1213.381,844.594 1214.008,843.771 C1215.769,841.458 1244.689,802.876 1251.989,793.101 C1255.932,787.821 1262.478,778.988 1266.534,773.474 L1273.91,763.448 L1276.134,733.474 C1279.188,692.316 1279.17,684.937 1275.982,672.5 C1274.572,667 1272.299,657.775 1270.931,652 C1269.564,646.225 1267.093,635.875 1265.44,629 C1263.787,622.125 1261.206,607.328 1259.703,596.118 L1256.971,575.736 L1251.895,573.312 C1247.357,571.145 1240.466,567.489 1234.819,564.252 C1233.719,563.621 1227.644,560.305 1221.319,556.883 C1214.994,553.46 1209.733,550.613 1209.629,550.556 C1209.524,550.499 1208.589,545.513 1207.551,539.476 C1205.606,528.162 1205.237,527.375 1194.919,512.5 C1194.156,511.4 1190.633,506 1187.089,500.5 C1183.546,495 1179.336,488.52 1177.733,486.1 C1176.13,483.681 1174.369,480.997 1173.819,480.137 C1173.269,479.277 1169.841,474.056 1166.201,468.536 C1138.862,427.076 1141.176,431.025 1135.001,415.282 C1133.106,410.452 1131.085,405.15 1130.51,403.5 C1129.934,401.85 1127.41,395.55 1124.901,389.5 C1122.391,383.45 1120.33,378.05 1120.322,377.5 C1120.314,376.95 1119.642,375.226 1118.83,373.669 C1118.018,372.112 1116.247,367.837 1114.895,364.169 C1111.129,353.954 1108.774,347.964 1106.445,342.667 C1105.276,340.009 1104.319,337.435 1104.319,336.947 C1104.319,336.459 1103.194,333.6 1101.819,330.594 C1100.444,327.588 1099.319,324.767 1099.319,324.325 C1099.319,323.883 1098.569,321.707 1097.652,319.491 C1096.501,316.709 1093.872,313.798 1089.162,310.091 C1085.409,307.137 1080.872,303.299 1079.079,301.56 C1077.286,299.822 1069.649,293.374 1062.108,287.232 L1048.398,276.064 L1045.108,283.043 L1041.819,290.023 L1039.218,286.856 L1036.616,283.689 L1030.718,286.945 C1014.266,296.026 1014.113,296.088 1012.634,294.219 C1011.886,293.274 1009.987,289.8 1008.414,286.5 C1003.256,275.678 1003.306,275.691 998.258,283.871 C995.838,287.792 993.543,291 993.157,291 C992.771,291 991.494,289.65 990.319,288 C989.144,286.35 987.739,285 987.196,285 C986.654,285 981.172,288.397 975.015,292.549 C968.857,296.701 959.838,302.784 954.973,306.066 C950.108,309.348 944.483,312.433 942.473,312.922 C940.463,313.41 929.594,317.04 918.319,320.988 C907.044,324.935 896.469,328.523 894.819,328.96 C893.169,329.398 889.344,330.645 886.319,331.733 C876.208,335.368 866.844,338.029 864.214,338.014 C861.787,338.001 861.217,336.992 855.877,323.25 C846.036,297.929 844.881,295.669 838.107,288.479 L831.819,281.804 L808.319,282.522 C795.394,282.916 783.776,283.636 782.502,284.121 C780.554,284.861 780.268,284.722 780.713,283.251 C781.005,282.288 781.696,278.575 782.249,275 C783.487,267.003 786.83,249.013 789.682,235 L791.819,224.5 L784.976,216 C781.213,211.325 777.745,206.6 777.271,205.5 C776.796,204.4 774.701,200.974 772.614,197.888 C770.527,194.801 766.413,188.613 763.473,184.138 C760.532,179.662 757.72,176 757.223,176 C756.726,176 754.182,177.112 751.57,178.471 C748.957,179.83 741.082,183.655 734.069,186.971 C724.739,191.382 721.319,193.479 721.319,194.787 C721.319,195.889 720.509,196.635 719.206,196.734 C718.044,196.821 716.89,197.095 716.642,197.343 C716.395,197.591 717.387,201.713 718.849,206.504 C720.771,212.805 721.203,215.516 720.412,216.307 C719.693,217.026 719.306,224.603 719.281,238.45 C719.258,250.959 718.526,266.651 717.477,277.124 L715.71,294.748 L706.887,304.341 C699.938,311.897 697.72,313.746 696.442,313.047 C695.549,312.559 690.994,309.083 686.319,305.323 C681.644,301.563 675.794,297.184 673.319,295.593 C670.844,294.002 665.894,290.554 662.319,287.93 C658.744,285.307 649.969,278.87 642.819,273.626 C620.862,257.522 621.905,258.521 608.241,240.5 C602.82,233.35 597.099,225.925 595.528,224 C593.087,221.009 590.674,215.263 585.24,199.5 C574.239,167.59 565.832,142.559 559.262,122.153 L555.931,111.806 L552.288,112.389 C548.645,112.972 548.644,112.97 545.949,106.931 L543.254,100.891 L537.536,104.1 C534.392,105.866 531.144,107.863 530.319,108.539 C528.301,110.191 520.657,114 519.359,114 C518.787,114 518.319,113.214 518.319,112.252 C518.319,111.291 517.021,106.454 515.435,101.502 C512.785,93.232 511.346,88.573 504.773,67 C503.516,62.875 501.502,56.35 500.296,52.5 C497.467,43.464 495.127,34.948 494.889,32.819 C494.785,31.895 491.127,27.002 486.76,21.946 C482.392,16.891 476.433,9.884 473.517,6.377 C470.6,2.87 467.675,0.015 467.017,0.032915351 C466.358,0.052 464.694,0.977 463.319,2.09 M475.319,117.53 C475.319,118.922 474.184,124.885 472.798,130.78 C470.379,141.064 468.545,149.233 462.756,175.5 C461.302,182.1 458.983,192.211 457.604,197.968 L455.097,208.436 L458.958,211.703 C461.082,213.5 463.094,214.977 463.43,214.985033 C464.233,215.005 465.3,205.934 465.309,199 C465.323,188.899 469.427,150.566 471.037,145.5 C472.908,139.612 474.615,136.648 478.626,132.322 C481.89,128.8 481.842,127.233 478.221,119.285 C475.979,114.364 475.319,113.965 475.319,117.53 M529.733,223.575 C528.284,226.834 526.306,231.3 525.339,233.5 C524.371,235.7 522.61,239.657 521.424,242.293 C517.63,250.728 516.055,255.069 516.592,255.606 C517.375,256.39 551.353,282.122 562.819,290.616 C568.319,294.69 573.719,298.849 574.819,299.858 C575.919,300.866 581.094,304.791 586.319,308.579 C591.544,312.367 596.269,315.961 596.819,316.565 C599.691,319.719 608.527,325.106 610.362,324.822 C612,324.568 609.624,322.065 599.139,313 C591.824,306.675 582.684,298.52 578.829,294.878 C574.973,291.235 566.347,283.491 559.66,277.667 C550.269,269.49 547.219,266.217 546.265,263.29 C545.586,261.205 543.935,257.091 542.598,254.147 C541.26,251.202 539.809,246.702 539.373,244.147 C537.948,235.789 534.008,219.521 533.179,218.575 C532.729,218.061 531.197,220.283 529.733,223.575 M438.825,282.181 C438.444,284.557 437.093,291 435.822,296.5 C434.551,302 432.304,312.125 430.828,319 C429.353,325.875 427.703,333.231 427.163,335.347 C425.665,341.213 426.815,340.755 428.608,334.771 C429.477,331.872 433.179,320.95 436.835,310.5 C443.001,292.871 444.625,287.881 445.978,282.39 C446.342,280.916 445.944,280.122 444.659,279.754 C443.647,279.464 442.076,278.92 441.169,278.545 C439.834,277.993 439.386,278.688 438.825,282.181 M1033.058,327.72 C1027.087,328.048 1026.397,328.291 1027.143,329.796 C1027.608,330.733 1028.562,334.2 1029.263,337.5 C1029.964,340.8 1031.451,347.1 1032.567,351.5 C1033.683,355.9 1035.155,362.2 1035.837,365.5 C1036.519,368.8 1038.059,375.55 1039.259,380.5 C1042.711,394.733 1045.988,408.562 1048.859,421 C1050.318,427.325 1052.795,437.9 1054.361,444.5 C1055.928,451.1 1058.429,461.675 1059.919,468 C1061.408,474.325 1063.628,482.425 1064.851,486 C1066.075,489.575 1069.637,500.6 1072.768,510.5 C1078.723,529.331 1082.064,539.779 1085.876,551.5 C1087.128,555.35 1090.729,566.6 1093.877,576.5 C1101.844,601.55 1105.684,612.974 1109.842,624 C1114.02,635.08 1116.99,643.184 1118.547,647.75 C1119.156,649.538 1120.008,651 1120.441,651 C1120.874,651 1125.806,645.6 1131.401,639 C1136.997,632.4 1141.703,627 1141.861,627 C1142.018,627 1144.513,631.388 1147.406,636.75 C1163.145,665.926 1165.297,669.959 1167.558,674.5 C1168.653,676.7 1170.122,679.175 1170.822,680 C1171.523,680.825 1172.4,683.075 1172.771,685 C1173.768,690.169 1182.335,719.759 1185.8,730 C1187.899,736.204 1189.35,740.733 1199.896,774 C1202.424,781.975 1206.022,793 1207.893,798.5 C1211.099,807.93 1211.292,808.243 1211.281,804 C1211.274,801.525 1212.263,792.255 1213.479,783.399 L1215.689,767.298 L1213.486,741.399 C1212.274,727.155 1211.291,712.376 1211.301,708.557 C1211.314,703.561 1210.47,698.935 1208.291,692.057 C1204.85,681.195 1203.986,678.373 1198.787,661 C1196.73,654.125 1190.761,635.537 1185.524,619.694 L1176.002,590.887 L1177.661,587.41 C1179.849,582.821 1179.766,581.645 1176.873,576.147 C1175.528,573.591 1172.416,567.225 1169.957,562 C1167.499,556.775 1162.524,546.285 1158.903,538.69 C1155.282,531.094 1152.319,524.717 1152.319,524.519 C1152.319,524.1 1138.834,495.755 1133.755,485.5 C1131.849,481.65 1130.296,478.144 1130.304,477.71 C1130.312,477.275 1129.481,475.7 1128.456,474.21 C1127.432,472.719 1123.054,465.2 1118.729,457.5 C1114.404,449.8 1110.107,442.15 1109.18,440.5 C1108.253,438.85 1106.645,435.925 1105.605,434 C1103.883,430.81 1093.848,413.095 1087.477,402 C1086.056,399.525 1084.157,396.15 1083.256,394.5 C1082.355,392.85 1079.697,388.125 1077.348,384 C1074.999,379.875 1070.18,371.325 1066.639,365 C1063.098,358.675 1059.787,352.825 1059.281,352 C1058.51,350.744 1049.132,333.953 1046.434,329 C1045.544,327.366 1043.335,327.155 1033.058,327.72"/><path fill-opacity=".463" d="M455.706,9.29 C449.594,14.355 439.645,22.655 433.597,27.733 L422.601,36.966 L421.447,57.733 C418.351,113.448 413.867,174.786 412.812,175.84 C412.608,176.045 408.646,173.127 404.009,169.356 L395.578,162.5 L382.801,135.742 L370.023,108.983 L365.921,111.39 C363.665,112.714 358.342,115.853 354.093,118.367 L346.367,122.938 L343.593,118.239 C342.067,115.655 340.369,112.783 339.819,111.858 C339.269,110.932 336.812,106.521 334.359,102.055 L329.899,93.935 L304.738,119.081 L279.576,144.228 L278.43,153.364 C277.8,158.389 276.17,170.713 274.808,180.751 C272.433,198.255 270.226,214.575 264.867,254.251 C261.246,281.058 256.524,315.142 253.749,334.5 C252.408,343.85 251.313,353.209 251.315,355.299 C251.318,358.083 250.274,360.621 247.406,364.799 C245.254,367.934 240.477,375.225 236.791,381 C233.105,386.775 229.084,393.075 227.856,395 C226.627,396.925 220.758,406.15 214.814,415.5 C208.869,424.85 202.124,435.425 199.824,439 C197.525,442.575 193.919,448.2 191.811,451.5 C189.704,454.8 185.657,461.1 182.819,465.5 C171.922,482.391 167.479,489.674 165.128,494.5 C160.659,503.673 157.531,510.424 153.658,519.249 C151.547,524.061 149.326,527.814 148.724,527.59 C148.122,527.365 145.647,528.077 143.224,529.172 C140.801,530.267 134.094,532.963 128.319,535.163 C122.544,537.364 116.469,539.796 114.819,540.569 C113.169,541.342 107.319,543.711 101.819,545.832 C92.136,549.567 91.668,549.893 87.06,556.095 C84.442,559.618 80.503,564.75 78.307,567.5 C76.11,570.25 71.502,576.342 68.066,581.038 C64.63,585.734 60.065,591.712 57.921,594.322 C55.702,597.023 53.045,601.958 51.75,605.783 C50.499,609.477 48.076,616.325 46.365,621 C44.654,625.675 41.277,635.125 38.861,642 C31.349,663.377 30.208,666.367 27.796,671 C25.759,674.915 22.019,686.049 20.86,691.648 C20.65,692.666 19.337,698.9 17.943,705.5 C16.549,712.1 14.238,723.575 12.806,731 C8.48,753.437 5.634,767.818 2.747,781.836 L0,795.171 L2.573,805.836 C3.988,811.701 6.271,821.45 7.646,827.5 C10.029,837.984 12.645,849.351 17.773,871.5 C19.046,877 21.303,886.9 22.788,893.5 C27.226,913.226 28.711,918.628 29.111,916.5 C29.318,915.4 30.516,910.9 31.775,906.5 C33.033,902.1 35.276,894 36.758,888.5 C38.241,883 40.359,875.35 41.467,871.5 C42.574,867.65 44.3,861.35 45.302,857.5 C47.479,849.132 49.598,841.459 52.897,830 C54.243,825.325 55.339,820.947 55.332,820.271 C55.298,816.976 60.964,802.721 64.781,796.5 C67.143,792.65 69.854,787.967 70.804,786.094 C71.754,784.221 72.953,782.196 73.469,781.594 C74.299,780.625 84.55,763.38 92.548,749.5 C94.133,746.75 97.715,740.675 100.507,736 C103.3,731.325 109.631,720.3 114.576,711.5 C119.522,702.7 125.601,691.9 128.086,687.5 C130.572,683.1 133.7,677.475 135.039,675 C136.378,672.525 138.232,669.15 139.158,667.5 C140.084,665.85 143.713,659.358 147.222,653.074 C152.913,642.88 155.626,639.471 172.388,621.452 C184.189,608.766 190.823,600.904 190.229,600.31 C189.058,599.139 187.236,593 188.06,593 C188.391,593 189.495,593.754 190.514,594.676 C191.732,595.779 192.704,596.015 193.353,595.366 C193.896,594.823 212.698,557.682 235.136,512.829 C262.927,457.277 276.354,429.401 277.255,425.389 C277.982,422.15 279.58,415.45 280.806,410.5 C282.032,405.55 284.293,396.1 285.831,389.5 C287.369,382.9 289.907,372.754 291.473,366.954 C293.038,361.154 294.319,355.639 294.319,354.698 C294.319,353.756 295.419,348.827 296.764,343.743 C298.109,338.659 300.332,329.775 301.704,324 C303.076,318.225 305.571,307.875 307.247,301 C309.944,289.94 314.84,269.592 322.886,236 C324.269,230.225 326.689,220.325 328.263,214 C333.12,194.486 335.457,184.764 336.912,178.02 C337.681,174.456 338.988,169.212 339.815,166.366 C340.642,163.521 341.319,160.211 341.319,159.013 C341.319,155.585 342.945,156.915 349.876,166.016 C353.429,170.682 360.27,179.614 365.078,185.865 C375.367,199.243 388.986,217.07 398.91,230.152 L406.001,239.5 L405.103,249 C404.609,254.225 403.129,268.175 401.814,280 C400.498,291.825 399.182,304.958 398.889,309.184 C398.308,317.552 397.89,318.478 376.809,358 C368.723,373.16 358.303,393.012 351.615,406 C349.774,409.575 346.674,416.1 344.725,420.5 C342.777,424.9 340.134,430.75 338.851,433.5 C335.239,441.247 331.758,448.997 329.308,454.75 C327.914,458.024 326.46,459.998 325.446,459.994 C324.551,459.991 319.769,457.304 314.819,454.023 C309.869,450.742 305.361,448.044 304.801,448.028 C304.241,448.013 298.949,457.788 293.04,469.75 C282.12,491.861 282.08,491.973 276.741,516.401 C275.104,523.892 275.104,525.035 276.753,538.401 C277.709,546.156 279.83,561.5 281.466,572.5 C284.169,590.678 284.578,596.965 285.955,641.5 C287.292,684.736 287.697,691.159 289.395,696.103 C290.949,700.629 291.316,704.471 291.303,716.103 C291.293,724.021 292.174,741.75 293.259,755.5 C294.345,769.25 295.944,790.4 296.814,802.5 C297.683,814.6 299.01,827.65 299.762,831.5 C304.456,855.525 306.746,866.734 308.892,876.182 C310.227,882.057 311.319,887.734 311.319,888.798 C311.319,889.861 312.382,895.629 313.68,901.616 C315.894,911.819 320.157,932.768 322.474,944.828 C323.037,947.758 323.666,949.987 323.872,949.78 C324.078,949.574 324.519,938.627 324.852,925.453 C325.689,892.34 330.379,807.799 331.885,798.692 C332.46,795.213 332.632,795.041 333.885,796.692 C335.059,798.242 335.261,795.427 335.296,777 C335.334,756.666 336.864,737.179 339.222,727 C339.795,724.525 341.659,716.2 343.365,708.5 C345.07,700.8 347.543,689.775 348.859,684 C350.175,678.225 352.445,668.1 353.903,661.5 C355.36,654.9 357.811,644.1 359.349,637.5 C360.886,630.9 363.347,620.1 364.818,613.5 C366.288,606.9 368.915,595.912 370.655,589.083 C373.703,577.122 373.952,576.59 377.438,574.583 C379.428,573.437 383.928,570.745 387.438,568.6 L393.819,564.7 L397.319,553.851 C399.244,547.884 401.044,543.016 401.319,543.033 C401.594,543.05 403.711,545.862 406.024,549.282 C408.337,552.702 411.136,556.625 412.244,558 C414.251,560.491 422.468,571.809 432.525,585.936 L437.819,593.373 L438.992,559.436 C439.637,540.771 440.594,522.35 441.117,518.5 C443.433,501.484 446.679,481.328 449.412,467 C451.37,456.733 452.36,448.416 452.344,442.364 L452.319,433.229 L459.947,426.55 C464.142,422.876 469.45,418.457 471.741,416.73 L475.908,413.589 L477.645,382.045 C478.601,364.695 479.368,347.247 479.351,343.272 C479.326,337.674 479.868,334.856 481.756,330.772 C484.401,325.052 486.789,319.704 490.699,310.75 C492.079,307.587 493.579,305 494.032,305 C494.484,305 503.621,309.44 514.337,314.867 C525.052,320.294 546.194,331.003 561.319,338.664 C576.444,346.326 591.329,354.373 594.397,356.547 C597.466,358.721 603.316,362.909 607.397,365.854 C611.479,368.798 616.281,371.919 618.069,372.789 C619.857,373.659 621.319,374.774 621.319,375.267 C621.319,375.76 619.662,378.185 617.637,380.657 L613.955,385.15 L615.707,396.134 C616.67,402.176 619.284,414.404 621.515,423.309 C623.746,432.214 625.627,440.11 625.695,440.857 C625.766,441.635 622.623,443.63 618.319,445.538 L610.819,448.864 L610.537,459.277 L610.254,469.69 L615.39,478.145 L620.526,486.6 L630.422,486.84 C644.27,487.177 647.725,485.967 651.999,479.287 L655.397,473.974 L652.345,469.538 C650.667,467.098 648.849,464.828 648.306,464.492 C646.441,463.339 647.337,462.308 655.069,456.716 C668.242,447.189 668.277,447.14 673.782,430.714 L678.737,415.928 L686.16,410.214 C690.243,407.071 694.4,403.899 695.397,403.164 C696.974,402.002 697.791,402.229 701.688,404.91 L706.165,407.99 L705.716,415.745 C705.207,424.525 701.496,468.067 697.766,509 C696.389,524.125 695.291,538.525 695.327,541 C695.363,543.475 694.264,554.05 692.886,564.5 C689.025,593.759 684.424,630.814 683.793,637.727 C683.481,641.152 682.619,646.102 681.879,648.727 C679.708,656.423 679.202,660.19 680.441,659.424 C681.14,658.992 681.336,659.424 680.986,660.625 C680.684,661.656 680.171,665.2 679.846,668.5 C679.52,671.8 678.742,678.911 678.118,684.303 L676.982,694.106 L683.341,700.522 C687.933,705.155 690.311,708.544 691.9,712.719 C693.111,715.899 695.347,721.65 696.87,725.5 C699.969,733.334 701.073,742.823 701.225,762.927 C701.302,773.093 701.846,777.458 704.217,786.927 C707.305,799.257 711.469,816.945 715.888,836.5 C717.38,843.1 719.662,852.611 720.959,857.635 C723.224,866.402 723.318,868.196 723.304,902.135 C723.296,921.586 722.403,959.55 721.319,986.5 C720.235,1013.45 719.351,1038.65 719.355,1042.5 L719.361,1049.5 L721.903,1042.5 C723.301,1038.65 725.271,1033.25 726.28,1030.5 C727.29,1027.75 729.267,1022.35 730.674,1018.5 C732.08,1014.65 734.859,1007.225 736.848,1002 C738.838,996.775 741.067,990.7 741.802,988.5 C742.537,986.3 745.578,977.975 748.561,970 L753.985,955.5 L756.126,928 C757.304,912.875 759.211,888.575 760.365,874 C761.518,859.425 762.876,838.05 763.382,826.5 C764.323,805.021 765.226,792.046 767.801,763 C768.605,753.925 769.772,739.975 770.393,732 L771.523,717.5 L767.354,707 C765.062,701.225 762.091,693.969 760.752,690.875 C759.414,687.781 758.312,684.856 758.304,684.375 C758.295,683.894 757.881,682.857 757.384,682.07 C756.638,680.892 755.838,681.129 752.833,683.421 C750.828,684.951 749.02,686.034 748.815,685.83 C748.384,685.399 744.587,656.261 740.823,624.5 C739.389,612.4 737.839,599.35 737.379,595.5 C736.574,588.773 736.649,588.362 739.306,584.963 C740.877,582.953 742.361,579.499 742.743,576.963 C743.112,574.508 744.493,567.55 745.813,561.5 C748.194,550.581 752.256,531.473 754.847,519 C755.589,515.425 756.92,505.75 757.804,497.5 C763.921,440.421 766.769,422.633 772.266,407.148 C773.395,403.968 774.319,400.411 774.319,399.242 C774.319,398.074 774.791,396.826 775.368,396.469 C775.946,396.113 780.92,397.267 786.423,399.034 L796.429,402.246 L800.124,399.309 C802.156,397.694 804.378,396.039 805.061,395.632 C806.266,394.914 813.378,399.107 818.005,403.264 L820.19,405.228 L825.346,400.88 L830.503,396.532 L832.621,399.516 C835.919,404.163 848.526,417 849.792,417 C850.416,417 852.324,415.538 854.031,413.75 C857.942,409.656 861.311,398.662 861.341,389.892 C861.357,385.337 861.86,382.897 863.091,381.403 C864.043,380.247 869.083,377.815 874.319,375.984 C879.544,374.158 890.794,369.197 899.319,364.961 C907.844,360.725 917.969,356.319 921.819,355.171 C925.669,354.023 933.769,351.661 939.819,349.923 C945.869,348.184 954.644,345.64 959.319,344.269 C963.994,342.897 969.844,341.198 972.319,340.492 C974.794,339.786 977.805,338.915 979.011,338.555 C981.356,337.856 981.782,339.012 994.819,381.5 C996.845,388.1 999.098,395.3 999.826,397.5 C1000.555,399.7 1002.613,406.225 1004.399,412 C1006.186,417.775 1008.533,424.975 1009.616,428 C1010.698,431.025 1011.921,435.075 1012.334,437 C1012.746,438.925 1014.044,443.2 1015.218,446.5 C1016.391,449.8 1022.459,468.925 1028.701,489 C1039.736,524.49 1041.239,530.191 1046.767,557.5 C1049.733,572.152 1053.072,588.145 1057.309,608 C1058.894,615.425 1061.391,627.35 1062.858,634.5 C1069.916,668.896 1069.164,666.921 1081.636,683.86 C1084.212,687.358 1086.336,690.733 1086.357,691.36 C1086.379,691.987 1088.423,694.75 1090.9,697.5 C1093.377,700.25 1102.391,710.967 1110.931,721.315 C1123.759,736.86 1126.888,741.292 1128.935,746.815 C1130.297,750.492 1132.066,754.918 1132.866,756.651 C1133.665,758.384 1134.319,760.104 1134.319,760.474 C1134.319,761.18 1147.826,795.926 1151.434,804.5 C1152.591,807.25 1154.099,811.75 1154.785,814.5 C1155.471,817.25 1156.991,822.65 1158.163,826.5 C1159.334,830.35 1161.594,838 1163.183,843.5 C1164.773,849 1167.075,856.875 1168.299,861 C1169.522,865.125 1170.9,870.3 1171.36,872.5 C1171.82,874.7 1172.905,878.485 1173.77,880.911 C1175.607,886.059 1179.655,902.66 1181.352,912 C1182.001,915.575 1183.614,923.45 1184.935,929.5 C1186.256,935.55 1187.327,941.4 1187.314,942.5 C1187.302,943.6 1188.401,949.675 1189.756,956 C1191.112,962.325 1193.212,972.337 1194.422,978.25 C1195.633,984.162 1196.957,989 1197.365,989 C1197.773,989 1198.881,984.613 1199.827,979.25 C1200.772,973.888 1202.429,965.225 1203.509,960 C1204.588,954.775 1206.083,946.6 1206.831,941.833 C1207.579,937.067 1209.079,928.742 1210.165,923.333 C1215.489,896.82 1216.136,886.128 1213.822,862.897 L1212.068,845.294 L1221.458,832.897 C1226.623,826.079 1232.512,818.25 1234.546,815.5 C1236.58,812.75 1241.523,806.135 1245.531,800.8 C1249.54,795.464 1255.72,787.139 1259.265,782.3 C1262.81,777.46 1267.6,771.25 1269.908,768.5 L1274.105,763.5 L1274.735,749.5 C1275.082,741.8 1276.119,724.593 1277.038,711.262 C1278.624,688.279 1278.62,686.649 1276.956,679.762 C1275.991,675.768 1274.049,667.55 1272.64,661.5 C1271.232,655.45 1269.046,646.225 1267.782,641 C1260.959,612.777 1261.204,614.161 1258.231,586.982 L1257.081,576.463 L1253.45,574.8 C1251.453,573.884 1248.694,572.449 1247.319,571.61 C1245.944,570.771 1236.719,565.721 1226.819,560.388 C1216.919,555.055 1208.71,550.614 1208.576,550.519 C1208.442,550.425 1207.861,545.75 1207.284,540.131 L1206.236,529.915 L1197.456,516.707 C1188.276,502.898 1177.031,485.775 1163.827,465.5 C1159.528,458.9 1152.474,448.201 1148.151,441.724 C1143.828,435.247 1139.671,428.272 1138.912,426.224 C1137.585,422.639 1132.51,409.631 1130.828,405.5 C1130.38,404.4 1129.235,401.475 1128.283,399 C1127.331,396.525 1125.105,390.9 1123.337,386.5 C1121.569,382.1 1119.47,376.7 1118.674,374.5 C1117.878,372.3 1116.348,368.592 1115.273,366.261 C1114.198,363.929 1113.319,361.604 1113.319,361.094 C1113.319,360.583 1112.362,357.991 1111.193,355.333 C1108.864,350.036 1106.509,344.046 1102.743,333.831 C1101.391,330.163 1099.62,325.888 1098.808,324.331 C1097.996,322.774 1097.329,320.728 1097.325,319.783 C1097.317,317.482 1092.949,313.251 1078.194,301.255 C1071.388,295.722 1062.219,288.007 1057.819,284.111 C1053.419,280.215 1049.456,277.022 1049.013,277.014 C1048.569,277.006 1047.303,279.137 1046.198,281.75 C1042.017,291.638 1042.49,291.264 1039.08,287.381 C1037.101,285.126 1035.69,284.266 1034.947,284.861 C1034.327,285.357 1031.344,287.093 1028.319,288.717 C1025.294,290.342 1020.685,292.882 1018.076,294.363 L1013.334,297.056 L1008.601,287.528 C1005.997,282.288 1003.606,278 1003.287,278 C1002.967,278 1000.501,281.315 997.807,285.367 L992.909,292.734 L990.095,288.849 L987.28,284.963 L982.05,288.318 C975.21,292.704 956.167,305.658 954.586,307.001 C951.182,309.89 945.273,312.388 928.819,317.892 C918.919,321.204 902.044,326.915 891.319,330.583 C877.482,335.315 870.236,337.288 866.369,337.376 L860.92,337.5 L859.078,332.5 C858.065,329.75 856.548,326.014 855.706,324.197 C854.864,322.38 853.34,318.555 852.32,315.697 C850.191,309.732 847.065,301.645 845.48,298 C844.882,296.625 841.757,292.618 838.535,289.096 L832.677,282.692 L806.748,283.642 C792.487,284.164 780.611,284.438 780.357,284.25 C780.103,284.063 781.142,277.517 782.666,269.705 C791.779,222.983 791.692,223.64 789.107,221.336 C785.218,217.867 776.216,205.976 776.783,205.057 C777.096,204.552 776.896,203.857 776.34,203.513 C775.783,203.169 771.448,197.063 766.706,189.944 C761.964,182.825 757.621,177 757.056,177 C756.491,177 752.832,178.538 748.924,180.417 C745.016,182.296 737.391,185.889 731.98,188.4 C725.209,191.543 721.975,193.599 721.61,194.994 C721.319,196.11 720.009,197.291 718.7,197.619 C717.39,197.948 716.325,198.281 716.332,198.358 C716.34,198.436 717.672,202.31 719.292,206.966 C721.977,214.681 722.1,215.584 720.678,217.155 C719.363,218.609 719.164,221.672 719.411,236.69 C719.606,248.512 719.068,261.392 717.811,275 L715.918,295.5 L706.934,305.261 L697.951,315.021 L695.385,312.692 C692.899,310.436 685.674,305.104 664.819,290.131 C659.319,286.182 650.319,279.606 644.819,275.517 C639.319,271.428 631.894,265.994 628.319,263.442 C621.802,258.789 618.809,255.287 600.17,230.5 C591.395,218.83 590.996,218.059 585.66,202.5 C582.642,193.7 579.785,185.15 579.311,183.5 C578.837,181.85 575.223,171.275 571.279,160 C567.336,148.725 563.311,136.8 562.334,133.5 C561.358,130.2 559.492,124.216 558.189,120.202 L555.819,112.904 L552.319,113.202 C548.997,113.485 548.692,113.237 546.319,108.314 C544.944,105.461 543.531,102.848 543.179,102.507 C542.827,102.166 537.449,104.808 531.227,108.378 C525.006,111.948 519.586,114.665 519.183,114.416 C518.78,114.167 517.742,111.384 516.876,108.232 C516.01,105.079 514.248,99.125 512.96,95 C508.269,79.971 505.314,70.311 502.715,61.5 C501.255,56.55 498.768,48.449 497.189,43.498 C495.611,38.546 494.319,33.922 494.319,33.221 C494.319,31.56 468.276,-0.152 467.069,0.0391317048 C466.932,0.061 461.818,4.224 455.706,9.29 M474.418,120.75 C473.72,124.463 472.116,132 470.854,137.5 C469.591,143 467.325,153.125 465.819,160 C464.313,166.875 462.026,177 460.737,182.5 C457.909,194.574 455.321,207.071 455.32,208.663 C455.319,209.704 463.348,216.319 463.905,215.737 C464.358,215.263 468.196,172.194 468.782,161 C469.2,153.016 469.945,148.277 471.221,145.5 C472.231,143.3 473.596,140.097 474.255,138.381 C474.914,136.666 476.935,133.826 478.747,132.069 L482.042,128.876 L479.511,121.438 C478.119,117.347 476.688,114 476.333,114 C475.977,114 475.115,117.037 474.418,120.75 M529.024,224.26 C527.486,227.692 525.044,233.2 523.597,236.5 C522.15,239.8 519.882,244.833 518.557,247.685 C517.232,250.537 516.303,253.687 516.492,254.685 C516.682,255.683 527.183,264.305 539.828,273.844 C552.473,283.384 567.769,294.936 573.819,299.516 C579.869,304.096 590.219,311.922 596.819,316.908 C604.594,322.781 609.699,325.966 611.319,325.95304 C613.55,325.936 613.119,325.285 607.319,319.917 C603.744,316.608 592.044,306.209 581.319,296.808 C561.167,279.144 547.319,266.107 547.319,264.8 C547.319,264.388 546.038,261.226 544.472,257.775 C541.87,252.041 537.368,235.322 535.784,225.518 C535.093,221.239 533.688,217.994 532.534,218.009941 C532.141,218.016 530.561,220.829 529.024,224.26 M437.853,285.337 C435.371,296.891 431.578,313.708 428.646,326.157 C424.911,342.014 426.197,342.125 431.634,326.413 C434.283,318.761 438.89,305.536 441.873,297.024 C447.668,280.488 447.666,280.568 442.213,278.271 L439.606,277.174 L437.853,285.337 M1033.501,327.237 C1027.281,328.06 1026.289,328.452 1026.886,329.852 C1027.272,330.759 1027.923,333.3 1028.333,335.5 C1029.028,339.226 1030.695,346.326 1036.786,371.5 C1038.117,377 1040.404,386.675 1041.868,393 C1043.332,399.325 1045.342,407.65 1046.333,411.5 C1047.324,415.35 1048.425,420.075 1048.778,422 C1049.131,423.925 1050.779,431.125 1052.44,438 C1056.851,456.258 1060.102,470.081 1060.789,473.5 C1061.438,476.731 1068.836,500.458 1073.261,513.5 C1074.753,517.9 1077.173,525.325 1078.638,530 C1080.102,534.675 1082.816,543.225 1084.669,549 C1086.521,554.775 1090.199,566.25 1092.841,574.5 C1100.889,599.631 1108.083,621.008 1111.855,631 C1113.827,636.225 1116.362,643.109 1117.487,646.297 C1118.613,649.486 1119.862,651.961 1120.262,651.797 C1120.663,651.634 1123.739,648.35 1127.098,644.5 C1130.458,640.65 1135.175,635.289 1137.581,632.587 L1141.956,627.674 L1156.233,654.087 C1168.905,677.531 1174.159,689.367 1175.888,698.363 C1176.42,701.131 1180.643,715.427 1183.756,725 C1185.097,729.125 1188.511,739.925 1191.342,749 C1194.173,758.075 1197.724,769.1 1199.232,773.5 C1200.741,777.9 1203.228,785.55 1204.76,790.5 C1206.292,795.45 1207.795,800.175 1208.1,801 C1208.405,801.825 1208.93,804.975 1209.266,808 C1209.871,813.453 1209.891,813.402 1211.529,802 C1212.438,795.675 1213.699,785.778 1214.331,780.007 C1214.964,774.236 1215.537,769.286 1215.605,769.007 C1215.673,768.728 1215.18,760.625 1214.509,751 C1213.838,741.375 1212.814,726.075 1212.234,717 C1211.653,707.925 1210.564,698.475 1209.813,696 C1209.062,693.525 1207.293,687.675 1205.882,683 C1201.164,667.372 1197.222,654.568 1194.759,646.879 C1193.417,642.687 1192.319,638.519 1192.319,637.615 C1192.319,636.712 1191.866,635.191 1191.312,634.236 C1189.417,630.967 1177.319,593.215 1177.319,590.57 C1177.319,589.118 1178.031,586.842 1178.902,585.513 C1180.414,583.206 1180.251,582.611 1175.285,572.299 C1172.426,566.359 1165.151,550.925 1159.12,538 C1153.09,525.075 1147.372,512.925 1146.415,511 C1145.458,509.075 1143.49,505.025 1142.042,502 C1132.704,482.491 1125.487,468.259 1120.744,460 C1115.414,450.72 1106.323,434.672 1103.31,429.227 C1101.264,425.527 1087.696,401.584 1084.483,396 C1083.059,393.525 1081.17,390.15 1080.285,388.5 C1078.302,384.803 1074.633,378.323 1067.654,366.199 C1064.71,361.084 1061.068,354.631 1059.56,351.86 C1058.053,349.089 1056.135,345.625 1055.298,344.161 C1054.462,342.697 1051.843,338.012 1049.478,333.75 C1044.706,325.147 1045.829,325.605 1033.501,327.237 M425.398,342.583 C425.446,343.748 425.683,343.985 426.002,343.188 C426.291,342.466 426.255,341.603 425.923,341.271 C425.591,340.939 425.355,341.529 425.398,342.583 M655.466,428.691 C655.383,433.907 655.751,438.149 656.319,438.5 C657.463,439.207 657.477,434.521 656.357,425.5 C655.627,419.614 655.61,419.675 655.466,428.691"/><path fill-opacity=".404" d="M465.087,2 C464.4,3.1 463.422,4 462.915,4 C462.407,4 459.028,6.613 455.405,9.806 C451.783,13 442.857,20.457 435.569,26.378 L422.319,37.143 L422.302,47.322 C422.293,52.92 421.4,68.975 420.317,83 C419.235,97.025 417.886,117.725 417.32,129 C416.418,146.988 413.72,174.862 412.785,175.849 C412.604,176.04 408.712,173.324 404.137,169.813 C397.073,164.392 395.341,162.455 392.646,156.965 C390.901,153.409 385.053,141.341 379.65,130.147 L369.826,109.794 L367.634,114.647 C366.428,117.316 365.414,120.376 365.38,121.446 C365.327,123.128 364.859,122.946 361.936,120.114 L358.554,116.835 L352.252,120.115 C348.146,122.252 345.815,122.989 345.562,122.23 C345.349,121.59 344.072,119.441 342.724,117.456 C341.377,115.47 339.148,111.743 337.772,109.173 C334.917,103.842 330.247,95.722 329.646,95.045 C329.425,94.795 318.01,105.817 304.281,119.538 C281.094,142.711 279.32,144.734 279.338,147.992 C279.348,149.922 278.249,159.15 276.896,168.5 C275.544,177.85 273.257,194.275 271.816,205 C270.374,215.725 267.887,233.95 266.288,245.5 C264.689,257.05 262.224,275.05 260.809,285.5 C259.395,295.95 257.159,312.375 255.841,322 C254.523,331.625 252.906,344 252.247,349.5 C251.06,359.409 250.985,359.6 244.046,370.5 C240.195,376.55 236.209,382.625 235.188,384 C234.167,385.375 232.588,387.843 231.679,389.484 C229.523,393.375 220.2,407.95 215.228,415.201 C213.078,418.337 211.319,421.132 211.319,421.414 C211.319,421.695 206.931,428.689 201.569,436.955 C196.206,445.221 187.769,458.336 182.819,466.098 C177.869,473.861 171.906,483.181 169.569,486.809 C167.231,490.438 165.319,493.842 165.319,494.374 C165.319,494.906 163.921,498.303 162.212,501.921 C160.503,505.539 157.974,510.975 156.592,514 C150.314,527.739 149.827,528.493 147.106,528.677 C145.666,528.774 141.337,530.236 137.486,531.927 C133.635,533.617 129.862,535 129.101,535 C128.341,535 127.292,535.389 126.769,535.865 C126.247,536.341 122.444,537.981 118.319,539.509 C114.194,541.037 110.369,542.608 109.819,543 C109.269,543.392 105.559,544.941 101.574,546.442 C97.59,547.943 93.47,549.92 92.418,550.835 C91.276,551.83 89.44,556.525 87.856,562.5 C81.946,584.795 81.226,587.596 80.812,589.888 C80.575,591.201 79.637,594.801 78.729,597.888 C77.821,600.975 76.497,606.2 75.787,609.5 C74.53,615.348 71.574,621.473 47.074,669 C41.262,680.275 36.221,691.075 35.871,693 C35.146,696.995 31.717,712.246 27.818,728.822 C26.354,735.049 24.994,741.349 24.798,742.822 C24.468,745.291 22.676,753.148 17.14,776.4 L15.021,785.3 L17.23,806.9 C23.141,864.699 24.131,874.791 24.255,878.5 C24.401,882.872 28.226,915.24 28.646,915.66 C28.789,915.803 29.465,913.801 30.148,911.21 C30.831,908.62 32.71,901.775 34.324,896 C35.937,890.225 38.462,881 39.935,875.5 C41.408,870 43.897,861.175 45.466,855.889 C47.035,850.603 48.319,845.68 48.319,844.948 C48.319,844.217 49.413,839.992 50.75,835.559 C52.087,831.127 54.611,822.325 56.357,816 C58.104,809.675 60.547,802.925 61.787,801 C64.409,796.931 77.089,775.422 79.38,771.159 C80.834,768.454 84.292,762.607 102.84,731.5 C106.775,724.9 110.673,718.15 111.502,716.5 C112.331,714.85 118.329,704.05 124.83,692.5 C131.332,680.95 137.536,669.7 138.617,667.5 C139.698,665.3 140.872,663.275 141.225,663 C141.578,662.725 143.059,660.164 144.515,657.308 C150.343,645.881 155.406,638.175 159.663,634.251 C162.124,631.982 170.103,623.767 177.395,615.995 L190.651,601.863 L188.439,597.311 C187.223,594.807 186.479,592.507 186.786,592.2 C187.092,591.893 188.683,592.632 190.32,593.842 L193.295,596.042 L234.807,513.024 C257.639,467.363 276.319,429.075 276.319,427.939 C276.319,426.803 277.617,421.065 279.204,415.187 C283.448,399.467 286.486,387.097 287.354,382 C287.776,379.525 289.035,374.125 290.152,370 C291.269,365.875 293.357,357.55 294.792,351.5 C299.476,331.759 303.408,315.644 305.407,308 C306.486,303.875 307.75,298.475 308.216,296 C308.683,293.525 310.084,287.45 311.329,282.5 C312.575,277.55 314.916,268.1 316.532,261.5 C318.148,254.9 320.542,245.225 321.852,240 C323.162,234.775 324.519,228.925 324.868,227 C325.217,225.075 326.33,220.35 327.342,216.5 C328.354,212.65 330.353,204.55 331.783,198.5 C333.214,192.45 335.702,182.1 337.312,175.5 C338.922,168.9 340.601,161.747 341.042,159.604 L341.845,155.708 L348.918,164.604 C352.809,169.497 358.547,176.875 361.669,181 C364.792,185.125 371.843,194.35 377.337,201.5 C382.832,208.65 391.127,219.521 395.77,225.658 C400.413,231.795 404.686,237.109 405.266,237.467 C406.777,238.401 406.65,240.979 403.884,265.5 C402.519,277.6 400.675,294.245 399.786,302.488 C398.592,313.55 397.584,318.659 395.937,321.988 C392.161,329.625 376.411,359.709 360.514,389.649 C354.426,401.117 348.992,411.696 348.441,413.159 C347.383,415.963 340.293,431.713 334.782,443.5 C332.982,447.35 330.545,452.66 329.366,455.3 C328.188,457.939 326.613,460.334 325.866,460.62 C325.12,460.907 320.132,458.153 314.783,454.501 C308.991,450.546 304.692,448.227 304.154,448.765 C303.657,449.262 298.499,459.299 292.691,471.07 C285.021,486.617 281.867,494.116 281.163,498.485 C280.631,501.793 279.323,507.754 278.257,511.732 C275.041,523.733 275.505,529.991 283.873,587.5 C286.089,602.734 286.411,609.019 286.971,648 C287.507,685.26 287.828,691.93 289.206,694.5 C290.735,697.349 290.871,696.02 291.909,668 C292.746,645.436 293.385,637.442 294.629,634 C296.208,629.633 301.048,612.098 301.894,607.684 C302.124,606.483 302.725,604.15 303.23,602.5 C304.086,599.698 304.151,599.665 304.201,602 C304.231,603.375 303.609,609.225 302.819,615 C302.029,620.775 301.368,625.916 301.351,626.425 C301.333,626.933 303.371,624.683 305.879,621.425 C316.433,607.712 334.517,586 335.384,586 C335.862,586 345.098,610.418 349.001,622 C351.051,628.081 347.973,650.89 341.444,678 C340.319,682.675 337.347,695.725 334.84,707 C332.334,718.275 329.825,729.181 329.265,731.236 C328.678,733.389 328.331,745.041 328.446,758.736 C328.596,776.546 328.238,785.131 327.019,793 C326.124,798.775 324.678,809.125 323.805,816 C322.932,822.875 321.791,831.237 321.268,834.582 C320.034,842.487 320.049,850.996 321.359,888.5 C323.109,938.576 323.559,938.195 326.078,884.5 C328.096,841.486 330.578,805.371 332.041,797.75 C332.639,794.634 333.931,794.141 334.663,796.75 C334.933,797.712 334.922,791.3 334.637,782.5 C334.031,763.757 336.837,734.349 340.888,717 C342.236,711.225 344.443,701.55 345.79,695.5 C350.233,675.562 354.301,657.684 357.282,645 C358.898,638.125 361.383,627.325 362.806,621 C367.578,599.776 371.493,583.526 372.65,580.144 C373.749,576.931 380.434,571.781 389.709,567.001 C392.879,565.368 394.971,561.242 398.304,550.052 C399.459,546.173 400.639,543 400.926,543 C401.213,543 402.64,544.417 404.097,546.148 C406.587,549.108 409.68,553.407 426.76,577.648 C430.578,583.067 434.688,588.522 435.895,589.771 L438.088,592.041 L438.708,560.271 C439.361,526.848 440.432,516.379 447.027,479 C449.76,463.507 450.871,454.732 451.875,440.712 L452.505,431.923 L462.461,423.984 C467.936,419.618 473.259,415.455 474.289,414.733 C475.978,413.551 476.223,411.413 476.786,392.961 C477.13,381.707 477.866,364.243 478.422,354.152 L479.433,335.804 L484.904,323.152 C487.913,316.193 491.128,309.059 492.049,307.298 L493.722,304.095 L540.271,327.683 C583.857,349.77 595.609,356.488 610.89,368.054 C614.278,370.618 618.276,373.023 619.775,373.4 C621.785,373.904 622.345,374.532 621.907,375.792 C621.355,377.383 621.406,377.382 622.658,375.776 C623.397,374.828 630.036,372.066 637.41,369.639 C656.461,363.37 656.657,363.343 659.204,366.581 C660.367,368.06 661.319,369.884 661.319,370.635 C661.319,373.164 657.462,372.05 655.66,369 C654.685,367.35 653.623,366 653.299,366 C652.975,366 650.96,369.402 648.821,373.561 C646.681,377.719 644.598,381.328 644.19,381.58 C643.782,381.832 642.159,384.392 640.583,387.269 C632.955,401.195 629.22,407.057 628.328,406.506 C627.895,406.238 627.234,404.796 626.858,403.3 C626.483,401.805 625.135,398.314 623.862,395.541 C622.59,392.768 620.748,388.575 619.769,386.222 C618.79,383.868 617.501,382.103 616.904,382.299 C615.176,382.866 615.082,389.283 616.733,394.074 C617.705,396.897 617.902,398.817 617.283,399.436 C616.753,399.966 616.326,400.873 616.334,401.45 C616.343,402.028 616.831,401.825 617.419,401 C618.226,399.867 618.345,400.357 617.905,403 C617.576,404.976 617.68,405.945 618.145,405.225 C618.71,404.35 619.307,405.056 620.05,407.475 C620.645,409.414 620.735,411 620.25,411 C619.142,411 619.86,415.178 622.831,426 C624.115,430.675 625.46,436.536 625.821,439.023 C626.47,443.489 626.422,443.587 622.058,446.721 C618.951,448.952 616.921,449.737 615.228,449.361 C613.855,449.057 613.266,449.186 613.857,449.663 C614.429,450.123 615.834,452.013 616.98,453.862 C618.958,457.054 618.987,457.484 617.559,462.362 C615.079,470.828 614.836,470.839 614.527,462.5 C614.302,456.444 613.76,453.892 612.297,452 L610.363,449.5 L610.348,459.5 L610.333,469.5 L615.793,477.975 L621.252,486.449 L629.885,486.8 C634.633,486.994 640.741,486.618 643.458,485.967 C647.867,484.909 648.771,484.197 651.884,479.331 L655.37,473.881 L653.181,470.69 C651.977,468.936 650.053,466.451 648.905,465.169 C646.823,462.844 646.823,462.836 648.819,461.388 C650.659,460.054 660.25,452.315 666.074,447.467 C667.803,446.028 669.94,441.212 673.396,430.967 C678.741,415.124 679.682,413.815 691.646,405.575 L697.05,401.853 L702.238,405.045 C706.77,407.834 707.363,408.57 706.927,410.869 C706.653,412.316 705.514,424.075 704.398,437 C700.654,480.321 697.363,519.39 696.352,532.5 C695.359,545.38 693.492,561.25 688.764,597 C687.418,607.175 686.313,617.3 686.307,619.5 C686.302,621.7 685.121,630.475 683.683,639 C682.245,647.525 681.135,656.492 681.216,658.926 C681.297,661.36 680.396,670.066 679.214,678.273 L677.065,693.194 L683.569,699.847 C689.584,705.999 690.454,707.478 695.128,719.5 L700.183,732.5 L701.346,753.5 C701.986,765.05 702.644,774.639 702.807,774.809 C702.971,774.979 704.525,772.729 706.262,769.809 C707.999,766.889 711.392,761.35 713.802,757.5 C716.212,753.65 719.646,748.025 721.433,745 C723.22,741.975 725.725,738.108 727,736.406 C728.276,734.704 729.319,733.025 729.319,732.675 C729.319,731.732 736.152,721.221 737.177,720.588 C737.661,720.289 741.1,725.996 744.82,733.272 C748.539,740.547 752.664,748.368 753.987,750.65 C755.31,752.933 757.496,759.233 758.844,764.65 C762.633,779.875 762.321,797.932 757.283,855 C756.43,864.664 752.25,897.478 750.787,906 C750.551,907.375 749.677,919.075 748.845,932 C747.257,956.665 746.68,960.516 742.626,973.5 C741.252,977.9 739.026,985.1 737.679,989.5 C736.332,993.9 733.934,1001.55 732.35,1006.5 C727.224,1022.52 727.59,1026.064 732.836,1011.205 C734.138,1007.517 736.83,1000.225 738.819,995 C740.808,989.775 743.51,982.575 744.825,979 C746.14,975.425 748.647,968.675 750.397,964 C753.706,955.159 755.038,946.362 755.695,929 C755.893,923.775 757.228,905.1 758.662,887.5 C760.095,869.9 762.639,834.35 764.313,808.5 C765.988,782.65 768.321,751.701 769.497,739.723 L771.636,717.947 L769.574,713.223 C768.441,710.626 766.076,704.9 764.319,700.5 C759.677,688.873 757.005,682.602 756.334,681.763 C756.009,681.357 754.133,682.354 752.163,683.977 C750.193,685.601 748.297,686.645 747.95,686.298 C747.603,685.951 747.329,684.054 747.34,682.083 C747.352,680.112 746.024,668.15 744.389,655.5 C738.982,613.663 736.271,591.527 736.295,589.424 C736.308,588.283 737.444,586.292 738.819,585 C740.194,583.708 741.319,582.055 741.319,581.327 C741.319,580.599 742.632,574.265 744.238,567.251 C745.843,560.238 748.353,548.875 749.816,542 C751.278,535.125 753.326,525.675 754.367,521 C755.408,516.325 756.709,506.875 757.259,500 C757.81,493.125 759.173,480.395 760.289,471.712 C761.406,463.028 762.319,454.028 762.319,451.712 C762.319,446.706 767.316,421.688 770.095,412.782 C771.173,409.327 772.808,403.926 773.729,400.78 L775.403,395.059 L780.611,396.874 C783.475,397.873 788.159,399.472 791.02,400.428 L796.221,402.166 L801.52,398.103 C805.544,395.019 807.06,394.338 807.819,395.275 C808.369,395.954 811.433,398.288 814.629,400.462 C818.743,403.261 820.825,404.135 821.765,403.457 C822.495,402.931 824.787,401.157 826.859,399.515 L830.625,396.529 L832.722,399.47 C833.875,401.088 838.063,405.806 842.028,409.956 L849.237,417.5 L852.868,413.893 C857.851,408.943 861.539,398 861.149,389.318 C860.896,383.696 861.138,382.741 863.342,380.655 C864.704,379.365 869.869,377.032 874.819,375.47 C879.769,373.909 890.794,369.09 899.319,364.762 C907.844,360.434 915.622,356.715 916.604,356.497 C917.585,356.28 922.085,354.963 926.604,353.572 C931.122,352.181 938.869,349.905 943.819,348.514 C948.769,347.123 956.516,344.841 961.034,343.442 C965.553,342.043 970.109,340.733 971.16,340.531 C972.21,340.328 974.813,339.679 976.944,339.087 C982.017,337.679 982.319,337.709 982.319,339.629 C982.319,340.525 983.504,344.912 984.953,349.379 C988.031,358.872 991.844,370.875 995.792,383.5 C997.339,388.45 999.609,395.65 1000.835,399.5 C1002.061,403.35 1004.324,410.55 1005.862,415.5 C1008.579,424.24 1011.337,432.985 1016.584,449.5 C1017.981,453.9 1020.797,462.9 1022.84,469.5 C1024.883,476.1 1027.344,483.975 1028.309,487 C1029.275,490.025 1031.318,496.55 1032.85,501.5 C1034.382,506.45 1036.649,513.65 1037.888,517.5 C1039.127,521.35 1041.348,530.35 1042.824,537.5 C1044.3,544.65 1046.838,556.8 1048.463,564.5 C1051.503,578.9 1054.36,592.55 1058.72,613.5 C1060.093,620.1 1062.583,632.025 1064.253,640 C1065.922,647.975 1067.77,657.055 1068.359,660.177 C1069.02,663.677 1070.636,667.512 1072.575,670.177 C1074.305,672.555 1078.402,678.55 1081.679,683.5 C1087.286,691.966 1103.693,712.866 1109.94,719.5 C1118.617,728.713 1126.277,739.237 1128.682,745.25 C1130.132,748.875 1131.319,752.089 1131.319,752.391 C1131.319,752.693 1132.444,755.4 1133.819,758.406 C1135.194,761.412 1136.319,764.182 1136.319,764.562 C1136.319,765.339 1142.717,781.81 1144.899,786.651 C1145.68,788.384 1146.319,790.111 1146.319,790.489 C1146.319,790.867 1148.348,796.306 1150.828,802.576 C1153.308,808.845 1155.968,816.568 1156.741,819.738 C1157.513,822.907 1159.14,828.875 1160.355,833 C1162.473,840.189 1165.522,850.69 1170.806,869 C1172.156,873.675 1174.398,881.35 1175.789,886.057 C1177.181,890.763 1178.319,895.257 1178.319,896.045 C1178.319,896.832 1179.64,903.557 1181.255,910.988 C1182.87,918.42 1185.375,930.575 1186.822,938 C1188.27,945.425 1190.521,956.9 1191.825,963.5 C1193.129,970.1 1194.725,978.538 1195.371,982.25 C1196.646,989.58 1198.31,991.264 1198.335,985.25 C1198.343,983.188 1198.966,978.883 1199.719,975.685 L1201.087,969.87 L1198.703,972.109 L1196.319,974.349 L1196.319,970.462 C1196.319,967.463 1196.947,966.034 1199.069,964.205 L1201.819,961.835 L1198.727,963.873 L1195.634,965.912 L1192.443,935.706 C1190.687,919.093 1188.554,902.575 1187.703,899 C1185.576,890.072 1181.614,874.298 1178.787,863.5 C1177.491,858.55 1174.387,846.175 1171.889,836 C1169.392,825.825 1166.199,814.35 1164.794,810.5 C1158.045,792.003 1150.98,772.007 1149.601,767.5 C1148.76,764.75 1147.747,762.05 1147.351,761.5 C1146.954,760.95 1144.019,752.941 1140.828,743.703 L1135.026,726.906 L1136.814,721.203 C1137.797,718.066 1138.953,714.375 1139.384,713 C1139.815,711.625 1141.571,705.775 1143.287,700 C1148.344,682.981 1149.694,679 1150.411,679 C1150.784,679 1151.882,680.21 1152.851,681.69 C1154.753,684.592 1176.717,712.528 1179.041,715 C1180.268,716.306 1180.366,716.111 1179.797,713.5 C1179.437,711.85 1177.864,706.45 1176.301,701.5 C1174.737,696.55 1173.158,690.925 1172.791,689 C1171.897,684.314 1170.001,680.428 1155.474,653.5 C1148.65,640.85 1142.744,629.896 1142.351,629.158 C1141.862,628.239 1138.51,631.617 1131.728,639.866 C1126.278,646.494 1121.194,651.823 1120.43,651.709 C1119.666,651.594 1117.804,648.125 1116.293,644 C1114.783,639.875 1112.144,632.675 1110.431,628 C1108.717,623.325 1106.857,618.6 1106.296,617.5 C1105.736,616.4 1105.089,614.497 1104.86,613.271 C1104.63,612.046 1103.545,608.446 1102.449,605.271 C1101.352,602.097 1098.237,592.525 1095.525,584 C1091.223,570.473 1086.648,556.145 1076.528,524.5 C1075.12,520.1 1072.923,513.565 1071.644,509.979 C1070.365,506.392 1069.319,502.765 1069.319,501.918 C1069.319,501.072 1068.189,497.497 1066.809,493.973 C1063.773,486.227 1059.324,469.026 1050.779,432 C1049.32,425.675 1046.788,414.875 1045.154,408 C1041.666,393.322 1038.525,379.924 1034.841,364 C1033.377,357.675 1030.861,347.292 1029.25,340.927 C1027.638,334.561 1026.319,329.113 1026.319,328.819 C1026.319,328.525 1030.442,327.721 1035.482,327.032 C1045.957,325.6 1045.508,325.353 1050.863,335.5 C1056.548,346.271 1071.981,373.505 1074.978,378.054 C1076.265,380.008 1077.319,381.9 1077.319,382.257 C1077.319,382.614 1081.669,390.465 1086.986,399.703 C1092.304,408.941 1097.329,417.85 1098.153,419.5 C1098.978,421.15 1102.781,427.9 1106.604,434.5 C1110.428,441.1 1113.974,447.4 1114.485,448.5 C1114.995,449.6 1117.163,453.425 1119.303,457 C1122.896,463.004 1141.165,499.206 1148.824,515.5 C1150.634,519.35 1153.909,526.325 1156.101,531 C1158.294,535.675 1162.348,544.225 1165.11,550 C1167.872,555.775 1172.437,565.428 1175.254,571.45 L1180.376,582.4 L1178.755,586.95 L1177.133,591.5 L1185.549,617 C1193.964,642.498 1197.781,654.594 1202.749,671.5 C1204.204,676.45 1206.54,683.875 1207.941,688 C1210.032,694.157 1210.92,700.425 1212.897,723 C1216.184,760.517 1216.175,772.115 1212.842,795 C1211.36,805.175 1209.961,813.688 1209.733,813.917 C1209.505,814.146 1209.319,812.439 1209.319,810.124 C1209.319,807.809 1207.356,799.972 1204.956,792.708 C1202.557,785.443 1198.885,774.1 1196.795,767.5 C1192.909,755.224 1187.425,739.943 1187.357,741.201 C1187.302,742.216 1189.81,751.408 1192.322,759.398 C1193.515,763.192 1194.632,767.029 1194.804,767.923 C1195.105,769.485 1198.223,780.263 1202.348,794 C1207.075,809.744 1207.066,809.68 1211.301,852 C1211.824,857.225 1212.554,865.775 1212.923,871 C1213.627,880.977 1215.162,887.639 1215.226,881 C1215.245,879.075 1214.607,871.2 1213.81,863.5 C1213.013,855.8 1212.355,848.375 1212.348,847 C1212.336,844.691 1217.911,836.447 1230.592,820.027 C1232.917,817.016 1237.138,811.333 1239.971,807.397 C1242.805,803.461 1246.047,799.174 1247.175,797.87 C1248.303,796.567 1252.509,790.942 1256.523,785.37 C1260.536,779.799 1265.888,772.599 1268.417,769.37 L1273.015,763.5 L1273.59,752.5 L1274.165,741.5 L1271.918,752.093 C1269.739,762.373 1269.469,762.951 1262.825,771.593 C1255.106,781.635 1251.973,785.115 1254.805,780.5 C1258.625,774.277 1259.789,772.486 1260.329,772 C1262.487,770.059 1267.034,760.907 1267.179,758.212 C1267.373,754.617 1264.199,707.118 1261.853,678.5 C1257.829,629.43 1257.279,619.889 1257.298,599.455 L1257.319,577.411 L1251.53,574.353 C1248.346,572.671 1243.059,569.816 1239.78,568.008 C1236.502,566.201 1231.569,563.496 1228.819,561.997 C1226.069,560.498 1220.332,557.37 1216.069,555.046 C1211.806,552.721 1208.315,550.522 1208.31,550.16 C1208.305,549.797 1207.477,544.688 1206.47,538.806 C1204.673,528.311 1204.501,527.903 1197.155,516.806 C1189.455,505.173 1178.531,488.521 1164.808,467.5 C1160.5,460.9 1153.197,449.796 1148.579,442.825 C1143.962,435.854 1139.274,427.754 1138.161,424.825 C1137.049,421.896 1135.28,417.612 1134.229,415.305 C1133.179,412.998 1132.315,410.748 1132.31,410.305 C1132.305,409.862 1130.246,404.55 1127.735,398.5 C1125.224,392.45 1122.803,386.375 1122.354,385 C1121.906,383.625 1118.53,374.85 1114.852,365.5 C1093.101,310.198 1097.37,317.827 1079.794,302.855 C1074.858,298.649 1065.78,291.104 1059.621,286.086 L1048.423,276.963 L1047.377,280.731 C1046.801,282.804 1046.321,285.625 1046.309,287 C1046.293,288.927 1046.076,289.164 1045.361,288.034 C1044.622,286.865 1044.211,287.155 1043.334,289.462 L1042.233,292.356 L1039.616,288.678 C1038.177,286.655 1036.571,285 1036.047,285 C1035.523,285 1030.33,287.739 1024.507,291.087 C1012.26,298.128 1013.738,298.597 1007.133,285.567 L1003.112,277.633 L999.966,282.581 C998.235,285.302 995.951,288.665 994.889,290.053 L992.959,292.578 L989.755,289.082 L986.551,285.585 L973.269,294.543 C965.964,299.469 957.165,305.387 953.715,307.694 C949.142,310.752 942.208,313.658 928.13,318.416 C917.509,322.006 900.269,327.831 889.819,331.36 C879.369,334.889 868.678,338.08 866.06,338.451 L861.302,339.125 L859.31,334.48 C858.215,331.925 857.319,329.435 857.319,328.947 C857.319,328.459 856.235,325.683 854.91,322.78 C853.585,319.876 851.512,314.8 850.302,311.5 C849.093,308.2 847.445,303.7 846.641,301.5 C845.837,299.3 844.843,297.155 844.432,296.733 C844.021,296.311 837.19,295.731 829.252,295.445 L814.819,294.925 L808.319,303.664 C804.744,308.47 801.677,312.739 801.503,313.151 C801.329,313.562 802.566,313.471 804.253,312.949 C805.939,312.427 808.781,311.569 810.569,311.042 L813.819,310.083 L810.319,313.138 C794.898,326.596 780.582,335.293 777.737,332.932 C776.957,332.285 776.319,331.447 776.319,331.07 C776.319,330.345 784.21,324.414 788.157,322.172 C793.174,319.322 789.234,320.153 781.917,323.487 C777.677,325.419 774.008,327 773.764,327 C772.888,327 773.349,322.538 775.252,312.598 C778.544,295.41 779.518,289.664 779.935,285 C780.156,282.525 780.97,277.35 781.744,273.5 C782.911,267.693 787.019,245.723 790.158,228.5 C790.863,224.633 790.646,224.198 783.603,215.386 C779.597,210.373 776.319,205.976 776.319,205.614 C776.319,204.787 771.25,196.951 769.564,195.172 C768.872,194.442 767.791,192.867 767.162,191.672 C766.533,190.477 764.02,186.685 761.577,183.244 L757.135,176.988 L752.477,179.379 C747.566,181.9 738.963,185.966 728.579,190.672 C724.396,192.568 722.336,194.077 722.329,195.25 C722.324,196.213 721.757,197.007 721.069,197.015 C720.382,197.024 719.178,197.437 718.394,197.933 C717.194,198.692 717.418,200.188 719.815,207.4 C722.542,215.606 722.587,216.046 720.901,217.909 C719.34,219.634 719.168,221.865 719.375,237.677 C719.617,256.169 718.027,286.8 716.372,295.5 C715.849,298.25 714.909,307.475 714.282,316 C713.655,324.525 712.916,332.662 712.639,334.083 C712.116,336.767 710.522,337.763 698.925,342.65 L693.031,345.133 L688.779,340.961 C686.44,338.666 684.255,336.836 683.923,336.894 C681.495,337.32 681.247,336.716 683.13,334.961 C684.334,333.84 685.319,331.984 685.319,330.838 C685.319,329.671 687.958,325.934 691.319,322.341 C694.619,318.813 697.288,315.606 697.25,315.213 C697.212,314.821 692.715,310.972 687.257,306.66 L677.334,298.819 L672.076,302.045 C669.185,303.819 665.696,306.149 664.323,307.222 L661.828,309.174 L659.073,305.875 C657.558,304.06 656.319,302.015 656.319,301.33 C656.319,300.645 658.306,298.92 660.734,297.497 C668.298,293.064 668.286,293.007 658.236,285.907 C653.248,282.383 648.414,278.786 647.493,277.914 C646.572,277.042 641.319,273.131 635.819,269.222 C621.73,259.209 619.464,256.89 606.285,239 C602.84,234.325 598.464,228.755 596.558,226.622 C593.077,222.727 589.651,216.082 588.243,210.5 C587.827,208.85 584.723,199.625 581.345,190 C572.254,164.099 567.749,150.939 563.204,137 C560.962,130.125 558.159,121.886 556.974,118.692 C554.855,112.979 554.765,112.893 551.561,113.489 C548.373,114.081 548.246,113.963 545.695,108.081 L543.087,102.068 L539.953,103.673 C538.229,104.555 533.171,107.465 528.713,110.139 C524.254,112.812 520.171,115 519.639,115 C519.107,115 517.626,111.513 516.349,107.25 C511.368,90.626 509.098,83.159 506.395,74.5 C504.849,69.55 502.365,61.45 500.875,56.5 C499.386,51.55 497.314,44.8 496.271,41.5 C495.228,38.2 494.221,34.478 494.032,33.229 C493.844,31.981 491.002,27.931 487.716,24.229 C484.431,20.528 478.449,13.563 474.423,8.75 C470.397,3.938 466.931,0 466.72,0 C466.509,0 465.774,0.9 465.087,2 M475.93,114.107 C475.27,116.212 472.803,127.052 469.81,141 C468.335,147.875 465.839,159.125 464.265,166 C462.69,172.875 460.25,183.675 458.842,190 C457.434,196.325 455.874,203.296 455.375,205.491 C454.876,207.686 454.547,209.491 454.644,209.502 C454.74,209.512 456.761,211.024 459.135,212.861 C461.509,214.698 463.613,216.039 463.811,215.842 C464.52,215.133 469.319,163.108 469.319,156.131 C469.319,152.044 469.746,149 470.319,149 C470.869,149 471.319,148.362 471.319,147.583 C471.319,144.594 475.589,136.346 478.903,132.934 L482.366,129.368 L479.722,121.434 C476.764,112.559 476.546,112.138 475.93,114.107 M527.82,226.25 C525.671,231.338 521.978,239.719 519.615,244.875 C517.252,250.031 515.319,254.585 515.319,254.995 C515.319,255.405 519.429,258.837 524.451,262.62 C529.474,266.404 537.748,272.65 542.838,276.5 C547.927,280.35 556.032,286.425 560.849,290 C565.665,293.575 572.116,298.525 575.183,301 C580.254,305.092 583.795,307.751 603.153,322 C608.238,325.743 609.273,327.005 609.308,329.5 C609.331,331.15 609.68,332.987 610.084,333.583 C610.488,334.178 614.223,335.333 618.383,336.15 L625.948,337.635 L617.883,329.501 C613.448,325.027 602.21,314.724 592.91,306.605 C575.718,291.597 559.227,276.729 551.755,269.5 C548.729,266.573 546.752,263.235 544.382,257.054 C541.242,248.866 540.315,245.418 536.707,228.5 C534.927,220.152 533.771,217 532.489,217 C532.071,217 529.97,221.162 527.82,226.25 M437.518,286.25 C436.334,291.337 434.184,300.9 432.742,307.5 C431.299,314.1 428.814,324.92 427.219,331.544 C425.624,338.167 424.352,344.692 424.392,346.044 C424.462,348.43 425.781,344.853 435.651,315.5 C438.241,307.8 440.792,300.6 441.322,299.5 C442.682,296.672 447.532,280.87 447.142,280.534 C446.6,280.065 440.444,277 440.045,277 C439.839,277 438.702,281.163 437.518,286.25 M842.021,338.969 C842.502,340.807 842.73,340.839 845.428,339.444 C849.18,337.503 849.074,337 844.913,337 C842.016,337 841.583,337.295 842.021,338.969 M651.014,413.385 L647.319,416.77 L647.319,427.885 L647.319,439 L652.819,439 C657.389,439 658.32,438.704 658.324051,437.25 C658.337,432.464 655.87,410 655.33,410 C654.989,410 653.047,411.523 651.014,413.385 M1184.399,731.5 C1184.251,733.655 1186.466,740 1187.366,740 C1187.89,740 1188.286,739.663 1188.245,739.25 C1188.104,737.83 1184.467,730.501 1184.399,731.5 M1274.477,735 C1274.477,736.375 1274.704,736.938 1274.981,736.25 C1275.259,735.563 1275.259,734.438 1274.981,733.75 C1274.704,733.063 1274.477,733.625 1274.477,735 M726.569,1025.175 C724.86,1029.915 725.008,1031.12 726.863,1027.564 C727.705,1025.949 728.265,1023.97 728.106,1023.168 C727.948,1022.365 727.257,1023.268 726.569,1025.175"/><path fill-opacity=".677" d="M450.251,14.282 C448.839,15.502 442.289,21.082 435.697,26.682 L423.71,36.864 L421.034,76.182 C419.563,97.807 417.878,123.6 417.29,133.5 C416.336,149.583 413.649,174.96 412.808,175.832 C412.632,176.015 408.671,173.315 404.006,169.832 C394.797,162.958 395.438,163.912 384.299,140.5 C381.421,134.45 377.011,125.311 374.501,120.192 L369.936,110.883 L366.696,120.192 C364.914,125.311 363.199,130.86 362.885,132.521 C362.49,134.615 359.245,138.6 352.317,145.502 C346.818,150.98 342.319,155.215 342.319,154.913 C342.319,154.61 342.976,152.144 343.779,149.432 C344.583,146.719 345.166,143.539 345.075,142.364 C344.933,140.522 344.6,140.37 342.646,141.261 C340.726,142.136 339.717,141.748 336.005,138.706 L331.629,135.12 L330.979,125.31 C330.622,119.914 330.327,110.778 330.324,105.008 L330.319,94.515 L305.472,119.347 L280.626,144.179 L278.437,159.839 C277.233,168.453 275.147,183.6 273.803,193.5 C272.458,203.4 269.985,221.4 268.307,233.5 C266.63,245.6 264.133,263.825 262.76,274 C261.387,284.175 259.164,300.375 257.819,310 C256.475,319.625 255.08,330.425 254.72,334 C253.194,349.146 250.56,362.115 248.563,364.309 C247.466,365.514 245.989,367.625 245.281,369 C244.572,370.375 239.829,377.862 234.74,385.637 C229.651,393.412 224.785,401.132 223.927,402.792 C223.068,404.452 221.784,406.416 221.073,407.155 C220.362,407.895 217.778,411.875 215.33,416 C212.883,420.125 210.604,423.725 210.266,424 C209.929,424.275 207.74,427.65 205.402,431.5 C203.065,435.35 200.177,439.909 198.986,441.63 C196.617,445.053 189.703,455.914 187.319,459.959 C186.494,461.358 183.756,465.652 181.235,469.502 C178.714,473.351 174.373,480.037 171.589,484.36 L166.526,492.22 L168.802,497.36 C170.054,500.187 173.666,507.225 176.829,513 C179.992,518.775 183.421,525.3 184.448,527.5 C185.476,529.7 189.37,537.292 193.101,544.371 L199.886,557.242 L198.613,564.371 C195.504,581.787 193.564,593.519 193.758,593.741 C193.874,593.874 212.222,557.424 234.531,512.741 C274.933,431.823 275.107,431.448 278.229,418.5 C279.953,411.35 282.46,401.225 283.799,396 C285.138,390.775 286.519,384.925 286.868,383 C287.217,381.075 288.336,376.35 289.354,372.5 C290.373,368.65 292.38,360.55 293.815,354.5 C300.131,327.874 301.559,321.994 308.87,292.5 C309.825,288.65 311.031,283.475 311.551,281 C312.505,276.455 315.021,266.222 319.909,247 C321.378,241.225 322.976,234.485 323.461,232.023 C323.947,229.56 325.203,224.16 326.254,220.023 C327.305,215.885 329.351,207.55 330.802,201.5 C332.252,195.45 334.489,186.225 335.772,181 C337.056,175.775 338.904,168.013 339.88,163.75 C340.856,159.488 341.963,156 342.341,156 C342.718,156 347.35,161.738 352.633,168.75 C357.916,175.763 366.76,187.35 372.287,194.5 C377.814,201.65 386.123,212.45 390.751,218.5 C395.38,224.55 400.917,231.75 403.057,234.5 L406.946,239.5 L404.632,260 C403.359,271.275 401.369,289.05 400.209,299.5 L398.102,318.5 L389,336 C383.994,345.625 378.619,356.133 377.054,359.351 C375.49,362.568 373.79,365.718 373.277,366.351 C372.764,366.983 370.039,372 367.222,377.5 C364.405,383 359.054,393.35 355.331,400.5 C348.533,413.553994 347.492,416.642 340.327,445 C338.59,451.875 336.302,460.724 335.244,464.664 C334.185,468.604 333.319,472.66 333.319,473.677 C333.319,475.398 339.166,484.959 341.909,487.723 C344.037,489.868 347.408,495.823 348.346,499.095 C349.154,501.91 348.481,503.801 342.288,516.131 C338.457,523.759 335.493,530 335.701,530 C335.91,530 341.961,523.363 349.149,515.25 C356.336,507.138 363.099,499.959 364.177,499.298 C365.912,498.235 366.32,498.482 367.728,501.449 C368.603,503.294 369.319,505.298 369.319,505.905 C369.319,506.511 370.219,508.686 371.319,510.739 C372.419,512.791 373.319,515.057 373.319,515.775 C373.319,516.493 374.255,518.914 375.399,521.157 C376.543,523.399 377.631,526.026 377.818,526.994 C378.004,527.961 379.03,530.721 380.097,533.127 C385.153,544.526 385.728,547.361 384.325,553.971 C383.388,558.387 382.362,560.581 380.734,561.648 C378.736,562.957 373.526,575 374.958,575 C375.237,575 379.449,572.677 384.318,569.837 C394.084,564.141 392.906,565.916 398.804,548 C399.8,544.975 400.974,542.033 401.413,541.463 C401.852,540.892 403.549,536.392 405.185,531.463 C406.821,526.533 410.712,515.3 413.832,506.5 C416.951,497.7 420.633,486.9 422.014,482.5 C423.395,478.1 424.902,474.036 425.363,473.469 C425.823,472.902 426.42,471.327 426.689,469.969 C427.207,467.35 434.028,447.87 434.526,447.587 C436.668,446.369 450.801,434.609 453.819,431.533 C456.019,429.291 461.981,424.091 467.068,419.978 L476.317,412.5 L476.318,399.867 C476.319,383.426 479.1,336.08 480.217,333.5 C480.693,332.4 482.539,328.125 484.321,324 C488.697,313.866 493.261,303.998 493.568,304.008 C493.706,304.012 503.944,309.132 516.319,315.386 C528.694,321.64 550.294,332.515 564.319,339.553994 C586.279,350.574 595.153,355.553 597.319,358.069 C598.476,359.413 620.553,374 621.43,374 C621.958,374 623.386,373.362 624.604,372.582 C625.822,371.803 632.668,369.712 639.816,367.937 C646.964,366.161 653.577,364.232 654.51,363.649 C656.963,362.117 659.914,365.152 663.359,372.748 C664.918,376.186 666.824,379 667.594,379 C668.365,379 671.634,381.398 674.858,384.328 L680.721,389.656 L679.457,395.578 C678.762,398.835 676.868,407.125 675.247,414 C671.388,430.363 669.372,440.386 669.842,440.857 C670.051,441.065 670.51,439.945 670.863,438.368 C671.216,436.791 672.745,432.125 674.261,428 C675.778,423.875 677.312,419.292 677.671,417.816 C678.03,416.34 679.785,414.109 681.571,412.857 C683.358,411.606 685.407,409.776 686.126,408.791 C686.844,407.806 687.918,407 688.511,407 C690.092,407 694.447,402.016 693.792,400.956 C693.086,399.814 702.071,404.479 705.013,406.782 L707.207,408.5 L705.297,429.5 C703.593,448.237 702.223,464.219 696.724,529.5 C695.89,539.4 694.793,551.1 694.285,555.5 C691.819,576.857 687.843,608.755 685.061,629.5 C683.364,642.15 681.869,654.753 681.737,657.506 C681.606,660.259 680.527,669.191 679.34,677.354 C678.153,685.517 677.45,692.464 677.778,692.792 C678.106,693.121 679.326,692.438 680.488,691.276 C682.527,689.237 682.544,689.019 680.968,685.081 C679.126,680.478 679.544,680.172 683.819,682.994 L686.819,684.974 L706.962,664.853 C724.63,647.204 727.225,644.963 728.077,646.616 C728.612,647.652 730.719,652.55 732.76,657.5 C734.802,662.45 736.971,667.625 737.582,669 C738.192,670.375 740.11,675.076 741.844,679.446 C745.834,689.505 747.918,690.71 746.923,682.384 C746.536,679.148 745.819,672 745.329,666.5 C744.839,661 743.511,650.268 742.378,642.651 C741.246,635.033 740.309,626.933 740.297,624.651 C740.285,622.368 739.222,613.3 737.935,604.5 L735.594,588.5 L738.288,585 C741.318,581.063 741.433,580.594 752.77,526.25 C754.965,515.731 760.261,473.634 761.86,454 C762.196,449.875 763.112,443.433 763.895,439.685 C765.513,431.941 765.682,429.882 764.554,431.653 C764.094,432.375 762.175,430.422 759.427,426.434 L755.034,420.062 L756.867,411.031 C757.876,406.064 759.029,402 759.43,402 C759.832,402 760.446,405.038 760.795,408.75 C761.882,420.289 763.555,430 764.456,430 C764.931,430 765.319,429.463 765.319,428.807 C765.319,428.15 766.41,423.988 767.744,419.557 C769.078,415.125 771.158,408.125 772.366,404 C773.574,399.875 774.864,396.166 775.232,395.758 C775.917,395 776.432,395.139 789.191,399.516 L796.562,402.045 L801.964,397.598 C804.934,395.152 807.91,392.97 808.577,392.747 C809.27,392.516 807.18,389.593 803.698,385.922 C800.347,382.39 794.546,376.241 790.807,372.259 L784.008,365.017 L794.913,353.858 C800.911,347.72 805.369,342.9 804.819,343.146 C800.644,345.016 798.636,345.787 786.819,350.056 C784.069,351.05 778.676,353.205 774.836,354.846 C770.995,356.487 767.554,357.645 767.191,357.421 C766.827,357.196 766.966,355.097 767.499,352.756 C768.033,350.415 769.087,344.675 769.843,340 C772.919,320.955 774.468,312.037 776.269,303 C777.311,297.775 779.129,287.875 780.311,281 C781.493,274.125 783.396,263.775 784.541,258 C785.686,252.225 786.99,244.664 787.439,241.197 C787.887,237.73 788.716,233.23 789.281,231.197 C791.008,224.981 790.558,223.781 783.319,215.28 C779.469,210.759 776.319,206.805 776.319,206.494 C776.319,205.398 766.033,193.104 764.683,192.586 C763.932,192.298 761.855,193.308 760.068,194.83 C758.281,196.352 753.444,200.169 749.319,203.312 C745.194,206.455 738.071,211.921 733.491,215.459 C726.178,221.107 724.86,221.776 722.676,220.946 C721.308,220.426 719.999,220 719.767,220 C719.536,220 719.377,230.912 719.415,244.25 C719.473,264.417 718.975,273.467 716.461,298 C713.269,329.153 712.763,334.947 711.717,352.358 L711.065,363.217 L698.692,350.873 C691.887,344.085 686.319,338.818 686.319,339.169 C686.319,339.52 687.94,342.664 689.921,346.154 C691.902,349.644 695.491,356.408 697.897,361.184 L702.273,369.868 L696.572,371.051 C693.436,371.702 690.184,372.473 689.345,372.764 C688.506,373.056 689.773,371.845 692.162,370.073 C694.551,368.302 696.351,366.703 696.162,366.521 C695.973,366.338 692.961,364.009 689.467,361.344 C673.825,349.414 675.118,351.78 678.491,341.25 C679.656,337.61 681.063,335 681.859,335 C682.61,335 683.661,333.419 684.195,331.488 C684.743,329.503 687.811,325.088 691.247,321.337 L697.33,314.699 L687.327,307.313 C676.043,298.981 677.362,299.053 667.319,306.224 L661.819,310.151 L658.072,305.825 C656.011,303.446 654.325,301.275 654.325,301 C654.325,300.725 657.012,298.66 660.294,296.411 L666.263,292.323 L659.592,287.411 C655.924,284.71 648.624,279.383 643.37,275.573 C638.117,271.763 633.586,268.305 633.3,267.888 C633.015,267.472 630.218,265.391 627.085,263.264 C621.528,259.493 619.404,256.985 598.484,229.5 C592.298,221.372 588.551,214.008 586.27,205.5 C585.828,203.85 582.696,194.625 579.31,185 C575.923,175.375 571.953,163.9 570.486,159.5 C567.947,151.884 567.665,151.485 564.618,151.19 C561.705,150.908 561.508,150.68 562.43,148.656 C563.427,146.468 559.652,137.363 545.899,108.782 L542.666,102.063 L535.486,106.532 C531.536,108.989 527.946,111 527.506,111 C527.067,111 525.203,112.11 523.364,113.467 C521.525,114.824 519.694,115.732 519.295,115.485 C518.513,115.002 514.238,101.665 504.876,70.5 C503.389,65.55 501.128,58.125 499.852,54 C498.576,49.875 496.721,43.631 495.729,40.126 C493.915,33.709 488.974,25 487.148,25 C486.607,25 480.462,29.645 473.492,35.323 L460.819,45.646 L455.819,44.185 C453.069,43.382 445.662,41.166 439.358,39.262 L427.897,35.8 L432.858,31.144 C435.587,28.584 441.419,23.239 445.819,19.267 C450.219,15.295 453.594,12.0539942 453.319,12.0539942 C453.044,12.0539942 451.663,13.061 450.251,14.282 M476.076,113.655 C475.454,114.755 473.621,122.734 462.669,172 C461.263,178.325 459.071,188 457.797,193.5 C454.779,206.529 454.211,209.999 455.094,210.005 C455.493,210.007 457.539,211.589 459.641,213.519 C461.743,215.45 463.815,216.812 464.246,216.545 C464.676,216.279 465.278,211.435 465.582,205.781 C465.887,200.126 467.154,185.019 468.399,172.209 C470.115,154.544 470.967,149.035 471.926,149.403 C472.621,149.669 473.331,149.519 473.504,149.069 C473.677,148.618 476.632,146.837 480.069,145.111 C483.507,143.384 486.312,141.64 486.304017,141.236 C486.279,140.024 483.737,133.085 483.077,132.424 C482.739,132.087 480.334,134.554 477.731,137.906 C475.128,141.258 472.836,144 472.638,144 C471.658,144 476.908,135.107 479.5,132.377 C482.296,129.432 482.402,129.024 481.369,125.185 C479.869,119.615 476.66,112.624 476.076,113.655 M754.319,186.313 C754.319,186.485 755.724,187.948 757.44,189.563 L760.561,192.5 L758.915,189.25 C758.009,187.463 756.604,186 755.793,186 C754.982,186 754.319,186.141 754.319,186.313 M736.319,192.123 C731.644,193.757 726.582,194.926 725.069,194.721 C723.263,194.475 722.319,194.802 722.319,195.673 C722.319,196.403 721.757,197.007 721.069,197.015 C717.504,197.059 717.333,198.518 719.912,206.914 L722.466,215.234 L728.202,209.367 C741.998,195.254 747.551,189.005 746.233,189.075 C745.455,189.117 740.994,190.488 736.319,192.123 M530.643,219.227 C530.072,220.477 528.218,224.65 526.522,228.5 C524.826,232.35 522.328,237.975 520.969,241 C515.019,254.254 514.871,254.846 516.946,257.155 C517.976,258.301 522.684,262.008 527.408,265.393 C532.132,268.778 537.757,272.986 539.908,274.745 C542.059,276.504 547.644,280.795 552.319,284.282 C556.994,287.768 565.769,294.398 571.819,299.014 C577.869,303.631 586.644,310.246 591.319,313.716 C595.994,317.185 600.776,320.805 601.947,321.762 C603.117,322.718 604.917,323.999 605.947,324.609 C607.421,325.482 608.075,327.822 609.023,335.609 C609.685,341.049 610.453,346.694 610.729,348.153 C611.223,350.77 611.135,350.816 604.207,351.511 C597.392,352.196 597.252,352.264 599.501,353.817 C600.776,354.697 605.079,358.248 609.064,361.709 C613.049,365.169 616.9,368 617.622,368 C618.343,368 620.34,366.087 622.058,363.75 C629.671,353.394 632.7,349.463 633.458,348.956 C633.905,348.656 633.8,346.856 633.224,344.956 C632.497,342.557 629.595,339.207 623.732,334 C619.087,329.875 608.657,320.534 600.553,313.241 C592.449,305.949 577.492,292.629 567.315,283.641 C550.415,268.717 548.617,266.81 546.565,261.65 C541.254,248.289 540.212,244.966 538.311,235.306 C535.007,218.521 532.943,214.193 530.643,219.227 M436.888,288.321 C435.359,295.019 432.783,306.35 431.163,313.5 C429.543,320.65 427.141,331 425.824,336.5 C424.508,342 423.795,346.867 424.24,347.315 C424.685,347.763 426.443,343.938 428.147,338.815 C429.851,333.692 433.995,321.625 437.358,312 C444.367,291.934 447.304,282.929 447.304,281.5 C447.304,280.95 445.586,279.519 443.486,278.321 L439.668,276.141 L436.888,288.321 M1046.992,289.268 C1044.663,306.499 1044.414,315.365 1046.211,317.044 C1047.226,317.992 1047.307,318.504 1046.485,318.778 C1045.844,318.992 1045.298,320.592 1045.272,322.333 C1045.226,325.405 1045.143,325.343 1042.522,320.284 C1040.639,316.65 1038.415,314.178 1035.188,312.132 C1032.642,310.517 1030.289,308.76 1029.96,308.228 C1029.415,307.346 1030.881,301.917 1034.857,290.093 C1035.672,287.67 1036.207,285.555 1036.046,285.393 C1035.884,285.232 1034.818,285.64 1033.677,286.3 C1032.535,286.96 1028.95,288.95 1025.71,290.722 C1022.47,292.494 1018.616,294.715 1017.145,295.657 C1013.55,297.961 1012.301,296.818 1007.567,286.894 C1005.506,282.573 1003.483,279.028 1003.072,279.018 C1002.662,279.008 1000.637,281.752 998.572,285.116 C996.508,288.48 994.325,291.754 993.721,292.393 C991.209,295.048 975.986,318.474 975.986,319.685 C975.986,320.408 975.866,321 975.721,321 C975.038,321 958.813,314.828 958.394,314.408 C958.132,314.146 963.52,308.273 970.368,301.357 L982.819,288.783 L975.819,293.057 C971.969,295.407 967.694,298.303 966.319,299.491 C964.944,300.679 961.344,303.159 958.319,305.003 C955.294,306.846 951.919,309.144 950.819,310.108 C949.103,311.613 912.763,324.581 899.319,328.486 C896.844,329.205 892.467,330.729 889.592,331.873 C886.718,333.017 883.343,334.155 882.092,334.403 C880.842,334.65 877.161,335.786 873.912,336.927 C870.664,338.067 866.92,339 865.594,339 C864.267,339 858.691,340.138 853.203,341.53 C847.714,342.921 842.795,343.794 842.271,343.471 C841.748,343.147 841.319,341.634 841.319,340.108 C841.319,338.582 841.064,337.079 840.753,336.768 C839.991,336.005 819.319,345.04 819.319,346.136 C819.319,346.611 819.95,347 820.721,347 C821.916,347 821.908,347.701 820.667,351.75 C819.866,354.363 818.757,358.886 818.204,361.801 L817.199,367.103 L822.759,373.108 C825.817,376.411 828.316,379.426 828.313,379.807 C828.309,380.188 826.862,381.4 825.098,382.5 C823.333,383.6 820.748,385.274 819.354,386.22 C817.96,387.165 815.469,388.685 813.819,389.597 C812.169,390.508 810.659,391.395 810.463,391.566 C809.821,392.129 819.41,404 820.506,404 C821.095,404 823.32,402.425 825.451,400.5 C829.996,396.394 830.761,396.265 833.079,399.214 C834.036,400.432 838.166,404.938 842.256,409.228 L849.694,417.029 L852.842,413.978 C857.206,409.748 861.691,396.257 860.985,389.481 C860.083,380.828 862.331,378.696 876.729,374.552 C879.979,373.617 890.199,369.066 899.44,364.439 C908.681,359.813 917.947,355.614 920.031,355.109 C923.633,354.235 928.616,352.794 946.819,347.366 C951.219,346.054 955.719,344.805 956.819,344.591 C957.919,344.377 962.419,343.054 966.819,341.651 C971.219,340.249 976.438,338.816 978.416,338.468 L982.013,337.835 L983.273,342.667 C983.966,345.325 985.61,350.435 986.926,354.021 C988.242,357.608 989.319,361.198 989.319,362 C989.319,362.802 990.368,366.392 991.651,369.979 C992.933,373.565 995.241,380.55 996.778,385.5 C998.315,390.45 1000.37,396.975 1001.343,400 C1002.317,403.025 1004.771,410.9 1006.797,417.5 C1011.141,431.651 1020.386,461.158 1024.029,472.5 C1027.101,482.062 1030.069,491.484 1033.636,503 C1035.084,507.675 1037.631,515.622 1039.294,520.66 C1040.958,525.698 1042.319,531.019 1042.319,532.483 C1042.319,533.947 1043.219,538.825 1044.319,543.323 C1045.419,547.82 1046.953,554.875 1047.727,559 C1048.501,563.125 1050.773,574.15 1052.775,583.5 C1054.776,592.85 1057.061,604.005 1057.851,608.29 C1058.642,612.574 1060.195,619.723 1061.304,624.177 C1062.412,628.631 1063.319,633.167 1063.319,634.258 C1063.319,635.348 1064.418,640.799 1065.76,646.37 C1067.103,651.942 1068.489,658.692 1068.84,661.371 L1069.478,666.241 L1075.282,657.371 C1093.701,629.222 1102.241,616.015 1103.293,614.049 C1104.273,612.218 1104.028,610.501 1101.884,604.166 C1099.078,595.877 1091.531,572.561 1086.455,556.5 C1084.717,551 1081.337,540.425 1078.945,533 C1076.552,525.575 1072.888,514.1 1070.803,507.5 C1068.717,500.9 1065.956,492.565 1064.665,488.979 C1063.375,485.392 1062.319,481.902 1062.319,481.222 C1062.319,480.542 1061.227,475.827 1059.893,470.743 C1056.029,456.022 1052.088,439.839 1051.308,435.5 C1050.913,433.3 1049.684,427.9 1048.578,423.5 C1047.471,419.1 1045.342,410.1 1043.846,403.5 C1042.351,396.9 1040.302,388.35 1039.294,384.5 C1038.285,380.65 1037.152,375.7 1036.777,373.5 C1036.401,371.3 1034.956,365.225 1033.564,360 C1032.173,354.775 1030.687,348.432 1030.262,345.905 C1029.531,341.564 1027.303,333.457 1025.855,329.87 C1025.29,328.471 1026.628,328.065 1035.306,327.002 C1040.866,326.32 1045.539,325.929 1045.69,326.132 C1045.933,326.457 1059.366,350.025 1063.319,357.061 C1064.144,358.529 1066.119,362.154 1067.707,365.115 C1069.296,368.077 1073.632,375.721 1077.343,382.102 C1081.054,388.482 1084.397,394.67 1084.772,395.852 C1085.147,397.033 1085.819,398 1086.265,398 C1086.711,398 1087.681,399.462 1088.421,401.25 C1089.16,403.038 1092.626,409.425 1096.124,415.445 C1099.621,421.465 1103.684,428.599 1105.151,431.299 C1106.618,433.999 1108.944,438.183 1110.319,440.598 C1111.694,443.012 1116.308,451.178 1120.573,458.744 C1124.837,466.31 1129.004,473.625 1129.832,475 C1130.66,476.375 1137.22,490.1 1144.411,505.5 C1156.239,530.829 1159.935,538.671 1170.807,561.5 C1172.641,565.35 1175.795,571.987 1177.817,576.25 C1182.191,585.473 1183.367,586.548 1179.613,577.893 C1177.857,573.843 1177.277,571.353 1177.892,570.502 C1179.088,568.846 1188.128,555.557 1197.838,541.181 L1205.482,529.863 L1198.056,518.681 C1190.508,507.316 1182.178,494.599 1162.894,465 C1156.981,455.925 1151.302,447.375 1150.274,446 C1146.011,440.3 1138.503,427.129 1136.592,422 C1133.23,412.977 1129.725,404.041 1125.807,394.5 C1123.774,389.55 1121.512,383.7 1120.78,381.5 C1120.048,379.3 1117.399,372.55 1114.893,366.5 C1112.387,360.45 1110.333,355.134 1110.328,354.686 C1110.323,354.238 1109.256,351.538 1107.957,348.686 C1106.658,345.834 1105.261,342.375 1104.853,341 C1104.446,339.625 1103.074,336.025 1101.804,333 C1100.535,329.975 1098.447,324.848 1097.164,321.606 C1095.065,316.301 1093.781,314.856 1084.325,307.159 C1075.168,299.706 1071.238,296.379 1061.819,288.111 C1060.719,287.145 1057.305,284.258 1054.232,281.695 L1048.645,277.035 L1046.992,289.268 M768.336,361.55 C768.346,362.072 769.186,365.817 770.203,369.87 C771.696,375.819 772.668,377.722 775.24,379.735 C777.952,381.858 778.331,382.67 777.778,385.185 C777.063,388.443 776.642,387.974 787.137,395.605 C790.612,398.131 793.644,400.008 793.875,399.777 C794.107,399.546 792.341,396.464 789.951,392.928 C787.561,389.393 782.09,381.1 777.793,374.5 C769.281,361.428 768.31,360.098 768.336,361.55 M863.319,373.1 C860.294,374.175 856.581,375.273 855.068,375.542 C853.555,375.81 849.842,376.955 846.818,378.086 C841.873,379.936 841.319,380.439 841.319,383.072 C841.319,384.682 841.76,386 842.299,386 C843.588,386 851.676,382.807 852.319,382.044 C852.594,381.718 857.207,379.294 862.569,376.657 C867.931,374.02 872.319,371.668 872.319,371.431 C872.319,370.531 868.62,371.217 863.319,373.1 M653.565,399.891 L641.31,411.5 L641.315,433.458 L641.319,455.416 L636.749,450.958 L632.18,446.5 L635.625,452.627 C637.52,455.996 639.662,461.059 640.384,463.877 C641.55,468.426 641.995,469 644.353,469 C645.814,469 647.83,469.907 648.833,471.016 C650.601,472.969 650.598,473.079 648.738,474.55 C642.769,479.271 642.589,479.324 639.603,477.255 C638.072,476.194 635.981,475.022 634.958,474.651 C633.466,474.111 633.24,474.327 633.818,475.739 C634.215,476.707 634.772,479.4 635.056,481.723 C635.672,486.751 637.278,487.557 643.476,485.948 C647.208,484.979 648.326,484.014 651.423,479.088 L655.027,473.357 L652.423,470.329 C646.11,462.991 646.067,462.912 647.651,461.66 C648.459,461.022 652.979,457.602 657.697,454.061 C662.414,450.519 666.091,447.438 665.867,447.214 C665.468,446.815 655.135,450.59 648.445,453.579 C646.59,454.407 644.886,454.901 644.66,454.674 C644.434,454.448 647.367,450.941 651.178,446.881 L658.107,439.5 L662.823,442.807 C665.417,444.626 667.812,445.84 668.146,445.506 C668.809,444.843 668.715,441.971 666.985,409.891 L665.819,388.281 L653.565,399.891 M681.319,393.441 C681.319,395.233 682.971,396.333 684.368,395.47 C685.084,395.027 685.046,394.376 684.245,393.411 C682.734,391.59 681.319,391.605 681.319,393.441 M651.121,412.75 L647.516,416.5 L647.102,427.64 L646.688,438.781 L651.753,439.292 C654.54,439.573 657.202,439.442 657.669,439.001 C658.613,438.111 656.375,409 655.362,409 C655.012,409 653.103,410.688 651.121,412.75 M174.956,599.83 C173.971,608.448 172.909,616.625 172.596,618 C172.172,619.868 174.352,618.126 181.218,611.11 L190.408,601.72 L188.335,597.311 C187.195,594.885 186.496,592.523 186.781,592.062 C187.295,591.23 182.697,587.305 178.784,585.236 C176.809,584.192 176.695,584.626 174.956,599.83 M1182.319,587.441 C1182.319,588.234 1182.727,589.134 1183.226,589.442 C1183.724,589.751 1183.897,589.102 1183.609,588.001 C1182.998,585.666 1182.319,585.371 1182.319,587.441"/></g></svg>