<svg xmlns="http://www.w3.org/2000/svg" width="1262.434" height="990.386" viewBox="0 0 1262.434 990.386"><g fill="#F0F0F0" fill-rule="evenodd"><path fill-opacity=".204" d="M553.613543,14.3504775 L504.794543,28.6124775 L498.773543,34.5124775 C495.461543,37.7574775 487.091543,46.9374775 480.172543,54.9124775 C473.253543,62.8874775 467.236543,69.8234775 466.800543,70.3254775 C466.364543,70.8274775 435.728543,76.2274775 398.720543,82.3254775 L331.433543,93.4124775 L311.392543,120.031477 L291.352543,146.651477 L278.152543,196.531477 C270.892543,223.966477 260.004543,266.869477 253.956543,291.873477 C244.407543,331.349477 241.377543,342.080477 230.940543,373.390477 L218.922543,409.446477 L199.177543,446.447477 L179.433543,483.449477 L139.381543,535.430477 C54.5885426,645.481477 -0.140457447,720.528477 0.000270753873,726.557477 C0.0375425534,728.127477 2.62454255,745.150477 5.75054255,764.384477 L11.4335426,799.357477 L22.7395426,804.307477 L34.0445426,809.257477 L38.7075426,806.991477 C41.2725426,805.745477 43.5195426,805.105477 43.6995426,805.569477 C43.8805426,806.032477 49.2995426,819.237477 55.7425426,834.912477 L67.4565426,863.412477 L149.144543,894.984477 L230.831543,926.555477 L273.632543,935.680477 C297.173543,940.699477 350.633543,951.535477 392.433543,959.761477 L468.433543,974.718477 L570.566543,982.552477 L672.699543,990.386477 L788.566543,980.044477 L904.433543,969.702477 L941.433543,962.828477 C977.608543,956.108477 979.880543,955.542477 1043.32254,937.453477 L1108.21154,918.951477 L1123.25554,925.931477 C1131.52954,929.771477 1138.62654,932.912477 1139.02554,932.912477 C1139.42454,932.912477 1142.57054,927.849477 1146.01754,921.662477 C1155.66554,904.341477 1154.10354,905.738477 1168.12454,901.894477 L1180.43354,898.520477 L1221.43354,858.410477 L1262.43354,818.300477 L1238.96854,773.354477 L1215.50354,728.409477 L1157.39354,706.949477 L1099.28354,685.489477 L1070.63454,599.450477 C1054.05154,549.649477 1036.75854,495.512477 1029.57554,470.912477 L1017.16554,428.412477 L1016.48954,376.412477 L1015.81354,324.412477 L1000.62354,278.412477 L985.433543,232.412477 L927.935543,198.898477 L870.437543,165.383477 L835.435543,123.893477 L800.433543,82.4034775 L731.933543,57.1324775 C694.258543,43.2344775 662.609543,31.8734775 661.602543,31.8874775 C660.595543,31.9014775 647.763543,24.7124775 633.086543,15.9124775 C618.410543,7.11247749 605.508543,-0.0475225068 604.417543,0.000237553659 C603.326543,0.0494774932 580.464543,6.50647749 553.613543,14.3504775 M514.440543,110.662477 C510.107543,116.574477 504.284543,123.989477 501.498543,127.139477 C496.517543,132.771477 496.343543,132.866477 491.009543,132.889477 L485.584543,132.912477 L487.843543,135.316477 C489.907543,137.514477 491.178543,137.782477 502.622543,138.442477 L515.142543,139.165477 L518.219543,136.088477 C520.637543,133.669477 522.068543,130.365477 524.899543,120.657477 L528.503543,108.305477 L525.979543,104.108477 C524.591543,101.800477 523.199543,99.9124775 522.886543,99.9124775 C522.573543,99.9124775 518.772543,104.750477 514.440543,110.662477 M594.574543,125.939477 C592.023543,129.224477 589.550543,131.912477 589.079543,131.912477 C588.608543,131.912477 586.167543,135.244477 583.653543,139.317477 L579.083543,146.722477 L582.095543,150.817477 C585.471543,155.408477 585.455543,155.405477 598.028543,153.792477 C605.791543,152.797477 607.245543,152.270477 611.135543,149.042477 L615.511543,145.412477 L611.472543,135.135477 C607.824543,125.852477 607.036543,124.622477 603.323543,122.412477 L599.213543,119.965477 L594.574543,125.939477 M513.741543,193.420477 C511.161543,201.638477 509.188543,208.500477 509.357543,208.669477 C509.526543,208.838477 512.207543,207.500477 515.315543,205.694477 L520.965543,202.412477 L520.307543,198.412477 C519.945543,196.212477 519.375543,190.827477 519.041543,186.445477 L518.433543,178.478477 L513.741543,193.420477 M539.591543,203.087477 C537.487543,216.282477 535.974543,227.286477 536.228543,227.540477 C536.482543,227.794477 540.795543,227.692477 545.811543,227.314477 C554.336543,226.670477 554.933543,226.481477 554.933543,224.424477 C554.933543,222.545477 557.639543,218.912477 559.038543,218.912477 C559.284543,218.912477 559.314543,220.712477 559.104543,222.912477 C558.748543,226.653477 558.892543,226.912477 561.328543,226.912477 C563.670543,226.912477 563.934543,226.533477 563.944543,223.162477 C563.950543,221.100477 564.243543,217.612477 564.594543,215.412477 L565.234543,211.412477 L563.083543,213.317477 L560.933543,215.222477 L560.881543,208.817477 C560.830543,202.702477 560.757543,202.514477 559.259543,204.662477 C556.628543,208.433477 555.140543,207.417477 554.380543,201.333477 C553.971543,198.059477 553.115543,195.535477 552.308543,195.226477 C551.552543,194.935477 550.933543,193.403477 550.933543,191.819477 C550.933543,189.570477 551.805543,188.363477 554.917543,186.304477 C557.108543,184.854477 558.648543,183.260477 558.340543,182.762477 C558.032543,182.264477 556.583543,182.729477 555.119543,183.795477 L552.458543,185.734477 L547.937543,182.415477 L543.417543,179.097477 L539.591543,203.087477 M522.179543,202.710477 C521.275543,204.760477 521.185543,206.922477 521.856543,210.481477 C522.833543,215.659477 521.629543,224.364477 519.779543,225.507477 C519.225543,225.849477 519.733543,226.784477 520.924543,227.618477 C522.100543,228.442477 523.271543,228.907477 523.526543,228.652477 C523.781543,228.397477 523.864543,221.817477 523.711543,214.030477 C523.469543,201.694477 523.272543,200.237477 522.179543,202.710477 M588.526543,215.425477 C588.886543,216.860477 588.631543,218.571477 587.933543,219.412477 C587.260543,220.223477 586.970543,221.567477 587.290543,222.399477 C587.609543,223.231477 587.434543,223.912477 586.902543,223.912477 C586.369543,223.912477 585.933543,225.037477 585.933543,226.412477 C585.933543,227.920477 586.504543,228.912477 587.372543,228.912477 C588.991543,228.912477 590.396543,221.705477 590.051543,215.162477 C589.986543,213.924477 589.474543,212.912477 588.914543,212.912477 C588.325543,212.912477 588.161543,213.972477 588.526543,215.425477 M384.667543,454.595477 C384.411543,455.045477 382.946543,459.237477 381.411543,463.912477 L378.620543,472.412477 L354.983543,496.912477 C338.332543,514.172477 323.976543,530.425477 306.404543,551.912477 C286.564543,576.173477 218.331543,655.927477 206.038543,669.226477 C204.607543,670.774477 204.111543,671.806477 204.935543,671.521477 C205.759543,671.236477 233.208543,663.816477 265.933543,655.033477 L325.433543,639.062477 L408.933543,631.420477 C454.858543,627.217477 493.209543,623.471477 494.157543,623.095477 C496.877543,622.017477 486.333543,609.484477 451.828543,572.784477 L421.392543,540.412477 L403.510543,497.412477 C393.675543,473.762477 385.517543,454.270477 385.381543,454.095477 C385.245543,453.921477 384.924543,454.146477 384.667543,454.595477 M832.223543,519.135477 C831.674543,519.837477 827.010543,528.287477 821.859543,537.912477 C814.022543,552.554477 808.720543,560.556477 789.385543,586.912477 C776.676543,604.237477 765.515543,619.586477 764.582543,621.022477 L762.887543,623.631477 L769.160543,624.235477 C772.610543,624.568477 794.558543,626.220477 817.933543,627.907477 C852.227543,630.382477 863.576543,631.575477 876.708543,634.085477 C885.660543,635.795477 893.228543,636.950477 893.527543,636.651477 C894.352543,635.827477 880.478543,607.423477 859.952543,567.912477 C836.381543,522.540477 833.510543,517.491477 832.223543,519.135477 M197.433543,779.606477 C196.333543,779.860477 180.860543,783.633477 163.049543,787.990477 C145.238543,792.347477 130.536543,795.912477 130.379543,795.912477 C130.221543,795.912477 129.808543,794.620477 129.461543,793.041477 C128.871543,790.351477 128.565543,790.194477 124.632543,790.553477 C122.322543,790.764477 107.399543,792.077477 91.4685426,793.472477 C75.5385426,794.867477 62.3735426,796.139477 62.2125426,796.299477 C62.0525426,796.460477 62.8285426,797.412477 63.9385426,798.416477 C65.6505426,799.966477 68.9025426,800.396477 85.4725426,801.265477 C104.121543,802.242477 106.646543,802.137477 142.211543,798.896477 L179.433543,795.504477 L185.346543,791.994477 C191.152543,788.547477 202.396543,778.913477 200.433543,779.066477 C199.883543,779.109477 198.533543,779.352477 197.433543,779.606477"/><path fill-opacity=".089" d="M634.933543,17.5554775 C634.933543,17.8674775 636.085543,21.9004775 637.493543,26.5164775 C638.901543,31.1324775 639.825543,35.2784775 639.546543,35.7294775 C639.267543,36.1804775 634.734543,37.3964775 629.472543,38.4304775 C617.988543,40.6884775 617.369543,40.9904775 618.791543,43.6474775 C619.822543,45.5734775 620.095543,45.5884775 627.415543,44.1324775 C634.484543,42.7254775 635.240543,42.7474775 639.054543,44.4664775 C643.659543,46.5434775 644.455543,48.0684775 646.519543,58.7614775 C647.299543,62.8034775 648.185543,66.5114775 648.488543,67.0014775 C648.791543,67.4914775 646.926543,68.4564775 644.345543,69.1474775 L639.652543,70.4024775 L640.276543,82.0044775 L640.900543,93.6054775 L637.050543,94.7594775 C634.933543,95.3934775 628.472543,95.9124775 622.692543,95.9124775 L612.183543,95.9124775 L611.558543,92.7874775 C611.214543,91.0684775 610.933543,88.1434775 610.933543,86.2874775 L610.933543,82.9124775 L594.111543,82.9124775 C581.260543,82.9124775 576.172543,82.5314775 572.557543,81.3004775 C569.954543,80.4134775 567.667543,79.8504775 567.474543,80.0504775 C567.281543,80.2494775 565.843543,83.0714775 564.278543,86.3214775 C561.613543,91.8574775 561.068543,92.3674775 555.652543,94.3794775 C548.693543,96.9664775 537.098543,106.448477 532.884543,113.000477 C530.011543,117.466477 529.933543,117.923477 529.933543,130.317477 C529.933543,142.010477 529.790543,143.001477 528.174543,142.489477 C525.817543,141.741477 516.826543,150.457477 510.933543,159.204477 C508.458543,162.877477 506.110543,165.889477 505.716543,165.897477 C505.322543,165.905477 501.337543,163.587477 496.861543,160.745477 L488.722543,155.578477 L481.327543,159.237477 C477.261543,161.249477 473.933543,163.277477 473.933543,163.744477 C473.933543,164.210477 475.220543,168.376477 476.794543,173.002477 C478.912543,179.226477 480.375543,187.259477 482.426543,203.912477 C483.950543,216.287477 485.479543,226.950477 485.824543,227.607477 C486.240543,228.401477 488.855543,226.984477 493.599543,223.394477 C498.963543,219.336477 500.886543,218.347477 501.302543,219.432477 C501.615543,220.246477 502.530543,220.620477 503.395543,220.288477 C505.789543,219.369477 505.273543,222.659477 502.817543,223.974477 C500.965543,224.965477 500.757543,225.780477 501.149543,230.509477 L501.598543,235.912477 L496.745543,235.912477 C493.368543,235.912477 490.759543,235.195477 488.163543,233.554477 C484.799543,231.427477 484.099543,230.175477 481.026543,220.804477 C479.152543,215.088477 477.406543,211.087477 477.145543,211.912477 C475.707543,216.464477 460.617543,254.539477 459.985543,255.211477 C459.572543,255.651477 457.822543,253.851477 456.095543,251.211477 C454.369543,248.572477 452.932543,246.637477 452.902543,246.912477 C452.872543,247.187477 452.053543,251.771477 451.082543,257.098477 L449.317543,266.785477 L473.481543,300.098477 C486.771543,318.421477 497.534543,333.550477 497.399543,333.718477 C497.265543,333.886477 480.585543,324.211477 460.333543,312.218477 L423.512543,290.412477 L419.817543,277.556477 C417.785543,270.486477 415.742543,264.354477 415.277543,263.930477 C414.813543,263.506477 411.283543,262.138477 407.433543,260.889477 C403.583543,259.641477 399.758543,258.384477 398.933543,258.096477 C397.880543,257.729477 398.029543,258.259477 399.433543,259.875477 L401.433543,262.178477 L399.433543,261.602477 C398.333543,261.285477 387.083543,258.919477 374.433543,256.345477 C361.783543,253.770477 350.960543,251.081477 350.382543,250.368477 C349.803543,249.656477 348.518543,244.762477 347.526543,239.492477 C346.533543,234.223477 345.397543,229.912477 345.002543,229.912477 C344.606543,229.912477 340.941543,232.725477 336.858543,236.162477 L329.433543,242.412477 L322.035543,241.912477 L314.636543,241.412477 L310.615543,232.047477 L306.594543,222.683477 L303.112543,232.395477 C301.197543,237.737477 295.067543,250.564477 289.491543,260.899477 L279.353543,279.691477 L274.893543,268.302477 C272.440543,262.039477 270.208543,256.917477 269.933543,256.921477 C268.328543,256.944477 261.130543,286.019477 255.472543,315.333477 C251.871543,333.989477 248.787543,349.392477 248.618543,349.560477 C248.450543,349.729477 247.258543,346.614477 245.970543,342.639477 L243.628543,335.412477 L231.031543,372.953477 L218.433543,410.494477 L199.002543,446.878477 L179.570543,483.261477 L140.970543,533.337477 C56.2095426,643.295477 -0.140457447,720.532477 0.00027854964,726.557477 C0.0375425534,728.127477 2.62454255,745.147477 5.75054255,764.379477 L11.4335426,799.345477 L21.9335426,804.051477 C27.7085426,806.640477 33.0695426,808.792477 33.8475426,808.835477 C34.6245426,808.877477 44.2995426,804.092477 55.3475426,798.201477 L75.4335426,787.489477 L105.060543,759.451477 C121.355543,744.029477 149.930543,718.373477 168.560543,702.436477 L202.433543,673.461477 L243.619543,625.936477 C266.271543,599.798477 295.475543,565.362477 308.516543,549.412477 C324.912543,529.359477 339.385543,513.008477 355.428543,496.412477 L378.629543,472.412477 L381.405543,463.912477 C382.932543,459.237477 384.463543,455.101477 384.807543,454.721477 C385.151543,454.341477 393.521543,473.466477 403.407543,497.221477 L421.381543,540.412477 L451.917543,572.912477 C488.849543,612.221477 514.235543,643.552477 532.116543,671.894477 C538.542543,682.079477 543.492543,690.679477 543.116543,691.004477 C542.741543,691.330477 521.733543,693.283477 496.433543,695.344477 L450.433543,699.091477 L420.933543,706.519477 C404.708543,710.605477 390.741543,714.334477 389.894543,714.806477 C389.048543,715.279477 373.545543,719.645477 355.443543,724.509477 L322.531543,733.352477 L295.732543,757.201477 C280.993543,770.318477 268.933543,781.405477 268.933543,781.838477 C268.933543,782.272477 274.682543,794.951477 281.708543,810.013477 L294.484543,837.398477 L336.958543,854.158477 C360.319543,863.375477 397.208543,877.264477 418.933543,885.022477 L458.433543,899.127477 L500.433543,908.057477 L542.433543,916.987477 L596.933543,920.926477 C626.908543,923.093477 655.033543,924.865477 659.433543,924.863477 C663.833543,924.862477 696.458543,922.205477 731.933543,918.958477 L796.433543,913.055477 L841.933543,900.065477 C871.401543,891.652477 902.056543,882.040477 928.933543,872.785477 L970.433543,858.495477 L987.602543,842.616477 C997.045543,833.883477 1005.10854,826.734477 1005.52054,826.731477 C1005.93254,826.727477 1010.13254,833.629477 1014.85454,842.068477 L1023.44054,857.412477 L1052.93654,882.111477 L1082.43354,906.811477 L1110.37154,919.882477 C1125.73754,927.071477 1138.68954,932.827477 1139.15354,932.675536 C1139.61754,932.517477 1147.75854,918.671477 1157.24454,901.901477 L1174.49254,871.412477 L1158.33054,830.912477 C1149.44254,808.637477 1133.85454,770.837477 1123.69254,746.912477 L1105.21654,703.412477 L1073.59954,608.412477 C1054.65354,551.484477 1037.01054,496.380477 1029.57454,470.912477 L1017.16554,428.412477 L1016.48954,376.412477 L1015.81354,324.412477 L1000.62354,278.412477 L985.433543,232.412477 L927.935543,198.898477 L870.437543,165.383477 L835.435543,123.886477 L800.433543,82.3884775 L749.037543,63.4004775 C681.068543,38.2894775 679.271543,37.6424775 680.433543,38.6884775 C680.983543,39.1834775 684.246543,41.7124775 687.683543,44.3094775 C691.121543,46.9054775 693.933543,49.1864775 693.933543,49.3784775 C693.933543,50.8804775 674.641543,40.8834775 656.683543,30.0764775 C644.721543,22.8774775 634.933543,17.2434775 634.933543,17.5554775 M493.457543,85.4194775 C490.352543,89.9444775 486.685543,94.1604775 485.308543,94.7874775 C482.460543,96.0854775 482.720543,95.1284775 486.332543,91.0254775 C487.487543,89.7124775 487.981543,88.8124775 487.428543,89.0254775 C476.792543,93.1244775 477.107543,92.8754775 475.992543,98.0754775 C474.649543,104.333477 474.654543,105.856477 476.009543,103.912477 C476.803543,102.772477 476.929543,103.132477 476.531543,105.412477 C476.244543,107.062477 475.495543,111.337477 474.867543,114.912477 C474.239543,118.487477 472.872543,123.791477 471.829543,126.700477 C470.786543,129.608477 469.933543,132.195477 469.933543,132.450477 C469.933543,132.704477 471.603543,132.912477 473.645543,132.912477 C476.589543,132.912477 478.193543,133.711477 481.395543,136.771477 C485.317543,140.519477 485.777543,140.676477 497.433543,142.272477 C514.035543,144.544477 513.334543,144.655477 517.048543,139.162477 C520.004543,134.789477 520.051543,134.601477 517.642543,136.793477 C515.082543,139.123477 514.757543,139.159477 502.729543,138.465477 L490.433543,137.756477 L484.683543,132.116477 C481.520543,129.013477 478.938543,126.011477 478.944543,125.443477 C478.950543,124.876477 482.332543,122.639477 486.459543,120.472477 L493.964543,116.531477 L500.114543,105.590477 C506.320543,94.5494775 512.442543,86.8924775 515.028543,86.9364775 C515.801543,86.9494775 518.642543,91.0034775 521.341543,95.9444775 C524.041543,100.886477 526.402543,104.776477 526.590543,104.589477 C526.861543,104.318477 522.950543,89.3764775 520.337543,80.6974775 C519.765543,78.7974775 517.107543,78.2114775 506.268543,77.5974775 L499.104543,77.1914775 L493.457543,85.4194775 M582.099543,99.3654775 C579.423543,102.141477 575.783543,106.489477 574.010543,109.028477 C572.237543,111.567477 569.560543,114.551477 568.061543,115.659477 C565.491543,117.559477 565.369543,118.009477 565.901543,123.577477 C566.430543,129.107477 567.061543,130.294477 575.864543,142.318477 L585.262543,155.154477 L591.848543,154.480477 C595.470543,154.109477 600.458543,153.555477 602.933543,153.250477 C607.023543,152.745477 607.251543,152.824477 605.433543,154.116477 C603.708543,155.343477 584.475543,158.951477 579.812543,158.922477 C578.921543,158.916477 576.338543,156.100477 574.071543,152.662477 L569.951543,146.412477 L569.928543,150.912477 C569.916543,153.387477 569.655543,156.344477 569.350543,157.483477 C568.919543,159.085477 569.681543,160.141477 572.712543,162.147477 C575.666543,164.102477 577.201543,166.177477 578.946543,170.576477 C581.931543,178.103477 582.132543,178.334477 587.471543,180.373477 L591.981543,182.096477 L613.207543,174.384477 C624.881543,170.143477 634.991543,166.374477 635.673543,166.009477 C636.488543,165.571477 634.228543,162.676477 629.061543,157.539477 L621.209543,149.734477 L624.092543,139.073477 C625.678543,133.209477 627.245543,127.287477 627.575543,125.912477 C627.923543,124.461477 625.800543,126.769477 622.516543,131.412477 C619.168543,136.146477 617.039543,140.126477 617.302543,141.162477 C617.592543,142.305477 617.169543,142.912477 616.084543,142.912477 C614.964543,142.912477 613.657543,140.877477 612.071543,136.662477 C610.777543,133.225477 606.055543,122.472477 601.576543,112.767477 C593.688543,95.6764775 593.332543,95.1104775 590.199543,94.7204775 C587.389543,94.3704775 586.325543,94.9804775 582.099543,99.3654775 M540.501543,158.096477 C538.841543,165.730477 533.933543,211.199477 533.933543,218.944477 L533.933543,228.205477 L541.584543,227.559477 C545.792543,227.203477 552.465543,226.912477 556.413543,226.912477 L563.591543,226.912477 L565.013543,211.662477 C566.304543,197.814477 566.275543,195.130477 564.702543,182.468477 L562.969543,168.524477 L558.909543,164.388477 C555.317543,160.728477 550.672543,158.424477 542.219543,156.111477 C541.551543,155.929477 540.778543,156.822477 540.501543,158.096477 M513.304543,166.162477 C510.183543,172.197477 501.933543,198.308477 501.933543,202.149477 C501.933543,204.496477 503.243543,208.563477 505.341543,212.729477 C508.319543,218.642477 509.642543,220.090477 515.829543,224.204477 C519.723543,226.793477 523.139543,228.912477 523.421543,228.912477 C523.703543,228.912477 523.934543,217.324477 523.935543,203.162477 L523.938543,177.412477 L520.755543,170.162477 C519.004543,166.174477 516.989543,162.912477 516.278543,162.912477 C515.566543,162.912477 514.228543,164.374477 513.304543,166.162477 M577.528543,187.759477 C577.181543,188.320477 576.944543,194.180477 577.002543,200.781477 C577.093543,211.230477 577.309543,212.705477 578.671543,212.182477 C580.314543,211.552477 580.323543,211.255477 578.237543,226.662477 C577.673543,230.822477 577.722543,230.911477 580.547543,230.854477 C582.134543,230.823477 585.218543,230.480477 587.399543,230.093477 C591.191543,229.420477 591.364543,229.225477 591.350543,225.651477 C591.342543,223.594477 591.807543,221.908477 592.384543,221.903477 C592.961543,221.898477 595.105543,218.953477 597.148543,215.358477 L600.864543,208.823477 L596.870543,211.068477 C594.669543,212.304477 592.940543,214.009477 593.019543,214.862477 C593.098543,215.715477 593.093543,217.537477 593.008543,218.912477 L592.853543,221.412477 L591.522543,218.912477 C590.790543,217.537477 589.142543,211.912477 587.861543,206.412477 C586.221543,199.371477 584.650543,195.228477 582.554543,192.412477 C578.309543,186.708477 578.225543,186.630477 577.528543,187.759477 M504.194543,227.412477 C503.604543,229.337477 503.476543,230.912477 503.910543,230.912477 C504.344543,230.912477 504.926543,230.125477 505.203543,229.162477 C505.480543,228.199477 506.030543,226.625477 506.427543,225.662477 C506.823543,224.699477 506.724543,223.912477 506.208543,223.912477 C505.691543,223.912477 504.785543,225.487477 504.194543,227.412477 M515.081543,229.915477 C515.305543,231.501477 514.704543,233.038477 513.433543,234.129477 C511.521543,235.770477 511.885543,235.847477 521.683543,235.879477 C528.109543,235.900477 531.933543,236.301477 531.933543,236.955477 C531.933543,237.528477 534.007543,240.215477 536.541543,242.924477 C541.122543,247.822477 541.168543,247.842477 544.095543,246.328477 C545.714543,245.491477 547.808543,244.042477 548.748543,243.109477 C549.688543,242.176477 552.624543,239.642477 555.272543,237.478477 C560.526543,233.186477 560.759543,233.252477 563.141543,239.688477 C563.894543,241.722477 564.857543,242.771477 565.680543,242.455477 C566.410543,242.175477 569.442543,241.239477 572.417543,240.374477 C577.349543,238.940477 577.754543,238.607477 576.992543,236.606477 C576.144543,234.381477 574.873543,234.100477 571.642543,235.424477 C570.657543,235.827477 569.977543,235.765477 570.130543,235.285477 C570.283543,234.805477 569.805543,232.969477 569.068543,231.206477 C567.738543,228.026477 567.707543,228.014477 565.119543,229.706477 C563.266543,230.918477 562.761543,231.005477 563.376543,230.007477 C564.334543,228.453477 563.424543,228.863477 558.779543,232.076477 C555.484543,234.355477 554.933543,234.367477 554.933543,232.162477 C554.933543,230.553477 553.469543,230.427477 536.690543,230.597477 C520.830543,230.759477 518.205543,230.563477 516.588543,229.100477 C514.820543,227.500477 514.746543,227.539477 515.081543,229.915477 M832.223543,519.135477 C831.674543,519.837477 827.010543,528.287477 821.859543,537.912477 C814.012543,552.574477 808.744543,560.520477 789.370543,586.912477 C776.652543,604.237477 759.538543,628.537477 751.340543,640.912477 C738.717543,659.964477 735.608543,665.447477 731.048543,676.694477 C728.086543,683.999477 725.886543,690.199477 726.159543,690.471477 C726.431543,690.744477 738.980543,691.829477 754.044543,692.883477 C781.217543,694.785477 781.883543,694.886477 838.433543,705.724477 C888.574543,715.334477 898.606543,717.573477 921.799543,724.331477 C936.301543,728.556477 948.311543,731.867477 948.490543,731.689477 C948.668543,731.510477 941.116543,719.450477 931.707543,704.888477 C915.887543,680.404477 913.237543,675.590477 896.483543,640.912477 C879.533543,605.826477 846.710543,541.544477 837.366543,525.135477 C834.292543,519.737477 832.964543,518.188477 832.223543,519.135477 M943.933543,734.835477 C951.695543,737.965477 952.991543,738.228477 952.345543,736.543477 C952.028543,735.718477 949.534543,734.563477 946.802543,733.977477 C939.711543,732.457477 938.748543,732.745477 943.933543,734.835477 M725.933543,756.716477 C725.933543,757.232477 727.621543,759.502477 729.683543,761.759477 L733.433543,765.863477 L756.933543,771.494477 C779.501543,776.902477 785.727543,778.969477 830.433543,795.892477 C834.460543,797.416477 833.729543,796.757477 816.433543,783.272477 L802.433543,772.356477 L765.933543,764.581477 C745.858543,760.304477 728.645543,756.574477 727.683543,756.291477 C726.721543,756.008477 725.933543,756.200477 725.933543,756.716477 M515.816543,764.316477 L490.200543,768.486477 L478.316543,778.355477 C471.781543,783.783477 466.003543,788.607477 465.477543,789.074477 C464.948543,789.544477 467.407543,789.647477 470.977543,789.305477 C475.501543,788.871477 482.371543,786.743477 493.933543,782.194477 C506.990543,777.057477 513.459543,775.138477 524.933543,772.995477 L539.433543,770.287477 L542.246543,765.100477 C544.743543,760.496477 544.856543,759.925477 543.246543,760.029477 C542.249543,760.094477 529.906543,762.023477 515.816543,764.316477 M452.933543,822.371477 C452.933543,822.561477 459.555543,828.255477 467.649543,835.025477 L482.365543,847.332477 L515.899543,855.586477 C534.343543,860.126477 550.108543,863.853477 550.933543,863.869634 C552.945543,863.907477 570.846543,857.020477 568.933543,856.944477 C568.108543,856.911477 559.783543,855.997477 550.433543,854.912477 C541.083543,853.827477 533.009543,852.934477 532.492543,852.926477 C531.974543,852.918477 532.424543,852.274477 533.490543,851.494477 C534.557543,850.714477 535.206543,849.885477 534.931543,849.653477 C534.657543,849.421477 527.458543,847.761477 518.933543,845.965477 C503.671543,842.749477 497.710543,840.625477 460.183543,825.037477 C456.196543,823.381477 452.933543,822.181477 452.933543,822.371477 M810.933543,828.960477 C802.408543,832.745477 793.195543,836.813477 790.459543,838.001477 L785.485543,840.160477 L792.320543,843.606477 C799.076543,847.011477 799.180543,847.030477 801.294543,845.155477 C802.471543,844.112477 808.721543,838.635477 815.183543,832.984477 C825.213543,824.213477 827.991543,821.559477 826.683543,821.996477 C826.545543,822.041477 819.458543,825.176477 810.933543,828.960477 M749.433543,849.442477 C738.983543,851.306477 729.618543,852.962477 728.622543,853.122477 C727.220543,853.346477 727.874543,854.298477 731.514543,857.331477 L736.218543,861.250477 L755.144543,857.848477 C765.553543,855.977477 774.565543,854.139477 775.171543,853.765477 C775.931543,853.295477 775.977543,852.052477 775.321543,849.748477 C774.051543,845.294477 772.766543,845.278477 749.433543,849.442477 M582.053543,862.238477 L579.004543,866.669477 L603.379543,867.400477 L627.754543,868.131477 L633.301543,864.813477 C636.353543,862.988477 638.756543,861.401477 638.641543,861.287477 C638.527543,861.173477 629.433543,860.591477 618.433543,859.993477 C607.433543,859.396477 595.433543,858.659477 591.767543,858.357477 L585.101543,857.807477 L582.053543,862.238477"/><path fill-opacity=".075" d="M692.933543,53.4664775 C692.933543,53.9864775 693.608543,57.9394775 694.433543,62.2504775 C696.329543,72.1574775 696.328543,72.1724775 693.933543,71.4124775 C691.883543,70.7614775 691.395543,71.5814775 692.698543,73.4874775 C693.313543,74.3854775 704.687543,81.0544775 713.831543,85.8764775 C716.184543,87.1174775 716.215543,87.0774775 715.516543,83.7764775 C715.123543,81.9264775 714.624543,79.1414775 714.406543,77.5874775 C713.910543,74.0544775 692.933543,50.4904775 692.933543,53.4664775 M707.933543,74.7504775 C707.933543,76.2204775 708.818543,77.2984775 710.572543,77.9654775 C714.283543,79.3764775 714.374543,78.7094775 710.923543,75.4024775 C708.034543,72.6354775 707.933543,72.6134775 707.933543,74.7504775 M502.433543,83.6184775 C500.821543,83.9674775 484.623543,105.622477 481.813543,111.184477 C481.472543,111.860477 479.466543,116.130477 477.357543,120.675477 L473.520543,128.937477 L479.258543,134.735477 L484.996543,140.533477 L497.714543,142.245477 C504.710543,143.187477 511.199543,143.947477 512.135543,143.935618 C513.071543,143.922477 515.282543,141.774477 517.048543,139.162477 C519.993543,134.806477 520.043543,134.609477 517.650543,136.785477 C515.097543,139.108477 514.775543,139.143477 502.613543,138.442477 L490.186543,137.725477 L484.398543,131.877477 L478.611543,126.028477 L480.781543,120.357477 C481.975543,117.237477 484.032543,113.836477 485.352543,112.797477 C486.672543,111.759477 490.472543,106.073477 493.796543,100.161477 C502.589543,84.5244775 501.313543,85.6314775 509.602543,86.4484775 C516.219543,87.1004775 516.789543,87.3504775 518.338543,90.2794775 C519.771543,92.9884775 519.925543,93.0744775 519.478543,90.9124775 C519.193543,89.5374775 518.954543,87.6874775 518.947543,86.8004775 C518.926543,84.4044775 508.277543,82.3524775 502.433543,83.6184775 M564.553543,95.6144775 C562.419543,100.453477 559.831543,105.606477 558.803543,107.066477 C556.448543,110.409477 556.472543,111.201477 559.304543,123.647477 C561.479543,133.206477 562.180543,134.708477 569.923543,146.397477 C577.100543,157.232477 578.563543,158.902477 580.823543,158.838477 C586.885543,158.665477 603.950543,155.289477 605.140543,154.027477 C606.227543,152.875477 605.796543,152.750477 602.433543,153.243477 C600.233543,153.566477 595.463543,154.129477 591.834543,154.494477 L585.234543,155.157477 L575.681543,142.045477 L566.127543,128.934477 L565.406543,118.360477 C564.591543,106.395477 565.671543,102.490477 571.636543,95.8424775 L574.840543,92.2734775 L584.136543,93.7514775 L593.433543,95.2294775 L596.064543,100.820477 L598.696543,106.412477 L598.425543,102.412477 C597.818543,93.4384775 598.122543,93.6964775 584.637543,90.7114775 C577.925543,89.2254775 571.533543,87.7414775 570.433543,87.4134775 C568.709543,86.8994775 567.897543,88.0324775 564.553543,95.6144775 M535.608543,151.034477 C534.604543,151.618477 533.528543,151.840477 533.217543,151.529477 C532.905543,151.217477 530.576543,152.680477 528.042543,154.780477 C525.507543,156.879477 522.533543,159.142477 521.433543,159.809477 C519.752543,160.827477 520.192543,160.922477 524.183543,160.405477 C526.795543,160.066477 528.933543,160.080477 528.933543,160.434477 C528.933543,160.789477 528.008543,164.700477 526.878543,169.126477 C525.153543,175.884477 524.996543,177.978477 525.899543,182.191477 C526.491543,184.950477 527.262543,194.791477 527.612543,204.060477 C527.961543,213.329477 528.627543,220.912477 529.090543,220.912477 C529.554543,220.912477 529.933543,223.232477 529.933543,226.068477 L529.933543,231.223477 L543.991543,230.584477 C554.633543,230.099477 558.582543,229.550477 560.241543,228.321477 C562.287543,226.806477 561.483543,226.739477 548.183543,227.319477 L533.933543,227.941477 L533.941543,217.676477 C533.945543,212.031477 534.614543,198.412477 535.427543,187.412477 C536.240543,176.412477 536.911543,164.674477 536.919543,161.329477 C536.927543,157.983477 537.199543,154.979477 537.525543,154.654477 C537.850543,154.328477 540.059543,154.894477 542.433543,155.912477 C544.807543,156.930477 546.938543,157.573477 547.169543,157.343477 C547.400543,157.112477 547.396543,155.612477 547.160543,154.008477 C546.878543,152.081477 546.004543,150.897477 544.583543,150.516477 C541.319543,149.640477 537.639543,149.853477 535.608543,151.034477 M506.317543,175.394477 C502.531543,181.160477 498.882543,185.885477 498.208543,185.894477 C497.306543,185.907477 497.240543,186.590477 497.958543,188.477477 C498.494543,189.888477 498.933543,194.952477 498.933543,199.732477 C498.933543,207.963477 499.131543,208.760477 502.683543,214.851477 C507.543543,223.185477 517.584543,231.468477 521.603543,230.459477 C524.095543,229.833477 523.800543,229.500477 516.338543,224.497477 C509.113543,219.654477 508.142543,218.595477 505.054543,212.188477 C501.691543,205.211477 501.679543,205.131477 502.413543,195.331477 C503.113543,186.005477 503.436543,184.939477 508.522543,175.198477 C511.475543,169.541477 513.736543,164.912477 513.546543,164.912477 C513.356543,164.912477 510.103543,169.629477 506.317543,175.394477 M566.251543,174.512477 C565.512543,176.426477 565.419543,181.075477 565.796543,197.169477 C566.034543,207.336477 566.564543,209.463477 568.466543,207.885477 C569.452543,207.066477 569.938543,207.361477 570.484543,209.109477 C570.879543,210.376477 571.698543,211.729477 572.304543,212.117477 C573.101543,212.627477 573.082543,213.680477 572.232543,215.931477 C571.247543,218.540477 571.370543,219.765477 572.996543,223.559477 C574.061543,226.044477 574.933543,229.391477 574.933543,230.995477 C574.933543,234.306477 575.168543,234.355477 583.123543,232.712477 C590.436543,231.201477 590.728543,229.684477 583.543543,230.528477 L578.153543,231.161477 L577.422543,216.539477 C577.020543,208.497477 577.017543,195.841477 577.415543,188.415477 C577.812543,180.988477 577.888543,174.912477 577.582543,174.912477 C577.277543,174.912477 575.876543,175.436477 574.470543,176.077477 C572.258543,177.085477 571.581543,176.930477 569.449543,174.927477 C567.094543,172.715477 566.953543,172.696477 566.251543,174.512477 M892.433543,178.652477 C892.983543,179.216477 911.208543,190.593477 932.933543,203.933477 C954.658543,217.274477 972.657543,228.388477 972.931543,228.631477 C973.205543,228.875477 972.245543,228.777477 970.799543,228.414477 L968.168543,227.754477 L970.501543,239.083477 C971.784543,245.314477 977.121543,268.159477 982.361543,289.851477 C987.602543,311.542477 991.787543,329.319477 991.661543,329.355477 C990.235543,329.769477 955.969543,353.281477 956.304543,353.616477 C956.702543,354.015477 975.600543,350.594477 980.087543,349.311477 C981.315543,348.960477 983.049543,351.125477 986.824543,357.721477 L991.907543,366.604477 L995.917543,399.008477 C998.123543,416.830477 999.929543,431.975477 999.930543,432.662477 C999.932543,433.350477 999.258543,433.912477 998.433543,433.912477 C997.608543,433.912477 996.943543,434.475477 996.955543,435.162477 C996.967543,435.850477 1002.54854,455.087477 1009.35754,477.912477 C1020.45754,515.117477 1021.57354,519.542477 1020.14354,520.663477 C1018.69154,521.802477 1018.95054,525.767477 1023.01854,564.663477 L1027.48954,607.412477 L1010.36354,613.975477 C999.200543,618.253477 991.181543,621.998477 987.335543,624.730477 L981.433543,628.921477 L979.767543,625.019477 C978.329543,621.650477 977.552543,621.023477 974.078543,620.437477 C969.546543,619.671477 971.109543,622.588477 957.989543,590.412477 C952.624543,577.253477 945.152543,560.113477 944.315543,559.041477 C944.155543,558.838477 941.079543,560.773477 937.479543,563.342477 C933.879543,565.911477 930.933543,567.572477 930.933543,567.032477 C930.933543,566.492477 928.449543,552.857477 925.412543,536.731477 C920.467543,510.469477 913.822543,482.691477 911.996543,480.654477 C911.622543,480.237477 908.902543,481.696477 905.952543,483.898477 C903.002543,486.099477 900.465543,487.777477 900.315543,487.627477 C900.165543,487.477477 900.675543,475.026477 901.449543,459.958477 C902.451543,440.441477 903.226543,432.213477 904.144543,431.351477 C904.853543,430.685477 919.833543,417.880477 937.433543,402.895477 C955.033543,387.910477 970.108543,374.973477 970.933543,374.145477 C972.340543,372.734477 964.597543,377.933477 920.705543,407.868477 C910.955543,414.518477 903.155543,419.386477 903.372543,418.686477 C903.589543,417.985477 904.037543,410.961477 904.368543,403.077477 L904.970543,388.743477 L898.942543,393.985477 C895.627543,396.868477 892.753543,399.044477 892.555543,398.820477 C892.357543,398.595477 890.261543,391.662477 887.898543,383.412477 C885.534543,375.162477 883.000543,368.052477 882.267543,367.612477 C881.195543,366.970477 880.933543,359.802477 880.933543,331.131477 L880.933543,295.450477 L871.183543,305.124477 C861.055543,315.173477 811.092543,355.128477 809.716543,354.278477 C809.286543,354.012477 808.933543,352.512477 808.933543,350.945477 C808.933543,348.656477 809.818543,347.537477 813.431543,345.254477 C815.905543,343.691477 817.930543,341.863477 817.931543,341.192477 C817.932543,340.521477 819.621543,339.001477 821.683543,337.815477 L825.433543,335.658477 L824.548543,323.535477 C824.061543,316.867477 823.525543,311.250477 823.355543,311.053477 C823.186543,310.855477 821.672543,311.674477 819.991543,312.871477 L816.933543,315.048477 L816.933543,308.980477 C816.933543,302.873477 816.185543,301.698477 813.986543,304.348477 C813.119543,305.393477 813.085543,306.328477 813.863543,307.781477 C814.786543,309.506477 814.317543,310.283477 810.433543,313.466477 C806.816543,316.429477 805.933543,317.777477 805.933543,320.332477 C805.933543,322.081477 805.426543,324.019477 804.806543,324.639477 C803.469543,325.976477 804.534543,331.276477 805.962543,330.394477 C806.496543,330.064477 806.933543,330.259477 806.933543,330.827477 C806.933543,332.056477 800.991543,335.303477 800.197543,334.509477 C799.894543,334.207477 800.322543,333.700477 801.147543,333.383477 C802.430543,332.891477 802.297543,331.843477 800.221543,326.124477 C798.887543,322.448477 797.630543,319.276477 797.429543,319.074477 C796.764543,318.410477 792.433543,321.926477 792.433543,323.130477 C792.433543,323.779477 788.177543,327.314477 782.975543,330.986477 C777.772543,334.658477 773.390543,338.056477 773.236543,338.537477 C773.082543,339.018477 775.112543,341.847477 777.747543,344.824477 L782.538543,350.236477 L789.798543,345.923477 C796.634543,341.862477 797.158543,341.709477 798.746543,343.315477 C800.329543,344.915477 800.328543,344.980477 798.726543,344.376477 C796.751543,343.630477 785.964543,350.650477 785.945543,352.694477 C785.938543,353.399477 786.640543,355.649477 787.505543,357.694477 C788.369543,359.739477 789.219543,363.662477 789.393543,366.412477 L789.709543,371.412477 L773.695543,376.412477 C759.639543,380.801477 757.344543,381.820477 754.921543,384.751477 C753.403543,386.588477 751.964543,387.713477 751.723543,387.251477 C751.481543,386.790477 749.967543,382.029477 748.358543,376.673477 L745.433543,366.934477 L733.699543,366.923477 L721.965543,366.912477 L718.895543,361.162477 C716.078543,355.886477 715.830543,355.794477 717.552543,360.662477 C717.892543,361.624477 716.952543,360.690477 715.463543,358.584477 C713.974543,356.479477 712.565543,354.946477 712.333543,355.178477 C711.766543,355.746477 705.933543,373.053477 705.933543,374.169477 C705.933543,374.653477 708.879543,374.943477 712.479543,374.813477 C720.056543,374.538477 720.096543,374.567477 725.219543,384.085477 L728.811543,390.759477 L725.835543,391.796477 L722.860543,392.834477 L725.386543,397.820477 C727.860543,402.702477 728.018543,402.813477 732.894543,403.109477 L737.875543,403.412477 L729.293543,412.912477 C720.291543,422.878477 720.111543,422.980477 709.371543,424.306477 L704.310543,424.931477 L701.642543,419.171477 C700.175543,416.004477 698.853543,412.062477 698.704543,410.412477 L698.433543,407.412477 L695.537543,411.682477 C693.944543,414.031477 692.495543,415.808477 692.318543,415.631477 C692.141543,415.454477 692.841543,412.519477 693.873543,409.110477 L695.750543,402.912477 L693.091543,402.926477 C689.387543,402.945477 685.863543,403.990477 686.428543,404.903477 C686.687543,405.323477 684.320543,405.901477 681.166543,406.186477 L675.433543,406.706477 L664.917543,396.309477 L654.400543,385.912477 L640.917543,385.796477 C627.220543,385.678477 626.654543,385.538477 635.285543,384.399477 L640.138543,383.759477 L637.785543,381.243477 C635.439543,378.734477 635.402543,378.729477 622.875543,379.421477 L610.318543,380.114477 L603.960543,372.943477 L597.603543,365.772477 L592.780543,375.592477 C590.128543,380.993477 587.952543,385.749477 587.945543,386.162477 C587.938543,386.575477 592.321543,386.937477 597.683543,386.967477 L607.433543,387.022477 L613.788543,396.967477 L620.144543,406.912477 L628.075543,406.912477 L636.006543,406.912477 L628.470543,396.960477 C624.324543,391.487477 620.933543,386.762477 620.933543,386.460477 C620.933543,386.159477 622.170543,385.943477 623.683543,385.980477 C625.978543,386.037477 627.974543,388.021477 635.752543,397.980477 L645.070543,409.912477 L658.752543,409.955477 L672.433543,409.997477 L677.334543,417.146477 L682.234543,424.295477 L685.657543,420.354477 C688.588543,416.979477 688.980543,416.771477 688.388543,418.912477 C688.008543,420.287477 687.143543,422.087477 686.467543,422.912477 C683.925543,426.012477 683.898543,427.288477 686.434543,424.412477 L689.080543,421.412477 L688.408543,427.662477 L687.737543,433.912477 L691.585543,433.929477 C695.292543,433.946477 695.521543,434.148477 697.831543,439.485477 L700.230543,445.024477 L696.331543,449.062477 C693.254543,452.251477 684.116543,457.266477 652.930543,472.885477 L613.426543,492.670477 L596.430543,490.934477 L579.433543,489.199477 L573.433543,493.447477 C570.133543,495.784477 566.342543,498.869477 565.009543,500.304477 C562.741543,502.743477 562.000543,502.912477 553.551543,502.912477 C544.591543,502.912477 544.488543,502.940477 540.964543,506.381477 L537.411543,509.851477 L497.242543,514.078477 L457.072543,518.305477 L455.253543,516.256477 C454.252543,515.130477 447.808543,510.693477 440.933543,506.397477 C434.058543,502.101477 427.688543,497.872477 426.777543,496.999477 C425.866543,496.126477 422.610543,487.496477 419.541543,477.820477 C413.965543,460.242477 413.958543,460.227477 410.164543,458.516477 C406.604543,456.911477 405.985543,455.914477 400.187543,442.447477 L394.005543,428.090477 L397.462543,417.827477 C399.363543,412.182477 400.725543,407.371477 400.489543,407.135477 C400.254543,406.899477 397.078543,407.699477 393.433543,408.912477 C389.788543,410.125477 386.674543,410.959477 386.513543,410.765477 C386.352543,410.571477 382.894543,402.648477 378.828543,393.158477 C374.762543,383.668477 371.305543,376.297477 371.144543,376.778477 C370.984543,377.260477 371.452543,381.435477 372.184543,386.057477 L373.515543,394.462477 L370.259543,394.081477 C368.468543,393.872477 366.606543,393.186477 366.120543,392.557477 C365.635543,391.927477 363.995543,387.362477 362.477543,382.412477 C360.959543,377.462477 357.135543,366.887477 353.980543,358.912477 C350.824543,350.937477 347.927543,343.535477 347.543543,342.464477 C346.994543,340.935477 345.291543,343.358477 339.638543,353.710477 C335.675543,360.966477 332.132543,366.906477 331.765543,366.908477 C331.397543,366.910477 330.081543,365.270477 328.841543,363.264477 L326.586543,359.615477 L319.974543,373.514477 C316.337543,381.158477 309.781543,395.629477 305.406543,405.672477 L297.450543,423.933477 L294.427543,420.331477 L291.403543,416.730477 L280.918543,428.161477 L270.433543,439.593477 L264.062543,460.606477 L257.691543,481.619477 L254.562543,478.220477 L251.433543,474.822477 L237.286543,494.617477 C229.505543,505.504477 219.103543,520.140477 214.171543,527.140477 C205.387543,539.607477 205.166543,539.827477 203.413543,537.890477 C202.429543,536.802477 201.269543,535.912477 200.836543,535.912477 C198.735543,535.912477 171.023543,569.889477 150.933543,597.097477 L128.433543,627.568477 L125.508543,623.619477 C123.114543,620.388477 122.387543,619.931477 121.508543,621.104477 C120.917543,621.892477 114.672543,630.235477 107.630543,639.645477 C98.8215426,651.416477 93.9715426,657.052477 92.0815426,657.711477 C90.2165426,658.361477 85.6975426,663.532477 77.9965426,673.828477 L66.6565426,688.989477 L68.8495426,691.322477 L71.0415426,693.656477 L60.6265426,704.534477 L50.2115426,715.412477 L38.3905426,742.180477 C31.5375426,757.698477 26.1975426,768.576477 25.6845426,768.063477 C25.1985426,767.577477 19.2055426,757.792477 12.3665426,746.320477 C5.52854255,734.848477 -0.0364574466,726.350477 0.000359114404,727.437477 C0.0375425534,728.523477 2.62454255,745.147477 5.75054255,764.379477 L11.4335426,799.345477 L21.9335426,804.051477 C27.7085426,806.640477 33.0695426,808.792477 33.8475426,808.835477 C34.6245426,808.877477 44.2995426,804.092477 55.3475426,798.201477 L75.4335426,787.489477 L105.060543,759.451477 C121.355543,744.029477 149.930543,718.373477 168.560543,702.436477 L202.433543,673.461477 L243.619543,625.936477 C266.271543,599.798477 295.475543,565.362477 308.516543,549.412477 C324.912543,529.359477 339.385543,513.008477 355.428543,496.412477 L378.629543,472.412477 L381.405543,463.912477 C382.932543,459.237477 384.463543,455.101477 384.807543,454.721477 C385.151543,454.341477 393.521543,473.466477 403.407543,497.221477 L421.381543,540.412477 L451.917543,572.912477 C491.194543,614.717477 514.081543,643.254477 534.938543,676.433477 L549.444543,699.507477 L552.363543,719.369477 L555.282543,739.232477 L547.358543,754.788477 L539.433543,770.343477 L524.933543,773.023477 C513.380543,775.158477 507.079543,777.022477 493.933543,782.194477 C482.371543,786.743477 475.501543,788.871477 470.977543,789.305477 C467.426543,789.646477 464.951543,789.545477 465.477543,789.082477 C466.003543,788.618477 470.371543,784.967477 475.183543,780.968477 C479.996543,776.969477 483.933543,773.563477 483.933543,773.399477 C483.933543,773.235477 479.996543,774.188477 475.183543,775.516477 C470.371543,776.843477 452.940543,781.630477 436.449543,786.153477 L406.465543,794.377477 L390.449543,808.769477 C381.640543,816.684477 373.853543,823.701477 373.144543,824.361477 C372.103543,825.330477 372.494543,826.699477 375.181543,831.486477 L378.506543,837.412477 L425.470543,853.787477 L472.433543,870.161477 L535.433543,878.890477 L598.433543,887.619477 L674.280543,890.484477 L750.127543,893.350477 L674.280543,900.593477 C632.564543,904.577477 595.733543,907.851477 592.433543,907.870477 C589.133543,907.888477 553.613543,904.312477 513.500543,899.924477 C473.387543,895.535477 440.420543,892.091477 440.241543,892.270477 C440.062543,892.449477 444.757543,894.239477 450.674543,896.246477 C456.962543,898.380477 478.472543,903.477477 502.433543,908.511477 L543.433543,917.125477 L596.933543,920.976477 C626.358543,923.094477 654.258543,924.834477 658.933543,924.844477 C663.608543,924.853477 696.458543,922.204477 731.933543,918.958477 L796.433543,913.054477 L841.524543,900.208477 L886.614543,887.362477 L904.774543,870.532477 C914.761543,861.276477 922.933543,853.556477 922.933543,853.376477 C922.933543,853.196477 919.670543,854.119477 915.683543,855.426477 C883.916543,865.837477 871.170543,869.912477 870.376543,869.912477 C869.867543,869.912477 879.256543,860.099477 891.240543,848.105477 L913.031543,826.298477 L909.232543,818.355477 L905.433543,810.412477 L867.986543,796.412477 C847.391543,788.712477 827.591543,781.868477 823.986543,781.203477 C820.382543,780.538477 815.879543,779.713477 813.980543,779.369477 C810.909543,778.814477 811.628543,779.597477 820.480543,786.454477 C833.401543,796.461477 834.375543,797.384477 830.433543,795.892477 C786.029543,779.083477 779.375543,776.869477 756.933543,771.441477 C743.501543,768.192477 732.630543,765.041477 731.558543,764.085477 C730.527543,763.165477 727.487543,759.167477 724.804543,755.202477 L719.925543,747.991477 L719.323543,727.202477 L718.720543,706.412477 L728.120543,683.912477 C737.153543,662.292477 738.082543,660.572477 751.895543,639.912477 C759.800543,628.087477 776.669543,604.237477 789.381543,586.912477 C808.727543,560.546477 814.019543,552.560477 821.859543,537.912477 C827.010543,528.287477 831.674543,519.837477 832.223543,519.135477 C832.964543,518.188477 834.292543,519.737477 837.366543,525.135477 C846.880543,541.844477 879.606543,605.976477 896.065543,640.166477 L913.758543,676.921477 L947.095543,728.652477 C972.772543,768.496477 985.373543,789.233477 1001.93354,818.898477 L1023.43354,857.412477 L1052.93354,882.111477 L1082.43354,906.811477 L1110.37154,919.882477 C1125.73754,927.071477 1138.68954,932.827477 1139.15354,932.675536 C1139.61754,932.517477 1147.75854,918.671477 1157.24454,901.901477 L1174.49254,871.412477 L1158.33054,830.912477 C1149.44254,808.637477 1133.85454,770.837477 1123.69254,746.912477 L1105.21654,703.412477 L1073.59954,608.412477 C1054.65354,551.484477 1037.01054,496.380477 1029.57454,470.912477 L1017.16554,428.412477 L1016.48954,376.412477 L1015.81354,324.412477 L1000.62354,278.412477 L985.433543,232.412477 L942.933543,207.650477 C919.558543,194.031477 898.408543,181.704477 895.933543,180.257477 C893.458543,178.810477 891.883543,178.088477 892.433543,178.652477 M632.933543,209.757477 C632.933543,210.222477 633.817543,211.402477 634.897543,212.379477 C636.839543,214.137477 636.826543,214.207477 633.760543,218.663477 C631.097543,222.533477 627.933543,230.357477 627.933543,233.071477 C627.933543,233.534477 632.192543,233.912477 637.396543,233.912477 L646.860543,233.912477 L654.433543,243.912477 C660.841543,252.373477 662.424543,253.901477 664.720543,253.842477 C671.010543,253.680477 696.328543,249.274477 695.150543,248.546477 C694.452543,248.114477 694.004543,247.183477 694.156543,246.477477 C694.309543,245.770477 691.132543,239.954477 687.098543,233.552477 C681.427543,224.552477 679.272543,221.911477 677.598543,221.907477 C676.407543,221.904477 669.678543,222.439477 662.644543,223.095477 L649.855543,224.288477 L642.122543,216.600477 C634.707543,209.229477 632.933543,207.907477 632.933543,209.757477 M661.933543,224.345477 L652.433543,225.412477 L663.743543,225.695477 L675.053543,225.979477 L678.243543,229.674477 C684.290543,236.678477 688.066543,240.407477 687.093543,238.412477 C686.556543,237.312477 684.956543,235.326477 683.537543,233.999477 C681.766543,232.343477 681.262543,231.221477 681.927543,230.419477 C683.283543,228.785477 678.260543,224.299477 674.433543,223.727477 C672.783543,223.481477 667.158543,223.759477 661.933543,224.345477 M504.965543,235.079477 C504.995543,238.240477 505.073543,238.311477 506.478543,236.452477 C508.097543,234.311477 507.968543,232.757477 506.121543,232.141477 C505.358543,231.887477 504.944543,232.939477 504.965543,235.079477 M583.142543,245.162477 C584.829543,250.250477 586.652543,254.975477 587.194543,255.662477 C587.858543,256.506477 591.308543,256.916477 597.805543,256.924477 L607.433543,256.937477 L610.262543,263.924477 C611.817543,267.768477 613.414543,270.912477 613.809543,270.912477 C614.204543,270.912477 616.149543,269.225477 618.132543,267.162477 C621.214543,263.957477 621.838543,262.504477 622.433543,257.162477 C623.217543,250.122477 623.251543,250.145477 614.433543,251.760477 L610.433543,252.492477 L607.745543,246.702477 C605.594543,242.070477 604.590543,240.912477 602.722543,240.912477 C601.438543,240.912477 595.952543,239.787477 590.532543,238.412477 C585.111543,237.037477 580.541543,235.912477 580.376543,235.912477 C580.210543,235.912477 581.455543,240.074477 583.142543,245.162477 M527.433543,246.731477 L524.433543,248.392477 L527.274543,248.727477 C530.536543,249.112477 531.246543,248.674477 530.771543,246.570477 C530.476543,245.262477 530.049543,245.283477 527.433543,246.731477 M558.933543,246.637477 C558.933543,247.219477 557.020543,248.456477 554.683543,249.387477 C552.346543,250.318477 549.001543,252.166477 547.250543,253.495477 C543.377543,256.435477 541.799543,256.528477 540.165543,253.912477 C539.478543,252.812477 537.907543,251.905477 536.675543,251.897477 C535.036543,251.885477 534.798543,251.650477 535.790543,251.022477 C536.796543,250.384477 536.843543,249.975477 535.973543,249.437477 C532.611543,247.359477 534.252543,254.083477 538.079543,258.060477 C539.374543,259.405477 541.392543,261.835477 542.564543,263.459477 L544.695543,266.412477 L556.194543,262.511477 L567.694543,258.610477 L563.792543,252.573477 C559.329543,245.668477 558.933543,245.184477 558.933543,246.637477 M621.329543,248.649477 C623.748543,248.898477 625.915543,249.877477 627.045543,251.231477 L628.866543,253.412477 L628.900543,250.662477 C628.932543,247.958477 628.837543,247.915477 623.183543,248.080477 C618.654543,248.212477 618.261543,248.333477 621.329543,248.649477 M512.942528,254.162477 C512.947543,254.850477 514.646543,261.037477 516.719543,267.912477 L520.487543,280.412477 L529.023543,281.296477 L537.559543,282.180477 L539.328543,289.046477 C540.301543,292.822477 541.414543,295.912477 541.802543,295.912477 C542.191543,295.912477 544.586543,293.775477 547.125543,291.162477 C551.317543,286.849477 551.806543,285.837477 552.436543,280.162477 C553.146543,273.765477 553.636543,273.015477 555.733543,275.112477 C556.666543,276.045477 556.933543,275.951477 556.933543,274.685477 C556.933543,273.338477 555.490543,273.003477 548.525543,272.735477 C543.901543,272.558477 540.327543,272.749477 540.584543,273.162477 C540.841543,273.575477 543.387543,273.937477 546.242543,273.968477 L551.433543,274.024477 L546.947543,275.842477 L542.461543,277.661477 L540.371543,274.828477 C539.221543,273.270477 536.965543,267.706477 535.357543,262.464477 L532.433543,252.934477 L522.683543,252.923336 C515.539543,252.915477 512.935543,253.246477 512.942528,254.162477 M641.976543,257.758477 C641.953543,258.498477 642.642543,260.304477 643.510543,261.772477 C645.023543,264.334477 644.906543,264.830477 640.568543,274.177477 L636.049543,283.912477 L645.854543,283.912477 L655.660543,283.912477 L662.933543,294.912477 C668.865543,303.883477 670.653543,305.912477 672.629543,305.912477 C675.574543,305.912477 675.325543,305.422477 668.254543,297.301477 C665.327543,293.940477 662.933543,290.903477 662.933543,290.551477 C662.933543,290.200477 664.395543,289.932477 666.183543,289.956477 C669.216543,289.997477 670.018543,290.863477 678.213543,302.956477 L686.993543,315.912477 L702.463543,315.912477 C710.971543,315.912477 717.938543,316.249477 717.944543,316.662477 C717.950543,317.075477 720.100543,319.835477 722.722543,322.797477 L727.489543,328.181477 L730.028543,324.297477 C731.424543,322.160477 733.374543,318.387477 734.360543,315.912477 C735.346543,313.437477 736.388543,310.818477 736.677543,310.092477 C737.100543,309.026477 735.391543,308.904477 727.812543,309.461477 L718.422543,310.150477 L711.600543,301.442477 C704.830543,292.800477 703.458543,289.344477 708.641543,293.991477 C710.130543,295.326477 709.413543,294.057477 707.044543,291.162477 C703.063543,286.299477 702.440543,285.920477 698.590543,286.017477 L694.433543,286.122477 L698.433543,287.367477 C702.158543,288.527477 701.380543,288.664477 687.115543,289.361477 C670.993543,290.148477 665.787543,289.649477 678.149543,288.501477 C682.155543,288.129477 686.875543,287.573477 688.637543,287.265477 L691.842543,286.707477 L688.637543,282.348477 L685.433543,277.990477 L678.433543,277.851477 C674.583543,277.775477 670.308543,277.384477 668.933543,276.982477 C666.917543,276.393477 667.836543,275.994477 673.689543,274.921477 C677.679543,274.189477 680.751543,273.397477 680.516543,273.161477 C680.280543,272.926477 675.496543,273.536477 669.884543,274.519477 L659.681543,276.304477 L656.557543,272.822477 C654.839543,270.907477 650.865543,266.431477 647.726543,262.876477 C644.588543,259.321477 642.000543,257.018477 641.976543,257.758477 M745.879543,259.768477 C744.534543,261.479477 742.374543,264.251477 741.079543,265.929477 C738.643543,269.086477 735.338543,279.650477 736.441543,280.753477 C736.786543,281.098477 740.392543,281.548477 744.455543,281.753477 L751.843543,282.126477 L757.424543,291.982477 C760.493543,297.403477 763.326543,302.032477 763.719543,302.269477 C764.112543,302.505477 769.721543,303.026477 776.183543,303.426477 C789.926543,304.275477 790.653543,303.653477 783.683543,297.013477 L779.433543,292.964477 L779.433543,283.528477 C779.433543,278.338477 779.130543,273.785477 778.759543,273.411477 C778.388543,273.037477 772.692543,272.482477 766.101543,272.178477 C752.603543,271.556477 753.505543,272.129477 750.126543,262.034477 L748.325543,256.657477 L745.879543,259.768477 M508.433543,273.574477 C500.052543,277.880477 499.933543,278.083477 499.933543,288.067477 C499.933543,292.932477 500.346543,296.912477 500.851543,296.912477 C503.361543,296.912477 504.933543,295.449477 504.933543,293.114477 C504.933543,290.627477 504.988543,290.603477 506.401543,292.471477 C507.299543,293.658477 507.882543,296.724477 507.901543,300.365477 L507.933543,306.318477 L511.827543,302.515477 C515.296543,299.128477 515.796543,298.017477 516.404543,292.338477 C517.061543,286.202477 515.369543,270.858477 514.046543,270.959477 C513.709543,270.984477 511.183543,272.161477 508.433543,273.574477 M684.834543,273.466477 C686.704543,274.278477 688.864543,275.723477 689.632543,276.677477 C690.626543,277.910477 690.574543,277.472477 689.456543,275.162477 C688.154543,272.475477 687.323543,271.919477 684.657543,271.951477 L681.433543,271.990477 L684.834543,273.466477 M754.933543,275.721477 C754.933543,276.166477 755.645543,277.403477 756.515543,278.471477 C757.962543,280.247477 758.047543,280.256477 757.515543,278.580477 C757.195543,277.573477 756.933543,276.335477 756.933543,275.830477 C756.933543,275.325477 756.483543,274.912477 755.933543,274.912477 C755.383543,274.912477 754.933543,275.276477 754.933543,275.721477 M512.933543,286.912477 C512.933543,287.462477 513.383543,287.912477 513.933543,287.912477 C514.483543,287.912477 514.933543,287.462477 514.933543,286.912477 C514.933543,286.362477 514.483543,285.912477 513.933543,285.912477 C513.383543,285.912477 512.933543,286.362477 512.933543,286.912477 M522.164543,298.655477 C518.716543,300.699477 516.099543,302.901477 516.347543,303.550477 C516.738543,304.567477 512.618543,306.474477 510.802543,306.116477 C510.455543,306.047477 509.373543,306.874477 508.397543,307.952477 C506.012543,310.588477 504.933543,310.420477 504.933543,307.412477 C504.933543,304.379477 504.547543,304.338477 500.837543,306.980477 C498.241543,308.829477 497.933543,309.625477 497.933543,314.491477 L497.933543,319.934477 L505.911543,315.923477 C510.299543,313.717477 514.686543,311.930477 515.661543,311.952477 C516.914543,311.980477 516.591543,312.448477 514.558543,313.549477 L511.683543,315.107477 L513.789543,317.212477 L515.894543,319.317477 L522.712543,316.019477 C531.842543,311.602477 533.023543,309.495477 531.038543,301.162477 C530.220543,297.725477 529.298543,294.918477 528.991543,294.92646 C528.684543,294.933477 525.612543,296.611477 522.164543,298.655477 M588.941543,299.886477 C587.846543,300.578477 587.745543,301.124477 588.563543,301.942477 C589.380543,302.759477 588.500543,305.724477 585.254543,313.100477 C582.823543,318.625477 581.054543,323.367477 581.324543,323.637477 C581.594543,323.907477 586.060543,323.404477 591.248543,322.520477 C602.642543,320.578477 602.933543,320.570477 602.933543,322.223477 C602.933543,323.552477 619.509543,343.912477 620.591543,343.912477 C621.245543,343.912477 620.913543,343.439477 615.471543,336.637477 C613.370543,334.010477 611.827543,331.709477 612.042543,331.522477 C612.257543,331.336477 617.952543,330.133477 624.698543,328.848477 C631.443543,327.563477 637.444543,326.214477 638.034543,325.850477 C638.738543,325.414477 638.195543,323.389477 636.451543,319.947477 L633.796543,314.708477 L618.548543,315.422477 L603.301543,316.137477 L599.105543,311.370477 C596.797543,308.748477 595.118543,306.394477 595.373543,306.139477 C595.628543,305.884477 598.446543,307.839477 601.635543,310.485477 C607.012543,314.945477 606.853543,314.699477 599.456543,307.103477 C595.069543,302.598477 591.244543,298.919477 590.956543,298.927464 C590.669543,298.936477 589.762543,299.367477 588.941543,299.886477 M722.537543,306.744477 C722.254543,307.202477 725.715543,307.400477 730.228543,307.184477 C742.036543,306.619477 742.833543,306.162477 732.242543,306.028477 C727.187543,305.964477 722.820543,306.286477 722.537543,306.744477 M737.933543,318.169477 C737.933543,318.310477 737.491543,319.967477 736.950543,321.851477 C736.410543,323.735477 736.352543,324.857477 736.821543,324.345477 C737.844543,323.227477 739.191543,317.912477 738.452543,317.912477 C738.167543,317.912477 737.933543,318.027477 737.933543,318.169477 M511.163543,325.694477 C506.369543,329.986477 505.895543,330.793477 505.913543,334.631477 C505.930543,338.150477 506.209543,338.743477 507.597543,338.211477 C508.708543,337.784477 509.023543,337.957477 508.545543,338.731477 C508.094543,339.461477 508.348543,339.690477 509.233543,339.350477 C510.057543,339.034477 511.389543,339.959477 512.458543,341.590477 L514.278543,344.368477 L511.525543,342.564477 C507.646543,340.022477 505.933543,341.038477 505.933543,345.881477 C505.933543,348.098477 506.146543,349.912477 506.406543,349.912477 C506.667543,349.912477 508.917543,348.922477 511.406543,347.713477 C515.207543,345.866477 515.933543,345.055477 515.933543,342.654477 C515.933543,341.081477 516.352543,340.053477 516.864543,340.370477 C517.377543,340.686477 519.333543,340.212477 521.212543,339.316477 L524.629543,337.687477 L521.131543,329.299477 C519.207543,324.686477 517.363543,320.926477 517.033543,320.944413 C516.703543,320.961477 514.062543,323.099477 511.163543,325.694477 M533.183543,322.196477 C529.196543,322.742477 525.933543,323.584477 525.933543,324.066477 C525.933543,324.548477 528.588543,330.238477 531.832543,336.711477 L537.731543,348.479477 L546.582543,350.186477 C552.127543,351.256477 555.558543,351.523477 555.766543,350.903477 C556.551543,348.571477 557.833543,350.373477 560.401543,357.412477 C561.905543,361.537477 563.357543,364.912477 563.627543,364.912477 C563.897543,364.912477 566.278543,363.225477 568.918543,361.162477 C573.523543,357.564477 573.746543,357.155477 574.413543,351.083477 C574.796543,347.603477 574.894543,344.540477 574.632543,344.277477 C574.369543,344.015477 571.452543,344.500477 568.149543,345.356477 C564.847543,346.212477 561.745543,346.912477 561.258543,346.912477 C560.770543,346.912477 557.474543,341.062477 553.933543,333.912477 L547.494543,320.912477 L543.964543,321.057477 C542.022543,321.137477 537.170543,321.649477 533.183543,322.196477 M627.433543,332.187477 C621.383543,332.720477 616.261543,333.311477 616.050543,333.500477 C615.840543,333.689477 620.051543,339.709477 625.408543,346.878477 L635.148543,359.912477 L648.815543,359.912477 L662.483543,359.912477 L669.923543,367.402477 L677.363543,374.892477 L682.148543,364.758477 C684.780543,359.184477 686.933543,354.420477 686.933543,354.171477 C686.933543,353.923477 682.274543,354.037477 676.579543,354.425477 L666.225543,355.131477 L663.917543,351.771477 C662.648543,349.924477 662.222543,348.975477 662.971543,349.662477 C666.188543,352.614477 666.778543,350.748477 664.078543,346.162477 C662.113543,342.825477 660.638543,341.412477 659.121543,341.412477 C657.633543,341.412477 655.862543,339.781477 653.421543,336.162477 L649.880543,330.912477 L644.156543,331.065477 C641.009543,331.149477 633.483543,331.654477 627.433543,332.187477 M516.012543,336.495477 C516.060543,337.660477 516.297543,337.897477 516.616543,337.100477 C516.905543,336.378477 516.869543,335.515477 516.537543,335.183477 C516.205543,334.851477 515.969543,335.441477 516.012543,336.495477 M772.572543,345.410477 C772.221543,346.326477 771.933543,348.164477 771.933543,349.494477 C771.933543,351.519477 772.425543,351.912477 774.959543,351.912477 C777.954543,351.912477 777.969543,351.884477 776.495543,349.162477 C773.683543,343.967477 773.275543,343.578477 772.572543,345.410477 M540.646543,357.503477 C537.872543,359.008477 537.861543,359.056477 538.146543,368.213477 L538.433543,377.412477 L541.352543,377.745477 C542.957543,377.928477 546.144543,377.553477 548.434543,376.912477 L552.596543,375.746477 L548.560543,365.829477 C546.339543,360.375477 544.278543,355.930477 543.978543,355.952396 C543.678543,355.974477 542.179543,356.672477 540.646543,357.503477 M512.933543,361.023477 C512.933543,361.634477 514.600543,367.762477 516.638543,374.640477 L520.343543,387.146477 L526.625543,386.503477 C530.081543,386.149477 533.482543,385.639477 534.183543,385.369477 C535.017543,385.049477 536.419543,387.395477 538.234543,392.148477 C542.319543,402.848477 542.224543,402.785477 545.700543,397.136477 C547.894543,393.571477 548.943543,390.334477 549.455543,385.550477 C549.904543,381.354477 549.801543,378.912477 549.175543,378.912477 C548.630543,378.912477 546.247543,379.596477 543.878543,380.431477 C541.094543,381.413477 539.229543,381.608477 538.601543,380.980477 C537.359543,379.738477 536.069543,371.915477 535.993543,365.162477 L535.933543,359.912477 L524.433543,359.912477 C516.667543,359.912477 512.933543,360.273477 512.933543,361.023477 M507.462543,363.882477 C504.642543,366.825477 504.621543,366.939477 505.840543,372.388477 C506.520543,375.426477 507.517543,377.912477 508.054543,377.912477 C508.592543,377.912477 510.313543,377.250477 511.878543,376.440477 L514.724543,374.969477 L513.190543,368.690477 C512.346543,365.237477 511.355543,362.072477 510.988543,361.655477 C510.620543,361.239477 509.034543,362.241477 507.462543,363.882477 M594.697543,361.482477 C593.682543,362.496477 595.043543,364.962477 596.217543,364.236477 C596.809543,363.871477 599.675543,366.236477 602.588543,369.492477 C605.501543,372.748477 607.895543,374.949477 607.909612,374.383477 C607.943543,372.922477 595.453543,360.725477 594.697543,361.482477 M723.117543,371.585477 C723.291543,373.055477 724.039543,374.457477 724.780543,374.701477 C725.843543,375.050477 725.896543,374.711477 725.030543,373.093477 C723.539543,370.308477 723.603543,370.115477 726.183543,369.618477 C728.067543,369.255477 727.975543,369.162477 725.617543,369.048477 C723.125543,368.928477 722.837543,369.220477 723.117543,371.585477 M657.109543,382.587477 C658.031543,382.831477 661.545543,386.829477 664.918543,391.471477 C668.291543,396.114477 671.261543,399.912477 671.518543,399.912477 C671.775543,399.912477 669.261543,395.862477 665.933543,390.912477 C661.205543,383.881477 659.395543,381.937477 657.657543,382.028477 C656.083543,382.110477 655.923543,382.273477 657.109543,382.587477 M673.107543,402.515477 C674.003543,403.411477 675.216543,403.979477 675.802543,403.778477 C676.388543,403.577477 675.655543,402.843477 674.173543,402.149477 C671.682543,400.981477 671.601543,401.009477 673.107543,402.515477 M589.933543,412.655477 C583.608543,413.476477 578.260543,414.305477 578.049543,414.497477 C577.838543,414.689477 582.012543,420.261477 587.325543,426.879477 L596.983543,438.912477 L611.208543,438.968477 L625.433543,439.024477 L629.784543,444.534477 C633.663543,449.447477 633.957543,450.174477 632.498543,451.241477 C631.044543,452.304477 631.298543,452.863477 634.775543,456.257477 L638.687543,460.078477 L642.535543,453.745477 C644.652543,450.262477 647.805543,444.447477 649.542543,440.823477 L652.700543,434.235477 L640.169543,431.862477 L627.637543,429.489477 L620.693543,420.816477 C611.867543,409.794477 611.905543,409.804477 589.933543,412.655477 M626.374543,433.413477 C627.746543,434.473477 630.531543,434.875477 635.874543,434.787477 L643.433543,434.662477 L637.933543,433.871477 C634.908543,433.435477 630.633543,432.817477 628.433543,432.497477 C624.731543,431.958477 624.577543,432.026477 626.374543,433.413477 M643.945543,443.889477 C643.082543,445.503477 643.167543,445.759477 644.410543,445.283477 C645.248543,444.961477 645.933543,444.071477 645.933543,443.305477 C645.933543,441.352477 645.186543,441.571477 643.945543,443.889477 M577.433543,772.002477 C565.015543,773.249477 549.669543,777.819477 538.183543,783.690477 C532.545543,786.572477 527.943543,789.489477 527.956515,790.171477 C527.968543,790.854477 528.783543,794.555477 529.766543,798.397477 L531.553543,805.382477 L547.993543,810.709477 C557.035543,813.638477 571.964543,817.990477 581.169543,820.378477 L597.906543,824.722477 L595.421543,820.482477 C594.054543,818.150477 593.161543,815.943477 593.435543,815.577477 C593.709543,815.211477 593.630543,815.140477 593.261543,815.418477 C592.479543,816.005477 586.944543,807.976477 586.937543,806.245477 C586.935543,805.604477 586.564543,804.929477 586.113543,804.745477 C585.028543,804.305477 579.881543,796.631477 580.353543,796.159477 C580.555543,795.957477 585.448543,797.168477 591.226543,798.852477 C597.004543,800.535477 601.918543,801.912477 602.146543,801.912477 C602.374543,801.912477 599.029543,794.937477 594.713543,786.412477 C590.397543,777.887477 586.544543,770.977477 586.150543,771.056477 C585.755543,771.135477 581.833543,771.561477 577.433543,772.002477 M504.433543,782.877477 L496.433543,785.563477 L495.388543,790.942477 L494.342543,796.322477 L487.388543,799.549477 C481.046543,802.492477 480.722543,802.782477 483.706543,802.844477 C486.919543,802.911477 486.951543,802.956477 485.421543,805.290477 C484.409543,806.834477 482.515543,807.883477 480.017543,808.283477 C476.469543,808.850477 475.998543,809.324477 473.936543,814.405477 C472.707543,817.434477 471.285543,819.912477 470.777543,819.912477 C470.270543,819.912477 467.515543,818.337477 464.657543,816.412477 C461.473543,814.268477 458.249543,812.912477 456.336543,812.912477 C453.405543,812.912477 453.024543,813.360477 450.163543,820.162477 C448.485543,824.149477 447.462543,827.862477 447.890543,828.412477 C449.256543,830.172477 454.101543,845.831477 453.553543,846.717477 C453.263543,847.187477 461.084543,848.399477 470.933543,849.412477 C480.782543,850.425477 488.622543,851.606477 488.356543,852.037477 C487.702543,853.094477 516.312543,862.087477 518.120543,861.394477 C518.906543,861.092477 525.822543,862.241477 533.491543,863.946477 C541.159543,865.651477 553.413543,868.370477 560.723543,869.987477 L574.012543,872.927477 L585.223543,870.249477 C595.243543,867.855477 598.131543,867.591477 612.433543,867.766477 L628.433543,867.961477 L633.933543,864.459477 L639.433543,860.957477 L633.433543,860.852477 L627.433543,860.748477 L637.865543,858.278477 C643.603543,856.919477 648.894543,855.473477 649.625543,855.065477 C650.355543,854.656477 637.785543,853.286477 621.693543,852.020477 C595.105543,849.928477 590.470543,849.279477 570.933543,844.921477 C553.500543,841.033477 545.839543,838.733477 530.433543,832.762477 L511.433543,825.399477 L505.516543,815.092477 L499.600543,804.784477 L509.002543,795.343477 C517.276543,787.035477 519.305543,785.547477 525.918543,782.942477 L533.433543,779.981477 L522.933543,780.086477 C514.378543,780.171477 510.951543,780.688477 504.433543,782.877477 M810.933543,828.960477 C802.408543,832.745477 793.195543,836.813477 790.459543,838.001477 L785.485543,840.160477 L792.320543,843.606477 C799.076543,847.011477 799.180543,847.030477 801.294543,845.155477 C802.471543,844.112477 808.721543,838.635477 815.183543,832.984477 C825.213543,824.213477 827.991543,821.559477 826.683543,821.996477 C826.545543,822.041477 819.458543,825.176477 810.933543,828.960477 M749.433543,849.442477 C738.983543,851.306477 729.618543,852.962477 728.622543,853.122477 C727.220543,853.346477 727.874543,854.298477 731.514543,857.331477 L736.218543,861.250477 L755.144543,857.848477 C765.553543,855.977477 774.565543,854.139477 775.171543,853.765477 C775.931543,853.295477 775.977543,852.052477 775.321543,849.748477 C774.051543,845.294477 772.766543,845.278477 749.433543,849.442477 M533.082543,851.799477 C531.613543,852.730477 535.589543,853.470477 546.933543,854.377477 L553.433543,854.897477 L545.433543,852.962477 C536.263543,850.744477 534.943543,850.619477 533.082543,851.799477 M555.746543,855.595477 C556.467543,855.884477 557.330543,855.848477 557.662543,855.516477 C557.994543,855.184477 557.404543,854.948477 556.350543,854.991477 C555.185543,855.039477 554.948543,855.276477 555.746543,855.595477 M559.433543,861.197477 L551.433543,864.337477 L556.433543,865.529477 C559.183543,866.184477 565.340543,866.763477 570.115543,866.816477 C578.582543,866.910477 578.847543,866.841477 580.843543,864.038477 L582.890543,861.164477 L576.661543,859.981477 C573.236543,859.330477 569.758543,858.631477 568.933543,858.427477 C568.108543,858.223477 563.833543,859.469477 559.433543,861.197477"/><path fill-opacity=".211" d="M491.641543,98.6624775 C486.412543,105.675477 480.187543,115.351477 477.809543,120.165477 L473.484543,128.918477 L475.959543,131.298477 C477.484543,132.765477 480.113543,133.885477 482.815543,134.217477 L487.197543,134.757477 L482.935543,130.414477 L478.672543,126.071477 L481.464543,118.415477 C483.986543,111.501477 486.744543,107.048477 498.651543,90.6624775 C500.550543,88.0504775 501.888543,85.9124775 501.626543,85.9124775 C501.363543,85.9124775 496.870543,91.6494775 491.641543,98.6624775 M569.758543,91.6604775 C565.629543,96.1104775 556.931543,109.667477 556.954497,111.617477 C556.966543,112.604477 558.020543,118.003477 559.297543,123.614477 C561.248543,132.189477 562.448543,135.081477 566.826543,141.749477 C570.828543,147.845477 572.690543,149.813477 574.867543,150.249477 C576.425543,150.560477 578.909543,151.119477 580.387543,151.490477 C582.795543,152.094477 582.193543,150.956477 574.601543,140.556477 L566.128543,128.948477 L565.409543,118.402477 C564.700543,108.003477 564.735543,107.755477 567.882543,100.634477 C569.638543,96.6624775 571.685543,92.9364775 572.432543,92.3544775 C573.178543,91.7734775 573.457543,90.7594775 573.050543,90.1024775 C572.535543,89.2694775 571.539543,89.7404775 569.758543,91.6604775 M531.593543,162.824477 C530.314543,170.529477 529.933543,179.483477 529.933543,201.867477 C529.933543,217.842477 530.106543,230.912477 530.318543,230.912477 C531.769543,230.912477 537.077543,227.982477 535.683543,227.951477 C534.136543,227.917477 533.933543,226.755477 533.933543,217.927477 C533.933543,212.434477 534.631543,198.286477 535.485543,186.486477 C537.309543,161.262477 537.161543,153.570477 534.843543,153.129477 C533.561543,152.885477 532.933543,154.757477 531.593543,162.824477 M506.070543,175.705477 L498.933543,186.499477 L498.933543,197.359477 C498.933543,207.925477 499.029543,208.391477 502.454543,214.516477 C506.378543,221.532477 513.716543,228.316477 516.307543,227.322477 C518.769543,226.377477 518.336543,225.669477 513.382543,222.539477 C509.813543,220.284477 508.067543,218.142477 505.269543,212.587477 L501.704543,205.507477 L502.393543,195.460477 C503.057543,185.779477 503.282543,185.037477 508.526543,175.162477 C511.521543,169.525477 513.798543,164.912477 513.588543,164.912477 C513.378543,164.912477 509.995543,169.769477 506.070543,175.705477 M571.933543,193.610477 C571.933543,201.694477 572.689543,214.083477 573.614543,221.141477 L575.295543,233.975477 L577.864543,233.533477 C579.277543,233.289477 582.346543,232.768477 584.683543,232.373477 C590.841543,231.334477 589.910543,229.780477 583.575543,230.524477 L578.218543,231.154477 L577.506543,218.664477 C577.115543,211.795477 576.902543,201.476477 577.034543,195.734477 C577.255543,186.130477 577.085543,185.037477 574.916543,182.102477 C573.618543,180.348477 572.417543,178.912477 572.245543,178.912477 C572.073543,178.912477 571.933543,185.526477 571.933543,193.610477 M554.933543,228.412477 C554.933543,229.540477 555.635543,229.951477 557.183543,229.732477 C558.420543,229.556477 559.433543,228.962477 559.433543,228.412477 C559.433543,227.862477 558.420543,227.268477 557.183543,227.092477 C555.635543,226.873477 554.933543,227.284477 554.933543,228.412477 M804.887543,361.328477 C802.826543,363.444477 800.795543,364.674477 799.851543,364.379477 C798.981543,364.106477 797.448543,364.790477 796.446543,365.898477 C794.444543,368.110477 791.933543,368.581477 791.933543,366.745477 C791.933543,366.104477 791.691543,365.821477 791.396543,366.116477 C791.100543,366.412477 791.397543,367.837477 792.056543,369.283477 C793.219543,371.836477 793.512543,371.912477 802.187543,371.912477 L811.121543,371.912477 L810.400543,366.662477 C809.150543,357.550477 808.850543,357.260477 804.887543,361.328477 M828.214543,379.427477 C826.794543,380.422477 825.819543,382.492477 825.374543,385.454477 C824.776543,389.445477 824.192543,390.262477 820.315543,392.534477 C817.636543,394.104477 815.933543,395.823477 815.933543,396.958477 C815.933543,400.293477 818.165543,409.398477 819.134543,410.017477 C819.694543,410.374477 817.906543,421.081477 814.766543,436.185477 C811.842543,450.246477 809.222543,461.400477 808.942543,460.973477 C808.662543,460.545477 800.783543,469.571477 791.433543,481.029477 L774.433543,501.863477 L768.933543,501.892477 L763.433543,501.922477 L751.433543,522.801477 C742.345543,538.613477 735.550543,548.798477 723.433543,564.769477 L707.433543,585.859477 L702.997543,585.886477 C699.281543,585.908477 697.773543,586.577477 693.697543,590.014477 C689.465543,593.583477 688.397543,594.034477 685.477543,593.486477 C682.617543,592.950477 681.802543,593.263477 679.959543,595.606477 C678.770543,597.118477 673.440543,602.338477 668.115543,607.207477 L658.433543,616.059477 L651.765543,615.433477 C645.379543,614.833477 644.752543,614.981477 636.914543,618.922477 C632.413543,621.185477 627.725543,624.205477 626.496543,625.634477 L624.262543,628.231477 L614.362543,627.106477 C608.918543,626.488477 604.186543,626.304477 603.848543,626.697477 C603.509543,627.090477 602.459543,636.412477 601.514543,647.412477 C600.332543,661.163477 599.361543,667.856477 598.407543,668.834477 C597.207543,670.062477 595.651543,670.051477 586.940543,668.748477 C581.398543,667.920477 577.216543,667.537477 577.648543,667.897477 C578.080543,668.258477 583.531543,671.836477 589.762543,675.848477 L601.091543,683.143477 L609.536543,683.670477 C614.181543,683.960477 617.780543,684.398477 617.535543,684.644477 C617.289543,684.889477 610.020543,685.708477 601.382543,686.463477 C592.744543,687.218477 585.465543,688.046477 585.208543,688.304477 C584.950543,688.562477 586.470543,689.728477 588.586543,690.896477 C590.702543,692.064477 595.358543,695.019477 598.933543,697.462477 C602.508543,699.906477 606.879543,702.178477 608.646543,702.513477 C610.906543,702.940477 612.463543,704.145477 613.896543,706.573477 C615.016543,708.473477 615.933543,710.189477 615.933543,710.389477 C615.933543,710.588477 614.350543,710.314477 612.416543,709.780477 C610.482543,709.246477 606.630543,708.944477 603.857543,709.110477 L598.816543,709.412477 L602.966543,712.593477 C607.035543,715.711477 619.342543,728.774477 632.704543,744.159477 L639.433543,751.907477 L645.594543,751.909477 C651.316543,751.912477 651.951543,752.144477 654.492543,755.162477 L657.230543,758.412477 L645.005543,758.693477 L632.781543,758.975477 L635.857543,762.478477 C637.549543,764.405477 638.933543,766.367477 638.933543,766.838477 C638.933543,767.308477 647.755543,768.024477 658.538543,768.429477 C669.321543,768.833477 677.642543,769.474477 677.028543,769.853477 C673.185543,772.228477 690.778543,779.556477 708.433543,782.935477 C714.483543,784.093477 720.180543,785.254477 721.093543,785.515477 C722.308543,785.862477 723.076543,784.976477 723.963543,782.201477 C725.308543,777.995477 726.940543,775.656477 726.921543,777.962477 C726.915543,778.759477 726.245543,781.887477 725.433543,784.912477 C723.238543,793.091477 723.573543,793.107477 727.454543,785.009477 L730.974543,777.663477 L735.204543,778.319477 C742.569543,779.460477 758.054543,786.084477 759.191543,788.578477 C759.751543,789.807477 761.384543,791.239477 762.821543,791.760477 C764.258543,792.281477 766.221543,793.027477 767.183543,793.417477 C768.578543,793.982477 768.933543,793.608477 768.933543,791.574477 C768.933543,789.443477 767.816543,788.428477 762.183543,785.434477 C758.471543,783.461477 749.732543,777.620477 742.763543,772.453477 C732.012543,764.482477 729.324543,761.919477 725.009543,755.525477 L719.925543,747.991477 L719.323543,727.202477 L718.720543,706.412477 L728.120543,683.912477 C737.153543,662.292477 738.082543,660.572477 751.895543,639.912477 C759.800543,628.087477 776.665543,604.237477 789.371543,586.912477 L812.473543,555.412477 L835.371543,513.044477 L858.269543,470.675477 L870.487543,460.187477 C883.722543,448.828477 883.897543,448.535477 883.922543,437.716477 L883.933543,433.019477 L864.683543,446.216477 C846.374543,458.767477 844.852543,459.597477 833.552543,463.197477 C827.017543,465.279477 821.566543,466.854477 821.439543,466.697477 C821.312543,466.540477 822.629543,452.973477 824.367543,436.548477 C827.114543,410.572477 827.772543,406.503477 829.420543,405.298477 C830.463543,404.535477 831.679543,403.912477 832.124543,403.912477 C832.569543,403.912477 832.933543,399.814477 832.933543,394.805477 C832.933543,386.778477 832.739543,385.773477 831.294543,386.327477 C829.873543,386.872477 829.738543,386.354477 830.275543,382.434477 C830.616543,379.947477 830.778543,377.912477 830.636543,377.912477 C830.494543,377.912477 829.404543,378.594477 828.214543,379.427477 M775.882543,386.467477 C773.909543,388.566477 772.859543,388.933477 770.232543,388.440477 C766.764543,387.790477 760.480543,390.343477 757.901543,393.451477 C757.132543,394.377477 755.722543,395.425477 754.767543,395.778477 C753.319543,396.314477 753.989543,397.487477 758.830543,402.882477 L764.628543,409.344477 L775.183543,406.128477 C780.988543,404.359477 786.445543,402.912477 787.309543,402.912477 C788.174543,402.912477 789.522543,404.151477 790.305543,405.664477 C791.088543,407.178477 792.684543,409.282477 793.853543,410.339477 C795.963543,412.249477 795.999543,412.240477 799.255543,409.084477 C801.739543,406.677477 802.840543,404.427477 803.795543,399.804477 C804.488543,396.447477 804.831543,393.477477 804.558543,393.204477 C804.284543,392.930477 801.032543,393.714477 797.331543,394.946477 C792.050543,396.703477 790.209543,396.941477 788.780543,396.049477 C787.779543,395.424477 786.387543,394.912477 785.686543,394.912477 C784.985543,394.912477 783.037543,392.432477 781.358543,389.400477 L778.304543,383.888477 L775.882543,386.467477 M730.650543,393.912477 C732.606543,397.524477 734.913543,398.472477 735.736543,396.003477 C736.055543,395.047477 735.695543,394.789477 734.617543,395.203477 C733.599543,395.594477 732.259543,394.841477 730.891543,393.112477 L728.754543,390.412477 L730.650543,393.912477 M776.796543,409.719477 C774.604543,411.649477 772.987543,414.090477 772.727543,415.864477 C772.275543,418.941477 772.755543,418.960477 776.416543,416.010477 C778.312543,414.481477 778.334543,414.499477 776.916543,416.412477 C776.100543,417.512477 774.871543,418.772477 774.183543,419.212477 C772.845543,420.067477 772.431543,423.936477 773.683543,423.877477 C774.096543,423.857477 775.558543,423.198477 776.933543,422.412477 C778.308543,421.626477 779.725543,420.967477 780.082543,420.947477 C780.438543,420.928477 781.046543,424.062477 781.433543,427.912477 C781.820543,431.762477 782.339543,434.912477 782.586543,434.912477 C782.834543,434.912477 784.701543,433.955477 786.735543,432.785477 L790.433543,430.657477 L789.501543,421.722477 C788.496543,412.088477 788.591543,412.187477 782.587543,414.491477 C781.384543,414.953477 780.989543,414.161477 780.745543,410.798477 L780.433543,406.516477 L776.796543,409.719477 M368.683543,416.601477 C367.721543,416.853477 366.933543,417.703477 366.933543,418.491477 C366.933543,420.583477 339.657543,471.806477 338.369543,472.134477 C337.769543,472.287477 327.017543,483.356477 314.475543,496.732477 C298.281543,514.004477 291.363543,520.742477 290.603543,519.982477 C290.014543,519.393477 289.226543,518.912477 288.850543,518.912477 C288.474543,518.912477 279.705543,530.725477 269.362543,545.162477 C259.019543,559.600477 248.567543,574.031477 246.133543,577.231477 L241.709543,583.051477 L239.432543,580.911477 L237.154543,578.771477 L214.501543,604.725477 C197.338543,624.389477 191.167543,630.815477 189.038543,631.241477 C187.002543,631.648477 182.954543,635.562477 174.331543,645.461477 C167.787543,652.973477 161.557543,660.647477 160.486543,662.515477 C158.161543,666.573477 157.489543,666.690477 155.341543,663.412477 C154.440543,662.037477 153.356543,660.912477 152.932543,660.912477 C152.507543,660.912477 146.769543,668.003477 140.179543,676.669477 C128.919543,691.479477 127.927543,692.499477 123.681543,693.634477 C118.455543,695.032477 115.463543,698.112477 103.510543,714.403477 L95.6785426,725.076477 L97.7885426,727.930477 L99.8985426,730.783477 L70.6655426,760.372477 C54.5885426,776.646477 40.8845426,789.950477 40.2135426,789.936477 C39.5425426,789.923477 37.9675426,788.115477 36.7135426,785.920477 C35.4595426,783.724477 34.1595426,781.924477 33.8255426,781.920477 C33.4905426,781.915477 31.6395426,784.274477 29.7125426,787.162477 C27.7855426,790.050477 24.3645426,794.632477 22.1115426,797.345477 L18.0135426,802.279477 L25.6405426,805.595477 C29.8355426,807.420477 33.7155426,808.912477 34.2645426,808.912477 C34.8125426,808.912477 44.2995426,804.092477 55.3475426,798.201477 L75.4335426,787.489477 L105.060543,759.451477 C121.355543,744.029477 149.930543,718.373477 168.560543,702.436477 L202.433543,673.461477 L243.619543,625.936477 C266.271543,599.798477 295.475543,565.362477 308.516543,549.412477 C324.767543,529.536477 339.516543,512.861477 355.393543,496.412477 L378.559543,472.412477 L384.756543,454.412477 C388.163543,444.512477 390.948543,435.400477 390.942552,434.162477 C390.933543,431.862477 388.960543,430.895477 388.900543,433.162477 C388.882543,433.850477 387.902543,432.162477 386.721543,429.412477 C384.070543,423.234477 384.013543,423.165477 382.996543,424.811477 C382.409543,425.759477 381.806543,425.058477 380.933543,422.412477 C379.259543,417.341477 377.685543,419.776477 378.508543,426.162477 C379.273543,432.096477 377.692543,432.411477 375.997543,426.662477 C374.418543,421.306477 371.902543,415.876477 371.069543,416.025359 C370.719543,416.092477 369.645543,416.350477 368.683543,416.601477 M745.933543,427.014477 C741.258543,430.318477 737.049543,433.404477 736.580543,433.870477 C735.824543,434.622477 743.278543,446.912477 744.490543,446.912477 C744.756543,446.912477 749.005543,444.887477 753.933543,442.412477 C758.861543,439.937477 763.315543,437.912477 763.831543,437.912477 C764.756543,437.912477 768.933543,443.993477 768.933543,445.339477 C768.933543,445.719477 768.413543,445.709477 767.778543,445.317477 C767.063543,444.874477 766.895543,445.042477 767.338543,445.757477 C767.730543,446.392477 768.242543,446.912477 768.475543,446.912477 C769.805543,446.912477 773.841543,436.494477 774.474543,431.428477 L775.218543,425.479477 L772.825543,427.191477 C767.105543,431.284477 765.298543,431.896477 762.640543,430.642477 C761.246543,429.984477 759.172543,427.525477 758.032543,425.179477 C756.892543,422.832477 755.616543,420.933477 755.196543,420.959477 C754.776543,420.985477 750.608543,423.710477 745.933543,427.014477 M718.060543,437.364477 C712.901543,442.826477 712.572543,443.005477 709.810543,441.861477 C708.228543,441.206477 706.933543,440.274477 706.933543,439.791477 C706.933543,439.307477 706.313543,438.912477 705.554543,438.912477 C704.796543,438.912477 703.610543,437.548477 702.920543,435.880477 C702.229543,434.212477 701.479543,433.033477 701.253543,433.259477 C701.027543,433.485477 702.484543,437.774477 704.492543,442.791477 L708.143543,451.912477 L712.288543,451.885477 C715.627543,451.863477 717.171543,451.172477 720.227543,448.331477 C723.962543,444.860477 724.017543,444.699477 723.727543,438.240477 L723.433543,431.676477 L718.060543,437.364477 M737.754543,456.993477 C733.753543,459.053477 733.612543,459.337477 731.853543,468.912477 C731.164543,472.660477 729.796543,476.365477 728.622543,477.662477 C725.755543,480.828477 727.113543,480.477477 734.403543,476.165477 L740.738543,472.417477 L741.431543,464.094477 C741.812543,459.516477 741.969543,455.619477 741.779543,455.435477 C741.589543,455.250477 739.778543,455.951477 737.754543,456.993477 M720.131543,464.134477 L712.829543,467.187477 L709.905543,464.385477 L706.980543,461.583477 L704.853543,464.287477 L702.726543,466.991477 L699.452543,464.495477 L696.179543,461.998477 L689.859543,465.375477 L683.539543,468.752477 L679.639543,466.762477 C677.494543,465.668477 675.597543,464.916477 675.422543,465.092477 C674.792543,465.728477 689.078543,481.911477 690.240543,481.878528 C690.896543,481.860477 696.048543,479.454477 701.689543,476.533477 L711.945543,471.220477 L715.625543,475.816477 C717.649543,478.344477 719.451543,480.604477 719.629543,480.839477 C719.808543,481.074477 721.232543,480.042477 722.794543,478.545477 C724.632543,476.784477 726.048543,473.987477 726.806543,470.618477 C727.450543,467.755477 728.245543,464.400477 728.572543,463.162477 C729.310543,460.367477 729.079543,460.394477 720.131543,464.134477 M1096.93354,685.154477 C1096.93354,686.183477 1101.86554,699.917477 1102.98954,702.016477 C1103.68254,703.311477 1104.39254,705.505477 1104.56754,706.891477 C1105.24354,712.257477 1137.20454,790.464477 1139.51654,792.412477 C1140.82554,793.514477 1149.46454,819.148477 1156.30054,842.213477 C1160.02654,854.783477 1160.48054,857.223477 1159.31054,858.392477 C1158.55354,859.149477 1157.93254,861.264477 1157.93054,863.091477 C1157.92754,866.331477 1157.60654,866.582477 1144.70554,873.412477 C1137.43454,877.262477 1124.77354,884.138477 1116.57154,888.691477 C1108.36954,893.245477 1101.41554,896.728477 1101.11854,896.431477 C1100.82254,896.134477 1101.72054,894.658477 1103.11554,893.152477 L1105.65154,890.412477 L1097.92754,874.412477 L1090.20354,858.412477 L1068.63454,849.943477 L1047.06454,841.473477 L1051.12654,838.784477 L1055.18954,836.095477 L1042.53554,826.790477 L1029.88254,817.485477 L1020.01654,801.949477 C1014.59054,793.404477 1007.83854,781.781477 1005.01254,776.121477 C999.700543,765.483477 999.513543,765.345477 995.381543,769.049477 C993.343543,770.876477 993.302543,770.820477 989.068543,760.511477 L984.806543,750.134477 L979.119543,748.057477 C974.569543,746.395477 972.934543,745.168477 970.933543,741.916477 C968.413543,737.819477 965.540543,736.477477 952.564543,733.331477 L949.695543,732.635477 L953.144543,738.024477 C955.041543,740.987477 961.957543,751.731477 968.513543,761.899477 C975.069543,772.067477 990.108543,797.717477 1001.93354,818.899477 L1023.43354,857.412477 L1052.93354,882.111477 L1082.43354,906.811477 L1110.37154,919.882477 C1125.73754,927.071477 1138.68954,932.827477 1139.15354,932.672477 C1139.61754,932.517477 1147.75854,918.671477 1157.24454,901.901477 L1174.49254,871.412477 L1158.32554,830.890477 C1149.43254,808.603477 1134.38254,772.153477 1124.87954,749.890477 C1115.37654,727.627477 1105.70954,704.031477 1103.39554,697.455477 C1101.08254,690.878477 1098.68254,685.328477 1098.06154,685.121477 C1097.44154,684.915477 1096.93354,684.929477 1096.93354,685.154477 M962.933543,743.353477 C962.933543,743.596477 966.080543,748.659477 969.927543,754.603477 C973.774543,760.548477 976.924543,764.833477 976.927549,764.126477 C976.937543,761.967477 965.518543,742.997477 964.183543,742.953477 C963.496543,742.931477 962.933543,743.111477 962.933543,743.353477 M775.445543,798.647477 L770.458543,801.192477 L775.445543,803.380477 L780.433543,805.568477 L780.749543,803.240477 C780.923543,801.960477 780.923543,799.830477 780.749543,798.507477 L780.433543,796.102477 L775.445543,798.647477"/></g></svg>