<svg xmlns="http://www.w3.org/2000/svg" width="800" height="968.41" viewBox="0 0 800 968.41"><g fill="#ABABAB" fill-rule="evenodd"><path fill-opacity=".318" d="M399.818,2.0604692 C399.253,6.7994692 397.029,7.1074692 388.395,3.6414692 C382.74,1.3704692 380.372,0.826469202 379.846,1.6774692 C377.386,5.6574692 370,30.8924692 370,35.3174692 C370,48.4014692 365.661,80.8854692 360.955,103.025469 C358.738,113.456469 358.394,114.255469 355.216,116.338469 L351.834,118.555469 L345.667,114.606469 C342.275,112.433469 334.325,107.850469 328,104.419469 C315.33,97.5484692 312.461,95.1544692 301.054,81.9284692 L293.291,72.9284692 L292.09,62.9284692 C290.918,53.1624692 287.709,40.9274692 285.795,38.9284692 C285.183,38.2884692 284.957,40.3604692 285.169,44.6804692 L285.5,51.4324692 L276.139,51.4304692 L266.777,51.4284692 L267.443,55.1784692 C268.084,58.7864692 268.808,62.0934692 272.536,78.4284692 C273.477,82.5534692 275.946,90.6534692 278.021,96.4284692 C280.097,102.203469 283.25,111.081469 285.027,116.156469 C288.551,126.220469 287.299,124.833469 310.708,144.619469 C318.268,151.009469 325,157.212469 325,157.789469 C325,158.094469 322.996,159.518469 320.546,160.954469 C318.096,162.390469 315.787,164.546469 315.415,165.746469 C315.043,166.946469 313.917,169.728469 312.913,171.928469 C302.646,194.419469 295.675,212.468469 295.338,217.428469 C294.687,227.017469 292.986,247.722469 292.382,253.405469 L291.799,258.882469 L290.12,255.405469 C285.669,246.190469 285.131,243.153469 284.45,223.428469 L283.777,203.928469 L292.163,185.152469 C300.072,167.441469 300.802,166.207469 305.024,163.406469 C310.597,159.709469 309.58,159.580469 302.717,163.114469 C295.764,166.693469 281.932,168.318469 257.888,168.380469 L239.277,168.428469 L232.078,163.548469 C225.609,159.163469 224.303,157.684469 219.19,148.957469 L213.5,139.245469 L213.214,147.657469 L212.927,156.069469 L208.214,157.247469 C201.504,158.924469 194.866,156.912469 193.614,152.822469 C193.126,151.230469 192.508,149.253469 192.241,148.428469 C191.973,147.603469 190.69,153.144469 189.389,160.741469 L187.023,174.554469 L189.158,178.741469 C190.333,181.044469 192.412,184.701469 193.78,186.869469 C195.147,189.036469 199.131,196.573469 202.632,203.619469 C206.134,210.664469 209.208,216.428469 209.464,216.428469 C210.506,216.428469 237.737,222.435469 240.785,223.337469 C242.593,223.871469 245.518,225.181469 247.285,226.246469 C249.053,227.312469 253.2,229.673469 256.5,231.494469 C281.576,245.328469 278.802,243.155469 286.402,254.913469 C293.104,265.281469 293.334,265.851469 294.328,274.510469 L295.352,283.428469 L309.426,302.109469 L323.5,320.789469 L338,327.552469 C351.868,334.021469 352.836,334.318469 360.212,334.372469 L367.925,334.428469 L367.424,341.178469 C367.149,344.890469 366.504,352.878469 365.99,358.928469 C365.477,364.978469 364.787,374.203469 364.457,379.428469 C364.081,385.385469 362.432,394.522469 360.036,403.928469 C357.126,415.352469 356.066,421.807469 355.589,431.006469 C355,442.383469 354.674,443.831469 349.983,455.972469 C346.071,466.095469 345.271,469.095469 346.252,469.958469 C346.938,470.563469 351.325,473.330469 356,476.108469 L364.5,481.158469 L387.5,482.341469 C404.26,483.204469 412.399,483.231469 417.5,482.442469 C433.392,479.983469 443.565,478.490469 444.62,478.460469 C445.236,478.442469 446.259,480.341469 446.894,482.678469 C449.044,490.597469 451.9,504.861469 451.43,505.332469 C451.172,505.589469 448.383,506.122469 445.231,506.516469 C442.079,506.911469 433.502,507.985469 426.17,508.903469 C412.697,510.592469 409.58,510.556469 382.5,508.409469 C375.35,507.842469 365.675,507.136469 361,506.840469 C352.894,506.327469 352.005,506.025469 341.837,500.323469 C335.973,497.034469 330.434,493.213469 329.528,491.830469 C327.287,488.410469 328.902,483.654469 333.996,478.680469 L337.838,474.928469 L331.988,462.278469 C328.771,455.321469 323.892,443.621469 321.146,436.278469 C316.324,423.388469 312.184,413.428469 311.647,413.428469 C311.505,413.428469 307.813,414.742469 303.444,416.347469 C298.577,418.136469 295.571,419.782469 295.684,420.597469 C295.785,421.329469 296.669,425.611469 297.648,430.112469 C299.382,438.083469 299.379,438.352469 297.527,440.398469 C296.482,441.553469 295.035,442.272469 294.313,441.995469 C292.576,441.328469 292.64,442.120469 295.039,451.074469 C296.161,455.259469 296.921,458.840469 296.729,459.033469 C296.537,459.225469 294.214,457.184469 291.568,454.497469 C287.407,450.273469 286.303,448.216469 283.391,439.270469 C280.998,431.921469 280.192,427.915469 280.606,425.428469 C280.926,423.503469 282.036,417.428469 283.072,411.928469 C284.109,406.428469 285.441,398.103469 286.032,393.428469 C286.623,388.753469 287.661,381.251469 288.339,376.758469 C289.489,369.127469 289.457,368.648469 287.851,369.508469 C285.116,370.971469 281.997,370.589469 278.368,368.346469 L274.999,366.264469 L273,370.929469 C271.9,373.495469 271,376.013469 271,376.524469 C271,377.036469 270.546,378.237469 269.99,379.192469 C269.435,380.147469 265.61,391.016469 261.49,403.346469 L254,425.763469 L254,444.577469 L254,463.391469 L260.051,472.660469 C266.852,483.076469 266.749,483.388469 257.104,481.581469 C254.022,481.004469 248.851,480.223469 245.613,479.847469 L239.726,479.163469 L240.323,469.046469 C240.651,463.481469 241.143,457.578469 241.416,455.928469 C242.078,451.929469 244.776,432.203469 245.52,425.928469 L246.113,420.928469 L242.758,427.928469 C240.913,431.778469 238.815,436.376469 238.094,438.145469 C236.378,442.361469 234.002,442.980469 229.111,440.485469 C226.91,439.362469 224.906,438.777469 224.659,439.185469 C224.411,439.594469 221.707,446.453469 218.65,454.428469 C214.585,465.030469 212.783,471.347469 211.947,477.928469 C211.317,482.878469 210.419,489.628469 209.95,492.928469 C206.914,514.286469 206.609,519.459469 207.756,530.153469 C209.025,541.989469 210.376,552.200469 212.092,562.928469 C213.288,570.401469 213.107,570.086469 235.5,603.861469 L243.5,615.928469 L252.7,620.462469 C257.76,622.955469 262.201,625.296469 262.569,625.663469 C263.222,626.316469 258.754,631.714469 242.482,649.928469 C238.06,654.878469 232.472,661.324469 230.064,664.253469 L225.687,669.579469 L216.094,660.063469 L206.5,650.547469 L198,650.150469 C193.325,649.932469 179.734,649.141469 167.798,648.392469 L146.095,647.031469 L131.298,651.889469 C83.16,667.692469 92.082,663.414469 60.143,686.011469 C57.589,687.818469 51.845,691.817469 47.378,694.897469 C39.346,700.436469 35.687,704.598469 7,740.820469 C6.175,741.861469 4.262,744.171469 2.75,745.953469 C1.237,747.734469 0,749.614469 0,750.131469 C0,750.647469 9.112,751.606469 20.25,752.261469 C31.387,752.917469 47.211,753.929469 55.413,754.512469 L70.325,755.571469 L89.913,750.772469 L109.5,745.972469 L130,734.586469 C141.275,728.324469 153.786,721.420469 157.801,719.244469 C165.301,715.181469 175,712.014469 175,713.629469 C175,714.129469 173.616,717.775469 171.924,721.733469 C165.218,737.421469 162.15,746.299469 160.627,754.428469 C159.751,759.103469 157.672,770.085469 156.006,778.833469 C154.34,787.581469 153.189,794.951469 153.448,795.210469 C153.707,795.469469 159.9,792.958469 167.21,789.631469 C194.083,777.400469 192.443,778.447469 206.471,764.576469 L219.5,751.693469 L230.5,749.097469 C260.096,742.115469 268.49,740.504469 280.5,739.502469 C308.659,737.154469 321.503,738.760469 352,748.442469 C361.075,751.324469 370.75,754.071469 373.5,754.548469 C386.803,756.855469 411.896,758.832469 434.5,759.352469 C459.055,759.918469 459.635,759.980469 467.084,762.842469 L474.668,765.757469 L478.985,778.612469 C483.987,793.503469 484.158,792.445469 475.016,803.222469 C469.116,810.178469 468.9,810.619469 470.363,812.722469 C471.207,813.936469 478.129,821.421469 485.745,829.357469 L499.592,843.787469 L508.546,838.725469 C519.169,832.719469 518.835,832.343469 517.147,848.428469 C513.316,884.941469 513.291,886.997469 516.398,910.428469 C517.641,919.803469 518.782,924.428469 520.96,928.928469 C531.748,951.217469 539,966.728469 539,967.512469 C539,969.916469 541.371,967.648469 548.138,958.772469 C552.187,953.462469 558.792,944.799469 562.816,939.522469 C581.407,915.143469 580.304,917.028469 584.22,902.928469 C586.206,895.778469 589.334,884.753469 591.171,878.428469 L594.511,866.928469 L587.766,833.428469 C584.057,815.003469 581.017,799.190469 581.011,798.289469 C581.005,797.388469 577.478,791.313469 573.174,784.789469 C561.414,766.964469 557.56,761.034469 557.004,759.906469 C555.964,757.796469 548.885,747.709469 544.278,741.771469 C527.677,720.375469 524,715.353469 524,714.076469 C524,713.289469 525.151,712.356469 526.557,712.003469 C529.642,711.229469 554.236,713.225469 554.977,714.310469 C555.264,714.731469 558.008,719.092469 561.074,724.002469 L566.648,732.928469 L570.981,755.428469 L575.315,777.928469 L590.388,793.171469 C602.829,805.752469 605.581,808.091469 606.145,806.566469 C606.52,805.550469 607.557,800.041469 608.448,794.323469 C609.339,788.606469 610.523,781.453469 611.079,778.428469 C611.636,775.403469 612.742,769.103469 613.539,764.428469 C614.335,759.753469 615.64,752.328469 616.439,747.928469 C617.238,743.528469 618.358,737.241469 618.929,733.957469 C619.963,728.009469 620.021,727.932469 634.221,713.707469 L648.474,699.428469 L662.05,699.428469 L675.626,699.428469 L678.563,702.640469 C680.178,704.406469 680.712,705.251469 679.75,704.517469 C677.089,702.489469 677.584,703.995469 682.648,713.346469 C685.204,718.066469 689.086,725.303469 691.273,729.428469 C697.097,740.411469 700.905,744.888469 710.188,751.665469 C714.759,755.002469 721.679,760.117469 725.565,763.030469 C732.074,767.910469 733.253,768.409469 740.565,769.383469 C754.869,771.289469 771.388,773.545469 777.5,774.427469 C793.095,776.678469 799.379,777.382469 799.833,776.929469 C800.104,776.658469 797.029,768.896469 793,759.682469 C788.972,750.467469 783.917,738.878469 781.769,733.928469 C779.621,728.978469 777.336,723.803469 776.693,722.428469 C776.05,721.053469 767.107,709.344469 756.819,696.408469 L738.115,672.888469 L726.308,667.221469 C719.813,664.105469 705.95,657.435469 695.5,652.399469 L676.5,643.244469 L659.5,643.785469 C633.81,644.602469 596.883,646.331469 593.5,646.874469 C590.777,647.311469 589.211,646.127469 576.547,634.054469 L562.594,620.753469 L564.304,613.840469 C565.245,610.039469 567.39,601.753469 569.073,595.428469 C570.755,589.103469 573.214,579.809469 574.537,574.774469 C578.698,558.944469 579.161,557.976469 599.559,522.428469 C601.926,518.303469 607.336,507.728469 611.583,498.928469 C615.829,490.128469 621.131,479.816469 623.364,476.013469 C627.183,469.508469 627.313,469.034469 625.558,468.013469 C621.628,465.728469 616.959,461.113469 616.425,458.985469 C616.028,457.402469 617.465,454.221469 621.434,447.899469 L627,439.034469 L627.064,450.981469 C627.137,464.664469 626.678,465.011469 634.389,445.428469 C637.154,438.406469 639.358,430.813469 640.049,425.928469 C642.746,406.865469 643.6,398.426469 642.902,397.702469 C642.492,397.276469 641.673,395.353469 641.082,393.428469 L640.008,389.928469 L640.441,393.678469 C640.99,398.431469 639.992,398.444469 633.212,393.774469 C630.172,391.680469 627.558,390.506469 627.09,391.024469 C626.64,391.521469 623.23,399.578469 619.512,408.928469 C615.793,418.278469 609.732,432.678469 606.042,440.928469 C602.352,449.178469 598.753,457.392469 598.044,459.182469 C597.305,461.046469 592.854,465.931469 587.627,470.616469 C582.607,475.115469 574.225,482.945469 569,488.018469 C562.663,494.169469 558.469,497.453469 556.404,497.879469 C553.293,498.522469 548.802,497.729469 528.5,492.948469 C515.678,489.929469 500.367,487.428469 494.707,487.428469 C491.782,487.428469 489.484,488.330469 485.965,490.857469 C480.977,494.441469 480.029,494.466469 479.956,491.011469 C479.932,489.866469 479.297,487.202469 478.544,485.092469 L477.177,481.256469 L480.588,479.243469 C482.465,478.136469 484,476.558469 484,475.736469 C484,474.913469 482.632,469.837469 480.96,464.455469 C478.362,456.093469 476.398,452.373469 467.466,438.900469 C461.716,430.227469 456.537,421.511469 455.957,419.530469 C455.376,417.549469 454.222,411.428469 453.391,405.928469 C450.991,390.042469 449.179,378.438469 448.002,371.428469 C447.402,367.853469 446.277,360.653469 445.502,355.428469 C443.875,344.454469 441.87,331.929469 439.018,314.928469 C437.911,308.328469 437.004,301.956469 437.003,300.769469 C437.001,299.085469 438.871,297.598469 445.49,294.019469 C450.16,291.494469 454.451,289.428469 455.025,289.428469 C456.3,289.428469 466.345,297.136469 473.922,303.929469 C476.99,306.680469 480.732,310.016469 482.238,311.342469 L484.976,313.754469 L493.144,309.921469 C497.637,307.813469 505.63,303.182469 510.906,299.629469 C520.027,293.487469 530.061,289.122469 567.5,275.007469 C569.15,274.385469 576.89,269.163469 584.7,263.402469 C596.142,254.963469 599.026,252.345469 599.55,249.928469 C600.951,243.464469 606.194,224.444469 609.109,215.252469 L612.177,205.576469 L611.089,189.847469 C610.49,181.196469 610,173.320469 610,172.346469 C610,169.914469 605.027,167.644469 597.948,166.843469 C587.783,165.693469 584.765,169.333469 580.09,188.386469 L577.034,200.844469 L570.294,207.636469 L563.554,214.428469 L550.548,214.428469 L537.542,214.428469 L529.397,206.325469 L521.252,198.223469 L516.376,200.925469 C509.543,204.711469 508.684,205.646469 506.055,212.160469 C504.774,215.332469 503.133,219.278469 502.408,220.928469 C492.855,242.668469 492.222,245.024469 491.034,263.297469 C490.336,274.032469 489.446,281.133469 488.702,281.890469 C488.041,282.563469 485.719,286.791469 483.543,291.285469 L479.586,299.456469 L476.744,293.748469 L473.902,288.039469 L474.983,266.483469 L476.063,244.928469 L480.983,232.928469 C483.69,226.328469 487.896,215.978469 490.33,209.928469 C494.311,200.035469 495.199,198.626469 499.151,195.928469 C509.567,188.818469 509.198,189.384469 503,190.014469 C499.975,190.322469 495.25,190.970469 492.5,191.455469 C489.75,191.939469 484.022,192.634469 479.77,192.998469 L472.041,193.659469 L476.77,188.317469 C479.372,185.379469 484.03,180.265469 487.122,176.952469 C492.72,170.954469 492.758,170.870469 496.025,157.428469 L499.307,143.928469 L516.153,126.918469 C525.419,117.562469 533,109.387469 533,108.751469 C533,108.116469 535.075,101.416469 537.612,93.8634692 L542.224,80.1304692 L540.108,69.0294692 C538.945,62.9244692 537.994,57.3084692 537.996,56.5504692 C537.998,55.7924692 536.639,52.7924692 534.975,49.8854692 L531.95,44.5984692 L523.725,47.7954692 L515.5,50.9934692 L514.734,58.9604692 C513.976,66.8524692 512.418,78.8584692 511.324,85.2314692 C510.798,88.2984692 509.924,88.9524692 499.122,94.3674692 C488.807,99.5384692 480.153,102.914469 479.328,102.089469 C479.171,101.933469 480.608,97.8174692 482.522,92.9444692 C485.473,85.4264692 485.985,82.9364692 485.9,76.5064692 C485.808,69.6174692 485.718,69.2924692 484.904,72.9284692 C484.411,75.1284692 483.774,77.9364692 483.488,79.1684692 L482.967,81.4074692 L477.734,79.3364692 C474.855,78.1974692 471.749,77.0334692 470.83,76.7514692 C469.554,76.3584692 468.021,78.3794692 464.33,85.3144692 C461.674,90.3074692 459.176,94.4004692 458.779,94.4104692 C458.383,94.4204692 453.08,90.8464692 446.995,86.4694692 L435.932,78.5094692 L428.216,82.0374692 C413.632,88.7054692 410.9,89.7284692 410.095,88.8244692 C409.656,88.3314692 406.663,84.3284692 403.445,79.9284692 C397.754,72.1464692 397.56,71.6694692 396.333,62.4284692 C394.558,49.0594692 394.727,39.3524692 396.916,28.9284692 C397.955,23.9784692 399.524,16.5534692 400.402,12.4284692 C401.28,8.3034692 401.999,3.9424692 401.999,2.7374692 C402,-0.488530798 400.189,-1.0505308 399.818,2.0604692 M361.992,226.454469 C360.85,227.176469 361.161,227.401469 363.316,227.413469 C364.864,227.421469 369.561,229.013469 373.752,230.949469 C383.692,235.541469 385.471,234.922469 375.884,230.206469 C367.369,226.018469 364.085,225.131469 361.992,226.454469 M341.5,231.876469 C330.901,235.359469 329.057,236.969469 329.014,242.774469 C328.996,245.122469 325.127,250.624469 323.988,249.920469 C322.56,249.038469 321.724,257.970469 322.465,266.194469 C323.073,272.938469 323.868,275.272469 328.676,284.428469 C331.709,290.203469 334.687,295.532469 335.295,296.271469 C337.125,298.496469 355.475,310.429469 357.043,310.413485 C357.844,310.405469 362.241,308.904469 366.813,307.078469 C378.509,302.407469 387.56,294.604469 394.078,283.571469 C398.651,275.830469 398.944,274.944469 398.041,271.571469 C397.504,269.567469 396.328,264.778469 395.426,260.928469 C393.903,254.427469 391.273,247.791469 390.533,248.585469 C390.189,248.954469 392.422,260.003469 393.835,264.928469 C395.665,271.304469 382.881,289.335469 373,294.315469 C361.204,300.261469 361.868,300.243469 354.943,294.802469 C349.932,290.866469 339.402,278.776469 335.6,272.596469 C335.15,271.864469 334.151,268.223469 333.382,264.507469 C332.055,258.096469 332.112,257.240469 334.491,247.839469 C336.415,240.239469 337.564,237.514469 339.422,236.151469 C343.077,233.470469 346.563,230.490469 346,230.52811 C345.725,230.547469 343.7,231.153469 341.5,231.876469 M437,417.529469 C437,418.213469 437.685,422.632469 438.521,427.350469 C439.358,432.068469 440.279,437.390469 440.567,439.178469 C440.855,440.966469 441.568,442.428469 442.151,442.428469 C442.734,442.428469 447.033,441.262469 451.705,439.837469 L460.2,437.246469 L457.35,434.259469 C451.886,428.533469 437,416.295469 437,417.529469 M358.5,493.428469 C358.84,493.978469 359.568,494.428469 360.118,494.428469 C360.668,494.428469 360.84,493.978469 360.5,493.428469 C360.16,492.878469 359.432,492.428469 358.882,492.428469 C358.332,492.428469 358.16,492.878469 358.5,493.428469 M674.083,700.711469 C674.313,700.867469 675.4,701.654469 676.5,702.461469 C678.35,703.818469 678.397,703.797469 677.128,702.178469 C676.373,701.216469 675.285,700.428469 674.711,700.428469 C674.137,700.428469 673.854,700.555469 674.083,700.711469 M670.031,702.178469 C670.081,703.366469 674.99,711.041469 674.988001,709.928469 C674.987,709.378469 674.115,707.606469 673.05,705.990469 C671.985,704.375469 671.34,702.687469 671.616,702.240469 C671.892,701.794469 671.641,701.428469 671.059,701.428469 C670.477,701.428469 670.014,701.765469 670.031,702.178469 M678,716.928469 C679.815,720.228469 681.756,723.378469 682.312,723.928469 C682.869,724.478469 681.852,722.228469 680.052,718.928469 C678.253,715.628469 676.312,712.478469 675.74,711.928469 C675.168,711.378469 676.185,713.628469 678,716.928469 M684.5,728.428469 C685.353,730.078469 686.276,731.428469 686.551,731.428469 C686.826,731.428469 686.353,730.078469 685.5,728.428469 C684.647,726.778469 683.724,725.428469 683.449,725.428469 C683.174,725.428469 683.647,726.778469 684.5,728.428469 M498.245,791.890469 C486.729,795.964469 485.505,796.663469 477.946,803.477469 C473.521,807.466469 470.261,811.052469 470.701,811.448469 C471.14,811.843469 475.651,813.173469 480.725,814.403469 L489.951,816.640469 L492.567,813.531469 C494.005,811.821469 495.661,810.718469 496.246,811.080469 C496.851,811.454469 497.018,811.266469 496.633,810.644469 C496.262,810.043469 496.746,809.110469 497.709,808.571469 C499.363,807.645469 499.342,807.224469 497.322,801.012469 C496.088,797.218469 495.578,794.189469 496.115,793.857469 C496.628,793.540469 500.03,792.274469 503.675,791.045469 L510.302,788.809469 L514.592,796.942469 C516.952,801.415469 519.442,807.292469 520.125,810.002469 L521.368,814.928469 L522.175,811.822469 C522.852,809.219469 522.332,807.517469 518.964,801.322469 C516.754,797.255469 514.199,792.466469 513.287,790.678469 C512.376,788.890469 511.375,787.457469 511.065,787.492469 C510.754,787.527469 504.985,789.506469 498.245,791.890469 M518.272,861.428469 C518.272,863.903469 518.467,864.915469 518.706,863.678469 C518.944,862.441469 518.944,860.415469 518.706,859.178469 C518.467,857.941469 518.272,858.953469 518.272,861.428469"/><path fill-opacity=".189" d="M375.628,15.6564692 C371.376,28.6894692 370.887,31.2194692 369.99,44.7924692 C368.709,64.1674692 365.699,84.3544692 361.022,104.928469 C360.522,107.128469 359.843,110.210469 359.512,111.777469 L358.912,114.627469 L361.706,112.723469 C363.243,111.676469 366.525,109.977469 369,108.946469 C371.475,107.915469 380.7,103.834469 389.5,99.8774692 C398.3,95.9204692 406.512,92.3704692 407.75,91.9884692 C408.988,91.6064692 410,90.8394692 410,90.2854692 C410,89.7304692 408.046,86.7234692 405.658,83.6024692 C396.777,71.9974692 396.295,70.8594692 395.413,59.4284692 C394.114,42.5984692 394.417,37.8124692 397.801,21.6714692 C399.561,13.2794692 401,6.2014692 401,5.9424692 C401,5.6834692 399.951,5.9494692 398.669,6.5334692 C396.807,7.3814692 395.145,7.0994692 390.419,5.1324692 C379.445,0.565469202 380.884,-0.457530798 375.628,15.6564692 M523.378,48.5574692 L516.255,51.6004692 L515.565,57.2644692 C515.185,60.3794692 514.467,66.5284692 513.97,70.9284692 C512.82,81.0964692 511.803,88.9284692 511.632,88.9284692 C510.388,88.9284692 488,100.815469 488,101.475469 C488,101.987469 486.988,102.333469 485.75,102.244469 C484.512,102.154469 482.488,102.415469 481.25,102.822469 C478.191,103.829469 478.323,102.638469 482.427,92.1854692 C484.312,87.3844692 485.463,83.2144692 484.986,82.9194692 C483.551,82.0334692 471.025,77.4284692 470.047,77.4284692 C469.548,77.4284692 467.239,80.9154692 464.916,85.1784692 C458.777,96.4404692 459.809,96.0354692 451.52,90.4414692 L444.229,85.5214692 L445.979,90.1324692 C447.387,93.8414692 448.458,95.0334692 451.46,96.2304692 C454.797,97.5614692 455.132,98.0164692 454.629,100.533469 C454.319,102.082469 451.464,107.394469 448.283,112.338469 C443.304,120.078469 442.111,121.334469 439.7,121.378469 C437.399,121.419469 437.065,121.721469 437.823,123.077469 C438.6,124.464469 436.586,125.830469 425.123,131.690469 C417.63,135.520469 411.072,139.053469 410.55,139.541469 C409.196,140.805469 405.826,140.643469 398.706,138.972469 C373.89,133.148469 376.733,134.217469 363.974,125.911469 C358.38,122.269469 353.059,119.017469 352.151,118.683469 C351.243,118.350469 347.8,116.394469 344.5,114.338469 C341.2,112.282469 333.168,107.730469 326.652,104.223469 C315.281,98.1034692 314.344,97.3434692 303.423,85.3874692 L292.043,72.9284692 L291.947,66.9284692 C291.895,63.6284692 291.548,58.9034692 291.176,56.4284692 L290.5,51.9284692 L279.5,52.2854692 C273.45,52.4814692 268.304,52.8274692 268.065,53.0534692 C267.587,53.5054692 271.211,70.8954692 274.083,81.9284692 C275.085,85.7784692 277.989,94.7784692 280.537,101.928469 C283.086,109.078469 285.88,117.079469 286.746,119.707469 C288.065,123.705469 289.89,125.854469 297.911,132.857469 C303.185,137.461469 312,145.156469 317.5,149.956469 C323,154.756469 328.511,159.148469 329.747,159.715469 C331.064,160.319469 332.4,162.216469 332.974,164.297469 C333.802,167.294469 333.648,168.174469 331.987,169.942469 C330.904,171.094469 328.871,174.937469 327.469,178.482469 C326.066,182.027469 324.508,185.828469 324.006,186.928469 C320.878,193.784469 317,202.776469 317,203.173469 C317,203.431469 317.708,203.370469 318.572,203.039469 C321.082,202.075469 308.032,216.245469 304.264,218.574469 C301.506,220.279469 300.401,220.476469 298.492,219.606469 C296.203,218.564469 296.115,218.690469 295.605,223.729469 C293.494,244.602469 293.152,255.487469 294.232,267.428469 C294.605,271.553469 294.93,276.541469 294.955,278.512469 C294.993,281.523469 297.243,285.117469 309.043,301.012469 L323.086,319.928469 L338.293,327.127469 C352.802,333.995469 353.84,334.328469 360.899,334.377469 L368.297,334.428469 L367.599,343.178469 C367.215,347.991469 366.271,360.928469 365.501,371.928469 C364.339,388.543469 363.573,393.790469 360.976,402.928469 C357.698,414.464469 356.154,425.198469 356.084,436.928469 L356.043,443.928469 L363.388,448.024469 C369.382,451.367469 372.644,452.428469 381.117,453.789469 C406.25,457.829469 404.191,457.173469 407.25,462.112469 C408.763,464.554469 410,466.987469 410,467.518469 C410,469.045469 415.839,480.211469 417.019,480.940469 C417.604,481.301469 424.181,480.611469 431.635,479.406469 C439.569,478.124469 445.557,477.585469 446.079,478.107469 C446.569,478.597469 447.421,481.232469 447.973,483.963469 C448.524,486.694469 449.812,492.657469 450.834,497.214469 C452.149,503.071469 452.372,505.699469 451.597,506.181469 C450.994,506.556469 446,507.403469 440.5,508.065469 C435,508.726469 426.9,509.772469 422.5,510.388469 C417.995,511.019469 409.257,511.270469 402.5,510.963469 C395.499,510.645469 391.332,510.773469 392.496,511.272469 C393.923,511.883469 392.068,512.333469 385.996,512.849469 C381.323,513.246469 375.594,513.989469 373.265,514.500469 C369.85,515.250469 367.17,514.946469 359.406,512.929469 C354.112,511.553469 348.864,510.428469 347.744,510.428469 C344,510.428469 330.662,495.050469 325.039,484.250469 C322.267,478.928469 320,474.410469 320,474.211469 C320,474.012469 323.61,474.269469 328.022,474.783469 C332.434,475.297469 336.287,475.474469 336.585,475.176469 C336.883,474.879469 334.579,469.076469 331.467,462.282469 C328.354,455.487469 324.245,445.653469 322.335,440.428469 C316.582,424.692469 313.141,416.790469 311.417,415.359469 C310.105,414.270469 297,418.923469 297,420.477469 C297,420.937469 298.167,424.461469 299.593,428.308469 L302.185,435.303469 L299.343,438.865469 C297.779,440.825469 295.938,442.428469 295.25,442.428469 C293.666,442.428469 293.714,443.538469 295.614,450.928469 C298.653,462.749469 298.815,462.490469 292.328,456.166469 C286.876,450.851469 286.159,449.616469 283.095,440.269469 C279.478,429.231469 279.462,428.524469 282.463,411.928469 C284.251,402.039469 285.335,394.965469 287.342,380.074469 L288.67,370.220469 L285.462,370.740469 C283.315,371.089469 281.213,370.628469 279.103,369.344469 C277.37,368.290469 275.744,367.428469 275.489,367.428469 C274.647,367.428469 271.972,374.649469 262.938,401.297469 L254,427.666469 L254,445.108469 L254,462.550469 L260.56,472.595469 C264.169,478.120469 266.904,482.857469 266.64,483.122469 C266.375,483.386469 263.76,483.138469 260.829,482.571469 C257.898,482.003469 253.025,481.265469 250,480.931469 C246.975,480.596469 243.199,480.071469 241.608,479.764469 L238.716,479.207469 L239.362,470.109469 C239.717,465.105469 240.447,458.517469 240.984,455.469469 C243.604,440.591469 243.966,438.060469 243.531,437.626469 C243.096,437.191469 242.139,437.771469 236.337,441.986469 C234.342,443.434469 233.845,443.389469 229.968,441.411469 C227.655,440.231469 225.442,439.640469 225.05,440.097469 C224.659,440.554469 221.83,447.678469 218.764,455.928469 C213.87,469.095469 212.985,472.639469 211.521,484.928469 C210.604,492.628469 209.457,501.178469 208.972,503.928469 C206.918,515.564469 206.896,522.065469 208.86,535.928469 C209.952,543.628469 211.399,554.203469 212.076,559.428469 L213.308,568.928469 L228.645,592.494469 L243.982,616.060469 L253.983,620.821469 L263.984,625.583469 L259.742,630.779469 C254.725,636.924469 236.489,657.683469 229.792,664.874469 L225.084,669.928469 L215.792,660.800469 L206.5,651.672469 L194.5,650.550469 C187.9,649.933469 174.464,648.946469 164.642,648.356469 L146.783,647.284469 L117.619,656.830469 C89.178,666.140469 88.24,666.532469 79.753,672.652469 C74.966,676.104469 64.176,683.727469 55.775,689.594469 C47.374,695.460469 39.517,701.310469 38.315,702.594469 C37.113,703.877469 28.016,715.053469 18.101,727.428469 L0.072,749.928469 L6.786,750.587469 C10.479,750.949469 20.7,751.755469 29.5,752.378469 C38.3,753.001469 50.733,754.003469 57.129,754.605469 L68.758,755.699469 L89.629,750.474469 C107,746.125469 111.758,744.529469 118,740.955469 C122.125,738.594469 130.225,734.058469 136,730.874469 C141.775,727.691469 150.426,722.904469 155.225,720.235469 C165.101,714.743469 181.534,709.796469 183.76,711.644469 C184.47,712.233469 187.249,715.252469 189.935,718.353469 L194.82,723.992469 L193.381,729.460469 C187.415,752.132469 183.615,766.812469 182.385,771.948469 C180.838,778.399469 181.091,778.174469 163.511,788.734469 C160.785,790.371469 156.638,793.428469 157.143,793.428469 C157.586,793.428469 180.023,783.318469 188.854,779.140469 C192.858,777.245469 197.199,773.463469 206.077,764.134469 L217.947,751.662469 L228.723,749.086469 C234.65,747.670469 243.55,745.577469 248.5,744.436469 C253.45,743.294469 260.229,741.701469 263.564,740.894469 C266.899,740.088469 272.524,739.430469 276.064,739.433469 C279.604,739.436469 288.125,738.917469 295,738.280469 C307.012,737.168469 308.027,737.228469 321,739.817469 C328.425,741.298469 338.55,743.801469 343.5,745.378469 C364.127,751.949469 372.877,754.256469 379.5,754.871469 C383.35,755.228469 390.1,755.949469 394.5,756.473469 C398.9,756.997469 415.105,757.829469 430.511,758.322469 L458.522,759.219469 L466.636,762.348469 L474.75,765.477469 L476.779,771.202469 C477.896,774.352469 480.024,780.424469 481.508,784.698469 L484.207,792.467469 L481.66,795.698469 C480.259,797.474469 477.862,800.503469 476.333,802.428469 C473.2,806.374469 475.02,805.303469 481.5,799.387469 C484.469,796.676469 488.556,794.665469 497.358,791.581469 C503.88,789.297469 509.817,787.428469 510.551,787.428469 C511.286,787.428469 514.425,791.949469 517.526,797.474469 L523.164,807.520469 L522.059,824.224469 C521.451,833.411469 520.473,845.653469 519.886,851.428469 C519.109,859.059469 519.129,865.071469 519.958,873.428469 C520.585,879.753469 521.558,889.653469 522.119,895.428469 C523.033,904.825469 524.592,911.932469 531,935.928469 C532.028,939.778469 534.277,948.328469 535.997,954.928469 C537.717,961.528469 539.444,967.254469 539.836,967.651469 C540.227,968.049469 543.297,964.674469 546.658,960.151469 C550.02,955.629469 555.385,948.553469 558.582,944.428469 C561.78,940.303469 567.88,932.344469 572.138,926.742469 L579.882,916.557469 L586.991,891.600469 L594.099,866.643469 L586.991,831.285469 L579.882,795.928469 L570.837,781.928469 C565.862,774.228469 559.25,763.949469 556.145,759.086469 C553.04,754.223469 549.15,748.538469 547.5,746.454469 C545.85,744.369469 542.821,740.473469 540.768,737.796469 C538.716,735.118469 534.103,729.176469 530.518,724.591469 C520.421,711.676469 521.367,710.556469 540.862,712.335469 C547.452,712.936469 553.327,713.428469 553.916,713.428469 C555.168,713.428469 565.705,729.283469 567.082,733.236469 C567.597,734.717469 568.641,739.303469 569.401,743.428469 C570.162,747.553469 572.001,757.003469 573.488,764.428469 L576.192,777.928469 L590.846,792.697469 L605.5,807.466469 L606.116,804.197469 C606.455,802.399469 607.698,795.078469 608.879,787.928469 C611.15,774.182469 613.717,759.967469 617.636,739.430469 L620.021,726.932469 L633.747,713.180469 L647.473,699.428469 L661.811,699.428469 L676.149,699.428469 L685.324,707.828469 C690.371,712.448469 700.835,722.010469 708.579,729.078469 C716.322,736.145469 727.27,745.078469 732.907,748.928469 C738.545,752.778469 745.034,757.322469 747.329,759.025469 C752.139,762.597469 800,778.910469 800,776.977469 C800,776.708469 797.477,770.737469 794.394,763.708469 C791.31,756.679469 787.221,747.328469 785.306,742.928469 C783.391,738.528469 781.221,733.577469 780.483,731.926469 C779.745,730.275469 778.255,726.857469 777.172,724.330469 C776.089,721.804469 768.745,711.755469 760.852,702.000469 C752.958,692.246469 745.6,683.028469 744.5,681.517469 C739.33,674.413469 736.93,672.669469 723.486,666.245469 C715.794,662.570469 701.85,655.906469 692.5,651.436469 L675.5,643.310469 L651,644.444469 C637.525,645.068469 618.175,645.942469 608,646.385469 L589.5,647.192469 L575.738,633.562469 C568.137,626.033469 562.194,619.365469 562.462,618.665469 C562.962,617.363469 568.684,595.859469 574.621,572.966469 C578.056,559.723469 578.219,559.380469 595.88,528.119469 C603.561,514.524469 606.301,509.277469 612.952,495.428469 C617.047,486.903469 621.657,477.853469 623.198,475.317469 C624.739,472.782469 626,470.223469 626,469.631469 C626,469.040469 624.283,467.591469 622.184,466.411469 C620.085,465.232469 617.579,462.801469 616.614,461.010469 C614.879,457.788469 614.891,457.701469 617.758,452.841469 C619.352,450.139469 621.971,445.903469 623.578,443.428469 L626.5,438.928469 L627,450.297469 L627.5,461.665469 L633.141,447.297469 C636.412,438.966469 639.081,430.407469 639.493,426.928469 C639.884,423.628469 640.342,420.028469 640.513,418.928469 C641.001,415.768469 643,400.047469 643,399.363469 C643,399.023469 641.306,398.237469 639.236,397.617469 C637.165,396.996469 633.928,395.350469 632.041,393.958469 C630.155,392.567469 628.309,391.428469 627.94,391.428469 C627.57,391.428469 626.015,394.916469 624.485,399.178469 C622.954,403.440469 621.373,407.378469 620.973,407.928469 C620.572,408.478469 619.903,410.053469 619.486,411.428469 C618.772,413.782469 606.107,442.796469 600.062,455.928469 C597.179,462.190469 593.559,466.447469 583.5,475.408469 C580.2,478.348469 573.352,484.707469 568.282,489.539469 C560.915,496.561469 558.305,498.441469 555.282,498.902469 C553.202,499.220469 541.02,501.486469 528.211,503.940469 L504.921,508.400469 L494.711,504.034469 C487.513,500.957469 484.256,500.002469 483.674,500.798469 C483.124,501.550469 482.98,501.439469 483.244,500.468469 C483.462,499.664469 488.245,496.909469 493.873,494.345469 C504.416,489.541469 504.615,489.093469 496.72,487.909469 C492.493,487.275469 491.803,487.510469 486.577,491.371469 C482.776,494.179469 480.83,495.097469 480.537,494.221469 C479.624,491.496469 473,466.696469 473,466.002469 C473,465.601469 475.122,467.086469 477.715,469.302469 C480.308,471.519469 482.554,473.207469 482.706,473.055469 C482.859,472.903469 481.794,468.762469 480.34,463.853469 C478.099,456.287469 476.161,452.644469 467.617,439.928469 C462.073,431.678469 456.774,422.678469 455.842,419.928469 C454.909,417.178469 453.439,409.978469 452.573,403.928469 C451.138,393.893469 450.152,387.323469 447.018,366.928469 C446.427,363.078469 445.726,358.803469 445.462,357.428469 C444.938,354.706469 443.7,346.947469 441.552,332.928469 C437.912,309.177469 436.897,302.865469 436.393,300.859469 C435.918,298.964469 437.084,298.027469 445.546,293.506469 L455.243,288.324469 L461.372,293.070469 C469.288,299.201469 481.273,309.570469 482.3,311.177469 C482.74,311.865469 483.496,312.428469 483.981,312.428469 C484.466,312.428469 482.195,306.850469 478.934,300.033469 L473.005,287.639469 L473.642,272.283469 L474.279,256.928469 L471.692,259.303469 C470.27,260.609469 467.282,262.011469 465.053,262.418469 L461,263.159469 L461,252.320469 C461,242.536469 461.302,240.722469 464.1,233.704469 C468.241,223.320469 471.461,214.167469 473.435,207.172469 C474.834,202.216469 475.646,201.053469 479.28,198.806469 C481.601,197.372469 484.85,195.333469 486.5,194.277469 L489.5,192.356469 L486,192.842469 C476.629,194.144469 472,194.424469 472,193.689469 C472,193.245469 476.613,187.808469 482.25,181.606469 L492.5,170.330469 L495.823,156.629469 L499.146,142.928469 L515.491,126.428469 L531.836,109.928469 L536.544,95.9284692 C539.132,88.2284692 541.224,80.6924692 541.192,79.1814692 C541.052,72.5624692 536.639,53.6874692 534.295,49.6784692 C532.928,47.3404692 531.515,45.4474692 531.155,45.4712435 C530.795,45.4954692 527.295,46.8834692 523.378,48.5574692 M213.769,148.734469 L214.238,156.040469 L210.253,157.234469 C201.869,159.746469 194.771,158.077469 193.068,153.193469 C192.476,151.494469 191.805,150.289469 191.578,150.516469 C191.351,150.743469 190.417,156.417469 189.501,163.124469 L187.836,175.319469 L191.013,181.124469 C192.761,184.316469 194.559,187.378469 195.01,187.928469 C195.46,188.478469 198.774,194.854469 202.374,202.098469 C206.321,210.040469 209.63,215.478469 210.709,215.797469 C213.376,216.586469 228.64,220.092469 235.5,221.491469 C238.8,222.164469 243.3,223.717469 245.5,224.941469 C247.7,226.166469 252.425,228.767469 256,230.722469 C281.321,244.565469 279.475,243.204469 285.459,252.428469 C288.493,257.103469 290.98,260.645469 290.98707,260.300469 C290.999,259.740469 289.472,255.689469 287.08,249.928469 C286.623,248.828469 285.743,246.669469 285.125,245.131469 C284.506,243.593469 284,238.969469 284,234.856469 C284,228.028469 283.804,227.302469 281.75,226.500469 C280.512,226.017469 278.094,224.116469 276.375,222.275469 C273.448,219.141469 273.208,218.307469 272.603,209.164469 L271.958,199.400469 L266.479,191.308469 C263.465,186.858469 261,182.698469 261,182.065469 C261,179.222469 263.144,173.904469 265.15,171.768469 L267.349,169.428469 L253.75,169.428469 L240.151,169.428469 L232.326,164.178469 C225.214,159.407469 224.044,158.131469 219.5,150.195469 C216.75,145.391469 214.23,141.454469 213.9,141.445451 C213.57,141.436469 213.511,144.716469 213.769,148.734469 M591,167.874469 C586.33,170.425469 583.943,175.173469 580.626,188.511469 L577.403,201.471469 L570.526,208.402469 C564.661,214.312469 563.048,215.394469 559.574,215.748469 C557.333,215.976469 559.325,215.982469 564,215.760469 L572.5,215.357469 L576.085,211.241469 C580.038,206.702469 581,207.240469 581,213.990469 C581,217.038469 580.46,217.699469 575.75,220.412469 C570.233,223.590469 566.434,223.778469 558.274,221.278469 C555.523,220.434469 554.567,220.642469 551.774,222.688469 C534.307,235.487469 529.112,239.232469 526.75,240.730469 L524,242.474469 L523.985,238.201469 C523.967,232.917469 522.063,227.310469 517.908,220.304469 C516.154,217.347469 513.598,212.903469 512.229,210.428469 L509.738,205.928469 L512.619,208.460469 C514.204,209.853469 518.061,213.340469 521.19,216.210469 C524.32,219.080469 527.767,221.428469 528.85,221.428469 C529.934,221.428469 533.673,220.078469 537.16,218.429469 C542.671,215.822469 543.105,215.429469 540.477,215.429469 C538.027,215.428469 535.943,213.909469 529.5,207.428469 C525.126,203.028469 521.208,199.428469 520.793,199.428469 C520.378,199.428469 517.66,200.950469 514.752,202.810469 C510.296,205.661469 509.094,207.112469 507.093,212.060469 C505.787,215.287469 502.225,223.778469 499.175,230.928469 C494.224,242.538469 493.497,245.157469 492.374,255.428469 C490.077,276.426469 490.478,283.183469 494.75,295.556469 C496.813,301.529469 498.826,306.419469 499.225,306.422471 C499.623,306.425469 504.669,303.317469 510.439,299.515469 C516.208,295.712469 524.657,291.168469 529.214,289.417469 C571.878,273.025469 569.918,273.967469 585.093,262.585469 L598.685,252.391469 L602.406,237.408469 C604.453,229.168469 607.342,218.714469 608.826,214.177469 L611.524,205.928469 L610.512,188.691469 C609.35,168.904469 609.597,169.379469 599.525,167.517469 C596.284,166.918469 593.603,166.446469 593.566,166.46773 C593.53,166.490469 592.375,167.123469 591,167.874469 M351,223.859469 C347.425,225.114469 340.378,228.215469 335.339,230.750469 C325.211,235.845469 325.739,235.092469 322.448,249.111469 C321.001,255.278469 320.923,257.654469 321.897,265.914469 C322.85,274.000469 323.705,276.842469 327.257,283.731469 C329.581,288.240469 331.618,292.212469 331.785,292.559469 C331.951,292.906469 330.895,293.488469 329.439,293.854469 C327.255,294.402469 326.914,294.906469 327.494,296.723469 C327.881,297.936469 328.428,301.697469 328.709,305.082469 L329.221,311.236469 L340.604,315.950469 C348.872,319.373469 352.742,320.494469 354.744,320.046469 C356.26,319.706469 361.068,318.760469 365.429,317.943469 C371.155,316.871469 374.076,315.771469 375.941,313.985469 C377.361,312.624469 381.893,309.733469 386.011,307.560469 L393.5,303.609469 L396.881,290.314469 L400.261,277.020469 L397.571,265.596469 C395.329,256.075469 393.856,252.383469 388.728,243.424469 L382.575,232.674469 L372.424,227.051469 C366.842,223.958469 361.2,221.461469 359.887,221.501971 C358.574,221.543469 354.575,222.604469 351,223.859469 M344.9,232.733469 L337.5,238.038469 L335.128,247.544469 C332.963,256.218469 332.86,257.670469 333.949,264.127469 C334.988,270.287469 335.893,272.222469 340.93,279.066469 C344.113,283.390469 349.902,289.749469 353.795,293.197469 L360.873,299.466469 L369.186,295.749469 C376.185,292.620469 378.304,291.075469 382.584,285.980469 C385.38,282.651469 389.138,277.318469 390.935,274.129469 L394.203,268.330469 L392.013,258.629469 C390.809,253.293469 389.751,248.695469 389.662,248.410469 C389.573,248.125469 387.956,245.129469 386.07,241.752469 C382.766,235.838469 382.313,235.462469 373.73,231.520469 C366.317,228.115469 363.769,227.428469 358.561,227.428469 C352.598,227.428469 351.95,227.680469 344.9,232.733469 M436.335,418.010469 C436.648,419.615469 437.672,425.653469 438.612,431.428469 C439.552,437.203469 440.655,442.312469 441.063,442.781469 C441.471,443.250469 445.787,442.462469 450.653,441.030469 C455.519,439.599469 460.288,438.428469 461.25,438.428469 C462.212,438.428469 462.967,438.091469 462.926,437.678469 C462.859,437.000469 444.658,421.692469 438.351,417.010469 L435.767,415.092469 L436.335,418.010469 M294,464.476469 C294,465.053469 293.103,467.380469 292.007,469.649469 C290.306,473.169469 290.103,475.028469 290.619,482.350469 C291.287,491.833469 291.845,493.020469 301.529,505.554469 C306.184,511.579469 307,513.267469 307,516.876469 C307,519.672469 307.596,521.634469 308.75,522.632469 C310.563,524.201469 331.611,536.428469 332.498,536.428469 C334.58,536.428469 331.315,530.583469 321.05,515.928469 C309.145,498.934469 309.14,498.923469 304.096,483.428469 C301.321,474.903469 298.339,466.916469 297.469,465.678469 C295.809,463.318469 294,462.691469 294,464.476469 M517.25,787.117469 C518.212,787.369469 519.788,787.369469 520.75,787.117469 C521.712,786.866469 520.925,786.660469 519,786.660469 C517.075,786.660469 516.288,786.866469 517.25,787.117469 M514.326,890.691469 C514.668,891.660469 515.412,896.385469 515.98,901.191469 C517.928,917.658469 519.36,923.937469 522.824,931.199469 C524.731,935.198469 526.475,938.287469 526.699,938.063469 C526.922,937.839469 525.551,932.092469 523.651,925.292469 C521.751,918.492469 519.18,907.978469 517.937,901.928469 C516.693,895.878469 515.233,890.478469 514.691,889.928469 C514.041,889.268469 513.917,889.527469 514.326,890.691469"/><path fill-opacity=".085" d="M398.256,7.2494692 C397.067,8.0044692 389,28.1494692 389,30.3644692 C389,30.9494692 388.501,31.4284692 387.892,31.4284692 C387.217,31.4284692 387.022,32.3794692 387.393,33.8584692 C387.729,35.1944692 388.943,42.7214692 390.092,50.5834692 C391.935,63.1954692 394.265,71.4964692 395.59,70.1724692 C395.833,69.9294692 395.545,63.1734692 394.95,55.1604692 C394.195,44.9954692 394.183,38.9794692 394.908,35.2594692 C396.873,25.1844692 400.086,9.9264692 400.61,8.1784692 C401.17,6.3114692 400.283,5.9614692 398.256,7.2494692 M532.289,59.0644692 C531.323,67.1864692 530.79,68.8934692 528.581,70.9414692 C526.792,72.5994692 526,74.3654692 526,76.6974692 C526,79.7544692 524.753,88.2734692 523.423,94.3044692 C523.021,96.1254692 523.249,96.5464692 524.398,96.1054692 C527.887,94.7664692 523.967,100.144469 516.9,106.388469 L509.5,112.928469 L516.219,105.313469 C519.914,101.125469 522.652,97.4134692 522.302,97.0634692 C520.597,95.3584692 517.314,97.1974692 506.086,106.146469 C495.318,114.727469 493.963,116.144469 494.495,118.262469 C496.177,124.964469 496.239,126.428469 494.841,126.428469 C494.066,126.428469 490.992,128.899469 488.009,131.919469 C482.529,137.467469 480.018,138.743469 472.183,139.957469 C468.652,140.505469 467.61,140.290469 466.465,138.777469 C463.833,135.304469 464.752,130.720469 469.803,122.112469 C472.445,117.611469 475.559,111.003469 476.725,107.428469 C477.89,103.853469 480.232,97.1774692 481.928,92.5934692 C483.625,88.0084692 484.792,83.9004692 484.522,83.4634692 C484.252,83.0274692 483.18,82.4474692 482.141,82.1754692 C480.719,81.8034692 479.833,82.5804692 478.568,85.3044692 C477.643,87.2974692 473.65,93.7664692 469.693,99.6784692 C464.501,107.438469 462.03,110.320469 460.81,110.038469 C459.435,109.720469 458.747,111.234469 457.108,118.184469 C455.615,124.518469 448.679,143.387469 446.44,147.206469 C446.351,147.359469 445.02,147.006469 443.483,146.421469 C441.266,145.579469 439.17,145.810469 433.344,147.539469 C429.305,148.738469 426,150.130469 426,150.633469 C426,151.135469 425.555,151.271469 425.011,150.935469 C424.459,150.594469 424.269,150.965469 424.58,151.775469 C425.544,154.287469 423.216,154.579469 419.074,152.466469 C415.326,150.553469 410.88,149.641469 412.318,151.079469 C412.676,151.437469 412.188,152.371469 411.234,153.153469 C410.147,154.046469 410.059,154.308469 411,153.855469 C412.238,153.261469 412.275,153.377469 411.211,154.520469 C410.117,155.696469 408.994,155.568469 403.789,153.672469 C400.416,152.444469 397.483,151.612469 397.272,151.823469 C397.06,152.034469 399.805,153.254469 403.37,154.532469 C406.935,155.811469 409.641,157.199469 409.383,157.617469 C408.973,158.281469 405.7,157.325469 398.5,154.441469 C390.483,151.229469 386.642,150.428469 379.259,150.428469 L371.085,150.428469 L368.964,143.307469 C367.798,139.391469 366.766,135.004469 366.672,133.557469 C366.437,129.971469 363.204,126.961469 351.715,119.634469 C342.443,113.720469 342.012,113.551469 343.491,116.411469 C344.349,118.070469 344.761,119.428469 344.405,119.428469 C344.05,119.428469 339.635,115.940469 334.595,111.678469 C329.555,107.415469 322.731,102.578469 319.431,100.928469 C315.347,98.8864692 312.004,96.1874692 308.965,92.4764692 C306.509,89.4784692 301.837,84.1654692 298.583,80.6704692 C292.107,73.7164692 291.177,70.9974692 291.06,58.6784692 L291,52.4284692 L286.598,52.4284692 L282.196,52.4284692 L283.609,57.1244692 C284.387,59.7074692 285.308,64.8964692 285.658,68.6544692 C286.236,74.8754692 286.087,75.7074692 283.997,77.9314692 C281.45,80.6434692 280.833,85.3924692 282.156,92.1134692 C282.609,94.4154692 283.207,99.5904692 283.484,103.613469 C283.762,107.636469 285.06,113.853469 286.369,117.428469 C288.519,123.304469 289.702,124.791469 298.689,132.928469 C318.549,150.909469 323.331,154.806469 331.774,159.900469 L340.371,165.086469 L343.737,172.976469 C345.589,177.315469 347.316,181.077469 347.575,181.336469 C347.834,181.595469 351.148,180.808469 354.94,179.586469 L361.835,177.366469 L380.167,182.523469 C390.25,185.359469 402.221,188.664469 406.769,189.868469 C411.317,191.072469 414.789,192.306469 414.484,192.610469 C414.18,192.915469 415.031,192.954469 416.376,192.696469 C417.721,192.439469 419.649,192.710469 420.661,193.298469 C422.133,194.154469 421.425,194.373469 417.11,194.398469 C413.157,194.420469 411.343,193.962469 410.305,192.678469 C409.029,191.101469 408.998,191.152469 409.988,193.193469 C411.023,195.328469 411.62,195.447469 420.293,195.257469 C427.997,195.089469 431.917,195.658469 444.309,198.742469 C460.117,202.677469 462.522,203.011469 463.513,201.407469 C463.86,200.846469 466.474,199.050469 469.322,197.417469 C472.357,195.676469 473.725,194.443469 472.628,194.437469 C470.648,194.427469 476.479,187.080469 487.705,175.437469 C490.617,172.416469 493,169.113469 493,168.096469 C493,167.079469 494.378,161.001469 496.062,154.588469 L499.125,142.928469 L515.429,126.428469 L531.732,109.928469 L536.467,95.4284692 C541.464,80.1224692 541.549,79.1734692 539.038,66.9284692 C538.474,64.1784692 537.632,60.0834692 537.168,57.8284692 C536.703,55.5734692 535.669,52.7944692 534.87,51.6534692 C533.533,49.7444692 533.327,50.3354692 532.289,59.0644692 M398.139,77.6784692 C402.106,87.5464692 402.146,88.8944692 398.58,92.3514692 C396.833,94.0434692 394.89,95.4284692 394.261,95.4284692 C393.633,95.4284692 392.826,95.9014692 392.468,96.4794692 C392.111,97.0584692 393.547,96.7914692 395.659,95.8874692 C397.772,94.9834692 401.867,93.3214692 404.76,92.1934692 L410.02,90.1434692 L407.688,87.0354692 C406.405,85.3264692 404.263,82.3654692 402.928,80.4554692 C401.592,78.5454692 399.938,76.3754692 399.25,75.6344692 C398.563,74.8924692 398,73.8674692 398,73.3574692 C398,72.8464692 397.557,72.4284692 397.015,72.4284692 C396.473,72.4284692 396.979,74.7904692 398.139,77.6784692 M368.086,136.928469 C368.19,138.822469 369.856,142.012469 369.914,140.428469 C369.945,139.603469 369.533,138.253469 369,137.428469 C368.467,136.603469 368.055,136.378469 368.086,136.928469 M214,150.354469 C214,157.795469 214.316,159.035469 218.209,166.885469 C220.523,171.552469 222.72,174.881469 223.091,174.281469 C223.505,173.610469 225.308,174.736469 227.785,177.213469 L231.806,181.234469 L231.343,177.207469 C230.687,171.494469 231.393,170.040469 234.038,171.655469 C235.819,172.743469 236.324,172.655469 237.512,171.054469 C238.791,169.330469 238.347,168.808469 231.973,164.543469 C226.358,160.786469 224.186,158.516469 220.522,152.573469 C218.035,148.539469 216,144.858469 216,144.392469 C216,143.927469 215.55,143.268469 215,142.928469 C214.365,142.536469 214,145.246469 214,150.354469 M370.063,143.556469 C369.958,146.264469 372.158,147.187469 379.703,147.597469 C383.665,147.812469 386.365,147.644469 385.703,147.223469 C385.041,146.803469 381.673,146.452469 378.218,146.443469 C372.645,146.430469 371.833,146.174469 371.031,144.178469 C370.419,142.655469 370.106,142.454469 370.063,143.556469 M390.5,149.964469 C392.15,150.720469 394.175,151.324469 395,151.307469 C395.825,151.290469 394.925,150.669469 393,149.928469 C388.434,148.170469 386.638,148.196469 390.5,149.964469 M188.158,173.428469 C188.158,174.803469 188.385,175.366469 188.662,174.678469 C188.94,173.991469 188.94,172.866469 188.662,172.178469 C188.385,171.491469 188.158,172.053469 188.158,173.428469 M585.243,174.678469 C584.08,176.130469 580.698,187.460469 581.261,188.022469 C581.469,188.231469 582.828,185.032469 584.279,180.915469 C586.933,173.386469 587.09,172.374469 585.243,174.678469 M206.673,205.910469 C208.419,206.714469 210.193,207.947469 210.615,208.650469 C211.189,209.604469 210.964,209.588469 209.726,208.583469 C206.966,206.346469 206.107,207.712469 207.813,211.625469 C209.345,215.139469 209.797,215.403469 216.962,216.959469 C240.021,221.967469 242.638,222.775469 251,227.475469 C255.675,230.102469 263.53,234.524469 268.455,237.302469 C273.38,240.079469 277.554,242.208469 277.729,242.033469 C278.724,241.037469 276.256,238.089469 273.066,236.462469 C271.039,235.427469 265.664,231.826469 261.123,228.459469 C256.581,225.092469 250.983,221.507469 248.683,220.492469 C241.644,217.388469 229.82,214.205469 223.5,213.713469 C219.937,213.436469 216.719,212.573469 215.578,211.587469 C214.063,210.279469 213.819,210.245469 214.428,211.428469 C214.853,212.253469 213.692,211.276469 211.85,209.256469 C210.007,207.236469 207.375,205.328469 206,205.016469 C204.077,204.580469 204.232,204.786469 206.673,205.910469 M604.702,219.980469 C602.666,224.094469 600.986,228.466469 600.968,229.695469 C600.916,233.359469 599.124,234.747469 585.083,241.999469 C574.585,247.420469 571.048,249.779469 568.825,252.840469 C564.471,258.833469 560.493,260.700469 549.5,261.910469 C546.2,262.273469 539.675,263.227469 535,264.029469 C530.325,264.832469 524.25,265.743469 521.5,266.054469 C518.75,266.365469 516.193,266.809469 515.817,267.041469 C515.442,267.273469 514.64,269.845469 514.036,272.757469 L512.936,278.051469 L502.718,280.073469 C495.544,281.493469 492.281,281.772469 491.765,281.012469 C489.415,277.545469 493.342,290.751469 498.651,304.170469 C499.514,306.352469 499.81,306.231469 509.519,299.728469 C519.16,293.271469 530.029,288.459469 562.275,276.374469 C568.165,274.166469 573.483,270.894469 584.214,262.873469 L598.379,252.285469 L601.706,239.107469 C603.535,231.858469 605.265,224.639469 605.55,223.063469 C605.836,221.488469 606.734,218.606469 607.548,216.660469 C610.191,210.334469 608.497,212.310469 604.702,219.980469 M347.975,221.401469 C339.216,222.958469 337.751,223.569469 329.749,229.011469 C324.38,232.662469 321.231,235.438469 321.524,236.260469 C321.786,236.992469 322,239.430469 322,241.676469 C322,246.732469 322.733,246.136469 324.299,239.808469 L325.5,234.952469 L335,230.266469 C340.225,227.688469 348.1,224.369469 352.5,222.891469 C364.623,218.816469 363.884,218.573469 347.975,221.401469 M345.061,232.771469 L337.623,238.159469 L335.269,247.517469 C333.173,255.852469 333.033,257.636469 333.996,263.837469 C334.967,270.096469 335.723,271.666469 341.474,279.364469 C348.032,288.141469 358.734,298.428469 361.308,298.428469 C362.101,298.428469 366.069,296.905469 370.125,295.043469 C378.518,291.191469 384.14,285.429469 390.308,274.361469 L393.968,267.793469 L391.526,257.861469 C390.184,252.398469 387.603,245.118469 385.793,241.684469 C382.563,235.560469 382.336,235.369469 374,231.780469 C367.888,229.149469 363.674,228.017469 359,227.751469 C352.508,227.383469 352.49,227.389469 345.061,232.771469 M412.652,228.678469 C415.049,232.569469 422.266,242.475469 423.063,242.967469 C424.581,243.905469 424.141,245.158469 422.106,245.690469 C420.922,246.000469 419.962,247.448469 419.544,249.557469 C418.76,253.507469 418.318,254.835469 413.597,267.428469 C409.811,277.525469 407.616,286.838469 406.525,297.428469 C406.157,301.003469 405.639,304.697469 405.374,305.636469 C405.109,306.575469 401.429,309.444469 397.196,312.011469 C392.963,314.578469 387.002,318.575469 383.948,320.894469 C379.387,324.357469 376.66,325.516469 368.664,327.390469 C354.86,330.624469 350.89,330.085469 336.486,323.028469 C328.048,318.893469 323.692,316.098469 321.013,313.100469 C318.962,310.806469 315.813,307.353469 314.016,305.428469 L310.748,301.928469 L313.155,305.428469 C322.315,318.747469 323.094,319.474469 333.5,324.418469 C352.377,333.386469 351.438,333.126469 367.749,333.916469 L382.788,334.644469 L387.219,339.286469 C391.58,343.856469 391.697,344.160469 394.77,358.928469 C396.486,367.178469 398.894,379.103469 400.12,385.428469 C401.346,391.753469 402.48,397.100469 402.64,397.310469 C402.8,397.521469 405.055,397.852469 407.651,398.046469 C410.247,398.240469 412.696,398.743469 413.092,399.164469 C413.892,400.011469 418.041,413.624469 417.93,415.036469 C417.891,415.527469 417.442,415.028469 416.932,413.928469 C415.718,411.310469 416.877,418.054469 418.135,420.928469 C418.779,422.400469 418.887,422.005469 418.544,419.428469 L418.079,415.928469 L419.388,419.928469 L420.697,423.928469 L426.599,423.766469 L432.5,423.604469 L434.829,430.607469 C436.935,436.936469 441.902,448.716469 440.446,443.928469 C439.928,442.224469 439.129,437.976469 437.435,427.928469 C436.302,421.204469 435.812,415.428469 436.375,415.428469 C437.05,415.428469 442.735,419.954469 456.358,431.340469 C462.833,436.750469 463.863,437.985469 462.121,438.248469 C460.727,438.458469 460,439.294469 460,440.689469 C460,442.767469 459.971,442.770469 458.571,440.869469 C457.316,439.164469 457.192,440.816469 457.559,454.428469 C457.789,462.953469 458.239,471.150469 458.56,472.644469 C459.218,475.703469 460.093,481.835469 460.338,485.093469 C460.591,488.474469 462.65,486.018469 463.378,481.467469 C464.322,475.560469 466,475.451469 466,481.297469 C466,484.039469 466.418,489.578469 466.93,493.606469 C467.441,497.633469 468.142,504.901469 468.488,509.756469 C469.082,518.095469 469.003,518.614469 467.059,519.123469 C465.926,519.419469 465.003,519.946469 465.006,520.295469 C465.012,520.991469 466.089,527.410469 468.385,540.428469 C469.209,545.103469 470.185,551.628469 470.553,554.928469 C470.921,558.228469 471.554,563.057469 471.959,565.659469 C472.694,570.379469 472.69,570.388469 470.098,569.742469 C468.669,569.386469 465.257,568.306469 462.516,567.343469 L457.532,565.593469 L455.823,568.198469 C454.883,569.631469 454.342,571.172469 454.62,571.623469 C454.899,572.073469 454.423,572.712469 453.563,573.042469 C452.704,573.372469 452,574.446469 452,575.428469 C452,576.410469 451.296,577.484469 450.437,577.814469 C449.577,578.144469 449.155,578.870469 449.5,579.428469 C449.845,579.986469 449.426,580.711469 448.569,581.040469 C447.712,581.369469 447.238,582.004469 447.515,582.452469 C447.792,582.900469 447.339,583.946469 446.509,584.776469 C445.679,585.606469 445,586.767469 445,587.357469 C445,587.946469 444.523,588.428469 443.941,588.428469 C443.359,588.428469 443.16,588.878469 443.5,589.428469 C443.84,589.978469 443.641,590.428469 443.059,590.428469 C442.477,590.428469 442,591.103469 442,591.928469 C442,592.753469 441.523,593.428469 440.941,593.428469 C440.359,593.428469 440.143,593.850469 440.462,594.367469 C440.781,594.883469 440.245,595.769469 439.271,596.336469 C438.297,596.903469 437.87,597.381469 438.321,597.398469 C438.773,597.414469 438.476,598.095469 437.661,598.910469 C436.846,599.725469 435.975,600.963469 435.726,601.660469 C435.477,602.357469 435.031,602.703469 434.735,602.428469 C434.439,602.153469 438.427,593.196469 443.598,582.523469 C453.158,562.791469 454.494,558.831469 451.25,559.835469 C450.288,560.133469 445.225,561.041469 440,561.854469 C434.775,562.667469 427.575,563.884469 424,564.559469 C420.425,565.233469 415.763,565.818469 413.64,565.857469 L409.78,565.928469 L400.483,548.432469 C395.37,538.809469 391.41,530.573469 391.684,530.130469 C392.213,529.274469 387.455,524.428469 386.084,524.428469 C384.024,524.428469 348.246,512.977469 346.274,511.686469 C343.611,509.944469 330.432,494.596469 327.24,489.521469 C323.676,483.853469 313.056,461.189469 305.513,443.154469 L302.68,436.380469 L300.419,438.504469 C298.26,440.532469 298.224,440.812469 299.619,444.765469 C300.422,447.040469 300.676,449.036469 300.183,449.200469 C299.397,449.462469 300.481,454.173469 303.84,465.099469 C304.376,466.843469 307.312,471.214469 310.364,474.811469 C314.911,480.171469 316.363,482.848469 318.407,489.640469 C322.321,502.646469 322.34,502.810469 320.155,504.788469 C318.223,506.536469 318.26,506.675469 322.778,514.744469 C325.298,519.245469 329.099,525.245469 331.224,528.077469 L335.087,533.225469 L334.047,539.577469 C333.475,543.070469 332.515,549.185469 331.915,553.166469 C330.864,560.133469 330.743,560.361469 328.68,559.257469 C326.65,558.170469 297.878,540.473469 297.163,539.871469 C296.283,539.130469 294.943,530.860469 294.013,520.428469 C292.288,501.078469 290.928,492.519469 289.656,493.002469 C288.4,493.479469 284.779,488.107469 280.507,479.428469 C279.017,476.403469 276.157,471.344469 274.15,468.187469 C270.985,463.208469 270.085,462.444469 267.375,462.437469 C265.656,462.432469 262.898,462.158469 261.246,461.827469 C258.382,461.254469 258.178,460.870469 256.871,453.577469 L255.5,445.928469 L255.211,454.714469 L254.921,463.500469 L260.488,471.952469 C263.549,476.601469 266.329,481.122469 266.665,481.999469 C267.326,483.720469 266.877,483.700469 250.5,481.294469 C237.368,479.364469 238.66,480.657469 239.347,470.127469 C239.677,465.068469 240.412,457.778469 240.979,453.928469 C241.547,450.078469 242.3,444.678469 242.654,441.928469 L243.298,436.928469 L240.899,438.928469 C237.378,441.864469 237.032,442.553469 237.015,446.678469 C237.007,448.741469 236.6,450.428469 236.111,450.428469 C235.623,450.428469 234.86,448.741469 234.416,446.678469 L233.61,442.928469 L232.938,448.428469 C232.569,451.453469 231.916,457.416469 231.487,461.678469 C230.701,469.486469 229.744,471.328469 228.629,467.178469 C228.048,465.017469 227.944,465.058469 226.012,468.202469 C224.201,471.149469 224.004,473.150469 224.044,488.202469 C224.068,497.401469 224.521,506.953469 225.051,509.428469 C227.41,520.436469 227.411,520.232469 224.987,520.593469 C223.124,520.871469 222.425,522.123469 220.896,527.928469 C219.882,531.778469 219.082,535.378469 219.118,535.928469 C219.22,537.499469 222.971,525.136469 222.986,523.178469 C222.994,522.216469 223.675,521.428469 224.5,521.428469 C225.325,521.428469 226,521.788469 226,522.228469 C226,522.668469 223.328,533.580469 220.061,546.478469 L214.123,569.928469 L223.279,583.928469 C245.572,618.016469 243.373,615.375469 253.667,620.428469 C258.709,622.903469 263.165,625.259469 263.568,625.663469 C263.972,626.067469 262.322,628.555469 259.901,631.193469 C257.481,633.830469 252.8,639.091469 249.5,642.883469 C246.2,646.675469 241.475,652.064469 239,654.857469 C236.525,657.651469 232.758,662.072469 230.63,664.682469 C228.501,667.292469 226.259,669.428469 225.648,669.428469 C225.037,669.428469 220.479,665.399469 215.519,660.474469 L206.5,651.520469 L192,650.512469 C184.025,649.958469 170.73,649.007469 162.456,648.398469 L147.412,647.291469 L118.071,656.973469 L88.729,666.655469 L68.603,680.792469 C57.535,688.567469 46.594,696.211469 44.291,697.778469 C40.542,700.330469 32.224,709.568469 24.834,719.386469 C23.367,721.334469 17.232,729.003469 11.199,736.428469 L0.231,749.928469 L7.365,750.590469 C25.472,752.270469 43.184,753.510469 57.213,754.079469 L72.5,754.700469 L91,749.996469 C103.078,746.925469 111.583,744.165469 115.5,742.047469 C118.8,740.263469 131.151,733.447469 142.947,726.901469 C160.604,717.102469 165.984,714.597469 173.394,712.724469 L182.394,710.449469 L184.797,712.689469 C186.119,713.920469 188.994,717.061469 191.186,719.669469 L195.171,724.410469 L191.093,740.169469 C188.851,748.836469 185.724,760.765469 184.146,766.678469 C181.354,777.134469 181.305,778.507469 183.8,776.428469 C184.656,775.715469 184.728,775.758469 184.049,776.579469 C183.527,777.211469 181.521,778.674469 179.593,779.829469 C167.031,787.351469 163.088,789.849469 163.356,790.117469 C163.523,790.284469 166.444,789.073469 169.846,787.425469 C173.248,785.776469 176.226,784.428469 176.463,784.428469 C176.7,784.428469 180.405,782.780469 184.697,780.765469 C191.386,777.624469 194.427,775.220469 206,763.917469 L219.5,750.732469 L229,748.589469 C234.225,747.411469 245.04,744.905469 253.033,743.021469 C265.433,740.098469 270.718,739.421469 289.033,738.413469 C308.45,737.345469 311.264,737.398469 318.5,738.966469 C322.9,739.920469 327.85,740.901469 329.5,741.146469 C332.99,741.666469 350.663,746.877469 356.5,749.109469 C359.586,750.288469 366.555,750.748469 387,751.122469 L413.5,751.606469 L418.5,754.991469 L423.5,758.376469 L440.471,758.519469 C456.725,758.656469 457.782,758.790469 465.471,761.674469 C469.887,763.331469 474.015,765.191469 474.645,765.807469 C475.985,767.118469 484,790.941469 484,793.612469 C484,794.611469 484.395,795.428469 484.877,795.428469 C485.359,795.428469 491.547,793.406469 498.627,790.934469 C509.351,787.191469 512.585,786.471469 518,786.623469 L524.5,786.806469 L518.75,787.167469 C515.587,787.365469 513,787.743469 513,788.007469 C513,788.270469 515.362,792.860469 518.25,798.207469 L523.5,807.928469 L522.827,816.928469 C520.617,846.497469 519.25,868.002469 519.549,868.496469 C519.738,868.809469 520.594,876.909469 521.45,886.496469 C522.583,899.171469 523.934,907.476469 526.401,916.928469 C528.267,924.078469 531.901,938.028469 534.475,947.928469 C537.049,957.828469 539.511,966.296469 539.946,966.747469 C540.382,967.197469 544.26,962.922469 548.565,957.247469 C552.87,951.571469 558.641,944.003469 561.39,940.428469 C564.139,936.853469 568.616,931.003469 571.339,927.428469 C574.062,923.853469 577.075,920.028469 578.035,918.928469 C578.995,917.828469 582.12,908.378469 584.98,897.928469 C587.84,887.478469 591.04,876.228469 592.093,872.928469 C593.888,867.299469 593.911,866.495469 592.475,859.928469 C591.633,856.078469 590.304,849.553469 589.522,845.428469 C588.741,841.303469 586.948,832.303469 585.538,825.428469 C584.129,818.553469 582.278,809.141469 581.425,804.513469 C580.03,796.941469 579.155,794.992469 572.687,785.055469 C554.18,756.620469 549.077,748.855469 548.288,747.928469 C547.819,747.378469 544.33,742.878469 540.534,737.928469 C536.739,732.978469 531.241,725.915469 528.317,722.231469 C522.749,715.218469 521.952,713.044469 524.582,712.035469 C527.122,711.060469 537.821,711.331469 546.894,712.598469 C554.377,713.644469 555.625,714.130469 558.394,717.078469 C561.546,720.434469 567.245,722.366469 588.147,727.164469 L594.795,728.690469 L597.053,741.002469 C598.295,747.773469 599.579,753.698469 599.906,754.167469 C600.233,754.637469 603.268,757.130469 606.65,759.707469 L612.801,764.392469 L613.908,757.660469 C614.517,753.957469 615.986,745.753469 617.172,739.428469 L619.33,727.928469 L633.903,713.178469 L648.475,698.428469 L661.987,698.445469 L675.5,698.461469 L686.086,708.195469 C713.629,733.519469 723.899,742.408469 732.352,748.239469 C737.383,751.710469 743.975,756.263469 747,758.356469 C751.231,761.285469 757.695,763.824469 775,769.358469 C787.375,773.315469 798.113,776.754469 798.861,777.001469 C799.67,777.268469 800.005,776.938469 799.688,776.189469 C798.007,772.228469 782.827,737.600469 782.037,735.928469 C781.518,734.828469 779.773,730.940469 778.159,727.287469 C775.13,720.433469 772.496,716.643469 759.491,700.428469 C735.667,670.725469 738.694,673.706469 726.5,667.939469 C720.45,665.077469 711.225,660.678469 706,658.163469 C700.775,655.647469 691.55,651.268469 685.5,648.432469 L674.5,643.275469 L654,644.381469 C642.725,644.989469 626.075,645.929469 617,646.471469 C607.925,647.012469 598.019,647.449469 594.987,647.442469 L589.473,647.428469 L575.743,633.672469 L562.014,619.916469 L564.417,610.922469 C568.969,593.889469 571.874,582.897469 574.987,570.928469 C577.078,562.890469 579.37,556.782469 581.93,552.428469 C596.774,527.177469 625,472.752469 625,469.380469 C625,468.812469 623.762,469.521469 622.25,470.956469 C620.737,472.392469 617.569,474.975469 615.208,476.696469 C612.848,478.418469 610.005,481.303469 608.89,483.106469 C607.775,484.909469 602.507,490.479469 597.182,495.482469 C588.942,503.224469 587.947,504.481469 590.5,503.919469 C593.426,503.275469 593.391,503.353469 589.069,507.093469 C586.633,509.202469 583.258,511.216469 581.569,511.569469 C579.881,511.922469 572.444,514.573469 565.043,517.462469 L551.585,522.713469 L548.543,519.223469 C546.337,516.692469 544.4,515.572469 541.5,515.148469 C539.3,514.827469 530.585,513.386469 522.133,511.946469 C513.681,510.507469 506.568,509.526469 506.327,509.768469 C505.956,510.138469 503.875,517.449469 497.029,542.428469 C494.534,551.534469 494.725,551.348469 493.427,545.928469 C492.768,543.178469 490.637,533.953469 488.691,525.428469 C486.744,516.903469 483.594,504.753469 481.69,498.428469 C479.786,492.103469 477.234,483.328469 476.02,478.928469 C474.806,474.528469 473.405,469.894469 472.906,468.631469 C472.408,467.368469 472,465.529469 472,464.546469 C472,463.563469 471.073,459.936469 469.941,456.486469 C468.808,453.036469 468.063,450.031469 468.285,449.810469 C468.507,449.588469 470.334,450.522469 472.344,451.887469 C474.355,453.251469 476,454.138469 476,453.857469 C476,453.576469 471.673,446.767469 466.385,438.727469 C455.99,422.923469 454.632,419.843469 453.032,408.428469 C452.454,404.303469 451.326,396.653469 450.525,391.428469 C449.724,386.203469 448.59,378.778469 448.004,374.928469 C447.418,371.078469 446.75,366.803469 446.519,365.428469 C446.289,364.053469 445.187,357.078469 444.071,349.928469 C442.955,342.778469 441.574,334.003469 441.001,330.428469 C435.778,297.824469 435.899,299.004469 437.635,297.720469 C438.534,297.055469 442.814,294.666469 447.148,292.412469 L455.028,288.312469 L458.264,290.592469 C465.575,295.745469 470.743,299.817469 475,303.778469 C477.475,306.082469 480.282,308.571469 481.237,309.309469 C482.844,310.551469 482.892,310.416469 481.875,307.499469 C481.152,305.425469 479.017,303.209469 475.638,301.023469 C469.876,297.296469 467.315,294.645469 464.215,289.199469 C463.047,287.148469 459.209,281.973469 455.685,277.699469 C447.146,267.343469 446,264.891469 446,256.978469 C446,252.241469 445.637,250.428469 444.689,250.428469 C443.967,250.428469 442.505,249.618469 441.439,248.628469 C440.372,247.637469 438.684,246.515469 437.687,246.135469 C436.689,245.754469 436.124,245.036469 436.431,244.540469 C436.738,244.044469 436.316,243.380469 435.494,243.064469 C434.672,242.749469 434,241.807469 434,240.972469 C434,239.336469 430.434,236.882469 419.658,231.099469 C412.122,227.056469 411.526,226.850469 412.652,228.678469 M287.158,373.428469 C287.158,374.803469 287.385,375.366469 287.662,374.678469 C287.94,373.991469 287.94,372.866469 287.662,372.178469 C287.385,371.491469 287.158,372.053469 287.158,373.428469 M286.079,382.011469 C286.127,383.176469 286.364,383.413469 286.683,382.616469 C286.972,381.894469 286.936,381.031469 286.604,380.699469 C286.272,380.367469 286.036,380.957469 286.079,382.011469 M280.623,396.343469 C279.605,399.453469 278.972,404.965469 278.924,411.116469 C278.856,419.814469 278.715,420.567469 277.674,417.750469 C275.782,412.629469 275.367,412.972469 273.776,420.966469 C272.526,427.252469 272.475,429.658469 273.479,435.002469 C274.146,438.550469 274.913,441.674469 275.184,441.945469 C275.455,442.216469 276.271,440.636469 276.998,438.433469 C277.725,436.230469 278.631,434.428469 279.011,434.428469 C279.391,434.428469 279.665,432.291469 279.619,429.678469 C279.574,427.065469 280.553,419.303469 281.796,412.428469 C283.038,405.553469 284.233,398.803469 284.45,397.428469 C284.668,396.053469 284.26,394.130469 283.545,393.155469 C282.38,391.565469 282.078,391.895469 280.623,396.343469 M637.725,400.625469 C636.504,405.943469 630.03,426.506469 628.909,428.627469 C628.24,429.892469 625.724,433.128469 623.318,435.818469 C619.171,440.453469 606.493,463.428469 608.082,463.428469 C609.264,463.428469 616.625,454.712469 618.448,451.153469 C621.601,445.001469 625.549,439.078469 626.769,438.672469 C627.714,438.357469 627.856,440.871469 627.387,449.595469 C627.052,455.828469 627.013,460.703469 627.299,460.428469 C629,458.798469 637.87,433.781469 638.823,427.928469 C640.483,417.736469 642.298,404.311469 642.406,401.428469 C642.536,397.969469 638.494,397.276469 637.725,400.625469 M412.015,401.011469 C412.024,402.065469 412.487,403.603469 413.046,404.428469 C413.787,405.523469 413.88,405.119469 413.39,402.928469 C412.567,399.251469 411.995,398.453469 412.015,401.011469 M414.086,407.428469 C414.055,408.253469 414.467,409.603469 415,410.428469 C416.181,412.256469 416.181,410.677469 415,407.928469 C414.433,406.609469 414.122,406.439469 414.086,407.428469 M315.437,425.428469 C315.738,426.803469 316.479,430.628469 317.083,433.928469 C317.687,437.228469 319.265,444.240469 320.591,449.511469 C321.916,454.782469 323,460.426469 323,462.053469 C323,464.216469 324.143,466.128469 327.25,469.162469 C330.787,472.615469 337,476.342469 337,475.010469 C337,474.808469 334.318,468.960469 331.041,462.015469 C327.764,455.070469 323.467,444.898469 321.493,439.409469 C317.359,427.915469 314.575,421.485469 315.437,425.428469 M478.05,464.023469 C478.012,467.896469 478.481,469.554469 480.006,470.934469 C481.11,471.932469 482.148,472.564469 482.313,472.339469 C482.479,472.113469 481.599,469.003469 480.357,465.428469 L478.1,458.928469 L478.05,464.023469 M217.66,540.178469 C216.423,544.741469 216.02,547.847469 216.849,546.428469 C217.835,544.740469 219.171,538.428469 218.542,538.428469 C218.318,538.428469 217.921,539.216469 217.66,540.178469 M214.496,551.928469 C214.079,554.128469 213.301,556.770469 212.769,557.799469 C212.098,559.094469 212.131,559.465469 212.873,559.006469 C214.171,558.204469 216.289,550.749469 215.687,549.104469 C215.45,548.457469 214.914,549.728469 214.496,551.928469 M275.488,567.945469 C277.145,571.383469 278.633,574.078469 278.795,573.934469 C279.761,573.074469 276.489,564.659469 274.665,563.311469 C272.65,561.822469 272.716,562.191469 275.488,567.945469 M372.75,753.090469 C373.438,753.368469 374.563,753.368469 375.25,753.090469 C375.938,752.813469 375.375,752.586469 374,752.586469 C372.625,752.586469 372.063,752.813469 372.75,753.090469"/><path fill-opacity=".303" d="M539.321,76.1614692 C539.383,79.0404692 539.779,81.0494692 540.201,80.6274692 C540.624,80.2044692 540.573,77.8494692 540.089,75.3934692 L539.208,70.9284692 L539.321,76.1614692 M526.978,112.428469 C524.49,114.903469 517.599,121.375469 511.664,126.810469 C500.866,136.699469 497.179,140.940469 498.357,142.118469 C498.95,142.711469 501.884,139.847469 523.424,117.642469 C532.451,108.336469 535.32,104.127469 526.978,112.428469 M480,171.459469 C473.659,172.957469 450.517,173.775469 448.285,172.580469 C446.488,171.619469 445.916,171.956469 443.718,175.278469 C441.418,178.754469 441.348,179.164469 442.893,180.129469 C443.821,180.708469 447.037,181.476469 450.04,181.836469 C472.655,184.540469 472,184.370469 472,187.531469 C472,189.124469 472.293,190.428469 472.65,190.428469 C473.008,190.428469 475.145,188.449469 477.4,186.031469 C479.655,183.612469 483.637,179.343469 486.25,176.544469 C488.863,173.745469 491,171.223469 491,170.941469 C491,170.181469 484.021,170.510469 480,171.459469 M346,232.513469 C342.975,234.724469 339.951,236.857469 339.281,237.253469 C338.61,237.649469 336.913,242.394469 335.509,247.796469 C333.081,257.142469 333.025,257.948469 334.353,264.367469 C335.453,269.681469 336.847,272.623469 340.912,278.212469 C345.895,285.062469 359.282,298.428469 361.161,298.428469 C361.665,298.428469 365.612,296.812469 369.932,294.838469 C376.583,291.797469 378.553,290.290469 382.797,284.995469 C389.245,276.947469 393.328,268.932469 392.712,265.530469 C390.61,253.916469 388.358,246.440469 385.489,241.544469 C382.442,236.345469 381.508,235.575469 374.095,232.155469 C367.079,228.917469 365.069,228.432469 358.76,228.460469 C351.885,228.491469 351.208,228.706469 346,232.513469 M587.574,257.221469 C572.626,269.220469 570.906,270.358469 565.362,271.917469 C562.688,272.668469 555.655,274.632469 549.733,276.281469 C543.811,277.929469 536.828,280.593469 534.214,282.201469 C531.601,283.809469 527.184,285.709469 524.398,286.423469 C519.914,287.572469 519.384,287.985469 519.774,290.025469 L520.214,292.330469 L526.357,289.961469 C565.964,274.685469 569.613,273.068469 578,267.087469 C593.249,256.214469 600.115,250.209469 598.802,248.896469 C598.592,248.686469 593.539,252.433469 587.574,257.221469 M422.655,285.534469 C421.745,288.352469 421,292.316469 421,294.344469 C421,297.703469 421.386,298.217469 425.351,300.143469 C429.512,302.165469 429.729,302.491469 430.308,307.593469 C430.641,310.527469 431.615,317.428469 432.473,322.928469 C433.33,328.428469 434.944,339.082469 436.058,346.604469 C438.628,363.959469 445.033,389.261469 446.713,388.695469 C447.38,388.470469 448.173,389.330469 448.475,390.607469 C448.777,391.884469 449.686,395.853469 450.494,399.428469 C451.567,404.169469 451.825,404.710469 451.448,401.428469 C450.772,395.534469 447.305,372.343469 443.599,348.928469 C442.816,343.978469 441.229,333.853469 440.074,326.428469 C438.918,319.003469 437.529,310.756469 436.986,308.102469 C435.01,298.433469 434.993,298.464469 445.254,293.039469 C450.339,290.350469 454.648,288.026469 454.83,287.876469 C455.011,287.725469 454.411,286.459469 453.497,285.064469 C451.653,282.250469 449.943,281.892469 433.905,280.964469 L424.31,280.409469 L422.655,285.534469 M508,299.51746 C505.846,301.279469 505.804,301.414469 507.694,300.490469 C508.901,299.900469 510.165,298.970469 510.503,298.423469 C511.406,296.962469 510.8,297.227469 508,299.51746 M501.441,303.983469 C499.577,305.477469 499.589,305.495469 501.75,304.448469 C502.988,303.848469 504,303.148469 504,302.893469 C504,302.128469 503.481,302.349469 501.441,303.983469 M388,331.928469 C387.282,332.793469 387.185,333.428469 387.771,333.428469 C388.329,333.428469 389.045,332.753469 389.362,331.928469 C389.678,331.103469 389.781,330.428469 389.591,330.428469 C389.401,330.428469 388.685,331.103469 388,331.928469 M452.079,409.011469 C452.127,410.176469 452.364,410.413469 452.683,409.616469 C452.972,408.894469 452.936,408.031469 452.604,407.699469 C452.272,407.367469 452.036,407.957469 452.079,409.011469 M239.321,481.079469 C239.606,482.096469 240.121,489.003469 240.466,496.428469 C241.085,509.794469 241.151,510.094469 247.186,526.672469 C253.914,545.159469 252.184,542.746469 269.822,558.247469 C274.734,562.564469 277.684,564.465469 279.134,564.247469 C280.561,564.032469 282.572,561.635469 285.272,556.928469 C287.481,553.078469 290.722,547.432469 292.475,544.382469 C295.028,539.937469 295.466,538.398469 294.678,536.632469 C293.54,534.082469 293.628,534.090469 284.75,535.808469 L278,537.115469 L278,533.851469 C278,531.020469 278.398,530.510469 281,530.007469 C282.65,529.689469 285.348,529.168469 286.995,528.850469 C289.549,528.356469 290.134,528.651469 290.97,530.850469 C292.353,534.487469 293.121,534.073469 291.835,530.384469 C290.801,527.419469 290.652,527.358469 286.137,528.058469 C277.451,529.404469 277.567,529.456469 276.864,523.928469 C276.514,521.178469 275.807,516.650469 275.292,513.865469 L274.358,508.801469 L278.429,509.822469 C280.668,510.383469 282.557,510.861469 282.626,510.885469 C282.695,510.909469 283.059,511.929469 283.435,513.152469 C284.11,515.350469 284.076,515.358469 280.451,513.843469 C278.434,513.000469 276.577,512.517469 276.325,512.770469 C276.073,513.022469 277.493,513.766469 279.481,514.422469 C281.469,515.078469 283.933,516.514469 284.957,517.612469 C288.185,521.077469 282.596,507.248469 277.683,499.615469 C275.316,495.937469 272.057,490.791469 270.44,488.180469 C268.823,485.568469 267.021,483.431469 266.436,483.430469 C264.169,483.426469 242.438,480.384469 240.671,479.823469 C239.211,479.360469 238.916,479.635469 239.321,481.079469 M608.503,498.607469 C606.992,500.402469 605.053,503.346469 604.193,505.149469 C603.217,507.196469 601.898,508.428469 600.683,508.428469 C598.305,508.428469 577.005,528.240469 568.038,538.792469 L561.576,546.396469 L558.905,543.837469 L556.234,541.278469 L554.562,549.103469 C551.149,565.074469 552.37,563.474469 534,576.044469 C518.866,586.399469 517.112,587.338469 512.817,587.381469 C508.857,587.421469 508.028,587.090469 507.44,585.240469 C506.787,583.181469 506.635,583.255469 504.872,586.490469 L502.998,589.928469 L503.124,582.928469 C503.248,576.091469 502.4,572.731469 497.508,560.678469 C496.559,558.341469 495.437,556.428469 495.014,556.428469 C493.836,556.428469 488.251,572.991469 486.563,581.488469 C485.399,587.345469 475.766,616.437469 474.375,618.294469 C474.224,618.496469 471.183,617.770469 467.617,616.681469 L461.133,614.702469 L449.828,630.627469 C437.295,648.279469 440.013,646.038469 415.5,658.938469 C410.55,661.543469 405.022,664.969469 403.215,666.551469 L399.93,669.428469 L362.074,669.428469 L324.217,669.428469 L323.56,666.678469 C321.57,658.351469 319.417,652.428469 318.38,652.428469 C317.732,652.428469 310.133,656.698469 301.492,661.917469 C292.851,667.136469 283.381,672.780469 280.447,674.458469 L275.113,677.510469 L254.466,677.515469 L233.818,677.520469 L229.412,673.724469 C226.988,671.636469 220.657,665.765469 215.342,660.678469 L205.679,651.428469 L199.59,651.420469 C196.24,651.416469 189.9,651.000469 185.5,650.495469 C181.1,649.990469 170.492,649.257469 161.927,648.866469 L146.354,648.156469 L117.927,657.440469 C102.292,662.547469 88.815,667.310469 87.979,668.024469 C87.142,668.739469 83.092,676.295469 78.979,684.816469 L71.5,700.308469 L55.76,700.368469 L40.019,700.428469 L36.76,704.818469 C32.546,710.493469 11.01,737.278469 4.831,744.531469 L0.057,750.134469 L11.279,750.798469 C17.45,751.163469 27.9,751.894469 34.5,752.423469 C41.1,752.951469 52.125,753.677469 59,754.036469 L71.5,754.688469 L90.5,749.942469 C110.714,744.892469 107.898,746.108469 137.5,729.639469 C141.9,727.191469 147.975,723.830469 151,722.171469 C154.025,720.511469 158.3,718.132469 160.5,716.883469 C162.7,715.634469 168.694,713.610469 173.82,712.386469 L183.139,710.160469 L189.487,717.114469 C195.27,723.451469 196.353,724.185469 201.667,725.375469 C204.875,726.093469 211.1,727.508469 215.5,728.519469 C222.274,730.076469 237.009,733.362469 251,736.435469 C252.925,736.858469 256.92,737.754469 259.877,738.426469 C264.085,739.383469 269.958,739.393469 286.877,738.475469 C307.065,737.379469 308.747,737.139469 312.229,734.864469 C314.279,733.524469 316.157,732.428469 316.401,732.428469 C316.645,732.428469 321.69,729.462469 327.611,725.837469 L338.377,719.246469 L353.438,721.412469 C367.4,723.419469 374.775,724.436469 396.919,727.404469 C401.639,728.037469 406.473,729.311469 407.919,730.303469 C409.339,731.277469 413.2,733.572469 416.5,735.404469 C419.8,737.236469 423.85,739.515469 425.5,740.468469 C456.388,758.312469 455.261,757.719469 466.096,761.854469 L475.693,765.516469 L480.575,780.354469 L485.458,795.192469 L499.647,790.310469 C510.008,786.745469 515.343,785.428469 519.419,785.428469 C522.488,785.428469 525,785.842469 525,786.349469 C525,787.736469 519.42,788.679469 515.852,787.895469 L512.704,787.204469 L518.183,797.566469 L523.662,807.928469 L522.182,826.428469 C520.264,850.405469 520.161,871.470469 521.875,888.928469 C523.197,902.393469 524.643,909.075469 533.619,943.178469 C535.609,950.741469 537.761,959.088469 538.399,961.727469 C539.038,964.367469 539.916,966.530471 540.35,966.530471 C540.784,966.530471 542.786,964.373469 544.8,961.731469 C546.814,959.089469 549.033,956.253469 549.733,955.428469 C551.039,953.887469 556.09,947.237469 571.088,927.314469 C575.811,921.039469 579.93,914.785469 580.242,913.417469 C580.553,912.048469 582.001,906.878469 583.458,901.928469 C589.439,881.619469 592.999,868.244469 592.982,866.149469 C592.972,864.927469 589.883,848.590469 586.116,829.844469 L579.269,795.759469 L572.783,785.844469 C555.92,760.061469 546.68,746.423469 542.288,740.837469 C529.808,724.961469 523,715.567469 523,714.223469 C523,713.412469 524.013,712.309469 525.25,711.771469 C528.546,710.339469 553.166,712.744469 567,715.850469 C587.085,720.359469 612.36,725.586469 616.5,726.088469 C620.498,726.572469 620.506,726.566469 634.487,712.500469 L648.473,698.428469 L662.137,698.428469 L675.8,698.428469 L679.162,701.678469 C681.012,703.466469 688.577,710.328469 695.974,716.928469 C703.371,723.528469 712.365,731.645469 715.961,734.966469 C719.558,738.287469 729.214,745.675469 737.42,751.383469 L752.339,761.762469 L775.235,769.197469 C787.828,773.285469 798.35,776.411469 798.618,776.143469 C799.107,775.654469 796.662,769.775469 782.567,737.550469 L774.966,720.173469 L759.233,700.718469 C750.58,690.017469 742.375,679.646469 741,677.669469 C738.921,674.681469 735.243,672.506469 719.159,664.752469 C708.521,659.624469 699.642,655.428469 699.428,655.428469 C699.213,655.428469 693.99,652.953469 687.821,649.928469 C676.617,644.434469 676.594,644.428469 667.052,644.415469 C658.353,644.403469 645.852,645.002469 605.5,647.362469 C594.45,648.008469 591.079,647.900469 589.5,646.852469 C588.4,646.122469 581.675,639.961469 574.557,633.161469 L561.613,620.798469 L565.807,604.863469 C568.114,596.099469 571.729,582.376469 573.841,574.369469 C576.29,565.086469 578.975,557.476469 581.25,553.369469 C583.213,549.826469 586.707,543.553469 589.014,539.428469 C591.321,535.303469 594.56,529.453469 596.211,526.428469 C597.862,523.403469 599.574,520.478469 600.015,519.928469 C601.621,517.924469 612.12,496.215469 611.691,495.786469 C611.448,495.542469 610.013,496.812469 608.503,498.607469 M485.199,516.928469 C485.199,518.028469 485.56,520.053469 486,521.428469 C486.634,523.408469 486.801,523.512469 486.801,521.928469 C486.801,520.828469 486.44,518.803469 486,517.428469 C485.366,515.448469 485.199,515.344469 485.199,516.928469 M516.557,523.784469 C515,526.613469 511.475,532.878469 508.724,537.705469 C505.972,542.532469 503.896,546.613469 504.11,546.774469 C505.424,547.760469 548.321,563.441469 548.691,563.070469 C548.941,562.820469 546.638,558.456469 543.573,553.372469 C540.508,548.287469 538,543.979469 538,543.797469 C538,543.615469 536.455,541.052469 534.567,538.101469 L531.134,532.734469 L534.476,531.141469 C537.616,529.643469 538.38,529.690469 547.149,531.914469 C552.282,533.215469 556.629,534.132469 556.81,533.951469 C556.991,533.771469 556.564,532.703469 555.862,531.578469 C555.073,530.315469 553.041,529.291469 550.542,528.899469 C544.75,527.989469 527.025,522.668469 524.574,521.103469 C520.106,518.249469 519.488,518.456469 516.557,523.784469 M371,541.928469 C363.59,549.353469 356.763,555.428469 355.829,555.428469 C354.895,555.428469 352.863,555.957469 351.315,556.604469 L348.5,557.779469 L353,558.486469 C355.475,558.874469 360.65,559.664469 364.5,560.242469 C368.35,560.819469 376.17,562.016469 381.878,562.900469 C387.586,563.785469 392.718,564.355469 393.284,564.167469 C393.849,563.978469 387.939,562.273469 380.15,560.376469 L365.989,556.928469 L375.471,542.678469 C380.687,534.841469 384.845,528.428469 384.713,528.428469 C384.581,528.428469 378.41,534.503469 371,541.928469 M395,564.522469 C395,565.020469 395.9,565.428469 397,565.428469 C398.1,565.428469 399,565.255469 399,565.045469 C399,564.834469 398.1,564.426469 397,564.138469 C395.9,563.851469 395,564.023469 395,564.522469 M262.758,628.673469 C261.516,629.967469 259.187,632.578469 257.582,634.477469 C255.977,636.375469 253.052,639.746469 251.082,641.967469 C249.112,644.189469 244.8,649.097469 241.5,652.875469 C238.2,656.653469 233.475,661.992469 231,664.741469 L226.5,669.738469 L230.5,669.003469 C232.7,668.598469 237.425,667.741469 241,667.098469 L247.5,665.928469 L257.243,646.733469 C266.424,628.645469 268.122,623.086469 262.758,628.673469 M414,664.951469 C414,665.497469 422.481,676.920469 424.006,678.428469 C424.284,678.703469 425.859,680.699469 427.506,682.863469 C429.153,685.027469 434.325,691.819469 439,697.955469 C443.675,704.091469 450.605,713.193469 454.399,718.181469 C460.338,725.990469 461.868,727.400469 465.399,728.320469 C470.834,729.735469 492.007,734.679469 504.5,737.450469 C510,738.670469 518.712,740.739469 523.859,742.048469 C529.007,743.357469 533.732,744.412469 534.359,744.393722 C534.987,744.373469 526.05,740.770469 514.5,736.386469 C502.95,732.002469 492.6,728.030469 491.5,727.558469 C490.4,727.087469 488.057,726.077469 486.292,725.314469 C484.528,724.552469 479.17,720.553469 474.386,716.428469 C469.602,712.303469 461.785,705.553469 457.015,701.428469 C452.246,697.303469 444.578,690.778469 439.976,686.928469 C435.373,683.078469 427.646,676.413469 422.804,672.116469 C417.962,667.820469 414,664.595469 414,664.951469 M448.813,758.111469 C449.534,758.400469 450.397,758.364469 450.729,758.032469 C451.061,757.700469 450.471,757.464469 449.417,757.507469 C448.252,757.555469 448.015,757.792469 448.813,758.111469 M563.169,830.105469 C560.263,832.208469 556.478,835.120469 554.757,836.578469 L551.628,839.228469 L556.814,845.214469 C559.666,848.506469 561.996,851.588469 561.99,852.064469 C561.968,854.118469 567.489,870.428469 568.207,870.428469 C568.643,870.428469 569,869.953469 569,869.373469 C569,868.793469 569.93,866.277469 571.066,863.783469 C572.752,860.082469 572.938,858.689469 572.077,856.218469 C571.496,854.553469 570.719,848.181469 570.351,842.059469 C569.982,835.937469 569.404,829.883469 569.066,828.605469 C568.453,826.291469 568.43,826.297469 563.169,830.105469 M559.678,839.974469 C558.125,841.339469 556.368,842.156469 555.773,841.788469 C555.111,841.379469 554.981,841.588469 555.438,842.328469 C556.197,843.556469 559.698,841.857469 562.821,838.745469 C565.171,836.403469 562.589,837.413469 559.678,839.974469 M566.189,845.095469 C566.06,849.995469 566.386,852.390469 567.222,852.669469 C568.177,852.987469 568.185,853.920469 567.254,856.951469 C565.729,861.921469 566.406,862.758469 568.013,857.889469 C568.905,855.186469 568.936,853.651469 568.129,852.072469 C567.527,850.893469 566.886,847.228469 566.706,843.928469 L566.378,837.928469 L566.189,845.095469"/></g></svg>