<svg xmlns="http://www.w3.org/2000/svg" width="1024.104" height="1138.081" viewBox="0 0 1024.104 1138.081"><g fill="#ABABAB" fill-rule="evenodd"><path fill-opacity=".192" d="M368.875,7.25 C368.807,11.238 368.444,24.85 368.068,37.5 C367.386,60.484 367.383,60.511 363.095,76.5 C360.735,85.3 357.894,96.205 356.782,100.733 C354.518,109.944 356.444,108.02 337,120.505 C332.875,123.154 325.225,128.087 320,131.468 C314.775,134.848 309.971,137.931 309.325,138.32 C308.195,138.999 307.869,138.112 303.884,123.5 C303.284,121.3 302.223,117.7 301.526,115.5 C300.829,113.3 299.759,109.7 299.148,107.5 C294.495,90.755 291.648,81.377 291.003,80.673 C290.587,80.218 283.485,92.818 275.222,108.673 C251.183,154.797 246.305,164.952 244.566,172.5 C243.679,176.35 242.327,181.75 241.56,184.5 C240.794,187.25 239.458,192.725 238.591,196.666 C237.724,200.608 236.583,204.966 236.057,206.351 C235.53,207.736 228.381,216.24 220.169,225.249 C206.703,240.023 204.574,242.873 198.449,254.338 C193.575,263.461 191.072,267.157 189.579,267.436 C186.337,268.041 171.046,271.07 165.5,272.206 C161.555,273.014 159.374,274.313 155.16,278.365 L149.821,283.5 L150.52,312.552 L151.219,341.603 L146.924,349.552 C144.562,353.923 140.991,360.532 138.989,364.238 L135.349,370.975 L130.952,361.238 C128.533,355.882 125.169,348.632 123.476,345.126 L120.397,338.753 L119.238,372.849 C118.361,398.644 117.731,407.622 116.647,409.723 C115.859,411.25 114.884,416.55 114.48,421.5 C113.785,430.017 112.458,434.714 107.948,444.615 C106.877,446.966 106,449.129 106,449.42 C106,449.711 104.65,452.897 103,456.5 C101.35,460.103 100,463.293 100,463.589 C100,463.886 98.916,466.499 97.591,469.396 C96.265,472.293 94.721,476.426 94.159,478.582 C92.766,483.925 89.346,505.71 86.009,530.5 C85.565,533.8 84.688,539.65 84.06,543.5 C82.683,551.951 81.497,559.821 79.991,570.5 C79.37,574.9 78.176,582.604 77.337,587.621 L75.81,596.742 L68.917,603.583 C64.759,607.708 61.686,610.042 61.174,609.462 C60.708,608.933 56.99,604.534 52.913,599.686 C48.836,594.838 43.25,588.254 40.5,585.053 C37.75,581.853 32.391,575.582 28.59,571.117 C24.79,566.653 21.339,563 20.921,563 C20.504,563 19.724,564.912 19.189,567.25 C18.654,569.587 16.837,576.9 15.152,583.5 C7.473,613.576 0,644.718 0,646.645 C0,648.057 1.912,650.183 5.75,653.04 C8.912,655.395 11.692,657.479 11.927,657.671 C12.162,657.863 11.098,659.332 9.562,660.935 L6.77,663.849 L7.938,672.675 C10.776,694.12 11.966,703.934 15.041,731.25 C15.614,736.337 16.712,745.225 17.482,751 C18.252,756.775 19.379,766 19.988,771.5 C21.444,784.655 22.795,796.037 24.498,809.5 C25.263,815.55 26.348,824.55 26.909,829.5 C29.23,849.988 30.169,857.909 31.179,865.5 C32.202,873.185 32.145,873.677 29.723,878 C28.336,880.475 21.531,892.336 14.601,904.357 C7.67,916.379 2,926.548 2,926.956 C2,927.637 16.82,929.166 36.5,930.515 C40.9,930.817 46.634,931.332 49.243,931.66 L53.986,932.256 L49.363,940.878 C46.82,945.62 43.223,952.243 41.37,955.596 C39.516,958.949 38,962.207 38,962.837 C38,963.679 51.682,964.051 89.671,964.241 L141.343,964.5 L144.13,972.5 L146.918,980.5 L151.209,980.45 C153.569,980.422 162.475,978.963 171,977.209 C199.329,971.377 202.22,970.869 223.5,967.982 C227.9,967.385 235.325,966.274 240,965.513 C249.153,964.024 259.536,962.491 267.433,961.464 C271.039,960.995 280.854,956.509 303.933,944.782 C321.295,935.96 335.868,928.409 336.318,928.003 C337.03,927.36 341.657,906.11 343.939,893 C344.37,890.525 346.095,881.75 347.772,873.5 C349.448,865.25 351.024,857.375 351.273,856 C351.724,853.508 356.986,827.35 359.096,817.107 C359.708,814.14 360.329,810.765 360.477,809.607 C360.798,807.092 366.346,779.415 368.516,769.5 C369.359,765.65 371.449,755.525 373.161,747 C374.873,738.475 376.461,730.6 376.689,729.5 C377.11,727.472 371.24,715.505 347.015,669 C330.082,636.492 319,614.432 319,613.232 C319,612.259 344.496,600.948 346.613,600.982 C347.225,600.992 353.975,605.391 361.613,610.758 C369.251,616.125 376.625,621.285 378,622.225 C379.375,623.165 382.474,625.33 384.886,627.036 C387.298,628.742 394.048,632.627 399.886,635.67 C405.724,638.713 417.7,644.95 426.5,649.529 C435.3,654.108 444.3,658.149 446.5,658.508 C450.285,659.126 469.532,662.817 480.574,665.042 L485.648,666.065 L484.371,674.782 C483.669,679.577 482.591,687.55 481.976,692.5 C481.361,697.45 480.44,704.237 479.929,707.582 C479.418,710.927 479,715.35 479,717.412 C479,720.504 477.768,722.791 471.948,730.5 C463.051,742.286 462.334,742.908 460.542,740.409 C453.04,729.946 437.709,711.893 436.999,712.685 C436.597,713.133 433.749,720.925 430.67,730 C427.59,739.075 421.641,756.4 417.45,768.5 C406.555,799.954 407.171,796.566 411.536,801.037 L415.235,804.825 L412.49,808.424 L409.746,812.022 L410.912,821.761 C411.554,827.118 412.486,834.875 412.983,839 C413.481,843.125 414.386,851.225 414.994,857 C415.603,862.775 416.727,872.225 417.491,878 C418.256,883.775 419.358,892.888 419.941,898.25 C422.499,921.796 423.223,928.142 424.536,938.5 C425.302,944.55 426.42,954 427.019,959.5 C429.23,979.797 430.115,987.676 431.007,995 C431.51,999.125 432.438,1006.827 433.071,1012.115 L434.222,1021.729 L428.963,1030.615 C426.07,1035.502 422.42,1041.564 420.852,1044.088 C419.283,1046.611 418,1048.98 418,1049.353 C418,1049.726 416.501,1052.386 414.669,1055.265 C408.741,1064.581 402.142,1075.976 401.496,1078.014 C400.917,1079.838 401.333,1080 406.615,1080 C409.777,1080 416.22,1080.424 420.932,1080.943 C425.645,1081.461 435.125,1082.419 442,1083.072 C448.875,1083.724 455.028,1084.46 455.674,1084.707 C456.425,1084.994 454.173,1090.413 449.424,1099.748 C445.341,1107.774 442,1114.939 442,1115.67 C442,1116.753 449,1116.997 479.75,1116.985 C500.512,1116.977 524.753,1117.512 533.618,1118.173 L549.735,1119.375 L554.361,1128.688 C559.333,1138.697 560.017,1139.166 566.601,1137.083 C568.195,1136.578 574.675,1134.985 581,1133.543 C587.325,1132.1 596.1,1129.999 600.5,1128.874 C604.9,1127.749 610.975,1126.433 614,1125.95 C623.837,1124.379 633.385,1122.875 639,1122.013 C643.916,1121.259 653.879,1119.576 675.5,1115.848 C679.35,1115.184 683.4,1114.079 684.5,1113.392 C685.6,1112.705 689.233,1110.648 692.573,1108.822 C695.914,1106.995 708.362,1100.1 720.236,1093.5 L741.826,1081.5 L743.018,1075.5 C743.674,1072.2 744.814,1067.025 745.551,1064 C746.748,1059.085 748.1,1052.513 751.206,1036.5 C752.867,1027.94 754.041,1022.241 758.936,999 C764.767,971.311 764.85,971 766.466,971 C768.352,971 782.953,972.924 785.75,973.542 C787.954,974.028 787.898,974.239 783.015,983.97 C779.82,990.336 778.417,994.139 779.105,994.565 C779.695,994.93 795.578,994.898 814.399,994.495 L848.62,993.762 L851.366,999.881 C853.061,1003.658 854.721,1006 855.703,1006 C856.578,1006 862.515,1004.461 868.897,1002.58 C878.183,999.842 899.809,995.413 908,994.571 C910.611,994.303 924.33,991.885 928.693,990.924 C930.999,990.416 934.238,990 935.89,990 C937.542,990 942.18,988.453 946.197,986.562 C960.596,979.785 985.047,969 986.014,969 C986.556,969 987,968.767 987,968.482 C987,968.197 987.943,964.484 989.097,960.232 C990.25,955.979 992.241,948.45 993.522,943.5 C994.803,938.55 996.58,931.8 997.471,928.5 C999.21,922.058 1005.554,898.096 1010.047,881 C1011.564,875.225 1014.01,866 1015.48,860.5 C1016.951,855 1018.75,848.25 1019.477,845.5 C1020.204,842.75 1021.543,837.8 1022.452,834.501 L1024.104,828.502 L1018.76,823.501 C1015.82,820.75 1004.157,809.81 992.842,799.188 C981.527,788.567 971.309,779.204 970.135,778.382 C967.557,776.576 967.476,774.344 969.426,758.838 C970.21,752.602 971.345,742.325 971.948,736 C974.753,706.579 976.253,692.124 979.068,667.383 C980.222,657.244 980.357,620.363 979.378,583 L978.736,558.5 L975.516,551.5 C961.071,520.097 956.01,509.568 952.447,503.5 C950.186,499.65 947.186,494.475 945.779,492 C938.972,480.023 932.589,469.242 930.886,466.846 C929.849,465.386 929,463.972 929,463.704 C929,463.436 923.383,453.629 916.517,441.91 C909.651,430.19 903.914,420.305 903.767,419.942 C903.62,419.58 897.377,414.955 889.893,409.666 C882.409,404.377 875.809,399.474 875.226,398.772 C874.454,397.842 875.356,394.243 878.554,385.498 L882.942,373.5 L882.958,356.5 C882.967,347.15 883.511,325.668 884.166,308.762 C884.821,291.856 885.06,277.726 884.697,277.363 C883.736,276.402 879.32,279.726 849.481,303.866 L836.668,314.233 L818.146,312.866 L799.623,311.5 L796.429,302 C793.402,292.997 789.594,280.716 786.876,271.186 C785.386,265.963 786.211,263.205 792.408,252.681 C794.734,248.731 798.804,241.45 801.452,236.5 C804.1,231.55 806.524,227.056 806.838,226.514 C807.592,225.213 807.248,220.541 805.55,209 C804.781,203.775 803.643,195.45 803.021,190.5 C801.295,176.751 800.22,168.535 798.572,156.5 C797.744,150.45 796.602,141.787 796.033,137.25 C793.898,120.203 792.737,113.001 792.128,113.036 C791.782,113.056 788.575,115.332 785,118.094 C762.119,135.77 748.04,145.885 745,146.832 C741.959,147.779 732.304,150.437 722.5,153.027 C720.85,153.463 716.267,154.701 712.316,155.778 L705.131,157.737 L704.462,153.618 C703.893,150.111 702.208,147.867 693.113,138.5 C687.24,132.45 677.949,122.55 672.467,116.5 C666.985,110.45 662.175,105.354 661.778,105.176 C661.382,104.998 656.668,101.511 651.304,97.426 C645.94,93.342 641.086,90 640.517,90 C639.676,90 626.23,98.171 602.5,113.105 C600.85,114.143 599.191,114.994 598.814,114.996 C598.193,115 594.606,108.906 584.983,91.5 C583.159,88.2 579.716,82.2 577.333,78.167 C574.95,74.134 573,70.591 573,70.294 C573,69.997 570.975,66.418 568.5,62.341 C566.025,58.265 564,54.708 564,54.437 C564,53.692 551.771,32.884 551.527,33.214 C550.906,34.051 538.655,54.424 537.647,56.296 C532.889,65.136 517.64,90 516.976,90 C515.402,90 496.483,79.767 494.126,77.641 C491.788,75.532 484.825,67.226 476,56.018 C461.584,37.709 461.493,37.619 454.839,35.094 C451.353,33.771 446.25,31.668 443.5,30.42 C438.208,28.018 408.751,15.616 404.501,14 C403.122,13.476 399.995,12.136 397.552,11.024 C395.109,9.911 392.873,9 392.584,9 C392.296,9 389.676,7.91 386.762,6.577 C379.688,3.341 371.154,0 369.963,0 C369.433,0 368.944,3.262 368.875,7.25 M149.684,567.151 C150.286,567.893 151.103,571.809 151.501,575.854 L152.224,583.208 L155.582,577.354 C159.384,570.725 159.473,570.41 157.75,569.698 C157.063,569.414 154.72,568.421 152.546,567.492 C149.694,566.274 148.896,566.178 149.684,567.151 M302.625,580.125 C302.281,581.844 302,585.532 302,588.321 L302,593.392 L305.25,590.35 C307.038,588.677 310.188,586.06 312.25,584.535 C316.203,581.613 317.195,579.535 314.25,580.349 C313.288,580.614 310.421,581.113 307.881,581.458 C303.351,582.071 303.271,582.034 303.747,579.542 C304.015,578.144 304.012,577 303.742,577 C303.471,577 302.969,578.406 302.625,580.125 M268.5,611 C268.84,611.55 269.568,612 270.118,612 C270.668,612 270.84,611.55 270.5,611 C270.16,610.45 269.432,610 268.882,610 C268.332,610 268.16,610.45 268.5,611 M169.5,614 C170.495,615.1 171.535,616 171.81,616 C172.085,616 171.495,615.1 170.5,614 C169.505,612.9 168.465,612 168.19,612 C167.915,612 168.505,612.9 169.5,614 M185.631,620.736 C185.284,622.806 184.737,625.46 184.414,626.634 C183.828,628.765 183.837,628.764 191.623,626.239 L199.419,623.711 L194.04,621.337 C191.082,620.032 188.121,618.515 187.461,617.967 C186.575,617.232 186.095,617.959 185.631,620.736 M803.051,656.421 C807.772,662.995 811.82,666.646 812.462,664.909 C813.429,662.292 815.978,653.506 815.989007,652.75 C815.995,652.337 812.372,652 807.938,652 L799.876,652 L803.051,656.421"/><path fill-opacity=".762" d="M369.049,29.878 C368.131,51.336 367.284,61.567 365.976,67 C364.135,74.641 356.552,103.867 355.467,107.5 C355.138,108.6 352.761,110.886 350.185,112.581 C344.096,116.585 334.328,122.928 319.769,132.333 L308.037,139.911 L305.479,131.205 C304.072,126.417 302.228,120.025 301.38,117 C300.533,113.975 299.433,110.375 298.936,109 C298.439,107.625 296.863,102.225 295.434,97 C294.004,91.775 292.359,85.782 291.778,83.681 L290.722,79.863 L283.871,93.034 C280.103,100.278 270.024,119.996 261.474,136.852 C245.072,169.184 245.672,167.589 239.997,194 C236.913,208.354 236.748,208.611 217.867,228.578 C208.078,238.929 204.671,243.307 201.522,249.578 C199.334,253.935 196.237,259.802 194.639,262.615 C191.735,267.727 191.73,267.73 184.617,268.988 C180.703,269.681 174.96,270.867 171.856,271.624 C168.751,272.381 165.136,273 163.821,273 C162.255,273 159.591,274.863 156.087,278.412 L150.742,283.824 L151.475,312.681 L152.208,341.538 L148.685,347.549 C146.748,350.854 142.877,358.045 140.083,363.529 C137.29,369.013 135.003,372.95 135.002,372.278 C135.001,371.606 132.966,366.762 130.481,361.513 C127.995,356.264 124.748,349.389 123.265,346.235 L120.568,340.5 L119.957,373 C119.379,403.758 119.229,405.726 117.173,409.71 C115.52,412.912 115,415.683 115,421.283 C115,429.25 115.61,427.443 100.755,463.5 C96.392,474.09 93.774,482.036 93.012,487 C91.638,495.951 90.511,503.689 89.005,514.5 C88.392,518.9 87.269,526.325 86.51,531 C85.026,540.142 83.792,548.538 81.953,562 C81.315,566.675 80.198,573.875 79.471,578 C78.744,582.125 77.867,587.975 77.521,591 C76.937,596.124 76.438,596.961 70.224,603.25 C66.555,606.962 63.005,610 62.334,610 C61.664,610 58.952,607.447 56.308,604.326 C53.663,601.205 48.125,594.745 44,589.97 C39.875,585.194 33.15,577.395 29.056,572.638 C24.962,567.881 21.287,564.328 20.891,564.744 C20.495,565.16 17.632,575.85 14.53,588.5 C11.428,601.15 8.28,613.975 7.536,617 C6.792,620.025 5.448,625.2 4.549,628.5 C3.651,631.8 2.495,636.525 1.981,639 C1.467,641.475 0.777,644.444 0.446,645.598 C-0.041,647.302 1.102,648.683 6.521,652.942 L13.195,658.187 L10.49,661.011 C7.952,663.66 7.824,664.226 8.423,670.167 C9.244,678.312 10.741,690.758 12.493,704 C13.256,709.775 14.351,718.775 14.926,724 C17.048,743.309 18.164,752.743 19.479,762.5 C20.22,768 21.341,777.225 21.97,783 C22.598,788.775 23.515,796.875 24.007,801 C24.499,805.125 25.399,812.775 26.006,818 C26.614,823.225 27.737,832.45 28.502,838.5 C33.227,875.847 33.208,873.232 28.811,880.565 C26.854,883.829 24.135,888.525 22.769,891 C21.402,893.475 16.154,902.7 11.107,911.5 L1.93,927.5 L8.215,927.749 C11.672,927.886 20.915,928.674 28.755,929.499 C36.595,930.325 45.483,931 48.505,931 C51.662,931 54,931.445 54,932.046 C54,933.069 48.229,944.297 41.304,956.75 L37.828,963 L89.692,963 L141.556,963 L143.947,970.539 C147.269,981.017 147.591,981.357 153.036,980.135 C157.41,979.153 177.064,975.228 182,974.35 C183.375,974.106 186.075,973.526 188,973.061 C189.925,972.596 195.1,971.693 199.5,971.053 C203.9,970.414 211.325,969.265 216,968.5 C220.675,967.735 228.1,966.604 232.5,965.986 C274.192,960.128 268.281,961.954 304.726,943.669 L336.952,927.502 L337.598,923.001 C337.953,920.525 339.113,914.45 340.176,909.5 C341.239,904.55 342.506,898.25 342.99,895.5 C344.103,889.187 347.665,871.354 348.932,865.752 C349.461,863.413 351.982,850.7 354.534,837.5 C360.182,808.291 363.816,789.834 364.97,784.5 C365.446,782.3 366.321,778.025 366.914,775 C367.507,771.975 368.963,764.775 370.148,759 C372.768,746.235 373.495,742.449 374.987,733.79 L376.144,727.081 L358.944,693.29 C349.485,674.706 340.73,657.7 339.488,655.5 C333.513,644.908 317.951,613.648 318.233,612.802 C318.408,612.276 322.59,610.141 327.526,608.057 C332.462,605.974 338.827,603.264 341.67,602.035 L346.84,599.8 L368.17,614.726 C385.985,627.192 393.95,631.967 416.5,643.696 C440.243,656.046 444.405,657.884 451,658.936 C455.125,659.593 460.075,660.5 462,660.949 C463.925,661.399 470.1,662.603 475.723,663.625 L485.947,665.482 L485.51,668.991 C483.622,684.163 482.889,689.879 481.593,699.5 C480.778,705.55 479.82,713.155 479.465,716.399 C478.874,721.794 478.174,723.142 471.265,732.18 C467.11,737.614 463.356,742.28 462.924,742.547 C462.491,742.815 456.939,736.533 450.587,728.587 C444.234,720.642 438.636,713.893 438.147,713.591 C437.217,713.016 435.781,716.428 431.659,729 C429.369,735.985 414.229,779.909 410.633,790 C408.405,796.252 408.526,796.93 412.618,801.12 L416.235,804.825 L413.618,808.257 C410.512,812.329 410.308,816.175 412.428,830.71 C413.213,836.094 414.352,845.225 414.959,851 C415.566,856.775 416.48,864.875 416.991,869 C417.503,873.125 418.404,881 418.996,886.5 C419.587,892 420.698,901.45 421.464,907.5 C422.777,917.858 423.501,924.204 426.059,947.75 C426.642,953.112 427.744,962.225 428.509,968 C429.273,973.775 430.394,983.225 430.999,989 C431.604,994.775 432.521,1002.65 433.036,1006.5 C434.871,1020.217 434.678,1022.088 430.767,1028.562 C423.013,1041.396 403.036,1075.744 402.476,1077.203 C401.976,1078.506 403.735,1078.929 413.691,1079.904 C420.186,1080.541 429.636,1081.497 434.692,1082.03 C439.747,1082.564 446.272,1083.007 449.192,1083.015 C458.461,1083.042 458.46,1083.004 449.805,1100.363 L442.11,1115.796 L482.305,1116.396 C504.412,1116.726 528.614,1117.264 536.086,1117.592 L549.672,1118.188 L554.546,1128.094 C557.227,1133.542 559.764,1138 560.184,1138 C560.604,1138 564.447,1137.127 568.724,1136.06 C586.227,1131.694 593.65,1129.915 596.43,1129.418 C598.041,1129.131 599.728,1128.668 600.177,1128.391 C601.368,1127.654 628.545,1122.916 654.5,1118.92 C658.35,1118.328 664.593,1117.203 668.373,1116.421 C672.153,1115.64 676.675,1115 678.423,1115 C680.17,1115 682.027,1114.588 682.55,1114.085 C683.072,1113.582 687.55,1110.966 692.5,1108.272 C697.45,1105.578 707.8,1099.828 715.5,1095.495 C723.2,1091.161 732.2,1086.173 735.5,1084.411 L741.5,1081.206 L745.206,1062.853 C747.244,1052.759 749.606,1041.35 750.455,1037.5 C752.074,1030.154 754.931,1016.257 755.697,1012 C755.945,1010.625 757.208,1004.55 758.503,998.5 C759.799,992.45 761.64,983.543 762.595,978.706 C763.878,972.208 764.682,970.048 765.678,970.43 C766.419,970.714 770.057,971.204 773.763,971.518 C777.468,971.832 782.403,972.32 784.73,972.603 L788.96,973.117 L783.98,983.04 C781.241,988.498 779,993.197 779,993.482 C779,993.767 794.862,994.002 814.25,994.004 L849.5,994.007 L851.296,998.376 C854.637,1006.502 854.361,1006.392 864.002,1003.45 C877.573,999.309 881.883,998.267 892.5,996.555 C907.192,994.187 914.603,992.943 923,991.433 C927.125,990.692 932.75,989.774 935.5,989.394 C938.25,989.014 944.665,986.745 949.756,984.351 C954.847,981.958 959.208,980 959.447,980 C959.686,980 963.621,978.251 968.191,976.112 C972.761,973.974 978.815,971.239 981.645,970.034 L986.791,967.844 L988.909,959.172 C990.074,954.402 992.112,946.45 993.438,941.5 C994.763,936.55 996.98,928.225 998.364,923 C999.749,917.775 1001.84,909.9 1003.013,905.5 C1006.52,892.335 1010.064,878.934 1012.004,871.5 C1013.008,867.65 1014.795,860.9 1015.975,856.5 C1017.154,852.1 1019.208,844.272 1020.539,839.104 C1021.87,833.936 1023.153,829.513 1023.40097,829.276 C1023.628,829.038 1019.612,824.942 1014.465,820.172 C1009.319,815.402 997.045,804.021 987.192,794.879 C977.338,785.738 968.733,778.078 968.069,777.856 C967.143,777.548 967.102,775.474 967.893,768.977 C968.46,764.315 969.424,755.1 970.034,748.5 C970.644,741.9 971.755,731.1 972.502,724.5 C973.25,717.9 974.357,707.325 974.964,701 C975.57,694.675 976.486,685.45 977,680.5 C977.513,675.55 978.467,666.36 979.12,660.078 C980.048,651.14 980.02,638.751 978.989,603.106 L977.671,557.555 L971.946,545.028 C963.713,527.012 956.126,510.738 955.149,509 C952.441,504.183 919.079,447.286 915.407,441.223 C912.983,437.221 911,433.712 911,433.425 C911,433.138 909.425,430.442 907.5,427.433 C905.575,424.423 904,421.574 904,421.101 C904,420.628 897.25,415.452 889,409.599 C880.75,403.746 874.004,398.404 874.009,397.728 C874.013,397.053 875.785,391.493 877.946,385.374 L881.875,374.248 L882.937,328.385 C883.522,303.16 884,281.196 884,279.574 L884,276.626 L881.25,279.142 C879.737,280.526 877.323,282.523 875.884,283.579 C872.718,285.904 854.252,300.651 848,305.848 C837.271,314.765 838.581,314.377 821.634,313.67 C813.31,313.322 804.831,312.749 802.791,312.395 L799.083,311.752 L795.093,299.626 C792.899,292.957 789.712,282.643 788.01,276.706 L784.916,265.913 L788.058,259.706 C789.787,256.293 791.55,253.05 791.977,252.5 C792.404,251.95 796.001,245.506 799.97,238.179 L807.186,224.858 L806.023,216.179 C805.384,211.406 804.238,203.225 803.476,198 C802.715,192.775 801.598,184.45 800.995,179.5 C799.148,164.352 796.3,143.002 793.965,126.807 C793.434,123.126 793,118.486 793,116.495 L793,112.876 L788.75,116.01 C786.413,117.735 780.45,122.297 775.5,126.15 C758.095,139.696 748.093,147 746.947,147 C746.31,147 742.124,148.08 737.645,149.4 C725.406,153.006 706.653,158.002 705.358,158.001 C704.73,158 703.83,155.991 703.358,153.536 C702.586,149.52 700.442,146.901 682,127.439 C667.368,111.997 658.515,103.563 651.071,97.97 C639.191,89.044 641.588,89.098 628.5,97.463 C608.164,110.461 598.593,115.993 597.81,115.203 C597.427,114.816 595.366,111.35 593.229,107.5 C580.568,84.685 564.37,55.975 562.35,52.77 C561.058,50.718 560,48.772 560,48.445 C560,48.117 558.139,44.717 555.864,40.887 L551.727,33.925 L546.508,42.712 C543.638,47.546 536.012,60.388 529.562,71.25 C523.112,82.112 517.59,91 517.292,91 C516.993,91 511.645,88.278 505.408,84.951 C492.982,78.323 494.471,79.828 468.849,47.99 L461.199,38.483 L444.849,31.584 C435.857,27.789 424.225,22.899 419,20.717 C413.775,18.534 407.612,15.905 405.305,14.874 C402.998,13.843 400.855,13 400.544,13 C400.233,13 398.071,12.117 395.739,11.037 C393.408,9.958 386.734,7.09 380.908,4.665 L370.317,0.256 L369.049,29.878 M284.5,348.396 C272.365,353.727 234.679,372.013 235.092,372.37 C235.316,372.564 248.662,373.013 264.75,373.369 L294,374.015 L294,370.844 C294,369.099 293.225,363.628 292.277,358.684 C290.966,351.843 290.132,349.586 288.788,349.234 C287.817,348.98 287.269,348.374 287.57,347.886 C288.257,346.775 288.15,346.793 284.5,348.396 M126.211,537.5 C128.085,541.35 130.143,545.625 130.783,547 C131.923,549.449 131.935,549.439 131.368,546.5 C130.67,542.881 126.382,534.082 124.301,532 C123.477,531.175 124.336,533.65 126.211,537.5 M273,539 C271.625,539.463 266,541.037 260.5,542.497 C245.635,546.443 246.179,546.025 251.191,549.637 C253.561,551.345 258.801,555.275 262.835,558.371 C266.87,561.467 270.484,564 270.868,564 C271.251,564 273.3,558.712 275.421,552.25 C277.542,545.788 279.488,539.938 279.746,539.25 C280.283,537.817 276.887,537.691 273,539 M181.682,556.927 L174.865,557.5 L187.675,566.901 C194.72,572.072 201.116,576.347 201.887,576.401 C202.727,576.46 205.216,572.389 208.093,566.25 L212.897,556 L200.698,556.177 C193.989,556.274 185.432,556.611 181.682,556.927 M144,565.851 C144,567.419 144.404,570.006 144.897,571.601 C145.391,573.195 146.367,577.783 147.066,581.795 C147.766,585.808 148.626,589.269 148.978,589.487 C149.571,589.853 160,571.072 160,569.639 C160,569.288 159.557,569 159.016,569 C158.475,569 155.245,567.65 151.839,566 C148.432,564.35 145.275,563 144.823,563 C144.37,563 144,564.283 144,565.851 M301.539,579.978 C301.138,587.219 301.085,593.418 301.42,593.754 C301.756,594.089 303.486,593.018 305.265,591.373 C307.044,589.728 311.65,585.849 315.5,582.752 C319.35,579.655 324.28,575.582 326.456,573.699 L330.412,570.277 L323.582,569.088 C319.825,568.433 313.493,567.654 309.509,567.355 L302.267,566.812 L301.539,579.978 M246.512,604.75 C246.176,607.362 245.473,611.387 244.95,613.693 C243.944,618.133 243.689,623 244.463,623 C245.547,623 271.938,612.214 272.904,611.376 C273.125,611.184 271.55,610.305 269.404,609.424 C267.257,608.543 261.562,606.062 256.749,603.911 C251.935,601.76 247.8,600 247.56,600 C247.319,600 246.848,602.138 246.512,604.75 M164,605.324 C164,605.556 164.877,607.715 165.948,610.123 C167.717,614.096 179.436,627 180.317,625.943 C180.52,625.699 176.931,620.866 172.343,615.201 C167.754,609.537 164,605.092 164,605.324 M185.213,617.75 C184.556,621.462 183.724,625.563 183.364,626.861 C182.744,629.095 182.892,629.184 186.104,628.51 C188.91,627.92 197.343,625.494 203.943,623.377 C204.816,623.097 201.852,620.561 196.443,616.959 C191.525,613.684 187.254,611.003 186.954,611.002 C186.653,611.001 185.87,614.038 185.213,617.75 M799,651.805 C799,652.785 811.112,667 811.947,667 C812.506,667 817.032,653.367 817.01008,651.75 C817.004,651.337 812.95,651 808,651 C803.05,651 799,651.362 799,651.805 M773.079,930.583 C773.127,931.748 773.364,931.985 773.683,931.188 C773.972,930.466 773.936,929.603 773.604,929.271 C773.272,928.939 773.036,929.529 773.079,930.583"/><path fill-opacity=".205" d="M452,38.655 C450.075,38.839 443.775,39.642 438,40.441 C432.225,41.239 421.65,42.657 414.5,43.592 C404.866,44.852 399.817,46.053 395,48.232 C391.425,49.849 384.225,52.997 379,55.228 C373.775,57.458 369.183,59.559 368.796,59.896 C368.176,60.435 361.075,86.602 358.997,96 C355.928,109.886 356.213,109.302 350.709,113 C347.844,114.925 345.071,116.681 344.546,116.901 C344.021,117.122 343.121,117.704 342.546,118.194 C341.971,118.685 339.025,120.622 336,122.5 C332.975,124.378 330.05,126.291 329.5,126.751 C328.95,127.211 325.575,129.363 322,131.534 C318.425,133.706 315.275,135.763 315,136.107 C314.725,136.45 312.475,137.752 310,139 C307.525,140.248 305.275,141.553 305,141.901 C304.725,142.249 303.447,143.208 302.159,144.033 C300.234,145.266 298.248,145.372 290.969,144.629 L282.118,143.727 L269.309,151.2 C262.264,155.311 254.597,159.725 252.271,161.01 C249.355,162.62 247.762,164.301 247.141,166.423 C245.16,173.194 242.939,181.971 240.922,191 C239.754,196.225 238.414,202.022 237.943,203.883 L237.088,207.266 L239.674,204.883 C241.097,203.572 250.921,193.05 261.506,181.5 C282.545,158.544 288.693,152.396 287.633,155.378 C287.265,156.411 286.26,160.686 285.4,164.878 C284.539,169.07 282.511,178.125 280.894,185 C279.277,191.875 277.496,199.833 276.938,202.684 C275.765,208.675 273.043,211.541 245.5,235.792 C236.7,243.54 226.355,252.778 222.511,256.319 L215.522,262.759 L221.011,263.779 C232.394,265.894 239.826,267 242.661,267 C245.289,267 274.137,256.542 292.5,248.932 C293.6,248.476 301.25,245.557 309.5,242.444 C324.167,236.911 329.811,234.765 343,229.707 C346.575,228.336 356.25,224.668 364.5,221.556 C372.75,218.443 380.4,215.473 381.5,214.954 C382.6,214.436 387.55,212.493 392.5,210.637 C397.45,208.78 402.288,206.929 403.25,206.524 C406.28,205.247 405.079,207.389 401.212,210.159 C399.17,211.622 392.927,216.347 387.338,220.659 C381.75,224.972 370.13,233.9 361.517,240.5 C352.905,247.1 342.177,255.339 337.679,258.81 C320.84,271.801 306.671,282.576 303.389,284.885 C299.344,287.732 299.248,288.26 302.466,289.982 C303.822,290.708 304.714,291.653 304.448,292.084 C304.182,292.514 298.46,295.907 291.732,299.625 C285.005,303.342 278.15,307.203 276.5,308.205 L273.5,310.027 L279.5,309.551 C282.8,309.29 290.191,308.612 295.924,308.045 C301.657,307.478 306.491,307.158 306.667,307.333 C306.842,307.509 303.726,309.167 299.743,311.019 C281.291,319.595 282.33,318.819 262.559,338.804 C252.141,349.335 243.428,357.761 243.196,357.529 C242.964,357.298 245.58,352.246 249.009,346.304 C252.439,340.362 256.142,333.925 257.239,332 C258.336,330.075 260.081,327.306 261.117,325.846 C262.153,324.386 263,322.899 263,322.543 C263,322.186 264.125,320.238 265.5,318.215 C266.875,316.191 268,314.204 268,313.798 C268,313.393 264.273,315.86 259.718,319.28 C255.162,322.701 249.875,326.571 247.968,327.879 C246.06,329.188 238.529,337.063 231.232,345.379 C211.457,367.917 205.419,374.682 197.211,383.5 L189.765,391.5 L190.314,373 C190.616,362.825 191.372,342.206 191.995,327.18 C192.914,305.019 192.884,299.565 191.836,298.302 C190.785,297.036 180.043,288.487 163.461,275.722 L161.151,273.943 L160.543,279.722 C159.413,290.471 155.532,319.992 153.984,329.615 C153.443,332.979 153,337.289 153,339.193 C153,342.685 142.788,363.155 138.846,367.564 C136.622,370.052 136.495,373.123 138.46,376.923 C139.263,378.476 139.737,379.93 139.513,380.154 C139.289,380.378 141.293,386.968 143.966,394.8 L148.826,409.038 L146.163,410.396 C144.698,411.143 137.875,414.136 131,417.048 C124.125,419.96 118.339,422.464 118.141,422.613 C117.944,422.762 120.343,426.848 123.472,431.692 C139.303,456.198 141.737,460.299 141.358,461.835 C135.683,484.889 132.953,495.38 132.518,495.815 C132.222,496.112 130.705,495.134 129.148,493.642 C126.94,491.526 124.909,486.633 119.914,471.392 C112.577,449.01 112.124,448.96 111.75,470.5 C111.589,479.732 112.056,484.922 113.774,493 C115.002,498.775 116.442,505.75 116.974,508.5 C119.106,519.532 120.239,524.03 121.005,524.503 C121.447,524.776 123.489,528.262 125.543,532.25 C130.632,542.13 130.457,541.92 139.855,549.385 C147.083,555.126 148.733,556.002 152.342,556.015 C154.629,556.024 156.958,556.361 157.517,556.765 C159.169,557.958 160.986,566.312 159.883,567.641 C159.247,568.407 159.308,568.936 160.06,569.187 C160.779,569.426 160.053,571.518 158.102,574.828 C156.396,577.721 155,580.273 155,580.5 C155,580.727 153.65,583.202 152,586 L149,591.088 L155.482,599.053 C159.048,603.433 162.709,608.152 163.618,609.54 C165.848,612.943 166.536,611.938 164.574,608.143 C160.709,600.668 163.943,603.533 173.3,615.872 C177.316,621.167 180.98,626.4 181.442,627.5 C182.371,629.708 182.573,629.081 185.069,616.215 C185.74,612.758 186.561,610.058 186.894,610.215 C189.77,611.569 205,622.261 205,622.926 C205,623.397 203.763,624.083 202.25,624.449 C194.307,626.371 185.998,629.189 186.392,629.825 C186.638,630.224 190.701,631.432 195.42,632.511 C200.139,633.59 204,634.703 203.999,634.986 C203.998,635.646 197.593,646.317 181.638,672.241 C170.802,689.847 168.042,693.626 163.382,697.241 L157.891,701.5 L158.547,707.5 C158.907,710.8 159.568,713.889 160.016,714.364 C160.463,714.84 164.805,715.638 169.664,716.138 C184.044,717.618 214.407,721.179 215.644,721.531 C216.438,721.756 216.544,723.181 215.992,726.178 C215.554,728.555 214.688,734.325 214.067,739 C212.259,752.618 210.959,761.868 209.497,771.5 C207.002,787.949 206.083,794.415 204.882,804 C204.227,809.225 203.175,816.2 202.543,819.5 L201.396,825.5 L198.837,821 C197.43,818.525 194.876,814.025 193.162,811 L190.044,805.5 L190.022,867.55 C190.007,909.642 190.338,929.938 191.052,930.652 C191.787,931.387 189.908,931.941 184.802,932.495 C171.201,933.969 172.212,934.306 166.807,926.5 C164.142,922.65 161.615,919.382 161.193,919.238 C160.513,919.005 155.889,928.563 151.493,939.29 C150.638,941.375 149.507,942.813 148.978,942.486 C148.449,942.159 141.675,942.393 133.924,943.006 C120.893,944.036 119.631,943.984 117.166,942.31 C115.02,940.853 111.792,940.402 100.621,940 L86.742,939.5 L79.121,920.77 C74.929,910.469 71.201,902.031 70.836,902.02 C70.471,902.009 68.499,905.038 66.454,908.75 C64.409,912.463 61.854,916.969 60.778,918.763 L58.82,922.027 L55.021,919.892 C51.527,917.928 50.716,916.539 44.938,902.628 C41.482,894.308 38.342,887.05 37.96,886.5 C37.577,885.95 36.494,883.137 35.552,880.25 C34.61,877.362 33.498,875 33.082,875 C32.416,875 19.121,897.542 10.671,913 C9.017,916.025 6.582,920.23 5.26,922.344 C3.937,924.459 3.001,926.309 3.178,926.457 C3.837,927.004 25.976,929.176 39.902,930.059 C47.824,930.561 54.51,931.176 54.76,931.426 C55.01,931.677 53.875,934.271 52.237,937.191 C47.104,946.342 39,961.776 39,962.402 C39,962.731 62.14,963 90.422,963 L141.845,963 L142.992,966.75 C144.257,970.886 145.044,972.961 147.114,977.623 L148.5,980.747 L165,977.351 C174.075,975.483 182.805,973.764 184.401,973.531 C185.997,973.298 189.372,972.64 191.901,972.068 C196.791,970.963 209.345,968.906 222.5,967.054 C226.9,966.435 233.65,965.484 237.5,964.942 C241.35,964.399 248.325,963.315 253,962.533 C257.675,961.75 263.811,960.852 266.635,960.536 C270.273,960.129 275.809,957.895 285.635,952.869 C293.261,948.967 307.938,941.498 318.25,936.271 C331.969,929.316 337,926.289 337,924.991 C337,923.023 340.094,906.36 342.476,895.5 C344.302,887.176 346.818,874.451 348.014,867.5 C348.486,864.75 350.252,855.75 351.938,847.5 C353.623,839.25 355.434,830.25 355.963,827.5 C356.491,824.75 357.622,819.125 358.475,815 C359.948,807.873 365.676,779.321 366.699,774 C366.963,772.625 368.552,764.75 370.228,756.5 C371.905,748.25 373.641,739.342 374.085,736.705 C374.53,734.068 375.17,731.039 375.508,729.975 C375.931,728.642 370.612,717.21 358.43,693.27 C348.699,674.146 339.718,656.7 338.472,654.5 C337.226,652.3 331.863,641.959 326.555,631.52 L316.903,612.54 L321.702,610.323 C330.845,606.097 345.505,600.005 346.534,600.002 C347.57,600 355.489,605.277 370.5,615.972 C386.081,627.073 391.579,630.641 398.5,634.14 C402.35,636.086 413.825,641.974 424,647.223 C441.831,656.421 444.746,657.484 459,659.992 C462.575,660.621 467.3,661.531 469.5,662.015 C471.7,662.498 475.075,663.15 477,663.464 C478.925,663.778 481.695,664.278 483.155,664.576 C485.654,665.085 485.873,664.819 486.905,660.009 C487.507,657.2 488,653.548 488,651.893 C488,650.239 488.424,645.874 488.942,642.193 C490.338,632.275 491.778,620.752 493.027,609.5 C494.913,592.5 495.894,589.254 510.713,551 C512.097,547.425 513.476,544.088 513.777,543.584 C514.077,543.081 518.413,559.03 523.411,579.027 L532.5,615.384 L539.75,620.242 L547,625.101 L547,655.109 C547,672.757 547.373,684.888 547.905,684.559 C548.896,683.946 548.664,687.035 546.516,703 C545.248,712.432 544.46,718.76 542.437,735.75 C542.094,738.638 541.42,741 540.941,741 C540.462,741 538.142,740.381 535.785,739.625 C530.836,738.038 513.797,732.796 496.5,727.539 C489.9,725.533 483.488,723.476 482.25,722.968 C481.012,722.459 480.003,722.371 480.006,722.771 C480.013,723.528 481.119,724.211 492.038,730.21 C495.634,732.186 500.942,735.197 503.832,736.901 C506.723,738.606 509.28,740 509.515,740 C509.75,740 513.368,742.025 517.554,744.5 C521.74,746.975 525.337,749 525.546,749 C525.755,749 531.391,752.15 538.07,756 C544.749,759.85 550.371,763 550.563,763 C550.755,763 553.093,764.286 555.759,765.858 C558.424,767.429 562.831,769.952 565.553,771.463 C568.274,772.974 573.223,775.727 576.552,777.581 L582.604,780.951 L608.917,781.725 L635.231,782.5 L628.35,790.5 C624.566,794.9 618.551,802.013 614.985,806.306 C611.418,810.599 606.25,816.751 603.5,819.978 C600.75,823.205 596.025,828.846 593,832.513 C588.905,837.479 584.999,840.739 577.709,845.278 L567.917,851.374 L568.209,857.937 L568.5,864.5 L572.5,864.73 C576.528,864.963 593.157,866.93 613.5,869.581 C619.55,870.369 626.3,871.042 628.5,871.077 C636.47,871.203 637.014,868.127 619.97,919.275 C611.398,945.002 604.072,965.739 603.692,965.359 C603.311,964.978 603,992.378 603,1026.247 L603,1087.827 L600.25,1087.083 C597.323,1086.292 595.17,1086.687 585.237,1089.838 L578.974,1091.825 L571.275,1083.412 C567.04,1078.786 563.283,1075 562.926,1075 C562.568,1075 560.751,1080.21 558.888,1086.577 L555.5,1098.154 L536,1097.924 C525.275,1097.797 511.584,1098.208 505.575,1098.838 C499.566,1099.467 494.555,1099.874 494.441,1099.741 C494.182,1099.441 489.637,1089.516 484.028,1077 C481.686,1071.775 478.212,1064.145 476.306,1060.045 L472.842,1052.59 L467.709,1062.711 L462.576,1072.832 L459.818,1071.406 C458.301,1070.621 456.505,1068.971 455.828,1067.74 C454.212,1064.802 442.659,1039.503 438.708,1030.25 C437.005,1026.262 435.329,1023 434.983,1023 C434.637,1023 429.017,1032.112 422.493,1043.25 C415.97,1054.388 408.651,1066.797 406.227,1070.827 C403.804,1074.857 401.977,1078.31 402.167,1078.501 C402.496,1078.83 413.977,1079.88 440.5,1082.008 C450.998,1082.85 458.037,1083.785 457.983,1084.329 C457.974,1084.423 454.419,1091.588 450.084,1100.25 L442.201,1116 L480.85,1115.996 C502.108,1115.993 526.402,1116.53 534.838,1117.19 L550.176,1118.388 L555.141,1128.281 C559.152,1136.274 560.431,1138.044 561.803,1137.497 C562.736,1137.125 570.925,1135.076 580,1132.943 C589.075,1130.811 599.188,1128.356 602.474,1127.488 C605.759,1126.619 609.584,1125.763 610.974,1125.585 C612.363,1125.406 616.425,1124.73 620,1124.082 C629.254,1122.404 636.389,1121.22 645,1119.931 C649.125,1119.314 655.875,1118.21 660,1117.478 C664.125,1116.745 670.65,1115.612 674.5,1114.96 C678.35,1114.308 683.3,1112.765 685.5,1111.531 C687.7,1110.297 693.1,1107.36 697.5,1105.004 C701.9,1102.648 705.95,1100.386 706.5,1099.978 C707.05,1099.57 709.975,1097.906 713,1096.28 C716.025,1094.654 723.52,1090.525 729.656,1087.105 L740.813,1080.885 L742.477,1073.693 C744.429,1065.255 745.494,1060.234 747.502,1050 C748.311,1045.875 750.126,1037.1 751.536,1030.5 C752.945,1023.9 754.487,1016.25 754.962,1013.5 C755.862,1008.283 756.249,1006.415 758.478,996.5 C759.219,993.2 760.286,988.25 760.847,985.5 C761.409,982.75 762.374,978.215 762.992,975.423 L764.117,970.345 L769.808,970.726 C776.893,971.2 788.088,972.755 788.681,973.347 C788.924,973.591 786.842,978.337 784.053,983.895 L778.982,994 L814.242,994 L849.503,994 L852.366,1000.063 C854.582,1004.756 855.599,1005.977 856.865,1005.466 C865.609,1001.939 885.89,996.968 899.5,995.015 C903.9,994.384 909.353,993.456 911.617,992.953 C913.881,992.45 917.931,991.784 920.617,991.474 C923.303,991.164 927.075,990.482 929,989.96 C930.925,989.438 933.92,989.009 935.655,989.006 C937.391,989.003 940.766,988.033 943.155,986.852 C945.545,985.67 948.85,984.108 950.5,983.38 C952.15,982.652 958.9,979.649 965.5,976.706 C972.1,973.762 979.399,970.538 981.719,969.539 C986.492,967.486 986.086,968.467 992.503,943.5 C994.482,935.8 996.934,926.575 997.951,923 C998.968,919.425 1000.025,915.375 1000.3,914 C1000.575,912.625 1001.564,908.8 1002.497,905.5 C1004.631,897.951 1010.821,874.652 1011.928,870 C1013.244,864.468 1018.885,843.011 1019.921,839.596 C1020.438,837.893 1021.301,834.807 1021.84,832.738 L1022.82,828.977 L1007.73,814.738 C999.43,806.907 987.342,795.438 980.867,789.25 C974.392,783.062 968.596,778 967.987,778 C966.855,778 967.054,773.471 968.996,755 C969.488,750.325 970.377,741.325 970.972,735 C971.568,728.675 972.699,717.875 973.486,711 C974.272,704.125 975.411,693.1 976.015,686.5 C976.619,679.9 977.561,671.027 978.107,666.782 C979.229,658.059 979.346,619.533 978.361,583 L977.7,558.5 L973.35,549.158 C970.958,544.019 969,539.681 969,539.516 C969,539.04 956.105,511.701 954.879,509.579 C954.269,508.522 952.632,505.597 951.242,503.079 C949.851,500.56 947.878,497.306 946.857,495.846 C945.836,494.386 945,492.99 945,492.745 C945,492.5 935.55,476.221 924,456.571 C912.45,436.921 903,420.477 903,420.029 C903,419.581 902.409,418.987 901.687,418.71 C899.641,417.925 875.64,400.883 874.347,399.298 C873.449,398.196 874.111,395.412 877.347,386.692 L881.5,375.5 L881.706,352.5 C881.896,331.398 881.308,327.002 879.575,336.559 C879.333,337.892 878.657,340.45 878.073,342.242 C875.801,349.21 873,359.797 873,361.417 C873,362.369 872.53,362.827 871.932,362.458 C871.344,362.095 871.1,361.183 871.388,360.431 C871.677,359.679 871.507,358.813 871.012,358.507 C870.501,358.192 870.732,355.902 871.544,353.225 C872.333,350.626 872.953,347.825 872.922,347 C872.851,345.101 870.072,353.727 869.781,356.75 C869.661,357.988 869.312,359 869.004,359 C867.446,359 857.192,345.727 847.7,331.423 L837.032,315.345 L822.266,314.163 C814.145,313.512 805.642,312.985 803.371,312.99 C799.777,312.999 799.111,312.644 798.224,310.25 C796.716,306.178 792.467,293.088 791.164,288.5 C790.54,286.3 789.137,281.659 788.048,278.187 C783.983,265.231 783.877,265.792 793.548,249 C795.29,245.975 798.631,239.9 800.972,235.5 C803.314,231.1 805.571,227.05 805.989,226.5 C806.727,225.527 805.373,211.04 804.458,210.125 C803.969,209.635 803.624,214.503 803.972,217 C804.087,217.825 803.063,216.864 801.698,214.864 C799.564,211.739 799.325,210.616 799.992,206.864 C800.419,204.464 801.007,199.125 801.298,195 C801.806,187.802 801.791,187.732 800.914,193.25 C800.411,196.412 799.663,201.556 799.25,204.68 L798.5,210.361 L789.079,195.93 C783.897,187.994 777.597,179.234 775.079,176.464 C770.583,171.52 756.458,155.249 751.808,149.657 L749.443,146.814 L735.472,150.554 C727.787,152.611 719.25,154.946 716.5,155.742 C713.75,156.539 709.831,157.534 707.79,157.954 L704.08,158.717 L703.415,154.279 C703.049,151.838 702.172,149.62 701.467,149.349 C700.762,149.079 692.381,149.763 682.843,150.87 C673.304,151.977 661,153.154 655.5,153.486 L645.5,154.089 L625.133,133.669 C609.789,118.284 604.302,113.37 602.883,113.741 C601.847,114.012 601,114.631 601,115.117 C601,116.185 597.01,116.317 596.977,115.25 C596.965,114.838 595.455,112.091 593.621,109.146 C590.767,104.562 590.208,104.095 589.737,105.897 C589.434,107.055 589.529,107.791 589.947,107.533 C590.365,107.274 591.243,108.237 591.897,109.672 C593.309,112.772 584.188,104.894 571.523,92.074 C562.418,82.857 562.664,82.923 549,86.039 C544.325,87.105 535.576,88.964 529.557,90.171 L518.615,92.364 L506.057,85.798 C494.123,79.557 493.191,78.841 487.265,71.366 C480.983,63.44 478.865,60.801 467,46.119 C460.148,37.64 460.547,37.838 452,38.655 M582.08,92 C583.538,95.061 584,95.628 584,94.358 C584,93.821 583.3,92.509 582.445,91.441 C580.978,89.611 580.958,89.643 582.08,92 M584.628,99 C585.7,103.196 586.827,105.775 587.87,106.42 C588.786,106.986 588.453,106.075 585.155,99 L583.989,96.5 L584.628,99 M778.866,252.288 C776.868,254.054 765.393,263.883 753.366,274.128 C741.34,284.373 730.702,293.645 729.728,294.731 C728.018,296.637 728.172,297.358 734.077,315.103 C737.443,325.221 740.941,334.237 741.849,335.137 C742.757,336.037 746.2,338.248 749.5,340.05 C752.8,341.852 757.075,344.214 759,345.298 C767.052,349.834 769.979,351.131 770.894,350.565 C771.426,350.237 772.187,350.494 772.585,351.138 C773.037,351.869 772.876,352.041 772.155,351.595 C771.52,351.203 771,351.122 771,351.415 C771,351.709 772.358,352.651 774.018,353.509 C776.395,354.738 777.126,354.797 777.462,353.785 C777.696,353.078 779.488,347.681 781.444,341.79 C784.645,332.149 786.237,321.117 784.25,322.346 C783.837,322.601 783.595,306.202 783.71,285.905 C783.826,265.607 783.601,249.017 783.21,249.03798 C782.82,249.058 780.865,250.521 778.866,252.288 M283.611,281.318 L267.723,285.405 L271.111,288.276 C275.578,292.059 280.041,291.537 287.619,286.345 C290.705,284.23 294.754,281.481 296.615,280.235 C298.477,278.99 300,277.752 300,277.485 C300,277.218 299.887,277.052 299.75,277.115 C299.613,277.179 292.35,279.07 283.611,281.318 M222.75,298.662 C223.438,298.94 224.563,298.94 225.25,298.662 C225.938,298.385 225.375,298.158 224,298.158 C222.625,298.158 222.063,298.385 222.75,298.662 M882.079,310.583 C882.127,311.748 882.364,311.985 882.683,311.188 C882.972,310.466 882.936,309.603 882.604,309.271 C882.272,308.939 882.036,309.529 882.079,310.583 M208.78,335.707 C203.984,349.893 198.287,366.675 196.119,373 C193.951,379.325 191.849,385.625 191.448,387 C191.046,388.375 194.324,384.759 198.732,378.964 C203.561,372.616 207.014,367.051 207.418,364.964 C207.787,363.059 208.712,358.575 209.474,355 C210.235,351.425 211.801,343.55 212.953,337.5 C214.105,331.45 215.752,323.498 216.613,319.829 C220.056,305.144 217.058,311.222 208.78,335.707 M780.242,319.261 C779,322.042 778.155,324.488 778.364,324.697 C778.911,325.244 783.16,315.961 782.801,315.005 C782.635,314.565 781.484,316.48 780.242,319.261 M880.571,316.571 C880.204,318.037 880.096,319.429 880.331,319.665 C880.567,319.9 881.061,318.894 881.429,317.429 C881.796,315.963 881.904,314.571 881.669,314.335 C881.433,314.1 880.939,315.106 880.571,316.571 M878.101,325.554 C877.403,328.274 876.42,331.534 875.916,332.797 C875.412,334.06 875.036,336.085 875.079,337.297 C875.122,338.509 875.293,339.05 875.458,338.5 C875.622,337.95 876.314,335.475 876.995,333 C877.675,330.525 878.675,327.285 879.216,325.801 C879.758,324.316 880.014,322.541 879.785,321.855 C879.556,321.169 878.799,322.834 878.101,325.554 M776.624,328.539 C775.659,331.053 775.943,331.702 777.122,329.675 C777.706,328.671 777.973,327.639 777.715,327.382 C777.458,327.124 776.966,327.645 776.624,328.539 M774.624,333.539 C773.659,336.053 773.943,336.702 775.122,334.675 C775.706,333.671 775.973,332.639 775.715,332.382 C775.458,332.124 774.966,332.645 774.624,333.539 M772.789,338.526 C772.48,339.612 771.922,341.4 771.55,342.5 C771.177,343.6 771.605,343.236 772.5,341.69 C773.395,340.145 773.952,338.356 773.739,337.716 C773.525,337.075 773.098,337.44 772.789,338.526 M873.624,341.539 C873.281,342.432 873.029,343.689 873.063,344.332 C873.098,344.974 873.558,344.422 874.085,343.105 C874.612,341.787 874.864,340.531 874.645,340.312 C874.426,340.093 873.966,340.645 873.624,341.539 M274,352.335 C266.025,356.297 253.425,362.446 246,366 L232.5,372.462 L255.5,373.648 C268.15,374.301 282.257,374.872 286.848,374.917 L295.196,375 L294.536,368.75 C293.297,357.023 290.814,344.999 289.646,345.065721 C289.016,345.102 281.975,348.373 274,352.335 M770.079,345.668 C770.036,346.311 769.741,347.661 769.424,348.668 C768.877,350.409 768.906,350.412 769.995,348.712 C770.626,347.729 770.92,346.379 770.65,345.712 C770.295,344.837 770.136,344.825 770.079,345.668 M149.813,381.683 C150.534,381.972 151.397,381.936 151.729,381.604 C152.061,381.272 151.471,381.036 150.417,381.079 C149.252,381.127 149.015,381.364 149.813,381.683 M266,540.574 C259.125,542.451 252.235,544.333 250.689,544.757 C249.143,545.182 247.818,545.973 247.744,546.515 C247.618,547.436 269.753,564.901 271.132,564.969043 C271.894,565.006 280,540.92 280,538.618 C280,536.624 280.979,536.487 266,540.574 M187.548,556.397 L174.595,557.5 L177.721,560 C179.441,561.375 184.291,564.975 188.5,568 C192.709,571.025 197.421,574.513 198.971,575.75 C200.521,576.987 202.065,578 202.402,578 C203.175,578 213,557.768 213,556.176 C213,554.761 206.039,554.822 187.548,556.397 M301.652,576.656 C301.293,582.516 301,589.08 301,591.242 L301,595.172 L307.75,589.85 C311.462,586.922 314.95,584.026 315.5,583.412 C316.05,582.799 319.762,579.705 323.75,576.536 C327.738,573.367 331,570.411 331,569.967 C331,569.523 327.962,568.879 324.25,568.537 C320.538,568.194 314.763,567.483 311.418,566.957 C301.647,565.419 302.384,564.687 301.652,576.656 M145.079,578.583 C145.127,579.748 145.364,579.985 145.683,579.188 C145.972,578.466 145.936,577.603 145.604,577.271 C145.272,576.939 145.036,577.529 145.079,578.583 M246.59,602.694 C245.071,609.875 242.982,623.315 243.33,623.663 C243.874,624.207 274.004,611.875 273.982012,611.118 C273.967,610.586 251.583,601.05 248.342,600.194 C247.705,600.026 246.916,601.151 246.59,602.694 M68.215,618.208 L71.69,622.416 L64.095,632.319 C59.918,637.766 55.6,643.429 54.5,644.904 C48.966,652.324 40.822,662 40.111,662 C39.669,662 35.526,660.606 30.904,658.901 C26.282,657.197 21.6,655.557 20.5,655.257 C19.4,654.957 18.05,654.391 17.5,654 C16.95,653.609 15.6,653.054 14.5,652.767 C13.4,652.481 10.025,651.282 7,650.104 L1.5,647.962 L5,651.033 C6.925,652.722 10.3,655.793 12.5,657.857 C16.051,661.188 20.824,665.108 37,677.978 C43.211,682.92 45.858,684.49 50.5,685.986 C52.7,686.695 56.3,688.084 58.5,689.074 C70.787,694.6 92.265,703.069 92.753,702.58 C92.997,702.337 96.924,691.194 101.479,677.819 C106.035,664.443 111.334,648.946 113.256,643.38 L116.749,633.261 L108.624,629.954 C104.156,628.135 98.25,625.647 95.5,624.425 C80.743,617.868 70.261,614.224 65.621,614.035842 C65.137,614.016 66.305,615.894 68.215,618.208 M151.449,646.799 C130.476,674.595 130.225,675.024 131.205,681.424 C131.434,682.92 127.85,685.792 115.09,694.332 L98.679,705.315 L106.371,709.186 L114.063,713.056 L127.78,712.778 L141.497,712.5 L143.73,705.5 C144.958,701.65 146.376,697.6 146.881,696.5 C147.386,695.4 149.91,688.2 152.49,680.5 C155.07,672.8 157.559,665.6 158.021,664.5 C158.482,663.4 161.146,655.75 163.94,647.5 C171.033,626.557 171.97,623.924 173.052,621.902 C173.577,620.923 173.633,619.891 173.178,619.61 C172.723,619.329 162.945,631.564 151.449,646.799 M798,651.49 C798,652.408 811.347,668 812.132,668 C812.982,668 817,655.323 817,652.642 C817,651.235 815.643,651 807.5,651 C802.275,651 798,651.22 798,651.49 M805.684,689.25 C805.382,690.487 803.043,698.475 800.485,707 C794.784,726.003 793.131,731.559 791.931,735.75 C789.664,743.666 788.969,745.988 786.468,754 C785.008,758.675 783.35,764.3 782.783,766.5 C781.934,769.794 778.312,773.963 762.253,790.132 C751.529,800.93 742.922,810.19 743.127,810.711 C743.332,811.232 746.425,816.242 750,821.844 C753.575,827.446 757.625,833.836 759,836.044 C760.375,838.253 766.588,847.894 772.807,857.47 C783.439,873.842 784.075,875.107 783.48,878.69 C782.356,885.447 777.944,906.126 774.612,920.25 C772.828,927.813 771.573,934 771.824,934 C772.075,934 772.791,933.301 773.416,932.446 C774.341,931.181 775.745,933.734 780.979,946.185 C784.513,954.595 788.133,962.973 789.023,964.801 L790.64,968.126 L795.07,959.567 C800.235,949.588 799.424,948.997 805.604,967.25 L809.243,978 L820.538,978 L831.833,978 L841.171,972.75 C846.307,969.862 852.195,966.61 854.255,965.523 C856.315,964.435 858,963.149 858,962.666 C858,962.182 858.598,962.015 859.328,962.296 C860.251,962.65 861.654,960.012 863.926,953.653 C865.724,948.619 867.601,943.719 868.097,942.764 C868.594,941.809 869,940.527 869,939.915 C869,939.303 869.622,937.384 870.381,935.651 C871.141,933.918 873.869,926.65 876.444,919.5 C879.019,912.35 881.539,905.485 882.044,904.244 C882.729,902.562 882.461,901.162 880.99,898.744 L879.017,895.5 L901.645,872.856 L924.272,850.212 L904.886,850.632 C894.224,850.863 883.362,851.2 880.75,851.379 L876,851.706 L876,843.937 C876,839.663 876.337,836.017 876.75,835.833 C877.545,835.48 883,827.383 883,826.556 C883,826.289 885.406,822.34 888.347,817.782 C891.287,813.223 894.449,808.032 895.373,806.246 L897.053,802.998 L890.776,803.456 C887.324,803.708 879.775,804.368 874,804.923 C868.225,805.478 862.938,805.948 862.25,805.966 C861.304,805.992 860.993,802.286 860.97,790.75 C860.952,781.866 860.585,776.126 860.09,777 C859.333,778.338 856.774,789.427 855.36,797.5 C855.071,799.15 854.48,800.869 854.047,801.32 C853.339,802.057 851.132,789.315 849.517,775.161 C849.028,770.882 844.795,761.592 828.209,728.411 C816.825,705.635 807.224,687 806.872,687 C806.521,687 805.986,688.013 805.684,689.25 M479.59,764.25 C479.979,764.938 481.091,766.4 482.062,767.5 C483.78,769.448 483.393,770.077 467.316,791.5 C458.236,803.6 450.703,813.609 450.577,813.743 C450.45,813.877 444.756,811.698 437.923,808.9 C431.091,806.103 422.219,802.538 418.21,800.979 L410.919,798.144 L413.876,801.512 C415.503,803.364 417.208,805.477 417.667,806.206 C418.125,806.936 424.59,813.196 432.032,820.117 C441.57,828.987 446.736,833.066 449.532,833.936 C451.715,834.615 456.425,836.227 460,837.518 C484.902,846.51 498.455,850.935 499.062,850.272 C499.45,849.847 500.757,846.575 501.966,843 C504.187,836.436 508.574,824.186 510.023,820.5 C510.456,819.4 512.899,812.425 515.452,805 C518.005,797.575 520.565,790.375 521.141,789 C522.916,784.766 525.161,777.821 524.822,777.614 C524.06,777.15 480.299,763 479.626,763 C479.217,763 479.2,763.563 479.59,764.25 M538.702,823.631 C538.355,823.979 538.501,825.068 539.028,826.053 C539.855,827.598 537.518,829.488 521.955,839.866 C507.246,849.674 504.254,852.053 505.712,852.78 C506.695,853.27 512.788,855.43 519.25,857.581 C525.712,859.731 531,861.83 531,862.245 C531,862.66 521.964,863 510.921,863 C489.621,863 490.158,863.09 475.5,857.029 C474.4,856.574 471.925,855.661 470,855 C468.075,854.339 465.6,853.403 464.5,852.92 C462.05,851.844 459.19,850.782 447,846.426 L437.5,843.031 L440.591,845.765 C445.551,850.153 472.701,873.172 477.432,877 C479.811,878.925 484.317,882.717 487.445,885.428 L493.132,890.355 L503.257,885.428 C508.826,882.717 521.46,876.45 531.333,871.5 L549.284,862.5 L552.063,855.5 C555.712,846.306 563.032,826.972 563.704,824.75 C564.188,823.149 563.175,823 551.783,823 C544.936,823 539.049,823.284 538.702,823.631"/><path fill-opacity=".333" d="M444,40.122 C440.425,40.599 432.1,41.69 425.5,42.546 C418.9,43.402 410.8,44.484 407.5,44.95 C404.2,45.416 397.675,47.56 393,49.714 C388.325,51.868 382.925,54.261 381,55.033 C379.075,55.805 375.495,57.4 373.045,58.579 L368.59,60.721 L377.045,66.205 C381.695,69.221 389.93,74.496 395.344,77.927 L405.188,84.165 L424.844,82.956 C435.655,82.291 447.425,81.614 451,81.452 C454.575,81.289 464.925,80.675 474,80.087 C483.075,79.499 491.083,79.014 491.796,79.009 C493.179,78.999 491.274,76.414 475.5,56.893 C459.978,37.684 461.432,38.981 455.585,39.127 C452.788,39.198 447.575,39.645 444,40.122 M502.55,84.848 C503.072,85.314 506.65,87.892 510.5,90.576 C514.35,93.261 520.506,97.716 524.181,100.478 C527.855,103.24 533.413,107.3 536.531,109.5 C539.65,111.7 546.993,117.02 552.851,121.322 C558.708,125.625 564.737,129.884 566.25,130.788 C569.659,132.825 569.702,133.723 566.461,135.2 C565.065,135.836 564.052,136.939 564.211,137.65 C564.37,138.362 577.96,152.907 594.41,169.972 C618.577,195.042 624.817,200.998 626.91,200.992 C628.335,200.987 633.55,200.519 638.5,199.951 C647.598,198.906 660.722,197.952 693.5,195.953 L711.5,194.854 L731,201.423 C741.725,205.036 750.607,207.994 750.737,207.996 C750.867,207.998 751.092,223.151 751.237,241.669 L751.5,275.338 L757.5,270.173 C770.55,258.939 783.152,248.819 783.571,249.238 C783.814,249.481 784.308,273.826 784.67,303.34 C785.323,356.678 785.315,357 783.313,357 C779.092,357 775.363,355.158 746.501,338.813 L740.502,335.415 L736.842,324.958 C734.829,319.206 731.93,310.548 730.4,305.717 L727.618,296.935 L723.059,297.536 C718.285,298.166 713.48,299.015 701,301.432 C696.875,302.231 691.753,303.168 689.617,303.513 L685.735,304.14 L686.339,313.32 C686.671,318.369 687.414,327.675 687.99,334 C690.654,363.265 691.069,368.035 691.641,376 C692.206,383.858 693.73,388 696.055,388 C696.464,388 703.587,391.825 711.884,396.5 C720.181,401.175 727.314,405.014 727.735,405.032 C728.156,405.049 729.297,405.669 730.272,406.408 C731.704,407.494 731.851,408.261 731.04,410.394 C730.067,412.953 730.267,413.148 737.518,416.736 C741.633,418.773 745,420.746 745,421.122 C745,421.498 748.648,427.812 753.107,435.153 C757.566,442.494 762.075,449.991 763.126,451.814 C764.177,453.636 765.649,456.111 766.397,457.314 C767.469,459.038 768.024,472.99 769.023,523.272 C769.72,558.346 770.112,587.206 769.895,587.404 C769.678,587.602 759.182,582.648 746.571,576.394 C733.96,570.141 723.432,565.235 723.175,565.492 C722.918,565.749 724.461,567.912 726.604,570.299 C728.747,572.686 734.325,579.289 739,584.972 C743.675,590.655 749.089,597.149 751.03,599.402 C752.972,601.656 756.249,605.619 758.313,608.209 L762.066,612.918 L760.983,621.635 C760.387,626.43 759.736,630.618 759.536,630.942 C759.335,631.266 758.683,635.048 758.085,639.346 C757.487,643.644 756.724,648.249 756.39,649.58 L755.783,652 L765.23,652 C770.426,652 784.202,651.703 795.844,651.341 L817.01,650.682 L819.068,643.591 C823.18,629.424 825.251,622.405 826.713,617.685 C827.533,615.037 827.935,612.602 827.607,612.274 C827.279,611.945 825.095,612.26 822.755,612.972 C817.197,614.665 807.249,617.786 803.663,618.961 C800.847,619.885 800.829,619.864 801.286,616.196 C801.722,612.691 803.746,602.3 808.143,581 C812.419,560.286 812.394,560.624 810.123,553.899 C808.979,550.511 808.351,547.235 808.727,546.62 C809.385,545.541 821.614,530.134 828.947,521.144 C830.901,518.749 833.625,515.312 835,513.507 C844.886,500.532 853.391,491 855.083,491 C856.925,491 857,489.937 857.004,463.75 L857.007,436.5 L859.119,440 C860.281,441.925 861.399,443.683 861.605,443.906 C861.811,444.13 863.756,443.512 865.927,442.533 L869.874,440.753 L867.929,435.627 C866.86,432.807 865.507,429.669 864.923,428.653 C864.339,427.637 864.005,426.663 864.181,426.489 C864.356,426.314 871.7,424.995 880.5,423.556 C900.371,420.307 901,420.169 901,419.048 C901,418.546 900.212,417.882 899.25,417.572 C898.288,417.263 895.925,415.659 894,414.007 C892.075,412.356 890.195,411.004 889.821,411.002 C889.448,411.001 888.538,410.395 887.799,409.656 C887.06,408.917 884.665,407.15 882.478,405.729 C880.29,404.307 877.245,402.1 875.712,400.822 L872.924,398.5 L877.332,385.796 L881.741,373.093 L878.767,370.296 C868.633,360.768 857.873,347.606 847.83,332.454 L836.5,315.36 L822,314.173 C814.025,313.52 805.636,312.989 803.359,312.993 C799.503,312.999 799.114,312.741 797.719,309.25 C796.213,305.48 793.511,297.081 792.008,291.5 C791.563,289.85 789.805,283.902 788.1,278.282 C786.395,272.662 785,267.133 785,265.997 C785,264.86 786.959,260.459 789.354,256.215 C791.749,251.972 795.178,245.8 796.974,242.5 C798.77,239.2 801.536,234.195 803.12,231.378 C804.704,228.561 806,225.472 806,224.513 C806,223.554 804.031,219.783 801.625,216.134 C799.219,212.486 792.979,202.975 787.758,195 C781.983,186.176 774.006,175.772 767.384,168.423 C761.398,161.781 754.7,154.246 752.5,151.679 L748.5,147.011 L741.5,149.049 C732.191,151.76 720.326,154.971 716,155.951 C714.075,156.387 711.233,157.252 709.685,157.872 C704.951,159.769 704.173,159.334 703.428,154.371 L702.734,149.743 L696.617,150.398 C690.857,151.015 678.569,152.063 655.5,153.906 L645.5,154.706 L624.804,134.166 L604.109,113.627 L600.555,115.54 L597.001,117.454 L588.786,109.477 C584.268,105.09 580.314,101.275 579.999,101 C579.685,100.725 575.56,96.738 570.833,92.141 L562.239,83.781 L552.869,85.848 C547.716,86.985 538.888,88.924 533.25,90.158 C527.612,91.393 523,92.722 523,93.113 C523,93.503 527.837,96.395 533.75,99.538 C544.559,105.284 549.422,108.244 566.937,119.741 C572.167,123.173 576.908,126.149 577.473,126.354 C578.038,126.559 578.188,127.062 577.808,127.472 C577.427,127.882 575.782,127.269 574.153,126.109 C572.524,124.949 570.914,124 570.576,124 C570.237,124 568.057,122.796 565.73,121.325 C563.404,119.853 556.775,115.872 551,112.477 C545.225,109.082 533.146,101.961 524.159,96.652 C515.171,91.343 507.464,87 507.031,87 C506.599,87 505.685,86.325 505,85.5 C504.315,84.675 503.27,84 502.678,84 C502.008,84 501.959,84.321 502.55,84.848 M277.485,147.124 C275.293,148.292 272.306,150.092 270.846,151.124 C269.386,152.156 267.944,153 267.642,153 C267.34,153 262.635,155.693 257.185,158.985 L247.278,164.971 L245.604,172.235 C244.684,176.231 243.466,181.525 242.896,184 C242.327,186.475 241.261,190.975 240.526,194 C237.515,206.4 236.99,206.4 248.718,194 C254.701,187.675 264.142,177.55 269.697,171.5 C281.895,158.217 288.254,152.088 293.277,148.772 L297.053,146.279 L292.387,145.64 C284.713,144.588 281.676,144.89 277.485,147.124 M706.084,166.639 C706.546,169.313 707.169,173.075 707.467,175 C708.003,178.454 708.128,178.534 717.005,181.094 C721.952,182.521 726,183.413 726,183.077 C726,182.74 721.33,177.81 715.622,172.122 L705.244,161.779 L706.084,166.639 M455.15,203.48 C452.207,205.306 449.356,207.244 448.814,207.786 C448.167,208.433 451.377,211.153 458.164,215.71 C463.849,219.527 474.048,226.441 480.828,231.075 C487.609,235.709 496.83,241.925 501.32,244.89 L509.483,250.28 L498.991,238.913 C484.585,223.304 461.829,199.983 461.1,200.078705 C460.77,200.123 458.092,201.653 455.15,203.48 M304.599,290.161 C304.885,290.622 305.497,291 305.961,291 C306.425,291 312.86,293.898 320.262,297.44 C333.713,303.877 333.726,303.886 342.11,313.523 C356.862,330.476 361.305,335.553 370.5,345.961 C375.45,351.564 383.325,360.582 388,366 C392.675,371.418 400.55,380.427 405.5,386.019 C410.45,391.611 416.717,398.84 419.426,402.084 C422.135,405.327 424.528,407.805 424.743,407.591 C424.958,407.376 421.979,402.767 418.123,397.35 C414.267,391.932 410.172,386.15 409.022,384.5 C405.799,379.876 390.417,357.903 387.817,354.209 C386.542,352.399 384.375,349.38 383,347.5 C381.625,345.62 379.458,342.601 378.184,340.791 C376.91,338.981 370.009,329.175 362.847,319 C355.685,308.825 349.527,300.004 349.162,299.397 C348.798,298.79 346.7,298.036 344.5,297.721 C342.3,297.407 336.225,296.226 331,295.098 C306.911,289.896 304.112,289.373 304.599,290.161 M318.893,316.63 C317.638,318.142 302,331.124 296.649,335.095 C294.079,337.003 279.126,346 278.525,346 C278.294,346 273.819,348.7 268.581,352 C263.343,355.3 258.707,358.01 258.279,358.022 C257.85,358.034 256.375,358.974 255,360.109 C253.625,361.245 252.95,361.963 253.5,361.705 C254.05,361.448 256.663,360.261 259.306,359.068 C261.95,357.875 269.582,354.222 276.268,350.949 C290.049,344.204 292,343.789 292,347.602 C292,349.681 292.602,349.028 294.998,344.352 C297.186,340.081 301.166,335.476 309.725,327.31 C316.176,321.156 321.191,315.858 320.87,315.536 C320.548,315.215 319.658,315.707 318.893,316.63 M549.481,321.504 C546.742,323.431 543.375,325.788 542,326.741 C540.625,327.694 534.55,332.088 528.5,336.506 C522.45,340.923 516.533,345.205 515.352,346.019 C514.17,346.834 509.67,350.07 505.352,353.21 C501.033,356.351 490.3,364.065 481.5,370.352 C472.7,376.64 463.925,382.998 462,384.481 C455.692,389.342 436.573,403.097 433.207,405.195 C431.396,406.324 430.145,407.478 430.426,407.759 C430.707,408.04 437.363,404.766 445.218,400.483 C453.073,396.2 462.425,391.129 466,389.214 C469.575,387.299 473.85,384.947 475.5,383.988 C477.15,383.029 480.975,380.909 484,379.277 C500.802,370.212 517.513,361.123 525,356.976 C529.675,354.387 537.1,350.35 541.5,348.005 C545.9,345.66 550.533,343.101 551.794,342.319 C553.928,340.996 554.911,341.346 565.794,347.302 C572.233,350.826 580.65,355.411 584.5,357.492 C588.35,359.572 598.7,365.203 607.5,370.005 C616.3,374.807 627.1,380.669 631.5,383.031 C635.9,385.392 642.875,389.216 647,391.527 C656.863,397.053 664.381,400.668 661.024,398.269 C659.662,397.296 657.187,395.34 655.524,393.923 C653.861,392.505 650.475,389.932 648,388.204 C645.525,386.476 639.854,382.236 635.397,378.781 C630.94,375.326 622.615,368.919 616.897,364.543 C611.179,360.167 602.45,353.472 597.5,349.666 C592.55,345.86 583.55,339.009 577.5,334.443 C571.45,329.876 564.128,324.308 561.23,322.07 C558.331,319.831 555.623,318 555.211,318 C554.8,318 552.221,319.577 549.481,321.504 M140,381.282 C140,381.438 142.201,387.877 144.892,395.591 L149.784,409.618 L134.885,415.916 C126.69,419.38 119.807,422.504 119.588,422.858 C119.369,423.212 125.923,434.155 134.151,447.176 L149.112,470.851 L152.806,469.363 C154.838,468.545 157.85,467.267 159.5,466.524 C161.15,465.782 169.25,462.388 177.5,458.983 C185.75,455.578 193.85,452.192 195.5,451.458 C197.15,450.725 200.237,449.424 202.359,448.568 C205.395,447.343 206.067,446.636 205.508,445.255 C204.797,443.498 201.783,434.136 200.114,428.5 C199.625,426.85 198.078,421.675 196.677,417 C195.275,412.325 192.988,404.655 191.595,399.956 L189.062,391.413 L182.781,390.182 C179.326,389.505 173.8,388.299 170.5,387.504 C145.438,381.459 140,380.35 140,381.282 M417.5,447.561 C396.906,451.673 396.517,451.812 393.405,456.125 C391.807,458.34 389.543,461.356 388.373,462.826 L386.246,465.5 L364.194,465.213 L342.143,464.926 L341.492,461.963 C341.123,460.281 340.191,459 339.338,459 C338.018,459 308.819,468.448 301.915,471.11 C299.878,471.895 298.877,473.525 297.192,478.803 C296.016,482.486 294.75,486.85 294.379,488.5 C294.008,490.15 289.883,499.15 285.213,508.5 C277.67,523.599 276.607,525.248 275.707,523.25 C274.596,520.78 273.84,520.552 271.236,521.897 C269.382,522.856 263.396,525.279 258.534,527.04 C256.561,527.755 255.978,528.369 256.793,528.872 C257.917,529.567 251.325,531.326 237.5,534.019 C234.75,534.554 227.778,535.941 222.006,537.101 C216.234,538.26 210.751,539.355 209.821,539.534 C207.76,539.931 206.586,540.529 191.732,548.743 C185.259,552.322 179.677,555.713 179.328,556.279 C178.899,556.972 180.944,557.071 185.596,556.583 C189.393,556.184 198.113,555.666 204.974,555.432 C211.835,555.198 218.81,554.571 220.474,554.037 C222.138,553.503 228.635,551.724 234.91,550.083 C241.186,548.442 246.586,546.69 246.91,546.19 C247.235,545.69 250.2,544.583 253.5,543.732 C256.8,542.88 262.2,541.418 265.5,540.483 C272.882,538.391 284,536.095 284,536.662 C284,537.544 279.693,545.525 278.959,546.001 C278.535,546.277 276.991,550.123 275.529,554.548 C272.005,565.21 271.65,565.749 269.326,563.984 C267.928,562.922 267.779,562.911 268.691,563.939 C269.63,564.998 269.027,566.988 265.824,573.391 C263.593,577.851 261.645,581.637 261.496,581.805 C260.718,582.676 232.138,573.449 223.5,569.538 C218,567.047 212.889,565.008 212.143,565.005 C211.348,565.002 211.025,564.378 211.362,563.5 C211.678,562.675 211.748,562 211.516,562 C211.285,562 209.391,565.487 207.309,569.75 C205.226,574.013 203.383,577.709 203.213,577.965 C203.043,578.22 202.318,577.995 201.602,577.465 C200.885,576.934 198.319,575.195 195.9,573.601 C193.48,572.006 191.275,570.415 191,570.066 C190.725,569.717 187.35,567.245 183.5,564.572 C179.65,561.899 176.05,559.17 175.5,558.507 C174.95,557.845 172.15,557.076 169.278,556.801 L164.055,556.299 L162.528,561.553 C161.687,564.443 161,567.651 161,568.681 C161,569.712 160.387,571.443 159.638,572.527 C158.889,573.612 156.578,577.65 154.502,581.5 C152.426,585.35 150.358,588.909 149.906,589.408 C149.25,590.133 153.421,596.689 156.008,599 C156.316,599.275 158.33,601.75 160.484,604.5 C165.984,611.523 166.454,611.946 164.541,608.157 C160.763,600.677 164.531,604.151 174.766,617.587 C177.662,621.389 180.659,625.394 181.426,626.487 C182.737,628.356 182.86,628.236 183.482,624.487 C184.566,617.958 186.296,610 186.632,610 C187.66,610 205,622.339 205,623.07 C205,623.561 203.762,624.241 202.25,624.582 C197.447,625.664 188.526,628.352 187.796,628.936 C186.272,630.157 224.77,628.197 231,626.736 C234.575,625.898 237.607,625.309 237.739,625.428 C238.536,626.149 217.69,633.586 213.538,634.061 C208.137,634.68 208.565,635.067 216.754,636.967 C221.885,638.158 224.444,638.043 239.5,635.943 C243.35,635.406 249.762,634.524 253.75,633.983 C270.077,631.769 276.551,630.667 277.5,629.941 C278.05,629.519 282.1,627.745 286.5,625.998 C290.9,624.251 296.336,621.986 298.581,620.963 C300.825,619.941 305.1,618.145 308.081,616.973 C311.061,615.801 315.075,613.866 317,612.672 C321.284,610.016 344.737,600 346.673,600 C348.219,600 352.444,602.527 355.439,605.242 C356.505,606.209 357.71,607 358.117,607 C358.524,607 359.462,607.605 360.201,608.344 C360.94,609.083 363.335,610.867 365.522,612.308 C367.71,613.75 372.425,617.004 376,619.539 C379.575,622.075 384.3,625.349 386.5,626.815 C388.7,628.282 390.725,629.71 391,629.991 C391.275,630.271 394.875,632.208 399,634.296 C403.125,636.384 414.825,642.357 425,647.57 C440.618,655.57 444.824,657.289 452,658.599 C456.675,659.453 462.525,660.548 465,661.032 C467.475,661.516 471.975,662.342 475,662.868 C478.025,663.394 481.642,664.114 483.039,664.468 L485.577,665.111 L486.843,654.805 C487.539,649.137 488.5,641.35 488.979,637.5 C489.458,633.65 490.363,626.225 490.992,621 C492.233,610.675 494.78,593.001 495.603,589 C496.339,585.422 471.593,610.085 468.512,616 C465.821,621.166 465.929,621.306 462.736,608.555 L460.5,599.623 L433,581.264 C417.875,571.166 405.361,562.508 405.191,562.024 C404.703,560.638 422.324,547.87 424,548.395 C434.52,551.693 446.903,555 448.734,555 C449.634,555 454.24,551.288 458.969,546.75 C469.369,536.773 487.136,520.281 508,501.236 C529.493,481.618 539.951,471.522 537,473.241 C534.575,474.653 502.519,494.753 497.16,498.222 C495.697,499.169 492.925,500.861 491,501.981 C487.5,504.019 482.851,506.975 464.973,518.532 C459.734,521.919 454.446,525.226 453.223,525.881 L451,527.07 L451,502.535 L451,478 L456.75,477.985 C459.913,477.976 463.075,477.604 463.778,477.158 C464.935,476.424 453.937,466.963 431.917,449.75 C426.556,445.559 427.105,445.643 417.5,447.561 M934.455,489 C936.63,491.475 941.991,496.875 946.369,501 C953.661,507.871 954.105,508.145 951.664,504.27 C950.199,501.943 949,499.774 949,499.448 C949,498.386 947.098,496.838 932,485.615 C931.175,485.002 932.28,486.525 934.455,489 M356.183,542.274 C351.675,547.348 344.244,555.488 339.671,560.361 L331.355,569.223 L321.427,568.08 C315.967,567.451 309.412,566.673 306.86,566.351 L302.22,565.765 L301.487,580.416 L300.755,595.066 L290.127,601.341 C284.282,604.792 278.375,608.356 277,609.259 C274.585,610.846 274.056,610.715 261.545,605.423 C254.42,602.409 247.943,600.191 247.152,600.495 C246.361,600.799 245.957,601.29 246.253,601.587 C246.55,601.884 246.217,604.686 245.513,607.813 C243.391,617.243 242.786,624 244.064,624 C244.688,624 246.841,623.279 248.849,622.398 C250.857,621.517 253.4,620.433 254.5,619.989 C260.619,617.519 260.546,617.538 265.309,617.148 C266.304,617.067 266.843,616.555 266.507,616.011 C266.171,615.468 266.518,615.262 267.279,615.553 C269.515,616.412 305.566,605.485 317.18,600.428 C327.671,595.861 327.966,595.641 333.778,588.051 C337.033,583.801 342.979,574.289 346.991,566.912 C351.004,559.535 356.723,549.063 359.7,543.639 C362.676,538.216 364.947,533.614 364.746,533.413 C364.545,533.212 360.692,537.199 356.183,542.274 M279.624,541.539 C278.659,544.053 278.943,544.702 280.122,542.675 C280.706,541.671 280.973,540.639 280.715,540.382 C280.458,540.124 279.966,540.645 279.624,541.539 M250.226,550.579 C251.176,551.57 252.168,552.166 252.431,551.903 C252.694,551.64 251.917,550.829 250.705,550.1 C248.598,548.835 248.577,548.857 250.226,550.579 M257,555.364 C257,555.639 258.35,556.825 260,558 C261.65,559.175 263,559.911 263,559.636 C263,559.361 261.65,558.175 260,557 C258.35,555.825 257,555.089 257,555.364 M212.564,558.707 C212.022,560.132 212.136,560.247 213.124,559.267 C213.808,558.588 214.115,557.781 213.807,557.474 C213.499,557.166 212.94,557.721 212.564,558.707 M67.822,616.667 C68.368,617.687 69.727,619.348 70.841,620.356 C72.862,622.185 72.855,622.207 68.684,627.454 C59.239,639.337 50.249,650.833 46.175,656.237 C43.796,659.393 41.51,662.185 41.096,662.441 C40.682,662.697 32.525,660.018 22.969,656.489 C13.414,652.959 5.451,650.216 5.274,650.393 C4.946,650.721 13.605,658.368 22.4,665.517 C39.11,679.099 44.418,682.98 47.754,684.054 C49.814,684.718 51.95,685.597 52.5,686.008 C53.05,686.419 54.625,687.094 56,687.508 C57.375,687.922 60.3,689.079 62.5,690.08 C64.7,691.08 68.75,692.777 71.5,693.849 C74.25,694.922 80.05,697.208 84.388,698.929 C88.726,700.649 92.374,701.932 92.494,701.779 C92.615,701.625 96.002,691.825 100.021,680 C104.041,668.175 109.214,652.973 111.518,646.218 C113.821,639.463 115.434,633.772 115.103,633.572 C114.771,633.372 108.875,630.869 102,628.011 C95.125,625.152 86.775,621.56 83.444,620.029 C80.113,618.497 75.838,616.931 73.944,616.547 C72.05,616.164 69.674,615.617 68.664,615.331 C67.139,614.899 66.996,615.125 67.822,616.667 M484,724.586 C484,724.756 487.938,727.03 492.75,729.639 C497.563,732.248 504.32,736.097 507.768,738.191 C511.215,740.286 514.286,742 514.593,742 C514.899,742 518.154,743.743 521.825,745.873 C525.496,748.003 534.35,753.01 541.5,757 C548.65,760.99 557.425,765.943 561,768.006 C564.575,770.07 570.875,773.55 575,775.741 L582.5,779.725 L616,781.389 C645.929,782.876 674.204,783.438 671.5,782.492 C670.95,782.3 665.775,780.723 660,778.987 C654.225,777.251 646.35,774.791 642.5,773.519 C638.65,772.248 632.125,770.201 628,768.972 C623.875,767.742 618.475,766.08 616,765.28 C605.758,761.966 573.28,751.773 570.5,751 C568.85,750.541 564.575,749.268 561,748.171 C557.425,747.075 546.85,743.868 537.5,741.044 C517.577,735.027 500.212,729.626 490.75,726.504 C487.038,725.28 484,724.416 484,724.586 M481.826,766.314 C483.022,767.587 484,768.983 484,769.415 C484,770.717 451.824,813.13 450.431,813.665 C449.721,813.937 447.646,813.476 445.82,812.64 C443.994,811.804 437.325,809.095 431,806.619 C424.675,804.143 417.73,801.376 415.568,800.469 L411.636,798.821 L414.801,802.426 C416.542,804.409 424.25,811.886 431.93,819.04 C443.929,830.218 446.711,832.319 451.697,833.962 C454.889,835.014 464.025,838.174 472,840.983 C491.72,847.93 498.26,850.073 498.623,849.71 C498.952,849.381 505.604,830.817 512.135,812 C514.33,805.675 516.511,799.6 516.981,798.5 C519.048,793.664 524.025,778.692 523.681,778.348 C523.234,777.901 481.173,764 480.268,764 C479.929,764 480.63,765.042 481.826,766.314 M966.815,778.936 C966.642,779.388 962.337,781.843 957.25,784.39 C952.163,786.936 948,789.215 948,789.453 C948,790.013 968.239,781.085 969.317,780.05 C969.767,779.619 969.458,779.006 968.632,778.689 C967.805,778.372 966.988,778.483 966.815,778.936 M441.5,845.784 C442.734,846.921 459.708,861.228 465.485,866 C467.815,867.925 473.675,872.875 478.507,877 C483.339,881.125 488.464,885.496 489.896,886.714 C491.328,887.932 492.843,888.944 493.261,888.964079 C494.049,889.001 521.316,876.079 537.997,867.762 L547.5,863.025 L520.5,863.635 C503.161,864.026 492.248,863.877 490,863.219 C488.075,862.655 478.85,859.289 469.5,855.739 C443.914,846.025 440.41,844.779 441.5,845.784 M25.478,887.184 C21.64,893.85 17.241,901.598 15.703,904.402 C14.164,907.206 11.188,912.425 9.09,916 C2.025,928.035 1.153,926.594 16.28,927.882 C23.551,928.502 35.119,929.488 41.987,930.074 C48.855,930.661 54.625,931.291 54.809,931.476 C55.143,931.809 47.516,946.637 41.78,956.809 C40.133,959.729 38.991,962.324 39.242,962.575 C39.493,962.826 52.285,962.912 67.669,962.766 L95.64,962.5 L86.41,940 C81.334,927.625 76.712,916.375 76.139,915 C75.567,913.625 74.626,911.263 74.049,909.75 C70.621,900.763 71.523,900.489 64.952,912.504 C61.679,918.49 58.99,923.638 58.978,923.944 C58.966,924.25 58.141,925.559 57.145,926.853 L55.335,929.207 L53.252,924.353 C52.105,921.684 47.329,910.166 42.638,898.757 C37.946,887.349 33.736,877.35 33.282,876.539 C32.681,875.465 30.555,878.364 25.478,887.184 M157.67,926.25 C156.271,929.688 152.811,937.675 149.981,944 C141.085,963.88 141.394,962.266 144.721,971.5 L147.603,979.5 L151.551,979.388 C153.723,979.326 157.75,978.826 160.5,978.276 C173.659,975.647 196.525,970.803 196.728,970.602 C196.854,970.478 193.906,966.129 190.177,960.938 C186.448,955.747 180.896,947.9 177.84,943.5 C174.784,939.1 170.844,933.475 169.085,931 C167.325,928.525 164.967,925.038 163.844,923.25 C162.721,921.462 161.445,920 161.008,920 C160.57,920 159.068,922.813 157.67,926.25 M771.736,936.007 C770.781,938.211 770,940.798 770,941.757 C770,942.716 769.307,946.651 768.461,950.5 C763.567,972.757 763.299,970.956 771.5,970.99 C776.553,971.012 787.914,972.58 788.698,973.365 C788.932,973.599 786.842,978.337 784.053,983.895 L778.982,994 L796.491,994 C806.121,994 814,993.887 814,993.75 C814,993.612 810.85,984.339 807,973.142 C803.15,961.945 799.977,952.495 799.949,952.142 C799.922,951.789 797.863,955.494 795.375,960.376 C792.849,965.333 790.477,968.865 790.002,968.376 C789.535,967.894 788.264,965.25 787.178,962.5 C786.093,959.75 783.089,952.55 780.503,946.5 C777.917,940.45 775.568,934.712 775.284,933.75 C774.494,931.077 773.635,931.623 771.736,936.007 M857.56,966.511 C856.702,968.564 856,970.66 856,971.168 C856,972.247 851.311,987.45 849.956,990.763 C849.238,992.519 849.725,994.433 852.13,999.31 L855.23,1005.595 L867.607,1002.048 C874.415,1000.096 879.988,998.081 879.993007,997.57 C879.997,997.058 878.253,993.908 876.117,990.57 C873.981,987.231 869.283,979.612 865.677,973.639 L859.12,962.778 L857.56,966.511 M426.956,1035.748 C422.855,1042.753 419.019,1049.388 418.43,1050.493 C417.842,1051.597 416.154,1054.404 414.68,1056.73 C413.206,1059.057 412,1061.237 412,1061.576 C412,1061.914 411.164,1063.386 410.142,1064.846 C409.12,1066.306 406.856,1070.088 405.112,1073.25 L401.94,1079 L405.22,1079.118 C412.418,1079.377 419.948,1079.948 429,1080.921 C434.225,1081.482 442.352,1082.213 447.061,1082.545 C451.769,1082.877 456.198,1083.505 456.904,1083.94 C457.864,1084.534 456.186,1088.66 450.225,1100.366 L442.265,1116 L471.591,1116 L500.916,1116 L497.847,1109.25 C490.436,1092.952 476.664,1062.177 475.247,1058.75 C474.394,1056.688 473.331,1055 472.885,1055 C472.438,1055 469.497,1060.175 466.35,1066.5 C463.203,1072.825 460.372,1078 460.058,1078 C459.745,1078 458.853,1076.537 458.077,1074.75 C457.301,1072.963 454.32,1066.325 451.453,1060 C448.585,1053.675 443.876,1043.1 440.987,1036.5 C438.097,1029.9 435.436,1024.165 435.072,1023.756 C434.709,1023.346 431.056,1028.743 426.956,1035.748 M562.6,1077.007 C560.644,1082.576 552.354,1109.162 550.42,1116.069 C550.178,1116.931 552.243,1122.264 555.008,1127.919 C559.125,1136.336 560.35,1138.078 561.768,1137.525 C563.737,1136.757 568.989,1135.428 587.5,1131.013 C594.65,1129.307 602.424,1127.42 604.777,1126.819 L609.053,1125.725 L603.277,1119.573 C600.099,1116.19 592.325,1107.604 586,1100.494 C567.167,1079.322 563.189,1075.329 562.6,1077.007"/></g></svg>