<svg xmlns="http://www.w3.org/2000/svg" width="829.101" height="923.749" viewBox="0 0 829.101 923.749"><g fill="#ABABAB" fill-rule="evenodd"><path fill-opacity=".18" d="M641.848913,3.455 C631.857913,6.732 631.167913,7.162 614.798913,20.279 L598.000913,33.74 L586.863913,60.633 C579.640913,78.074 575.615913,89.107 575.413913,92.025 L575.100913,96.525 L559.964913,104.243 L544.828913,111.961 L544.098913,138.27 L543.367913,164.579 L552.924913,183.674 C562.324913,202.453 562.472913,202.861 561.908913,208.329 C561.364913,213.597 561.560913,214.245 565.634913,220.696 C567.999913,224.44 569.918913,227.959 569.899913,228.514 C569.880913,229.07 567.068913,234.363 563.650913,240.276 L557.435913,251.027 L548.364913,243.276 C534.791913,231.679 534.396913,231.216 530.090913,221.815 L526.100913,213.105 L521.489913,213.065 C517.117913,213.027 516.902913,212.895 517.355913,210.525 C517.618913,209.15 517.606913,208.025 517.327913,208.025 C517.049913,208.025 511.772913,210.275 505.600913,213.025 C499.428913,215.775 494.224913,218.025 494.035913,218.025 C493.845913,218.025 493.388913,216.562 493.018913,214.775 C492.493913,212.238 490.059913,209.59 481.929913,202.708 L471.511913,193.891 L466.320913,194.208 L461.130913,194.525 L459.698913,190.427 L458.266913,186.328 L446.470913,183.494 L434.674913,180.659 L428.120913,183.26 L421.566913,185.86 L420.057913,182.943 C419.228913,181.338 418.223913,180.039 417.824913,180.055 C417.426913,180.072 412.844913,182.528 407.642913,185.514 C402.440913,188.499 398.041913,190.799 397.866913,190.624 C397.691913,190.449 398.037913,186.081 398.635913,180.916 C399.233913,175.751 399.582913,167.341 399.411913,162.228 L399.100913,152.931 L393.651913,168.228 C388.564913,182.508 387.833913,183.909 382.651913,189.296 L377.100913,195.067 L372.350913,188.123 C367.634913,181.229 367.600913,181.122 367.600913,172.976 C367.600913,165.021 367.755913,164.482 372.732913,155.149 L377.864913,145.525 L368.781913,154.456 C360.950913,162.155 359.186913,164.535 355.985913,171.718 C352.598913,179.319 352.372913,180.374 353.404913,183.737 C354.026913,185.764 354.359913,187.599 354.144913,187.814 C353.930913,188.029 346.857913,183.312 338.427913,177.333 L323.100913,166.461 L320.620913,151.663 C318.149913,136.919 318.131913,136.867 315.620913,137.287 C314.234913,137.518 308.095913,138.772 301.977913,140.073 L290.855913,142.439 L248.977913,123.339 L207.100913,104.24 L158.600913,94.632 C131.925913,89.348 108.111913,85.025 105.681913,85.025 C101.551913,85.025 -0.775087057,108.983 0.00443098756,109.766 C0.205912943,109.964 25.8359129,108.027 56.9639129,105.462 C88.0909129,102.896 114.641913,101.069 115.964913,101.401 C117.507913,101.789 128.179913,113.391 145.735913,133.765 L173.100913,165.525 L172.207913,193.025 L171.315913,220.525 L124.840913,232.025 L78.3659129,243.525 L127.774913,245.025 L177.183913,246.525 L206.142913,273.525 L235.100913,300.525 L244.640913,330.025 L254.181913,359.525 L217.640913,374.319 C197.543913,382.455 182.450913,388.915 184.100913,388.673 C185.750913,388.432 203.991913,385.847 224.635913,382.929 L262.170913,377.625 L284.135913,387.067 L306.100913,396.509 L318.100913,414.592 L330.100913,432.674 L290.782913,462.1 C269.157913,478.284 251.208913,491.918 250.896913,492.399 C250.584913,492.879 271.203913,482.672 296.715913,469.716 C342.541913,446.444 343.406913,446.058 368.485913,437.593 C382.447913,432.881 394.688913,429.025 395.688913,429.025 C397.876913,429.025 402.600913,431.074 402.600913,432.023 C402.600913,432.396 396.828913,438.411 389.774913,445.391 L376.948913,458.082 L373.247913,471.303 C371.211913,478.575 369.551913,484.975 369.558913,485.525 C369.564913,486.075 371.907913,492.775 374.763913,500.414 L379.956913,514.303 L376.007913,517.914 C373.835913,519.9 367.330913,525.614 361.552913,530.611 L351.047913,539.696 L347.128913,556.47 L343.209913,573.245 L347.696913,591.365 L352.183913,609.486 L340.537913,628.167 L328.891913,646.849 L327.587913,667.348 L326.283913,687.847 L335.710913,703.186 L345.137913,718.525 L332.384913,740.525 C322.569913,757.457 319.637913,763.331 319.657913,766.025 C319.671913,767.95 320.710913,777.54 321.966913,787.337 L324.249913,805.148 L338.237913,819.337 L352.226913,833.525 L347.981913,862.025 C345.647913,877.7 343.706913,891.732 343.668913,893.208 C343.611913,895.471 345.833913,897.744 357.864913,907.728 L372.129913,919.564 L393.913913,921.913 C405.895913,923.204 415.960913,923.999 416.280913,923.678 C416.601913,923.358 414.495913,907.314 411.600913,888.025 C408.705913,868.736 406.540913,852.752 406.787913,852.504 C407.035913,852.257 422.956913,859.406 442.169913,868.392 C470.334913,881.565 477.501913,884.549 479.169913,883.799 C481.052913,882.953 481.403913,881.171 483.074913,864.021 L484.911913,845.173 L494.009913,819.849 L503.107913,794.525 L479.104913,786.916 L455.100913,779.308 L454.800913,775.328 C454.528913,771.716 455.129913,770.571 461.300913,762.936 L468.100913,754.525 L472.639913,720.275 L477.179913,686.025 L460.139913,686.026 L443.100913,686.028 L443.437913,680.622 L443.774913,675.216 L451.437913,669.927 L459.100913,664.639 L469.662913,638.033 L480.224913,611.427 L465.662913,608.436 L451.100913,605.446 L451.409913,601.985 C451.937913,596.062 452.403913,595.522 460.355913,591.621 L468.100913,587.821 L481.179913,563.525 L494.258913,539.229 L488.429913,536.443 C485.223913,534.911 482.632913,533.178 482.672913,532.591 C482.711913,532.005 485.086913,526.35 487.950913,520.025 L493.156913,508.525 L499.744913,505.025 L506.333913,501.525 L501.471913,495.55 L496.608913,489.575 L514.854913,484.748 C532.117913,480.18 533.581913,479.953 542.025913,480.522 C546.934913,480.853 551.271913,481.322 551.663913,481.564 C552.055913,481.806 550.383913,489.94 547.946913,499.64 C545.510913,509.339 543.648913,517.385 543.808913,517.521 C543.969913,517.656 553.779913,509.613 565.609913,499.646 L587.118913,481.525 L585.001913,469.535 L582.884913,457.545 L591.986913,443.035 C596.991913,435.055 603.890913,422.545 607.316913,415.235 C610.741913,407.926 615.661913,399.151 618.249913,395.735 C620.836913,392.32 623.073913,389.364 623.218913,389.167 C623.364913,388.969 627.501913,391.107 632.410913,393.917 C637.320913,396.726 641.665913,399.025 642.066913,399.025 C642.467913,399.025 651.059913,393.4 661.159913,386.525 C671.259913,379.65 679.765913,374.025 680.061913,374.025 C681.933913,374.025 678.891913,378.301 665.100913,395.057 C656.575913,405.414 649.589913,414.257 649.575913,414.707 C649.513913,416.752 671.067913,460.025 672.148913,460.025 C672.817913,460.025 680.841913,458.225 689.977913,456.025 C699.114913,453.825 706.785913,452.025 707.025913,452.025 C707.265913,452.025 707.605913,453.037 707.780913,454.275 C708.057913,456.22 705.421913,458.202 688.350913,468.884 C672.491913,478.809 668.611913,481.665 668.657913,483.384 C668.688913,484.562 670.601913,496.546 672.907913,510.016 L677.100913,534.508 L695.089913,537.028 C713.165913,539.561 715.155913,540.297 712.849913,543.596 C712.437913,544.185 703.327913,546.435 692.605913,548.596 L673.111913,552.525 L668.931913,578.525 C666.632913,592.825 664.717913,605.761 664.675913,607.271 C664.609913,609.706 666.068913,610.994 677.600913,618.676 C689.949913,626.903 690.600913,627.504 690.600913,630.681 C690.600913,632.52 690.263913,634.03 689.850913,634.035 C689.437913,634.041 681.346913,632.833 671.868913,631.351 C662.390913,629.869 654.453913,628.851 654.229913,629.09 C654.005913,629.329 647.022913,643.135 638.711913,659.769 C628.337913,680.531 623.600913,691.053 623.600913,693.332 C623.600913,695.158 624.272913,701.745 625.093913,707.97 L626.586913,719.288 L618.937913,731.5 L611.289913,743.712 L595.694913,738.862 C587.117913,736.194 578.994913,733.717 577.641913,733.357 C575.559913,732.804 576.239913,734.068 582.079913,741.614 C585.872913,746.515 590.038913,751.824 591.337913,753.411 L593.700913,756.297 L580.606913,764.784 C573.404913,769.451 567.675913,773.434 567.875913,773.634 C568.076913,773.834 574.283913,771.573 581.670913,768.61 C589.056913,765.647 595.832913,763.066 596.726913,762.874 C597.840913,762.635 603.011913,768.51 613.140913,781.525 C621.274913,791.975 637.557913,811.899 649.325913,825.801 L670.721913,851.077 L670.668913,878.801 L670.615913,906.525 L675.568913,898.025 C678.292913,893.35 688.532913,875.8 698.325913,859.025 L716.129913,828.525 L733.115913,824.068 L750.100913,819.611 L765.350913,794.665 L780.600913,769.72 L780.600913,735.971 L780.600913,702.221 L796.850913,686.873 L813.100913,671.525 L819.602913,647.025 L826.105913,622.525 L819.424913,598.025 C815.749913,584.55 812.710913,572.531 812.671913,571.317 C812.632913,570.103 816.312913,559.078 820.850913,546.817 L829.100913,524.525 L828.100913,505.025 L827.100913,485.525 L817.815913,467.834 L808.531913,450.143 L808.639913,427.886 L808.747913,405.629 L802.936913,386.077 L797.126913,366.525 L781.113913,356.998 L765.100913,347.471 L762.630913,328.498 L760.161913,309.525 L743.130913,294.751 C733.764913,286.626 722.477913,277.359 718.050913,274.158 L709.999913,268.338 L698.550913,267.047 C692.252913,266.338 686.834913,265.61 686.509913,265.43 C686.184913,265.251 686.418913,262.055 687.030913,258.328 L688.141913,251.553 L677.638913,234.539 L667.136913,217.525 L653.703913,207.121 L640.269913,196.716 L643.706913,193.621 C645.596913,191.918 648.746913,189.142 650.706913,187.451 L654.269913,184.377 L655.688913,160.451 L657.107913,136.525 L653.353913,126.528 C651.289913,121.029 649.600913,116.469 649.600913,116.395 C649.600913,116.321 653.033913,115.938 657.228913,115.545 L664.857913,114.83 L682.543913,100.178 L700.229913,85.525 L704.121913,69.775 L708.012913,54.025 L716.928913,54.025 L725.844913,54.025 L741.927913,62.159 C756.644913,69.603 759.075913,71.235 770.555913,81.382 C794.057913,102.153 797.973913,105.525 797.432913,104.525 C797.135913,103.975 791.114913,92.725 784.053913,79.525 L771.215913,55.525 L754.658913,38.025 L738.100913,20.525 L713.600913,10.262 L689.100913,0 L670.600913,0.046 C652.357913,0.091 651.958913,0.138 641.848913,3.455 M500.204913,276.351 C494.505913,281.173 495.865913,282.463 503.211913,279.204 L509.321913,276.493 L507.022913,274.759 C505.758913,273.805 504.583913,273.032 504.412913,273.039938 C504.240913,273.048 502.347913,274.538 500.204913,276.351 M597.600913,315.391 C597.600913,317.283 608.909913,342.725 610.506913,344.425 C611.658913,345.651 612.600913,347.502 612.600913,348.539 C612.600913,352.363 614.564913,348.262 619.831913,333.441 L625.192913,318.356 L612.646913,316.668 C599.799913,314.939 597.600913,314.752 597.600913,315.391 M400.555913,342.66 C397.493913,351.852 397.377913,352.76 398.037913,362.41 C398.417913,367.973 399.037913,374.964 399.414913,377.945 L400.100913,383.366 L407.850913,365.622 C412.112913,355.862 415.600913,347.534 415.600913,347.114 C415.600913,346.125 407.539913,334.751 406.157913,333.79 C404.163913,332.404 403.758913,333.046 400.555913,342.66 M472.428913,507.231 C470.178913,508.517 468.577913,510.301 468.224913,511.916 C467.911913,513.351 466.988913,516.664 466.174913,519.279 L464.694913,524.032 L468.625913,526.038 L472.557913,528.044 L473.061913,525.784 C474.427913,519.659 476.713913,505.805 476.408913,505.5 C476.218913,505.309 474.427913,506.088 472.428913,507.231"/><path fill-opacity=".211" d="M683.600913,11.025 C681.229913,17.075 679.086913,22.025 678.837913,22.025 C678.589913,22.025 673.281913,17.993 667.042913,13.064 C651.837913,1.053 652.517913,1.421 648.889913,3.231 C647.234913,4.057 639.216913,10.311 631.071913,17.129 L616.262913,29.525 L607.201913,31.535 L598.139913,33.545 L587.256913,59.535 C579.951913,76.981 576.164913,87.333 575.737913,91.025 L575.100913,96.525 L559.964913,104.243 L544.828913,111.961 L544.098913,138.27 L543.367913,164.579 L552.924913,183.674 C562.324913,202.453 562.472913,202.861 561.908913,208.329 C561.364913,213.597 561.560913,214.245 565.634913,220.696 C567.999913,224.44 569.918913,227.959 569.899913,228.514 C569.880913,229.07 567.068913,234.363 563.650913,240.276 L557.435913,251.027 L548.364913,243.276 C534.791913,231.679 534.396913,231.216 530.090913,221.815 L526.100913,213.105 L521.489913,213.065 C517.117913,213.027 516.902913,212.895 517.355913,210.525 C517.618913,209.15 517.533913,208.025 517.167913,208.025 C515.565913,208.025 510.791913,211.084 510.269913,212.446 C509.762913,213.766 504.864913,215.579 496.413913,217.576 C493.987913,218.149 493.658913,217.885 493.036913,214.868 C492.487913,212.212 490.181913,209.693 481.809913,202.605 C476.013913,197.699 471.500913,194.099 471.779913,194.605 C472.058913,195.111 474.631913,199.453 477.497913,204.253 L482.708913,212.982 L481.050913,222.003 C478.431913,236.254 477.481913,235.358 466.934913,208.68 L458.100913,186.334 L448.861913,184.089 C443.779913,182.854 438.663913,181.593 437.492913,181.286 C435.827913,180.851 437.162913,183.415 443.621913,193.057 L451.880913,205.384 L448.806913,210.932 C447.116913,213.984 445.269913,216.635 444.703913,216.824 C442.836913,217.446 442.475913,212.573 444.087913,208.513 L445.671913,204.525 L443.183913,207.275 C441.815913,208.788 440.512913,210.025 440.288913,210.025 C440.064913,210.025 437.005913,205.318 433.490913,199.564 C429.071913,192.331 426.636913,189.243 425.597913,189.554 C424.605913,189.85 423.140913,188.307 421.289913,185.014 C419.747913,182.27 418.173913,180.039 417.792913,180.055 C417.412913,180.072 412.844913,182.528 407.642913,185.514 C402.440913,188.499 398.032913,190.79 397.846913,190.604 C397.660913,190.418 397.978913,186.511 398.554913,181.922 C399.129913,177.332 399.548913,170.866 399.484913,167.551 C399.352913,160.693 398.995913,161.625 398.090913,171.184 C397.544913,176.959 397.166913,177.917 395.248913,178.399 C393.496913,178.838 392.457913,180.73 390.256913,187.489 C388.034913,194.311 387.087913,196.025 385.538913,196.025 C383.157913,196.025 383.153913,196.242 385.669913,189.812 L387.738913,184.525 L383.212913,188.941 C380.723913,191.369 378.900913,193.701 379.160913,194.122 C379.420913,194.542 379.228913,195.137 378.732913,195.443 C378.237913,195.749 375.530913,192.669 372.716913,188.599 L367.600913,181.198 L367.600913,172.947 C367.600913,165.175 367.839913,164.255 371.718913,157.11 C376.651913,148.025 375.721913,148.738 368.567913,159.525 C361.930913,169.532 359.637913,171.379 359.565913,166.775 C359.530913,164.553 359.511913,164.557 358.100913,167.025 C357.314913,168.4 356.655913,170.784 356.635913,172.323 C356.616913,173.862 355.776913,176.828 354.768913,178.913 C353.485913,181.569 353.192913,183.393 353.790913,185.009 C354.259913,186.278 354.443913,187.515 354.198913,187.76 C353.954913,188.004 346.857913,183.312 338.427913,177.333 L323.100913,166.461 L320.620913,151.663 C318.149913,136.919 318.131913,136.867 315.620913,137.287 C314.234913,137.518 308.095913,138.772 301.977913,140.073 L290.855913,142.439 L248.977913,123.336 C207.282913,104.316 207.039913,104.221 193.100913,101.51 C185.400913,100.013 177.937913,98.688 176.514913,98.567 C175.092913,98.446 173.401913,98.02 172.756913,97.621 C172.110913,97.222 170.686913,97.18 169.591913,97.528 C168.437913,97.894 167.600913,97.703 167.600913,97.073 C167.600913,96.414 166.618913,96.233 165.100913,96.614 C163.586913,96.994 162.600913,96.815 162.600913,96.158 C162.600913,95.476 161.432913,95.309 159.445913,95.706 C157.278913,96.139 156.502913,95.993 156.967913,95.24 C157.433913,94.487 156.464913,94.307 153.872913,94.667 C150.951913,95.073 150.438913,94.94 151.600913,94.077 C152.799913,93.187 152.599913,93.079 150.600913,93.537 C149.225913,93.852 137.750913,92.292 125.100913,90.07 C98.9419129,85.474 99.6009129,85.542 99.6009129,87.446 C99.6009129,89.122 100.491913,88.921 70.6009129,94.007 C49.6399129,97.573 -0.898087057,108.86 0.0129129432,109.77 C0.207912943,109.966 25.8359129,108.027 56.9639129,105.462 C88.0909129,102.896 114.641913,101.069 115.964913,101.401 C117.507913,101.789 128.179913,113.391 145.735913,133.765 L173.100913,165.525 L172.100913,193.575 C171.273913,216.772 170.815913,222.06 169.452913,224.135 C167.878913,226.531 166.990913,226.725 149.675913,228.462 C134.372913,229.998 127.379913,231.325 104.823913,236.974 L78.1009129,243.666 L127.557913,245.006 L177.015913,246.347 L206.057913,273.436 L235.100913,300.525 L244.668913,330.131 L254.235913,359.736 L251.159913,361.844 C249.467913,363.004 242.461913,365.757 235.591913,367.962 C221.334913,372.539 179.556913,389.345 184.100913,388.676 C185.750913,388.433 203.991913,385.847 224.635913,382.929 L262.170913,377.625 L284.135913,387.067 L306.100913,396.509 L318.100913,414.582 C327.284913,428.413 330.025913,433.287 329.783913,435.35 C329.510913,437.666 327.232913,439.372 313.625913,447.449 C300.616913,455.171 257.196913,486.206 251.600913,491.781 C250.775913,492.603 271.025913,482.675 296.600913,469.718 C342.447913,446.492 343.457913,446.04 368.485913,437.593 C382.447913,432.881 394.688913,429.025 395.688913,429.025 C397.879913,429.025 402.600913,431.075 402.600913,432.027 C402.600913,432.401 396.975913,438.268 390.100913,445.065 C379.032913,456.007 377.600913,457.807 377.600913,460.783 C377.600913,462.649 377.178913,463.882 376.651913,463.556 C375.784913,463.021 373.677913,469.023 370.474913,481.148 C369.293913,485.621 369.422913,486.224 374.442913,499.648 C377.295913,507.281 379.623913,513.838 379.615913,514.221 C379.607913,514.605 373.258913,520.402 365.507913,527.106 L351.413913,539.294 L352.068913,543.659 C352.640913,547.475 352.490913,548.025 350.875913,548.025 C349.328913,548.025 348.554913,550.085 346.126913,560.669 L343.226913,573.313 L347.707913,591.411 L352.189913,609.509 L340.781913,627.758 C330.439913,644.303 329.434913,646.326 330.015913,649.423 C330.402913,651.487 330.239913,652.979 329.603913,653.191 C328.984913,653.397 328.075913,660.586 327.394913,670.657 L326.237913,687.773 L335.687913,703.149 L345.137913,718.525 L332.384913,740.525 C325.370913,752.625 319.624913,762.989 319.615913,763.556 C319.607913,764.122 324.136913,775.147 329.680913,788.056 C335.224913,800.964 341.095913,814.675 342.726913,818.525 L345.691913,825.525 L334.896913,815.029 C328.958913,809.256 333.096913,813.644 344.091913,824.779 C355.085913,835.914 364.307913,845.025 364.583913,845.025 C364.860913,845.025 361.188913,841.127 356.423913,836.363 L347.761913,827.7 L365.980913,807.613 L384.199913,787.525 L387.632913,764.769 C389.520913,752.254 391.376913,742.129 391.756913,742.269 C392.137913,742.41 397.922913,749.275 404.613913,757.525 C411.305913,765.775 417.098913,772.862 417.488913,773.273 C417.877913,773.685 423.289913,771.974 429.514913,769.472 C435.738913,766.97 440.952913,765.058 441.099913,765.224 C441.246913,765.39 428.918913,779.726 413.704913,797.083 L386.041913,828.642 L381.295913,841.474 C378.684913,848.532 376.769913,854.528 377.039913,854.798 C377.309913,855.067 383.946913,854.468 391.787913,853.466 L406.044913,851.643 L421.085913,840.586 L436.127913,829.528 L444.074913,812.705 C448.446913,803.453 452.312913,795.703 452.667913,795.484 C453.022913,795.264 458.399913,803.059 464.617913,812.805 C470.834913,822.551 476.365913,830.975 476.907913,831.525 C478.247913,832.884 478.455913,833.257 465.731913,811.44 L454.600913,792.356 L454.600913,781.79 L454.600913,771.225 L461.350913,762.875 L468.100913,754.525 L472.639913,720.275 L477.179913,686.025 L460.139913,686.026 L443.100913,686.028 L443.437913,680.622 L443.774913,675.216 L451.437913,669.927 L459.100913,664.639 L469.662913,638.033 L480.224913,611.427 L465.662913,608.436 L451.100913,605.446 L451.409913,601.985 C451.937913,596.062 452.403913,595.522 460.355913,591.621 L468.100913,587.821 L481.179913,563.525 L494.258913,539.229 L488.429913,536.443 C485.223913,534.911 482.632913,533.178 482.672913,532.591 C482.711913,532.005 485.086913,526.35 487.950913,520.025 L493.156913,508.525 L499.744913,505.025 L506.333913,501.525 L501.465913,495.544 L496.598913,489.562 L515.659913,484.624 C534.489913,479.746 534.829913,479.697 543.661913,480.611 L552.601913,481.536 L553.214913,478.269 C553.946913,474.367 553.807913,474.461 560.100913,473.578 L565.100913,472.877 L557.980913,480.201 L550.859913,487.525 L547.192913,502.404 C545.175913,510.587 543.654913,517.391 543.812913,517.525 C543.970913,517.658 553.779913,509.613 565.609913,499.646 L587.118913,481.525 L585.001913,469.535 L582.884913,457.545 L591.986913,443.035 C596.991913,435.055 603.890913,422.545 607.316913,415.235 C610.741913,407.926 615.661913,399.151 618.249913,395.735 C620.836913,392.32 623.073913,389.364 623.218913,389.167 C623.364913,388.969 627.501913,391.107 632.410913,393.917 C637.320913,396.726 641.665913,399.025 642.066913,399.025 C642.467913,399.025 651.059913,393.4 661.159913,386.525 C671.259913,379.65 679.765913,374.025 680.061913,374.025 C681.933913,374.025 678.891913,378.301 665.100913,395.057 C656.575913,405.414 649.589913,414.257 649.575913,414.707 C649.513913,416.752 671.067913,460.025 672.148913,460.025 C672.817913,460.025 680.841913,458.225 689.977913,456.025 C699.114913,453.825 706.785913,452.025 707.025913,452.025 C707.265913,452.025 707.605913,453.038 707.780913,454.275 C708.057913,456.22 705.421913,458.202 688.350913,468.884 C672.491913,478.809 668.611913,481.665 668.657913,483.384 C668.688913,484.562 670.601913,496.546 672.907913,510.016 L677.100913,534.508 L695.089913,537.028 C713.165913,539.561 715.155913,540.297 712.849913,543.596 C712.437913,544.185 703.327913,546.435 692.605913,548.596 L673.111913,552.525 L668.931913,578.525 C666.632913,592.825 664.717913,605.761 664.675913,607.271 C664.609913,609.706 666.068913,610.994 677.600913,618.676 C689.949913,626.903 690.600913,627.504 690.600913,630.681 C690.600913,632.52 690.263913,634.03 689.850913,634.035 C689.437913,634.041 681.346913,632.833 671.868913,631.351 C662.390913,629.869 654.453913,628.851 654.229913,629.09 C653.331913,630.05 623.600913,690.077 623.600913,690.931 C623.600913,691.437 626.969913,693.802 631.088913,696.188 C635.206913,698.573 638.581913,700.94 638.588913,701.446 C638.594913,701.953 637.816913,703.303 636.857913,704.446 C635.519913,706.043 635.737913,705.975 637.798913,704.157 L640.481913,701.788 L665.833913,716.675 L691.185913,731.561 L662.643913,739.942 C646.944913,744.552 633.255913,748.549 632.222913,748.824 C630.416913,749.306 630.372913,748.607 631.051913,730.425 C631.670913,713.859 631.580913,711.772 630.321913,713.525 C626.910913,718.276 610.411913,745.164 610.739913,745.439 C610.938913,745.605 615.273913,746.538 620.373913,747.511 C627.326913,748.839 634.580913,751.438 649.374913,757.903 L669.103913,766.525 L691.190913,785.525 L713.277913,804.525 L714.589913,816.275 C715.310913,822.737 716.170913,828.041 716.500913,828.06 C716.830913,828.079 724.525913,826.191 733.600913,823.864 L750.100913,819.634 L765.350913,794.677 L780.600913,769.72 L780.600913,735.971 L780.600913,702.221 L796.850913,686.873 L813.100913,671.525 L819.602913,647.025 L826.105913,622.525 L819.424913,598.025 C815.749913,584.55 812.710913,572.531 812.671913,571.317 C812.632913,570.103 816.312913,559.078 820.850913,546.817 L829.100913,524.525 L828.100913,505.025 L827.100913,485.525 L817.815913,467.834 L808.531913,450.143 L808.639913,427.886 L808.747913,405.629 L802.936913,386.077 L797.126913,366.525 L781.113913,356.998 L765.100913,347.471 L762.630913,328.498 L760.161913,309.525 L743.130913,294.751 C733.764913,286.626 722.477913,277.359 718.050913,274.158 L709.999913,268.338 L698.550913,267.047 C692.252913,266.338 686.834913,265.61 686.509913,265.43 C686.184913,265.251 686.418913,262.055 687.030913,258.328 L688.141913,251.553 L677.638913,234.539 L667.136913,217.525 L653.703913,207.121 L640.269913,196.716 L643.706913,193.621 C645.596913,191.918 648.746913,189.142 650.706913,187.451 L654.269913,184.377 L655.688913,160.451 L657.107913,136.525 L653.353913,126.528 C651.289913,121.029 649.600913,116.469 649.600913,116.395 C649.600913,116.321 653.033913,115.938 657.228913,115.545 L664.857913,114.83 L682.543913,100.178 L700.229913,85.525 L704.121913,69.775 L708.012913,54.025 L716.928913,54.025 L725.844913,54.025 L741.927913,62.159 C756.644913,69.603 759.075913,71.235 770.555913,81.382 C794.057913,102.153 797.973913,105.525 797.432913,104.525 C797.135913,103.975 791.114913,92.725 784.053913,79.525 L771.215913,55.525 L754.658913,38.025 L738.100913,20.525 L713.600913,10.262 C700.125913,4.618 688.832913,0.0119920439 688.505913,0.0119920439 C688.178913,0.0119920439 685.971913,4.975 683.600913,11.025 M297.897913,149.463 C301.085913,152.522 304.289913,155.025 305.017913,155.025 C306.221913,155.025 308.040913,146.16 307.045913,145.144 C306.839913,144.935 303.393913,144.569 299.386913,144.332 L292.100913,143.9 L297.897913,149.463 M354.287913,199.83 C352.809913,201.372 351.600913,203.103 351.600913,203.675 C351.600913,204.861 355.414913,208.56 355.993913,207.936 C356.550913,207.336 357.861913,197.025 357.381913,197.025 C357.157913,197.025 355.765913,198.287 354.287913,199.83 M368.772913,203.396 C367.249913,211.659 367.283913,212.233 369.276913,211.848 C370.683913,211.577 370.911913,210.404 370.698913,204.531 C370.559913,200.684 370.332913,197.423 370.194913,197.286 C370.056913,197.148 369.416913,199.897 368.772913,203.396 M382.707913,213.063 C382.031913,215.318 381.831913,218.091 382.254913,219.319 C382.832913,220.994 383.182913,220.081 383.709913,215.525 C384.091913,212.225 384.295913,209.41 384.162913,209.269 C384.029913,209.128 383.374913,210.835 382.707913,213.063 M398.774913,213.339 C396.422913,215.843 396.038913,217.025 397.574913,217.025 C398.110913,217.025 399.247913,215.675 400.100913,214.025 C401.964913,210.421 401.662913,210.265 398.774913,213.339 M434.305913,218.055 C430.072913,223.364 429.118913,226.025 431.449913,226.025 C431.850913,226.025 433.881913,222.875 435.960913,219.025 C438.039913,215.175 439.597913,212.029 439.420913,212.032996 C439.244913,212.038 436.942913,214.748 434.305913,218.055 M570.627913,219.078 C572.701913,223.142 572.928913,223.297 574.220913,221.53 C576.082913,218.983 575.956913,217.361 573.850913,216.755 C572.888913,216.478 571.271913,215.912 570.257913,215.496 C568.567913,214.803 568.598913,215.101 570.627913,219.078 M516.860913,227.75 C514.096913,232.026 507.899913,243.175 503.089913,252.525 L494.343913,269.525 L511.301913,252.706 L528.260913,235.887 L525.659913,228.518 C524.229913,224.466 522.794913,220.886 522.471913,220.563 C522.148913,220.24 519.623913,223.475 516.860913,227.75 M413.800913,225.225 C411.854913,227.171 412.405913,228.025 415.608913,228.025 C418.367913,228.025 418.513913,227.859 417.368913,226.025 C415.916913,223.701 415.433913,223.592 413.800913,225.225 M349.737913,240.275 C347.166913,251.706 347.236913,250.786 349.106913,248.525 C350.015913,247.425 351.848913,244.403 353.179913,241.81 C355.539913,237.21 355.551913,237.069 353.665913,236.06 C350.935913,234.599 351.039913,234.487 349.737913,240.275 M394.837913,259.209 C394.176913,260.96 393.770913,262.529 393.936913,262.694 C394.101913,262.86 395.757913,261.427 397.615913,259.51 C400.974913,256.044 400.979913,256.025 398.515913,256.025 C396.650913,256.025 395.742913,256.811 394.837913,259.209 M398.235913,261.888 C393.887913,266.302 393.637913,266.801 395.524913,267.295 C396.858913,267.644 397.364913,267.453 396.937913,266.762 C396.531913,266.104 396.857913,265.91 397.777913,266.263 C400.067913,267.141 401.169913,265.934 402.329913,261.275 C402.911913,258.938 403.306913,257.025 403.206913,257.025 C403.106913,257.025 400.869913,259.213 398.235913,261.888 M500.204913,276.351 C494.505913,281.173 495.865913,282.463 503.211913,279.204 L509.321913,276.493 L507.022913,274.759 C505.758913,273.805 504.583913,273.032 504.412913,273.039938 C504.240913,273.048 502.347913,274.538 500.204913,276.351 M346.600913,279.025 C347.189913,280.125 347.895913,281.025 348.170913,281.025 C348.445913,281.025 348.189913,280.125 347.600913,279.025 C347.011913,277.925 346.305913,277.025 346.030913,277.025 C345.755913,277.025 346.011913,277.925 346.600913,279.025 M350.196913,290.519 C349.297913,291.89 348.171913,292.903 347.693913,292.769 C347.215913,292.635 345.423913,294.274 343.712913,296.413 C340.385913,300.568 339.724913,301.997 342.003913,300.106 C342.774913,299.465 343.562913,299.341 343.753913,299.83 C343.944913,300.318 345.146913,299.438 346.423913,297.875 C348.032913,295.906 348.259913,295.219 347.162913,295.64 C346.006913,296.083 345.744913,295.813 346.193913,294.642 C346.532913,293.759 347.152913,293.248 347.571913,293.507 C348.310913,293.964 350.561913,291.817 352.007913,289.275 C353.308913,286.988 351.856913,287.985 350.196913,290.519 M359.174913,291.887 C358.629913,293.538 358.876913,294.73 359.997913,295.851 C361.811913,297.664 362.000913,296.596 360.677913,292.025 L359.953913,289.525 L359.174913,291.887 M597.600913,315.391 C597.600913,317.283 608.909913,342.725 610.506913,344.425 C611.658913,345.651 612.600913,347.502 612.600913,348.539 C612.600913,352.338 614.566913,348.317 619.454913,334.525 C622.182913,326.825 624.755913,319.671 625.171913,318.627 C625.832913,316.969 625.567913,316.798 623.074913,317.275 C621.504913,317.575 616.143913,317.199 611.160913,316.441 C602.065913,315.056 597.600913,314.71 597.600913,315.391 M400.555913,342.66 C397.493913,351.852 397.377913,352.76 398.037913,362.41 C398.417913,367.973 399.037913,374.964 399.414913,377.945 L400.100913,383.366 L407.850913,365.622 C412.112913,355.862 415.600913,347.534 415.600913,347.114 C415.600913,346.125 407.539913,334.751 406.157913,333.79 C404.163913,332.404 403.758913,333.046 400.555913,342.66 M604.350913,380.698 L597.600913,386.257 L597.600913,392.841 C597.600913,396.581 597.971913,399.015 598.459913,398.475 C601.414913,395.208 610.476913,381.909 611.884913,378.775 C614.238913,373.533 612.517913,373.973 604.350913,380.698 M430.825913,460.223 C423.118913,471.894 420.001913,477.76 420.985913,478.744 C421.228913,478.986 423.165913,478.184 425.289913,476.961 C428.041913,475.378 431.257913,471.577 436.469913,463.748 L443.787913,452.757 L441.368913,450.339 L438.950913,447.92 L430.825913,460.223 M472.428913,507.231 C470.178913,508.517 468.577913,510.301 468.224913,511.916 C467.911913,513.351 466.988913,516.664 466.174913,519.279 L464.694913,524.032 L468.625913,526.038 L472.557913,528.044 L473.061913,525.784 C474.427913,519.659 476.713913,505.805 476.408913,505.5 C476.218913,505.309 474.427913,506.088 472.428913,507.231 M407.917913,557.59 C405.223913,563.958 404.307913,567.025 405.099913,567.025 C405.448913,567.025 407.278913,565.847 409.167913,564.406 C412.863913,561.587 413.204913,560.151 411.258913,555.59 L410.005913,552.655 L407.917913,557.59 M702.100913,635.025 C702.440913,635.575 703.929913,635.993 705.409913,635.955 C707.812913,635.892 707.886913,635.792 706.100913,635.025 C703.322913,633.831 701.362913,633.831 702.100913,635.025 M386.136913,664.907 C385.156913,668.142 384.522913,671.265 384.727913,671.846 C384.932913,672.427 386.544913,671.692 388.309913,670.214 C391.442913,667.589 391.490913,667.424 390.352913,663.275 C389.711913,660.938 388.901913,659.025 388.552913,659.025 C388.202913,659.025 387.115913,661.672 386.136913,664.907 M767.405913,731.025 C767.002913,733.663 767.453913,735.382 769.235913,738.007 C772.065913,742.175 772.151913,741.435 769.756913,733.525 C767.948913,727.554 767.937913,727.542 767.405913,731.025 M377.656913,821.102 L370.212913,827.525 L377.527913,827.821 C381.549913,827.984 385.034913,827.924 385.271913,827.687 C385.508913,827.451 385.566913,824.427 385.401913,820.968 L385.100913,814.679 L377.656913,821.102"/><path fill-opacity=".364" d="M683.516913,11.294 L679.164913,22.564 L661.814913,35.044 C652.272913,41.909 644.051913,47.673 643.547913,47.853 C643.042913,48.034 641.330913,47.257 639.741913,46.125 L636.853913,44.069 L630.755913,53.277 C624.895913,62.126 623.943913,63.021 606.378913,76.2 C596.325913,83.743 587.964913,89.533 587.799913,89.066 C587.633913,88.6 589.759913,76.613 592.522913,62.428 C595.286913,48.244 597.427913,36.519 597.280913,36.371 C597.133913,36.224 592.322913,47.417 586.589913,61.244 C579.870913,77.449 575.961913,88.242 575.590913,91.614 L575.014913,96.845 L580.908913,93.869 C584.150913,92.233 586.914913,91.036 587.051913,91.21 C587.187913,91.383 589.535913,108.4 592.269913,129.025 C597.080913,165.321 597.178913,166.555 595.344913,167.462 C594.123913,168.065 593.209913,168.034 592.774913,167.376 C592.403913,166.813 588.556913,162.229 584.224913,157.189 C575.199913,146.688 577.521913,147.366 556.850913,149.194 L543.600913,150.365 L543.600913,157.49 L543.600913,164.615 L570.977913,169.07 L598.355913,173.525 L585.952913,198.318 C579.130913,211.955 573.223913,222.91 572.825913,222.663 C572.426913,222.416 570.098913,218.127 567.651913,213.133 C563.006913,203.653 561.621913,203.052 561.641913,210.525 C561.649913,213.514 562.744913,216.244 565.972913,221.323 C570.109913,227.833 570.351913,228.033 571.696913,226.042 C573.040913,224.05 573.885913,224.749 591.584913,242.488 L610.068913,261.013 L601.584913,269.555 L593.100913,278.096 L587.689913,277.811 C582.377913,277.53 582.249913,277.451 580.777913,273.525 C579.560913,270.282 575.510913,266.307 559.378913,252.525 C548.434913,243.175 538.546913,234.867 537.405913,234.063 C535.367913,232.628 535.356913,232.654 536.798913,235.563 L538.266913,238.525 L511.299913,263.459 C496.468913,277.173 484.779913,287.523 485.326913,286.459 C500.934913,256.064 514.419913,231.355 519.808913,223.275 L526.645913,213.025 L519.872913,213.037 C515.770913,213.045 509.554913,214.031 504.107913,215.537 C499.161913,216.906 494.794913,218.025 494.402913,218.025 C494.011913,218.025 493.388913,216.562 493.018913,214.775 C492.493913,212.237 490.053913,209.584 481.879913,202.665 C476.122913,197.792 471.948913,194.806 472.602913,196.029 C473.257913,197.252 476.899913,203.397 480.696913,209.684 C484.493913,215.971 487.600913,221.682 487.600913,222.374 C487.600913,224.108 481.653913,229.694 478.572913,230.855 C476.051913,231.804 476.019913,231.744 467.072913,209.068 L458.100913,186.329 L448.861913,184.086 C443.779913,182.853 438.664913,181.593 437.495913,181.287 C434.715913,180.56 449.371913,202.561 462.968913,219.525 C468.258913,226.125 472.152913,231.671 471.622913,231.849 C471.091913,232.027 466.072913,231.237 460.467913,230.094 C454.862913,228.951 450.087913,228.204 449.856913,228.435 C449.626913,228.666 452.840913,231.416 456.999913,234.546 L464.561913,240.238 L469.165913,237.54 C472.935913,235.33 473.588913,235.175 472.770913,236.684 C470.197913,241.432 465.769913,244.304 460.397913,244.709 L455.100913,245.109 L458.445913,243.242 L461.790913,241.375 L452.945913,240.062 C448.080913,239.339 443.075913,238.283 441.822913,237.714 C439.917913,236.848 438.773913,237.224 434.822913,240.014 C432.225913,241.849 429.616913,243.351 429.025913,243.354 C428.434913,243.356 424.461913,241.432 420.197913,239.078 L412.443913,234.798 L415.195913,231.926 C416.708913,230.346 420.456913,228.074 423.523913,226.876 C427.775913,225.216 430.110913,223.445 433.350913,219.42 C435.687913,216.517 437.600913,213.82 437.600913,213.428 C437.600913,212.415 418.491913,180.025 417.894913,180.025 C417.622913,180.025 413.013913,182.509 407.652913,185.545 C401.492913,189.032 397.487913,191.978 396.773913,193.545 C396.151913,194.909 394.967913,196.025 394.140913,196.025 C392.369913,196.025 391.948913,197.73 389.076913,216.525 C388.633913,219.422 388.666913,219.405 390.033913,216.025 L391.448913,212.525 L391.533913,218.525 L391.619913,224.525 L394.609913,219.31 C397.340913,214.549 397.618913,213.202 397.809913,203.81 L398.019913,193.525 L398.348913,203.489 L398.678913,213.452 L402.643913,208.989 L406.608913,204.525 L404.498913,210.025 C401.348913,218.239 401.240913,218.973 403.901913,214.103 L406.317913,209.68 L412.484913,218.853 L418.652913,228.025 L406.752913,228.025 C398.891913,228.025 393.451913,228.519 390.726913,229.481 C386.830913,230.855 386.600913,230.831 386.600913,229.04 C386.600913,225.995 385.301913,226.002 381.583913,229.069 L378.100913,231.943 L382.100913,231.405 L386.100913,230.867 L381.600913,233.781 C379.125913,235.384 372.842913,238.12 367.637913,239.861 C360.100913,242.382 357.303913,243.881 353.892913,247.23 C348.523913,252.498 347.034913,251.629 348.743913,244.224 C349.850913,239.432 349.735913,238.564 347.120913,231.9 L344.307913,224.73 L347.954913,217.361 C350.156913,212.909 351.600913,208.533 351.600913,206.306 C351.600913,203.562 352.370913,201.826 354.613913,199.511992 C357.484913,196.549 357.567913,196.232 356.363913,192.762 C355.296913,189.686 352.619913,187.368 339.100913,177.814 C330.300913,171.595 317.892913,163.268 311.526913,159.308 C305.160913,155.348 297.926913,149.942 295.449913,147.295 C291.272913,142.83 287.906913,141.093 249.023913,123.337 L207.100913,104.194 L154.499913,95.109 C125.569913,90.113 101.382913,86.025 100.749913,86.025 C100.016913,86.025 99.6009129,88.12 99.6009129,91.816 L99.6009129,97.606 L75.3509129,100.692 L51.1009129,103.777 L63.0889129,103.901 C69.6829129,103.969 83.7119129,103.293 94.2639129,102.398 C104.815913,101.503 114.556913,101.048 115.909913,101.388 C117.523913,101.793 127.780913,112.927 145.735913,133.765 L173.100913,165.525 L172.045913,193.525 L170.990913,221.525 L167.584913,228.917 L164.177913,236.308 L167.517913,239.097 L170.858913,241.886 L167.479913,242.435 C165.621913,242.737 159.842913,243.464 154.637913,244.051 C149.432913,244.637 144.970913,245.322 144.720913,245.571 C144.471913,245.821 151.557913,246.025 160.468913,246.025 L176.670913,246.025 L205.885913,273.275 L235.100913,300.525 L244.647913,330.067 L254.194913,359.61 L249.712913,362.989 L245.230913,366.367 L247.611913,367.946 C254.546913,372.545 255.010913,372.103 237.640913,377.461 C228.839913,380.176 221.824913,382.583 222.051913,382.81 C222.279913,383.037 231.411913,381.969 242.346913,380.437 L262.228913,377.65 L284.164913,387.08 L306.100913,396.509 L318.100913,414.59 L330.100913,432.671 L329.206913,438.55 C328.548913,442.882 328.626913,444.534 329.502913,444.826 C330.156913,445.044 316.608913,453.786 299.395913,464.254 C282.183913,474.722 267.650913,483.725 267.100913,484.261 C266.550913,484.797 283.425913,476.441 304.600913,465.692 C341.753913,446.832 343.988913,445.849 368.485913,437.587 C382.447913,432.878 394.688913,429.025 395.688913,429.025 C397.884913,429.025 402.600913,431.076 402.600913,432.03 C402.600913,432.406 397.207913,438.041 390.615913,444.551 C384.024913,451.062 378.763913,456.521 378.924913,456.683 C379.086913,456.844 386.617913,454.964 395.659913,452.505 C404.702913,450.045 412.579913,448.031 413.164913,448.029 C414.296913,448.025 422.063913,471.895 421.208913,472.75 C420.931913,473.027 414.326913,472.44 406.531913,471.446 L392.357913,469.637 L385.228913,463.914 C381.308913,460.766 377.941913,458.631 377.746913,459.169 C377.386913,460.165 381.665913,497.213 382.220913,497.904 C382.387913,498.112 391.429913,492.726 402.312913,485.934 L422.100913,473.585 L430.567913,460.656 L439.033913,447.727 L446.794913,456.126 C452.624913,462.437 454.560913,465.229 454.577913,467.357 C454.591913,469.079 455.950913,471.835 458.046913,474.394 L461.492913,478.599 L437.923913,490.371 C415.566913,501.537 414.388913,502.004 415.028913,499.455 L415.703913,496.767 L411.901913,499.04 C409.157913,500.682 406.768913,501.26 403.310913,501.118 L398.519913,500.922 L401.496913,506.818 L404.472913,512.714 L398.757913,518.37 C395.614913,521.48 392.762913,524.025 392.421913,524.025 C392.079913,524.025 387.166913,516.163 381.504913,506.554 C375.841913,496.945 371.083913,489.209 370.930913,489.361 C370.778913,489.514 372.666913,494.945 375.126913,501.429 C377.587913,507.914 379.600913,513.608 379.600913,514.082 C379.600913,514.556 373.525913,520.18 366.100913,526.58 C358.675913,532.98 352.600913,538.379 352.600913,538.577 C352.600913,538.913 357.964913,537.03 379.541913,529.12 C384.184913,527.418 388.122913,526.025 388.291913,526.025 C389.187913,526.025 388.394913,529.41 387.000913,531.537 C385.455913,533.895 385.639913,534.432 392.413913,547.308 L399.426913,560.638 L383.977913,558.523 L368.528913,556.409 L360.064913,547.989 C355.409913,543.358 351.597913,540.009 351.594913,540.547 C351.586913,541.919 361.744913,587.444 362.157913,587.89 C362.343913,588.09 372.321913,582.243 384.330913,574.895 L406.164913,561.536 L413.546913,545.244 C418.850913,533.536 421.233913,529.256 422.014913,530.034 C422.611913,530.628 428.275913,537.712 434.600913,545.774 L446.100913,560.434 L421.651913,576.679 L397.201913,592.924 L390.901913,592.508 C387.435913,592.28 384.600913,592.471 384.600913,592.933 C384.600913,593.395 385.289913,595.726 386.131913,598.113 L387.662913,602.452 L377.316913,612.797 L366.970913,623.143 L356.060913,600.51 C350.059913,588.062 345.038913,578.248 344.903913,578.701 C344.768913,579.154 346.359913,586.272 348.439913,594.519 L352.222913,609.511992 L343.126913,624.019 C330.025913,644.911 329.116913,646.44 330.159913,645.821 C330.677913,645.514 334.187913,643.384 337.960913,641.087 C341.733913,638.791 344.912913,637.05 345.025913,637.218 C345.138913,637.387 346.639913,642.173 348.361913,647.854 C351.390913,657.847 351.438913,658.296 349.846913,661.635 L348.200913,665.087 L338.900913,655.826 C333.785913,650.732 329.600913,646.97 329.600913,647.466 C329.600913,648.642 344.690913,703.413 345.145913,703.888 C345.336913,704.088 354.419913,695.988 365.329913,685.888 L385.166913,667.525 L392.002913,647.775 C395.762913,636.912 399.117913,628.025 399.459913,628.025 C399.800913,628.025 408.026913,635.962 417.738913,645.663 L435.396913,663.3 L409.248913,684.523 C385.930913,703.448 383.066913,705.49 382.784913,703.385 L382.467913,701.025 L379.189913,703.525 C376.656913,705.457 374.720913,706.025 370.672913,706.025 L365.432913,706.025 L368.766913,710.112 C375.405913,718.252 375.414913,716.891 368.648913,726.953 C365.293913,731.943 362.367913,736.025 362.145913,736.025 C361.923913,736.025 354.903913,726.687 346.546913,715.275 C326.508913,687.912 325.880913,687.39 339.607913,709.508 L345.182913,718.491 L335.594913,735.008 C318.070913,765.198 318.819913,763.755 321.637913,761.927 C330.246913,756.343 361.454913,737.025 361.866913,737.025 C362.141913,737.025 367.203913,748.291 373.115913,762.06 C379.027913,775.829 383.971913,786.967 384.104913,786.81 C384.236913,786.653 386.043913,775.275 388.120913,761.525 C390.197913,747.775 392.031913,736.361 392.196913,736.161 C392.361913,735.96 403.682913,742.26 417.355913,750.161 L442.214913,764.525 L414.224913,796.452 C398.829913,814.011992 386.878913,828.143 387.666913,827.858355 C388.455913,827.565 401.963913,822.422 417.684913,816.426 L446.267913,805.525 L450.559913,788.202 C453.393913,776.764 455.591913,769.97 457.028913,768.202 C458.225913,766.73 460.981913,763.307 463.153913,760.597 L467.100913,755.669 L462.408913,758.408 C458.006913,760.978 457.568913,761.05 455.320913,759.577 C453.176913,758.173 452.582913,756.08 449.690913,739.766 C442.366913,698.441 442.220913,697.264 443.026913,685.869 L443.780913,675.212 L451.440913,669.925 L459.100913,664.639 L469.662913,638.033 L480.224913,611.427 L465.662913,608.436 L451.100913,605.446 L451.409913,601.985 C451.937913,596.062 452.403913,595.522 460.355913,591.621 L468.100913,587.821 L481.179913,563.525 L494.258913,539.229 L488.429913,536.443 C485.223913,534.911 482.632913,533.178 482.672913,532.591 C482.711913,532.005 485.086913,526.35 487.950913,520.025 L493.156913,508.525 L500.128913,504.807 C503.963913,502.762 506.875913,501.051 506.600913,501.007 C506.325913,500.962 503.194913,500.835 499.643913,500.725 L493.186913,500.525 L483.430913,526.525 C473.790913,552.215 465.571913,572.329 464.962913,571.721 C464.790913,571.548 466.438913,561.782 468.624913,550.019 C470.811913,538.256 472.600913,528.504 472.600913,528.348 C472.600913,528.193 470.821913,527.158 468.647913,526.049 L464.694913,524.032 L466.174913,519.279 C466.988913,516.664 467.907913,513.373 468.214913,511.965 C468.570913,510.336 470.352913,508.452 473.114913,506.784 C476.333913,504.839 477.537913,503.435 477.777913,501.344 C478.331913,496.509 490.145913,491.219 514.390913,484.95 C534.567913,479.733 534.816913,479.696 543.630913,480.608 L552.519913,481.527 L553.340913,478.026 L554.161913,474.525 L564.267913,473.101 L574.373913,471.677 L578.736913,475.029 C581.136913,476.872 583.448913,478.672 583.874913,479.027 C584.300913,479.383 582.977913,481.864 580.933913,484.54 C577.298913,489.3 578.075913,489.182 584.209913,484.044 L587.171913,481.564 L585.017913,469.564 L582.864913,457.564 L591.393913,444.045 C596.084913,436.609 601.477913,427.375 603.377913,423.525 C607.710913,414.747 611.592913,406.025 611.166913,406.025 C610.988913,406.025 608.249913,409.513 605.080913,413.775 C601.911913,418.038 598.932913,421.953 598.459913,422.475 C597.977913,423.008 597.600913,415.255 597.600913,404.807 L597.600913,386.189 L605.054913,380.357 L612.508913,374.525 L612.554913,360.669 C612.598913,347.529 612.478913,346.669 610.237913,344.006 C608.342913,341.754 602.808913,328.875 591.917913,301.373 C591.453913,300.201 628.470913,281.562 629.406913,282.497 C629.675913,282.767 628.929913,290.121 627.748913,298.841 C626.566913,307.56 625.600913,315.638 625.600913,316.79 C625.600913,318.377 627.783913,320.145 634.600913,324.079 C639.550913,326.936 643.600913,329.341 643.600913,329.423 C643.600913,329.505 640.225913,339.196 636.100913,350.959 C631.975913,362.721 628.600913,372.493 628.600913,372.673 C628.600913,372.854 626.855913,373.28 624.723913,373.621 L620.846913,374.241 L622.253913,379.626 C623.487913,384.354 623.472913,385.372 622.129913,387.968 C620.226913,391.648 620.195913,393.144 622.072913,390.666 C623.414913,388.894 623.903913,389.048 632.409913,393.916 C637.320913,396.726 641.673913,399.025 642.083913,399.025 C642.494913,399.025 653.690913,391.32 666.965913,381.902 C680.239913,372.484 690.230913,365.749 689.166913,366.934 C688.102913,368.12 685.739913,370.011992 683.916913,371.139 C682.092913,372.266 680.600913,373.871 680.600913,374.706 C680.600913,375.541 673.625913,384.699 665.100913,395.057 C656.575913,405.414 649.589913,414.257 649.575913,414.707 C649.523913,416.437 670.980913,460.025 671.885913,460.025 C672.410913,460.025 687.523913,455.243 705.470913,449.397 C723.416913,443.552 738.775913,438.579 739.600913,438.346 C740.425913,438.114 736.600913,440.293 731.100913,443.189 C725.600913,446.085 718.175913,449.152 714.600913,450.004 C708.759913,451.397 708.100913,451.806 708.100913,454.039 C708.100913,456.186 705.405913,458.212 688.350913,468.884 C672.491913,478.809 668.611913,481.665 668.657913,483.384 C668.688913,484.562 670.601913,496.546 672.907913,510.016 L677.100913,534.508 L695.089913,537.028 C713.165913,539.561 715.155913,540.297 712.849913,543.596 C712.437913,544.185 703.327913,546.435 692.605913,548.596 L673.111913,552.525 L668.931913,578.525 C666.632913,592.825 664.717913,605.674 664.675913,607.078 C664.601913,609.59 665.218913,609.807 703.041913,620.578 L741.483913,631.525 L725.291913,633.729 C716.386913,634.941 707.838913,635.953 706.295913,635.979 C704.613913,636.006 701.132913,634.423 697.600913,632.025 C694.360913,629.825 691.460913,628.025 691.155913,628.025 C690.850913,628.025 690.600913,629.092 690.600913,630.395 C690.600913,631.941 681.732913,644.557 665.119913,666.645 C651.105913,685.279 639.643913,700.975 639.649913,701.525 C639.655913,702.075 654.176913,687.707 671.919913,669.596 L704.180913,636.668 L722.655913,644.036 L741.131913,651.404 L748.376913,671.965 C752.361913,683.273 755.617913,692.872 755.611913,693.297 C755.600913,694.069 734.162913,726.642 732.430913,728.518 C731.926913,729.064 722.421913,729.964 711.307913,730.518 L691.100913,731.525 L716.131913,752.025 L741.161913,772.525 L745.608913,796.025 L750.054913,819.525 L759.185913,773.13 L768.315913,726.736 L773.705913,715.811 C778.210913,706.681 779.203913,705.268 779.748913,707.206 C780.271913,709.065 780.420913,708.8 780.500913,705.873 C780.593913,702.492 781.807913,701.081 796.850913,686.873 L813.100913,671.525 L819.602913,647.025 L826.105913,622.525 L819.424913,598.025 C815.749913,584.55 812.710913,572.531 812.671913,571.317 C812.632913,570.103 816.312913,559.078 820.850913,546.817 L829.100913,524.525 L828.100913,505.025 L827.100913,485.525 L817.815913,467.834 L808.531913,450.143 L808.639913,427.886 L808.747913,405.629 L802.936913,386.077 L797.126913,366.525 L781.113913,356.998 L765.100913,347.471 L762.630913,328.498 L760.161913,309.525 L743.130913,294.751 C733.764913,286.626 722.477913,277.359 718.050913,274.158 L709.999913,268.338 L698.550913,267.047 C692.252913,266.338 686.834913,265.61 686.509913,265.43 C686.184913,265.251 686.418913,262.055 687.030913,258.328 L688.141913,251.553 L677.638913,234.539 L667.136913,217.525 L653.703913,207.121 L640.269913,196.716 L643.706913,193.621 C645.596913,191.918 648.746913,189.142 650.706913,187.451 L654.269913,184.377 L655.688913,160.451 L657.107913,136.525 L653.353913,126.528 C651.289913,121.029 649.600913,116.469 649.600913,116.395 C649.600913,116.321 653.033913,115.938 657.228913,115.545 L664.857913,114.83 L682.539913,100.178 L700.221913,85.525 L703.572913,72.025 C705.415913,64.6 707.120913,57.625 707.361913,56.525 C707.601913,55.425 705.616913,58.011 702.949913,62.272 C698.524913,69.341 697.816913,70.019 694.859913,70.022 L691.618913,70.025 L694.603913,65.275 C697.914913,60.006 711.321913,45.249 709.653913,48.709 C707.317913,53.554 707.973913,54.025 717.060913,54.025 L725.520913,54.025 L744.310913,63.204 C764.691913,73.159 767.880913,75.447 786.495913,93.464 L796.890913,103.525 L792.883913,96.025 C769.201913,51.695 772.903913,57.312 754.656913,38.025 L738.100913,20.525 L713.600913,10.262 C700.125913,4.618 688.823913,0.0119920439 688.484913,0.0119920439 C688.145913,0.0119920439 685.910913,5.096 683.516913,11.294 M714.350913,47.687 C715.038913,47.965 716.163913,47.965 716.850913,47.687 C717.538913,47.41 716.975913,47.183 715.600913,47.183 C714.225913,47.183 713.663913,47.41 714.350913,47.687 M722.350913,48.687 C723.038913,48.965 724.163913,48.965 724.850913,48.687 C725.538913,48.41 724.975913,48.183 723.600913,48.183 C722.225913,48.183 721.663913,48.41 722.350913,48.687 M730.413913,49.708 C731.134913,49.997 731.997913,49.961 732.329913,49.629 C732.661913,49.297 732.071913,49.061 731.017913,49.104 C729.852913,49.152 729.615913,49.389 730.413913,49.708 M738.413913,50.708 C739.134913,50.997 739.997913,50.961 740.329913,50.629 C740.661913,50.297 740.071913,50.061 739.017913,50.104 C737.852913,50.152 737.615913,50.389 738.413913,50.708 M364.116913,182.39 C362.377913,183.661 362.678913,184.089 368.516913,188.64 C371.962913,191.327 375.206913,193.68 375.723913,193.869 C376.241913,194.058 374.590913,191.246 372.055913,187.619 C369.520913,183.992 367.116913,181.025 366.714913,181.025 C366.311913,181.025 365.142913,181.639 364.116913,182.39 M363.600913,212.431 C363.600913,216.789 364.951913,217.744 366.454913,214.447 C367.931913,211.205 367.945913,211.28 365.600913,210.025 C363.778913,209.05 363.600913,209.265 363.600913,212.431 M373.600913,215.525 C373.600913,219.534 373.845913,220.022 375.850913,219.993 C377.088913,219.976 379.000913,219.275 380.100913,218.436 C382.057913,216.944 382.026913,216.849 378.600913,213.995 C376.675913,212.391 374.763913,211.067 374.350913,211.051917 C373.937913,211.037 373.600913,213.05 373.600913,215.525 M439.167913,221.52 C438.305913,223.582 437.600913,225.632 437.600913,226.076 C437.600913,226.519 437.014913,227.477 436.299913,228.204 C434.344913,230.189 428.356913,243.472 430.050913,242.067 C430.855913,241.398 433.369913,237.472 435.636913,233.341 L439.758913,225.832 L443.344913,226.505 L446.930913,227.178 L445.112913,224.351 C440.523913,217.22 440.890913,217.394 439.167913,221.52 M395.801913,224.28 C394.869913,225.405 394.818913,226.041 395.618913,226.536 C397.098913,227.451 397.855913,226.583 397.438913,224.448 C397.134913,222.885 396.971913,222.869 395.801913,224.28 M369.600913,235.525 C368.004913,237.448 369.632913,237.468 372.159913,235.557 C373.790913,234.323 373.840913,234.084 372.472913,234.057 C371.577913,234.039 370.285913,234.7 369.600913,235.525 M375.366913,247.996 L372.100913,250.966 L376.663913,250.996 C380.448913,251.02 381.716913,250.514 384.100913,248.025 L386.974913,245.025 L382.803913,245.025 C379.577913,245.025 377.892913,245.698 375.366913,247.996 M459.869913,246.718 C460.842913,246.972 462.192913,246.955 462.869913,246.681 C463.546913,246.407 462.750913,246.2 461.100913,246.22 C459.450913,246.24 458.896913,246.464 459.869913,246.718 M369.908913,262.275 C356.962913,271.195 354.656913,273.405 353.224913,278.26 L351.967913,282.525 L350.706913,278.775 C349.833913,276.179 348.853913,275.025 347.522913,275.025 C344.798913,275.025 345.132913,276.994 348.672913,281.808 C351.425913,285.551 351.943913,288.973 349.531913,287.482 C349.019913,287.166 348.593913,287.721 348.584913,288.716 C348.576913,289.711 345.162913,294.237 340.998913,298.775 C333.195913,307.279 332.644913,308.841 338.960913,304.555 C340.962913,303.197 342.600913,302.267 342.600913,302.49 C342.600913,302.713 342.136913,304.162 341.569913,305.71 C340.812913,307.776 342.297913,306.597 347.152913,301.275 C350.789913,297.287 354.389913,294.025 355.151913,294.025 C355.972913,294.025 356.303913,293.414 355.962913,292.525 C354.996913,290.008 357.203913,290.857 358.388913,293.459 C359.223913,295.291 359.201913,296.013 358.298913,296.38 C357.639913,296.648 358.748913,296.903 360.762913,296.946 C364.143913,297.019 364.768913,296.544 368.895913,290.775 C375.728913,281.222 383.972913,274.065 393.269913,269.614 C400.696913,266.059 401.496913,265.394 402.077913,262.293 C402.429913,260.418 402.964913,258.24 403.266913,257.454 C403.723913,256.263 401.749913,256.025 391.396913,256.025 L378.978913,256.025 L369.908913,262.275 M342.100913,264.025 C341.247913,265.675 340.923913,267.025 341.380913,267.025 C341.837913,267.025 345.323913,265.975 349.128913,264.691 L356.046913,262.358 L351.183913,261.691 C344.007913,260.708 343.786913,260.764 342.100913,264.025 M379.914913,267.775 C379.572913,268.737 379.059913,269.975 378.774913,270.525 C378.489913,271.075 379.121913,270.8 380.178913,269.915 C381.235913,269.029 383.000913,267.806 384.100913,267.195 C385.953913,266.168 385.895913,266.084 383.319913,266.055 C381.554913,266.036 380.309913,266.665 379.914913,267.775 M371.558913,278.032 C369.059913,280.778 367.320913,283.025 367.693913,283.025 C368.612913,283.025 376.600913,274.739 376.600913,273.785 C376.600913,272.56 376.324913,272.792 371.558913,278.032 M500.204913,276.351 C494.505913,281.173 495.865913,282.463 503.211913,279.204 L509.321913,276.493 L507.022913,274.759 C505.758913,273.805 504.583913,273.032 504.412913,273.039938 C504.240913,273.048 502.347913,274.538 500.204913,276.351 M340.350913,275.714 C337.867913,276.363 338.137913,277.184 342.100913,281.025 C344.092913,282.956 345.600913,283.825 345.600913,283.042 C345.600913,281.119 343.315913,275 342.649913,275.141 C342.347913,275.205 341.312913,275.463 340.350913,275.714 M404.350913,302.714 C402.374913,303.231 402.063913,304.575 403.687913,305.579 C404.368913,306 403.595913,307.467 401.614913,309.51 C399.105913,312.1 398.521913,313.465 398.777913,316.143 L399.100913,319.516 L402.489913,314.216 L405.878913,308.917 L408.847913,311.721 L411.815913,314.525 L411.093913,309.025 C410.696913,306 410.171913,303.188 409.927913,302.775 C409.456913,301.981 407.248913,301.957 404.350913,302.714 M710.761913,314.353 C708.613913,316.641 708.762913,318.025 711.158913,318.025 C712.305913,318.025 714.147913,313.239 713.319913,312.411 C713.111913,312.203 711.960913,313.077 710.761913,314.353 M410.888913,320.597 L407.710913,323.084 L414.193913,336.76 C421.025913,351.172 425.054913,357.48 426.755913,356.429 C427.349913,356.062 427.507913,354.345 427.132913,352.342 C426.717913,350.13 427.438913,344.411 429.139913,336.432 C430.600913,329.581 431.575913,323.402 431.306913,322.701 C431.037913,322.001 429.192913,320.928 427.206913,320.319 L423.594913,319.21 L422.936913,323.326 L422.278913,327.441 L418.172913,322.775 L414.066913,318.109 L410.888913,320.597 M400.555913,342.66 C397.493913,351.852 397.377913,352.76 398.037913,362.41 C398.417913,367.973 399.037913,374.964 399.414913,377.945 L400.100913,383.366 L407.850913,365.622 C412.112913,355.862 415.600913,347.534 415.600913,347.114 C415.600913,346.125 407.539913,334.751 406.157913,333.79 C404.163913,332.404 403.758913,333.046 400.555913,342.66 M427.716913,379.975 C427.652913,391.838 427.980913,401 428.451913,400.475 C428.919913,399.952 432.519913,394.972 436.451913,389.407 C443.229913,379.815 443.600913,379.003 443.600913,373.775 L443.600913,368.261 L436.850913,364.239 C432.664913,361.744 429.854913,360.615 429.451913,361.266 C429.079913,361.869 428.596913,361.509 428.317913,360.42 C428.050913,359.378 427.780913,368.177 427.716913,379.975 M803.230913,602.275 C802.448913,605.196 802.436913,610.433 803.207913,612.443 C803.646913,613.588 805.168913,614.025 808.715913,614.025 L813.616913,614.025 L808.961913,607.025 C806.401913,603.175 804.200913,600.025 804.070913,600.025 C803.940913,600.025 803.562913,601.038 803.230913,602.275 M692.413913,634.708 C693.134913,634.997 693.997913,634.961 694.329913,634.629 C694.661913,634.297 694.071913,634.061 693.017913,634.104 C691.852913,634.152 691.615913,634.389 692.413913,634.708"/><path fill-opacity=".714" d="M626.242913,75.025 C615.388913,86.575 605.946913,96.025 605.262913,96.025 C604.577913,96.025 597.979913,94 590.600913,91.525 C583.221913,89.05 576.827913,87.025 576.392913,87.025 C575.956913,87.025 575.600913,89.05 575.600913,91.525 C575.600913,94 575.840913,96.025 576.133913,96.025 C576.427913,96.025 578.946913,94.87 581.733913,93.458 C584.519913,92.046 586.911913,91.033 587.047913,91.208 C587.184913,91.382 589.754913,109.975 592.758913,132.525 L598.221913,173.525 L585.885913,198.318 C579.100913,211.955 573.223913,222.91 572.825913,222.663 C572.426913,222.416 570.098913,218.127 567.651913,213.133 C563.074913,203.792 561.645913,203.078 561.615806,210.12 C561.605913,212.454 562.298913,214.347 563.591913,215.517 C564.686913,216.508 566.756913,219.322 568.192913,221.771 C570.119913,225.061 571.094913,225.931 571.922913,225.103 C572.751913,224.274 580.509913,231.443 601.624913,252.549 L630.204913,281.116 L627.935913,297.321 C626.688913,306.233 625.652913,314.728 625.633913,316.199 C625.603913,318.668 628.368913,320.485 661.776913,339.949 C681.673913,351.541 697.535913,361.034 697.026913,361.046 C696.517913,361.057 693.874913,363.014 691.152913,365.394 L686.205913,369.723 L714.248913,403.722 L742.292913,437.722 L731.946913,442.868 C726.256913,445.698 721.600913,448.418 721.600913,448.913 C721.600913,449.408 729.160913,467.551 738.400913,489.231 L755.200913,528.65 L716.150913,531.566 L677.100913,534.481 L697.894913,537.417 C714.742913,539.795 718.584913,540.624 718.139913,541.783 C717.690913,542.954 718.459913,543.094 722.379913,542.555 L727.168913,541.897 L734.172913,586.961 L741.175913,632.025 L738.138913,632.103 C736.467913,632.147 728.125913,633.168 719.600913,634.372 L704.100913,636.563 L722.576913,643.991 L741.051913,651.418 L760.255913,667.472 L779.458913,683.525 L779.529913,692.858 C779.568913,697.992 779.993913,702.042 780.474913,701.86403 C780.955913,701.675 788.528913,694.775 797.302913,686.525 C812.185913,672.531 813.335913,671.19 814.450913,666.525 C815.106913,663.775 815.912913,660.512 816.239913,659.275 C816.758913,657.309 816.454913,657.025 813.825913,657.025 C810.218913,657.025 810.869913,659.315 805.979913,629.412 L802.199913,606.299 L806.995913,588.912 C809.633913,579.349 815.686913,560.95 820.446913,548.025 C828.166913,527.062 829.068913,523.904 828.800913,518.775 L828.500913,513.025 L825.682913,514.483 L822.863913,515.94 L813.537913,502.829 L804.211913,489.719 L806.418913,466.622 C808.914913,440.499 809.484913,406.704 807.523913,401.175 L806.335913,397.825 L804.158913,400.555 L801.982913,403.284 L787.041913,396.369 L772.100913,389.454 L768.948913,370.989 C767.215913,360.834 764.527913,342.877 762.976913,331.085 L760.155913,309.644 L756.628913,306.362 C754.687913,304.556 752.624913,303.067 752.042913,303.052 C751.460913,303.037 750.560913,304.936 750.042913,307.271 L749.100913,311.518 L731.600913,314.725 C721.975913,316.489 713.128913,317.953 711.940913,317.979 C710.194913,318.016 707.373913,314.142 697.229913,297.775 C688.771913,284.129 685.132913,277.424 686.070913,277.215 C686.835913,277.045 695.661913,277.839 705.682913,278.98 C715.704913,280.121 724.033913,280.925 724.191913,280.767 C724.349913,280.609 716.069913,278.281 705.789913,275.595 C695.510913,272.908 686.699913,270.358 686.210913,269.927 C685.694913,269.473 685.915913,265.442 686.736913,260.335 L688.153913,251.525 L685.135913,246.627 L682.117913,241.728 L681.214913,244.877 C680.717913,246.608 680.038913,248.008 679.705913,247.986 C679.372913,247.965 672.800913,245.378 665.100913,242.236 L651.100913,236.525 L645.931913,218.025 C643.088913,207.85 640.725913,198.776 640.681913,197.86 C640.636913,196.944 643.720913,193.569 647.533913,190.36 C654.061913,184.866 654.470913,184.277 654.533913,180.275 C654.575913,177.624 654.178913,176.119 653.479913,176.275 C652.796913,176.427 650.656913,169.289 648.007913,158.025 L643.657913,139.525 L643.878913,120.525 L644.100913,101.525 L646.706913,108.525 L649.311913,115.525 L657.045913,115.236 L664.779913,114.948 L671.624913,109.236 C678.353913,103.622 678.420913,103.52 675.535913,103.212 C673.921913,103.039 672.600913,102.658 672.600913,102.364 C672.600913,102.07 677.619913,93.436 683.753913,83.177 C696.419913,61.993 696.369913,62.084 694.547913,63.775 C692.763913,65.431 688.284913,65.323 668.679913,63.151 C652.695913,61.381 652.195913,61.255 649.934913,58.429 C648.656913,56.832 647.608913,55.188 647.605913,54.775 C647.591913,52.677 644.410913,55.693 626.242913,75.025 M752.600913,60.353 C752.600913,60.599 755.663913,63.275 759.407913,66.3 C763.151913,69.325 768.810913,74.438 771.982913,77.662 L777.749913,83.525 L772.982913,76.207 C768.285913,68.994 766.725913,67.732 753.350913,60.322 C752.937913,60.094 752.600913,60.108 752.600913,60.353 M99.6009129,91.847 L99.6009129,97.669 L147.850913,108.402 L196.100913,119.136 L223.100913,132.059 C237.950913,139.166 258.222913,149.153 268.149913,154.253 L286.198913,163.525 L316.408913,188.499 C339.703913,207.757 346.216913,213.627 344.859913,214.143 C343.892913,214.51 342.004913,216.849 340.664913,219.34 C338.487913,223.385 338.339913,224.357 339.275913,228.447 C340.462913,233.635 340.241913,233.761 333.100913,231.979 C330.900913,231.43 310.425913,229.008 287.600913,226.596 C249.564913,222.577 242.966913,222.15 208.557913,221.487 L171.013913,220.763 L167.807913,228.023 C166.043913,232.016 164.600913,235.649 164.600913,236.096 C164.600913,236.543 167.378913,239.045 170.773913,241.658 L176.945913,246.408 L203.523913,245.139 C256.341913,242.619 259.754913,242.63 297.351913,245.448 C316.739913,246.901 333.541913,248.438 334.689913,248.862 C336.566913,249.556 336.616913,249.767 335.188913,250.952 C331.644913,253.893 334.827913,256.025 342.764913,256.025 C344.416913,256.025 347.842913,257.482 350.670913,259.386 L355.662913,262.748 L351.181913,264.002 C348.716913,264.692 345.933913,266.105 344.995913,267.141 C344.057913,268.177 342.538913,269.025 341.619913,269.025 C339.799913,269.025 336.526913,272.213 334.690913,275.775 C333.314913,278.444 333.214913,278.425 338.600913,276.525 C340.938913,275.7 344.778913,275.025 347.132913,275.025 C350.860913,275.025 351.348913,275.273 350.911913,276.943 C350.635913,277.999 350.863913,279.673 351.418913,280.664 C352.274913,282.193 352.535913,281.888 353.142913,278.653 C354.000913,274.079 357.188913,270.955 369.856913,262.275 L378.978913,256.025 L391.396913,256.025 C401.749913,256.025 403.723913,256.263 403.266913,257.454 C402.964913,258.24 402.429913,260.418 402.077913,262.293 C401.496913,265.394 400.696913,266.059 393.269913,269.614 C383.935913,274.083 375.725913,281.226 368.807913,290.898 L364.249913,297.271 L357.972913,296.767 C352.850913,296.356 351.405913,296.583 350.121913,298.001 C348.685913,299.588 348.714913,299.944 350.445913,302.082 L352.342913,304.425 L358.456913,302.725 C361.819913,301.79 365.364913,301.024 366.335913,301.023 C367.340913,301.022 369.335913,299.067 370.970913,296.479 C372.686913,293.762 376.302913,290.281 379.970913,287.816 C383.341913,285.549 388.246913,281.92 390.870913,279.75 C396.771913,274.87 402.234913,273.296 403.159913,276.21 C403.501913,277.288 404.337913,277.956 405.017913,277.695 C409.026913,276.157 444.428913,253.449 451.276913,248.022 C455.773913,244.459 459.373913,241.501 459.278828,241.448 C459.179913,241.394 455.676913,241.649 451.492913,242.013 C447.015913,242.403 442.157913,243.53 439.688913,244.752 L435.491913,246.828 L424.830913,241.411 C418.966913,238.431 413.792913,235.617 413.333913,235.158 C412.873913,234.698 414.151913,232.87 416.172913,231.096 L419.847913,227.87 L405.770913,228.197 C397.545913,228.389 391.250913,228.97 390.626913,229.596 C389.868913,230.356 390.435913,231.878 392.579913,234.837 C397.583913,241.745 396.684913,244.944 388.590913,249.03 C384.146913,251.273 382.007913,251.803 379.218913,251.35 C377.230913,251.028 372.859913,251.304 369.505913,251.964 C366.150913,252.624 363.229913,252.987 363.013913,252.771 C362.797913,252.555 365.803913,248.924 369.693913,244.702 C373.584913,240.479 376.542913,237.025 376.266913,237.025 C375.991913,237.025 373.777913,237.878 371.345913,238.92 C368.317913,240.218 365.720913,242.456 363.099913,246.026 L359.274913,251.237 L352.940913,250.834 C349.456913,250.612 346.100913,249.925 345.483913,249.308 C344.652913,248.477 344.737913,246.137 345.809913,240.318 C347.077913,233.44 347.076913,231.95 345.804913,228.462 C344.384913,224.567 344.436913,224.3 347.975913,217.274 C350.322913,212.612 351.600913,208.677 351.600913,206.109 C351.600913,203.928 352.074913,201.85 352.653913,201.492 C353.232913,201.135 353.569913,200.508 353.403913,200.101 C353.236913,199.693 340.950913,188.579 326.100913,175.402 L299.100913,151.445 L253.600913,127.994 L208.100913,104.542 L155.600913,95.338 C126.725913,90.275 102.313913,86.109 101.350913,86.0774534 C99.8789129,86.034 99.6009129,86.948 99.6009129,91.847 M520.041913,217.571 C519.666913,220.072 519.527913,222.285 519.732913,222.49 C519.937913,222.696 521.570913,220.65 523.360913,217.944 L526.615913,213.025 L523.669913,213.025 C520.939913,213.025 520.672913,213.359 520.041913,217.571 M477.127913,233.416 L462.154913,247.737 L464.707913,256.25 L467.259913,264.764 L460.911913,267.894 C453.537913,271.53 453.842913,271.464 453.423913,269.531 C453.209913,268.54 447.043913,273.113 435.100913,283.12 C425.200913,291.415 416.696913,298.589 416.201913,299.062 C415.707913,299.535 417.619913,299.311 420.451913,298.564 C425.284913,297.289 425.600913,297.32 425.600913,299.056 C425.600913,300.074 426.050913,301.185 426.600913,301.525 C427.166913,301.875 427.600913,301.043 427.600913,299.607 C427.600913,297.752 428.966913,295.992 432.690913,293.048 L437.780913,289.025 L459.940913,289.01 C472.128913,289.001 482.711913,288.607 483.457913,288.134 C484.204913,287.661 491.420913,274.698 499.494913,259.328 L514.173913,231.381 L511.886913,229.656 C510.560913,228.656 509.600913,226.868 509.600913,225.399 C509.600913,223.122 509.306913,222.931 506.686913,223.506 C504.597913,223.965 502.342913,223.421 498.719913,221.586 C495.940913,220.177 493.314913,219.041 492.883913,219.059765 C492.452913,219.079 485.362913,225.539 477.127913,233.416 M452.600913,230.99 C454.525913,232.697 457.751913,235.24 459.770913,236.64 L463.440913,239.186 L468.435913,235.822 L473.431913,232.458 L463.637913,230.679 C458.250913,229.701 452.776913,228.673 451.472913,228.394 C449.364913,227.943 449.490913,228.232 452.600913,230.99 M384.385913,237.878 C382.578913,239.448 380.088913,241.264 378.850913,241.914 C376.266913,243.271 375.669913,246.596 378.182913,245.632 C379.052913,245.298 380.964913,244.989 382.432913,244.946 C383.899913,244.903 384.535913,244.639 383.844913,244.361 C382.138913,243.673 383.296913,242.025 385.485913,242.025 C386.456913,242.025 388.227913,240.987 389.419913,239.718 C391.097913,237.931 391.317913,237.142 390.393913,236.218 C388.687913,234.512 388.060913,234.686 384.385913,237.878 M535.639913,248.275 C535.662913,249.575 542.563913,259.813 551.985913,272.525 C568.849913,295.277 568.806913,295.237 574.850913,293.691 C577.167913,293.098 577.600913,293.301 577.600913,294.986 C577.600913,296.306 578.938913,297.667 581.541913,298.995 L585.481913,301.005 L581.347913,289.237 C577.350913,277.862 577.036913,277.335 571.932913,273.497 C569.028913,271.312 566.640913,269.238 566.626913,268.886 C566.575913,267.636 573.601913,266.955 575.586913,268.017 C576.694913,268.61 577.600913,268.92 577.600913,268.707 C577.600913,267.891 558.649913,252.025 557.676913,252.025 C557.112913,252.025 555.953913,253.375 555.100913,255.025 C554.247913,256.675 553.285913,258.025 552.962913,258.025 C552.639913,258.025 548.993913,255.325 544.859913,252.025 C540.725913,248.725 536.950913,246.025 536.471913,246.025 C535.992913,246.025 535.618913,247.037 535.639913,248.275 M512.313913,266.95 L504.526913,272.822 L507.110913,274.854 C508.531913,275.972 510.969913,277.167 512.527913,277.509 C515.305913,278.119 515.340913,278.213 514.314913,282.255 C513.738913,284.524 511.320913,289.787 508.941913,293.952 C506.562913,298.117 504.612913,301.832 504.607913,302.208 C504.603913,302.583 505.507913,303.178 506.615913,303.53 C507.723913,303.881 508.388913,304.559 508.093913,305.036 C507.799913,305.512 508.355913,306.401 509.329913,307.011 C510.678913,307.857 509.553913,307.964 504.600913,307.461 C492.005913,306.184 486.060913,306.765 479.847913,309.882 C476.686913,311.468 466.000913,315.138 456.100913,318.037 C446.200913,320.937 437.944913,323.439 437.753913,323.598 C437.562913,323.756 439.249913,324.439 441.503913,325.114 C443.756913,325.789 445.600913,326.428 445.600913,326.534 C445.600913,326.64 445.103913,328.153 444.495913,329.897 C443.634913,332.367 443.686913,333.424 444.734913,334.686 C445.918913,336.113 448.163913,336.229 463.589913,335.662 C473.220913,335.308 491.003913,333.805 503.107913,332.322 C515.210913,330.838 525.936913,329.94 526.941913,330.325 C528.526913,330.934 527.995913,331.913 522.934913,337.718 C519.725913,341.398 515.310913,346.01 513.121913,347.967 C501.237913,358.595 501.115913,358.736 502.437913,360.328 C503.272913,361.334 503.349913,362.062 502.666913,362.484 C501.017913,363.503 494.284913,361.939 492.100913,360.03 C491.000913,359.069 488.200913,358.044 485.877913,357.752 C481.978913,357.263 481.395913,357.509 478.274913,360.964 C475.637913,363.883 473.529913,365.049 468.676913,366.271 C463.684913,367.529 462.559913,367.575 462.968913,366.508 C463.369913,365.463 462.688913,365.507 459.789913,366.714 C449.951913,370.811 448.970913,371.723 438.449913,386.547 L428.100913,401.129 L427.828913,381.973 L427.556913,362.817 L421.883913,354.893 C418.210913,349.764 415.971913,347.42 415.531913,348.247 C415.157913,348.95 410.438913,359.581 405.045913,371.872 C396.705913,390.88 395.418913,394.504 396.433913,396.129 C397.709913,398.172 397.045913,398.661 368.828913,416.463 C359.608913,422.28 357.793913,424.043 363.100913,422.025 C369.329913,419.657 365.892913,421.947 355.584913,427.033 C345.284913,432.115 344.430913,432.365 341.280913,431.226 C338.597913,430.256 337.153913,430.285 334.016913,431.37 C330.593913,432.556 330.014913,433.216 329.408913,436.625 C328.048913,444.28 328.230913,444.787 332.604913,445.526 C334.807913,445.898 336.390913,446.556 336.122913,446.989 C335.855913,447.422 332.478913,449.652 328.618913,451.945 C324.758913,454.238 321.600913,456.307 321.600913,456.543 C321.600913,456.778 326.888913,454.37 333.350913,451.191 C340.398913,447.724 355.106913,442.065 370.105913,437.048 C395.941913,428.408 398.419913,427.987 402.057913,431.625 C403.440913,433.008 404.529913,433.069 410.219913,432.078 C417.938913,430.733 417.553913,430.519 424.685913,440.139 C427.492913,443.926 430.208913,447.025 430.720913,447.025 C431.233913,447.025 428.911913,451.101 425.562913,456.082 L419.471913,465.139 L420.823913,469.193 L422.174913,473.246 L430.616913,460.5 L439.059913,447.755 L446.806913,456.14 C452.626913,462.439 454.560913,465.229 454.577913,467.357 C454.591913,469.08 455.950913,471.836 458.050913,474.399 L461.500913,478.609 L438.554913,490.048 L415.607913,501.487 L404.370913,512.756 C398.189913,518.954 392.833913,524.025 392.466913,524.025 C392.099913,524.025 387.166913,516.163 381.504913,506.554 C375.841913,496.945 371.083913,489.209 370.930913,489.361 C370.778913,489.514 372.709913,495.013 375.222913,501.582 C379.602913,513.03 379.768913,513.846 379.227913,521.275 C378.917913,525.538 378.986913,529.025 379.381913,529.024 C379.777913,529.024 382.467913,528.124 385.361913,527.024 C388.254913,525.925 391.010913,525.025 391.485913,525.025 C391.959913,525.025 395.412913,533.193 399.157913,543.177 L405.966913,561.328 L408.795913,555.427 C410.351913,552.181 413.775913,544.834 416.405913,539.101 L421.187913,528.676 L433.643913,544.552 L446.100913,560.427 L422.100913,576.322 C399.282913,591.435 397.333913,592.978 382.533913,607.676 L366.967913,623.135 L356.101913,600.596 C350.125913,588.199 345.073913,578.219 344.875913,578.417 C344.676913,578.615 346.242913,585.696 348.355913,594.151 L352.195913,609.525 L350.464913,621.509 C349.513913,628.099 348.901913,633.659 349.105913,633.863 C349.309913,634.067 353.279913,631.937 357.927913,629.13 C362.575913,626.322 366.592913,624.025 366.854913,624.025 C367.116913,624.025 371.277913,633.714 376.101913,645.556 C380.925913,657.398 385.025913,666.934 385.212913,666.747 C385.398913,666.56 388.507913,657.901 392.120913,647.505 C395.733913,637.108 398.911913,628.381 399.181913,628.111 C399.452913,627.84 407.711913,635.647 417.535913,645.46 L435.397913,663.301 L408.965913,684.737 L382.533913,706.173 L372.550913,721.099 L362.568913,736.025 L376.760913,736.025 L390.952913,736.025 L404.293913,731.025 C411.631913,728.275 418.189913,726.009 418.867913,725.99 C419.545913,725.97 423.453913,721.41 427.550913,715.856 C433.732913,707.477 435.131913,706.078 435.764913,707.641 C436.184913,708.677 437.860913,713.8 439.490913,719.025 L442.453913,728.525 L442.518913,715.525 C442.633913,692.936 443.522913,673.824 444.515913,672.627 C445.042913,671.992 448.539913,669.978 452.287913,668.151 L459.100913,664.829 L465.808913,647.677 C469.497913,638.243 472.808913,629.737 473.165913,628.775 C474.508913,625.155 470.616913,627.072 468.600913,631.025 C467.478913,633.225 466.174913,635.025 465.702913,635.025 C465.231913,635.025 461.371913,630.75 457.125913,625.524 L449.405913,616.024 L451.662913,600.024 C453.124913,589.655 454.334913,584.025 455.100913,584.025 C455.750913,584.025 458.491913,584.695 461.191913,585.514 C463.891913,586.333 466.615913,587.008 467.245913,587.014 C468.886913,587.03 484.600913,557.676 484.600913,554.597 C484.600913,551.171 483.646913,551.351 479.583913,555.542 L476.174913,559.06 L474.757913,556.355 L473.340913,553.651 L470.475913,560.088 C468.900913,563.628 466.930913,567.875 466.098913,569.525 L464.586913,572.525 L465.102913,569.525 C465.385913,567.875 466.445913,561.96 467.456913,556.381 L469.296913,546.236 L466.081913,540.564 L462.866913,534.891 L464.237913,527.708 C464.991913,523.757 467.086913,515.8 468.891913,510.025 C471.853913,500.548 472.421913,499.496 474.718913,499.225 C476.117913,499.06 480.896913,497.033 485.338913,494.72 L493.413913,490.515 L486.038913,482.822 L478.662913,475.129 L476.563913,478.077 C475.408913,479.698 474.134913,481.025 473.731913,481.025 C473.328913,481.025 470.453913,477.93 467.340913,474.147 L461.682913,467.268 L463.438913,458.061 L465.194913,448.854 L467.038913,456.675 C468.476913,462.777 469.054913,464.03 469.666913,462.377 C470.097913,461.211 472.508913,458.779 475.025913,456.972 C477.541913,455.165 479.600913,453.286 479.600913,452.796 C479.600913,451.771 478.343913,452.402 474.000913,455.609 L470.900913,457.898 L475.343913,442.388 C477.787913,433.857 479.580913,426.672 479.329913,426.42 C479.077913,426.169 474.893913,427.68 470.032913,429.779 L461.192913,433.596 L460.146913,438.471 L459.100913,443.347 L454.350913,437.571 C451.737913,434.394 449.600913,431.023 449.600913,430.08 C449.600913,427.685 477.105913,414.727 481.198913,415.194 C483.471913,415.453 484.024913,415.958 483.750913,417.525 C483.558913,418.625 482.883913,419.856 482.250913,420.26 C481.479913,420.752 481.611913,420.999 482.650913,421.01 C483.503913,421.018 484.721913,420.504 485.358913,419.867 C486.234913,418.991 486.889913,419.02 488.058913,419.99 C488.906913,420.694 489.600913,420.972 489.600913,420.608 C489.600913,420.245 490.568913,420.849 491.751913,421.951 C492.935913,423.054 494.257913,423.737 494.690913,423.469 C495.123913,423.202 495.865913,423.677 496.340913,424.524 C496.961913,425.635 497.230913,425.093 497.301913,422.585 C497.355913,420.67 496.770913,418.581 496.000913,417.942 C493.908913,416.206 494.288913,415.337 497.411913,414.713 C499.013913,414.392 500.682913,413.156 501.291913,411.838 C501.880913,410.566 505.500913,407.5 509.337913,405.025 C513.688913,402.219 517.343913,398.925 519.049913,396.275 C520.553913,393.938 522.327913,392.025 522.990913,392.025 C523.654913,392.025 528.017913,397.547 532.685913,404.295 L541.174913,416.566 L547.549913,445.295 C552.379913,467.062 554.282913,474.025 555.399913,474.025 C556.210913,474.025 560.801913,473.502 565.602913,472.863 L574.331913,471.701 L580.465913,476.421 C583.839913,479.018 586.600913,480.861 586.600913,480.518 C586.600913,480.175 585.406913,475.441 583.947913,469.999 L581.293913,460.104 L577.972913,465.315 C574.146913,471.318 574.012913,470.714 576.517913,458.73 L578.355913,449.935 L573.756913,433.035 C571.226913,423.74 569.015913,416.276 568.843913,416.449 C568.670913,416.621 569.666913,427.926 571.055913,441.57 C572.444913,455.215 573.450913,466.509 573.290913,466.668 C573.131913,466.827 569.873913,453.585 566.050913,437.241 L559.100913,407.525 L557.938913,422.025 C557.299913,430 556.681913,437.875 556.564913,439.525 C556.447913,441.175 555.565913,435.325 554.604913,426.525 C552.922913,411.122 552.705913,410.254 548.795913,403.257 C544.293913,395.203 544.521913,395.159 553.031913,402.446 L558.962913,407.525 L549.638913,393.525 C544.510913,385.825 538.248913,377.05 535.723913,374.025 C533.198913,371 531.869913,369.107 532.770913,369.818 C534.254913,370.989 534.326913,370.753 533.528913,367.318 C531.742913,359.625 532.251913,357.539 536.660913,354.484 C543.685913,349.615 543.876913,347.224 537.754913,340.775 C535.796913,338.713 534.735913,337.025 535.397913,337.025 C536.059913,337.025 536.600913,337.475 536.600913,338.025 C536.600913,338.575 537.102913,339.025 537.717913,339.025 C538.331913,339.025 538.607913,338.237 538.330913,337.275 C538.054913,336.313 536.646913,331.518 535.202913,326.621 C533.757913,321.723 532.760913,317.531 532.986913,317.306 C534.307913,315.985 548.730913,325.49 565.186913,338.525 L584.121913,353.525 L590.513913,369.775 C594.029913,378.713 597.109913,386.025 597.356913,386.025 C597.604913,386.025 601.114913,383.438 605.157913,380.275 L612.508913,374.525 L612.554913,360.496 L612.600913,346.467 L606.100913,340.025 C602.525913,336.482 599.600913,334.102 599.600913,334.737 C599.600913,335.372 601.550913,337.489 603.933913,339.442 L608.266913,342.992 L609.947913,356.759 C610.872913,364.33 611.599913,371.2 611.562913,372.025 C611.525913,372.85 608.167913,367 604.100913,359.025 L596.705913,344.525 L596.538913,354.525 L596.371913,364.525 L594.306913,355.662 L592.242913,346.799 L581.671913,337.244 C575.857913,331.989 567.853913,325.125 563.883913,321.99 C559.914913,318.856 556.952913,316.007 557.300913,315.658 C557.648913,315.31 557.521913,315.015 557.017913,315.003 C556.513913,314.991 554.975913,314.06 553.600913,312.934 L551.100913,310.887 L556.100913,311.49 C560.820913,312.058 560.152913,311.588 544.153913,303.076 C526.792913,293.839 522.540913,291.025 525.945913,291.025 C526.920913,291.025 527.463913,291.438 527.150913,291.944 C526.838913,292.449 528.016913,293.177 529.768913,293.562 C532.228913,294.102 533.254913,293.851 534.271913,292.461 C535.425913,290.882 535.187913,290.312 532.344913,287.843 C530.560913,286.294 526.936913,283.583 524.291913,281.819 L519.482913,278.612 L520.170913,269.818 C520.548913,264.982 520.687913,261.037 520.479913,261.050963 C520.271913,261.065 516.596913,263.72 512.313913,266.95 M578.600913,278.02 C578.600913,278.499 579.472913,279.167 580.537913,279.505 C581.964913,279.958 583.301913,282.782 585.611913,290.218 C587.337913,295.772 589.350913,300.918 590.085913,301.653 C590.819913,302.387 592.201913,305.032 593.155913,307.529 C594.108913,310.026 595.101913,311.858 595.360913,311.599 C595.619913,311.339 592.809913,303.547 589.115913,294.281 C583.854913,281.085 581.987913,277.404 580.499913,277.292 C579.455913,277.214 578.600913,277.541 578.600913,278.02 M491.600913,282.73 C485.522913,287.412 485.521913,287.415 490.620913,285.243 C493.084913,284.194 495.602913,283.153 496.216913,282.93 C496.830913,282.707 497.055913,281.791 496.716913,280.894 C496.196913,279.517 495.399913,279.803 491.600913,282.73 M346.283913,287.363 C344.134913,294.18 344.167913,294.727 346.600913,292.525 C347.700913,291.53 348.600913,289.858 348.600913,288.811 C348.600913,287.764 349.050913,287.185 349.600913,287.525 C350.712913,288.212 350.929913,286.047 349.993913,283.607 C348.953913,280.896 348.025913,281.836 346.283913,287.363 M368.932913,316.332 C350.689913,323.036 335.868913,328.627 335.997913,328.755 C336.126913,328.884 340.183913,328.299 345.013913,327.456 C349.843913,326.613 354.212913,326.062 354.722913,326.232 C355.232913,326.402 345.872913,329.399 333.922913,332.892 C321.972913,336.385 311.498913,339.45 310.647913,339.703 C309.796913,339.956 310.225913,339.426 311.600913,338.525 C314.855913,336.392 315.459913,336.181 282.600913,348.667 C257.588913,358.172 249.597913,361.914 246.598913,365.527 C245.197913,367.216 262.218913,378.446 264.547913,377.37 C269.548913,375.06 337.470913,352.648 361.144913,345.497 C384.190913,338.535 390.370913,337.025 395.826913,337.025 C401.664913,337.025 402.545913,336.775 403.123913,334.953 C403.519913,333.704 404.342913,333.096 405.194913,333.423 C407.879913,334.453 403.927913,329.756 398.129913,325.025 C395.096913,322.55 392.611913,320.168 392.607913,319.731 C392.603913,319.294 394.850913,315.964 397.600913,312.332 C401.807913,306.774 403.515913,303.809 402.350913,304.084 C402.213913,304.116 387.174913,309.628 368.932913,316.332 M683.472913,371.775 C682.229913,373.361 682.264913,373.396 683.850913,372.153 C685.516913,370.846 686.045913,370.025 685.222913,370.025 C685.015913,370.025 684.227913,370.813 683.472913,371.775 M396.294913,406.075 L393.489913,412.104 L398.790913,420.549 L404.090913,428.994 L407.703913,421.821 L411.315913,414.647 L405.315913,407.336 C402.015913,403.315 399.266913,400.03 399.207913,400.034994 C399.148913,400.041 397.838913,402.759 396.294913,406.075 M368.600913,420.025 C367.775913,420.558 367.550913,420.994 368.100913,420.994 C368.650913,420.994 369.775913,420.558 370.600913,420.025 C371.425913,419.492 371.650913,419.056 371.100913,419.056 C370.550913,419.056 369.425913,419.492 368.600913,420.025 M476.239913,448.555 L473.707913,453.085 L476.654913,450.987 C478.533913,449.649 479.600913,448.008 479.600913,446.457 C479.600913,445.119 479.413913,444.025 479.185913,444.025 C478.958913,444.025 477.632913,446.063 476.239913,448.555 M714.850913,449.731 C713.613913,449.969 712.600913,450.808 712.600913,451.595 C712.600913,453.508 713.528913,453.391 717.100913,451.025 C720.010913,449.098 719.539913,448.828 714.850913,449.731 M690.600913,630.887 C690.600913,633.566 690.963913,633.822 696.267913,634.887 C699.383913,635.513 702.090913,635.868 702.282913,635.677 C702.646913,635.312 692.012913,628.025 691.115913,628.025 C690.832913,628.025 690.600913,629.313 690.600913,630.887 M330.143913,694.025 C337.307913,706.882 347.544913,721.572 353.139913,727.025 C359.595913,733.318 359.354913,732.904 345.577913,714.025 C332.163913,695.644 328.139913,690.43 330.143913,694.025 M444.679913,715.608 C444.727913,716.773 444.964913,717.01 445.283913,716.213 C445.572913,715.491 445.536913,714.628 445.204913,714.296 C444.872913,713.964 444.636913,714.554 444.679913,715.608 M445.795913,721.525 C445.815913,723.175 446.039913,723.729 446.293913,722.756 C446.547913,721.783 446.530913,720.433 446.256913,719.756 C445.982913,719.079 445.775913,719.875 445.795913,721.525 M446.700913,727.897 C446.614913,730.801 446.388913,731.094 445.076913,730.005 C444.238913,729.309 443.338913,728.954 443.077913,729.215 C442.816913,729.476 444.965913,737.451 447.851913,746.939 C450.738913,756.426 453.215913,763.589 453.355913,762.857 C453.495913,762.124 452.077913,753.2 450.205913,743.025 C448.332913,732.85 446.755913,726.043 446.700913,727.897"/></g></svg>