<?xml version="1.0" encoding="UTF-8"?>
<svg width="20px" height="25px" viewBox="0 0 20 25" version="1.1" xmlns="http://www.w3.org/2000/svg" xmlns:xlink="http://www.w3.org/1999/xlink">
    <title>agility</title>
    <g id="Page-1" stroke="none" stroke-width="1" fill="none" fill-rule="evenodd">
        <g id="agility" transform="translate(1.460954, 1.367006)" stroke="#FFFFFF">
            <polygon id="Path-31" points="5.9246847 0 5.9246847 2.23166375 8.10388996 2.23166375 8.10388996 0"></polygon>
            <polyline id="Path-32" points="3.07223058 4.07149855 5.99174721e-17 7.14372913 3.07223058 10.2159597 4.37157248 10.2159597 4.37157248 8.99255953 2.52274209 7.14372913 4.37157248 5.29489874 5.30673504 5.29489874 5.30673504 7.14372913 5.9246847 7.14372913 5.9246847 14.128189 5.30673504 14.128189 5.30673504 15.2707236 0 20.5774586 0 22.3908748 1.24584182 22.3908748 6.61895484 16.9440926 6.61895484 15.7195561 7.57987319 15.7195561 7.57987319 14.6720907 8.58453852 14.6720907 8.58453852 15.7195561 9.58560561 15.7195561 9.58560561 16.6670284 10.6864764 16.6670284 10.6864764 18.6542015 7.85466479 21.4860132 7.85466479 22.3908748 9.58560561 22.3908748 13.3222788 18.6542015 13.3222788 16.9440926 9.6093729 13.2311867 9.6093729 11.616431 8.58453852 11.616431 8.58453852 8.54675704 9.58560561 8.54675704 9.58560561 5.60794526 10.6864764 5.60794526 10.6864764 6.79630999 11.6687948 6.79630999 11.6687948 7.71196633 12.4931696 7.71196633 12.4931696 8.54675704 13.6285077 8.54675704 13.6285077 9.56827726 14.5543906 9.56827726 14.5543906 8.54675704 15.5654948 8.54675704 15.5654948 7.71196633 16.5716752 7.71196633 16.5716752 6.79630999 17.6579637 6.79630999 17.6579637 4.59797727 15.5654948 4.59797727 15.5654948 5.60794526 14.5543906 5.60794526 14.5543906 6.79630999 13.6285077 6.79630999 13.6285077 5.60794526 12.4931696 5.60794526 12.4931696 4.59797727 11.6687948 4.59797727 11.6687948 3.60334913 3.07223058 3.60334913"></polyline>
            <line x1="1.91378802" y1="5.19736761" x2="3.47655866" y2="3.60334913" id="Path-33"></line>
        </g>
    </g>
</svg>