<?xml version="1.0" encoding="UTF-8"?>
<svg width="27px" height="27px" viewBox="0 0 27 27" version="1.1" xmlns="http://www.w3.org/2000/svg" xmlns:xlink="http://www.w3.org/1999/xlink">
    <title>attack</title>
    <g id="Page-1" stroke="none" stroke-width="1" fill="none" fill-rule="evenodd">
        <g id="attack" transform="translate(1.116117, 1.363242)" stroke="#FFFFFF">
            <polygon id="Path" points="6.02346391 14.725606 21.150001 0 24.8177479 0 24.8177479 3.7290937 9.88870792 18.6581336 9.88870792 23.6082265 6.02346391 23.6082265 6.02346391 22.714938 5.13175853 22.714938 3.10098165 24.7457149 -1.07951795e-16 24.7457149 0 20.704742 2.04660831 18.6581336 0.894871668 18.6581336 0.894871668 14.725606"></polygon>
            <polygon id="Path-2" points="1.9791955 15.6876254 6.84794869 15.6876254 6.84794869 16.5677709 7.92383107 16.5677709 7.92383107 17.6888337 8.93790887 17.6888337 8.93790887 22.699295 6.84794869 22.699295 6.84794869 20.6401701 5.90640079 20.6401701 5.90640079 19.6566594 4.93964841 19.6566594 4.93964841 18.6952697 3.92221896 18.6952697 3.92221896 17.6888337 1.9791955 17.6888337"></polygon>
            <polyline id="Path-3" points="3.87140782 19.1934602 4.43167105 19.1934602 4.43167105 20.1269641 5.45855218 20.1269641"></polyline>
            <polyline id="Path-4" points="4.88159769 20.6567943 4.88159769 21.6491533 3.87140782 21.6491533 3.87140782 22.699295 2.91980494 22.699295 2.91980494 23.6011592 0.92556813 23.6011592 0.92556813 21.6491533 1.9791955 21.6491533 1.9791955 20.6567943 2.91980494 20.6567943 2.91980494 19.6602122 3.87140782 19.6602122"></polyline>
        </g>
    </g>
</svg>