<?xml version="1.0" encoding="UTF-8"?>
<svg width="26px" height="26px" viewBox="0 0 26 26" version="1.1" xmlns="http://www.w3.org/2000/svg" xmlns:xlink="http://www.w3.org/1999/xlink">
    <title>construction</title>
    <g id="Page-1" stroke="none" stroke-width="1" fill="none" fill-rule="evenodd">
        <g id="construction" transform="translate(0.584306, 0.523664)" stroke="#FFFFFF">
            <polygon id="Path-24" points="16.8340623 0 20.9739274 0 24.0438854 3.06995801 24.0438854 8.97172764 21.939817 11.075796 16.8340623 11.075796 16.8340623 12.9568685 14.9075858 12.9568685 14.9075858 15.0154382 16.0492682 15.0154382 16.0492682 16.1130895 16.8340623 16.1130895 16.8340623 17.0927566 17.9131543 17.0927566 17.9131543 18.0801882 18.933917 18.0801882 18.933917 24.0487146 8.8732496 24.0487146 5.81493851 20.9904035 4.97749646 20.9904035 4.97749646 22.0444972 3.1096333 22.0444972 -2.12893962e-17 18.9348639 0 18.0801882 0.987431669 17.0927566 0.987431669 10.5776771 2.20931681 9.7981856 8.14129268 9.7981856 10.9419511 6.99752713 10.9419511 5.97780603"></polygon>
            <polygon id="Path-25" points="18.7553309 2.93123655 20.0904658 2.93123655 22.0672229 4.9079937 22.0672229 7.01049972 20.7055747 7.01049972 17.8235772 4.12850218"></polygon>
            <line x1="8.14129268" y1="9.7981856" x2="0.987431669" y2="17.0927566" id="Path-26"></line>
            <polyline id="Path-27" points="17.4938652 18.0568944 11.8900863 18.0568944 10.9146803 19.0323004 10.9146803 23.6669228"></polyline>
            <polyline id="Path-28" points="19.4071797 10.9596583 17.8235772 9.00846752 16.8340623 9.00846752 15.9302423 8.10464749 14.9075858 8.10464749 13.8820412 9.13019205 12.9811093 9.13019205 11.8900863 8.03916906 11.8900863 4.97086813"></polyline>
            <polyline id="Path-29" points="15.648633 15.8534484 13.9477091 15.8534484 12.9811093 14.8868486 9.99173281 14.8868486 8.8732496 13.7683654 5.54014692 13.7683654 5.54014692 15.8534484 4.56436217 15.8534484 4.56436217 19.2261317 6.0492026 19.2261317 6.0492026 20.8619086"></polyline>
        </g>
    </g>
</svg>