<?xml version="1.0" encoding="UTF-8"?>
<svg width="20px" height="23px" viewBox="0 0 20 23" version="1.1" xmlns="http://www.w3.org/2000/svg" xmlns:xlink="http://www.w3.org/1999/xlink">
    <title>cooking</title>
    <g id="Page-1" stroke="none" stroke-width="1" fill="none" fill-rule="evenodd">
        <g id="cooking" transform="translate(0.537070, 0.990933)" stroke="#FFFFFF">
            <polyline id="Path-70" points="6.03611369 0.5 3.9050941 0.5 2.87096094 1.53413317 2.87096094 2.64685182 3.9050941 3.68098499 4.84955922 4.62545011 4.84955922 6.52675827 0.843138776 6.52675827 0.843138776 8.6238105 2.20053751 8.6238105 2.20053751 9.68615384 3.9050941 9.68615384 3.9050941 11.6064607 2.87096094 11.6064607 2.87096094 12.346546 2.00033163 12.346546 -7.22987811e-17 14.3468776 0 17.6827307 2.87096094 20.5536916 14.8405666 20.5536916 18.0504814 17.3437768 18.0504814 14.3468776 16.0501498 12.346546 14.8405666 12.346546 14.8405666 11.3980508 13.9156759 11.3980508 13.9156759 9.68615384 16.0501498 9.68615384 16.0501498 8.34933702 17.2001462 8.34933702 17.2001462 6.52675827 13.9156759 6.52675827 13.9156759 3.68098499 15.2319108 3.68098499 15.2319108 1.53413317 12.7328636 1.53413317 11.6201449 2.64685182 11.0576686 2.64685182 11.0576686 1.53413317 6.99554747 1.53413317 6.99554747 6.52675827 5.13266847 6.52675827"></polyline>
            <line x1="6.99554747" y1="6.52675827" x2="13.9156759" y2="6.52675827" id="Path-71"></line>
            <line x1="9.02524071" y1="1.51700556" x2="9.02524071" y2="6.52675827" id="Path-72"></line>
            <line x1="10.9918928" y1="1.51700556" x2="10.9918928" y2="6.52675827" id="Path-73"></line>
            <line x1="4.87503473" y1="0.5" x2="6.45451663" y2="0.5" id="Path-74"></line>
        </g>
    </g>
</svg>