<?xml version="1.0" encoding="UTF-8"?>
<svg width="25px" height="24px" viewBox="0 0 25 24" version="1.1" xmlns="http://www.w3.org/2000/svg" xmlns:xlink="http://www.w3.org/1999/xlink">
    <title>crafting</title>
    <g id="Page-1" stroke="none" stroke-width="1" fill="none" fill-rule="evenodd">
        <g id="crafting" transform="translate(0.597894, 1.312759)" stroke="#FFFFFF">
            <polygon id="Path-40" points="2.99515258 1.16090451 0.772200351 1.16090451 0.772200351 2.22333099 -5.47161e-17 2.22333099 0 3.25867601 1.02687023 4.28554624 1.69637882 4.28554624 7.34747924 9.93664666 0 17.2841259 0 18.3286559 1.02687023 19.3555261 1.02687023 20.2423492 2.05506612 20.2423492 2.05506612 21.2856482 2.99515258 21.2856482 2.99515258 20.2423492 4.20075097 20.2423492 4.20075097 19.0206535 5.15238966 19.0206535 5.15238966 17.2841259 5.77838801 17.2841259 5.77838801 16.1538064 7.07990779 16.1538064 10.1349047 13.0988095 10.8540784 13.0988095 10.8540784 14.4272213 13.8434549 14.4272213 14.853991 14.4272213 14.853991 17.2841259 16.9253913 19.3555261 20.0655622 19.3555261 20.0655622 17.0192768 18.8853408 17.0192768 18.8853408 16.1538064 17.9760288 16.1538064 16.9253913 15.1031689 16.9253913 14.1677696 14.4663285 14.1677696 14.4663285 11.869065 12.9857491 11.2232764 12.9857491 9.93664666 16.0901863 6.8322095 17.9760288 6.8322095 17.9760288 8.46134629 18.8853408 8.46134629 18.8853408 9.39461504 21.0192841 9.39461504 21.0192841 8.16894228 22.1086026 8.16894228 22.1086026 7.10424323 23.287309 7.10424323 23.287309 6.00734944 22.1086026 4.82864313 21.0192841 4.82864313 21.0192841 3.89423809 19.7047917 3.89423809 19.7047917 2.9416525 18.8853408 2.9416525 17.9760288 2.03234042 16.9253913 2.03234042 16.9253913 1.16090451 16.0901863 1.16090451 16.0901863 -6.13422891e-17 12.9857491 0 12.9857491 5.31762444 10.1349047 8.16846883"></polygon>
            <polyline id="Path-41" points="9.8603972 8.32442394 10.8184748 8.32442394 10.8184748 9.37738138 12.9857491 11.2232764"></polyline>
            <polyline id="Path-42" points="6.6678151 10.6428241 8.10104925 10.6428241 8.68150151 11.2232764 8.68150151 12.3605083 10.1272348 12.3605083 10.1272348 13.0988095"></polyline>
            <polyline id="Path-43" points="12.9857491 4.29837679 13.8434549 4.29837679 13.8434549 6.17873909 16.1995419 6.17873909 16.1995419 6.89781812"></polyline>
        </g>
    </g>
</svg>