<?xml version="1.0" encoding="UTF-8"?>
<svg width="27px" height="24px" viewBox="0 0 27 24" version="1.1" xmlns="http://www.w3.org/2000/svg" xmlns:xlink="http://www.w3.org/1999/xlink">
    <title>farming</title>
    <g id="Page-1" stroke="none" stroke-width="1" fill="none" fill-rule="evenodd">
        <g id="farming" transform="translate(0.999888, 0.545137)" stroke="#FFFFFF">
            <polygon id="Path-85" points="17.5653672 0 12.5173292 0 11.5091753 1.0081539 10.3152085 1.0081539 9.34767868 1.97568371 9.34767868 3.23207995 8.49232389 4.08743474 8.49232389 6.11369167 7.47951027 6.11369167 7.47951027 10.1762446 6.43760491 10.1762446 4.27873498 8.01737467 5.45046471 6.84564493 5.45046471 5.77833602 4.27873498 4.60660629 2.23903864 4.60660629 -2.32884393e-16 6.84564493 0 8.26601281 1.13614317 9.40215598 2.66075196 9.40215598 4.27873498 11.020139 4.27873498 12.1128155 5.45046471 13.2845452 5.45046471 15.1844141 6.43760491 16.1715543 6.43760491 17.3021922 7.47951027 17.3021922 7.47951027 20.1242171 8.49232389 21.1370307 10.5850762 21.1370307 11.5091753 22.0611298 16.5558459 22.0611298 17.5653672 21.0516086 18.6724726 21.0516086 19.5998641 20.1242171 19.5998641 18.9517677 20.6958329 18.9517677 20.6958329 17.7275037 22.6342749 17.7275037 22.6342749 16.6946659 23.5952919 16.6946659 24.58272 15.7072378 24.58272 12.1128155 20.4872791 8.01737467 20.4872791 4.81775081 19.5998641 4.81775081 19.5998641 1.97568371"></polygon>
            <polygon id="Path-86" points="10.4797199 4.03045666 12.6042626 1.90591391 16.6335678 1.90591391 17.6958392 2.96818529 17.6958392 4.03045666 12.6042626 4.03045666 11.5327798 5.10193953 10.4797199 5.10193953"></polygon>
            <polyline id="Path-87" points="20.4872791 8.01737467 19.353115 8.01737467 18.375798 8.99469168 22.3109374 12.9298311 22.3109374 15.0881253 20.4872791 15.0881253 20.4872791 15.9882601 19.353115 15.9882601 18.190165 17.2000022"></polyline>
            <line x1="20.4974981" y1="11.0305649" x2="20.4974981" y2="15.1727558" id="Path-88"></line>
            <line x1="10.4797199" y1="5.10193953" x2="10.4797199" y2="7.20424518" id="Path-89"></line>
            <line x1="17.6958392" y1="4.03045666" x2="17.6958392" y2="5.10193953" id="Path-90"></line>
            <line x1="7.47951027" y1="10.1762446" x2="7.47951027" y2="13.1016603" id="Path-91"></line>
        </g>
    </g>
</svg>