<?xml version="1.0" encoding="UTF-8"?>
<svg width="25px" height="24px" viewBox="0 0 25 24" version="1.1" xmlns="http://www.w3.org/2000/svg" xmlns:xlink="http://www.w3.org/1999/xlink">
    <title>firemaking</title>
    <g id="Page-1" stroke="none" stroke-width="1" fill="none" fill-rule="evenodd">
        <g id="firemaking" transform="translate(1.403132, 0.496361)" stroke="#FFFFFF">
            <polyline id="Path-75" points="10.073497 0 10.073497 3.04914561 8.9148648 3.04914561 8.9148648 5.04055361 7.93607251 6.0193459 7.08724852 6.0193459 7.08724852 4.78032915 5.85924237 4.78032915 5.85924237 3.91013164 4.97278083 3.91013164 4.97278083 3.04914561 4.06185128 3.04914561 4.06185128 1.88806665 4.06185128 5.04055361 2.93272466 5.04055361 2.93272466 7.22626639 2.03813111 8.12085995 2.03813111 9.19018387 1.08002868 10.1482863 1.08002868 15.2307594 2.24171933 15.2307594 2.24171933 16.9309981 1.08002868 16.9309981 3.01268833e-16 18.0110268 0 21.224126 1.08002868 21.224126 1.08002868 22.0497054 21.250627 22.0497054 21.250627 20.9374185 22.1170824 20.9374185 22.1170824 18.0110268 21.250627 17.1445714 19.8349369 17.1445714 19.8349369 15.2307594 21.250627 15.2307594 21.250627 10.1482863 20.2925246 9.19018387 20.2925246 7.76744116 19.3064459 6.78136244 19.3064459 4.78032915 17.9743607 4.78032915 17.9743607 3.91013164 17.0080183 3.91013164 17.0080183 3.04914561 15.9422207 3.04914561 15.9422207 1.88806665 15.9422207 5.04055361 14.8651965 5.04055361 14.8651965 6.99353245 13.9854997 6.99353245 13.9854997 6.0193459 13.0067074 5.04055361 13.0067074 2.76632422 12.0748361 2.76632422 12.0748361 1.88806665 10.8361792 1.88806665 10.8361792 0.73547954"></polyline>
            <polyline id="Path-76" points="21.350658 12.0460322 18.1590222 15.237668 16.9151838 15.237668 15.9682719 15.237668 15.9682719 13.87883 15.0108531 13.87883 15.0108531 12.8553476 14.0941664 12.8553476 13.070684 13.87883 12.1326957 13.87883 10.7738577 15.237668 9.70705255 14.1708628 9.14486408 14.1708628 8.04099709 13.0669958 7.27262967 13.0669958 7.27262967 14.1708628 6.10147565 14.1708628 6.10147565 15.237668 3.07823735 15.237668 3.07823735 13.6418501 1.76790355 13.6418501 1.76790355 12.5408617"></polyline>
            <polyline id="Path-77" points="6.10147565 15.237668 6.10147565 17.1889197 8.22429126 17.1889197 8.22429126 18.0440046 11.0585412 18.0440046 13.0520407 20.0375041 15.2484807 20.0375041 15.2484807 21.1258222 17.4647065 21.1258222"></polyline>
            <polyline id="Path-78" points="10.1163879 18.1817451 10.1163879 19.2037882 9.05987373 20.2603024 6.90517776 20.2603024 6.10147565 21.0640045 4.64159914 21.0640045"></polyline>
        </g>
    </g>
</svg>