<?xml version="1.0" encoding="UTF-8"?>
<svg width="26px" height="24px" viewBox="0 0 26 24" version="1.1" xmlns="http://www.w3.org/2000/svg" xmlns:xlink="http://www.w3.org/1999/xlink">
    <title>fishing</title>
    <g id="Page-1" stroke="none" stroke-width="1" fill="none" fill-rule="evenodd">
        <g id="fishing" transform="translate(1.359662, 1.393058)" stroke="#FFFFFF">
            <polyline id="Path-64" points="0 2.13576925 1.29464549 2.13576925 1.29464549 3.3852209 3.25525259 3.3852209 3.25525259 4.20274023 7.25246155 4.20274023 7.25246155 3.16925474 13.1196021 3.16925474 13.1196021 4.20274023 16.2261755 4.20274023 16.2261755 3.16925474 19.3136064 3.16925474 19.3136064 5.13266847 20.3034812 6.12254333 20.3034812 7.22022135 18.0612761 7.22022135 18.0612761 8.23362868 11.9495995 8.23362868 11.9495995 6.94819467 4.95980919 6.94819467 7.25246155 6.94819467 7.25246155 8.23362868 8.20541851 9.18658563 7.25246155 10.1395426 5.93421163 10.1395426 7.57644677 10.1395426 8.4570072 11.020103 8.4570072 12.2070893 5.93421163 12.2070893 8.20541851 12.2070893 8.20541851 15.1285695 6.91149266 15.1285695 6.91149266 16.1016765 5.17009013 16.1016765 5.17009013 15.1285695 0 15.1285695 0 17.3013286 1.97600755 19.2773361 4.30593765 19.2773361 4.30593765 21.3051583 5.17009013 21.3051583 5.93421163 22.0692798 8.4570072 22.0692798 8.4570072 18.9913483 10.1517406 18.9913483 10.1517406 17.8286861 11.2663663 17.8286861 11.2663663 16.9807977 15.253932 16.9807977 15.253932 20.2321642 17.3240694 20.2321642 17.3240694 18.9913483 18.0612761 18.9913483 18.0612761 16.9807977 19.3136064 16.9807977 19.3136064 15.1285695 20.5434836 15.1285695 20.5434836 14.0201687 21.3369667 14.0201687 22.2299051 13.1272303 22.2299051 12.1025245 23.3243447 12.1025245 23.3243447 8.23362868 22.2299051 7.13918907 22.2299051 2.13576925 21.0666672 2.13576925 21.0666672 0.957418767 16.2261755 0.957418767 15.253932 1.92966227 14.2816885 0.957418767 13.1196021 0.957418767 13.1196021 -1.13154007e-16 8.20541851 0 8.20541851 1.18482731 1.97600755 1.18482731 0.841843411 2.37181357"></polyline>
            <polyline id="Path-65" points="16.20876 8.26356601 12.4578144 12.0145117 11.1923866 12.0145117 10.1436446 13.0632537 8.29609407 13.0632537"></polyline>
            <line x1="8.20541851" y1="9.18658563" x2="9.34476411" y2="9.18658563" id="Path-66"></line>
            <line x1="8.29609407" y1="11.0346399" x2="9.34476411" y2="11.0346399" id="Path-67"></line>
            <polyline id="Path-68" points="20.4313625 10.1067267 19.1233316 10.1067267 19.1233316 11.3199081"></polyline>
            <polyline id="Path-69" points="18.7816431 15.0669676 17.0626935 15.0669676 16.20876 16.1714823 16.20876 17.1241514 14.890798 17.1241514"></polyline>
        </g>
    </g>
</svg>