<?xml version="1.0" encoding="UTF-8"?>
<svg width="26px" height="27px" viewBox="0 0 26 27" version="1.1" xmlns="http://www.w3.org/2000/svg" xmlns:xlink="http://www.w3.org/1999/xlink">
    <title>fletching</title>
    <g id="Page-1" stroke="none" stroke-width="1" fill="none" fill-rule="evenodd">
        <g id="fletching" transform="translate(0.597894, 1.491163)" stroke="#FFFFFF">
            <polygon id="Path-44" points="14.8948973 0 15.967361 0 15.967361 2.12598924 17.0017591 2.12598924 17.0017591 3.03880486 19.0230207 3.03880486 19.0230207 4.09062602 15.967361 7.14628578 12.9317756 7.14628578 2.97981273 17.0982486 2.97981273 19.0403491 -6.6400124e-16 19.0403491 0 15.9721902 2.01965191 15.9721902 12.0399812 5.95186085 12.0399812 3.03880486"></polygon>
            <line x1="17.0017591" y1="2.12598924" x2="12.5986547" y2="6.45921211" id="Path-45"></line>
            <polygon id="Path-46" points="23.9554445 4.99283631 20.9149352 4.99283631 20.9149352 6.98436516 10.8037978 17.0955026 7.87095154 17.0955026 4.84668165 20.1197725 4.84668165 21.1962605 7.04051658 21.1962605 7.04051658 22.1899417 7.87095154 22.1899417 7.87095154 24.1587449 8.95705062 24.1587449 11.919535 21.1962605 11.919535 17.9455385 21.8435642 8.0215093 23.9554445 8.0215093"></polygon>
            <line x1="7.04051658" y1="22.1899417" x2="11.3195765" y2="17.5904494" id="Path-47"></line>
        </g>
    </g>
</svg>