<?xml version="1.0" encoding="UTF-8"?>
<svg width="26px" height="19px" viewBox="0 0 26 19" version="1.1" xmlns="http://www.w3.org/2000/svg" xmlns:xlink="http://www.w3.org/1999/xlink">
    <title>herblore</title>
    <g id="Page-1" stroke="none" stroke-width="1" fill="none" fill-rule="evenodd">
        <g id="herblore" transform="translate(1.491626, 1.404733)" stroke="#FFFFFF">
            <polygon id="Path-34" points="12.0800353 0 10.9939362 0 9.93302475 1.14670095 9.93302475 2.09436264 8.99786219 2.09436264 8.99786219 3.25280521 6.98644835 3.25280521 6.05374774 2.09436264 3.96932759 2.09436264 3.96932759 5.24850044 3.96932759 6.10715314 2.14852556 6.10715314 2.14852556 4.96973185 1.66174306e-16 4.96973185 0 10.0123753 3.96932759 13.9817029 6.04001763 13.9817029 6.04001763 15.258035 8.99786219 15.258035 8.99786219 16.1761533 14.9739638 16.1761533 14.9739638 15.258035 18.1820751 15.258035 18.1820751 13.9817029 20.0177435 13.9817029 23.9870711 10.0123753 23.9870711 5.24850044 21.6272913 5.24850044 21.6272913 6.10715314 20.0177435 6.10715314 20.0177435 2.09436264 18.1820751 2.09436264 17.0236326 3.25280521 14.9739638 3.25280521 14.9739638 2.09436264 14.03918 2.09436264 14.03918 1.14670095 12.892479 0"></polygon>
            <polyline id="Path-35" points="9.05922158 3.68705546 9.05922158 5.13544008 7.96668355 5.13544008 7.96668355 8.08807666 7.0383387 8.08807666 7.0383387 6.97811559 5.93689977 6.97811559 5.93689977 5.94135022 4.36484946 5.94135022"></polyline>
            <polyline id="Path-36" points="15.0523675 3.68705546 15.0523675 5.17483129 16.1449055 5.17483129 16.1449055 8.08807666 17.1484345 8.08807666 17.1484345 6.86221452 18.0483723 6.86221452 18.0483723 5.88756606 19.7986299 5.88756606"></polyline>
        </g>
    </g>
</svg>