<?xml version="1.0" encoding="UTF-8"?>
<svg width="25px" height="22px" viewBox="0 0 25 22" version="1.1" xmlns="http://www.w3.org/2000/svg" xmlns:xlink="http://www.w3.org/1999/xlink">
    <title>health</title>
    <g id="Page-1" stroke="none" stroke-width="1" fill="none" fill-rule="evenodd">
        <g id="health" transform="translate(1.400275, 1.471726)" stroke="#fff">
            <polygon id="Path-30" points="2.05345638 0 8.07463062 0 8.07463062 1.20768158 10.3019386 1.20768158 10.3019386 2.21859647 12.062991 2.21859647 12.062991 1.10929824 14.0905022 1.10929824 14.0905022 0 20.2415917 0 20.2415917 1.10929824 21.1634976 1.10929824 21.1634976 2.99430037 22.3291366 2.99430037 22.3291366 9.81219978 21.1634976 9.81219978 21.1634976 11.9450067 20.2415917 11.9450067 20.2415917 13.0358403 18.9314551 13.0358403 18.9314551 14.0914491 17.9061472 14.0914491 17.9061472 15.3345449 16.9325404 15.3345449 16.9325404 16.1805091 15.9293901 16.1805091 15.9293901 17.3088401 14.9595708 17.3088401 14.9595708 17.9824677 14.0905022 17.9824677 14.0905022 19.0698925 8.07463062 19.0698925 8.07463062 17.9824677 6.86202514 17.9824677 0.824564152 11.9450067 0.824564152 9.81219978 -2.23888096e-16 9.81219978 0 2.99430037 1.28078258 2.99430037 1.28078258 0.861114653"></polygon>
        </g>
    </g>
</svg>
