<?xml version="1.0" encoding="UTF-8"?>
<svg width="23px" height="24px" viewBox="0 0 23 24" version="1.1" xmlns="http://www.w3.org/2000/svg" xmlns:xlink="http://www.w3.org/1999/xlink">
    <title>hunter</title>
    <g id="Page-1" stroke="none" stroke-width="1" fill="none" fill-rule="evenodd">
        <g id="hunter" transform="translate(1.377597, 0.464697)" stroke="#FFFFFF">
            <polyline id="Path-55" points="8.1198453 0 8.1198453 1.10977169 6.15833331 3.07128368 6.15833331 4.27205286 5.30862885 5.12175731 5.30862885 10.1125578 6.15833331 10.1125578 6.15833331 11.0177982 8.1198453 11.0177982 8.1198453 10.1125578 9.1010274 10.1125578 9.1010274 1.8161622 7.7878607 1.10977169"></polyline>
            <polyline id="Path-56" points="13.0931754 0 13.0931754 1.26847283 12.3441742 2.01747403 12.3441742 10.1205118 13.0931754 10.869513 14.2037046 10.869513 14.2037046 10.1205118 15.3483224 10.1205118 15.3483224 7.19798674 16.1965591 7.19798674 16.1965591 5.8842519 15.3483224 5.8842519 15.3483224 2.64602901 12.7322155 1.26847283"></polyline>
            <polyline id="Path-57" points="2.12253304 6.92660401 2.12253304 8.11667317 1.09353228 9.14567393 1.09353228 11.0177982 -6.83336752e-17 12.1113304 0 14.1232651 1.09353228 14.1232651 1.09353228 16.2075905 2.12253304 17.2365913 2.99728312 17.2365913 4.02628388 16.2075905 4.02628388 12.0815977 2.99728312 11.0525969 2.99728312 8.5600137 2.01314194 7.87218251"></polyline>
            <polyline id="Path-58" points="19.1175691 5.95526971 19.1175691 8.06345715 17.0447959 10.1362304 17.0447959 12.0815977 16.1965591 12.9298344 16.1965591 16.0218079 17.0447959 16.0218079 17.0447959 17.2365913 19.1175691 17.2365913 20.3323525 16.0218079 20.3323525 12.9298344 21.0504846 12.9298344 21.0504846 10.1362304 20.2016797 10.1362304 20.2016797 8.76530253 18.6235218 7.69757338"></polyline>
            <polyline id="Path-59" points="12.3441742 14.0011144 12.0042356 14.0011144 8.01890531 14.0011144 7.20482813 14.8151916 7.20482813 16.256072 5.96828964 16.256072 5.96828964 17.2365913 5.0236107 18.1812703 5.0236107 21.1712622 5.96828964 22.1159412 14.2703666 22.1159412 14.2703666 20.9262034 15.3483224 20.9262034 15.3483224 18.9316445 14.2703666 17.8536888 14.2703666 16.8450464 13.2740341 16.8450464 13.2740341 14.8151916 12.0042356 14.0011144"></polyline>
        </g>
    </g>
</svg>