<?xml version="1.0" encoding="UTF-8"?>
<svg width="25px" height="24px" viewBox="0 0 25 24" version="1.1" xmlns="http://www.w3.org/2000/svg" xmlns:xlink="http://www.w3.org/1999/xlink">
    <title>magic</title>
    <g id="Page-1" stroke="none" stroke-width="1" fill="none" fill-rule="evenodd">
        <g id="magic" transform="translate(0.543331, 1.364777)" stroke="#FFFFFF">
            <polygon id="Path-17" points="2.96494634 8.14943605 2.96494634 11.1617276 5.97648036 11.1617276 5.97648036 14.2831025 5.0305231 14.2831025 5.0305231 15.3313254 0.919840466 15.3313254 0.919840466 16.2378915 -4.13098596e-17 16.2378915 0 19.0144039 0.919840466 19.0144039 0.919840466 21.2059189 2.98824018 21.2059189 2.98824018 22.0677911 17.0632132 22.0677911 17.0632132 21.2059189 19.9357416 21.2059189 19.9357416 20.1135702 23.1106936 20.1135702 23.1106936 18.2235495 23.8504329 18.2235495 23.8504329 15.1086136 23.0249218 14.2831025 20.8557537 14.2831025 20.8557537 15.1086136 18.8583541 15.1086136 18.8583541 14.2831025 17.7629753 14.2831025 17.7629753 13.1769291 17.0632132 13.1769291 17.0632132 12.0200015 15.6356604 12.0200015 15.6356604 9.02437551 14.918854 9.02437551 14.918854 6.15241516 13.8901373 6.15241516 13.8901373 3.08084741 12.8847144 3.08084741 12.8847144 2.11008125 12.015267 1.24063384 12.015267 -6.521597e-17 8.94521432 0 8.94521432 1.24063384 6.94175447 1.24063384 6.94175447 3.08084741 5.97648036 3.08084741 5.97648036 5.44072198 5.0305231 5.44072198 5.0305231 7.05917059 3.80958486 7.05917059 3.80958486 8.14943605"></polygon>
            <polyline id="Path-18" stroke-width="1.2" points="6.00621315 15.1315286 6.00621315 16.1771002 8.89048326 16.1771002 8.89048326 17.2383904 11.9252164 17.2383904 12.015267 16.1849595 8.89048326 16.1771002"></polyline>
            <polygon id="Path-19" points="12.9928509 16.1849595 12.9928509 17.2383904 14.9989621 17.2383904 14.9989621 15.1315286 13.9959065 15.1315286"></polygon>
            <polyline id="Path-20" stroke-width="1.2" points="18.1532892 15.3917379 16.9952254 13.9910773 16.8575456 16.1849595 15.8750378 16.1849595 15.8750378 14.7480325"></polyline>
        </g>
    </g>
</svg>