<?xml version="1.0" encoding="UTF-8"?>
<svg width="23px" height="24px" viewBox="0 0 23 24" version="1.1" xmlns="http://www.w3.org/2000/svg" xmlns:xlink="http://www.w3.org/1999/xlink">
    <title>mining</title>
    <g id="Page-1" stroke="none" stroke-width="1" fill="none" fill-rule="evenodd">
        <g id="mining" transform="translate(0.521748, 0.506657)" stroke="#FFFFFF">
            <polygon id="Path-60" points="0 5.05206797 0 3.99850432 3.01748113 0.981023198 6.13168285 0.981023198 7.11270605 -5.62681046e-17 12.1840606 0 13.1650838 0.981023198 14.0679533 0.981023198 15.2248583 2.1379282 16.8797592 2.1379282 16.8797592 0.778514448 19.9494867 0.778514448 19.9494867 2.1379282 21.112005 2.1379282 21.112005 5.05206797 19.9494867 5.05206797 19.9494867 7.18179219 20.9009324 8.13323788 20.9009324 9.23739273 21.8425549 10.1790152 21.8425549 14.9698153 20.9009324 15.9114378 20.9009324 19.0568362 17.9150798 22.0426888 16.8797592 22.0426888 15.9000134 21.062943 17.9150798 19.0478766 17.9150798 17.7937113 18.9951085 16.7136826 18.9951085 11.9192304 18.0972225 11.0213444 18.0972225 9.83657107 15.9000134 7.63936193 10.7356984 12.8036769 9.91227797 12.8036769 6.00227227 16.7136826 6.00227227 18.2018952 2.16147865 22.0426888 0 22.0426888 0 19.8213895 3.90995172 15.9114378 5.10474615 15.9114378 9.09695356 11.9192304 9.09695356 10.6404171 13.8092581 5.92811262 11.8796498 3.99850432 10.9212775 3.99850432 9.91227797 2.98950484 5.10474615 2.98950484 4.09574667 3.99850432 3.01748113 3.99850432 1.08787283 5.92811262"></polygon>
            <line x1="15.9573153" y1="2.09359792" x2="19.9358854" y2="6.07216802" id="Path-61"></line>
            <line x1="13.9435982" y1="6.07216802" x2="15.9573153" y2="8.08588509" id="Path-62"></line>
        </g>
    </g>
</svg>