<?xml version="1.0" encoding="UTF-8"?>
<svg width="25px" height="25px" viewBox="0 0 25 25" version="1.1" xmlns="http://www.w3.org/2000/svg" xmlns:xlink="http://www.w3.org/1999/xlink">
    <title>prayer</title>
    <g id="Page-1" stroke="none" stroke-width="1" fill="none" fill-rule="evenodd">
        <g id="prayer" transform="translate(1.463171, 1.360931)" stroke="#FFFFFF">
            <polygon id="Path-16" points="11.1226974 0 10.1533516 1.03799635 10.1533516 4.22281384 8.93743195 4.22281384 8.93743195 5.21971455 7.97831272 6.17883378 7.97831272 7.28964707 7.10285246 8.16510732 5.91093684 8.16510732 4.92755319 9.14849097 4.01996921 9.14849097 2.91193746 10.2565227 0.988171438 10.2565227 2.7316874e-18 11.2446942 0.988171438 12.2328656 2.91193746 12.2328656 4.01996921 13.3408974 5.5613487 13.3408974 6.24398523 14.0235339 7.10285246 14.0235339 7.97831272 14.8989941 7.97831272 16.3036066 8.93743195 17.2627259 8.93743195 18.3106647 10.1533516 19.5265844 10.1533516 21.2301596 11.1226974 22.1995054 12.0920432 21.2301596 12.0920432 18.8937683 13.0489372 17.9368743 13.0489372 16.864742 13.9926929 15.9209863 13.9926929 14.8989941 14.8681532 14.0235339 16.2651446 14.0235339 17.244185 13.0444934 18.1263794 13.0444934 18.9380072 12.2328656 21.2026817 12.2328656 22.1908531 11.2446942 21.2026817 10.2565227 18.9380072 10.2565227 17.8299755 9.14849097 16.8757084 9.14849097 15.8923247 8.16510732 14.8681532 8.16510732 13.9926929 7.28964707 13.9926929 6.17883378 13.0489372 5.23507807 13.0489372 4.22281384 12.0920432 4.22281384 12.0920432 1.03799635"></polygon>
        </g>
    </g>
</svg>