<?xml version="1.0" encoding="UTF-8"?>
<svg width="24px" height="25px" viewBox="0 0 24 25" version="1.1" xmlns="http://www.w3.org/2000/svg" xmlns:xlink="http://www.w3.org/1999/xlink">
    <title>ranged</title>
    <g id="Page-1" stroke="none" stroke-width="1" fill="none" fill-rule="evenodd">
        <g id="ranged" transform="translate(0.567193, 1.448676)" stroke="#FFFFFF">
            <polygon id="Path-13" points="20.9957062 1.02720164 17.970158 1.02720164 17.970158 3.04997833 15.9551459 3.04997833 13.9323692 1.02720164 12.8593374 1.02720164 11.8321358 6.09200525e-17 6.90861283 0 5.88141118 1.02720164 4.8634892 1.02720164 3.88391684 2.00677401 2.90434447 1.02720164 2.05440329 1.02720164 1.02720164 0 3.82437201e-17 1.02720164 0 2.00677401 9.25726659 11.2640406 7.58006258 12.9412446 4.8634892 12.9412446 2.05440329 15.7503305 2.05440329 17.2741834 4.21504922 17.2741834 4.21504922 18.2385106 4.8634892 18.2385106 4.8634892 20.3222679 5.88141118 20.3222679 8.92949571 17.2741834 8.92949571 14.1444757 10.4978531 12.5761184 20.0897083 22.1679735 20.9957062 22.1679735 22.0986602 21.0650196 20.9957062 19.9620656 20.9957062 18.8392266 20.0897083 17.9332287 20.9957062 17.0272308 20.9957062 15.7503305 22.0986602 14.6473765 22.0986602 9.97639296 20.9957062 8.87343898 20.9957062 7.88524979 17.970158 4.85970158 19.0223579 3.80750167 20.9957062 3.80750167"></polygon>
            <polygon id="Path-14" points="5.94144491 5.16498349 5.94144491 3.93078859 8.00266591 3.93078859 8.00266591 3.15773603 12.0493556 3.15773603 12.0493556 3.93078859 12.7743054 3.93078859 12.7743054 7.86422852 10.9611733 9.67736062"></polygon>
            <polygon id="Path-15" points="15.0288842 8.09281118 15.0288842 9.04937378 18.0364413 9.04937378 18.0364413 10.1242994 19.0223579 10.1242994 19.0223579 14.051111 18.0364413 14.051111 18.0364413 16.090932 17.0256211 16.090932 12.0186759 11.0839868"></polygon>
        </g>
    </g>
</svg>