<?xml version="1.0" encoding="UTF-8"?>
<svg width="26px" height="27px" viewBox="0 0 26 27" version="1.1" xmlns="http://www.w3.org/2000/svg" xmlns:xlink="http://www.w3.org/1999/xlink">
    <title>runecrafting</title>
    <g id="Page-1" stroke="none" stroke-width="1" fill="none" fill-rule="evenodd">
        <g id="runecrafting" transform="translate(0.543331, 1.513000)" stroke="#fff">
            <polygon id="Path-21" points="12.015267 0 8.08826604 3.92700098 7.084737 4.93053002 6.00621315 4.93053002 4.96215662 5.97458655 3.89329119 5.97458655 2.87404354 6.9938342 0.980424578 8.88745316 0.980424578 10.2765616 4.97196139e-17 11.2569862 0 13.0307271 0.980424578 14.0111516 0.980424578 15.1114543 3.89329119 18.0243209 4.96215662 18.0243209 6.00621315 19.0683774 7.084737 19.0683774 8.08826604 20.0719065 12.015267 23.9989074 16.945797 19.0683774 18.1532892 19.0683774 19.1973458 18.0243209 20.1508783 18.0243209 23.0637449 15.1114543 23.0637449 14.0111516 24.0441695 13.0307271 24.0441695 10.7594827 23.0637449 9.77905813 23.0637449 8.88745316 20.1508783 5.97458655 19.1973458 5.97458655 18.1532892 4.93053002 16.945797 4.93053002"></polygon>
            <polyline id="Path-22" points="8.08826604 3.97074795 10.0902108 3.97074795 10.0902108 6.12230361 10.0902108 9.01831532 7.91422506 9.01831532 7.91422506 10.9299255 9.00221795 10.9299255 9.00221795 11.9994537 10.9310617 11.9994537 10.9310617 14.9093849 10.0902108 14.9093849 9.00221795 15.9973778 9.00221795 18.0849228 9.80935906 18.0849228 9.80935906 19.9308177 7.91422506 19.9308177"></polyline>
            <polyline id="Path-23" points="14.9989621 3.97074795 13.9959065 3.97074795 13.9959065 8.91320896 12.0220847 8.91320896 12.0220847 11.1571825 12.9928509 11.1571825 12.9928509 11.9507828 14.9989621 11.9507828 14.9989621 13.1286369 15.8750378 13.1286369 15.8750378 13.9742224 14.9989621 13.9742224 14.9989621 14.948208 13.9485613 14.948208 13.9485613 15.9521158 12.9928509 15.9521158 12.9928509 18.0436377 13.9485613 18.0436377 13.9485613 19.9308177 15.8750378 19.9308177"></polyline>
        </g>
    </g>
</svg>
