<?xml version="1.0" encoding="UTF-8"?>
<svg width="24px" height="26px" viewBox="0 0 24 26" version="1.1" xmlns="http://www.w3.org/2000/svg" xmlns:xlink="http://www.w3.org/1999/xlink">
    <title>slayer</title>
    <g id="Page-1" stroke="none" stroke-width="1" fill="none" fill-rule="evenodd">
        <g id="slayer" transform="translate(1.473067, 1.345588)" stroke="#FFFFFF">
            <polygon id="Path-48" points="15.9250343 0 18.082082 0 18.082082 1.21203734 19.1320094 1.21203734 19.1320094 2.20003715 20.1478482 2.20003715 20.1478482 3.07270403 18.082082 5.13847017 18.082082 6.26623304 19.1320094 7.31616038 20.1478482 8.33199918 20.1478482 9.33704326 18.082082 11.4028094 19.1320094 12.4527367 19.1320094 15.2173182 21.9550148 18.0403236 21.9550148 21.0464602 20.1478482 22.8536268 14.97207 22.8536268 14.106931 21.9884879 13.1025497 21.9884879 13.1025497 23.2351345 2.96759767 23.2351345 1.66835667e-16 20.2675369 0 12.0499237 4.09337204 7.95655167 10.304874 7.95655167 10.9775074 7.2839183 10.9775074 6.26623304 12.1052703 5.13847017 10.9775074 4.0107073 10.304874 4.0107073 9.36687075 3.07270403 9.36687075 1.84002418 9.99485759 1.21203734 12.1052703 1.21203734 13.0932701 2.20003715 14.106931 2.20003715"></polygon>
            <polyline id="Path-49" points="18.6328015 10.762134 15.920868 8.0502005 14.9021885 9.16054033 13.8702523 10.1924765 13.8702523 11.6175673 10.9775074 14.5103122 7.88752236 14.5103122 6.59331741 13.2161072 6.59331741 10.762134 7.88752236 9.46792909 9.30525096 8.0502005"></polyline>
            <polyline id="Path-50" points="13.9016895 3.22250427 15.1214915 3.22250427 15.1214915 4.21902622 16.2062649 4.21902622 17.9493261 5.94277057"></polyline>
            <polyline id="Path-51" points="20.1478482 19.0981102 21.1062099 20.0564719 19.1484855 22.0141963 17.9493261 20.8150369"></polyline>
            <polyline id="Path-52" points="16.2528526 13.058566 14.9673355 13.058566 14.9673355 15.33909 16.2528526 15.33909"></polyline>
            <polyline id="Path-53" points="16.2528526 19.3865372 16.2528526 17.1124522 17.9493261 17.1124522"></polyline>
            <polygon id="Path-54" points="13.1025497 16.0704788 10.0055576 16.0704788 10.0055576 18.2494947 12.1591965 18.2494947 13.2487044 17.1599868"></polygon>
        </g>
    </g>
</svg>