<?xml version="1.0" encoding="UTF-8"?>
<svg width="18px" height="22px" viewBox="0 0 18 22" version="1.1" xmlns="http://www.w3.org/2000/svg" xmlns:xlink="http://www.w3.org/1999/xlink">
    <title>strength</title>
    <g id="Page-1" stroke="none" stroke-width="1" fill="none" fill-rule="evenodd">
        <g id="strength" transform="translate(1.467181, 1.412199)" stroke="#FFFFFF">
            <polygon id="Path-5" points="7.48338366 0 5.01082749 0 5.01082749 1.05257868 4.16827216 1.05257868 4.16827216 2.09568831 3.16133426 2.09568831 2.21007433 3.04694824 2.21007433 4.21107223 1.10748761 4.21107223 1.10748761 4.99435136 1.50548381e-16 4.99435136 0 8.19412993 3.16133426 11.3554642 3.16133426 12.1910124 4.16827216 13.1979503 4.16827216 19.3155194 12.0467042 19.3155194 12.0467042 14.2463626 13.0384917 14.2463626 13.0384917 11.3554642 14.1075465 11.3554642 14.1075465 8.19412993 15.2973316 7.00434484 15.2973316 5.94068739 10.4092229 1.05257868 8.05780936 1.05257868"></polygon>
            <polyline id="Path-6" points="10.938637 2.62955288 10.938637 4.1906191 8.05780936 7.07144672 8.05780936 5.15968083 7.06220068 5.15968083 7.06220068 3.0730828 9.00041883 1.13486465"></polyline>
            <polyline id="Path-7" points="13.1903751 4.10315568 13.1903751 6.1855568 11.9694369 6.1855568 11.9694369 7.07144672 10.938637 7.07144672 10.938637 10.0197612 12.064506 10.0197612 14.1075465 8.19412993"></polyline>
            <line x1="4.16827216" y1="2.09568831" x2="7.06220068" y2="4.98961684" id="Path-8"></line>
            <polyline id="Path-9" points="10.938637 8.21799192 6.02988576 8.21799192 4.88334056 7.07144672 4.88334056 5.68881088"></polyline>
            <polyline id="Path-10" points="7.06220068 8.21799192 7.06220068 9.3949938 9.00041883 11.3332119 9.00041883 14.2700352"></polyline>
        </g>
    </g>
</svg>