<?xml version="1.0" encoding="UTF-8"?>
<svg width="26px" height="14px" viewBox="0 0 26 14" version="1.1" xmlns="http://www.w3.org/2000/svg" xmlns:xlink="http://www.w3.org/1999/xlink">
    <title>thieving</title>
    <g id="Page-1" stroke="none" stroke-width="1" fill="none" fill-rule="evenodd">
        <g id="thieving" transform="translate(0.597894, 0.520295)" stroke="#FFFFFF">
            <polygon id="Path-37" points="11.9481315 0 5.94911483 0 5.94911483 1.09632565 2.97924459 1.09632565 6.82344864e-17 4.07557024 0 7.97255435 2.05104178 10.0235961 6.89223139 10.0235961 7.94329502 10.0235961 7.94329502 11.0009433 9.80888561 11.0009433 9.80888561 12.2461223 13.9440161 12.2461223 13.9440161 11.0009433 16.0353487 11.0009433 16.0353487 10.0235961 21.9256608 10.0235961 23.9767025 7.97255435 23.9767025 4.07557024 20.9974579 1.09632565 17.9128703 1.09632565 17.9128703 0"></polygon>
            <polygon id="Path-38" points="9.8603972 2.99221718 4.82722277 2.99221718 1.69637882 6.12306113 1.69637882 7.08076001 3.01257562 7.08076001 3.01257562 8.00721105 8.95364177 8.00721105 8.95364177 7.08076001 9.8603972 7.08076001"></polygon>
            <polygon id="Path-39" points="13.8434549 2.99221718 13.8434549 7.20991774 15.063825 7.20991774 15.8611183 8.00721105 21.021746 8.00721105 21.021746 7.20991774 22.1086026 6.12306113 22.1086026 5.03393195 21.021746 5.03393195 21.021746 4.04858347 19.8788327 4.04858347 19.8788327 2.99221718"></polygon>
        </g>
    </g>
</svg>