<?xml version="1.0" encoding="UTF-8"?>
<svg width="20px" height="24px" viewBox="0 0 20 24" version="1.1" xmlns="http://www.w3.org/2000/svg" xmlns:xlink="http://www.w3.org/1999/xlink">
    <title>woodcutting</title>
    <g id="Page-1" stroke="none" stroke-width="1" fill="none" fill-rule="evenodd">
        <g id="woodcutting" transform="translate(1.387528, 1.482259)" stroke="#FFFFFF">
            <polygon id="Path-79" points="12.120012 4.65121456e-18 5.11496514 4.65121456e-18 5.11496514 1.08378883 3.92222171 1.08378883 3.92222171 2.11605092 2.96091685 2.11605092 2.96091685 2.9069433 1.90821678 2.9069433 1.90821678 4.11307217 0.965334887 4.11307217 0.965334887 5.03882646 -4.92654579e-17 5.03882646 0 9.99215882 1.15143568 9.99215882 1.15143568 11.1027185 3.92222171 11.1027185 3.92222171 11.9683103 5.11496514 11.9683103 5.11496514 13.1416233 6.06000598 13.1416233 6.06000598 18.067609 5.11496514 18.067609 5.11496514 18.9759478 4.14631988 18.9759478 4.14631988 20.3297483 4.14631988 21.1681374 13.3647139 21.1681374 13.3647139 18.9759478 12.120012 18.9759478 12.120012 18.067609 10.8908544 18.067609 10.8908544 14.9118117 12.120012 14.9118117 12.120012 13.8111831 13.3647139 13.8111831 13.3647139 12.725955 14.3091071 11.7815618 14.3091071 10.8232075 16.2853305 10.8232075 16.2853305 9.99215882 17.3833684 9.99215882 17.3833684 5.98501873 16.2853305 5.98501873 16.2853305 4.11307217 14.9725499 4.11307217 14.9725499 2.9069433 13.1698334 2.9069433 13.1698334 1.08378883 12.120012 1.08378883"></polygon>
            <polyline id="Path-80" points="12.191257 10.9934761 11.0953781 10.9934761 11.0953781 12.3095671"></polyline>
            <polyline id="Path-81" points="3.96770342 9.0119992 5.21859435 9.0119992 5.21859435 10.9934761 6.07094462 10.9934761 6.07094462 13.1814917"></polyline>
            <polyline id="Path-82" points="14.1360319 7.91496886 14.1360319 9.0119992 12.191257 9.0119992 13.1636445 9.0119992 13.1636445 12.3095671 12.191257 12.3095671 12.191257 13.5325357"></polyline>
            <polyline id="Path-83" points="9.07129814 7.91496886 9.07129814 9.0119992 8.01183338 9.0119992 8.01183338 11.0967455 9.07129814 11.0967455 9.07129814 12.0726592 12.7453855 12.0726592"></polyline>
            <line x1="6.07094462" y1="12.0726592" x2="9.07129814" y2="12.0726592" id="Path-84"></line>
        </g>
    </g>
</svg>